<svg width="39" height="38" viewBox="0 0 39 38" fill="none" xmlns="http://www.w3.org/2000/svg">
<path fill-rule="evenodd" clip-rule="evenodd" d="M19.5026 4.33301C27.6028 4.33301 34.1693 10.8995 34.1693 18.9997C34.1693 27.0999 27.6028 33.6663 19.5026 33.6663C11.4024 33.6663 4.83594 27.0999 4.83594 18.9997C4.83594 10.8995 11.4024 4.33301 19.5026 4.33301ZM19.5026 5.79967C12.2124 5.79967 6.3026 11.7095 6.3026 18.9997C6.3026 26.2898 12.2124 32.1997 19.5026 32.1997C26.7927 32.1997 32.7026 26.2898 32.7026 18.9997C32.7026 11.7095 26.7927 5.79967 19.5026 5.79967ZM19.5026 20.2663C23.5895 20.2663 26.9026 23.5794 26.9026 27.6663C26.9026 28.0713 26.5742 28.3997 26.1693 28.3997C25.7643 28.3997 25.4359 28.0713 25.4359 27.6663C25.4359 24.3895 22.7795 21.733 19.5026 21.733C16.2257 21.733 13.5693 24.3895 13.5693 27.6663C13.5693 28.0713 13.2409 28.3997 12.8359 28.3997C12.431 28.3997 12.1026 28.0713 12.1026 27.6663C12.1026 23.5794 15.4157 20.2663 19.5026 20.2663ZM19.5026 9.99967C21.8958 9.99967 23.8359 11.9398 23.8359 14.333C23.8359 16.7263 21.8958 18.6663 19.5026 18.6663C17.1094 18.6663 15.1693 16.7263 15.1693 14.333C15.1693 11.9398 17.1094 9.99967 19.5026 9.99967ZM19.5026 11.4663C17.9194 11.4663 16.6359 12.7498 16.6359 14.333C16.6359 15.9162 17.9194 17.1997 19.5026 17.1997C21.0858 17.1997 22.3693 15.9162 22.3693 14.333C22.3693 12.7498 21.0858 11.4663 19.5026 11.4663Z" fill="white"/>
</svg>
