<svg width="545" height="175" viewBox="0 0 545 175" fill="none" xmlns="http://www.w3.org/2000/svg">
<g filter="url(#filter0_d_96_150)">
<path d="M37.7781 37.4673C37.7781 41.7031 36.5151 44.948 33.9891 47.202C31.502 49.4559 27.7908 50.5829 22.8554 50.5829C20.7569 50.5829 18.8139 50.3303 17.0262 49.8251C15.2386 49.2811 13.6842 48.5621 12.3629 47.6683C11.0416 46.7357 10.0118 45.667 9.27344 44.4623C8.53508 43.2187 8.18533 41.878 8.22419 40.4402C8.26305 38.8468 8.74881 37.4867 9.68148 36.3597C10.6141 35.1939 11.8966 34.611 13.5287 34.611C15.3941 34.611 16.7348 35.1162 17.5509 36.1266C18.367 37.0981 18.7556 38.3805 18.7167 39.9738C18.7167 40.8288 18.6778 41.7809 18.6001 42.8301C18.5224 43.8405 18.5807 44.7926 18.775 45.6864C19.0082 46.5802 19.4551 47.338 20.1157 47.9598C20.8152 48.5427 21.9033 48.8342 23.38 48.8342C24.6236 48.8342 25.5757 48.3678 26.2363 47.4352C26.9358 46.5025 27.2856 45.2201 27.2856 43.5879L27.3439 13.5677C27.3439 11.8189 27.0719 10.4976 26.5278 9.60381C25.9837 8.71001 25.3425 8.2631 24.6042 8.2631V7.68019H40.5178V8.2631C39.8183 8.2631 39.1965 8.71001 38.6525 9.60381C38.1084 10.4976 37.8364 11.8189 37.8364 13.5677L37.7781 37.4673ZM78.0554 13.5677C78.0554 11.8189 77.7834 10.4976 77.2393 9.60381C76.6953 8.71001 76.0541 8.2631 75.3157 8.2631V7.68019H82.4856V8.2631C81.7861 8.2631 81.1643 8.71001 80.6203 9.60381C80.0762 10.4976 79.8042 11.8189 79.8042 13.5677V34.1446C79.8042 39.5852 78.5023 43.6851 75.8986 46.4442C73.2949 49.2033 69.5448 50.5829 64.6483 50.5829C58.858 50.5829 54.525 49.009 51.6493 45.8613C48.7735 42.7135 47.3357 38.0696 47.3357 31.9296V13.5677C47.3357 11.8189 47.0636 10.4976 46.5196 9.60381C45.9755 8.71001 45.3343 8.2631 44.596 8.2631V7.68019H60.5096V8.2631C59.8101 8.2631 59.1883 8.71001 58.6443 9.60381C58.1002 10.4976 57.8282 11.8189 57.8282 13.5677L57.8865 33.7366C57.8865 38.0502 58.7026 41.2368 60.3347 43.2964C62.0058 45.3561 64.5512 46.3859 67.971 46.3859C74.6939 46.3859 78.0554 42.4804 78.0554 34.6693V13.5677ZM99.2677 43.5296C99.2677 45.395 99.5397 46.8328 100.084 47.8432C100.628 48.8536 101.25 49.3588 101.949 49.3588V50H86.0355V49.3588C86.7738 49.3588 87.4151 48.8536 87.9591 47.8432C88.5032 46.8328 88.7752 45.395 88.7752 43.5296V13.5677C88.7752 11.8189 88.5032 10.4976 87.9591 9.60381C87.4151 8.71001 86.7738 8.2631 86.0355 8.2631V7.68019H101.949V8.2631C101.25 8.2631 100.628 8.71001 100.084 9.60381C99.5397 10.4976 99.2677 11.8189 99.2677 13.5677V43.5296ZM124.722 7.03898C127.054 7.03898 129.172 7.311 131.076 7.85506C132.98 8.39912 134.593 9.13748 135.914 10.0701C137.274 11.0028 138.304 12.0909 139.004 13.3345C139.742 14.5392 140.092 15.8216 140.053 17.1817C140.014 18.7751 139.528 20.1546 138.596 21.3205C137.663 22.4474 136.38 23.0109 134.748 23.0109C132.883 23.0109 131.542 22.5252 130.726 21.5536C129.91 20.5432 129.521 19.2414 129.56 17.6481C129.56 16.7931 129.58 15.8605 129.619 14.8501C129.657 13.8008 129.541 12.8293 129.269 11.9355C128.997 11.0417 128.492 10.3033 127.753 9.7204C127.054 9.09862 125.966 8.78773 124.489 8.78773C123.168 8.78773 121.885 9.13748 120.642 9.83698C119.437 10.4976 118.368 11.5274 117.436 12.9264C116.503 14.3254 115.745 16.1131 115.162 18.2893C114.618 20.4266 114.346 22.9915 114.346 25.9838C114.346 28.6652 114.638 31.0746 115.221 33.212C115.842 35.3493 116.717 37.1758 117.844 38.6914C118.971 40.1681 120.331 41.3145 121.924 42.1306C123.517 42.9467 125.305 43.3547 127.287 43.3547C130.629 43.3547 133.369 42.4026 135.506 40.4984C137.643 38.5554 138.887 35.9323 139.237 32.6291H139.82C140.014 35.2716 139.742 37.7004 139.004 39.9155C138.265 42.1306 137.138 44.0348 135.623 45.6281C134.146 47.1826 132.339 48.4067 130.201 49.3005C128.064 50.1554 125.655 50.5829 122.973 50.5829C120.059 50.5829 117.416 50.0777 115.046 49.0673C112.675 48.0181 110.654 46.5414 108.983 44.6372C107.312 42.733 106.01 40.4596 105.078 37.817C104.184 35.1356 103.737 32.1433 103.737 28.8401C103.737 25.3814 104.262 22.3114 105.311 19.63C106.399 16.9097 107.876 14.6169 109.741 12.7516C111.645 10.8862 113.88 9.4678 116.445 8.49627C119.009 7.52474 121.769 7.03898 124.722 7.03898ZM173.061 7.68019L173.352 18.5225H172.828C172.556 17.2012 172.225 15.9965 171.837 14.9084C171.487 13.7814 170.962 12.8099 170.263 11.9938C169.563 11.1777 168.65 10.5559 167.523 10.1284C166.435 9.66211 165.017 9.42894 163.268 9.42894H155.107V28.024H160.703C163.54 28.024 165.619 27.4217 166.94 26.217C168.3 25.0123 168.981 23.555 168.981 21.8451H169.563V35.7768H168.981C168.981 34.0669 168.3 32.6291 166.94 31.4632C165.619 30.2585 163.54 29.6562 160.703 29.6562H155.107V48.2512H163.268C165.017 48.2512 166.435 48.0181 167.523 47.5517C168.65 47.0854 169.563 46.4442 170.263 45.6281C170.962 44.812 171.487 43.8599 171.837 42.7718C172.225 41.6448 172.556 40.4207 172.828 39.0994H173.352L173.061 50H141.875V49.4171C142.613 49.4171 143.254 48.9702 143.799 48.0764C144.343 47.1826 144.615 45.8613 144.615 44.1125V13.5677C144.615 11.8189 144.343 10.4976 143.799 9.60381C143.254 8.71001 142.613 8.2631 141.875 8.2631V7.68019H173.061Z" fill="url(#paint0_radial_96_150)"/>
<path d="M61.7738 70.481L62.2673 88.8376H61.379C60.9185 86.6006 60.3592 84.561 59.7013 82.7187C59.1091 80.8107 58.2209 79.1659 57.0366 77.7842C55.8523 76.4025 54.3062 75.3498 52.3981 74.626C50.5559 73.8365 48.1544 73.4417 45.1936 73.4417H31.3768V104.924H40.8512C45.6542 104.924 49.1742 103.905 51.4112 101.865C53.714 99.8253 54.8654 97.358 54.8654 94.463H55.8523V118.05H54.8654C54.8654 115.155 53.714 112.721 51.4112 110.747C49.1742 108.707 45.6542 107.688 40.8512 107.688H31.3768V139.17H45.1936C48.1544 139.17 50.5559 138.775 52.3981 137.986C54.3062 137.196 55.8523 136.111 57.0366 134.729C58.2209 133.347 59.1091 131.735 59.7013 129.893C60.3592 127.985 60.9185 125.913 61.379 123.676H62.2673L61.7738 142.131H8.97389V141.144C10.224 141.144 11.3096 140.387 12.2307 138.874C13.1518 137.361 13.6124 135.124 13.6124 132.163V80.4488C13.6124 77.4881 13.1518 75.2511 12.2307 73.7378C11.3096 72.2246 10.224 71.4679 8.97389 71.4679V70.481H61.7738ZM140.88 71.4679C138.972 71.4679 137.129 72.3232 135.353 74.0339C133.642 75.6788 132.293 77.8829 131.307 80.6462L108.904 142.131H98.1462L75.9406 81.041C74.8221 77.9487 73.5063 75.5801 71.993 73.9352C70.5455 72.2903 69.2954 71.4679 68.2427 71.4679V70.481H98.4423V71.4679C96.4027 71.4679 95.021 72.2903 94.2973 73.9352C93.6393 75.5801 93.9025 78.0802 95.0868 81.4358L111.272 126.34L128.05 80.3501C129.168 77.1262 129.3 74.8563 128.444 73.5404C127.655 72.1588 126.24 71.4679 124.201 71.4679V70.481H140.88V71.4679ZM199.683 70.481L200.177 88.8376H199.289C198.828 86.6006 198.269 84.561 197.611 82.7187C197.019 80.8107 196.131 79.1659 194.946 77.7842C193.762 76.4025 192.216 75.3498 190.308 74.626C188.466 73.8365 186.064 73.4417 183.103 73.4417H169.287V104.924H178.761C183.564 104.924 187.084 103.905 189.321 101.865C191.624 99.8253 192.775 97.358 192.775 94.463H193.762V118.05H192.775C192.775 115.155 191.624 112.721 189.321 110.747C187.084 108.707 183.564 107.688 178.761 107.688H169.287V139.17H183.103C186.064 139.17 188.466 138.775 190.308 137.986C192.216 137.196 193.762 136.111 194.946 134.729C196.131 133.347 197.019 131.735 197.611 129.893C198.269 127.985 198.828 125.913 199.289 123.676H200.177L199.683 142.131H146.884V141.144C148.134 141.144 149.219 140.387 150.14 138.874C151.062 137.361 151.522 135.124 151.522 132.163V80.4488C151.522 77.4881 151.062 75.2511 150.14 73.7378C149.219 72.2246 148.134 71.4679 146.884 71.4679V70.481H199.683ZM231.22 70.481C236.22 70.481 240.694 70.8429 244.642 71.5666C248.656 72.2246 252.044 73.3102 254.807 74.8234C257.571 76.3367 259.676 78.2776 261.124 80.6462C262.637 83.0148 263.393 85.8769 263.393 89.2324C263.393 94.4301 261.617 98.4765 258.064 101.371C254.511 104.201 249.511 106.109 243.063 107.096C246.287 107.688 248.787 108.806 250.564 110.451C252.406 112.03 253.787 113.872 254.709 115.978C255.63 118.017 256.255 120.156 256.584 122.393C256.978 124.63 257.34 126.702 257.669 128.61C257.998 130.452 258.492 131.999 259.15 133.249C259.808 134.433 260.893 135.025 262.407 135.025C264.775 135.025 265.959 133.644 265.959 130.88H267.045C267.045 134.762 265.894 137.789 263.591 139.96C261.288 142.065 258.426 143.118 255.005 143.118C251.189 143.118 248.261 142.361 246.221 140.848C244.181 139.269 242.635 137.295 241.583 134.927C240.596 132.492 239.872 129.86 239.411 127.031C239.017 124.136 238.49 121.373 237.832 118.741C237.24 116.109 236.319 113.807 235.069 111.833C233.819 109.859 231.878 108.543 229.246 107.885H228.555V129.498C228.555 133.249 229.016 136.111 229.937 138.085C230.858 140.058 231.911 141.045 233.095 141.045V142.131H206.152V141.045C207.402 141.045 208.488 140.19 209.409 138.479C210.33 136.769 210.791 134.334 210.791 131.176V80.4488C210.791 77.4881 210.33 75.2511 209.409 73.7378C208.488 72.2246 207.402 71.4679 206.152 71.4679V70.481H231.22ZM228.555 73.4417V104.924H229.542C234.543 104.924 238.424 103.576 241.188 100.878C244.017 98.1146 245.432 94.2656 245.432 89.3311C245.432 84.3307 243.984 80.4488 241.089 77.6855C238.194 74.8563 234.181 73.4417 229.049 73.4417H228.555ZM301.52 131.176C301.52 134.334 301.98 136.769 302.902 138.479C303.823 140.19 304.875 141.045 306.06 141.045V142.131H279.117V141.045C280.367 141.045 281.453 140.19 282.374 138.479C283.295 136.769 283.755 134.334 283.755 131.176V109.76L270.63 80.8436C269.445 78.146 268.064 75.909 266.484 74.1326C264.905 72.3561 263.491 71.4679 262.241 71.4679V70.481H289.48V71.4679C288.229 71.4679 287.473 72.3561 287.21 74.1326C286.947 75.909 287.44 78.146 288.69 80.8436L299.941 105.615L311.192 80.8436C311.784 79.5277 312.08 78.3105 312.08 77.192C312.146 76.0077 312.014 74.9879 311.685 74.1326C311.356 73.2773 310.863 72.6193 310.205 72.1588C309.613 71.6982 309.02 71.4679 308.428 71.4679V70.481H322.837V71.4679C321.587 71.4679 320.173 72.3561 318.594 74.1326C317.014 75.909 315.633 78.146 314.449 80.8436L301.52 109.365V131.176ZM354.001 70.481C367.094 70.481 376.798 73.5404 383.115 79.6593C389.497 85.7782 392.688 94.6604 392.688 106.306C392.688 130.189 379.792 142.131 354.001 142.131H328.834V141.144C330.084 141.144 331.17 140.387 332.091 138.874C333.012 137.361 333.473 135.124 333.473 132.163V80.4488C333.473 77.4881 333.012 75.2511 332.091 73.7378C331.17 72.2246 330.084 71.4679 328.834 71.4679V70.481H354.001ZM352.224 139.17C359.593 139.17 365.186 136.407 369.002 130.88C372.818 125.288 374.726 117.195 374.726 106.602C374.726 95.9434 372.785 87.752 368.903 82.0279C365.021 76.3038 359.396 73.4417 352.027 73.4417H351.237V139.17H352.224ZM430.451 70.481L452.657 131.571C453.775 134.663 455.058 137.032 456.506 138.677C458.019 140.322 459.302 141.144 460.355 141.144V142.131H430.155V141.144C432.195 141.144 433.543 140.322 434.201 138.677C434.925 137.032 434.695 134.532 433.51 131.176L431.438 125.452H403.015L400.548 132.262C399.363 135.486 399.199 137.789 400.054 139.17C400.909 140.486 402.357 141.144 404.396 141.144V142.131H387.718V141.144C389.626 141.144 391.435 140.322 393.146 138.677C394.922 136.966 396.304 134.729 397.291 131.966L419.694 70.481H430.451ZM430.451 122.491L417.325 86.2716L404.002 122.491H430.451ZM490.217 131.176C490.217 134.334 490.678 136.769 491.599 138.479C492.52 140.19 493.573 141.045 494.757 141.045V142.131H467.814V141.045C469.064 141.045 470.15 140.19 471.071 138.479C471.992 136.769 472.453 134.334 472.453 131.176V109.76L459.327 80.8436C458.142 78.146 456.761 75.909 455.182 74.1326C453.603 72.3561 452.188 71.4679 450.938 71.4679V70.481H478.177V71.4679C476.927 71.4679 476.17 72.3561 475.907 74.1326C475.644 75.909 476.137 78.146 477.387 80.8436L488.638 105.615L499.889 80.8436C500.481 79.5277 500.777 78.3105 500.777 77.192C500.843 76.0077 500.711 74.9879 500.382 74.1326C500.053 73.2773 499.56 72.6193 498.902 72.1588C498.31 71.6982 497.718 71.4679 497.126 71.4679V70.481H511.535V71.4679C510.284 71.4679 508.87 72.3561 507.291 74.1326C505.712 75.909 504.33 78.146 503.146 80.8436L490.217 109.365V131.176ZM528.144 143.019C525.71 143.019 523.637 142.23 521.926 140.651C520.282 139.072 519.459 137.131 519.459 134.828C519.459 132.525 520.282 130.584 521.926 129.005C523.637 127.426 525.71 126.636 528.144 126.636C530.578 126.636 532.618 127.426 534.263 129.005C535.973 130.584 536.829 132.525 536.829 134.828C536.829 137.131 535.973 139.072 534.263 140.651C532.618 142.23 530.578 143.019 528.144 143.019Z" fill="url(#paint1_radial_96_150)"/>
<path d="M304.96 13.9151C304.377 12.0885 303.619 10.6894 302.686 9.71779C301.792 8.7462 301.034 8.26041 300.413 8.26041V7.67745H318.251V8.26041C317.046 8.26041 316.25 8.76563 315.861 9.77609C315.472 10.7477 315.608 12.2051 316.269 14.1483L324.139 38.2243L329.619 21.4935L327.229 13.9151C326.646 12.0885 325.888 10.6894 324.955 9.71779C324.061 8.7462 323.303 8.26041 322.682 8.26041V7.67745H340.52V8.26041C339.315 8.26041 338.518 8.76563 338.13 9.77609C337.741 10.7477 337.877 12.2051 338.538 14.1483L346.408 38.2243L354.511 13.507C355.133 11.6027 355.21 10.2619 354.744 9.48461C354.278 8.66847 353.442 8.26041 352.237 8.26041V7.67745H362.089V8.26041C360.962 8.26041 359.874 8.76563 358.825 9.77609C357.775 10.7477 356.979 12.0496 356.435 13.6819L344.95 50H338.596L330.668 24.8163L322.682 50H316.327L304.96 13.9151ZM376.946 7.67745L390.062 43.7624C390.723 45.589 391.481 46.9881 392.336 47.9597C393.229 48.9312 393.987 49.417 394.609 49.417V50H376.771V49.417C377.975 49.417 378.772 48.9312 379.161 47.9597C379.588 46.9881 379.452 45.5112 378.753 43.5292L377.529 40.1481H360.739L359.282 44.1704C358.582 46.0748 358.485 47.435 358.991 48.2511C359.496 49.0284 360.351 49.417 361.556 49.417V50H351.704V49.417C352.831 49.417 353.899 48.9312 354.91 47.9597C355.959 46.9492 356.775 45.6278 357.358 43.9956L370.591 7.67745H376.946ZM376.946 38.3992L369.192 17.0047L361.322 38.3992H376.946ZM412.249 43.5292C412.249 45.3947 412.521 46.8326 413.065 47.8431C413.609 48.8535 414.231 49.3587 414.93 49.3587V50H399.015V49.3587C399.754 49.3587 400.395 48.8535 400.939 47.8431C401.483 46.8326 401.755 45.3947 401.755 43.5292V30.8791L394.002 13.7985C393.302 12.2051 392.486 10.8837 391.554 9.83439C390.621 8.78507 389.785 8.26041 389.047 8.26041V7.67745H405.136V8.26041C404.398 8.26041 403.951 8.78507 403.796 9.83439C403.64 10.8837 403.932 12.2051 404.67 13.7985L411.316 28.4307L417.961 13.7985C418.311 13.0212 418.486 12.3022 418.486 11.6415C418.525 10.942 418.447 10.3396 418.253 9.83439C418.059 9.32916 417.767 8.94052 417.379 8.66847C417.029 8.39643 416.679 8.26041 416.329 8.26041V7.67745H424.84V8.26041C424.102 8.26041 423.266 8.78507 422.334 9.83439C421.401 10.8837 420.585 12.2051 419.885 13.7985L412.249 30.6459V43.5292Z" fill="url(#paint2_radial_96_150)"/>
<path d="M209.479 60.3134C211.12 62.1131 208.367 64.7067 206.674 62.96C205.139 61.3721 203.074 60.1546 200.798 59.3606C198.628 58.6725 196.405 58.1432 194.182 57.8786C185.342 69.1001 173.538 78.2043 160.57 77.1986C151.73 74.552 157.606 64.3892 162.899 61.1603C170.257 55.8672 181.531 52.5854 191.853 53.2735C194.129 50.2564 196.14 47.0805 197.993 43.8517C197.622 44.2751 197.305 44.5398 197.146 44.6986C194.817 46.8688 190.053 48.6155 188.042 45.0691C186.665 41.8932 188.359 38.3997 189.206 35.3826C189.63 34.1122 190.106 32.8948 190.529 31.7303C191.535 29.1366 195.611 30.5129 194.87 33.1595C194.076 36.7588 190.424 42.5813 191.376 43.4811C193.335 45.3867 201.01 38.2409 202.81 34.324C203.868 31.5715 208.156 33.2653 207.044 36.0178C204.715 41.5756 201.327 47.9274 197.04 54.0145C201.804 55.0202 206.091 57.0317 209.479 60.3134ZM174.015 69.4177C179.52 66.4006 184.283 62.3248 188.412 57.561C180.314 57.7198 172.109 60.2605 165.651 64.8126C153.265 75.5048 166.551 73.811 174.015 69.4177ZM232.753 32.8419C235.029 32.1538 236.193 35.7002 233.864 36.4412C230.212 37.394 226.189 37.8174 222.537 36.6529C223.648 41.258 221.214 46.1807 215.021 46.6041C210.998 47.1864 206.34 45.175 207.504 40.4111C208.404 37.0235 210.892 34.4298 213.697 32.4184C213.591 31.995 213.591 31.5715 213.75 31.0951C214.227 29.7718 215.815 29.2954 217.032 29.8777C217.085 29.9306 217.138 29.9306 217.191 29.9836H217.244C217.985 30.3541 218.62 30.7775 219.202 31.2539C223.331 33.6358 228.148 34.4827 232.753 32.8419ZM217.826 41.6815C219.732 39.9876 219.096 37.1293 217.455 35.4355C217.403 35.4355 217.35 35.4885 217.297 35.5414C215.074 36.6529 212.85 38.3997 211.739 40.6758C211.104 42.052 211.262 42.4754 212.797 42.6872C214.438 42.8989 216.662 42.6872 217.826 41.6815ZM265.357 33.7946C267.051 31.3068 270.333 34.0064 268.269 36.1766C264.881 40.3582 259.535 44.1692 253.871 42.7401C251.013 41.999 249.425 39.8289 248.684 37.2352C248.366 37.8174 248.049 38.3468 247.731 38.8761C245.614 42.1049 242.703 45.916 238.415 45.916C236.086 45.916 233.969 44.0105 233.704 41.6815C233.175 38.2938 234.339 35.065 235.08 31.995C235.927 28.9249 240.48 30.3541 239.421 33.3712C238.839 35.1709 236.086 41.258 238.098 42.3166C239.95 42.8989 241.591 41.5227 242.967 40.1994C244.714 38.4526 246.143 36.2824 247.202 34.0593C247.784 32.8948 248.26 31.7303 248.631 30.5129C248.684 30.407 248.737 30.3011 248.79 30.2482C249.637 27.5487 253.871 28.6073 253.13 31.5186C250.484 42.3696 260.858 39.6171 265.357 33.7946ZM298.593 33.477C299.916 31.5186 303.092 33.6888 301.663 35.6472C300.128 37.9233 298.222 39.723 296.052 41.258C290.6 45.3867 282.078 46.71 276.679 41.6815C275.091 40.1464 271.915 37.4469 274.456 35.3826C274.773 35.1709 275.091 35.065 275.409 35.0121C278.214 34.4298 281.76 33.477 282.449 30.5658C282.502 30.0365 282.343 29.613 281.813 29.613C276.044 29.613 272.021 35.2767 269.48 39.9347C267.681 43.3753 266.093 47.0276 264.822 50.7328C264.134 52.903 260.747 51.8973 261.329 49.7271C263.605 41.5756 266.622 32.8419 273.662 27.5487C277.102 25.008 283.931 23.2083 286.63 27.8663C288.8 32.8948 284.407 36.8117 279.855 38.5585C285.413 43.3223 294.517 39.2466 298.593 33.477Z" fill="#FD7034"/>
</g>
<defs>
<filter id="filter0_d_96_150" x="0.0357237" y="3.30346" width="544.923" height="152.339" filterUnits="userSpaceOnUse" color-interpolation-filters="sRGB">
<feFlood flood-opacity="0" result="BackgroundImageFix"/>
<feColorMatrix in="SourceAlpha" type="matrix" values="0 0 0 0 0 0 0 0 0 0 0 0 0 0 0 0 0 0 127 0" result="hardAlpha"/>
<feOffset dy="4.39469"/>
<feGaussianBlur stdDeviation="4.06508"/>
<feComposite in2="hardAlpha" operator="out"/>
<feColorMatrix type="matrix" values="0 0 0 0 0 0 0 0 0 0 0 0 0 0 0 0 0 0 0.25 0"/>
<feBlend mode="normal" in2="BackgroundImageFix" result="effect1_dropShadow_96_150"/>
<feBlend mode="normal" in="SourceGraphic" in2="effect1_dropShadow_96_150" result="shape"/>
</filter>
<radialGradient id="paint0_radial_96_150" cx="0" cy="0" r="1" gradientUnits="userSpaceOnUse" gradientTransform="translate(91.0001 34.5) rotate(-155.719) scale(83.8986 147.36)">
<stop offset="0.26242" stop-color="#698531"/>
<stop offset="1" stop-color="#90B042"/>
</radialGradient>
<radialGradient id="paint1_radial_96_150" cx="0" cy="0" r="1" gradientUnits="userSpaceOnUse" gradientTransform="translate(273 115.631) rotate(-166.42) scale(249.143 266.455)">
<stop offset="0.26242" stop-color="#698531"/>
<stop offset="1" stop-color="#90B042"/>
</radialGradient>
<radialGradient id="paint2_radial_96_150" cx="0" cy="0" r="1" gradientUnits="userSpaceOnUse" gradientTransform="translate(362.747 34.5) rotate(-149.173) scale(67.3245 138.821)">
<stop offset="0.26242" stop-color="#698531"/>
<stop offset="1" stop-color="#90B042"/>
</radialGradient>
</defs>
</svg>
