<svg width="35" height="37" viewBox="0 0 35 37" fill="none" xmlns="http://www.w3.org/2000/svg">
<path d="M26.3 23.9904V24.0404V25.5429V25.5929H26.25H10.2084C9.42108 25.5929 8.66634 25.2707 8.1101 24.6976C7.55392 24.1246 7.24172 23.3477 7.24171 22.5379C7.24171 22.5379 7.24171 22.5379 7.24171 22.5379H7.29171C7.29127 22.0281 7.41674 21.5265 7.65629 21.0804L26.3 23.9904ZM26.3 23.9904H26.25H10.2084C9.83535 23.9904 9.47729 23.8377 9.21306 23.5655C8.95 23.2945 8.80143 22.927 8.80005 22.5433L8.94346 21.8932L10.0503 19.5828H21.875C22.8841 19.5828 23.7739 19.0631 24.3076 18.2845C24.3077 18.2843 24.3078 18.2841 24.308 18.2839L28.5502 12.4412C28.9649 11.922 29.2167 11.2803 29.2167 10.5177C29.2167 9.70789 28.9045 8.93099 28.3483 8.35795C27.7921 7.78486 27.0373 7.46262 26.25 7.46262H5.64809L4.42126 4.4885L4.4085 4.45757H4.37504H1.45837H1.40837V4.50757V6.01009V6.06009H1.45837H3.37905L8.65162 18.8703L7.61166 21.0579L26.3 23.9904ZM6.30184 9.06514H26.25C26.6231 9.06514 26.9811 9.2178 27.2454 9.49005C27.5096 9.76234 27.6584 10.132 27.6584 10.5177C27.6584 10.8379 27.5595 11.1429 27.3766 11.3894L27.3763 11.3898L23.0013 17.3999C22.7475 17.7485 22.3391 17.9803 21.875 17.9803H9.97934L6.30184 9.06514ZM25.4316 27.8908C24.8754 27.3177 24.1207 26.9954 23.3334 26.9954C22.5461 26.9954 21.7913 27.3177 21.2351 27.8908C20.6789 28.4638 20.3667 29.2407 20.3667 30.0505C20.3667 30.8603 20.6789 31.6372 21.2351 32.2102C21.7913 32.7833 22.5461 33.1055 23.3334 33.1055C24.1207 33.1055 24.8754 32.7833 25.4316 32.2102C25.9878 31.6372 26.3 30.8603 26.3 30.0505C26.3 29.2407 25.9878 28.4638 25.4316 27.8908ZM22.3381 29.0229C22.6023 28.7506 22.9604 28.598 23.3334 28.598C23.7064 28.598 24.0645 28.7506 24.3287 29.0229C24.593 29.2952 24.7417 29.6648 24.7417 30.0505C24.7417 30.4362 24.593 30.8058 24.3287 31.0781C24.0645 31.3504 23.7064 31.503 23.3334 31.503C22.9604 31.503 22.6023 31.3504 22.3381 31.0781C22.0738 30.8058 21.925 30.4362 21.925 30.0505C21.925 29.6648 22.0738 29.2952 22.3381 29.0229ZM12.3066 27.8908C11.7504 27.3177 10.9957 26.9954 10.2084 26.9954C9.42108 26.9954 8.66634 27.3177 8.1101 27.8908C7.55391 28.4638 7.24171 29.2407 7.24171 30.0505C7.24171 30.8603 7.55391 31.6372 8.1101 32.2102C8.66634 32.7833 9.42108 33.1055 10.2084 33.1055C10.9957 33.1055 11.7504 32.7833 12.3066 32.2102C12.8628 31.6372 13.175 30.8603 13.175 30.0505C13.175 29.2407 12.8628 28.4638 12.3066 27.8908ZM9.21306 29.0229C9.47729 28.7506 9.83535 28.598 10.2084 28.598C10.5814 28.598 10.9395 28.7506 11.2037 29.0229C11.468 29.2952 11.6167 29.6648 11.6167 30.0505C11.6167 30.4362 11.468 30.8058 11.2037 31.0781C10.9395 31.3504 10.5814 31.503 10.2084 31.503C9.83535 31.503 9.47729 31.3504 9.21306 31.0781C8.94877 30.8058 8.80004 30.4362 8.80004 30.0505C8.80004 29.6648 8.94877 29.2952 9.21306 29.0229Z" fill="white" stroke="white" stroke-width="0.1"/>
</svg>
