<svg width="38" height="38" viewBox="0 0 38 38" fill="none" xmlns="http://www.w3.org/2000/svg">
<g clip-path="url(#clip0_138_462)">
<path d="M19.0002 12.7515C15.5596 12.7515 12.7518 15.5593 12.7518 19C12.7518 22.4406 15.5596 25.2484 19.0002 25.2484C22.4408 25.2484 25.2487 22.4406 25.2487 19C25.2487 15.5593 22.4408 12.7515 19.0002 12.7515ZM37.7408 19C37.7408 16.4125 37.7643 13.8484 37.619 11.2656C37.4737 8.26559 36.7893 5.60309 34.5955 3.40934C32.3971 1.2109 29.7393 0.531216 26.7393 0.385903C24.1518 0.240591 21.5877 0.264029 19.0049 0.264029C16.4174 0.264029 13.8533 0.240591 11.2705 0.385903C8.27054 0.531216 5.60804 1.21559 3.41428 3.40934C1.21585 5.60778 0.53616 8.26559 0.390847 11.2656C0.245535 13.8531 0.268972 16.4172 0.268972 19C0.268972 21.5828 0.245535 24.1515 0.390847 26.7343C0.53616 29.7343 1.22053 32.3968 3.41428 34.5906C5.61272 36.789 8.27054 37.4687 11.2705 37.614C13.858 37.7593 16.4221 37.7359 19.0049 37.7359C21.5924 37.7359 24.1565 37.7593 26.7393 37.614C29.7393 37.4687 32.4018 36.7843 34.5955 34.5906C36.794 32.3922 37.4737 29.7343 37.619 26.7343C37.769 24.1515 37.7408 21.5875 37.7408 19ZM19.0002 28.614C13.6799 28.614 9.38616 24.3203 9.38616 19C9.38616 13.6797 13.6799 9.3859 19.0002 9.3859C24.3205 9.3859 28.6143 13.6797 28.6143 19C28.6143 24.3203 24.3205 28.614 19.0002 28.614ZM29.008 11.2375C27.7658 11.2375 26.7627 10.2343 26.7627 8.99215C26.7627 7.74997 27.7658 6.74684 29.008 6.74684C30.2502 6.74684 31.2533 7.74997 31.2533 8.99215C31.2537 9.28712 31.1959 9.57925 31.0832 9.85184C30.9705 10.1244 30.8051 10.3721 30.5965 10.5807C30.388 10.7892 30.1403 10.9546 29.8677 11.0673C29.5951 11.18 29.303 11.2378 29.008 11.2375Z" fill="#323232"/>
</g>
<defs>
<clipPath id="clip0_138_462">
<rect width="38" height="38" fill="white"/>
</clipPath>
</defs>
</svg>
