<svg width="471" height="126" viewBox="0 0 471 126" fill="none" xmlns="http://www.w3.org/2000/svg">
<g filter="url(#filter0_d_583_1179)">
<path d="M7.67354 62.1865C8.61031 62.1865 9.42382 61.5455 10.1141 60.2636C10.8043 58.9817 11.1495 57.1575 11.1495 54.7909V16.7778C11.1495 14.5591 10.8043 12.8828 10.1141 11.7488C9.42382 10.6148 8.61031 10.0478 7.67354 10.0478V9.30826H27.6415C34.2975 9.30826 39.4498 10.4176 43.0983 12.6363C46.7467 14.8549 48.571 17.9364 48.571 21.8807C48.571 24.7403 47.7328 27.1562 46.0565 29.1284C44.3801 31.0512 42.1615 32.2838 39.4005 32.8261C41.1754 33.1713 42.8517 33.7876 44.4295 34.675C46.0072 35.5625 47.3877 36.6472 48.571 37.9291C49.7543 39.211 50.6664 40.6654 51.3073 42.2924C51.9976 43.8702 52.3427 45.5218 52.3427 47.2475C52.3427 52.6709 50.6417 56.6645 47.2398 59.2283C43.8378 61.7428 38.7595 63 32.0049 63H7.67354V62.1865ZM24.5354 33.3438C27.9374 33.3438 30.5505 32.4317 32.3747 30.6075C34.1989 28.7339 35.1111 26.0962 35.1111 22.6942C35.1111 19.1444 34.1743 16.408 32.3007 14.4852C30.4765 12.513 27.9127 11.5269 24.6094 11.5269H24.4615V33.3438H24.5354ZM25.6447 60.7813C34.4701 60.7813 38.8828 56.5412 38.8828 48.061C38.8828 39.7286 34.3222 35.5625 25.201 35.5625H24.4615V60.7813H25.6447ZM55.268 43.8455C55.268 40.9859 55.7857 38.3481 56.8211 35.9323C57.9057 33.4671 59.3602 31.347 61.1844 29.5721C63.058 27.7972 65.252 26.4166 67.7665 25.4306C70.3303 24.3952 73.0666 23.8775 75.9755 23.8775C78.8845 23.8775 81.5715 24.3952 84.0367 25.4306C86.5512 26.4166 88.7206 27.7972 90.5448 29.5721C92.369 31.347 93.7988 33.4671 94.8342 35.9323C95.9189 38.3481 96.4612 40.9859 96.4612 43.8455C96.4612 46.6558 95.9189 49.2936 94.8342 51.7588C93.7988 54.1746 92.369 56.27 90.5448 58.045C88.7206 59.8199 86.5512 61.2251 84.0367 62.2604C81.5715 63.2465 78.8845 63.7396 75.9755 63.7396C73.0666 63.7396 70.3303 63.2465 67.7665 62.2604C65.252 61.2251 63.058 59.8199 61.1844 58.045C59.3602 56.27 57.9057 54.1746 56.8211 51.7588C55.7857 49.2936 55.268 46.6558 55.268 43.8455ZM68.7279 43.7716C68.7279 47.3214 68.9005 50.2796 69.2456 52.6462C69.64 54.9635 70.1577 56.8124 70.7987 58.1929C71.4889 59.5241 72.2531 60.4855 73.0913 61.0772C73.9787 61.6195 74.9155 61.8907 75.9016 61.8907C76.8877 61.8907 77.7998 61.6195 78.6379 61.0772C79.5254 60.4855 80.2896 59.5241 80.9306 58.1929C81.5715 56.8124 82.0646 54.9635 82.4097 52.6462C82.8041 50.2796 83.0013 47.3214 83.0013 43.7716C83.0013 40.2217 82.8041 37.2881 82.4097 34.9708C82.0646 32.6536 81.5715 30.8293 80.9306 29.4981C80.2896 28.1176 79.5254 27.1562 78.6379 26.6139C77.7998 26.0222 76.8877 25.7264 75.9016 25.7264C74.9155 25.7264 73.9787 26.0222 73.0913 26.6139C72.2531 27.1562 71.4889 28.1176 70.7987 29.4981C70.1577 30.8293 69.64 32.6536 69.2456 34.9708C68.9005 37.2881 68.7279 40.2217 68.7279 43.7716ZM123.594 36.0062C123.594 31.5689 121.72 29.3502 117.973 29.3502C116.839 29.3502 115.705 29.72 114.571 30.4596C113.437 31.1991 112.5 32.1852 111.761 33.4178V54.8649C111.761 55.7524 111.859 56.6398 112.057 57.5273C112.254 58.4148 112.5 59.2283 112.796 59.9678C113.141 60.6581 113.511 61.2251 113.906 61.6688C114.349 62.0632 114.793 62.2604 115.237 62.2604V63H95.7124V62.2604C96.1562 62.2604 96.5752 62.0632 96.9697 61.6688C97.4134 61.2251 97.7832 60.6827 98.079 60.0418C98.4241 59.3515 98.6953 58.5873 98.8925 57.7492C99.0897 56.8617 99.1883 55.9989 99.1883 55.1607V35.6364C99.1883 34.6997 99.0897 33.8122 98.8925 32.974C98.6953 32.0866 98.4241 31.3224 98.079 30.6814C97.7832 29.9912 97.4134 29.4488 96.9697 29.0544C96.5752 28.6107 96.1562 28.3888 95.7124 28.3888V27.6492C97.0929 27.5506 98.4734 27.4274 99.8539 27.2795C101.234 27.0822 102.59 26.8604 103.922 26.6139C105.253 26.3673 106.51 26.0962 107.693 25.8004C108.877 25.4552 109.937 25.0608 110.873 24.6171H111.761V30.0898C113.092 28.3641 114.867 26.9097 117.086 25.7264C119.304 24.4938 121.745 23.8775 124.407 23.8775C129.584 23.8775 133.085 26.0962 134.909 30.5335C136.191 28.66 137.966 27.0822 140.234 25.8004C142.551 24.5185 145.09 23.8775 147.851 23.8775C151.697 23.8775 154.606 25.0854 156.578 27.5013C158.599 29.9172 159.61 33.4178 159.61 38.003V54.8649C159.61 55.7524 159.709 56.6398 159.906 57.5273C160.103 58.4148 160.35 59.2283 160.645 59.9678C160.991 60.6581 161.36 61.2251 161.755 61.6688C162.198 62.0632 162.642 62.2604 163.086 62.2604V63H143.562V62.2604C144.005 62.2604 144.424 62.0632 144.819 61.6688C145.263 61.2251 145.632 60.6827 145.928 60.0418C146.273 59.3515 146.545 58.5873 146.742 57.7492C146.939 56.8617 147.038 55.9989 147.038 55.1607V36.0062C147.038 31.5689 145.164 29.3502 141.417 29.3502C140.382 29.3502 139.346 29.6707 138.311 30.3116C137.275 30.9033 136.388 31.7168 135.648 32.7522C135.796 33.541 135.92 34.3792 136.018 35.2667C136.117 36.1048 136.166 37.0169 136.166 38.003V54.8649C136.166 55.7524 136.265 56.6398 136.462 57.5273C136.659 58.4148 136.906 59.2283 137.202 59.9678C137.547 60.6581 137.916 61.2251 138.311 61.6688C138.755 62.0632 139.198 62.2604 139.642 62.2604V63H120.118V62.2604C120.562 62.2604 120.981 62.0632 121.375 61.6688C121.819 61.2251 122.189 60.6827 122.484 60.0418C122.829 59.3515 123.101 58.5873 123.298 57.7492C123.495 56.8617 123.594 55.9989 123.594 55.1607V36.0062ZM177.626 53.1639C178.02 55.6291 179.006 57.478 180.584 58.7106C182.162 59.9432 183.813 60.5595 185.539 60.5595C187.758 60.5595 189.533 59.105 190.864 56.1961C192.195 53.2379 192.861 49.2936 192.861 44.3632C192.861 39.4328 192.195 35.5871 190.864 32.8261C189.533 30.0158 187.807 28.6107 185.687 28.6107C184.158 28.6107 182.605 29.227 181.028 30.4596C179.499 31.6921 178.365 33.3685 177.626 35.4885V53.1639ZM165.127 17.7392C165.127 16.7531 165.029 15.7917 164.831 14.8549C164.634 13.9182 164.363 13.1046 164.018 12.4144C163.722 11.6748 163.352 11.1078 162.909 10.7134C162.514 10.2697 162.095 10.0478 161.651 10.0478V9.30826C162.933 9.20965 164.264 9.0864 165.645 8.93849C167.025 8.74127 168.381 8.5194 169.712 8.27289C171.093 8.02636 172.375 7.75519 173.558 7.45937C174.791 7.11425 175.851 6.71982 176.738 6.27608H177.626V30.9772C179.203 28.7093 181.028 26.959 183.098 25.7264C185.218 24.4938 187.634 23.8775 190.346 23.8775C192.565 23.8775 194.636 24.3212 196.558 25.2087C198.481 26.0469 200.158 27.3041 201.587 28.9804C203.017 30.6075 204.126 32.6289 204.915 35.0448C205.753 37.4114 206.173 40.0984 206.173 43.106C206.173 46.1135 205.753 48.8991 204.915 51.4629C204.077 53.9774 202.869 56.1468 201.292 57.971C199.763 59.7953 197.914 61.2251 195.745 62.2604C193.625 63.2465 191.258 63.7396 188.645 63.7396C183.715 63.7396 179.992 62.1618 177.478 59.0064L165.867 63H165.127V17.7392ZM241.687 56.8617C241.687 57.6999 241.81 58.3655 242.057 58.8585C242.352 59.3022 242.796 59.5241 243.388 59.5241C243.782 59.5241 244.127 59.4255 244.423 59.2283C244.768 59.0311 245.089 58.612 245.385 57.971H246.124C246.124 59.6473 245.36 61.0279 243.832 62.1125C242.352 63.1972 240.479 63.7396 238.211 63.7396C233.527 63.7396 230.643 62.3344 229.558 59.5241C228.424 61.0032 226.994 62.0879 225.269 62.7781C223.592 63.4191 221.719 63.7396 219.648 63.7396C217.972 63.7396 216.369 63.4684 214.841 62.926C213.362 62.3837 212.055 61.5948 210.921 60.5595C209.787 59.4748 208.875 58.1929 208.185 56.7138C207.544 55.1854 207.224 53.4597 207.224 51.5369C207.224 48.7759 207.766 46.4586 208.851 44.5851C209.935 42.7115 211.291 41.2078 212.918 40.0738C214.545 38.9398 216.295 38.1263 218.169 37.6332C220.092 37.1402 221.867 36.8937 223.494 36.8937C224.529 36.8937 225.392 36.9676 226.082 37.1156C226.822 37.2142 227.413 37.3374 227.857 37.4853C228.35 37.6825 228.769 37.8798 229.114 38.077V32.7522C229.114 30.6321 228.745 28.9311 228.005 27.6492C227.315 26.3673 226.403 25.7264 225.269 25.7264C223.346 25.7264 222.384 27.6739 222.384 31.5689C222.384 33.1959 221.743 34.5518 220.462 35.6364C219.18 36.7211 217.429 37.2635 215.211 37.2635C213.485 37.2635 212.154 36.8197 211.217 35.9323C210.28 35.0448 209.812 33.8615 209.812 32.3824C209.812 31.0512 210.182 29.8679 210.921 28.8325C211.71 27.7478 212.77 26.8357 214.101 26.0962C215.433 25.3566 216.986 24.8143 218.761 24.4692C220.585 24.0747 222.532 23.8775 224.603 23.8775C227.413 23.8775 229.879 24.2966 231.999 25.1348C234.119 25.9729 235.894 27.1809 237.323 28.7586C238.803 30.287 239.887 32.1605 240.577 34.3792C241.317 36.5486 241.687 38.9891 241.687 41.7008V56.8617ZM229.114 42.8841C229.114 42.0459 228.868 41.2571 228.375 40.5175C227.931 39.778 227.167 39.4082 226.082 39.4082C224.357 39.4082 222.951 40.4929 221.867 42.6622C220.782 44.7823 220.24 47.8391 220.24 51.8327C220.24 54.2979 220.683 56.1961 221.571 57.5273C222.458 58.8585 223.518 59.5241 224.751 59.5241C226.477 59.5241 227.931 58.7599 229.114 57.2315V42.8841ZM246.874 61.1511L265.215 26.466H259.89C258.164 26.466 256.611 26.7864 255.231 27.4274C253.899 28.019 252.716 28.8572 251.681 29.9419C250.695 31.0265 249.881 32.3084 249.24 33.7876C248.599 35.2174 248.106 36.7704 247.761 38.4468H247.021L247.391 24.6171H279.488V26.466L261.295 61.1511H267.285C269.011 61.1511 270.539 60.8553 271.871 60.2636C273.251 59.6227 274.434 58.7599 275.42 57.6752C276.456 56.5905 277.294 55.3333 277.935 53.9035C278.576 52.4244 279.069 50.8466 279.414 49.1703H280.154L279.784 63H246.874V61.1511ZM320.699 47.0996C320.699 52.4737 319.096 56.5905 315.891 59.4501C312.736 62.3097 308.027 63.7396 301.766 63.7396C299.104 63.7396 296.638 63.4191 294.37 62.7781C292.102 62.0879 290.13 61.1758 288.454 60.0418C286.778 58.8585 285.471 57.5026 284.534 55.9742C283.597 54.3965 283.154 52.6955 283.203 50.8713C283.252 48.8498 283.869 47.1242 285.052 45.6944C286.235 44.2153 287.862 43.4757 289.933 43.4757C292.3 43.4757 294.001 44.1167 295.036 45.3986C296.071 46.6312 296.564 48.2582 296.515 50.2796C296.515 51.3643 296.466 52.5723 296.367 53.9035C296.269 55.1854 296.342 56.3933 296.589 57.5273C296.885 58.6613 297.452 59.6227 298.29 60.4116C299.177 61.1511 300.558 61.5209 302.432 61.5209C304.009 61.5209 305.217 60.9292 306.055 59.746C306.943 58.5627 307.387 56.9356 307.387 54.8649L307.46 16.7778C307.46 14.5591 307.115 12.8828 306.425 11.7488C305.735 10.6148 304.921 10.0478 303.985 10.0478V9.30826H324.174V10.0478C323.287 10.0478 322.498 10.6148 321.808 11.7488C321.118 12.8828 320.772 14.5591 320.772 16.7778L320.699 47.0996ZM352.798 35.6364C352.798 34.6997 352.7 33.8122 352.502 32.974C352.305 32.0866 352.034 31.3224 351.689 30.6814C351.393 29.9912 351.023 29.4488 350.579 29.0544C350.185 28.6107 349.766 28.3888 349.322 28.3888V27.6492C350.703 27.5506 352.083 27.4274 353.464 27.2795C354.844 27.0822 356.2 26.8604 357.531 26.6139C358.863 26.3673 360.12 26.0962 361.303 25.8004C362.486 25.4552 363.546 25.0608 364.483 24.6171H365.371V53.1639C365.371 56.6152 365.716 59.0064 366.406 60.3376C367.096 61.6195 367.91 62.2604 368.847 62.2604V63H352.798V57.6012C352.256 58.3408 351.541 59.0804 350.653 59.8199C349.815 60.5595 348.805 61.2251 347.621 61.8167C346.438 62.4084 345.131 62.8767 343.702 63.2219C342.272 63.567 340.694 63.7396 338.968 63.7396C335.123 63.7396 332.091 62.6302 329.872 60.4116C327.653 58.1929 326.544 54.9388 326.544 50.6494V35.6364C326.544 34.6997 326.445 33.8122 326.248 32.974C326.051 32.0866 325.78 31.3224 325.435 30.6814C325.139 29.9912 324.769 29.4488 324.325 29.0544C323.931 28.6107 323.512 28.3888 323.068 28.3888V27.6492C324.449 27.5506 325.829 27.4274 327.21 27.2795C328.59 27.0822 329.946 26.8604 331.277 26.6139C332.608 26.3673 333.866 26.0962 335.049 25.8004C336.232 25.4552 337.292 25.0608 338.229 24.6171H339.116V51.2411C339.116 53.3118 339.659 55.1361 340.743 56.7138C341.828 58.2422 343.43 59.0064 345.55 59.0064C346.438 59.0064 347.301 58.8585 348.139 58.5627C349.026 58.2668 349.815 57.8478 350.506 57.3054C351.196 56.7631 351.738 56.1468 352.133 55.4565C352.576 54.717 352.798 53.9035 352.798 53.016V35.6364ZM379.1 21.5109C377.276 21.5109 375.723 20.9193 374.441 19.736C373.209 18.5527 372.592 17.0982 372.592 15.3726C372.592 13.647 373.209 12.1925 374.441 11.0092C375.723 9.82595 377.276 9.2343 379.1 9.2343C380.925 9.2343 382.453 9.82595 383.686 11.0092C384.967 12.1925 385.608 13.647 385.608 15.3726C385.608 17.0982 384.967 18.5527 383.686 19.736C382.453 20.9193 380.925 21.5109 379.1 21.5109ZM370.374 62.2604C370.817 62.2604 371.236 62.0632 371.631 61.6688C372.075 61.2251 372.444 60.6827 372.74 60.0418C373.085 59.3515 373.356 58.5873 373.554 57.7492C373.751 56.8617 373.849 55.9989 373.849 55.1607V35.6364C373.849 34.6997 373.751 33.8122 373.554 32.974C373.356 32.0866 373.085 31.3224 372.74 30.6814C372.444 29.9912 372.075 29.4488 371.631 29.0544C371.236 28.6107 370.817 28.3888 370.374 28.3888V27.6492C371.754 27.5506 373.135 27.4274 374.515 27.2795C375.896 27.0822 377.251 26.8604 378.583 26.6139C379.914 26.3673 381.171 26.0962 382.354 25.8004C383.538 25.4552 384.598 25.0608 385.534 24.6171H386.422V54.8649C386.422 55.7524 386.521 56.6398 386.718 57.5273C386.915 58.4148 387.161 59.2283 387.457 59.9678C387.802 60.6581 388.172 61.2251 388.567 61.6688C389.01 62.0632 389.454 62.2604 389.898 62.2604V63H370.374V62.2604ZM419.399 39.5561C417.723 39.5561 416.441 39.211 415.553 38.5207C414.666 37.8305 414 36.9923 413.557 36.0062C413.113 34.9708 412.792 33.8615 412.595 32.6782C412.447 31.4456 412.225 30.3363 411.93 29.3502C411.683 28.3148 411.264 27.452 410.672 26.7618C410.13 26.0715 409.267 25.7264 408.084 25.7264C406.112 25.7264 404.608 26.9343 403.573 29.3502C402.587 31.7168 402.094 35.2174 402.094 39.8519C402.094 45.0781 403.08 49.0964 405.052 51.9067C407.073 54.717 409.711 56.1221 412.965 56.1221C415.775 56.1221 418.167 55.4072 420.139 53.9774C422.111 52.5476 423.442 50.5755 424.132 48.061H424.872C424.625 52.9913 423.048 56.837 420.139 59.598C417.279 62.3591 413.384 63.7396 408.454 63.7396C405.594 63.7396 402.981 63.2465 400.614 62.2604C398.248 61.2744 396.202 59.8939 394.476 58.1189C392.8 56.344 391.493 54.2239 390.556 51.7588C389.62 49.2936 389.151 46.5819 389.151 43.6236C389.151 40.7147 389.62 38.0523 390.556 35.6364C391.493 33.1713 392.8 31.0758 394.476 29.3502C396.152 27.6246 398.149 26.2934 400.467 25.3566C402.833 24.3705 405.422 23.8775 408.232 23.8775C410.451 23.8775 412.546 24.1487 414.518 24.691C416.49 25.2334 418.191 25.9729 419.621 26.9097C421.1 27.7972 422.259 28.8818 423.097 30.1637C423.935 31.3963 424.354 32.7275 424.354 34.1573C424.354 35.7844 423.836 37.0909 422.801 38.077C421.815 39.0631 420.681 39.5561 419.399 39.5561ZM439.212 41.4789C439.459 46.2121 440.617 49.8359 442.688 52.3504C444.808 54.8649 447.545 56.1221 450.897 56.1221C451.588 56.1221 452.5 56.0728 453.634 55.9742C454.768 55.8263 455.926 55.4812 457.11 54.9388C458.293 54.3965 459.402 53.6076 460.438 52.5723C461.473 51.4876 462.188 49.9838 462.582 48.061H463.322C463.125 50.5755 462.533 52.8188 461.547 54.7909C460.61 56.7138 459.378 58.3408 457.849 59.672C456.321 61.0032 454.546 62.0139 452.524 62.7042C450.503 63.3944 448.309 63.7396 445.942 63.7396C443.083 63.7396 440.445 63.2465 438.029 62.2604C435.662 61.2744 433.616 59.8939 431.891 58.1189C430.165 56.344 428.809 54.2239 427.823 51.7588C426.886 49.2936 426.418 46.5819 426.418 43.6236C426.418 40.6654 426.862 37.9784 427.749 35.5625C428.686 33.1466 429.968 31.0758 431.595 29.3502C433.271 27.6246 435.243 26.2934 437.511 25.3566C439.829 24.3705 442.368 23.8775 445.129 23.8775C447.643 23.8775 449.985 24.2966 452.155 25.1348C454.373 25.9236 456.296 27.0576 457.923 28.5367C459.55 29.9665 460.832 31.6675 461.769 33.6396C462.706 35.5625 463.174 37.6579 463.174 39.9259V41.4789H439.212ZM450.971 39.704C450.823 35.3653 450.256 31.9633 449.27 29.4981C448.284 26.9836 447.002 25.7264 445.425 25.7264C444.488 25.7264 443.65 26.0962 442.91 26.8357C442.171 27.5753 441.53 28.586 440.987 29.8679C440.445 31.1498 440.026 32.6536 439.73 34.3792C439.434 36.0555 439.237 37.8305 439.138 39.704H450.971Z" fill="white"/>
</g>
<g filter="url(#filter1_d_583_1179)">
<path d="M93.6813 75.6197C95.8015 75.6197 97.6985 75.7871 99.3724 76.1218C101.074 76.4566 102.511 76.9867 103.683 77.712C104.854 78.4373 105.747 79.3719 106.361 80.5157C107.002 81.6595 107.323 83.0265 107.323 84.6166C107.323 86.2068 107.002 87.5737 106.361 88.7175C105.747 89.8334 104.84 90.7541 103.641 91.4794C102.469 92.2047 101.032 92.7348 99.3305 93.0695C97.6567 93.4043 95.7457 93.5717 93.5976 93.5717H92.5515V101.355C92.5515 102.694 92.7467 103.726 93.1373 104.452C93.5279 105.177 93.9742 105.54 94.4764 105.54V106H83.0524V105.54C83.5824 105.54 84.0427 105.177 84.4333 104.452C84.8239 103.726 85.0191 102.694 85.0191 101.355V79.8462C85.0191 78.5908 84.8239 77.6423 84.4333 77.0006C84.0427 76.359 83.5824 76.0382 83.0524 76.0382V75.6197H93.6813ZM92.5515 76.8751V92.3163H92.9699C95.0901 92.3163 96.7361 91.6468 97.9078 90.3077C99.1074 88.9686 99.7071 87.0855 99.7071 84.6585C99.7071 82.2035 99.0934 80.2925 97.8659 78.9255C96.6384 77.5586 94.9367 76.8751 92.7607 76.8751H92.5515ZM108.185 105.582C108.436 105.582 108.673 105.47 108.896 105.247C109.147 104.996 109.356 104.689 109.524 104.326C109.719 103.936 109.872 103.503 109.984 103.029C110.096 102.527 110.151 102.039 110.151 101.564V90.5169C110.151 89.9869 110.096 89.4847 109.984 89.0105C109.872 88.5083 109.719 88.0759 109.524 87.7132C109.356 87.3227 109.147 87.0158 108.896 86.7926C108.673 86.5415 108.436 86.416 108.185 86.416V85.9975C108.966 85.9417 109.747 85.872 110.528 85.7883C111.309 85.6767 112.076 85.5512 112.83 85.4117C113.583 85.2722 114.294 85.1188 114.964 84.9514C115.633 84.7561 116.233 84.5329 116.763 84.2818H117.265V87.504C118.102 86.3323 119.148 85.4396 120.404 84.8258C121.687 84.1842 123.068 83.8634 124.546 83.8634C125.579 83.8634 126.43 84.0587 127.099 84.4492C127.769 84.8398 128.271 85.328 128.606 85.9138C128.94 86.4997 129.108 87.1413 129.108 87.8388C129.108 88.5362 128.968 89.1778 128.689 89.7637C128.41 90.3495 127.992 90.8377 127.434 91.2283C126.904 91.6189 126.248 91.8142 125.467 91.8142C124.546 91.8142 123.863 91.5631 123.417 91.0609C122.97 90.5588 122.608 90.0148 122.329 89.4289C122.05 88.8152 121.771 88.2572 121.492 87.7551C121.213 87.2529 120.752 87.0018 120.111 87.0018C119.776 87.0018 119.455 87.0995 119.148 87.2948C118.869 87.4901 118.604 87.7411 118.353 88.048C118.102 88.327 117.879 88.6199 117.684 88.9268C117.516 89.2057 117.377 89.4568 117.265 89.68V101.397C117.265 101.899 117.321 102.401 117.433 102.903C117.544 103.406 117.684 103.866 117.851 104.284C118.046 104.675 118.256 104.996 118.479 105.247C118.73 105.47 118.981 105.582 119.232 105.582V106H108.185V105.582ZM128.699 95.1618C128.699 93.5438 128.992 92.0513 129.578 90.6843C130.192 89.2894 131.014 88.0898 132.047 87.0855C133.107 86.0812 134.348 85.3001 135.771 84.7422C137.222 84.1563 138.77 83.8634 140.416 83.8634C142.062 83.8634 143.582 84.1563 144.977 84.7422C146.4 85.3001 147.627 86.0812 148.66 87.0855C149.692 88.0898 150.501 89.2894 151.087 90.6843C151.7 92.0513 152.007 93.5438 152.007 95.1618C152.007 96.752 151.7 98.2445 151.087 99.6394C150.501 101.006 149.692 102.192 148.66 103.196C147.627 104.201 146.4 104.996 144.977 105.582C143.582 106.139 142.062 106.418 140.416 106.418C138.77 106.418 137.222 106.139 135.771 105.582C134.348 104.996 133.107 104.201 132.047 103.196C131.014 102.192 130.192 101.006 129.578 99.6394C128.992 98.2445 128.699 96.752 128.699 95.1618ZM136.315 95.12C136.315 97.1286 136.413 98.8025 136.608 100.142C136.831 101.453 137.124 102.499 137.487 103.28C137.877 104.033 138.31 104.577 138.784 104.912C139.286 105.219 139.816 105.372 140.374 105.372C140.932 105.372 141.448 105.219 141.922 104.912C142.425 104.577 142.857 104.033 143.22 103.28C143.582 102.499 143.861 101.453 144.057 100.142C144.28 98.8025 144.391 97.1286 144.391 95.12C144.391 93.1114 144.28 91.4515 144.057 90.1403C143.861 88.8291 143.582 87.7969 143.22 87.0437C142.857 86.2626 142.425 85.7186 141.922 85.4117C141.448 85.0769 140.932 84.9095 140.374 84.9095C139.816 84.9095 139.286 85.0769 138.784 85.4117C138.31 85.7186 137.877 86.2626 137.487 87.0437C137.124 87.7969 136.831 88.8291 136.608 90.1403C136.413 91.4515 136.315 93.1114 136.315 95.12ZM167.36 90.7262C167.36 88.2154 166.3 86.96 164.179 86.96C163.538 86.96 162.896 87.1692 162.254 87.5877C161.613 88.0062 161.083 88.5641 160.664 89.2615V101.397C160.664 101.899 160.72 102.401 160.832 102.903C160.943 103.406 161.083 103.866 161.25 104.284C161.445 104.675 161.655 104.996 161.878 105.247C162.129 105.47 162.38 105.582 162.631 105.582V106H151.584V105.582C151.835 105.582 152.072 105.47 152.295 105.247C152.546 104.996 152.755 104.689 152.923 104.326C153.118 103.936 153.271 103.503 153.383 103.029C153.495 102.527 153.55 102.039 153.55 101.564V90.5169C153.55 89.9869 153.495 89.4847 153.383 89.0105C153.271 88.5083 153.118 88.0759 152.923 87.7132C152.755 87.3227 152.546 87.0158 152.295 86.7926C152.072 86.5415 151.835 86.416 151.584 86.416V85.9975C152.365 85.9417 153.146 85.872 153.927 85.7883C154.708 85.6767 155.475 85.5512 156.229 85.4117C156.982 85.2722 157.693 85.1188 158.363 84.9514C159.032 84.7561 159.632 84.5329 160.162 84.2818H160.664V87.3785C161.417 86.4021 162.422 85.5791 163.677 84.9095C164.933 84.2121 166.313 83.8634 167.82 83.8634C170.749 83.8634 172.73 85.1188 173.762 87.6295C174.487 86.5694 175.492 85.6767 176.775 84.9514C178.086 84.2261 179.523 83.8634 181.085 83.8634C183.261 83.8634 184.907 84.5469 186.023 85.9138C187.167 87.2808 187.739 89.2615 187.739 91.856V101.397C187.739 101.899 187.794 102.401 187.906 102.903C188.018 103.406 188.157 103.866 188.325 104.284C188.52 104.675 188.729 104.996 188.952 105.247C189.203 105.47 189.454 105.582 189.705 105.582V106H178.658V105.582C178.909 105.582 179.146 105.47 179.369 105.247C179.621 104.996 179.83 104.689 179.997 104.326C180.192 103.936 180.346 103.503 180.457 103.029C180.569 102.527 180.625 102.039 180.625 101.564V90.7262C180.625 88.2154 179.565 86.96 177.445 86.96C176.859 86.96 176.273 87.1413 175.687 87.504C175.101 87.8388 174.599 88.2991 174.181 88.8849C174.264 89.3313 174.334 89.8055 174.39 90.3077C174.446 90.7819 174.473 91.2981 174.473 91.856V101.397C174.473 101.899 174.529 102.401 174.641 102.903C174.752 103.406 174.892 103.866 175.059 104.284C175.255 104.675 175.464 104.996 175.687 105.247C175.938 105.47 176.189 105.582 176.44 105.582V106H165.393V105.582C165.644 105.582 165.881 105.47 166.104 105.247C166.355 104.996 166.565 104.689 166.732 104.326C166.927 103.936 167.081 103.503 167.192 103.029C167.304 102.527 167.36 102.039 167.36 101.564V90.7262ZM195.507 82.5243C194.475 82.5243 193.596 82.1895 192.871 81.52C192.173 80.8505 191.825 80.0275 191.825 79.0511C191.825 78.0747 192.173 77.2517 192.871 76.5822C193.596 75.9126 194.475 75.5778 195.507 75.5778C196.539 75.5778 197.404 75.9126 198.101 76.5822C198.827 77.2517 199.189 78.0747 199.189 79.0511C199.189 80.0275 198.827 80.8505 198.101 81.52C197.404 82.1895 196.539 82.5243 195.507 82.5243ZM190.569 105.582C190.82 105.582 191.057 105.47 191.281 105.247C191.532 104.996 191.741 104.689 191.908 104.326C192.104 103.936 192.257 103.503 192.369 103.029C192.48 102.527 192.536 102.039 192.536 101.564V90.5169C192.536 89.9869 192.48 89.4847 192.369 89.0105C192.257 88.5083 192.104 88.0759 191.908 87.7132C191.741 87.3227 191.532 87.0158 191.281 86.7926C191.057 86.5415 190.82 86.416 190.569 86.416V85.9975C191.35 85.9417 192.131 85.872 192.913 85.7883C193.694 85.6767 194.461 85.5512 195.214 85.4117C195.967 85.2722 196.679 85.1188 197.348 84.9514C198.018 84.7561 198.618 84.5329 199.148 84.2818H199.65V101.397C199.65 101.899 199.706 102.401 199.817 102.903C199.929 103.406 200.068 103.866 200.236 104.284C200.431 104.675 200.64 104.996 200.863 105.247C201.114 105.47 201.365 105.582 201.617 105.582V106H190.569V105.582ZM210.568 84.9095C210.066 84.9095 209.619 85.1048 209.229 85.4954C208.838 85.886 208.643 86.4439 208.643 87.1692C208.643 88.0898 208.922 88.8989 209.48 89.5963C210.038 90.2937 210.735 90.9354 211.572 91.5212C212.409 92.0792 213.316 92.6371 214.292 93.1951C215.268 93.7251 216.175 94.311 217.012 94.9526C217.849 95.5664 218.546 96.2777 219.104 97.0868C219.662 97.8679 219.941 98.7885 219.941 99.8486C219.941 100.797 219.704 101.676 219.23 102.485C218.784 103.294 218.142 103.991 217.305 104.577C216.468 105.163 215.478 105.623 214.334 105.958C213.218 106.265 211.99 106.418 210.651 106.418C209.312 106.418 208.071 106.307 206.927 106.084C205.783 105.888 204.779 105.582 203.914 105.163C203.077 104.717 202.408 104.159 201.906 103.489C201.431 102.82 201.194 102.039 201.194 101.146C201.194 100.197 201.501 99.3744 202.115 98.6769C202.756 97.9795 203.565 97.6308 204.542 97.6308C205.351 97.6308 205.979 97.8261 206.425 98.2166C206.871 98.5793 207.206 99.0535 207.429 99.6394C207.68 100.225 207.862 100.853 207.973 101.522C208.113 102.164 208.266 102.778 208.434 103.364C208.629 103.95 208.88 104.438 209.187 104.828C209.522 105.191 210.01 105.372 210.651 105.372C211.321 105.372 211.837 105.219 212.2 104.912C212.59 104.605 212.786 104.131 212.786 103.489C212.786 102.597 212.507 101.815 211.949 101.146C211.391 100.448 210.679 99.7928 209.814 99.1791C208.978 98.5653 208.071 97.9655 207.094 97.3797C206.118 96.7938 205.197 96.1522 204.333 95.4548C203.496 94.7573 202.798 93.9902 202.24 93.1532C201.682 92.2884 201.403 91.2981 201.403 90.1822C201.403 89.3173 201.627 88.5083 202.073 87.7551C202.547 86.9739 203.189 86.3044 203.998 85.7465C204.807 85.1606 205.755 84.7003 206.843 84.3655C207.959 84.0308 209.159 83.8634 210.442 83.8634C213.399 83.8634 215.673 84.3795 217.263 85.4117C218.881 86.416 219.69 87.7272 219.69 89.3452C219.69 90.2379 219.397 90.9493 218.811 91.4794C218.226 92.0094 217.444 92.2745 216.468 92.2745C215.687 92.2745 215.059 92.0931 214.585 91.7305C214.139 91.3678 213.762 90.9214 213.455 90.3914C213.176 89.8334 212.953 89.2336 212.786 88.592C212.646 87.9504 212.479 87.3645 212.283 86.8345C212.116 86.2765 211.907 85.8162 211.656 85.4535C211.405 85.0909 211.042 84.9095 210.568 84.9095ZM228.049 93.8228C228.188 96.5009 228.844 98.5514 230.016 99.9742C231.215 101.397 232.764 102.108 234.661 102.108C235.051 102.108 235.567 102.08 236.209 102.025C236.851 101.941 237.506 101.746 238.176 101.439C238.845 101.132 239.473 100.686 240.059 100.1C240.645 99.4859 241.049 98.6351 241.272 97.5471H241.691C241.579 98.9698 241.244 100.239 240.687 101.355C240.156 102.443 239.459 103.364 238.594 104.117C237.729 104.87 236.725 105.442 235.581 105.833C234.437 106.223 233.196 106.418 231.857 106.418C230.239 106.418 228.746 106.139 227.379 105.582C226.04 105.024 224.883 104.242 223.906 103.238C222.93 102.234 222.163 101.034 221.605 99.6394C221.075 98.2445 220.81 96.7102 220.81 95.0363C220.81 93.3625 221.061 91.8421 221.563 90.4751C222.093 89.1081 222.818 87.9364 223.739 86.96C224.687 85.9836 225.803 85.2304 227.087 84.7003C228.398 84.1424 229.834 83.8634 231.397 83.8634C232.819 83.8634 234.145 84.1005 235.372 84.5748C236.627 85.0211 237.715 85.6628 238.636 86.4997C239.557 87.3087 240.282 88.2712 240.812 89.3871C241.342 90.4751 241.607 91.6607 241.607 92.944V93.8228H228.049ZM234.703 92.8185C234.619 90.3635 234.298 88.4386 233.74 87.0437C233.182 85.6209 232.457 84.9095 231.564 84.9095C231.034 84.9095 230.56 85.1188 230.141 85.5372C229.723 85.9557 229.36 86.5276 229.053 87.2529C228.746 87.9783 228.509 88.8291 228.342 89.8055C228.175 90.7541 228.063 91.7584 228.007 92.8185H234.703ZM254.702 84.2818C255.678 84.2818 256.613 84.1284 257.505 83.8215C258.426 83.5147 259.263 83.0823 260.016 82.5243C260.769 81.9664 261.397 81.3108 261.899 80.5575C262.429 79.8043 262.792 78.9813 262.987 78.0886H263.824V84.2818H268.595V85.328H263.824V99.6812C263.824 101.801 264.549 102.862 266 102.862C266.614 102.862 267.144 102.666 267.59 102.276C268.037 101.885 268.302 101.495 268.385 101.104H268.804C268.804 101.857 268.65 102.569 268.344 103.238C268.037 103.88 267.604 104.438 267.046 104.912C266.488 105.386 265.819 105.749 265.038 106C264.284 106.279 263.461 106.418 262.569 106.418C260.644 106.418 259.179 105.847 258.175 104.703C257.199 103.559 256.71 101.885 256.71 99.6812V85.328H254.074V84.2818H254.702ZM268.377 95.1618C268.377 93.5438 268.67 92.0513 269.256 90.6843C269.869 89.2894 270.692 88.0898 271.725 87.0855C272.785 86.0812 274.026 85.3001 275.449 84.7422C276.9 84.1563 278.448 83.8634 280.094 83.8634C281.74 83.8634 283.26 84.1563 284.655 84.7422C286.078 85.3001 287.305 86.0812 288.337 87.0855C289.37 88.0898 290.179 89.2894 290.765 90.6843C291.378 92.0513 291.685 93.5438 291.685 95.1618C291.685 96.752 291.378 98.2445 290.765 99.6394C290.179 101.006 289.37 102.192 288.337 103.196C287.305 104.201 286.078 104.996 284.655 105.582C283.26 106.139 281.74 106.418 280.094 106.418C278.448 106.418 276.9 106.139 275.449 105.582C274.026 104.996 272.785 104.201 271.725 103.196C270.692 102.192 269.869 101.006 269.256 99.6394C268.67 98.2445 268.377 96.752 268.377 95.1618ZM275.993 95.12C275.993 97.1286 276.091 98.8025 276.286 100.142C276.509 101.453 276.802 102.499 277.165 103.28C277.555 104.033 277.988 104.577 278.462 104.912C278.964 105.219 279.494 105.372 280.052 105.372C280.61 105.372 281.126 105.219 281.6 104.912C282.102 104.577 282.535 104.033 282.898 103.28C283.26 102.499 283.539 101.453 283.734 100.142C283.958 98.8025 284.069 97.1286 284.069 95.12C284.069 93.1114 283.958 91.4515 283.734 90.1403C283.539 88.8291 283.26 87.7969 282.898 87.0437C282.535 86.2626 282.102 85.7186 281.6 85.4117C281.126 85.0769 280.61 84.9095 280.052 84.9095C279.494 84.9095 278.964 85.0769 278.462 85.4117C277.988 85.7186 277.555 86.2626 277.165 87.0437C276.802 87.7969 276.509 88.8291 276.286 90.1403C276.091 91.4515 275.993 93.1114 275.993 95.12ZM309.492 116.001C308.432 116.001 307.54 115.82 306.814 115.457C306.089 115.095 305.517 114.634 305.099 114.076C304.708 113.546 304.457 112.96 304.345 112.319C304.262 111.705 304.317 111.119 304.513 110.561C304.708 110.031 305.043 109.585 305.517 109.222C305.991 108.859 306.605 108.678 307.358 108.678C308.056 108.678 308.6 108.79 308.99 109.013C309.381 109.236 309.688 109.501 309.911 109.808C310.162 110.143 310.357 110.491 310.497 110.854C310.636 111.245 310.79 111.593 310.957 111.9C311.124 112.235 311.32 112.514 311.543 112.737C311.794 112.96 312.157 113.072 312.631 113.072C313.105 113.072 313.565 112.891 314.012 112.528C314.486 112.165 314.918 111.538 315.309 110.645L307.358 88.8431C306.912 87.6156 306.382 86.6252 305.768 85.872C305.154 85.0909 304.582 84.7003 304.052 84.7003V84.2818H315.769V84.7003C315.267 84.7003 314.932 85.0909 314.765 85.872C314.598 86.6252 314.737 87.6156 315.183 88.8431L319.284 100.142L323.553 88.7175C323.776 88.1317 323.86 87.6016 323.804 87.1274C323.776 86.6252 323.664 86.2068 323.469 85.872C323.302 85.5093 323.078 85.2304 322.799 85.0351C322.548 84.8119 322.297 84.7003 322.046 84.7003V84.2818H328.658V84.7003C328.407 84.7003 328.086 84.8119 327.695 85.0351C327.305 85.2304 326.914 85.5093 326.524 85.872C326.133 86.2068 325.757 86.6252 325.394 87.1274C325.059 87.6016 324.78 88.1317 324.557 88.7175L316.732 109.808C315.951 111.928 314.96 113.49 313.761 114.495C312.589 115.499 311.166 116.001 309.492 116.001ZM325.834 95.1618C325.834 93.5438 326.127 92.0513 326.712 90.6843C327.326 89.2894 328.149 88.0898 329.181 87.0855C330.241 86.0812 331.483 85.3001 332.906 84.7422C334.356 84.1563 335.905 83.8634 337.551 83.8634C339.196 83.8634 340.717 84.1563 342.112 84.7422C343.535 85.3001 344.762 86.0812 345.794 87.0855C346.826 88.0898 347.635 89.2894 348.221 90.6843C348.835 92.0513 349.142 93.5438 349.142 95.1618C349.142 96.752 348.835 98.2445 348.221 99.6394C347.635 101.006 346.826 102.192 345.794 103.196C344.762 104.201 343.535 104.996 342.112 105.582C340.717 106.139 339.196 106.418 337.551 106.418C335.905 106.418 334.356 106.139 332.906 105.582C331.483 104.996 330.241 104.201 329.181 103.196C328.149 102.192 327.326 101.006 326.712 99.6394C326.127 98.2445 325.834 96.752 325.834 95.1618ZM333.45 95.12C333.45 97.1286 333.547 98.8025 333.743 100.142C333.966 101.453 334.259 102.499 334.621 103.28C335.012 104.033 335.444 104.577 335.919 104.912C336.421 105.219 336.951 105.372 337.509 105.372C338.067 105.372 338.583 105.219 339.057 104.912C339.559 104.577 339.992 104.033 340.354 103.28C340.717 102.499 340.996 101.453 341.191 100.142C341.414 98.8025 341.526 97.1286 341.526 95.12C341.526 93.1114 341.414 91.4515 341.191 90.1403C340.996 88.8291 340.717 87.7969 340.354 87.0437C339.992 86.2626 339.559 85.7186 339.057 85.4117C338.583 85.0769 338.067 84.9095 337.509 84.9095C336.951 84.9095 336.421 85.0769 335.919 85.4117C335.444 85.7186 335.012 86.2626 334.621 87.0437C334.259 87.7969 333.966 88.8291 333.743 90.1403C333.547 91.4515 333.45 93.1114 333.45 95.12ZM365.949 90.5169C365.949 89.9869 365.893 89.4847 365.782 89.0105C365.67 88.5083 365.517 88.0759 365.321 87.7132C365.154 87.3227 364.945 87.0158 364.694 86.7926C364.47 86.5415 364.233 86.416 363.982 86.416V85.9975C364.763 85.9417 365.545 85.872 366.326 85.7883C367.107 85.6767 367.874 85.5512 368.627 85.4117C369.38 85.2722 370.092 85.1188 370.761 84.9514C371.431 84.7561 372.031 84.5329 372.561 84.2818H373.063V100.434C373.063 102.387 373.258 103.74 373.649 104.494C374.039 105.219 374.5 105.582 375.03 105.582V106H365.949V102.945C365.642 103.364 365.238 103.782 364.735 104.201C364.261 104.619 363.689 104.996 363.02 105.33C362.35 105.665 361.611 105.93 360.802 106.126C359.993 106.321 359.1 106.418 358.124 106.418C355.948 106.418 354.232 105.791 352.977 104.535C351.721 103.28 351.094 101.439 351.094 99.0117V90.5169C351.094 89.9869 351.038 89.4847 350.926 89.0105C350.815 88.5083 350.661 88.0759 350.466 87.7132C350.299 87.3227 350.089 87.0158 349.838 86.7926C349.615 86.5415 349.378 86.416 349.127 86.416V85.9975C349.908 85.9417 350.689 85.872 351.47 85.7883C352.251 85.6767 353.019 85.5512 353.772 85.4117C354.525 85.2722 355.236 85.1188 355.906 84.9514C356.575 84.7561 357.175 84.5329 357.705 84.2818H358.207V99.3465C358.207 100.518 358.514 101.55 359.128 102.443C359.742 103.308 360.649 103.74 361.848 103.74C362.35 103.74 362.838 103.657 363.313 103.489C363.815 103.322 364.261 103.085 364.652 102.778C365.042 102.471 365.349 102.122 365.572 101.732C365.823 101.313 365.949 100.853 365.949 100.351V90.5169Z" fill="#FD7034"/>
</g>
<defs>
<filter id="filter0_d_583_1179" x="0.473584" y="2.27612" width="470.048" height="71.8634" filterUnits="userSpaceOnUse" color-interpolation-filters="sRGB">
<feFlood flood-opacity="0" result="BackgroundImageFix"/>
<feColorMatrix in="SourceAlpha" type="matrix" values="0 0 0 0 0 0 0 0 0 0 0 0 0 0 0 0 0 0 127 0" result="hardAlpha"/>
<feOffset dy="3.2"/>
<feGaussianBlur stdDeviation="3.6"/>
<feComposite in2="hardAlpha" operator="out"/>
<feColorMatrix type="matrix" values="0 0 0 0 0 0 0 0 0 0 0 0 0 0 0 0 0 0 0.25 0"/>
<feBlend mode="normal" in2="BackgroundImageFix" result="effect1_dropShadow_583_1179"/>
<feBlend mode="normal" in="SourceGraphic" in2="effect1_dropShadow_583_1179" result="shape"/>
</filter>
<filter id="filter1_d_583_1179" x="74.4968" y="68.3385" width="309.088" height="57.5346" filterUnits="userSpaceOnUse" color-interpolation-filters="sRGB">
<feFlood flood-opacity="0" result="BackgroundImageFix"/>
<feColorMatrix in="SourceAlpha" type="matrix" values="0 0 0 0 0 0 0 0 0 0 0 0 0 0 0 0 0 0 127 0" result="hardAlpha"/>
<feOffset dy="1.31625"/>
<feGaussianBlur stdDeviation="4.27782"/>
<feComposite in2="hardAlpha" operator="out"/>
<feColorMatrix type="matrix" values="0 0 0 0 0 0 0 0 0 0 0 0 0 0 0 0 0 0 0.25 0"/>
<feBlend mode="normal" in2="BackgroundImageFix" result="effect1_dropShadow_583_1179"/>
<feBlend mode="normal" in="SourceGraphic" in2="effect1_dropShadow_583_1179" result="shape"/>
</filter>
</defs>
</svg>
