<svg width="37" height="37" viewBox="0 0 37 37" fill="none" xmlns="http://www.w3.org/2000/svg">
<g clip-path="url(#clip0_138_423)">
<path d="M18.5 0C8.28273 0 0 8.28273 0 18.5C0 28.7173 8.28273 37 18.5 37C28.7173 37 37 28.7173 37 18.5C37 8.28273 28.7173 0 18.5 0ZM11.8516 7.34851C12.2327 7.32603 12.5773 7.55386 12.8384 7.95824L15.3677 12.7549C15.634 13.3232 15.4827 13.9318 15.0855 14.3379L13.927 15.4964C13.8555 15.5944 13.8084 15.7048 13.8073 15.8261C14.2515 17.5459 15.5992 19.1322 16.7883 20.2231C17.9773 21.3139 19.2552 22.7909 20.9141 23.1408C21.1192 23.198 21.3704 23.2185 21.5171 23.0821L22.863 21.7113C23.3276 21.3592 23.9997 21.1885 24.4958 21.4765H24.5184L29.0823 24.1706C29.7523 24.5905 29.8217 25.4022 29.342 25.896L26.1986 29.0147C25.7343 29.4907 25.1176 29.6508 24.5184 29.6515C21.8684 29.5721 19.3644 28.2714 17.3077 26.9348C13.9317 24.4788 10.835 21.4327 8.89095 17.7525C8.14533 16.2093 7.26945 14.2403 7.35304 12.5178C7.3605 11.8698 7.53582 11.235 7.99215 10.8173L11.1357 7.67377C11.3806 7.4654 11.6228 7.36201 11.8516 7.34851Z" fill="#323232"/>
</g>
<defs>
<clipPath id="clip0_138_423">
<rect width="37" height="37" fill="white"/>
</clipPath>
</defs>
</svg>
