<svg width="36" height="36" viewBox="0 0 36 36" fill="none" xmlns="http://www.w3.org/2000/svg">
<path d="M28.0949 8.1149L26.1749 9.6149L17.9999 15.6899L9.82493 9.5549L7.90493 8.0549C7.45261 7.68072 6.90045 7.44746 6.31686 7.38402C5.73327 7.32059 5.14389 7.42977 4.62174 7.69803C4.09959 7.96629 3.66762 8.38184 3.37934 8.89321C3.09106 9.40458 2.95914 9.98929 2.99993 10.5749V27.9599C2.99993 28.5009 3.21486 29.0198 3.59743 29.4024C3.98 29.785 4.49889 29.9999 5.03993 29.9999H9.82493V18.4199L17.9999 24.5549L26.1749 18.4199V29.9999H30.9599C31.501 29.9999 32.0199 29.785 32.4024 29.4024C32.785 29.0198 32.9999 28.5009 32.9999 27.9599V10.5749C33.0281 9.99434 32.887 9.4181 32.5938 8.91623C32.3006 8.41436 31.8679 8.00847 31.3484 7.74789C30.8288 7.48732 30.2447 7.38329 29.6672 7.44844C29.0896 7.5136 28.5434 7.74513 28.0949 8.1149Z" fill="#7E7E7D" fill-opacity="0.85"/>
</svg>
