<svg width="36" height="36" viewBox="0 0 36 36" fill="none" xmlns="http://www.w3.org/2000/svg">
<path d="M25.5 12.75C26.7426 12.75 27.75 11.7426 27.75 10.5C27.75 9.25736 26.7426 8.25 25.5 8.25C24.2574 8.25 23.25 9.25736 23.25 10.5C23.25 11.7426 24.2574 12.75 25.5 12.75Z" fill="#7E7E7D" fill-opacity="0.85"/>
<path d="M24 4.5C28.14 4.5 31.5 7.86 31.5 12V24C31.5 28.14 28.14 31.5 24 31.5H12C7.86 31.5 4.5 28.14 4.5 24V12C4.5 7.86 7.86 4.5 12 4.5H18H24Z" stroke="#7E7E7D" stroke-opacity="0.85" stroke-width="3" stroke-linecap="round" stroke-linejoin="round"/>
<path d="M18 12C21.315 12 24 14.685 24 18C24 21.315 21.315 24 18 24C14.685 24 12 21.315 12 18C12 14.685 14.685 12 18 12Z" stroke="#7E7E7D" stroke-opacity="0.85" stroke-width="3" stroke-linecap="round" stroke-linejoin="round"/>
</svg>
