<svg width="465" height="75" viewBox="0 0 465 75" fill="none" xmlns="http://www.w3.org/2000/svg">
<path d="M0.8 73V2.4H16.5V73H0.8ZM12.8 45.3V31.8H48.1V45.3H12.8ZM12.8 15.9V2.4H49.7V15.9H12.8ZM59.3844 73V24.4H74.6844V73H59.3844ZM74.6844 46.3L68.2844 41.3C69.551 35.6333 71.6844 31.2333 74.6844 28.1C77.6844 24.9667 81.851 23.4 87.1844 23.4C89.5177 23.4 91.551 23.7667 93.2844 24.5C95.0844 25.1667 96.651 26.2333 97.9844 27.7L88.8844 39.2C88.2177 38.4667 87.3844 37.9 86.3844 37.5C85.3844 37.1 84.251 36.9 82.9844 36.9C80.451 36.9 78.4177 37.7 76.8844 39.3C75.4177 40.8333 74.6844 43.1667 74.6844 46.3ZM124.66 74.1C120.193 74.1 116.227 73.2 112.76 71.4C109.36 69.5333 106.693 67 104.76 63.8C102.827 60.5333 101.86 56.8 101.86 52.6V24.4H117.16V52.4C117.16 54.0667 117.427 55.5 117.96 56.7C118.56 57.9 119.427 58.8333 120.56 59.5C121.693 60.1667 123.06 60.5 124.66 60.5C126.927 60.5 128.727 59.8 130.06 58.4C131.393 56.9333 132.06 54.9333 132.06 52.4V24.4H147.36V52.5C147.36 56.7667 146.393 60.5333 144.46 63.8C142.527 67 139.86 69.5333 136.46 71.4C133.06 73.2 129.127 74.1 124.66 74.1ZM157.966 73V24.4H173.266V73H157.966ZM165.666 17.7C163.266 17.7 161.266 16.9 159.666 15.3C158.133 13.6333 157.366 11.6333 157.366 9.3C157.366 6.9 158.133 4.9 159.666 3.3C161.266 1.7 163.266 0.899998 165.666 0.899998C168.066 0.899998 170.033 1.7 171.566 3.3C173.1 4.9 173.866 6.9 173.866 9.3C173.866 11.6333 173.1 13.6333 171.566 15.3C170.033 16.9 168.066 17.7 165.666 17.7ZM191.941 73V4.3H207.241V73H191.941ZM180.941 37.4V24.4H218.241V37.4H180.941ZM248.582 74.1C242.782 74.1 237.782 73.1667 233.582 71.3C229.449 69.3667 225.649 66.4667 222.182 62.6L232.382 52.5C234.649 55.1 237.149 57.1333 239.882 58.6C242.682 60 245.915 60.7 249.582 60.7C252.915 60.7 255.482 60.1 257.282 58.9C259.149 57.7 260.082 56.0333 260.082 53.9C260.082 51.9667 259.482 50.4 258.282 49.2C257.082 48 255.482 46.9667 253.482 46.1C251.549 45.2333 249.382 44.4 246.982 43.6C244.649 42.8 242.315 41.9 239.982 40.9C237.649 39.8333 235.482 38.5333 233.482 37C231.549 35.4 229.982 33.4333 228.782 31.1C227.582 28.7 226.982 25.7 226.982 22.1C226.982 17.7667 228.015 14.0333 230.082 10.9C232.215 7.76666 235.149 5.4 238.882 3.8C242.615 2.13333 246.915 1.3 251.782 1.3C256.715 1.3 261.215 2.16666 265.282 3.9C269.415 5.63333 272.815 8 275.482 11L265.282 21.1C263.149 18.9 260.982 17.2667 258.782 16.2C256.649 15.1333 254.215 14.6 251.482 14.6C248.749 14.6 246.582 15.1333 244.982 16.2C243.382 17.2 242.582 18.6667 242.582 20.6C242.582 22.4 243.182 23.8667 244.382 25C245.582 26.0667 247.149 27 249.082 27.8C251.082 28.6 253.249 29.4 255.582 30.2C257.982 31 260.349 31.9333 262.682 33C265.015 34.0667 267.149 35.4333 269.082 37.1C271.082 38.7 272.682 40.7667 273.882 43.3C275.082 45.7667 275.682 48.8333 275.682 52.5C275.682 59.2333 273.282 64.5333 268.482 68.4C263.682 72.2 257.049 74.1 248.582 74.1ZM292.183 73V4.3H307.483V73H292.183ZM281.183 37.4V24.4H318.483V37.4H281.183ZM345.548 74C341.081 74 337.081 72.9 333.548 70.7C330.081 68.5 327.314 65.5 325.248 61.7C323.248 57.9 322.248 53.5667 322.248 48.7C322.248 43.8333 323.248 39.5 325.248 35.7C327.314 31.9 330.081 28.9 333.548 26.7C337.081 24.5 341.081 23.4 345.548 23.4C348.814 23.4 351.748 24.0333 354.348 25.3C357.014 26.5667 359.181 28.3333 360.848 30.6C362.514 32.8 363.448 35.3333 363.648 38.2V59.2C363.448 62.0667 362.514 64.6333 360.848 66.9C359.248 69.1 357.114 70.8333 354.448 72.1C351.781 73.3667 348.814 74 345.548 74ZM348.648 60.2C351.914 60.2 354.548 59.1333 356.548 57C358.548 54.8 359.548 52.0333 359.548 48.7C359.548 46.4333 359.081 44.4333 358.148 42.7C357.281 40.9667 356.014 39.6333 354.348 38.7C352.748 37.7 350.881 37.2 348.748 37.2C346.614 37.2 344.714 37.7 343.048 38.7C341.448 39.6333 340.148 40.9667 339.148 42.7C338.214 44.4333 337.748 46.4333 337.748 48.7C337.748 50.9 338.214 52.8667 339.148 54.6C340.081 56.3333 341.381 57.7 343.048 58.7C344.714 59.7 346.581 60.2 348.648 60.2ZM358.948 73V59.9L361.248 48.1L358.948 36.3V24.4H373.948V73H358.948ZM392.62 73V4.3H407.92V73H392.62ZM381.62 37.4V24.4H418.92V37.4H381.62ZM443.385 74.2C440.518 74.2 437.685 73.8333 434.885 73.1C432.152 72.3667 429.585 71.3333 427.185 70C424.852 68.6 422.852 67 421.185 65.2L429.885 56.4C431.485 58.1333 433.385 59.5 435.585 60.5C437.785 61.4333 440.185 61.9 442.785 61.9C444.585 61.9 445.952 61.6333 446.885 61.1C447.885 60.5667 448.385 59.8333 448.385 58.9C448.385 57.7 447.785 56.8 446.585 56.2C445.452 55.5333 443.985 54.9667 442.185 54.5C440.385 53.9667 438.485 53.4 436.485 52.8C434.485 52.2 432.585 51.3667 430.785 50.3C428.985 49.2333 427.518 47.7667 426.385 45.9C425.252 43.9667 424.685 41.5333 424.685 38.6C424.685 35.4667 425.485 32.7667 427.085 30.5C428.685 28.1667 430.952 26.3333 433.885 25C436.818 23.6667 440.252 23 444.185 23C448.318 23 452.118 23.7333 455.585 25.2C459.118 26.6 461.985 28.7 464.185 31.5L455.485 40.3C453.952 38.5 452.218 37.2333 450.285 36.5C448.418 35.7667 446.585 35.4 444.785 35.4C443.052 35.4 441.752 35.6667 440.885 36.2C440.018 36.6667 439.585 37.3667 439.585 38.3C439.585 39.3 440.152 40.1 441.285 40.7C442.418 41.3 443.885 41.8333 445.685 42.3C447.485 42.7667 449.385 43.3333 451.385 44C453.385 44.6667 455.285 45.5667 457.085 46.7C458.885 47.8333 460.352 49.3667 461.485 51.3C462.618 53.1667 463.185 55.6333 463.185 58.7C463.185 63.4333 461.385 67.2 457.785 70C454.252 72.8 449.452 74.2 443.385 74.2Z" fill="#1C4816"/>
</svg>
