<svg width="662" height="86" viewBox="0 0 662 86" fill="none" xmlns="http://www.w3.org/2000/svg">
<g filter="url(#filter0_d_355_726)">
<path d="M13.3091 64.88C11.1757 64.3467 9.4424 63.2267 8.10906 61.52C6.82906 59.8667 5.78906 57.8667 4.98906 55.52C4.93573 54.8267 4.90906 53.8667 4.90906 52.64C4.9624 51.4133 5.0424 50.2667 5.14906 49.2C5.25573 48.1333 5.3624 47.52 5.46906 47.36C5.62906 47.2533 5.70906 46.9333 5.70906 46.4C5.65573 46.1867 5.6824 45.84 5.78906 45.36C5.94906 44.8267 6.10906 44.2933 6.26906 43.76C6.53573 43.12 6.66906 42.6133 6.66906 42.24C6.66906 41.8133 6.6424 41.4933 6.58906 41.28C6.58906 41.28 6.66906 41.12 6.82906 40.8C6.98906 40.4267 7.17573 40.1333 7.38906 39.92C7.70906 39.6 7.8424 39.28 7.78906 38.96C7.78906 38.64 7.78906 38.48 7.78906 38.48C7.73573 38.2667 7.78906 37.9733 7.94906 37.6C8.10906 37.2267 8.26906 36.9333 8.42906 36.72C8.53573 36.6133 8.66906 36.4 8.82906 36.08C9.0424 35.7067 9.14906 35.52 9.14906 35.52C9.14906 35.36 9.25573 34.9333 9.46906 34.24C9.73573 33.5467 10.0291 32.8 10.3491 32C10.6691 31.1467 10.9624 30.3733 11.2291 29.68C11.5491 28.9867 11.7891 28.5333 11.9491 28.32V28.16C12.1624 27.6267 12.4557 27.0667 12.8291 26.48C12.8824 26.2133 13.0157 25.7867 13.2291 25.2C13.4424 24.56 13.6824 23.9467 13.9491 23.36C14.5357 22.08 15.2557 20.64 16.1091 19.04C17.0157 17.3867 17.9757 15.76 18.9891 14.16C20.0024 12.5067 20.9624 11.04 21.8691 9.76C22.8291 8.42666 23.6557 7.44 24.3491 6.8C25.2557 5.78667 26.1624 5.06667 27.0691 4.64C28.0291 4.16 28.9091 4.32 29.7091 5.12C30.0824 5.49333 30.4024 6.05333 30.6691 6.8C30.9357 7.49333 31.0424 8.16 30.9891 8.8C30.9891 9.38667 30.7757 9.70667 30.3491 9.76C29.9757 9.97333 29.4691 10.5867 28.8291 11.6C28.1891 12.56 27.4691 13.7067 26.6691 15.04C25.9224 16.3733 25.1757 17.76 24.4291 19.2C23.6824 20.5867 22.9891 21.84 22.3491 22.96C21.6557 24.5067 21.0157 25.8667 20.4291 27.04C19.8424 28.16 19.5491 28.72 19.5491 28.72C19.4957 28.88 19.4424 29.0133 19.3891 29.12C19.3357 29.2267 19.2824 29.3333 19.2291 29.44C18.4291 31.0933 17.7624 32.6133 17.2291 34C16.6957 35.3333 16.1624 36.7467 15.6291 38.24C15.3091 38.6133 15.1224 38.9867 15.0691 39.36C15.0157 39.7333 14.9891 39.92 14.9891 39.92C14.8824 39.8667 14.8024 40 14.7491 40.32C14.6957 40.5867 14.5891 40.9067 14.4291 41.28C14.1624 41.4933 14.0024 41.84 13.9491 42.32C13.8957 42.7467 13.8691 43.1733 13.8691 43.6C13.4957 44.56 13.1491 45.7333 12.8291 47.12C12.5091 48.4533 12.2691 49.76 12.1091 51.04C12.0024 52.2667 11.9757 53.2267 12.0291 53.92C12.1357 54.8267 12.3757 55.6 12.7491 56.24C13.1757 56.8267 13.7624 57.3067 14.5091 57.68C15.0957 57.9467 15.6291 58.1867 16.1091 58.4C16.5891 58.56 17.0157 58.64 17.3891 58.64C17.8157 58.6933 18.3491 58.6933 18.9891 58.64C19.6824 58.5333 20.6157 58.3733 21.7891 58.16H21.7091C22.4024 58.0533 23.1224 57.92 23.8691 57.76C24.6691 57.5467 25.4157 57.36 26.1091 57.2C26.7491 57.0933 27.3624 56.9867 27.9491 56.88C28.5357 56.72 28.9891 56.5867 29.3091 56.48C30.4824 56.16 31.4157 55.8933 32.1091 55.68C32.8557 55.4667 33.3624 55.4667 33.6291 55.68C33.8957 55.8933 34.1891 56.2933 34.5091 56.88C34.8291 57.4667 34.9091 58 34.7491 58.48C34.6424 58.7467 34.1091 59.28 33.1491 60.08C32.1891 60.9333 31.0957 61.76 29.8691 62.56C28.6424 63.4133 27.5224 64 26.5091 64.32C25.4424 64.8 24.0024 65.12 22.1891 65.28C20.4291 65.4933 18.7224 65.5467 17.0691 65.44C15.4157 65.3333 14.1624 65.1467 13.3091 64.88ZM55.2916 58.4C53.6916 59.3067 51.9849 59.84 50.1716 60C48.4116 60.1067 46.7582 59.8667 45.2116 59.28C43.6649 58.64 42.4116 57.7067 41.4516 56.48C40.9182 55.7867 40.4116 54.6933 39.9316 53.2C39.4516 51.6533 39.3716 49.5733 39.6916 46.96C40.0116 44.5067 40.7582 42.0267 41.9316 39.52C43.1582 37.0133 44.6516 34.8 46.4116 32.88C48.1716 30.96 50.0916 29.6533 52.1716 28.96C52.9182 28.6933 53.6649 28.5067 54.4116 28.4C55.2116 28.24 56.2516 28.2133 57.5316 28.32C58.7582 28.48 59.8516 28.8 60.8116 29.28C61.7716 29.7067 62.4649 30.1867 62.8916 30.72C63.7449 31.5733 64.3049 32.4 64.5716 33.2C64.8382 34 64.9449 34.7733 64.8916 35.52C64.6249 37.2267 63.8516 39.0667 62.5716 41.04C61.3449 43.0133 59.6116 44.48 57.3716 45.44C56.4649 45.8133 55.3982 46.0533 54.1716 46.16C52.9449 46.2667 51.2649 46.1067 49.1316 45.68C47.8516 45.4133 46.9982 45.5467 46.5716 46.08C46.1982 46.6133 46.0382 47.6533 46.0916 49.2C46.1982 50.16 46.4116 51.0133 46.7316 51.76C47.1049 52.4533 47.7716 52.9333 48.7316 53.2C49.9582 53.4133 50.8382 53.44 51.3716 53.28C51.9049 53.0667 52.5716 52.7733 53.3716 52.4C53.7982 52.1333 54.1982 51.84 54.5716 51.52C54.9982 51.2 55.3982 50.88 55.7716 50.56C56.1982 50.24 56.5449 50 56.8116 49.84C57.0782 49.6267 57.3449 49.4933 57.6116 49.44C57.8782 49.3867 58.1449 49.36 58.4116 49.36C58.9982 49.4133 59.5582 49.7333 60.0916 50.32C60.6249 50.9067 60.9716 51.4667 61.1316 52C61.1316 52.4267 60.8649 53.04 60.3316 53.84C59.7982 54.5867 59.0782 55.3867 58.1716 56.24C57.3182 57.04 56.3582 57.76 55.2916 58.4ZM54.2516 40.56C54.6249 40.4 55.1582 40.0267 55.8516 39.44C56.5982 38.8533 57.2649 38.24 57.8516 37.6C58.4382 36.9067 58.7316 36.3733 58.7316 36C58.7316 35.4133 58.3316 34.9067 57.5316 34.48C56.7849 34.0533 55.7982 33.9733 54.5716 34.24C54.1449 34.3467 53.6382 34.64 53.0516 35.12C52.4649 35.6 51.8782 36.16 51.2916 36.8C50.7049 37.3867 50.1982 37.9733 49.7716 38.56C49.3449 39.0933 49.0516 39.52 48.8916 39.84C49.1049 40.1067 49.5316 40.32 50.1716 40.48C50.8116 40.64 51.5049 40.72 52.2516 40.72C53.0516 40.72 53.7182 40.6667 54.2516 40.56ZM72.2503 60.08C71.6636 59.9733 71.0236 59.6267 70.3303 59.04C69.637 58.4 68.997 57.7067 68.4103 56.96C67.877 56.16 67.5303 55.4933 67.3703 54.96C67.3703 54.8533 67.2903 54.72 67.1303 54.56C67.0236 54.4 66.9703 54.32 66.9703 54.32C66.757 54.16 66.6236 53.4667 66.5703 52.24C66.5703 50.96 66.6503 49.5467 66.8103 48C66.9703 46.4533 67.157 45.2267 67.3703 44.32C67.637 43.4667 68.037 42.32 68.5703 40.88C69.1036 39.3867 69.557 38.0533 69.9303 36.88L72.0903 32.24L68.8903 31.36C68.517 31.2533 68.197 31.04 67.9303 30.72C67.717 30.4 67.6103 30.1333 67.6103 29.92C67.6103 29.4933 67.8503 28.88 68.3303 28.08C68.8103 27.28 69.157 26.88 69.3703 26.88C69.637 26.9333 70.117 26.96 70.8103 26.96C71.557 26.96 72.277 26.9333 72.9703 26.88C73.6636 26.8267 74.0903 26.7733 74.2503 26.72C74.4636 26.6133 74.677 26.48 74.8903 26.32C75.1036 26.1067 75.2636 25.8133 75.3703 25.44C75.637 24.8533 75.877 24.4 76.0903 24.08C76.3036 23.76 76.597 23.28 76.9703 22.64C77.3436 21.9467 77.637 21.36 77.8503 20.88C78.117 20.4 78.517 19.7333 79.0503 18.88C79.317 18.5067 79.6103 18.0533 79.9303 17.52C80.2503 16.9867 80.6503 16.5333 81.1303 16.16C81.6103 15.7333 82.3836 15.44 83.4503 15.28C84.5703 15.0667 85.5303 15.3067 86.3303 16C86.757 16.5333 86.997 17.04 87.0503 17.52C87.1036 18 86.8903 18.6133 86.4103 19.36C85.9836 20.2667 85.477 21.0933 84.8903 21.84C84.357 22.5333 83.8503 23.3333 83.3703 24.24C82.517 25.4133 82.357 26.08 82.8903 26.24C83.4236 26.4 84.917 26.2933 87.3703 25.92C88.917 25.6533 90.037 25.8133 90.7303 26.4C91.4236 26.9867 91.8236 27.7333 91.9303 28.64C92.0903 29.92 91.957 30.6933 91.5303 30.96C91.1036 31.2267 89.877 31.36 87.8503 31.36C86.5703 31.5733 85.477 31.7067 84.5703 31.76C83.6636 31.76 82.997 31.76 82.5703 31.76C81.877 31.8133 81.4236 31.84 81.2103 31.84C80.997 31.84 80.677 31.8933 80.2503 32C79.8236 32.1067 79.5036 32.2933 79.2903 32.56C79.1303 32.7733 78.9436 33.0933 78.7303 33.52C78.517 33.7333 78.197 34.2933 77.7703 35.2C77.3436 36.1067 76.8103 37.0933 76.1703 38.16C75.4236 40.4 74.7836 42.56 74.2503 44.64C73.7703 46.6667 73.3436 48.6933 72.9703 50.72C72.8103 51.7333 72.837 52.48 73.0503 52.96C73.317 53.3867 74.0103 53.6533 75.1303 53.76C75.717 53.8133 76.5703 53.8133 77.6903 53.76C78.8103 53.6533 79.7436 53.4933 80.4903 53.28C81.077 53.0133 81.6903 52.7467 82.3303 52.48C82.9703 52.16 83.557 51.84 84.0903 51.52C84.5703 51.2533 85.0503 50.9867 85.5303 50.72C86.0103 50.4 86.2503 50.24 86.2503 50.24C86.517 49.8133 86.8903 49.8933 87.3703 50.48C87.9036 51.0133 88.277 51.6 88.4903 52.24C88.4903 52.88 88.357 53.6533 88.0903 54.56C87.8236 55.4133 86.837 56.32 85.1303 57.28C82.7303 58.7733 80.3303 59.68 77.9303 60C75.5303 60.32 73.637 60.3467 72.2503 60.08ZM102.495 25.28C101.961 25.3333 101.295 25.3333 100.495 25.28C99.748 25.2267 99.2947 24.72 99.1347 23.76C99.0814 23.3867 99.1347 23.04 99.2947 22.72C99.4547 22.4 99.668 22.0533 99.9347 21.68C100.575 20.6133 101.295 19.44 102.095 18.16C102.948 16.88 103.508 15.84 103.775 15.04C103.775 14.8267 103.801 14.64 103.855 14.48C102.948 14.64 102.015 14.32 101.055 13.52C100.041 12.56 99.748 11.3067 100.175 9.76C100.655 8.16 101.588 6.88 102.975 5.92C103.935 5.33333 104.841 5.01333 105.695 4.96C106.548 4.90667 107.455 5.09333 108.415 5.52C109.321 6.05333 110.068 6.88 110.655 8C111.241 9.06666 111.401 9.94666 111.135 10.64C110.975 11.8667 110.681 13.0133 110.255 14.08C109.881 15.1467 109.535 16.1867 109.215 17.2C108.895 18.3733 108.228 19.6267 107.215 20.96C106.255 22.24 105.321 23.4133 104.415 24.48C104.468 24.6933 104.308 24.8267 103.935 24.88C103.561 24.9333 103.081 25.0667 102.495 25.28ZM106.67 60.48C104.856 59.7333 103.523 58.96 102.67 58.16C101.87 57.3067 101.55 56.56 101.71 55.92C101.816 55.6 102.003 55.3067 102.27 55.04C102.536 54.7733 103.123 54.6667 104.03 54.72C104.99 54.72 106.456 54.96 108.43 55.44C109.016 55.44 109.603 55.4133 110.19 55.36C110.776 55.3067 111.31 55.2267 111.79 55.12C112.323 55.0133 112.75 54.88 113.07 54.72C113.336 54.6133 113.416 54.48 113.31 54.32C113.203 54.1067 113.016 53.8933 112.75 53.68C112.536 53.4133 112.296 53.2533 112.03 53.2C111.763 53.0933 111.523 53.04 111.31 53.04C111.203 52.7733 110.963 52.5067 110.59 52.24C110.27 51.9733 109.87 51.68 109.39 51.36C108.216 50.4 107.15 49.5467 106.19 48.8C105.23 48.0533 104.856 47.4933 105.07 47.12C105.07 46.9067 105.07 46.8 105.07 46.8C105.07 46.7467 105.07 46.72 105.07 46.72C104.696 46.72 104.35 46.2133 104.03 45.2C103.71 44.1333 103.55 43.1733 103.55 42.32C103.55 41.2533 103.763 40.1867 104.19 39.12C104.67 38.0533 105.256 37.04 105.95 36.08C106.696 35.12 107.443 34.2667 108.19 33.52C109.203 32.56 110.27 31.6267 111.39 30.72C112.563 29.76 113.816 28.9067 115.15 28.16C116.536 27.4133 118.056 26.8267 119.71 26.4C120.456 26.24 121.31 26.16 122.27 26.16C123.23 26.16 123.923 26.2933 124.35 26.56C124.776 26.2933 125.31 26.3733 125.95 26.8C126.59 27.1733 127.23 27.7067 127.87 28.4C128.51 29.0933 128.99 29.7867 129.31 30.48C129.31 31.12 129.283 31.92 129.23 32.88C129.23 33.7867 129.176 34.5867 129.07 35.28C128.963 35.9733 128.723 36.32 128.35 36.32C128.35 36.32 128.27 36.3467 128.11 36.4C128.003 36.4 127.95 36.5333 127.95 36.8C127.95 37.3333 127.55 37.9467 126.75 38.64C125.736 39.3333 124.776 39.8933 123.87 40.32C122.963 40.7467 122.27 40.7733 121.79 40.4C121.47 40.1867 121.176 39.9733 120.91 39.76C120.643 39.5467 120.403 39.28 120.19 38.96C120.19 38.96 120.11 38.8533 119.95 38.64C119.843 38.3733 119.79 38.1333 119.79 37.92C119.79 37.7067 119.87 37.52 120.03 37.36C120.19 37.1467 120.27 37.04 120.27 37.04C121.016 36.3467 121.576 35.7067 121.95 35.12C122.376 34.5333 122.67 34.0267 122.83 33.6C122.99 33.12 123.07 32.7467 123.07 32.48C123.07 32.16 122.99 31.9733 122.83 31.92C122.723 31.8133 122.456 31.76 122.03 31.76C121.763 31.76 121.176 31.9733 120.27 32.4C119.416 32.8267 118.51 33.36 117.55 34C116.59 34.5867 115.843 35.12 115.31 35.6C115.096 35.9733 114.936 36.2133 114.83 36.32C114.776 36.4267 114.643 36.48 114.43 36.48C114.43 36.2667 114.296 36.2933 114.03 36.56C113.763 36.8267 113.443 37.2 113.07 37.68C112.696 38.16 112.323 38.6667 111.95 39.2C111.576 39.7333 111.283 40.16 111.07 40.48C111.016 40.96 110.883 41.4133 110.67 41.84C110.51 42.2133 110.456 42.6133 110.51 43.04C110.563 43.5733 110.83 44.08 111.31 44.56C111.79 45.04 112.483 45.6533 113.39 46.4C115.256 47.7867 116.643 48.88 117.55 49.68C118.51 50.48 119.176 51.12 119.55 51.6C119.923 52.08 120.163 52.56 120.27 53.04C121.176 54.6933 121.283 56.1333 120.59 57.36C119.896 58.5333 118.83 59.44 117.39 60.08C116.856 60.3467 115.923 60.5867 114.59 60.8C113.256 61.0667 111.843 61.1733 110.35 61.12C108.91 61.12 107.683 60.9067 106.67 60.48ZM156.813 59.36C155.64 59.36 154.76 59.3067 154.173 59.2C153.64 59.0933 153.24 58.9333 152.973 58.72C152.707 58.5067 152.36 58.2133 151.933 57.84C151.72 57.4133 151.347 56.88 150.813 56.24C150.28 55.5467 149.907 55.0933 149.693 54.88C149.48 54.08 149.4 52.9867 149.453 51.6C149.56 50.2133 149.8 48.72 150.173 47.12C150.547 45.52 151 44.08 151.533 42.8C151.747 42.3733 151.933 41.9467 152.093 41.52C152.253 41.0933 152.333 40.88 152.333 40.88C152.333 40.6133 152.653 39.9733 153.293 38.96C153.987 37.9467 154.733 36.88 155.533 35.76C156.387 34.64 157.08 33.84 157.613 33.36C157.987 32.9333 158.547 32.48 159.293 32C160.093 31.52 160.787 31.1733 161.373 30.96C161.96 30.7467 162.76 30.48 163.773 30.16C164.787 29.7867 165.693 29.6 166.493 29.6C167.24 29.6 168.04 29.76 168.893 30.08C169.747 30.4 170.467 30.96 171.053 31.76C172.013 32.72 172.627 33.8667 172.893 35.2C173.16 36.5333 173.187 37.68 172.973 38.64C172.707 39.7067 172.173 40.5867 171.373 41.28C170.573 41.92 169.72 42.2667 168.813 42.32C167.907 42.32 167.107 41.9467 166.413 41.2C166.2 40.7733 166.093 40.4267 166.093 40.16C166.093 39.84 166.2 39.3867 166.413 38.8C166.627 38.0533 166.733 37.3867 166.733 36.8C166.733 36.2133 166.493 35.92 166.013 35.92C165.32 35.92 164.76 36.1333 164.333 36.56C163.907 36.9333 163.267 37.5733 162.413 38.48C162.04 38.9067 161.56 39.52 160.973 40.32C160.387 41.12 159.8 42 159.213 42.96C158.68 43.8667 158.2 44.8 157.773 45.76C157.187 47.52 156.813 48.6667 156.653 49.2C156.547 49.68 156.493 49.92 156.493 49.92C156.493 50.1333 156.467 50.3467 156.413 50.56C156.36 50.72 156.333 50.9067 156.333 51.12C156.333 51.76 156.707 52.2667 157.453 52.64C158.04 53.0133 158.52 53.2 158.893 53.2C159.32 53.1467 160.12 52.8533 161.293 52.32C162.147 51.8933 162.947 51.3333 163.693 50.64C164.493 49.9467 165.32 49.3333 166.173 48.8C166.76 48.4267 167.213 48.1067 167.533 47.84C167.907 47.5733 168.093 47.5467 168.093 47.76C168.093 47.9733 168.173 48.08 168.333 48.08C168.493 48.08 168.68 47.9733 168.893 47.76C169.213 47.3333 169.613 47.1733 170.093 47.28C170.573 47.3333 171 47.4667 171.373 47.68C171.8 47.8933 172.013 48.08 172.013 48.24C171.907 48.72 172.013 49.12 172.333 49.44C172.333 49.6533 172.253 49.9467 172.093 50.32C171.987 50.64 171.827 50.9067 171.613 51.12C171.347 51.4933 170.947 52.0267 170.413 52.72C169.933 53.4133 169.48 54.0267 169.053 54.56C168.627 55.0933 168.413 55.36 168.413 55.36C168.2 55.3067 167.987 55.36 167.773 55.52C167.613 55.68 167.427 55.8667 167.213 56.08C166.787 56.4533 166.387 56.7467 166.013 56.96C165.64 57.12 165.347 57.2 165.133 57.2C164.76 57.4133 164.467 57.5467 164.253 57.6C164.093 57.6533 164.013 57.7867 164.013 58C163.48 58.5333 162.52 58.9067 161.133 59.12C159.747 59.28 158.307 59.36 156.813 59.36ZM184.042 59.44C183.348 59.44 182.788 59.3067 182.362 59.04C181.988 58.7733 181.508 58.4 180.922 57.92C179.908 56.8533 179.082 55.7067 178.442 54.48C177.855 53.2533 177.642 52.1867 177.802 51.28C177.962 50.8533 178.015 50.4533 177.962 50.08C177.962 49.6533 177.962 49.44 177.962 49.44C177.695 49.1733 177.615 49.0133 177.722 48.96C177.828 48.8533 177.935 48.6933 178.042 48.48C178.362 48.48 178.468 48.1867 178.362 47.6C178.255 47.1733 178.415 46.2667 178.842 44.88C179.322 43.44 179.962 42.08 180.762 40.8C181.082 40.2667 181.562 39.5733 182.202 38.72C182.842 37.8133 183.535 36.9333 184.282 36.08C185.082 35.1733 185.802 34.4533 186.442 33.92C187.775 32.8 189.002 31.8933 190.122 31.2C191.295 30.5067 192.468 30.0267 193.642 29.76C194.815 29.4933 196.015 29.36 197.242 29.36C198.522 29.36 199.562 29.7867 200.362 30.64C201.588 31.1733 202.442 31.8933 202.922 32.8C203.455 33.7067 203.802 34.88 203.962 36.32C204.122 37.92 203.962 39.8933 203.482 42.24C203.002 44.5333 201.695 47.2 199.562 50.24C198.228 52.16 196.922 53.6533 195.642 54.72C194.362 55.7867 192.948 56.7733 191.402 57.68C190.282 58.4267 189.082 58.88 187.802 59.04C186.522 59.2 185.268 59.3333 184.042 59.44ZM192.202 49.68C193.375 48.6667 194.202 47.5467 194.682 46.32C195.215 45.0933 195.775 43.6533 196.362 42C196.575 41.68 196.708 41.1467 196.762 40.4C196.868 39.6533 196.895 38.9333 196.842 38.24C196.788 37.4933 196.602 37.0667 196.282 36.96C195.802 36.5867 195.322 36.5067 194.842 36.72C194.362 36.88 193.748 37.2267 193.002 37.76C191.402 39.0933 189.908 40.64 188.522 42.4C187.188 44.1067 186.255 46.2133 185.722 48.72C185.562 50.0533 185.695 51.0667 186.122 51.76C186.602 52.4 187.348 52.5867 188.362 52.32C189.428 52 190.708 51.12 192.202 49.68ZM227.026 60.48C226.653 60.6933 226.146 60.6133 225.506 60.24C224.919 59.8667 224.333 59.3067 223.746 58.56C223.373 57.92 223.079 57.28 222.866 56.64C222.706 55.9467 222.626 54.9333 222.626 53.6C222.679 52.5333 222.679 51.8133 222.626 51.44C222.626 51.0133 222.386 50.9867 221.906 51.36C221.479 51.68 220.599 52.48 219.266 53.76C217.933 55.0933 216.653 56.24 215.426 57.2C214.253 58.1067 213.293 58.5333 212.546 58.48C212.173 58.48 211.666 58.24 211.026 57.76C210.386 57.28 209.773 56.6933 209.186 56C208.599 55.2533 208.173 54.56 207.906 53.92C207.586 52.64 207.559 50.9867 207.826 48.96C208.146 46.9333 208.653 44.8267 209.346 42.64C210.039 40.4 210.813 38.32 211.666 36.4C212.573 34.4267 213.453 32.8533 214.306 31.68C215.213 30.4533 215.986 29.8667 216.626 29.92C217.533 30.0267 218.306 30.48 218.946 31.28C219.639 32.0267 220.173 32.8533 220.546 33.76C220.759 34.1333 220.839 34.4533 220.786 34.72C220.786 34.9867 220.573 35.3067 220.146 35.68C219.666 36.32 219.079 37.2533 218.386 38.48C217.746 39.6533 217.079 40.9333 216.386 42.32C215.746 43.7067 215.159 45.04 214.626 46.32C214.146 47.5467 213.799 48.56 213.586 49.36C213.373 50.16 213.373 50.56 213.586 50.56C214.333 50.56 215.026 50.3733 215.666 50C216.306 49.5733 217.106 48.9067 218.066 48C219.186 46.88 220.173 45.76 221.026 44.64C221.879 43.4667 222.759 42.1333 223.666 40.64C224.359 39.5733 225.079 38.4 225.826 37.12C226.626 35.84 227.133 34.9333 227.346 34.4C228.093 33.0133 228.653 31.9733 229.026 31.28C229.399 30.5867 229.853 30.16 230.386 30C230.653 30 231.026 30 231.506 30C231.986 30 232.226 30 232.226 30C232.546 30.0533 232.919 30.2933 233.346 30.72C233.773 30.9333 234.199 31.2267 234.626 31.6C235.106 31.9733 235.346 32.2933 235.346 32.56C235.133 33.0933 234.786 33.8933 234.306 34.96C233.879 35.9733 233.559 36.72 233.346 37.2C232.333 39.4933 231.346 41.76 230.386 44C229.479 46.1867 228.813 48.4267 228.386 50.72C228.279 51.4667 228.253 52.3467 228.306 53.36C228.413 54.32 228.573 55.0133 228.786 55.44C228.946 55.76 229.133 56.1333 229.346 56.56C229.613 56.9333 229.906 57.2533 230.226 57.52C230.706 57.84 230.679 58.24 230.146 58.72C229.666 59.2 229.053 59.6267 228.306 60C227.613 60.32 227.186 60.48 227.026 60.48ZM241.355 57.28C241.142 57.28 240.635 57.0933 239.835 56.72C239.035 56.2933 238.529 55.9733 238.315 55.76C237.942 55.3333 237.702 54.88 237.595 54.4C237.489 53.8667 237.435 52.8533 237.435 51.36C237.435 49.6533 237.782 47.7333 238.475 45.6C239.169 43.4133 240.342 40.5067 241.995 36.88L245.275 30.24C245.542 29.8667 245.782 29.5467 245.995 29.28C246.209 28.96 246.449 28.6667 246.715 28.4C246.822 28.4 246.955 28.4 247.115 28.4C247.329 28.4 247.489 28.4267 247.595 28.48C248.075 28.5333 248.822 28.8267 249.835 29.36C250.902 29.8933 251.542 30.6933 251.755 31.76C251.755 32.4533 251.649 33.28 251.435 34.24C251.222 35.1467 250.582 36.3467 249.515 37.84C249.089 38.3733 248.662 39.1467 248.235 40.16C247.862 41.1733 247.515 42.1333 247.195 43.04C247.142 43.1467 246.982 43.4133 246.715 43.84C246.502 44.2133 246.289 44.6133 246.075 45.04C245.862 45.4133 245.755 45.6533 245.755 45.76L245.435 46.48L248.875 43.12C251.275 40.72 253.302 39.0133 254.955 38C256.609 36.9867 257.995 36.56 259.115 36.72C260.289 36.88 261.222 37.5467 261.915 38.72C262.289 39.2533 262.555 39.84 262.715 40.48C262.875 41.0667 262.982 41.76 263.035 42.56C263.089 43.36 263.062 44.3733 262.955 45.6V50.16C263.969 49.8933 264.742 49.68 265.275 49.52C265.809 49.3067 266.342 49.12 266.875 48.96C267.302 48.8533 267.729 48.7467 268.155 48.64C268.635 48.5333 269.222 48.4533 269.915 48.4C269.862 49.0933 269.569 49.9467 269.035 50.96C268.502 51.9733 267.835 52.9867 267.035 54C266.289 55.0133 265.462 55.8667 264.555 56.56C263.702 57.2533 262.902 57.6 262.155 57.6C261.462 57.6 260.662 57.3867 259.755 56.96C258.849 56.48 258.075 55.5733 257.435 54.24C257.222 53.5467 257.009 52.7467 256.795 51.84C256.582 50.9333 256.475 49.9733 256.475 48.96V45.44C256.475 45.12 256.449 44.9067 256.395 44.8C256.395 44.64 256.369 44.56 256.315 44.56C256.102 44.56 255.409 45.12 254.235 46.24C253.115 47.36 251.969 48.5333 250.795 49.76C248.342 52.32 246.289 54.2133 244.635 55.44C243.035 56.6667 241.942 57.28 241.355 57.28ZM279.594 60.08C279.007 59.9733 278.367 59.6267 277.674 59.04C276.981 58.4 276.341 57.7067 275.754 56.96C275.221 56.16 274.874 55.4933 274.714 54.96C274.714 54.8533 274.634 54.72 274.474 54.56C274.367 54.4 274.314 54.32 274.314 54.32C274.101 54.16 273.967 53.4667 273.914 52.24C273.914 50.96 273.994 49.5467 274.154 48C274.314 46.4533 274.501 45.2267 274.714 44.32C274.981 43.4667 275.381 42.32 275.914 40.88C276.447 39.3867 276.901 38.0533 277.274 36.88L279.434 32.24L276.234 31.36C275.861 31.2533 275.541 31.04 275.274 30.72C275.061 30.4 274.954 30.1333 274.954 29.92C274.954 29.4933 275.194 28.88 275.674 28.08C276.154 27.28 276.501 26.88 276.714 26.88C276.981 26.9333 277.461 26.96 278.154 26.96C278.901 26.96 279.621 26.9333 280.314 26.88C281.007 26.8267 281.434 26.7733 281.594 26.72C281.807 26.6133 282.021 26.48 282.234 26.32C282.447 26.1067 282.607 25.8133 282.714 25.44C282.981 24.8533 283.221 24.4 283.434 24.08C283.647 23.76 283.941 23.28 284.314 22.64C284.687 21.9467 284.981 21.36 285.194 20.88C285.461 20.4 285.861 19.7333 286.394 18.88C286.661 18.5067 286.954 18.0533 287.274 17.52C287.594 16.9867 287.994 16.5333 288.474 16.16C288.954 15.7333 289.727 15.44 290.794 15.28C291.914 15.0667 292.874 15.3067 293.674 16C294.101 16.5333 294.341 17.04 294.394 17.52C294.447 18 294.234 18.6133 293.754 19.36C293.327 20.2667 292.821 21.0933 292.234 21.84C291.701 22.5333 291.194 23.3333 290.714 24.24C289.861 25.4133 289.701 26.08 290.234 26.24C290.767 26.4 292.261 26.2933 294.714 25.92C296.261 25.6533 297.381 25.8133 298.074 26.4C298.767 26.9867 299.167 27.7333 299.274 28.64C299.434 29.92 299.301 30.6933 298.874 30.96C298.447 31.2267 297.221 31.36 295.194 31.36C293.914 31.5733 292.821 31.7067 291.914 31.76C291.007 31.76 290.341 31.76 289.914 31.76C289.221 31.8133 288.767 31.84 288.554 31.84C288.341 31.84 288.021 31.8933 287.594 32C287.167 32.1067 286.847 32.2933 286.634 32.56C286.474 32.7733 286.287 33.0933 286.074 33.52C285.861 33.7333 285.541 34.2933 285.114 35.2C284.687 36.1067 284.154 37.0933 283.514 38.16C282.767 40.4 282.127 42.56 281.594 44.64C281.114 46.6667 280.687 48.6933 280.314 50.72C280.154 51.7333 280.181 52.48 280.394 52.96C280.661 53.3867 281.354 53.6533 282.474 53.76C283.061 53.8133 283.914 53.8133 285.034 53.76C286.154 53.6533 287.087 53.4933 287.834 53.28C288.421 53.0133 289.034 52.7467 289.674 52.48C290.314 52.16 290.901 51.84 291.434 51.52C291.914 51.2533 292.394 50.9867 292.874 50.72C293.354 50.4 293.594 50.24 293.594 50.24C293.861 49.8133 294.234 49.8933 294.714 50.48C295.247 51.0133 295.621 51.6 295.834 52.24C295.834 52.88 295.701 53.6533 295.434 54.56C295.167 55.4133 294.181 56.32 292.474 57.28C290.074 58.7733 287.674 59.68 285.274 60C282.874 60.32 280.981 60.3467 279.594 60.08ZM317.213 80.56C316.04 80.7733 315.24 80.8 314.813 80.64C314.387 80.48 313.8 80.2133 313.053 79.84C312.467 79.4133 312.04 79.0933 311.773 78.88C311.507 78.6667 311.32 78.4533 311.213 78.24C310.68 77.12 310.6 76.2933 310.973 75.76C311.347 75.2267 311.88 74.88 312.573 74.72C313.32 74.6133 313.96 74.56 314.493 74.56C314.867 74.7733 315.48 74.88 316.333 74.88C317.24 74.88 317.8 74.7733 318.013 74.56C318.013 74.56 318.253 74.4 318.733 74.08C319.267 73.8133 319.96 73.6 320.813 73.44C322.467 72.64 323.773 71.8133 324.733 70.96C325.693 70.16 326.76 68.7733 327.933 66.8C328.413 66.0533 328.92 65.1733 329.453 64.16C329.987 63.2 330.36 62.24 330.573 61.28C331 60.2133 331.48 58.7733 332.013 56.96C332.6 55.1467 333.107 53.36 333.533 51.6C333.96 49.7867 334.2 48.4267 334.253 47.52C334.573 44.5333 335.187 41.6533 336.093 38.88C337 36.0533 337.72 33.0667 338.253 29.92C338.573 29.1733 338.813 28.7467 338.973 28.64C339.133 28.48 339.48 28.4 340.013 28.4C340.6 28.4 341.293 28.5867 342.093 28.96C342.893 29.28 343.48 29.7333 343.853 30.32C344.387 31.3333 344.627 32.5333 344.573 33.92C344.573 35.2533 344.227 36.4267 343.533 37.44C343 38.1867 342.52 39.36 342.093 40.96C341.72 42.5067 341.347 44.4533 340.973 46.8C340.707 47.9733 340.413 49.36 340.093 50.96C339.827 52.5067 339.533 54.24 339.213 56.16C339 56.6933 338.707 57.52 338.333 58.64C337.96 59.7067 337.72 60.56 337.613 61.2C337.56 61.4133 337.4 61.84 337.133 62.48C336.867 63.12 336.6 63.7333 336.333 64.32C336.067 64.96 335.88 65.3867 335.773 65.6C333.213 70.7733 330.253 74.5067 326.893 76.8C323.587 79.0933 320.36 80.3467 317.213 80.56ZM323.933 57.92C323.347 57.92 322.733 57.6 322.093 56.96C321.507 56.32 321.107 55.8133 320.893 55.44C320.68 54.9067 320.28 54.4 319.693 53.92C319.107 53.44 318.6 52.8533 318.173 52.16C317.747 51.4667 317.64 50.6133 317.853 49.6C318.067 48.9067 318.387 47.8667 318.813 46.48C319.24 45.04 319.747 43.4667 320.333 41.76C320.92 40 321.507 38.2667 322.093 36.56C322.733 34.8533 323.32 33.3333 323.853 32C324.387 30.6667 324.84 29.7333 325.213 29.2C325.533 28.7733 326.04 28.4533 326.733 28.24C327.427 28.0267 328.12 27.9733 328.813 28.08C329.507 28.1867 330.013 28.5067 330.333 29.04C330.92 29.7867 331.24 30.5333 331.293 31.28C331.4 31.9733 331.027 33.0933 330.173 34.64C329.96 35.2267 329.693 35.8667 329.373 36.56C329.053 37.2 328.893 37.6267 328.893 37.84C328.84 37.9467 328.733 38.32 328.573 38.96C328.467 39.5467 328.333 40.1067 328.173 40.64C328.013 41.1733 327.853 41.44 327.693 41.44C327.48 41.6533 327.24 42.2133 326.973 43.12C326.76 44.0267 326.547 45.04 326.333 46.16C326.173 47.2267 326.067 48.1867 326.013 49.04C325.96 49.84 326.04 50.24 326.253 50.24C327.907 50.24 329.507 49.7333 331.053 48.72C332.6 47.6533 334.28 45.8933 336.093 43.44L336.813 50.96C336.067 51.3333 335.373 51.7333 334.733 52.16C334.093 52.5333 333.507 52.9867 332.973 53.52C332.813 53.7333 332.44 54.0267 331.853 54.4C331.267 54.7733 330.68 55.12 330.093 55.44C329.56 55.7067 329.213 55.84 329.053 55.84C329.053 55.84 328.973 55.8667 328.813 55.92C328.707 55.92 328.653 56.0267 328.653 56.24C328.653 56.3467 328.307 56.56 327.613 56.88C326.92 57.1467 326.2 57.3867 325.453 57.6C324.707 57.8133 324.2 57.92 323.933 57.92ZM354.879 60.72C354.186 60.7733 353.626 60.6933 353.199 60.48C352.772 60.32 352.239 60.0533 351.599 59.68C350.426 58.7733 349.439 57.6533 348.639 56.32C347.892 54.9867 347.546 53.8667 347.599 52.96C347.706 52.48 347.706 52.0533 347.599 51.68C347.546 51.3067 347.519 51.12 347.519 51.12C347.199 50.8533 347.092 50.6933 347.199 50.64C347.306 50.5333 347.386 50.3733 347.439 50.16C347.866 50.0533 347.919 49.76 347.599 49.28C347.439 48.8533 347.519 47.8933 347.839 46.4C348.212 44.8533 348.692 43.4133 349.279 42.08C349.546 41.4933 349.919 40.72 350.399 39.76C350.932 38.8 351.519 37.84 352.159 36.88C352.799 35.8667 353.386 35.0667 353.919 34.48C355.092 33.1467 356.132 32.0533 357.039 31.2C357.999 30.3467 359.066 29.7067 360.239 29.28C361.306 28.8533 362.372 28.6667 363.439 28.72C364.559 28.7733 365.546 29.1467 366.399 29.84C367.679 30.2133 368.826 30.8 369.839 31.6C370.852 32.3467 371.546 33.4133 371.919 34.8C372.346 36.3467 372.479 38.1867 372.319 40.32C372.212 42.4 371.306 45.0933 369.599 48.4C368.586 50.48 367.572 52.16 366.559 53.44C365.599 54.72 364.426 55.9467 363.039 57.12C362.026 57.9733 360.719 58.72 359.119 59.36C357.519 60 356.106 60.4533 354.879 60.72ZM361.839 48.64C362.532 47.68 363.066 46.7467 363.439 45.84C363.866 44.9333 364.266 43.68 364.639 42.08C364.799 41.4933 364.879 40.7733 364.879 39.92C364.932 39.0667 364.906 38.2933 364.799 37.6C364.746 36.8533 364.559 36.4533 364.239 36.4C363.546 36.1333 362.826 36.1333 362.079 36.4C361.386 36.6133 360.559 37.2533 359.599 38.32C358.746 39.28 358.052 40.1867 357.519 41.04C357.039 41.84 356.586 42.8267 356.159 44C355.786 45.12 355.359 46.5867 354.879 48.4C354.452 50.16 354.426 51.5733 354.799 52.64C355.226 53.7067 356.026 54 357.199 53.52C358.372 53.04 359.919 51.4133 361.839 48.64ZM394.903 59.84C394.37 59.3067 393.943 58.5867 393.623 57.68C393.303 56.72 392.983 55.6267 392.663 54.4C392.557 53.9733 392.503 53.4933 392.503 52.96C392.557 52.4267 392.557 52 392.503 51.68C392.343 52.0533 392.077 52.5333 391.703 53.12C391.383 53.7067 391.063 54.1333 390.743 54.4C390.53 54.6133 390.05 55.04 389.303 55.68C388.557 56.2667 387.81 56.7467 387.063 57.12C385.303 58.24 383.73 58.7733 382.343 58.72C381.01 58.6133 379.837 57.92 378.823 56.64C377.97 55.9467 377.277 55.0667 376.743 54C376.21 52.9333 376.103 51.6533 376.423 50.16C376.53 48.2933 376.797 46.48 377.223 44.72C377.65 42.9067 378.53 40.5067 379.863 37.52C380.983 35.3333 381.837 33.6267 382.423 32.4C383.01 31.1733 383.383 30.4533 383.543 30.24C384.343 29.9733 385.33 30 386.503 30.32C387.677 30.5867 388.317 31.0933 388.423 31.84C388.743 32.3733 388.743 33.3867 388.423 34.88C388.103 36.32 387.463 37.9733 386.503 39.84C385.757 41.6533 385.037 43.4133 384.343 45.12C383.703 46.8267 383.303 48.2667 383.143 49.44C383.037 50.6133 383.357 51.3333 384.103 51.6C384.583 51.8667 385.277 51.84 386.183 51.52C387.143 51.2 388.263 50.24 389.543 48.64C390.823 47.04 392.183 44.5067 393.623 41.04C394.05 39.9733 394.37 39.04 394.583 38.24C394.797 37.3867 394.93 36.4533 394.983 35.44C394.877 34.8 395.037 34.1333 395.463 33.44C395.943 32.7467 396.503 32.2133 397.143 31.84C397.357 31.5733 397.65 31.3333 398.023 31.12C398.397 30.8533 398.637 30.8533 398.743 31.12L400.023 31.04C400.237 30.9867 400.477 31.2 400.743 31.68C401.01 32.16 401.277 32.5067 401.543 32.72C402.13 33.2 402.397 34.24 402.343 35.84C402.29 37.44 401.65 39.68 400.423 42.56C399.41 44.7467 398.717 46.4 398.343 47.52C398.023 48.64 397.837 49.7333 397.783 50.8C397.783 51.76 397.863 52.5867 398.023 53.28C398.183 53.92 398.663 54.5867 399.463 55.28C400.05 55.6533 400.37 56.2933 400.423 57.2C400.53 58.0533 400.557 58.8 400.503 59.44C400.397 59.92 399.97 60.24 399.223 60.4C398.53 60.6133 397.757 60.6667 396.903 60.56C396.103 60.4533 395.437 60.2133 394.903 59.84ZM408.033 58.8C407.659 58.8 407.153 58.5333 406.513 58C405.926 57.4667 405.579 56.9867 405.473 56.56C405.313 56.1333 405.313 55.52 405.473 54.72C405.686 53.8667 405.979 52.88 406.353 51.76C406.779 50 407.073 48.72 407.233 47.92C407.393 47.12 407.553 46.4267 407.713 45.84C407.873 45.2533 408.086 44.4 408.353 43.28C408.673 42.5867 408.913 41.92 409.073 41.28C409.286 40.5867 409.499 39.8933 409.713 39.2C409.979 38.5067 410.273 37.8133 410.593 37.12C410.966 35.7333 411.419 34.4267 411.953 33.2C412.539 31.92 413.099 30.8533 413.633 30C413.739 29.84 413.979 29.5467 414.353 29.12C414.726 28.6933 415.019 28.48 415.233 28.48C415.659 28.0533 416.246 27.92 416.993 28.08C417.739 28.1867 418.379 28.4533 418.913 28.88C419.553 29.5733 419.899 30.4 419.953 31.36C420.059 32.2667 419.686 33.5467 418.833 35.2C418.193 36.8533 417.579 38.16 416.993 39.12C416.459 40.0267 415.926 41.0933 415.393 42.32C415.979 41.4667 416.699 40.5867 417.553 39.68C418.406 38.7733 419.073 38.0533 419.553 37.52C420.246 36.7733 420.886 36.1867 421.473 35.76C422.113 35.28 422.966 34.6933 424.033 34C424.939 33.36 425.846 32.7733 426.753 32.24C427.713 31.7067 428.859 31.5467 430.193 31.76C430.726 31.7067 431.286 31.9733 431.873 32.56C432.513 33.1467 432.993 33.92 433.313 34.88C433.686 35.7867 433.686 36.7733 433.313 37.84C432.086 37.5733 430.993 37.6267 430.033 38C429.073 38.32 428.246 38.72 427.553 39.2C426.913 39.68 426.406 40.0533 426.033 40.32C425.499 40.64 424.886 41.0667 424.193 41.6C423.499 42.08 422.753 42.64 421.953 43.28C421.153 43.8667 420.299 44.5333 419.393 45.28C418.113 46.3467 417.153 47.28 416.513 48.08C415.873 48.88 415.366 49.7333 414.993 50.64C414.673 51.44 414.273 52.4 413.793 53.52C413.313 54.64 412.859 55.6533 412.433 56.56C412.006 57.4133 411.659 57.9467 411.393 58.16C411.126 58.6933 410.566 58.9867 409.713 59.04C408.913 59.0933 408.353 59.0133 408.033 58.8ZM463.516 60.32C461.969 60.5867 460.423 60.4533 458.876 59.92C457.383 59.3867 456.129 58.5333 455.116 57.36C454.156 56.1333 453.676 54.6667 453.676 52.96C453.516 51.36 453.649 49.4667 454.076 47.28C454.556 45.04 455.249 42.8 456.156 40.56C457.116 38.32 458.209 36.4267 459.436 34.88C460.503 33.6 461.569 32.4267 462.636 31.36C463.703 30.2933 464.663 29.5733 465.516 29.2C466.263 28.88 467.169 28.64 468.236 28.48C469.356 28.2667 470.129 28.16 470.556 28.16C471.409 28.3733 472.343 28.72 473.356 29.2C474.423 29.68 474.956 30.24 474.956 30.88C474.956 30.88 475.009 30.96 475.116 31.12C475.276 31.2267 475.356 31.28 475.356 31.28C475.676 31.28 476.023 31.68 476.396 32.48C476.823 33.2267 477.143 34.1067 477.356 35.12C477.569 36.08 477.516 36.8533 477.196 37.44C476.983 38.4533 476.556 39.44 475.916 40.4C475.329 41.36 474.823 41.84 474.396 41.84C474.183 41.84 473.969 41.8667 473.756 41.92C473.596 41.92 473.516 42.0533 473.516 42.32C473.516 42.5867 473.223 42.72 472.636 42.72C472.103 42.72 471.543 42.6133 470.956 42.4C470.369 42.1867 469.996 41.8667 469.836 41.44C469.836 41.1733 469.889 40.8267 469.996 40.4C470.103 39.9733 470.263 39.2533 470.476 38.24C470.796 36.7467 470.823 35.76 470.556 35.28C470.289 34.7467 469.623 34.6933 468.556 35.12C467.223 35.8667 466.129 36.7467 465.276 37.76C464.423 38.72 463.649 40.08 462.956 41.84C462.316 43.6 461.596 46.0533 460.796 49.2C460.476 50.4267 460.423 51.3867 460.636 52.08C460.903 52.7733 461.116 53.1467 461.276 53.2C462.023 53.4133 462.823 53.4667 463.676 53.36C464.583 53.2 465.329 52.96 465.916 52.64C466.769 52.2133 467.516 51.76 468.156 51.28C468.849 50.7467 469.596 50.1867 470.396 49.6C470.663 49.44 470.903 49.1467 471.116 48.72C471.329 48.24 471.649 47.8933 472.076 47.68C472.503 47.04 473.036 46.72 473.676 46.72C474.369 46.6667 475.036 46.64 475.676 46.64C476.103 46.7467 476.556 47.0133 477.036 47.44C477.516 47.8667 477.863 48.2933 478.076 48.72C478.343 49.0933 478.316 49.36 477.996 49.52C477.783 49.52 477.649 49.6 477.596 49.76C477.596 49.8667 477.596 49.92 477.596 49.92C477.703 50.1333 477.463 50.6133 476.876 51.36C476.343 52.1067 475.649 52.9067 474.796 53.76C473.943 54.6133 473.116 55.36 472.316 56C471.569 56.5867 471.036 56.88 470.716 56.88C470.183 56.88 469.916 57.04 469.916 57.36C469.916 57.4667 469.516 57.7333 468.716 58.16C467.969 58.5867 467.089 59.0133 466.076 59.44C465.116 59.8667 464.263 60.16 463.516 60.32ZM490.097 58.88C489.67 58.9867 489.11 59.04 488.417 59.04C487.723 58.9867 487.11 58.9067 486.577 58.8C486.097 58.64 485.857 58.48 485.857 58.32C485.857 58.0533 485.723 57.92 485.457 57.92C485.457 57.92 485.163 57.7067 484.577 57.28C483.99 56.8 483.457 56.4533 482.977 56.24C482.497 55.4933 482.177 54.64 482.017 53.68C481.91 52.6667 482.23 50.9067 482.977 48.4C483.03 46.6933 483.51 44.9067 484.417 43.04C485.323 41.12 486.47 39.2533 487.857 37.44C489.243 35.6267 490.683 34.0267 492.177 32.64C493.67 31.2 495.003 30.1333 496.177 29.44C496.923 28.6933 497.91 28.2933 499.137 28.24C500.417 28.1867 501.537 28.4267 502.497 28.96C503.03 29.2267 503.617 29.76 504.257 30.56C504.897 31.36 505.51 32.2133 506.097 33.12C506.683 33.9733 507.137 34.7467 507.457 35.44C507.617 36.0267 507.75 36.56 507.857 37.04C508.017 37.4667 508.123 38 508.177 38.64C508.23 39.28 508.177 40.24 508.017 41.52C507.75 42.48 507.51 43.4667 507.297 44.48C507.137 45.44 507.057 46.4267 507.057 47.44C506.95 48.4533 507.057 49.1733 507.377 49.6C507.75 50.0267 508.283 50.0533 508.977 49.68C509.617 49.36 510.283 49.3333 510.977 49.6C511.67 49.8133 512.15 50.24 512.417 50.88C512.737 51.4667 512.657 52.24 512.177 53.2C511.857 53.8933 511.35 54.56 510.657 55.2C509.963 55.84 509.19 56.3733 508.337 56.8C507.483 57.1733 506.657 57.36 505.857 57.36C505.27 57.36 504.683 57.1467 504.097 56.72C503.51 56.24 502.977 55.6 502.497 54.8C502.017 54 501.617 53.12 501.297 52.16L500.817 50.32L497.937 52.96C497.243 53.7067 496.55 54.4 495.857 55.04C495.217 55.6267 494.817 56.0533 494.657 56.32C494.39 56.8 493.857 57.2267 493.057 57.6C492.31 57.9733 491.323 58.4 490.097 58.88ZM492.257 51.2C493.163 50.6667 493.937 50.0267 494.577 49.28C495.27 48.5333 495.937 47.7067 496.577 46.8C497.217 45.84 497.91 44.8267 498.657 43.76C499.563 42.5333 500.203 41.5467 500.577 40.8C501.003 40.0533 501.323 39.2533 501.537 38.4C501.323 37.8133 501.03 37.2 500.657 36.56C500.283 35.8667 499.91 35.4933 499.537 35.44C498.79 35.44 497.883 35.8933 496.817 36.8C495.803 37.7067 494.683 39.0133 493.457 40.72C493.243 40.9867 492.977 41.4133 492.657 42C492.337 42.5867 492.017 43.1467 491.697 43.68C491.43 44.16 491.243 44.48 491.137 44.64C490.977 44.8533 490.737 45.36 490.417 46.16C490.15 46.9067 489.91 47.68 489.697 48.48C489.483 49.2267 489.377 49.76 489.377 50.08C489.377 50.4 489.403 50.7467 489.457 51.12C489.563 51.4933 489.83 51.7333 490.257 51.84C490.683 51.9467 491.35 51.7333 492.257 51.2ZM517.869 58.08C517.336 57.76 516.749 57.3067 516.109 56.72C515.469 56.08 515.149 55.4667 515.149 54.88C515.149 54.08 515.256 53.0933 515.469 51.92C515.682 50.6933 515.896 49.6533 516.109 48.8C516.216 47.84 516.349 46.88 516.509 45.92C516.722 44.9067 517.096 43.9733 517.629 43.12C518.216 41.0933 518.829 39.0933 519.469 37.12C520.109 35.0933 520.669 33.0133 521.149 30.88C521.842 28.9067 522.456 27.1733 522.989 25.68C523.576 24.1333 524.296 22.1867 525.149 19.84C525.629 18.5067 526.029 17.0933 526.349 15.6C526.722 14.0533 527.282 12.6667 528.029 11.44C528.349 10.96 528.589 10.56 528.749 10.24C528.962 9.86667 529.176 9.52 529.389 9.2C529.442 8.98666 529.709 8.8 530.189 8.64C530.722 8.48 531.256 8.4 531.789 8.4C532.376 8.34666 532.776 8.45333 532.989 8.72C533.149 8.66666 533.416 8.88 533.789 9.36C534.162 9.78667 534.509 10.2933 534.829 10.88C535.202 11.4133 535.362 11.84 535.309 12.16C535.309 12.3733 535.256 12.6667 535.149 13.04C535.096 13.4133 534.962 13.76 534.749 14.08C534.536 14.2933 534.322 14.6133 534.109 15.04C533.949 15.4133 533.682 15.9467 533.309 16.64C533.096 17.3333 532.909 18.0533 532.749 18.8C532.589 19.4933 532.376 20.1333 532.109 20.72C531.896 21.36 531.629 21.9733 531.309 22.56C531.042 23.1467 530.856 23.6267 530.749 24C530.376 25.2267 529.922 26.4267 529.389 27.6C528.909 28.7733 528.482 30.0267 528.109 31.36C527.736 32.64 527.362 33.9733 526.989 35.36C526.616 36.6933 526.082 37.9733 525.389 39.2C525.016 39.7867 524.749 40.5333 524.589 41.44C524.429 42.3467 524.269 43.2533 524.109 44.16C523.789 45.12 523.496 46.0267 523.229 46.88C523.016 47.68 522.909 48.1867 522.909 48.4C522.589 49.5733 522.349 50.7467 522.189 51.92C522.082 53.04 521.816 54.0267 521.389 54.88C521.336 55.4133 521.149 56 520.829 56.64C520.509 57.28 520.082 57.76 519.549 58.08C519.069 58.4 518.509 58.4 517.869 58.08ZM537.848 60.72C537.154 60.7733 536.594 60.6933 536.168 60.48C535.741 60.32 535.208 60.0533 534.568 59.68C533.394 58.7733 532.408 57.6533 531.608 56.32C530.861 54.9867 530.514 53.8667 530.568 52.96C530.674 52.48 530.674 52.0533 530.568 51.68C530.514 51.3067 530.488 51.12 530.488 51.12C530.168 50.8533 530.061 50.6933 530.168 50.64C530.274 50.5333 530.354 50.3733 530.408 50.16C530.834 50.0533 530.888 49.76 530.568 49.28C530.408 48.8533 530.488 47.8933 530.808 46.4C531.181 44.8533 531.661 43.4133 532.248 42.08C532.514 41.4933 532.888 40.72 533.368 39.76C533.901 38.8 534.488 37.84 535.128 36.88C535.768 35.8667 536.354 35.0667 536.888 34.48C538.061 33.1467 539.101 32.0533 540.008 31.2C540.968 30.3467 542.034 29.7067 543.208 29.28C544.274 28.8533 545.341 28.6667 546.408 28.72C547.528 28.7733 548.514 29.1467 549.368 29.84C550.648 30.2133 551.794 30.8 552.808 31.6C553.821 32.3467 554.514 33.4133 554.888 34.8C555.314 36.3467 555.448 38.1867 555.288 40.32C555.181 42.4 554.274 45.0933 552.568 48.4C551.554 50.48 550.541 52.16 549.528 53.44C548.568 54.72 547.394 55.9467 546.008 57.12C544.994 57.9733 543.688 58.72 542.088 59.36C540.488 60 539.074 60.4533 537.848 60.72ZM544.808 48.64C545.501 47.68 546.034 46.7467 546.408 45.84C546.834 44.9333 547.234 43.68 547.608 42.08C547.768 41.4933 547.848 40.7733 547.848 39.92C547.901 39.0667 547.874 38.2933 547.768 37.6C547.714 36.8533 547.528 36.4533 547.208 36.4C546.514 36.1333 545.794 36.1333 545.048 36.4C544.354 36.6133 543.528 37.2533 542.568 38.32C541.714 39.28 541.021 40.1867 540.488 41.04C540.008 41.84 539.554 42.8267 539.128 44C538.754 45.12 538.328 46.5867 537.848 48.4C537.421 50.16 537.394 51.5733 537.768 52.64C538.194 53.7067 538.994 54 540.168 53.52C541.341 53.04 542.888 51.4133 544.808 48.64ZM561.392 58.8C561.019 58.8 560.512 58.5333 559.872 58C559.286 57.4667 558.939 56.9867 558.832 56.56C558.672 56.1333 558.672 55.52 558.832 54.72C559.046 53.8667 559.339 52.88 559.712 51.76C560.139 50 560.432 48.72 560.592 47.92C560.752 47.12 560.912 46.4267 561.072 45.84C561.232 45.2533 561.446 44.4 561.712 43.28C562.032 42.5867 562.272 41.92 562.432 41.28C562.646 40.5867 562.859 39.8933 563.072 39.2C563.339 38.5067 563.632 37.8133 563.952 37.12C564.326 35.7333 564.779 34.4267 565.312 33.2C565.899 31.92 566.459 30.8533 566.992 30C567.099 29.84 567.339 29.5467 567.712 29.12C568.086 28.6933 568.379 28.48 568.592 28.48C569.019 28.0533 569.606 27.92 570.352 28.08C571.099 28.1867 571.739 28.4533 572.272 28.88C572.912 29.5733 573.259 30.4 573.312 31.36C573.419 32.2667 573.046 33.5467 572.192 35.2C571.552 36.8533 570.939 38.16 570.352 39.12C569.819 40.0267 569.286 41.0933 568.752 42.32C569.339 41.4667 570.059 40.5867 570.912 39.68C571.766 38.7733 572.432 38.0533 572.912 37.52C573.606 36.7733 574.246 36.1867 574.832 35.76C575.472 35.28 576.326 34.6933 577.392 34C578.299 33.36 579.206 32.7733 580.112 32.24C581.072 31.7067 582.219 31.5467 583.552 31.76C584.086 31.7067 584.646 31.9733 585.232 32.56C585.872 33.1467 586.352 33.92 586.672 34.88C587.046 35.7867 587.046 36.7733 586.672 37.84C585.446 37.5733 584.352 37.6267 583.392 38C582.432 38.32 581.606 38.72 580.912 39.2C580.272 39.68 579.766 40.0533 579.392 40.32C578.859 40.64 578.246 41.0667 577.552 41.6C576.859 42.08 576.112 42.64 575.312 43.28C574.512 43.8667 573.659 44.5333 572.752 45.28C571.472 46.3467 570.512 47.28 569.872 48.08C569.232 48.88 568.726 49.7333 568.352 50.64C568.032 51.44 567.632 52.4 567.152 53.52C566.672 54.64 566.219 55.6533 565.792 56.56C565.366 57.4133 565.019 57.9467 564.752 58.16C564.486 58.6933 563.926 58.9867 563.072 59.04C562.272 59.0933 561.712 59.0133 561.392 58.8ZM588.06 58.64C587.634 58.2133 587.314 57.5733 587.1 56.72C586.94 55.8667 586.887 55.04 586.94 54.24C586.994 53.3867 587.127 52.7467 587.34 52.32C587.34 51.8933 587.394 51.5733 587.5 51.36C587.66 51.0933 587.714 50.8533 587.66 50.64C587.607 50.4267 587.66 50.0533 587.82 49.52C587.98 48.9867 588.14 48.48 588.3 48C588.674 47.1467 589.1 46.0533 589.58 44.72C590.06 43.3333 590.54 41.9467 591.02 40.56C591.5 39.12 591.9 37.8933 592.22 36.88C592.54 35.8133 592.727 35.1733 592.78 34.96C592.78 34.32 593.207 33.9733 594.06 33.92C594.7 33.7067 595.474 33.9733 596.38 34.72C597.287 35.4667 598.007 36.2667 598.54 37.12C598.967 37.5467 599.127 38.1067 599.02 38.8C598.914 39.4933 598.567 40.48 597.98 41.76C597.767 42.1867 597.5 42.9067 597.18 43.92C596.914 44.88 596.727 45.68 596.62 46.32C596.407 46.7467 596.14 47.36 595.82 48.16C595.554 48.9067 595.314 49.6267 595.1 50.32C594.994 50.5867 594.887 51.0933 594.78 51.84C594.674 52.5333 594.54 53.2533 594.38 54C594.22 54.7467 594.007 55.3333 593.74 55.76C593.26 57.9467 592.407 59.2267 591.18 59.6C590.007 59.9733 588.967 59.6533 588.06 58.64ZM596.7 26.56C596.114 26.1333 595.66 25.6267 595.34 25.04C595.074 24.4 594.914 23.84 594.86 23.36C594.86 22.88 594.914 22.5867 595.02 22.48C595.554 21.8933 596.007 21.12 596.38 20.16C596.807 19.2 597.26 18.32 597.74 17.52C597.847 17.36 597.98 17.1467 598.14 16.88C598.354 16.56 598.567 16.3733 598.78 16.32C599.42 15.8933 600.3 15.92 601.42 16.4C602.594 16.88 603.447 17.5467 603.98 18.4C604.46 19.4133 604.594 20.4533 604.38 21.52C604.22 22.5867 603.66 23.7067 602.7 24.88C601.9 25.9467 600.887 26.64 599.66 26.96C598.434 27.2267 597.447 27.0933 596.7 26.56ZM611.603 61.44C608.67 61.44 606.403 60.5867 604.803 58.88C603.257 57.1733 602.483 54.56 602.483 51.04C602.483 49.12 602.83 47.0133 603.523 44.72C604.27 42.4267 605.23 40.1867 606.403 38C607.63 35.8133 608.963 33.92 610.403 32.32C611.843 30.6667 613.283 29.52 614.723 28.88C615.257 28.6133 615.817 28.4267 616.403 28.32C617.043 28.16 617.657 28.08 618.243 28.08C618.883 28.08 619.577 28.1333 620.323 28.24C621.123 28.2933 621.87 28.4533 622.563 28.72C623.79 29.0933 624.857 29.8133 625.763 30.88C626.723 31.9467 627.203 33.4933 627.203 35.52C627.203 36.0533 627.15 36.64 627.043 37.28C626.937 37.8667 626.75 38.4533 626.483 39.04C625.79 40.8 624.723 42.48 623.283 44.08C621.897 45.68 620.43 46.8 618.883 47.44C618.457 47.6533 618.03 47.8133 617.603 47.92C617.23 47.9733 616.83 48 616.403 48C615.283 48 614.27 47.84 613.363 47.52C612.51 47.2 611.71 46.7733 610.963 46.24L610.323 45.68L609.923 46.48C609.55 47.4933 609.283 48.3467 609.123 49.04C609.017 49.7333 608.963 50.24 608.963 50.56C608.963 51.2 608.99 51.8667 609.043 52.56C609.097 53.2 609.257 53.7333 609.523 54.16C609.737 54.4267 610.003 54.64 610.323 54.8C610.697 54.96 611.15 55.04 611.683 55.04C612.003 55.04 612.297 55.04 612.563 55.04C612.883 54.9867 613.15 54.9333 613.363 54.88C614.323 54.6667 615.097 54.32 615.683 53.84C616.323 53.3067 616.99 52.8533 617.683 52.48L618.003 52.32L617.923 52.08C618.83 51.6 619.443 51.3067 619.763 51.2C620.083 51.04 620.323 50.9067 620.483 50.8C620.697 50.5867 620.937 50.48 621.203 50.48C621.95 50.3733 622.67 50.5867 623.363 51.12C624.11 51.6 624.483 52.2133 624.483 52.96C624.483 53.28 624.243 53.7867 623.763 54.48C623.337 55.1733 622.777 55.8667 622.083 56.56C621.443 57.2 620.777 57.7067 620.083 58.08C619.923 58.1333 619.763 58.2133 619.603 58.32C619.443 58.3733 619.283 58.4533 619.123 58.56H619.203C618.723 59.2 618.243 59.52 617.763 59.52H617.123C616.91 59.8933 616.217 60.2933 615.043 60.72C613.87 61.2 612.723 61.44 611.603 61.44ZM615.763 42.16C616.243 42.16 616.67 42.08 617.043 41.92C617.47 41.76 617.87 41.5733 618.243 41.36C619.523 40.4533 620.35 39.28 620.723 37.84C621.097 36.4 620.963 35.3067 620.323 34.56C620.217 34.4 620.083 34.2933 619.923 34.24C619.763 34.1333 619.577 34.08 619.363 34.08C618.777 34.08 618.11 34.2667 617.363 34.64C616.67 35.0133 615.977 35.5467 615.283 36.24C614.59 36.9333 613.95 37.76 613.363 38.72L612.323 40.4C612.43 40.3467 612.51 40.32 612.563 40.32C612.67 40.2667 612.75 40.24 612.803 40.24C613.283 40.24 613.603 40.4 613.763 40.72C613.923 41.04 614.11 41.36 614.323 41.68C614.59 42 615.07 42.16 615.763 42.16ZM634.482 60.48C632.669 59.7333 631.336 58.96 630.482 58.16C629.682 57.3067 629.362 56.56 629.522 55.92C629.629 55.6 629.816 55.3067 630.082 55.04C630.349 54.7733 630.936 54.6667 631.842 54.72C632.802 54.72 634.269 54.96 636.242 55.44C636.829 55.44 637.416 55.4133 638.002 55.36C638.589 55.3067 639.122 55.2267 639.602 55.12C640.136 55.0133 640.562 54.88 640.882 54.72C641.149 54.6133 641.229 54.48 641.122 54.32C641.016 54.1067 640.829 53.8933 640.562 53.68C640.349 53.4133 640.109 53.2533 639.842 53.2C639.576 53.0933 639.336 53.04 639.122 53.04C639.016 52.7733 638.776 52.5067 638.402 52.24C638.082 51.9733 637.682 51.68 637.202 51.36C636.029 50.4 634.962 49.5467 634.002 48.8C633.042 48.0533 632.669 47.4933 632.882 47.12C632.882 46.9067 632.882 46.8 632.882 46.8C632.882 46.7467 632.882 46.72 632.882 46.72C632.509 46.72 632.162 46.2133 631.842 45.2C631.522 44.1333 631.362 43.1733 631.362 42.32C631.362 41.2533 631.576 40.1867 632.002 39.12C632.482 38.0533 633.069 37.04 633.762 36.08C634.509 35.12 635.256 34.2667 636.002 33.52C637.016 32.56 638.082 31.6267 639.202 30.72C640.376 29.76 641.629 28.9067 642.962 28.16C644.349 27.4133 645.869 26.8267 647.522 26.4C648.269 26.24 649.122 26.16 650.082 26.16C651.042 26.16 651.736 26.2933 652.162 26.56C652.589 26.2933 653.122 26.3733 653.762 26.8C654.402 27.1733 655.042 27.7067 655.682 28.4C656.322 29.0933 656.802 29.7867 657.122 30.48C657.122 31.12 657.096 31.92 657.042 32.88C657.042 33.7867 656.989 34.5867 656.882 35.28C656.776 35.9733 656.536 36.32 656.162 36.32C656.162 36.32 656.082 36.3467 655.922 36.4C655.816 36.4 655.762 36.5333 655.762 36.8C655.762 37.3333 655.362 37.9467 654.562 38.64C653.549 39.3333 652.589 39.8933 651.682 40.32C650.776 40.7467 650.082 40.7733 649.602 40.4C649.282 40.1867 648.989 39.9733 648.722 39.76C648.456 39.5467 648.216 39.28 648.002 38.96C648.002 38.96 647.922 38.8533 647.762 38.64C647.656 38.3733 647.602 38.1333 647.602 37.92C647.602 37.7067 647.682 37.52 647.842 37.36C648.002 37.1467 648.082 37.04 648.082 37.04C648.829 36.3467 649.389 35.7067 649.762 35.12C650.189 34.5333 650.482 34.0267 650.642 33.6C650.802 33.12 650.882 32.7467 650.882 32.48C650.882 32.16 650.802 31.9733 650.642 31.92C650.536 31.8133 650.269 31.76 649.842 31.76C649.576 31.76 648.989 31.9733 648.082 32.4C647.229 32.8267 646.322 33.36 645.362 34C644.402 34.5867 643.656 35.12 643.122 35.6C642.909 35.9733 642.749 36.2133 642.642 36.32C642.589 36.4267 642.456 36.48 642.242 36.48C642.242 36.2667 642.109 36.2933 641.842 36.56C641.576 36.8267 641.256 37.2 640.882 37.68C640.509 38.16 640.136 38.6667 639.762 39.2C639.389 39.7333 639.096 40.16 638.882 40.48C638.829 40.96 638.696 41.4133 638.482 41.84C638.322 42.2133 638.269 42.6133 638.322 43.04C638.376 43.5733 638.642 44.08 639.122 44.56C639.602 45.04 640.296 45.6533 641.202 46.4C643.069 47.7867 644.456 48.88 645.362 49.68C646.322 50.48 646.989 51.12 647.362 51.6C647.736 52.08 647.976 52.56 648.082 53.04C648.989 54.6933 649.096 56.1333 648.402 57.36C647.709 58.5333 646.642 59.44 645.202 60.08C644.669 60.3467 643.736 60.5867 642.402 60.8C641.069 61.0667 639.656 61.1733 638.162 61.12C636.722 61.12 635.496 60.9067 634.482 60.48Z" fill="#1C6125"/>
</g>
<defs>
<filter id="filter0_d_355_726" x="0.90918" y="0.919983" width="660.213" height="84.96" filterUnits="userSpaceOnUse" color-interpolation-filters="sRGB">
<feFlood flood-opacity="0" result="BackgroundImageFix"/>
<feColorMatrix in="SourceAlpha" type="matrix" values="0 0 0 0 0 0 0 0 0 0 0 0 0 0 0 0 0 0 127 0" result="hardAlpha"/>
<feOffset dy="1"/>
<feGaussianBlur stdDeviation="2"/>
<feComposite in2="hardAlpha" operator="out"/>
<feColorMatrix type="matrix" values="0 0 0 0 0 0 0 0 0 0 0 0 0 0 0 0 0 0 0.25 0"/>
<feBlend mode="normal" in2="BackgroundImageFix" result="effect1_dropShadow_355_726"/>
<feBlend mode="normal" in="SourceGraphic" in2="effect1_dropShadow_355_726" result="shape"/>
</filter>
</defs>
</svg>
