<svg width="594" height="106" viewBox="0 0 594 106" fill="none" xmlns="http://www.w3.org/2000/svg">
<path d="M11.3 2.06L6.76 10.74V16H4.94V10.74L0.38 2.06H2.4L5.84 9.12L9.28 2.06H11.3ZM18.7997 16.18C17.773 16.18 16.8397 15.9467 15.9997 15.48C15.173 15.0133 14.5197 14.3533 14.0397 13.5C13.573 12.6333 13.3397 11.6333 13.3397 10.5C13.3397 9.38 13.5797 8.39333 14.0597 7.54C14.553 6.67333 15.2197 6.01333 16.0597 5.56C16.8997 5.09333 17.8397 4.86 18.8797 4.86C19.9197 4.86 20.8597 5.09333 21.6997 5.56C22.5397 6.01333 23.1997 6.66667 23.6797 7.52C24.173 8.37333 24.4197 9.36667 24.4197 10.5C24.4197 11.6333 24.1664 12.6333 23.6597 13.5C23.1664 14.3533 22.493 15.0133 21.6397 15.48C20.7864 15.9467 19.8397 16.18 18.7997 16.18ZM18.7997 14.58C19.453 14.58 20.0664 14.4267 20.6397 14.12C21.213 13.8133 21.673 13.3533 22.0197 12.74C22.3797 12.1267 22.5597 11.38 22.5597 10.5C22.5597 9.62 22.3864 8.87333 22.0397 8.26C21.693 7.64667 21.2397 7.19333 20.6797 6.9C20.1197 6.59333 19.513 6.44 18.8597 6.44C18.193 6.44 17.5797 6.59333 17.0197 6.9C16.473 7.19333 16.033 7.64667 15.6997 8.26C15.3664 8.87333 15.1997 9.62 15.1997 10.5C15.1997 11.3933 15.3597 12.1467 15.6797 12.76C16.013 13.3733 16.453 13.8333 16.9997 14.14C17.5464 14.4333 18.1464 14.58 18.7997 14.58ZM37.3327 5.04V16H35.5127V14.38C35.166 14.94 34.6793 15.38 34.0527 15.7C33.4393 16.0067 32.7593 16.16 32.0127 16.16C31.1593 16.16 30.3927 15.9867 29.7127 15.64C29.0327 15.28 28.4927 14.7467 28.0927 14.04C27.706 13.3333 27.5127 12.4733 27.5127 11.46V5.04H29.3127V11.22C29.3127 12.3 29.586 13.1333 30.1327 13.72C30.6793 14.2933 31.426 14.58 32.3727 14.58C33.346 14.58 34.1127 14.28 34.6727 13.68C35.2327 13.08 35.5127 12.2067 35.5127 11.06V5.04H37.3327ZM43.0256 6.82C43.3456 6.19333 43.799 5.70667 44.3856 5.36C44.9856 5.01333 45.7123 4.84 46.5656 4.84V6.72H46.0856C44.0456 6.72 43.0256 7.82667 43.0256 10.04V16H41.2056V5.04H43.0256V6.82ZM64.1786 2.06V3.54H60.3786V16H58.5586V3.54H54.7386V2.06H64.1786ZM69.0389 6.82C69.3589 6.19333 69.8122 5.70667 70.3989 5.36C70.9989 5.01333 71.7256 4.84 72.5789 4.84V6.72H72.0989C70.0589 6.72 69.0389 7.82667 69.0389 10.04V16H67.2189V5.04H69.0389V6.82ZM85.1998 5.04V16H83.3798V14.38C83.0332 14.94 82.5465 15.38 81.9198 15.7C81.3065 16.0067 80.6265 16.16 79.8798 16.16C79.0265 16.16 78.2598 15.9867 77.5798 15.64C76.8998 15.28 76.3598 14.7467 75.9598 14.04C75.5732 13.3333 75.3798 12.4733 75.3798 11.46V5.04H77.1798V11.22C77.1798 12.3 77.4532 13.1333 77.9998 13.72C78.5465 14.2933 79.2932 14.58 80.2398 14.58C81.2132 14.58 81.9798 14.28 82.5398 13.68C83.0998 13.08 83.3798 12.2067 83.3798 11.06V5.04H85.1998ZM92.9528 16.18C92.1128 16.18 91.3595 16.04 90.6928 15.76C90.0261 15.4667 89.4995 15.0667 89.1128 14.56C88.7261 14.04 88.5128 13.4467 88.4728 12.78H90.3528C90.4061 13.3267 90.6595 13.7733 91.1128 14.12C91.5795 14.4667 92.1861 14.64 92.9328 14.64C93.6261 14.64 94.1728 14.4867 94.5728 14.18C94.9728 13.8733 95.1728 13.4867 95.1728 13.02C95.1728 12.54 94.9595 12.1867 94.5328 11.96C94.1061 11.72 93.4461 11.4867 92.5528 11.26C91.7395 11.0467 91.0728 10.8333 90.5528 10.62C90.0461 10.3933 89.6061 10.0667 89.2328 9.64C88.8728 9.2 88.6928 8.62667 88.6928 7.92C88.6928 7.36 88.8595 6.84667 89.1928 6.38C89.5261 5.91333 89.9995 5.54667 90.6128 5.28C91.2261 5 91.9261 4.86 92.7128 4.86C93.9261 4.86 94.9061 5.16667 95.6528 5.78C96.3995 6.39333 96.7995 7.23333 96.8528 8.3H95.0328C94.9928 7.72667 94.7595 7.26667 94.3328 6.92C93.9195 6.57333 93.3595 6.4 92.6528 6.4C91.9995 6.4 91.4795 6.54 91.0928 6.82C90.7061 7.1 90.5128 7.46667 90.5128 7.92C90.5128 8.28 90.6261 8.58 90.8528 8.82C91.0928 9.04667 91.3861 9.23333 91.7328 9.38C92.0928 9.51333 92.5861 9.66667 93.2128 9.84C93.9995 10.0533 94.6395 10.2667 95.1328 10.48C95.6261 10.68 96.0461 10.9867 96.3928 11.4C96.7528 11.8133 96.9395 12.3533 96.9528 13.02C96.9528 13.62 96.7861 14.16 96.4528 14.64C96.1195 15.12 95.6461 15.5 95.0328 15.78C94.4328 16.0467 93.7395 16.18 92.9528 16.18ZM102.542 6.54V13C102.542 13.5333 102.655 13.9133 102.882 14.14C103.109 14.3533 103.502 14.46 104.062 14.46H105.402V16H103.762C102.749 16 101.989 15.7667 101.482 15.3C100.975 14.8333 100.722 14.0667 100.722 13V6.54H99.302V5.04H100.722V2.28H102.542V5.04H105.402V6.54H102.542ZM118.407 10.1C118.407 10.4467 118.387 10.8133 118.347 11.2H109.587C109.654 12.28 110.021 13.1267 110.687 13.74C111.367 14.34 112.187 14.64 113.147 14.64C113.934 14.64 114.587 14.46 115.107 14.1C115.641 13.7267 116.014 13.2333 116.227 12.62H118.187C117.894 13.6733 117.307 14.5333 116.427 15.2C115.547 15.8533 114.454 16.18 113.147 16.18C112.107 16.18 111.174 15.9467 110.347 15.48C109.534 15.0133 108.894 14.3533 108.427 13.5C107.961 12.6333 107.727 11.6333 107.727 10.5C107.727 9.36667 107.954 8.37333 108.407 7.52C108.861 6.66667 109.494 6.01333 110.307 5.56C111.134 5.09333 112.081 4.86 113.147 4.86C114.187 4.86 115.107 5.08667 115.907 5.54C116.707 5.99333 117.321 6.62 117.747 7.42C118.187 8.20667 118.407 9.1 118.407 10.1ZM116.527 9.72C116.527 9.02667 116.374 8.43333 116.067 7.94C115.761 7.43333 115.341 7.05333 114.807 6.8C114.287 6.53333 113.707 6.4 113.067 6.4C112.147 6.4 111.361 6.69333 110.707 7.28C110.067 7.86667 109.701 8.68 109.607 9.72H116.527ZM120.93 10.48C120.93 9.36 121.156 8.38 121.61 7.54C122.063 6.68667 122.683 6.02667 123.47 5.56C124.27 5.09333 125.163 4.86 126.15 4.86C127.003 4.86 127.796 5.06 128.53 5.46C129.263 5.84667 129.823 6.36 130.21 7V1.2H132.05V16H130.21V13.94C129.85 14.5933 129.316 15.1333 128.61 15.56C127.903 15.9733 127.076 16.18 126.13 16.18C125.156 16.18 124.27 15.94 123.47 15.46C122.683 14.98 122.063 14.3067 121.61 13.44C121.156 12.5733 120.93 11.5867 120.93 10.48ZM130.21 10.5C130.21 9.67333 130.043 8.95333 129.71 8.34C129.376 7.72667 128.923 7.26 128.35 6.94C127.79 6.60667 127.17 6.44 126.49 6.44C125.81 6.44 125.19 6.6 124.63 6.92C124.07 7.24 123.623 7.70667 123.29 8.32C122.956 8.93333 122.79 9.65333 122.79 10.48C122.79 11.32 122.956 12.0533 123.29 12.68C123.623 13.2933 124.07 13.7667 124.63 14.1C125.19 14.42 125.81 14.58 126.49 14.58C127.17 14.58 127.79 14.42 128.35 14.1C128.923 13.7667 129.376 13.2933 129.71 12.68C130.043 12.0533 130.21 11.3267 130.21 10.5ZM151.377 6.14C151.377 7.3 150.977 8.26667 150.177 9.04C149.391 9.8 148.184 10.18 146.557 10.18H143.877V16H142.057V2.06H146.557C148.131 2.06 149.324 2.44 150.137 3.2C150.964 3.96 151.377 4.94 151.377 6.14ZM146.557 8.68C147.571 8.68 148.317 8.46 148.797 8.02C149.277 7.58 149.517 6.95333 149.517 6.14C149.517 4.42 148.531 3.56 146.557 3.56H143.877V8.68H146.557ZM153.759 10.48C153.759 9.36 153.986 8.38 154.439 7.54C154.893 6.68667 155.513 6.02667 156.299 5.56C157.099 5.09333 157.986 4.86 158.959 4.86C159.919 4.86 160.753 5.06667 161.459 5.48C162.166 5.89333 162.693 6.41333 163.039 7.04V5.04H164.879V16H163.039V13.96C162.679 14.6 162.139 15.1333 161.419 15.56C160.713 15.9733 159.886 16.18 158.939 16.18C157.966 16.18 157.086 15.94 156.299 15.46C155.513 14.98 154.893 14.3067 154.439 13.44C153.986 12.5733 153.759 11.5867 153.759 10.48ZM163.039 10.5C163.039 9.67333 162.873 8.95333 162.539 8.34C162.206 7.72667 161.753 7.26 161.179 6.94C160.619 6.60667 159.999 6.44 159.319 6.44C158.639 6.44 158.019 6.6 157.459 6.92C156.899 7.24 156.453 7.70667 156.119 8.32C155.786 8.93333 155.619 9.65333 155.619 10.48C155.619 11.32 155.786 12.0533 156.119 12.68C156.453 13.2933 156.899 13.7667 157.459 14.1C158.019 14.42 158.639 14.58 159.319 14.58C159.999 14.58 160.619 14.42 161.179 14.1C161.753 13.7667 162.206 13.2933 162.539 12.68C162.873 12.0533 163.039 11.3267 163.039 10.5ZM170.575 6.82C170.895 6.19333 171.348 5.70667 171.935 5.36C172.535 5.01333 173.262 4.84 174.115 4.84V6.72H173.635C171.595 6.72 170.575 7.82667 170.575 10.04V16H168.755V5.04H170.575V6.82ZM179.236 6.54V13C179.236 13.5333 179.349 13.9133 179.576 14.14C179.802 14.3533 180.196 14.46 180.756 14.46H182.096V16H180.456C179.442 16 178.682 15.7667 178.176 15.3C177.669 14.8333 177.416 14.0667 177.416 13V6.54H175.996V5.04H177.416V2.28H179.236V5.04H182.096V6.54H179.236ZM190.441 4.84C191.774 4.84 192.854 5.24667 193.681 6.06C194.508 6.86 194.921 8.02 194.921 9.54V16H193.121V9.8C193.121 8.70667 192.848 7.87333 192.301 7.3C191.754 6.71333 191.008 6.42 190.061 6.42C189.101 6.42 188.334 6.72 187.761 7.32C187.201 7.92 186.921 8.79333 186.921 9.94V16H185.101V5.04H186.921V6.6C187.281 6.04 187.768 5.60667 188.381 5.3C189.008 4.99333 189.694 4.84 190.441 4.84ZM208.694 10.1C208.694 10.4467 208.674 10.8133 208.634 11.2H199.874C199.941 12.28 200.307 13.1267 200.974 13.74C201.654 14.34 202.474 14.64 203.434 14.64C204.221 14.64 204.874 14.46 205.394 14.1C205.927 13.7267 206.301 13.2333 206.514 12.62H208.474C208.181 13.6733 207.594 14.5333 206.714 15.2C205.834 15.8533 204.741 16.18 203.434 16.18C202.394 16.18 201.461 15.9467 200.634 15.48C199.821 15.0133 199.181 14.3533 198.714 13.5C198.247 12.6333 198.014 11.6333 198.014 10.5C198.014 9.36667 198.241 8.37333 198.694 7.52C199.147 6.66667 199.781 6.01333 200.594 5.56C201.421 5.09333 202.367 4.86 203.434 4.86C204.474 4.86 205.394 5.08667 206.194 5.54C206.994 5.99333 207.607 6.62 208.034 7.42C208.474 8.20667 208.694 9.1 208.694 10.1ZM206.814 9.72C206.814 9.02667 206.661 8.43333 206.354 7.94C206.047 7.43333 205.627 7.05333 205.094 6.8C204.574 6.53333 203.994 6.4 203.354 6.4C202.434 6.4 201.647 6.69333 200.994 7.28C200.354 7.86667 199.987 8.68 199.894 9.72H206.814ZM213.716 6.82C214.036 6.19333 214.49 5.70667 215.076 5.36C215.676 5.01333 216.403 4.84 217.256 4.84V6.72H216.776C214.736 6.72 213.716 7.82667 213.716 10.04V16H211.896V5.04H213.716V6.82ZM227.229 3.26C226.883 3.26 226.589 3.14 226.349 2.9C226.109 2.66 225.989 2.36667 225.989 2.02C225.989 1.67333 226.109 1.38 226.349 1.14C226.589 0.899999 226.883 0.779999 227.229 0.779999C227.563 0.779999 227.843 0.899999 228.069 1.14C228.309 1.38 228.429 1.67333 228.429 2.02C228.429 2.36667 228.309 2.66 228.069 2.9C227.843 3.14 227.563 3.26 227.229 3.26ZM228.109 5.04V16H226.289V5.04H228.109ZM237.351 4.84C238.684 4.84 239.764 5.24667 240.591 6.06C241.418 6.86 241.831 8.02 241.831 9.54V16H240.031V9.8C240.031 8.70667 239.758 7.87333 239.211 7.3C238.664 6.71333 237.918 6.42 236.971 6.42C236.011 6.42 235.244 6.72 234.671 7.32C234.111 7.92 233.831 8.79333 233.831 9.94V16H232.011V5.04H233.831V6.6C234.191 6.04 234.678 5.60667 235.291 5.3C235.918 4.99333 236.604 4.84 237.351 4.84ZM262.476 2.06V16H260.656V9.68H253.556V16H251.736V2.06H253.556V8.18H260.656V2.06H262.476ZM276.384 10.1C276.384 10.4467 276.364 10.8133 276.324 11.2H267.564C267.63 12.28 267.997 13.1267 268.664 13.74C269.344 14.34 270.164 14.64 271.124 14.64C271.91 14.64 272.564 14.46 273.084 14.1C273.617 13.7267 273.99 13.2333 274.204 12.62H276.164C275.87 13.6733 275.284 14.5333 274.404 15.2C273.524 15.8533 272.43 16.18 271.124 16.18C270.084 16.18 269.15 15.9467 268.324 15.48C267.51 15.0133 266.87 14.3533 266.404 13.5C265.937 12.6333 265.704 11.6333 265.704 10.5C265.704 9.36667 265.93 8.37333 266.384 7.52C266.837 6.66667 267.47 6.01333 268.284 5.56C269.11 5.09333 270.057 4.86 271.124 4.86C272.164 4.86 273.084 5.08667 273.884 5.54C274.684 5.99333 275.297 6.62 275.724 7.42C276.164 8.20667 276.384 9.1 276.384 10.1ZM274.504 9.72C274.504 9.02667 274.35 8.43333 274.044 7.94C273.737 7.43333 273.317 7.05333 272.784 6.8C272.264 6.53333 271.684 6.4 271.044 6.4C270.124 6.4 269.337 6.69333 268.684 7.28C268.044 7.86667 267.677 8.68 267.584 9.72H274.504ZM278.906 10.48C278.906 9.36 279.133 8.38 279.586 7.54C280.039 6.68667 280.659 6.02667 281.446 5.56C282.246 5.09333 283.133 4.86 284.106 4.86C285.066 4.86 285.899 5.06667 286.606 5.48C287.313 5.89333 287.839 6.41333 288.186 7.04V5.04H290.026V16H288.186V13.96C287.826 14.6 287.286 15.1333 286.566 15.56C285.859 15.9733 285.033 16.18 284.086 16.18C283.113 16.18 282.233 15.94 281.446 15.46C280.659 14.98 280.039 14.3067 279.586 13.44C279.133 12.5733 278.906 11.5867 278.906 10.48ZM288.186 10.5C288.186 9.67333 288.019 8.95333 287.686 8.34C287.353 7.72667 286.899 7.26 286.326 6.94C285.766 6.60667 285.146 6.44 284.466 6.44C283.786 6.44 283.166 6.6 282.606 6.92C282.046 7.24 281.599 7.70667 281.266 8.32C280.933 8.93333 280.766 9.65333 280.766 10.48C280.766 11.32 280.933 12.0533 281.266 12.68C281.599 13.2933 282.046 13.7667 282.606 14.1C283.166 14.42 283.786 14.58 284.466 14.58C285.146 14.58 285.766 14.42 286.326 14.1C286.899 13.7667 287.353 13.2933 287.686 12.68C288.019 12.0533 288.186 11.3267 288.186 10.5ZM295.722 1.2V16H293.902V1.2H295.722ZM301.844 6.54V13C301.844 13.5333 301.957 13.9133 302.184 14.14C302.41 14.3533 302.804 14.46 303.364 14.46H304.704V16H303.064C302.05 16 301.29 15.7667 300.784 15.3C300.277 14.8333 300.024 14.0667 300.024 13V6.54H298.604V5.04H300.024V2.28H301.844V5.04H304.704V6.54H301.844ZM313.149 4.84C313.975 4.84 314.722 5.02 315.389 5.38C316.055 5.72667 316.575 6.25333 316.949 6.96C317.335 7.66667 317.529 8.52667 317.529 9.54V16H315.729V9.8C315.729 8.70667 315.455 7.87333 314.909 7.3C314.362 6.71333 313.615 6.42 312.669 6.42C311.709 6.42 310.942 6.72 310.369 7.32C309.809 7.92 309.529 8.79333 309.529 9.94V16H307.709V1.2H309.529V6.6C309.889 6.04 310.382 5.60667 311.009 5.3C311.649 4.99333 312.362 4.84 313.149 4.84ZM330.742 5.04L324.142 21.16H322.262L324.422 15.88L320.002 5.04H322.022L325.462 13.92L328.862 5.04H330.742ZM341.323 14.52H346.203V16H339.503V2.06H341.323V14.52ZM349.876 3.26C349.529 3.26 349.236 3.14 348.996 2.9C348.756 2.66 348.636 2.36667 348.636 2.02C348.636 1.67333 348.756 1.38 348.996 1.14C349.236 0.899999 349.529 0.779999 349.876 0.779999C350.209 0.779999 350.489 0.899999 350.716 1.14C350.956 1.38 351.076 1.67333 351.076 2.02C351.076 2.36667 350.956 2.66 350.716 2.9C350.489 3.14 350.209 3.26 349.876 3.26ZM350.756 5.04V16H348.936V5.04H350.756ZM358.738 14.32L362.138 5.04H364.078L359.778 16H357.658L353.358 5.04H355.318L358.738 14.32ZM367.609 3.26C367.262 3.26 366.969 3.14 366.729 2.9C366.489 2.66 366.369 2.36667 366.369 2.02C366.369 1.67333 366.489 1.38 366.729 1.14C366.969 0.899999 367.262 0.779999 367.609 0.779999C367.942 0.779999 368.222 0.899999 368.449 1.14C368.689 1.38 368.809 1.67333 368.809 2.02C368.809 2.36667 368.689 2.66 368.449 2.9C368.222 3.14 367.942 3.26 367.609 3.26ZM368.489 5.04V16H366.669V5.04H368.489ZM377.731 4.84C379.064 4.84 380.144 5.24667 380.971 6.06C381.797 6.86 382.211 8.02 382.211 9.54V16H380.411V9.8C380.411 8.70667 380.137 7.87333 379.591 7.3C379.044 6.71333 378.297 6.42 377.351 6.42C376.391 6.42 375.624 6.72 375.051 7.32C374.491 7.92 374.211 8.79333 374.211 9.94V16H372.391V5.04H374.211V6.6C374.571 6.04 375.057 5.60667 375.671 5.3C376.297 4.99333 376.984 4.84 377.731 4.84ZM390.504 4.86C391.45 4.86 392.277 5.06667 392.984 5.48C393.704 5.89333 394.237 6.41333 394.584 7.04V5.04H396.424V16.24C396.424 17.24 396.21 18.1267 395.784 18.9C395.357 19.6867 394.744 20.3 393.944 20.74C393.157 21.18 392.237 21.4 391.184 21.4C389.744 21.4 388.544 21.06 387.584 20.38C386.624 19.7 386.057 18.7733 385.884 17.6H387.684C387.884 18.2667 388.297 18.8 388.924 19.2C389.55 19.6133 390.304 19.82 391.184 19.82C392.184 19.82 392.997 19.5067 393.624 18.88C394.264 18.2533 394.584 17.3733 394.584 16.24V13.94C394.224 14.58 393.69 15.1133 392.984 15.54C392.277 15.9667 391.45 16.18 390.504 16.18C389.53 16.18 388.644 15.94 387.844 15.46C387.057 14.98 386.437 14.3067 385.984 13.44C385.53 12.5733 385.304 11.5867 385.304 10.48C385.304 9.36 385.53 8.38 385.984 7.54C386.437 6.68667 387.057 6.02667 387.844 5.56C388.644 5.09333 389.53 4.86 390.504 4.86ZM394.584 10.5C394.584 9.67333 394.417 8.95333 394.084 8.34C393.75 7.72667 393.297 7.26 392.724 6.94C392.164 6.60667 391.544 6.44 390.864 6.44C390.184 6.44 389.564 6.6 389.004 6.92C388.444 7.24 387.997 7.70667 387.664 8.32C387.33 8.93333 387.164 9.65333 387.164 10.48C387.164 11.32 387.33 12.0533 387.664 12.68C387.997 13.2933 388.444 13.7667 389.004 14.1C389.564 14.42 390.184 14.58 390.864 14.58C391.544 14.58 392.164 14.42 392.724 14.1C393.297 13.7667 393.75 13.2933 394.084 12.68C394.417 12.0533 394.584 11.3267 394.584 10.5ZM408.251 3.54V8.2H413.331V9.7H408.251V14.5H413.931V16H406.431V2.04H413.931V3.54H408.251ZM421.945 6.54H419.645V16H417.825V6.54H416.405V5.04H417.825V4.26C417.825 3.03333 418.139 2.14 418.765 1.58C419.405 1.00667 420.425 0.719999 421.825 0.719999V2.24C421.025 2.24 420.459 2.4 420.125 2.72C419.805 3.02667 419.645 3.54 419.645 4.26V5.04H421.945V6.54ZM429.327 6.54H427.027V16H425.207V6.54H423.787V5.04H425.207V4.26C425.207 3.03333 425.521 2.14 426.147 1.58C426.787 1.00667 427.807 0.719999 429.207 0.719999V2.24C428.407 2.24 427.841 2.4 427.507 2.72C427.187 3.02667 427.027 3.54 427.027 4.26V5.04H429.327V6.54ZM437.029 16.18C436.003 16.18 435.069 15.9467 434.229 15.48C433.403 15.0133 432.749 14.3533 432.269 13.5C431.803 12.6333 431.569 11.6333 431.569 10.5C431.569 9.38 431.809 8.39333 432.289 7.54C432.783 6.67333 433.449 6.01333 434.289 5.56C435.129 5.09333 436.069 4.86 437.109 4.86C438.149 4.86 439.089 5.09333 439.929 5.56C440.769 6.01333 441.429 6.66667 441.909 7.52C442.403 8.37333 442.649 9.36667 442.649 10.5C442.649 11.6333 442.396 12.6333 441.889 13.5C441.396 14.3533 440.723 15.0133 439.869 15.48C439.016 15.9467 438.069 16.18 437.029 16.18ZM437.029 14.58C437.683 14.58 438.296 14.4267 438.869 14.12C439.443 13.8133 439.903 13.3533 440.249 12.74C440.609 12.1267 440.789 11.38 440.789 10.5C440.789 9.62 440.616 8.87333 440.269 8.26C439.923 7.64667 439.469 7.19333 438.909 6.9C438.349 6.59333 437.743 6.44 437.089 6.44C436.423 6.44 435.809 6.59333 435.249 6.9C434.703 7.19333 434.263 7.64667 433.929 8.26C433.596 8.87333 433.429 9.62 433.429 10.5C433.429 11.3933 433.589 12.1467 433.909 12.76C434.243 13.3733 434.683 13.8333 435.229 14.14C435.776 14.4333 436.376 14.58 437.029 14.58ZM447.662 6.82C447.982 6.19333 448.436 5.70667 449.022 5.36C449.622 5.01333 450.349 4.84 451.202 4.84V6.72H450.722C448.682 6.72 447.662 7.82667 447.662 10.04V16H445.842V5.04H447.662V6.82ZM456.323 6.54V13C456.323 13.5333 456.437 13.9133 456.663 14.14C456.89 14.3533 457.283 14.46 457.843 14.46H459.183V16H457.543C456.53 16 455.77 15.7667 455.263 15.3C454.757 14.8333 454.503 14.0667 454.503 13V6.54H453.083V5.04H454.503V2.28H456.323V5.04H459.183V6.54H456.323ZM464.008 1.2V16H462.188V1.2H464.008ZM477.91 10.1C477.91 10.4467 477.89 10.8133 477.85 11.2H469.09C469.157 12.28 469.524 13.1267 470.19 13.74C470.87 14.34 471.69 14.64 472.65 14.64C473.437 14.64 474.09 14.46 474.61 14.1C475.144 13.7267 475.517 13.2333 475.73 12.62H477.69C477.397 13.6733 476.81 14.5333 475.93 15.2C475.05 15.8533 473.957 16.18 472.65 16.18C471.61 16.18 470.677 15.9467 469.85 15.48C469.037 15.0133 468.397 14.3533 467.93 13.5C467.464 12.6333 467.23 11.6333 467.23 10.5C467.23 9.36667 467.457 8.37333 467.91 7.52C468.364 6.66667 468.997 6.01333 469.81 5.56C470.637 5.09333 471.584 4.86 472.65 4.86C473.69 4.86 474.61 5.08667 475.41 5.54C476.21 5.99333 476.824 6.62 477.25 7.42C477.69 8.20667 477.91 9.1 477.91 10.1ZM476.03 9.72C476.03 9.02667 475.877 8.43333 475.57 7.94C475.264 7.43333 474.844 7.05333 474.31 6.8C473.79 6.53333 473.21 6.4 472.57 6.4C471.65 6.4 470.864 6.69333 470.21 7.28C469.57 7.86667 469.204 8.68 469.11 9.72H476.03ZM484.993 16.18C484.153 16.18 483.399 16.04 482.733 15.76C482.066 15.4667 481.539 15.0667 481.153 14.56C480.766 14.04 480.553 13.4467 480.513 12.78H482.393C482.446 13.3267 482.699 13.7733 483.153 14.12C483.619 14.4667 484.226 14.64 484.973 14.64C485.666 14.64 486.213 14.4867 486.613 14.18C487.013 13.8733 487.213 13.4867 487.213 13.02C487.213 12.54 486.999 12.1867 486.573 11.96C486.146 11.72 485.486 11.4867 484.593 11.26C483.779 11.0467 483.113 10.8333 482.593 10.62C482.086 10.3933 481.646 10.0667 481.273 9.64C480.913 9.2 480.733 8.62667 480.733 7.92C480.733 7.36 480.899 6.84667 481.233 6.38C481.566 5.91333 482.039 5.54667 482.653 5.28C483.266 5 483.966 4.86 484.753 4.86C485.966 4.86 486.946 5.16667 487.693 5.78C488.439 6.39333 488.839 7.23333 488.893 8.3H487.073C487.033 7.72667 486.799 7.26667 486.373 6.92C485.959 6.57333 485.399 6.4 484.693 6.4C484.039 6.4 483.519 6.54 483.133 6.82C482.746 7.1 482.553 7.46667 482.553 7.92C482.553 8.28 482.666 8.58 482.893 8.82C483.133 9.04667 483.426 9.23333 483.773 9.38C484.133 9.51333 484.626 9.66667 485.253 9.84C486.039 10.0533 486.679 10.2667 487.173 10.48C487.666 10.68 488.086 10.9867 488.433 11.4C488.793 11.8133 488.979 12.3533 488.993 13.02C488.993 13.62 488.826 14.16 488.493 14.64C488.159 15.12 487.686 15.5 487.073 15.78C486.473 16.0467 485.779 16.18 484.993 16.18ZM496.242 16.18C495.402 16.18 494.649 16.04 493.982 15.76C493.315 15.4667 492.789 15.0667 492.402 14.56C492.015 14.04 491.802 13.4467 491.762 12.78H493.642C493.695 13.3267 493.949 13.7733 494.402 14.12C494.869 14.4667 495.475 14.64 496.222 14.64C496.915 14.64 497.462 14.4867 497.862 14.18C498.262 13.8733 498.462 13.4867 498.462 13.02C498.462 12.54 498.249 12.1867 497.822 11.96C497.395 11.72 496.735 11.4867 495.842 11.26C495.029 11.0467 494.362 10.8333 493.842 10.62C493.335 10.3933 492.895 10.0667 492.522 9.64C492.162 9.2 491.982 8.62667 491.982 7.92C491.982 7.36 492.149 6.84667 492.482 6.38C492.815 5.91333 493.289 5.54667 493.902 5.28C494.515 5 495.215 4.86 496.002 4.86C497.215 4.86 498.195 5.16667 498.942 5.78C499.689 6.39333 500.089 7.23333 500.142 8.3H498.322C498.282 7.72667 498.049 7.26667 497.622 6.92C497.209 6.57333 496.649 6.4 495.942 6.4C495.289 6.4 494.769 6.54 494.382 6.82C493.995 7.1 493.802 7.46667 493.802 7.92C493.802 8.28 493.915 8.58 494.142 8.82C494.382 9.04667 494.675 9.23333 495.022 9.38C495.382 9.51333 495.875 9.66667 496.502 9.84C497.289 10.0533 497.929 10.2667 498.422 10.48C498.915 10.68 499.335 10.9867 499.682 11.4C500.042 11.8133 500.229 12.3533 500.242 13.02C500.242 13.62 500.075 14.16 499.742 14.64C499.409 15.12 498.935 15.5 498.322 15.78C497.722 16.0467 497.029 16.18 496.242 16.18ZM505.431 1.2V16H503.611V1.2H505.431ZM518.773 5.04L512.173 21.16H510.293L512.453 15.88L508.033 5.04H510.053L513.493 13.92L516.893 5.04H518.773ZM0.86 37.02C0.86 35.66 1.16667 34.44 1.78 33.36C2.39333 32.2667 3.22667 31.4133 4.28 30.8C5.34667 30.1867 6.52667 29.88 7.82 29.88C9.34 29.88 10.6667 30.2467 11.8 30.98C12.9333 31.7133 13.76 32.7533 14.28 34.1H12.1C11.7133 33.26 11.1533 32.6133 10.42 32.16C9.7 31.7067 8.83333 31.48 7.82 31.48C6.84667 31.48 5.97333 31.7067 5.2 32.16C4.42667 32.6133 3.82 33.26 3.38 34.1C2.94 34.9267 2.72 35.9 2.72 37.02C2.72 38.1267 2.94 39.1 3.38 39.94C3.82 40.7667 4.42667 41.4067 5.2 41.86C5.97333 42.3133 6.84667 42.54 7.82 42.54C8.83333 42.54 9.7 42.32 10.42 41.88C11.1533 41.4267 11.7133 40.78 12.1 39.94H14.28C13.76 41.2733 12.9333 42.3067 11.8 43.04C10.6667 43.76 9.34 44.12 7.82 44.12C6.52667 44.12 5.34667 43.82 4.28 43.22C3.22667 42.6067 2.39333 41.76 1.78 40.68C1.16667 39.6 0.86 38.38 0.86 37.02ZM17.1092 38.48C17.1092 37.36 17.3359 36.38 17.7892 35.54C18.2426 34.6867 18.8626 34.0267 19.6492 33.56C20.4492 33.0933 21.3359 32.86 22.3092 32.86C23.2692 32.86 24.1026 33.0667 24.8092 33.48C25.5159 33.8933 26.0426 34.4133 26.3892 35.04V33.04H28.2292V44H26.3892V41.96C26.0292 42.6 25.4892 43.1333 24.7692 43.56C24.0626 43.9733 23.2359 44.18 22.2892 44.18C21.3159 44.18 20.4359 43.94 19.6492 43.46C18.8626 42.98 18.2426 42.3067 17.7892 41.44C17.3359 40.5733 17.1092 39.5867 17.1092 38.48ZM26.3892 38.5C26.3892 37.6733 26.2226 36.9533 25.8892 36.34C25.5559 35.7267 25.1026 35.26 24.5292 34.94C23.9692 34.6067 23.3492 34.44 22.6692 34.44C21.9892 34.44 21.3692 34.6 20.8092 34.92C20.2492 35.24 19.8026 35.7067 19.4692 36.32C19.1359 36.9333 18.9692 37.6533 18.9692 38.48C18.9692 39.32 19.1359 40.0533 19.4692 40.68C19.8026 41.2933 20.2492 41.7667 20.8092 42.1C21.3692 42.42 21.9892 42.58 22.6692 42.58C23.3492 42.58 23.9692 42.42 24.5292 42.1C25.1026 41.7667 25.5559 41.2933 25.8892 40.68C26.2226 40.0533 26.3892 39.3267 26.3892 38.5ZM33.9248 29.2V44H32.1048V29.2H33.9248ZM37.1467 38.5C37.1467 37.3667 37.3734 36.38 37.8267 35.54C38.2801 34.6867 38.9067 34.0267 39.7067 33.56C40.5201 33.0933 41.4467 32.86 42.4867 32.86C43.8334 32.86 44.9401 33.1867 45.8067 33.84C46.6867 34.4933 47.2667 35.4 47.5467 36.56H45.5867C45.4001 35.8933 45.0334 35.3667 44.4867 34.98C43.9534 34.5933 43.2867 34.4 42.4867 34.4C41.4467 34.4 40.6067 34.76 39.9667 35.48C39.3267 36.1867 39.0067 37.1933 39.0067 38.5C39.0067 39.82 39.3267 40.84 39.9667 41.56C40.6067 42.28 41.4467 42.64 42.4867 42.64C43.2867 42.64 43.9534 42.4533 44.4867 42.08C45.0201 41.7067 45.3867 41.1733 45.5867 40.48H47.5467C47.2534 41.6 46.6667 42.5 45.7867 43.18C44.9067 43.8467 43.8067 44.18 42.4867 44.18C41.4467 44.18 40.5201 43.9467 39.7067 43.48C38.9067 43.0133 38.2801 42.3533 37.8267 41.5C37.3734 40.6467 37.1467 39.6467 37.1467 38.5ZM60.4952 33.04V44H58.6752V42.38C58.3285 42.94 57.8418 43.38 57.2152 43.7C56.6018 44.0067 55.9218 44.16 55.1752 44.16C54.3218 44.16 53.5552 43.9867 52.8752 43.64C52.1952 43.28 51.6552 42.7467 51.2552 42.04C50.8685 41.3333 50.6752 40.4733 50.6752 39.46V33.04H52.4752V39.22C52.4752 40.3 52.7485 41.1333 53.2952 41.72C53.8418 42.2933 54.5885 42.58 55.5352 42.58C56.5085 42.58 57.2752 42.28 57.8352 41.68C58.3952 41.08 58.6752 40.2067 58.6752 39.06V33.04H60.4952ZM66.1881 29.2V44H64.3681V29.2H66.1881ZM69.41 38.48C69.41 37.36 69.6367 36.38 70.09 35.54C70.5433 34.6867 71.1633 34.0267 71.95 33.56C72.75 33.0933 73.6367 32.86 74.61 32.86C75.57 32.86 76.4033 33.0667 77.11 33.48C77.8167 33.8933 78.3433 34.4133 78.69 35.04V33.04H80.53V44H78.69V41.96C78.33 42.6 77.79 43.1333 77.07 43.56C76.3633 43.9733 75.5367 44.18 74.59 44.18C73.6167 44.18 72.7367 43.94 71.95 43.46C71.1633 42.98 70.5433 42.3067 70.09 41.44C69.6367 40.5733 69.41 39.5867 69.41 38.48ZM78.69 38.5C78.69 37.6733 78.5233 36.9533 78.19 36.34C77.8567 35.7267 77.4033 35.26 76.83 34.94C76.27 34.6067 75.65 34.44 74.97 34.44C74.29 34.44 73.67 34.6 73.11 34.92C72.55 35.24 72.1033 35.7067 71.77 36.32C71.4367 36.9333 71.27 37.6533 71.27 38.48C71.27 39.32 71.4367 40.0533 71.77 40.68C72.1033 41.2933 72.55 41.7667 73.11 42.1C73.67 42.42 74.29 42.58 74.97 42.58C75.65 42.58 76.27 42.42 76.83 42.1C77.4033 41.7667 77.8567 41.2933 78.19 40.68C78.5233 40.0533 78.69 39.3267 78.69 38.5ZM86.6256 34.54V41C86.6256 41.5333 86.739 41.9133 86.9656 42.14C87.1923 42.3533 87.5856 42.46 88.1456 42.46H89.4856V44H87.8456C86.8323 44 86.0723 43.7667 85.5656 43.3C85.059 42.8333 84.8056 42.0667 84.8056 41V34.54H83.3856V33.04H84.8056V30.28H86.6256V33.04H89.4856V34.54H86.6256ZM102.491 38.1C102.491 38.4467 102.471 38.8133 102.431 39.2H93.6708C93.7374 40.28 94.1041 41.1267 94.7708 41.74C95.4508 42.34 96.2708 42.64 97.2308 42.64C98.0174 42.64 98.6708 42.46 99.1908 42.1C99.7241 41.7267 100.097 41.2333 100.311 40.62H102.271C101.977 41.6733 101.391 42.5333 100.511 43.2C99.6308 43.8533 98.5374 44.18 97.2308 44.18C96.1908 44.18 95.2574 43.9467 94.4308 43.48C93.6174 43.0133 92.9774 42.3533 92.5108 41.5C92.0441 40.6333 91.8108 39.6333 91.8108 38.5C91.8108 37.3667 92.0374 36.3733 92.4908 35.52C92.9441 34.6667 93.5774 34.0133 94.3908 33.56C95.2174 33.0933 96.1641 32.86 97.2308 32.86C98.2708 32.86 99.1908 33.0867 99.9908 33.54C100.791 33.9933 101.404 34.62 101.831 35.42C102.271 36.2067 102.491 37.1 102.491 38.1ZM100.611 37.72C100.611 37.0267 100.457 36.4333 100.151 35.94C99.8441 35.4333 99.4241 35.0533 98.8908 34.8C98.3708 34.5333 97.7908 34.4 97.1508 34.4C96.2308 34.4 95.4441 34.6933 94.7908 35.28C94.1508 35.8667 93.7841 36.68 93.6908 37.72H100.611ZM118.845 30.06V40.36C118.845 41.5067 118.492 42.4267 117.785 43.12C117.078 43.8 116.145 44.14 114.985 44.14C113.812 44.14 112.872 43.7933 112.165 43.1C111.458 42.3933 111.105 41.4333 111.105 40.22H112.925C112.938 40.9 113.112 41.4533 113.445 41.88C113.792 42.3067 114.305 42.52 114.985 42.52C115.665 42.52 116.172 42.32 116.505 41.92C116.838 41.5067 117.005 40.9867 117.005 40.36V30.06H118.845ZM132.951 33.04V44H131.131V42.38C130.784 42.94 130.297 43.38 129.671 43.7C129.057 44.0067 128.377 44.16 127.631 44.16C126.777 44.16 126.011 43.9867 125.331 43.64C124.651 43.28 124.111 42.7467 123.711 42.04C123.324 41.3333 123.131 40.4733 123.131 39.46V33.04H124.931V39.22C124.931 40.3 125.204 41.1333 125.751 41.72C126.297 42.2933 127.044 42.58 127.991 42.58C128.964 42.58 129.731 42.28 130.291 41.68C130.851 41.08 131.131 40.2067 131.131 39.06V33.04H132.951ZM137.764 31.26C137.417 31.26 137.124 31.14 136.884 30.9C136.644 30.66 136.524 30.3667 136.524 30.02C136.524 29.6733 136.644 29.38 136.884 29.14C137.124 28.9 137.417 28.78 137.764 28.78C138.097 28.78 138.377 28.9 138.604 29.14C138.844 29.38 138.964 29.6733 138.964 30.02C138.964 30.3667 138.844 30.66 138.604 30.9C138.377 31.14 138.097 31.26 137.764 31.26ZM138.644 33.04V44H136.824V33.04H138.644ZM141.865 38.5C141.865 37.3667 142.092 36.38 142.545 35.54C142.999 34.6867 143.625 34.0267 144.425 33.56C145.239 33.0933 146.165 32.86 147.205 32.86C148.552 32.86 149.659 33.1867 150.525 33.84C151.405 34.4933 151.985 35.4 152.265 36.56H150.305C150.119 35.8933 149.752 35.3667 149.205 34.98C148.672 34.5933 148.005 34.4 147.205 34.4C146.165 34.4 145.325 34.76 144.685 35.48C144.045 36.1867 143.725 37.1933 143.725 38.5C143.725 39.82 144.045 40.84 144.685 41.56C145.325 42.28 146.165 42.64 147.205 42.64C148.005 42.64 148.672 42.4533 149.205 42.08C149.739 41.7067 150.105 41.1733 150.305 40.48H152.265C151.972 41.6 151.385 42.5 150.505 43.18C149.625 43.8467 148.525 44.18 147.205 44.18C146.165 44.18 145.239 43.9467 144.425 43.48C143.625 43.0133 142.999 42.3533 142.545 41.5C142.092 40.6467 141.865 39.6467 141.865 38.5ZM165.494 38.1C165.494 38.4467 165.474 38.8133 165.434 39.2H156.674C156.741 40.28 157.107 41.1267 157.774 41.74C158.454 42.34 159.274 42.64 160.234 42.64C161.021 42.64 161.674 42.46 162.194 42.1C162.727 41.7267 163.101 41.2333 163.314 40.62H165.274C164.981 41.6733 164.394 42.5333 163.514 43.2C162.634 43.8533 161.541 44.18 160.234 44.18C159.194 44.18 158.261 43.9467 157.434 43.48C156.621 43.0133 155.981 42.3533 155.514 41.5C155.047 40.6333 154.814 39.6333 154.814 38.5C154.814 37.3667 155.041 36.3733 155.494 35.52C155.947 34.6667 156.581 34.0133 157.394 33.56C158.221 33.0933 159.167 32.86 160.234 32.86C161.274 32.86 162.194 33.0867 162.994 33.54C163.794 33.9933 164.407 34.62 164.834 35.42C165.274 36.2067 165.494 37.1 165.494 38.1ZM163.614 37.72C163.614 37.0267 163.461 36.4333 163.154 35.94C162.847 35.4333 162.427 35.0533 161.894 34.8C161.374 34.5333 160.794 34.4 160.154 34.4C159.234 34.4 158.447 34.6933 157.794 35.28C157.154 35.8667 156.787 36.68 156.694 37.72H163.614ZM174.148 37.02C174.148 35.66 174.455 34.44 175.068 33.36C175.682 32.2667 176.515 31.4133 177.568 30.8C178.635 30.1867 179.815 29.88 181.108 29.88C182.628 29.88 183.955 30.2467 185.088 30.98C186.222 31.7133 187.048 32.7533 187.568 34.1H185.388C185.002 33.26 184.442 32.6133 183.708 32.16C182.988 31.7067 182.122 31.48 181.108 31.48C180.135 31.48 179.262 31.7067 178.488 32.16C177.715 32.6133 177.108 33.26 176.668 34.1C176.228 34.9267 176.008 35.9 176.008 37.02C176.008 38.1267 176.228 39.1 176.668 39.94C177.108 40.7667 177.715 41.4067 178.488 41.86C179.262 42.3133 180.135 42.54 181.108 42.54C182.122 42.54 182.988 42.32 183.708 41.88C184.442 41.4267 185.002 40.78 185.388 39.94H187.568C187.048 41.2733 186.222 42.3067 185.088 43.04C183.955 43.76 182.628 44.12 181.108 44.12C179.815 44.12 178.635 43.82 177.568 43.22C176.515 42.6067 175.682 41.76 175.068 40.68C174.455 39.6 174.148 38.38 174.148 37.02ZM190.398 38.48C190.398 37.36 190.624 36.38 191.078 35.54C191.531 34.6867 192.151 34.0267 192.938 33.56C193.738 33.0933 194.624 32.86 195.598 32.86C196.558 32.86 197.391 33.0667 198.098 33.48C198.804 33.8933 199.331 34.4133 199.678 35.04V33.04H201.518V44H199.678V41.96C199.318 42.6 198.778 43.1333 198.058 43.56C197.351 43.9733 196.524 44.18 195.578 44.18C194.604 44.18 193.724 43.94 192.938 43.46C192.151 42.98 191.531 42.3067 191.078 41.44C190.624 40.5733 190.398 39.5867 190.398 38.48ZM199.678 38.5C199.678 37.6733 199.511 36.9533 199.178 36.34C198.844 35.7267 198.391 35.26 197.818 34.94C197.258 34.6067 196.638 34.44 195.958 34.44C195.278 34.44 194.658 34.6 194.098 34.92C193.538 35.24 193.091 35.7067 192.758 36.32C192.424 36.9333 192.258 37.6533 192.258 38.48C192.258 39.32 192.424 40.0533 192.758 40.68C193.091 41.2933 193.538 41.7667 194.098 42.1C194.658 42.42 195.278 42.58 195.958 42.58C196.638 42.58 197.258 42.42 197.818 42.1C198.391 41.7667 198.844 41.2933 199.178 40.68C199.511 40.0533 199.678 39.3267 199.678 38.5ZM207.213 29.2V44H205.393V29.2H207.213ZM215.895 44.18C214.868 44.18 213.935 43.9467 213.095 43.48C212.268 43.0133 211.615 42.3533 211.135 41.5C210.668 40.6333 210.435 39.6333 210.435 38.5C210.435 37.38 210.675 36.3933 211.155 35.54C211.648 34.6733 212.315 34.0133 213.155 33.56C213.995 33.0933 214.935 32.86 215.975 32.86C217.015 32.86 217.955 33.0933 218.795 33.56C219.635 34.0133 220.295 34.6667 220.775 35.52C221.268 36.3733 221.515 37.3667 221.515 38.5C221.515 39.6333 221.262 40.6333 220.755 41.5C220.262 42.3533 219.588 43.0133 218.735 43.48C217.882 43.9467 216.935 44.18 215.895 44.18ZM215.895 42.58C216.548 42.58 217.162 42.4267 217.735 42.12C218.308 41.8133 218.768 41.3533 219.115 40.74C219.475 40.1267 219.655 39.38 219.655 38.5C219.655 37.62 219.482 36.8733 219.135 36.26C218.788 35.6467 218.335 35.1933 217.775 34.9C217.215 34.5933 216.608 34.44 215.955 34.44C215.288 34.44 214.675 34.5933 214.115 34.9C213.568 35.1933 213.128 35.6467 212.795 36.26C212.462 36.8733 212.295 37.62 212.295 38.5C212.295 39.3933 212.455 40.1467 212.775 40.76C213.108 41.3733 213.548 41.8333 214.095 42.14C214.642 42.4333 215.242 42.58 215.895 42.58ZM226.528 34.82C226.848 34.1933 227.301 33.7067 227.888 33.36C228.488 33.0133 229.215 32.84 230.068 32.84V34.72H229.588C227.548 34.72 226.528 35.8267 226.528 38.04V44H224.708V33.04H226.528V34.82ZM233.909 31.26C233.562 31.26 233.269 31.14 233.029 30.9C232.789 30.66 232.669 30.3667 232.669 30.02C232.669 29.6733 232.789 29.38 233.029 29.14C233.269 28.9 233.562 28.78 233.909 28.78C234.242 28.78 234.522 28.9 234.749 29.14C234.989 29.38 235.109 29.6733 235.109 30.02C235.109 30.3667 234.989 30.66 234.749 30.9C234.522 31.14 234.242 31.26 233.909 31.26ZM234.789 33.04V44H232.969V33.04H234.789ZM248.691 38.1C248.691 38.4467 248.671 38.8133 248.631 39.2H239.871C239.937 40.28 240.304 41.1267 240.971 41.74C241.651 42.34 242.471 42.64 243.431 42.64C244.217 42.64 244.871 42.46 245.391 42.1C245.924 41.7267 246.297 41.2333 246.511 40.62H248.471C248.177 41.6733 247.591 42.5333 246.711 43.2C245.831 43.8533 244.737 44.18 243.431 44.18C242.391 44.18 241.457 43.9467 240.631 43.48C239.817 43.0133 239.177 42.3533 238.711 41.5C238.244 40.6333 238.011 39.6333 238.011 38.5C238.011 37.3667 238.237 36.3733 238.691 35.52C239.144 34.6667 239.777 34.0133 240.591 33.56C241.417 33.0933 242.364 32.86 243.431 32.86C244.471 32.86 245.391 33.0867 246.191 33.54C246.991 33.9933 247.604 34.62 248.031 35.42C248.471 36.2067 248.691 37.1 248.691 38.1ZM246.811 37.72C246.811 37.0267 246.657 36.4333 246.351 35.94C246.044 35.4333 245.624 35.0533 245.091 34.8C244.571 34.5333 243.991 34.4 243.351 34.4C242.431 34.4 241.644 34.6933 240.991 35.28C240.351 35.8667 239.984 36.68 239.891 37.72H246.811ZM255.773 44.18C254.933 44.18 254.18 44.04 253.513 43.76C252.846 43.4667 252.32 43.0667 251.933 42.56C251.546 42.04 251.333 41.4467 251.293 40.78H253.173C253.226 41.3267 253.48 41.7733 253.933 42.12C254.4 42.4667 255.006 42.64 255.753 42.64C256.446 42.64 256.993 42.4867 257.393 42.18C257.793 41.8733 257.993 41.4867 257.993 41.02C257.993 40.54 257.78 40.1867 257.353 39.96C256.926 39.72 256.266 39.4867 255.373 39.26C254.56 39.0467 253.893 38.8333 253.373 38.62C252.866 38.3933 252.426 38.0667 252.053 37.64C251.693 37.2 251.513 36.6267 251.513 35.92C251.513 35.36 251.68 34.8467 252.013 34.38C252.346 33.9133 252.82 33.5467 253.433 33.28C254.046 33 254.746 32.86 255.533 32.86C256.746 32.86 257.726 33.1667 258.473 33.78C259.22 34.3933 259.62 35.2333 259.673 36.3H257.853C257.813 35.7267 257.58 35.2667 257.153 34.92C256.74 34.5733 256.18 34.4 255.473 34.4C254.82 34.4 254.3 34.54 253.913 34.82C253.526 35.1 253.333 35.4667 253.333 35.92C253.333 36.28 253.446 36.58 253.673 36.82C253.913 37.0467 254.206 37.2333 254.553 37.38C254.913 37.5133 255.406 37.6667 256.033 37.84C256.82 38.0533 257.46 38.2667 257.953 38.48C258.446 38.68 258.866 38.9867 259.213 39.4C259.573 39.8133 259.76 40.3533 259.773 41.02C259.773 41.62 259.606 42.16 259.273 42.64C258.94 43.12 258.466 43.5 257.853 43.78C257.253 44.0467 256.56 44.18 255.773 44.18ZM265.022 41.48L262.782 46.86H261.562L263.022 41.48H265.022ZM282.619 30.06V31.54H278.819V44H276.999V31.54H273.179V30.06H282.619ZM287.48 34.82C287.8 34.1933 288.253 33.7067 288.84 33.36C289.44 33.0133 290.166 32.84 291.02 32.84V34.72H290.54C288.5 34.72 287.48 35.8267 287.48 38.04V44H285.66V33.04H287.48V34.82ZM293.24 38.48C293.24 37.36 293.467 36.38 293.92 35.54C294.374 34.6867 294.994 34.0267 295.78 33.56C296.58 33.0933 297.467 32.86 298.44 32.86C299.4 32.86 300.234 33.0667 300.94 33.48C301.647 33.8933 302.174 34.4133 302.52 35.04V33.04H304.36V44H302.52V41.96C302.16 42.6 301.62 43.1333 300.9 43.56C300.194 43.9733 299.367 44.18 298.42 44.18C297.447 44.18 296.567 43.94 295.78 43.46C294.994 42.98 294.374 42.3067 293.92 41.44C293.467 40.5733 293.24 39.5867 293.24 38.48ZM302.52 38.5C302.52 37.6733 302.354 36.9533 302.02 36.34C301.687 35.7267 301.234 35.26 300.66 34.94C300.1 34.6067 299.48 34.44 298.8 34.44C298.12 34.44 297.5 34.6 296.94 34.92C296.38 35.24 295.934 35.7067 295.6 36.32C295.267 36.9333 295.1 37.6533 295.1 38.48C295.1 39.32 295.267 40.0533 295.6 40.68C295.934 41.2933 296.38 41.7667 296.94 42.1C297.5 42.42 298.12 42.58 298.8 42.58C299.48 42.58 300.1 42.42 300.66 42.1C301.234 41.7667 301.687 41.2933 302.02 40.68C302.354 40.0533 302.52 39.3267 302.52 38.5ZM307.556 38.5C307.556 37.3667 307.783 36.38 308.236 35.54C308.689 34.6867 309.316 34.0267 310.116 33.56C310.929 33.0933 311.856 32.86 312.896 32.86C314.243 32.86 315.349 33.1867 316.216 33.84C317.096 34.4933 317.676 35.4 317.956 36.56H315.996C315.809 35.8933 315.443 35.3667 314.896 34.98C314.363 34.5933 313.696 34.4 312.896 34.4C311.856 34.4 311.016 34.76 310.376 35.48C309.736 36.1867 309.416 37.1933 309.416 38.5C309.416 39.82 309.736 40.84 310.376 41.56C311.016 42.28 311.856 42.64 312.896 42.64C313.696 42.64 314.363 42.4533 314.896 42.08C315.429 41.7067 315.796 41.1733 315.996 40.48H317.956C317.663 41.6 317.076 42.5 316.196 43.18C315.316 43.8467 314.216 44.18 312.896 44.18C311.856 44.18 310.929 43.9467 310.116 43.48C309.316 43.0133 308.689 42.3533 308.236 41.5C307.783 40.6467 307.556 39.6467 307.556 38.5ZM327.305 44L323.005 39.16V44H321.185V29.2H323.005V37.9L327.225 33.04H329.765L324.605 38.5L329.785 44H327.305ZM348.17 30.06L343.63 38.74V44H341.81V38.74L337.25 30.06H339.27L342.71 37.12L346.15 30.06H348.17ZM355.669 44.18C354.643 44.18 353.709 43.9467 352.869 43.48C352.043 43.0133 351.389 42.3533 350.909 41.5C350.443 40.6333 350.209 39.6333 350.209 38.5C350.209 37.38 350.449 36.3933 350.929 35.54C351.423 34.6733 352.089 34.0133 352.929 33.56C353.769 33.0933 354.709 32.86 355.749 32.86C356.789 32.86 357.729 33.0933 358.569 33.56C359.409 34.0133 360.069 34.6667 360.549 35.52C361.043 36.3733 361.289 37.3667 361.289 38.5C361.289 39.6333 361.036 40.6333 360.529 41.5C360.036 42.3533 359.363 43.0133 358.509 43.48C357.656 43.9467 356.709 44.18 355.669 44.18ZM355.669 42.58C356.323 42.58 356.936 42.4267 357.509 42.12C358.083 41.8133 358.543 41.3533 358.889 40.74C359.249 40.1267 359.429 39.38 359.429 38.5C359.429 37.62 359.256 36.8733 358.909 36.26C358.563 35.6467 358.109 35.1933 357.549 34.9C356.989 34.5933 356.383 34.44 355.729 34.44C355.063 34.44 354.449 34.5933 353.889 34.9C353.343 35.1933 352.903 35.6467 352.569 36.26C352.236 36.8733 352.069 37.62 352.069 38.5C352.069 39.3933 352.229 40.1467 352.549 40.76C352.883 41.3733 353.323 41.8333 353.869 42.14C354.416 42.4333 355.016 42.58 355.669 42.58ZM374.202 33.04V44H372.382V42.38C372.036 42.94 371.549 43.38 370.922 43.7C370.309 44.0067 369.629 44.16 368.882 44.16C368.029 44.16 367.262 43.9867 366.582 43.64C365.902 43.28 365.362 42.7467 364.962 42.04C364.576 41.3333 364.382 40.4733 364.382 39.46V33.04H366.182V39.22C366.182 40.3 366.456 41.1333 367.002 41.72C367.549 42.2933 368.296 42.58 369.242 42.58C370.216 42.58 370.982 42.28 371.542 41.68C372.102 41.08 372.382 40.2067 372.382 39.06V33.04H374.202ZM379.895 34.82C380.215 34.1933 380.668 33.7067 381.255 33.36C381.855 33.0133 382.582 32.84 383.435 32.84V34.72H382.955C380.915 34.72 379.895 35.8267 379.895 38.04V44H378.075V33.04H379.895V34.82ZM391.788 37.02C391.788 35.66 392.095 34.44 392.708 33.36C393.321 32.2667 394.155 31.4133 395.208 30.8C396.275 30.1867 397.455 29.88 398.748 29.88C400.268 29.88 401.595 30.2467 402.728 30.98C403.861 31.7133 404.688 32.7533 405.208 34.1H403.028C402.641 33.26 402.081 32.6133 401.348 32.16C400.628 31.7067 399.761 31.48 398.748 31.48C397.775 31.48 396.901 31.7067 396.128 32.16C395.355 32.6133 394.748 33.26 394.308 34.1C393.868 34.9267 393.648 35.9 393.648 37.02C393.648 38.1267 393.868 39.1 394.308 39.94C394.748 40.7667 395.355 41.4067 396.128 41.86C396.901 42.3133 397.775 42.54 398.748 42.54C399.761 42.54 400.628 42.32 401.348 41.88C402.081 41.4267 402.641 40.78 403.028 39.94H405.208C404.688 41.2733 403.861 42.3067 402.728 43.04C401.595 43.76 400.268 44.12 398.748 44.12C397.455 44.12 396.275 43.82 395.208 43.22C394.155 42.6067 393.321 41.76 392.708 40.68C392.095 39.6 391.788 38.38 391.788 37.02ZM408.037 38.48C408.037 37.36 408.264 36.38 408.717 35.54C409.171 34.6867 409.791 34.0267 410.577 33.56C411.377 33.0933 412.264 32.86 413.237 32.86C414.197 32.86 415.031 33.0667 415.737 33.48C416.444 33.8933 416.971 34.4133 417.317 35.04V33.04H419.157V44H417.317V41.96C416.957 42.6 416.417 43.1333 415.697 43.56C414.991 43.9733 414.164 44.18 413.217 44.18C412.244 44.18 411.364 43.94 410.577 43.46C409.791 42.98 409.171 42.3067 408.717 41.44C408.264 40.5733 408.037 39.5867 408.037 38.48ZM417.317 38.5C417.317 37.6733 417.151 36.9533 416.817 36.34C416.484 35.7267 416.031 35.26 415.457 34.94C414.897 34.6067 414.277 34.44 413.597 34.44C412.917 34.44 412.297 34.6 411.737 34.92C411.177 35.24 410.731 35.7067 410.397 36.32C410.064 36.9333 409.897 37.6533 409.897 38.48C409.897 39.32 410.064 40.0533 410.397 40.68C410.731 41.2933 411.177 41.7667 411.737 42.1C412.297 42.42 412.917 42.58 413.597 42.58C414.277 42.58 414.897 42.42 415.457 42.1C416.031 41.7667 416.484 41.2933 416.817 40.68C417.151 40.0533 417.317 39.3267 417.317 38.5ZM424.853 29.2V44H423.033V29.2H424.853ZM433.535 44.18C432.508 44.18 431.575 43.9467 430.735 43.48C429.908 43.0133 429.255 42.3533 428.775 41.5C428.308 40.6333 428.075 39.6333 428.075 38.5C428.075 37.38 428.315 36.3933 428.795 35.54C429.288 34.6733 429.955 34.0133 430.795 33.56C431.635 33.0933 432.575 32.86 433.615 32.86C434.655 32.86 435.595 33.0933 436.435 33.56C437.275 34.0133 437.935 34.6667 438.415 35.52C438.908 36.3733 439.155 37.3667 439.155 38.5C439.155 39.6333 438.902 40.6333 438.395 41.5C437.902 42.3533 437.228 43.0133 436.375 43.48C435.522 43.9467 434.575 44.18 433.535 44.18ZM433.535 42.58C434.188 42.58 434.802 42.4267 435.375 42.12C435.948 41.8133 436.408 41.3533 436.755 40.74C437.115 40.1267 437.295 39.38 437.295 38.5C437.295 37.62 437.122 36.8733 436.775 36.26C436.428 35.6467 435.975 35.1933 435.415 34.9C434.855 34.5933 434.248 34.44 433.595 34.44C432.928 34.44 432.315 34.5933 431.755 34.9C431.208 35.1933 430.768 35.6467 430.435 36.26C430.102 36.8733 429.935 37.62 429.935 38.5C429.935 39.3933 430.095 40.1467 430.415 40.76C430.748 41.3733 431.188 41.8333 431.735 42.14C432.282 42.4333 432.882 42.58 433.535 42.58ZM444.168 34.82C444.488 34.1933 444.941 33.7067 445.528 33.36C446.128 33.0133 446.854 32.84 447.708 32.84V34.72H447.228C445.188 34.72 444.168 35.8267 444.168 38.04V44H442.348V33.04H444.168V34.82ZM451.549 31.26C451.202 31.26 450.909 31.14 450.669 30.9C450.429 30.66 450.309 30.3667 450.309 30.02C450.309 29.6733 450.429 29.38 450.669 29.14C450.909 28.9 451.202 28.78 451.549 28.78C451.882 28.78 452.162 28.9 452.389 29.14C452.629 29.38 452.749 29.6733 452.749 30.02C452.749 30.3667 452.629 30.66 452.389 30.9C452.162 31.14 451.882 31.26 451.549 31.26ZM452.429 33.04V44H450.609V33.04H452.429ZM466.331 38.1C466.331 38.4467 466.311 38.8133 466.271 39.2H457.511C457.577 40.28 457.944 41.1267 458.611 41.74C459.291 42.34 460.111 42.64 461.071 42.64C461.857 42.64 462.511 42.46 463.031 42.1C463.564 41.7267 463.937 41.2333 464.151 40.62H466.111C465.817 41.6733 465.231 42.5333 464.351 43.2C463.471 43.8533 462.377 44.18 461.071 44.18C460.031 44.18 459.097 43.9467 458.271 43.48C457.457 43.0133 456.817 42.3533 456.351 41.5C455.884 40.6333 455.651 39.6333 455.651 38.5C455.651 37.3667 455.877 36.3733 456.331 35.52C456.784 34.6667 457.417 34.0133 458.231 33.56C459.057 33.0933 460.004 32.86 461.071 32.86C462.111 32.86 463.031 33.0867 463.831 33.54C464.631 33.9933 465.244 34.62 465.671 35.42C466.111 36.2067 466.331 37.1 466.331 38.1ZM464.451 37.72C464.451 37.0267 464.297 36.4333 463.991 35.94C463.684 35.4333 463.264 35.0533 462.731 34.8C462.211 34.5333 461.631 34.4 460.991 34.4C460.071 34.4 459.284 34.6933 458.631 35.28C457.991 35.8667 457.624 36.68 457.531 37.72H464.451ZM473.413 44.18C472.573 44.18 471.82 44.04 471.153 43.76C470.486 43.4667 469.96 43.0667 469.573 42.56C469.186 42.04 468.973 41.4467 468.933 40.78H470.813C470.866 41.3267 471.12 41.7733 471.573 42.12C472.04 42.4667 472.646 42.64 473.393 42.64C474.086 42.64 474.633 42.4867 475.033 42.18C475.433 41.8733 475.633 41.4867 475.633 41.02C475.633 40.54 475.42 40.1867 474.993 39.96C474.566 39.72 473.906 39.4867 473.013 39.26C472.2 39.0467 471.533 38.8333 471.013 38.62C470.506 38.3933 470.066 38.0667 469.693 37.64C469.333 37.2 469.153 36.6267 469.153 35.92C469.153 35.36 469.32 34.8467 469.653 34.38C469.986 33.9133 470.46 33.5467 471.073 33.28C471.686 33 472.386 32.86 473.173 32.86C474.386 32.86 475.366 33.1667 476.113 33.78C476.86 34.3933 477.26 35.2333 477.313 36.3H475.493C475.453 35.7267 475.22 35.2667 474.793 34.92C474.38 34.5733 473.82 34.4 473.113 34.4C472.46 34.4 471.94 34.54 471.553 34.82C471.166 35.1 470.973 35.4667 470.973 35.92C470.973 36.28 471.086 36.58 471.313 36.82C471.553 37.0467 471.846 37.2333 472.193 37.38C472.553 37.5133 473.046 37.6667 473.673 37.84C474.46 38.0533 475.1 38.2667 475.593 38.48C476.086 38.68 476.506 38.9867 476.853 39.4C477.213 39.8133 477.4 40.3533 477.413 41.02C477.413 41.62 477.246 42.16 476.913 42.64C476.58 43.12 476.106 43.5 475.493 43.78C474.893 44.0467 474.2 44.18 473.413 44.18ZM482.662 41.48L480.422 46.86H479.202L480.662 41.48H482.662ZM490.999 38.48C490.999 37.36 491.226 36.38 491.679 35.54C492.132 34.6867 492.752 34.0267 493.539 33.56C494.339 33.0933 495.226 32.86 496.199 32.86C497.159 32.86 497.992 33.0667 498.699 33.48C499.406 33.8933 499.932 34.4133 500.279 35.04V33.04H502.119V44H500.279V41.96C499.919 42.6 499.379 43.1333 498.659 43.56C497.952 43.9733 497.126 44.18 496.179 44.18C495.206 44.18 494.326 43.94 493.539 43.46C492.752 42.98 492.132 42.3067 491.679 41.44C491.226 40.5733 490.999 39.5867 490.999 38.48ZM500.279 38.5C500.279 37.6733 500.112 36.9533 499.779 36.34C499.446 35.7267 498.992 35.26 498.419 34.94C497.859 34.6067 497.239 34.44 496.559 34.44C495.879 34.44 495.259 34.6 494.699 34.92C494.139 35.24 493.692 35.7067 493.359 36.32C493.026 36.9333 492.859 37.6533 492.859 38.48C492.859 39.32 493.026 40.0533 493.359 40.68C493.692 41.2933 494.139 41.7667 494.699 42.1C495.259 42.42 495.879 42.58 496.559 42.58C497.239 42.58 497.859 42.42 498.419 42.1C498.992 41.7667 499.446 41.2933 499.779 40.68C500.112 40.0533 500.279 39.3267 500.279 38.5ZM511.335 32.84C512.668 32.84 513.748 33.2467 514.575 34.06C515.401 34.86 515.815 36.02 515.815 37.54V44H514.015V37.8C514.015 36.7067 513.741 35.8733 513.195 35.3C512.648 34.7133 511.901 34.42 510.955 34.42C509.995 34.42 509.228 34.72 508.655 35.32C508.095 35.92 507.815 36.7933 507.815 37.94V44H505.995V33.04H507.815V34.6C508.175 34.04 508.661 33.6067 509.275 33.3C509.901 32.9933 510.588 32.84 511.335 32.84ZM518.908 38.48C518.908 37.36 519.134 36.38 519.588 35.54C520.041 34.6867 520.661 34.0267 521.448 33.56C522.248 33.0933 523.141 32.86 524.128 32.86C524.981 32.86 525.774 33.06 526.508 33.46C527.241 33.8467 527.801 34.36 528.188 35V29.2H530.028V44H528.188V41.94C527.828 42.5933 527.294 43.1333 526.588 43.56C525.881 43.9733 525.054 44.18 524.108 44.18C523.134 44.18 522.248 43.94 521.448 43.46C520.661 42.98 520.041 42.3067 519.588 41.44C519.134 40.5733 518.908 39.5867 518.908 38.48ZM528.188 38.5C528.188 37.6733 528.021 36.9533 527.688 36.34C527.354 35.7267 526.901 35.26 526.328 34.94C525.768 34.6067 525.148 34.44 524.468 34.44C523.788 34.44 523.168 34.6 522.608 34.92C522.048 35.24 521.601 35.7067 521.268 36.32C520.934 36.9333 520.768 37.6533 520.768 38.48C520.768 39.32 520.934 40.0533 521.268 40.68C521.601 41.2933 522.048 41.7667 522.608 42.1C523.168 42.42 523.788 42.58 524.468 42.58C525.148 42.58 525.768 42.42 526.328 42.1C526.901 41.7667 527.354 41.2933 527.688 40.68C528.021 40.0533 528.188 39.3267 528.188 38.5ZM541.855 31.54V36.2H546.935V37.7H541.855V42.5H547.535V44H540.035V30.04H547.535V31.54H541.855ZM556.429 32.84C557.763 32.84 558.843 33.2467 559.669 34.06C560.496 34.86 560.909 36.02 560.909 37.54V44H559.109V37.8C559.109 36.7067 558.836 35.8733 558.289 35.3C557.743 34.7133 556.996 34.42 556.049 34.42C555.089 34.42 554.323 34.72 553.749 35.32C553.189 35.92 552.909 36.7933 552.909 37.94V44H551.089V33.04H552.909V34.6C553.269 34.04 553.756 33.6067 554.369 33.3C554.996 32.9933 555.683 32.84 556.429 32.84ZM565.662 31.26C565.316 31.26 565.022 31.14 564.782 30.9C564.556 30.66 564.442 30.3667 564.442 30.02C564.442 29.6733 564.556 29.38 564.782 29.14C565.022 28.9 565.316 28.78 565.662 28.78C566.009 28.78 566.296 28.9 566.522 29.14C566.762 29.38 566.882 29.6733 566.882 30.02C566.882 30.3667 566.762 30.66 566.522 30.9C566.296 31.14 566.009 31.26 565.662 31.26ZM566.562 46.38C566.562 47.3533 566.316 48.0667 565.822 48.52C565.329 48.9733 564.609 49.2 563.662 49.2H562.602V47.66H563.362C563.869 47.66 564.222 47.56 564.422 47.36C564.636 47.16 564.742 46.82 564.742 46.34V33.04H566.562V46.38ZM575.223 44.18C574.196 44.18 573.263 43.9467 572.423 43.48C571.596 43.0133 570.943 42.3533 570.463 41.5C569.996 40.6333 569.763 39.6333 569.763 38.5C569.763 37.38 570.003 36.3933 570.483 35.54C570.976 34.6733 571.643 34.0133 572.483 33.56C573.323 33.0933 574.263 32.86 575.303 32.86C576.343 32.86 577.283 33.0933 578.123 33.56C578.963 34.0133 579.623 34.6667 580.103 35.52C580.596 36.3733 580.843 37.3667 580.843 38.5C580.843 39.6333 580.59 40.6333 580.083 41.5C579.59 42.3533 578.916 43.0133 578.063 43.48C577.21 43.9467 576.263 44.18 575.223 44.18ZM575.223 42.58C575.876 42.58 576.49 42.4267 577.063 42.12C577.636 41.8133 578.096 41.3533 578.443 40.74C578.803 40.1267 578.983 39.38 578.983 38.5C578.983 37.62 578.81 36.8733 578.463 36.26C578.116 35.6467 577.663 35.1933 577.103 34.9C576.543 34.5933 575.936 34.44 575.283 34.44C574.616 34.44 574.003 34.5933 573.443 34.9C572.896 35.1933 572.456 35.6467 572.123 36.26C571.79 36.8733 571.623 37.62 571.623 38.5C571.623 39.3933 571.783 40.1467 572.103 40.76C572.436 41.3733 572.876 41.8333 573.423 42.14C573.97 42.4333 574.57 42.58 575.223 42.58ZM593.476 33.04L586.876 49.16H584.996L587.156 43.88L582.736 33.04H584.756L588.196 41.92L591.596 33.04H593.476ZM3.76 62.54V69C3.76 69.5333 3.87333 69.9133 4.1 70.14C4.32667 70.3533 4.72 70.46 5.28 70.46H6.62V72H4.98C3.96667 72 3.20667 71.7667 2.7 71.3C2.19333 70.8333 1.94 70.0667 1.94 69V62.54H0.52V61.04H1.94V58.28H3.76V61.04H6.62V62.54H3.76ZM15.0652 60.84C15.8918 60.84 16.6385 61.02 17.3052 61.38C17.9718 61.7267 18.4918 62.2533 18.8652 62.96C19.2518 63.6667 19.4452 64.5267 19.4452 65.54V72H17.6452V65.8C17.6452 64.7067 17.3718 63.8733 16.8252 63.3C16.2785 62.7133 15.5318 62.42 14.5852 62.42C13.6252 62.42 12.8585 62.72 12.2852 63.32C11.7252 63.92 11.4452 64.7933 11.4452 65.94V72H9.62516V57.2H11.4452V62.6C11.8052 62.04 12.2985 61.6067 12.9252 61.3C13.5652 60.9933 14.2785 60.84 15.0652 60.84ZM33.2181 66.1C33.2181 66.4467 33.1981 66.8133 33.1581 67.2H24.3981C24.4648 68.28 24.8315 69.1267 25.4981 69.74C26.1781 70.34 26.9981 70.64 27.9581 70.64C28.7448 70.64 29.3981 70.46 29.9181 70.1C30.4515 69.7267 30.8248 69.2333 31.0381 68.62H32.9981C32.7048 69.6733 32.1181 70.5333 31.2381 71.2C30.3581 71.8533 29.2648 72.18 27.9581 72.18C26.9181 72.18 25.9848 71.9467 25.1581 71.48C24.3448 71.0133 23.7048 70.3533 23.2381 69.5C22.7715 68.6333 22.5381 67.6333 22.5381 66.5C22.5381 65.3667 22.7648 64.3733 23.2181 63.52C23.6715 62.6667 24.3048 62.0133 25.1181 61.56C25.9448 61.0933 26.8915 60.86 27.9581 60.86C28.9981 60.86 29.9181 61.0867 30.7181 61.54C31.5181 61.9933 32.1315 62.62 32.5581 63.42C32.9981 64.2067 33.2181 65.1 33.2181 66.1ZM31.3381 65.72C31.3381 65.0267 31.1848 64.4333 30.8781 63.94C30.5715 63.4333 30.1515 63.0533 29.6181 62.8C29.0981 62.5333 28.5181 62.4 27.8781 62.4C26.9581 62.4 26.1715 62.6933 25.5181 63.28C24.8781 63.8667 24.5115 64.68 24.4181 65.72H31.3381ZM51.8725 62.14C51.8725 63.3 51.4725 64.2667 50.6725 65.04C49.8858 65.8 48.6792 66.18 47.0525 66.18H44.3725V72H42.5525V58.06H47.0525C48.6258 58.06 49.8192 58.44 50.6325 59.2C51.4592 59.96 51.8725 60.94 51.8725 62.14ZM47.0525 64.68C48.0658 64.68 48.8125 64.46 49.2925 64.02C49.7725 63.58 50.0125 62.9533 50.0125 62.14C50.0125 60.42 49.0258 59.56 47.0525 59.56H44.3725V64.68H47.0525ZM64.9345 66.1C64.9345 66.4467 64.9145 66.8133 64.8745 67.2H56.1145C56.1812 68.28 56.5479 69.1267 57.2145 69.74C57.8945 70.34 58.7145 70.64 59.6745 70.64C60.4612 70.64 61.1145 70.46 61.6345 70.1C62.1679 69.7267 62.5412 69.2333 62.7545 68.62H64.7145C64.4212 69.6733 63.8345 70.5333 62.9545 71.2C62.0745 71.8533 60.9812 72.18 59.6745 72.18C58.6345 72.18 57.7012 71.9467 56.8745 71.48C56.0612 71.0133 55.4212 70.3533 54.9545 69.5C54.4879 68.6333 54.2545 67.6333 54.2545 66.5C54.2545 65.3667 54.4812 64.3733 54.9345 63.52C55.3879 62.6667 56.0212 62.0133 56.8345 61.56C57.6612 61.0933 58.6079 60.86 59.6745 60.86C60.7145 60.86 61.6345 61.0867 62.4345 61.54C63.2345 61.9933 63.8479 62.62 64.2745 63.42C64.7145 64.2067 64.9345 65.1 64.9345 66.1ZM63.0545 65.72C63.0545 65.0267 62.9012 64.4333 62.5945 63.94C62.2879 63.4333 61.8679 63.0533 61.3345 62.8C60.8145 62.5333 60.2345 62.4 59.5945 62.4C58.6745 62.4 57.8879 62.6933 57.2345 63.28C56.5945 63.8667 56.2279 64.68 56.1345 65.72H63.0545ZM69.9569 62.82C70.2769 62.1933 70.7302 61.7067 71.3169 61.36C71.9169 61.0133 72.6435 60.84 73.4969 60.84V62.72H73.0169C70.9769 62.72 69.9569 63.8267 69.9569 66.04V72H68.1369V61.04H69.9569V62.82ZM80.8578 62.54H78.5578V72H76.7378V62.54H75.3178V61.04H76.7378V60.26C76.7378 59.0333 77.0511 58.14 77.6778 57.58C78.3178 57.0067 79.3378 56.72 80.7378 56.72V58.24C79.9378 58.24 79.3711 58.4 79.0378 58.72C78.7178 59.0267 78.5578 59.54 78.5578 60.26V61.04H80.8578V62.54ZM93.7798 66.1C93.7798 66.4467 93.7598 66.8133 93.7198 67.2H84.9598C85.0265 68.28 85.3932 69.1267 86.0598 69.74C86.7398 70.34 87.5598 70.64 88.5198 70.64C89.3065 70.64 89.9598 70.46 90.4798 70.1C91.0132 69.7267 91.3865 69.2333 91.5998 68.62H93.5598C93.2665 69.6733 92.6798 70.5333 91.7998 71.2C90.9198 71.8533 89.8265 72.18 88.5198 72.18C87.4798 72.18 86.5465 71.9467 85.7198 71.48C84.9065 71.0133 84.2665 70.3533 83.7998 69.5C83.3332 68.6333 83.0998 67.6333 83.0998 66.5C83.0998 65.3667 83.3265 64.3733 83.7798 63.52C84.2332 62.6667 84.8665 62.0133 85.6798 61.56C86.5065 61.0933 87.4532 60.86 88.5198 60.86C89.5598 60.86 90.4798 61.0867 91.2798 61.54C92.0798 61.9933 92.6932 62.62 93.1198 63.42C93.5598 64.2067 93.7798 65.1 93.7798 66.1ZM91.8998 65.72C91.8998 65.0267 91.7465 64.4333 91.4398 63.94C91.1332 63.4333 90.7132 63.0533 90.1798 62.8C89.6598 62.5333 89.0798 62.4 88.4398 62.4C87.5198 62.4 86.7332 62.6933 86.0798 63.28C85.4398 63.8667 85.0732 64.68 84.9798 65.72H91.8998ZM96.3022 66.5C96.3022 65.3667 96.5289 64.38 96.9822 63.54C97.4355 62.6867 98.0622 62.0267 98.8622 61.56C99.6755 61.0933 100.602 60.86 101.642 60.86C102.989 60.86 104.096 61.1867 104.962 61.84C105.842 62.4933 106.422 63.4 106.702 64.56H104.742C104.556 63.8933 104.189 63.3667 103.642 62.98C103.109 62.5933 102.442 62.4 101.642 62.4C100.602 62.4 99.7622 62.76 99.1222 63.48C98.4822 64.1867 98.1622 65.1933 98.1622 66.5C98.1622 67.82 98.4822 68.84 99.1222 69.56C99.7622 70.28 100.602 70.64 101.642 70.64C102.442 70.64 103.109 70.4533 103.642 70.08C104.176 69.7067 104.542 69.1733 104.742 68.48H106.702C106.409 69.6 105.822 70.5 104.942 71.18C104.062 71.8467 102.962 72.18 101.642 72.18C100.602 72.18 99.6755 71.9467 98.8622 71.48C98.0622 71.0133 97.4355 70.3533 96.9822 69.5C96.5289 68.6467 96.3022 67.6467 96.3022 66.5ZM112.151 62.54V69C112.151 69.5333 112.264 69.9133 112.491 70.14C112.717 70.3533 113.111 70.46 113.671 70.46H115.011V72H113.371C112.357 72 111.597 71.7667 111.091 71.3C110.584 70.8333 110.331 70.0667 110.331 69V62.54H108.911V61.04H110.331V58.28H112.151V61.04H115.011V62.54H112.151ZM131.128 64.82C131.634 64.9 132.094 65.1067 132.508 65.44C132.934 65.7733 133.268 66.1867 133.508 66.68C133.761 67.1733 133.888 67.7 133.888 68.26C133.888 68.9667 133.708 69.6067 133.348 70.18C132.988 70.74 132.461 71.1867 131.768 71.52C131.088 71.84 130.281 72 129.348 72H124.148V58.06H129.148C130.094 58.06 130.901 58.22 131.568 58.54C132.234 58.8467 132.734 59.2667 133.068 59.8C133.401 60.3333 133.568 60.9333 133.568 61.6C133.568 62.4267 133.341 63.1133 132.888 63.66C132.448 64.1933 131.861 64.58 131.128 64.82ZM125.968 64.08H129.028C129.881 64.08 130.541 63.88 131.008 63.48C131.474 63.08 131.708 62.5267 131.708 61.82C131.708 61.1133 131.474 60.56 131.008 60.16C130.541 59.76 129.868 59.56 128.988 59.56H125.968V64.08ZM129.188 70.5C130.094 70.5 130.801 70.2867 131.308 69.86C131.814 69.4333 132.068 68.84 132.068 68.08C132.068 67.3067 131.801 66.7 131.268 66.26C130.734 65.8067 130.021 65.58 129.128 65.58H125.968V70.5H129.188ZM136.533 66.48C136.533 65.36 136.76 64.38 137.213 63.54C137.667 62.6867 138.287 62.0267 139.073 61.56C139.873 61.0933 140.76 60.86 141.733 60.86C142.693 60.86 143.527 61.0667 144.233 61.48C144.94 61.8933 145.467 62.4133 145.813 63.04V61.04H147.653V72H145.813V69.96C145.453 70.6 144.913 71.1333 144.193 71.56C143.487 71.9733 142.66 72.18 141.713 72.18C140.74 72.18 139.86 71.94 139.073 71.46C138.287 70.98 137.667 70.3067 137.213 69.44C136.76 68.5733 136.533 67.5867 136.533 66.48ZM145.813 66.5C145.813 65.6733 145.647 64.9533 145.313 64.34C144.98 63.7267 144.527 63.26 143.953 62.94C143.393 62.6067 142.773 62.44 142.093 62.44C141.413 62.44 140.793 62.6 140.233 62.92C139.673 63.24 139.227 63.7067 138.893 64.32C138.56 64.9333 138.393 65.6533 138.393 66.48C138.393 67.32 138.56 68.0533 138.893 68.68C139.227 69.2933 139.673 69.7667 140.233 70.1C140.793 70.42 141.413 70.58 142.093 70.58C142.773 70.58 143.393 70.42 143.953 70.1C144.527 69.7667 144.98 69.2933 145.313 68.68C145.647 68.0533 145.813 67.3267 145.813 66.5ZM153.349 57.2V72H151.529V57.2H153.349ZM156.571 66.48C156.571 65.36 156.798 64.38 157.251 63.54C157.704 62.6867 158.324 62.0267 159.111 61.56C159.911 61.0933 160.798 60.86 161.771 60.86C162.731 60.86 163.564 61.0667 164.271 61.48C164.978 61.8933 165.504 62.4133 165.851 63.04V61.04H167.691V72H165.851V69.96C165.491 70.6 164.951 71.1333 164.231 71.56C163.524 71.9733 162.698 72.18 161.751 72.18C160.778 72.18 159.898 71.94 159.111 71.46C158.324 70.98 157.704 70.3067 157.251 69.44C156.798 68.5733 156.571 67.5867 156.571 66.48ZM165.851 66.5C165.851 65.6733 165.684 64.9533 165.351 64.34C165.018 63.7267 164.564 63.26 163.991 62.94C163.431 62.6067 162.811 62.44 162.131 62.44C161.451 62.44 160.831 62.6 160.271 62.92C159.711 63.24 159.264 63.7067 158.931 64.32C158.598 64.9333 158.431 65.6533 158.431 66.48C158.431 67.32 158.598 68.0533 158.931 68.68C159.264 69.2933 159.711 69.7667 160.271 70.1C160.831 70.42 161.451 70.58 162.131 70.58C162.811 70.58 163.431 70.42 163.991 70.1C164.564 69.7667 165.018 69.2933 165.351 68.68C165.684 68.0533 165.851 67.3267 165.851 66.5ZM176.907 60.84C178.24 60.84 179.32 61.2467 180.147 62.06C180.973 62.86 181.387 64.02 181.387 65.54V72H179.587V65.8C179.587 64.7067 179.313 63.8733 178.767 63.3C178.22 62.7133 177.473 62.42 176.527 62.42C175.567 62.42 174.8 62.72 174.227 63.32C173.667 63.92 173.387 64.7933 173.387 65.94V72H171.567V61.04H173.387V62.6C173.747 62.04 174.233 61.6067 174.847 61.3C175.473 60.9933 176.16 60.84 176.907 60.84ZM184.48 66.5C184.48 65.3667 184.706 64.38 185.16 63.54C185.613 62.6867 186.24 62.0267 187.04 61.56C187.853 61.0933 188.78 60.86 189.82 60.86C191.166 60.86 192.273 61.1867 193.14 61.84C194.02 62.4933 194.6 63.4 194.88 64.56H192.92C192.733 63.8933 192.366 63.3667 191.82 62.98C191.286 62.5933 190.62 62.4 189.82 62.4C188.78 62.4 187.94 62.76 187.3 63.48C186.66 64.1867 186.34 65.1933 186.34 66.5C186.34 67.82 186.66 68.84 187.3 69.56C187.94 70.28 188.78 70.64 189.82 70.64C190.62 70.64 191.286 70.4533 191.82 70.08C192.353 69.7067 192.72 69.1733 192.92 68.48H194.88C194.586 69.6 194 70.5 193.12 71.18C192.24 71.8467 191.14 72.18 189.82 72.18C188.78 72.18 187.853 71.9467 187.04 71.48C186.24 71.0133 185.613 70.3533 185.16 69.5C184.706 68.6467 184.48 67.6467 184.48 66.5ZM208.108 66.1C208.108 66.4467 208.088 66.8133 208.048 67.2H199.288C199.355 68.28 199.721 69.1267 200.388 69.74C201.068 70.34 201.888 70.64 202.848 70.64C203.635 70.64 204.288 70.46 204.808 70.1C205.341 69.7267 205.715 69.2333 205.928 68.62H207.888C207.595 69.6733 207.008 70.5333 206.128 71.2C205.248 71.8533 204.155 72.18 202.848 72.18C201.808 72.18 200.875 71.9467 200.048 71.48C199.235 71.0133 198.595 70.3533 198.128 69.5C197.661 68.6333 197.428 67.6333 197.428 66.5C197.428 65.3667 197.655 64.3733 198.108 63.52C198.561 62.6667 199.195 62.0133 200.008 61.56C200.835 61.0933 201.781 60.86 202.848 60.86C203.888 60.86 204.808 61.0867 205.608 61.54C206.408 61.9933 207.021 62.62 207.448 63.42C207.888 64.2067 208.108 65.1 208.108 66.1ZM206.228 65.72C206.228 65.0267 206.075 64.4333 205.768 63.94C205.461 63.4333 205.041 63.0533 204.508 62.8C203.988 62.5333 203.408 62.4 202.768 62.4C201.848 62.4 201.061 62.6933 200.408 63.28C199.768 63.8667 199.401 64.68 199.308 65.72H206.228ZM224.422 64.82C224.929 64.9 225.389 65.1067 225.802 65.44C226.229 65.7733 226.562 66.1867 226.802 66.68C227.056 67.1733 227.182 67.7 227.182 68.26C227.182 68.9667 227.002 69.6067 226.642 70.18C226.282 70.74 225.756 71.1867 225.062 71.52C224.382 71.84 223.576 72 222.642 72H217.442V58.06H222.442C223.389 58.06 224.196 58.22 224.862 58.54C225.529 58.8467 226.029 59.2667 226.362 59.8C226.696 60.3333 226.862 60.9333 226.862 61.6C226.862 62.4267 226.636 63.1133 226.182 63.66C225.742 64.1933 225.156 64.58 224.422 64.82ZM219.262 64.08H222.322C223.176 64.08 223.836 63.88 224.302 63.48C224.769 63.08 225.002 62.5267 225.002 61.82C225.002 61.1133 224.769 60.56 224.302 60.16C223.836 59.76 223.162 59.56 222.282 59.56H219.262V64.08ZM222.482 70.5C223.389 70.5 224.096 70.2867 224.602 69.86C225.109 69.4333 225.362 68.84 225.362 68.08C225.362 67.3067 225.096 66.7 224.562 66.26C224.029 65.8067 223.316 65.58 222.422 65.58H219.262V70.5H222.482ZM240.508 66.1C240.508 66.4467 240.488 66.8133 240.448 67.2H231.688C231.755 68.28 232.121 69.1267 232.788 69.74C233.468 70.34 234.288 70.64 235.248 70.64C236.035 70.64 236.688 70.46 237.208 70.1C237.741 69.7267 238.115 69.2333 238.328 68.62H240.288C239.995 69.6733 239.408 70.5333 238.528 71.2C237.648 71.8533 236.555 72.18 235.248 72.18C234.208 72.18 233.275 71.9467 232.448 71.48C231.635 71.0133 230.995 70.3533 230.528 69.5C230.061 68.6333 229.828 67.6333 229.828 66.5C229.828 65.3667 230.055 64.3733 230.508 63.52C230.961 62.6667 231.595 62.0133 232.408 61.56C233.235 61.0933 234.181 60.86 235.248 60.86C236.288 60.86 237.208 61.0867 238.008 61.54C238.808 61.9933 239.421 62.62 239.848 63.42C240.288 64.2067 240.508 65.1 240.508 66.1ZM238.628 65.72C238.628 65.0267 238.475 64.4333 238.168 63.94C237.861 63.4333 237.441 63.0533 236.908 62.8C236.388 62.5333 235.808 62.4 235.168 62.4C234.248 62.4 233.461 62.6933 232.808 63.28C232.168 63.8667 231.801 64.68 231.708 65.72H238.628ZM245.93 62.54V69C245.93 69.5333 246.044 69.9133 246.27 70.14C246.497 70.3533 246.89 70.46 247.45 70.46H248.79V72H247.15C246.137 72 245.377 71.7667 244.87 71.3C244.364 70.8333 244.11 70.0667 244.11 69V62.54H242.69V61.04H244.11V58.28H245.93V61.04H248.79V62.54H245.93ZM266.395 61.04L262.975 72H261.095L258.455 63.3L255.815 72H253.935L250.495 61.04H252.355L254.875 70.24L257.595 61.04H259.455L262.115 70.26L264.595 61.04H266.395ZM279.002 66.1C279.002 66.4467 278.982 66.8133 278.942 67.2H270.182C270.248 68.28 270.615 69.1267 271.282 69.74C271.962 70.34 272.782 70.64 273.742 70.64C274.528 70.64 275.182 70.46 275.702 70.1C276.235 69.7267 276.608 69.2333 276.822 68.62H278.782C278.488 69.6733 277.902 70.5333 277.022 71.2C276.142 71.8533 275.048 72.18 273.742 72.18C272.702 72.18 271.768 71.9467 270.942 71.48C270.128 71.0133 269.488 70.3533 269.022 69.5C268.555 68.6333 268.322 67.6333 268.322 66.5C268.322 65.3667 268.548 64.3733 269.002 63.52C269.455 62.6667 270.088 62.0133 270.902 61.56C271.728 61.0933 272.675 60.86 273.742 60.86C274.782 60.86 275.702 61.0867 276.502 61.54C277.302 61.9933 277.915 62.62 278.342 63.42C278.782 64.2067 279.002 65.1 279.002 66.1ZM277.122 65.72C277.122 65.0267 276.968 64.4333 276.662 63.94C276.355 63.4333 275.935 63.0533 275.402 62.8C274.882 62.5333 274.302 62.4 273.662 62.4C272.742 62.4 271.955 62.6933 271.302 63.28C270.662 63.8667 270.295 64.68 270.202 65.72H277.122ZM292.204 66.1C292.204 66.4467 292.184 66.8133 292.144 67.2H283.384C283.451 68.28 283.817 69.1267 284.484 69.74C285.164 70.34 285.984 70.64 286.944 70.64C287.731 70.64 288.384 70.46 288.904 70.1C289.437 69.7267 289.811 69.2333 290.024 68.62H291.984C291.691 69.6733 291.104 70.5333 290.224 71.2C289.344 71.8533 288.251 72.18 286.944 72.18C285.904 72.18 284.971 71.9467 284.144 71.48C283.331 71.0133 282.691 70.3533 282.224 69.5C281.757 68.6333 281.524 67.6333 281.524 66.5C281.524 65.3667 281.751 64.3733 282.204 63.52C282.657 62.6667 283.291 62.0133 284.104 61.56C284.931 61.0933 285.877 60.86 286.944 60.86C287.984 60.86 288.904 61.0867 289.704 61.54C290.504 61.9933 291.117 62.62 291.544 63.42C291.984 64.2067 292.204 65.1 292.204 66.1ZM290.324 65.72C290.324 65.0267 290.171 64.4333 289.864 63.94C289.557 63.4333 289.137 63.0533 288.604 62.8C288.084 62.5333 287.504 62.4 286.864 62.4C285.944 62.4 285.157 62.6933 284.504 63.28C283.864 63.8667 283.497 64.68 283.404 65.72H290.324ZM300.746 60.84C302.08 60.84 303.16 61.2467 303.986 62.06C304.813 62.86 305.226 64.02 305.226 65.54V72H303.426V65.8C303.426 64.7067 303.153 63.8733 302.606 63.3C302.06 62.7133 301.313 62.42 300.366 62.42C299.406 62.42 298.64 62.72 298.066 63.32C297.506 63.92 297.226 64.7933 297.226 65.94V72H295.406V61.04H297.226V62.6C297.586 62.04 298.073 61.6067 298.686 61.3C299.313 60.9933 300 60.84 300.746 60.84ZM323.011 58.06V59.54H316.951V64.24H321.871V65.72H316.951V72H315.131V58.06H323.011ZM327.83 57.2V72H326.01V57.2H327.83ZM331.051 66.48C331.051 65.36 331.278 64.38 331.731 63.54C332.185 62.6867 332.805 62.0267 333.591 61.56C334.391 61.0933 335.278 60.86 336.251 60.86C337.211 60.86 338.045 61.0667 338.751 61.48C339.458 61.8933 339.985 62.4133 340.331 63.04V61.04H342.171V72H340.331V69.96C339.971 70.6 339.431 71.1333 338.711 71.56C338.005 71.9733 337.178 72.18 336.231 72.18C335.258 72.18 334.378 71.94 333.591 71.46C332.805 70.98 332.185 70.3067 331.731 69.44C331.278 68.5733 331.051 67.5867 331.051 66.48ZM340.331 66.5C340.331 65.6733 340.165 64.9533 339.831 64.34C339.498 63.7267 339.045 63.26 338.471 62.94C337.911 62.6067 337.291 62.44 336.611 62.44C335.931 62.44 335.311 62.6 334.751 62.92C334.191 63.24 333.745 63.7067 333.411 64.32C333.078 64.9333 332.911 65.6533 332.911 66.48C332.911 67.32 333.078 68.0533 333.411 68.68C333.745 69.2933 334.191 69.7667 334.751 70.1C335.311 70.42 335.931 70.58 336.611 70.58C337.291 70.58 337.911 70.42 338.471 70.1C339.045 69.7667 339.498 69.2933 339.831 68.68C340.165 68.0533 340.331 67.3267 340.331 66.5ZM350.127 70.32L353.527 61.04H355.467L351.167 72H349.047L344.747 61.04H346.707L350.127 70.32ZM362.838 72.18C361.811 72.18 360.878 71.9467 360.038 71.48C359.211 71.0133 358.558 70.3533 358.078 69.5C357.611 68.6333 357.378 67.6333 357.378 66.5C357.378 65.38 357.618 64.3933 358.098 63.54C358.591 62.6733 359.258 62.0133 360.098 61.56C360.938 61.0933 361.878 60.86 362.918 60.86C363.958 60.86 364.898 61.0933 365.738 61.56C366.578 62.0133 367.238 62.6667 367.718 63.52C368.211 64.3733 368.458 65.3667 368.458 66.5C368.458 67.6333 368.205 68.6333 367.698 69.5C367.205 70.3533 366.531 71.0133 365.678 71.48C364.825 71.9467 363.878 72.18 362.838 72.18ZM362.838 70.58C363.491 70.58 364.105 70.4267 364.678 70.12C365.251 69.8133 365.711 69.3533 366.058 68.74C366.418 68.1267 366.598 67.38 366.598 66.5C366.598 65.62 366.425 64.8733 366.078 64.26C365.731 63.6467 365.278 63.1933 364.718 62.9C364.158 62.5933 363.551 62.44 362.898 62.44C362.231 62.44 361.618 62.5933 361.058 62.9C360.511 63.1933 360.071 63.6467 359.738 64.26C359.405 64.8733 359.238 65.62 359.238 66.5C359.238 67.3933 359.398 68.1467 359.718 68.76C360.051 69.3733 360.491 69.8333 361.038 70.14C361.585 70.4333 362.185 70.58 362.838 70.58ZM373.471 62.82C373.791 62.1933 374.244 61.7067 374.831 61.36C375.431 61.0133 376.158 60.84 377.011 60.84V62.72H376.531C374.491 62.72 373.471 63.8267 373.471 66.04V72H371.651V61.04H373.471V62.82ZM385.364 66.48C385.364 65.36 385.591 64.38 386.044 63.54C386.497 62.6867 387.117 62.0267 387.904 61.56C388.704 61.0933 389.591 60.86 390.564 60.86C391.524 60.86 392.357 61.0667 393.064 61.48C393.771 61.8933 394.297 62.4133 394.644 63.04V61.04H396.484V72H394.644V69.96C394.284 70.6 393.744 71.1333 393.024 71.56C392.317 71.9733 391.491 72.18 390.544 72.18C389.571 72.18 388.691 71.94 387.904 71.46C387.117 70.98 386.497 70.3067 386.044 69.44C385.591 68.5733 385.364 67.5867 385.364 66.48ZM394.644 66.5C394.644 65.6733 394.477 64.9533 394.144 64.34C393.811 63.7267 393.357 63.26 392.784 62.94C392.224 62.6067 391.604 62.44 390.924 62.44C390.244 62.44 389.624 62.6 389.064 62.92C388.504 63.24 388.057 63.7067 387.724 64.32C387.391 64.9333 387.224 65.6533 387.224 66.48C387.224 67.32 387.391 68.0533 387.724 68.68C388.057 69.2933 388.504 69.7667 389.064 70.1C389.624 70.42 390.244 70.58 390.924 70.58C391.604 70.58 392.224 70.42 392.784 70.1C393.357 69.7667 393.811 69.2933 394.144 68.68C394.477 68.0533 394.644 67.3267 394.644 66.5ZM405.7 60.84C407.033 60.84 408.113 61.2467 408.94 62.06C409.766 62.86 410.18 64.02 410.18 65.54V72H408.38V65.8C408.38 64.7067 408.106 63.8733 407.56 63.3C407.013 62.7133 406.266 62.42 405.32 62.42C404.36 62.42 403.593 62.72 403.02 63.32C402.46 63.92 402.18 64.7933 402.18 65.94V72H400.36V61.04H402.18V62.6C402.54 62.04 403.026 61.6067 403.64 61.3C404.266 60.9933 404.953 60.84 405.7 60.84ZM413.273 66.48C413.273 65.36 413.499 64.38 413.953 63.54C414.406 62.6867 415.026 62.0267 415.813 61.56C416.613 61.0933 417.506 60.86 418.493 60.86C419.346 60.86 420.139 61.06 420.873 61.46C421.606 61.8467 422.166 62.36 422.553 63V57.2H424.393V72H422.553V69.94C422.193 70.5933 421.659 71.1333 420.953 71.56C420.246 71.9733 419.419 72.18 418.473 72.18C417.499 72.18 416.613 71.94 415.813 71.46C415.026 70.98 414.406 70.3067 413.953 69.44C413.499 68.5733 413.273 67.5867 413.273 66.48ZM422.553 66.5C422.553 65.6733 422.386 64.9533 422.053 64.34C421.719 63.7267 421.266 63.26 420.693 62.94C420.133 62.6067 419.513 62.44 418.833 62.44C418.153 62.44 417.533 62.6 416.973 62.92C416.413 63.24 415.966 63.7067 415.633 64.32C415.299 64.9333 415.133 65.6533 415.133 66.48C415.133 67.32 415.299 68.0533 415.633 68.68C415.966 69.2933 416.413 69.7667 416.973 70.1C417.533 70.42 418.153 70.58 418.833 70.58C419.513 70.58 420.133 70.42 420.693 70.1C421.266 69.7667 421.719 69.2933 422.053 68.68C422.386 68.0533 422.553 67.3267 422.553 66.5ZM451.92 58.06L447.88 72H445.84L442.6 60.78L439.24 72L437.22 72.02L433.32 58.06H435.26L438.3 69.88L441.66 58.06H443.7L446.9 69.84L449.96 58.06H451.92ZM464.712 66.1C464.712 66.4467 464.692 66.8133 464.652 67.2H455.892C455.959 68.28 456.325 69.1267 456.992 69.74C457.672 70.34 458.492 70.64 459.452 70.64C460.239 70.64 460.892 70.46 461.412 70.1C461.945 69.7267 462.319 69.2333 462.532 68.62H464.492C464.199 69.6733 463.612 70.5333 462.732 71.2C461.852 71.8533 460.759 72.18 459.452 72.18C458.412 72.18 457.479 71.9467 456.652 71.48C455.839 71.0133 455.199 70.3533 454.732 69.5C454.265 68.6333 454.032 67.6333 454.032 66.5C454.032 65.3667 454.259 64.3733 454.712 63.52C455.165 62.6667 455.799 62.0133 456.612 61.56C457.439 61.0933 458.385 60.86 459.452 60.86C460.492 60.86 461.412 61.0867 462.212 61.54C463.012 61.9933 463.625 62.62 464.052 63.42C464.492 64.2067 464.712 65.1 464.712 66.1ZM462.832 65.72C462.832 65.0267 462.679 64.4333 462.372 63.94C462.065 63.4333 461.645 63.0533 461.112 62.8C460.592 62.5333 460.012 62.4 459.372 62.4C458.452 62.4 457.665 62.6933 457.012 63.28C456.372 63.8667 456.005 64.68 455.912 65.72H462.832ZM469.734 57.2V72H467.914V57.2H469.734ZM475.456 57.2V72H473.636V57.2H475.456ZM484.698 60.84C486.031 60.84 487.111 61.2467 487.938 62.06C488.765 62.86 489.178 64.02 489.178 65.54V72H487.378V65.8C487.378 64.7067 487.105 63.8733 486.558 63.3C486.011 62.7133 485.265 62.42 484.318 62.42C483.358 62.42 482.591 62.72 482.018 63.32C481.458 63.92 481.178 64.7933 481.178 65.94V72H479.358V61.04H481.178V62.6C481.538 62.04 482.025 61.6067 482.638 61.3C483.265 60.9933 483.951 60.84 484.698 60.84ZM502.951 66.1C502.951 66.4467 502.931 66.8133 502.891 67.2H494.131C494.198 68.28 494.564 69.1267 495.231 69.74C495.911 70.34 496.731 70.64 497.691 70.64C498.478 70.64 499.131 70.46 499.651 70.1C500.184 69.7267 500.558 69.2333 500.771 68.62H502.731C502.438 69.6733 501.851 70.5333 500.971 71.2C500.091 71.8533 498.998 72.18 497.691 72.18C496.651 72.18 495.718 71.9467 494.891 71.48C494.078 71.0133 493.438 70.3533 492.971 69.5C492.504 68.6333 492.271 67.6333 492.271 66.5C492.271 65.3667 492.498 64.3733 492.951 63.52C493.404 62.6667 494.038 62.0133 494.851 61.56C495.678 61.0933 496.624 60.86 497.691 60.86C498.731 60.86 499.651 61.0867 500.451 61.54C501.251 61.9933 501.864 62.62 502.291 63.42C502.731 64.2067 502.951 65.1 502.951 66.1ZM501.071 65.72C501.071 65.0267 500.918 64.4333 500.611 63.94C500.304 63.4333 499.884 63.0533 499.351 62.8C498.831 62.5333 498.251 62.4 497.611 62.4C496.691 62.4 495.904 62.6933 495.251 63.28C494.611 63.8667 494.244 64.68 494.151 65.72H501.071ZM510.033 72.18C509.193 72.18 508.44 72.04 507.773 71.76C507.107 71.4667 506.58 71.0667 506.193 70.56C505.807 70.04 505.593 69.4467 505.553 68.78H507.433C507.487 69.3267 507.74 69.7733 508.193 70.12C508.66 70.4667 509.267 70.64 510.013 70.64C510.707 70.64 511.253 70.4867 511.653 70.18C512.053 69.8733 512.253 69.4867 512.253 69.02C512.253 68.54 512.04 68.1867 511.613 67.96C511.187 67.72 510.527 67.4867 509.633 67.26C508.82 67.0467 508.153 66.8333 507.633 66.62C507.127 66.3933 506.687 66.0667 506.313 65.64C505.953 65.2 505.773 64.6267 505.773 63.92C505.773 63.36 505.94 62.8467 506.273 62.38C506.607 61.9133 507.08 61.5467 507.693 61.28C508.307 61 509.007 60.86 509.793 60.86C511.007 60.86 511.987 61.1667 512.733 61.78C513.48 62.3933 513.88 63.2333 513.933 64.3H512.113C512.073 63.7267 511.84 63.2667 511.413 62.92C511 62.5733 510.44 62.4 509.733 62.4C509.08 62.4 508.56 62.54 508.173 62.82C507.787 63.1 507.593 63.4667 507.593 63.92C507.593 64.28 507.707 64.58 507.933 64.82C508.173 65.0467 508.467 65.2333 508.813 65.38C509.173 65.5133 509.667 65.6667 510.293 65.84C511.08 66.0533 511.72 66.2667 512.213 66.48C512.707 66.68 513.127 66.9867 513.473 67.4C513.833 67.8133 514.02 68.3533 514.033 69.02C514.033 69.62 513.867 70.16 513.533 70.64C513.2 71.12 512.727 71.5 512.113 71.78C511.513 72.0467 510.82 72.18 510.033 72.18ZM521.282 72.18C520.442 72.18 519.689 72.04 519.022 71.76C518.356 71.4667 517.829 71.0667 517.442 70.56C517.056 70.04 516.842 69.4467 516.802 68.78H518.682C518.736 69.3267 518.989 69.7733 519.442 70.12C519.909 70.4667 520.516 70.64 521.262 70.64C521.956 70.64 522.502 70.4867 522.902 70.18C523.302 69.8733 523.502 69.4867 523.502 69.02C523.502 68.54 523.289 68.1867 522.862 67.96C522.436 67.72 521.776 67.4867 520.882 67.26C520.069 67.0467 519.402 66.8333 518.882 66.62C518.376 66.3933 517.936 66.0667 517.562 65.64C517.202 65.2 517.022 64.6267 517.022 63.92C517.022 63.36 517.189 62.8467 517.522 62.38C517.856 61.9133 518.329 61.5467 518.942 61.28C519.556 61 520.256 60.86 521.042 60.86C522.256 60.86 523.236 61.1667 523.982 61.78C524.729 62.3933 525.129 63.2333 525.182 64.3H523.362C523.322 63.7267 523.089 63.2667 522.662 62.92C522.249 62.5733 521.689 62.4 520.982 62.4C520.329 62.4 519.809 62.54 519.422 62.82C519.036 63.1 518.842 63.4667 518.842 63.92C518.842 64.28 518.956 64.58 519.182 64.82C519.422 65.0467 519.716 65.2333 520.062 65.38C520.422 65.5133 520.916 65.6667 521.542 65.84C522.329 66.0533 522.969 66.2667 523.462 66.48C523.956 66.68 524.376 66.9867 524.722 67.4C525.082 67.8133 525.269 68.3533 525.282 69.02C525.282 69.62 525.116 70.16 524.782 70.64C524.449 71.12 523.976 71.5 523.362 71.78C522.762 72.0467 522.069 72.18 521.282 72.18ZM535.724 59.26C535.377 59.26 535.084 59.14 534.844 58.9C534.604 58.66 534.484 58.3667 534.484 58.02C534.484 57.6733 534.604 57.38 534.844 57.14C535.084 56.9 535.377 56.78 535.724 56.78C536.057 56.78 536.337 56.9 536.564 57.14C536.804 57.38 536.924 57.6733 536.924 58.02C536.924 58.3667 536.804 58.66 536.564 58.9C536.337 59.14 536.057 59.26 535.724 59.26ZM536.604 61.04V72H534.784V61.04H536.604ZM545.846 60.84C547.179 60.84 548.259 61.2467 549.086 62.06C549.912 62.86 550.326 64.02 550.326 65.54V72H548.526V65.8C548.526 64.7067 548.252 63.8733 547.706 63.3C547.159 62.7133 546.412 62.42 545.466 62.42C544.506 62.42 543.739 62.72 543.166 63.32C542.606 63.92 542.326 64.7933 542.326 65.94V72H540.506V61.04H542.326V62.6C542.686 62.04 543.172 61.6067 543.786 61.3C544.412 60.9933 545.099 60.84 545.846 60.84ZM3.36 87.54V92.2H8.44V93.7H3.36V98.5H9.04V100H1.54V86.04H9.04V87.54H3.36ZM16.6739 98.32L20.0739 89.04H22.0139L17.7139 100H15.5939L11.2939 89.04H13.2539L16.6739 98.32ZM34.6048 94.1C34.6048 94.4467 34.5848 94.8133 34.5448 95.2H25.7848C25.8515 96.28 26.2182 97.1267 26.8848 97.74C27.5648 98.34 28.3848 98.64 29.3448 98.64C30.1315 98.64 30.7848 98.46 31.3048 98.1C31.8382 97.7267 32.2115 97.2333 32.4248 96.62H34.3848C34.0915 97.6733 33.5048 98.5333 32.6248 99.2C31.7448 99.8533 30.6515 100.18 29.3448 100.18C28.3048 100.18 27.3715 99.9467 26.5448 99.48C25.7315 99.0133 25.0915 98.3533 24.6248 97.5C24.1582 96.6333 23.9248 95.6333 23.9248 94.5C23.9248 93.3667 24.1515 92.3733 24.6048 91.52C25.0582 90.6667 25.6915 90.0133 26.5048 89.56C27.3315 89.0933 28.2782 88.86 29.3448 88.86C30.3848 88.86 31.3048 89.0867 32.1048 89.54C32.9048 89.9933 33.5182 90.62 33.9448 91.42C34.3848 92.2067 34.6048 93.1 34.6048 94.1ZM32.7248 93.72C32.7248 93.0267 32.5715 92.4333 32.2648 91.94C31.9582 91.4333 31.5382 91.0533 31.0048 90.8C30.4848 90.5333 29.9048 90.4 29.2648 90.4C28.3448 90.4 27.5582 90.6933 26.9048 91.28C26.2648 91.8667 25.8982 92.68 25.8048 93.72H32.7248ZM39.6272 90.82C39.9472 90.1933 40.4005 89.7067 40.9872 89.36C41.5872 89.0133 42.3139 88.84 43.1672 88.84V90.72H42.6872C40.6472 90.72 39.6272 91.8267 39.6272 94.04V100H37.8072V89.04H39.6272V90.82ZM55.5081 89.04L48.9081 105.16H47.0281L49.1881 99.88L44.7681 89.04H46.7881L50.2281 97.92L53.6281 89.04H55.5081ZM68.6897 100.14C67.7697 100.14 66.943 99.98 66.2097 99.66C65.4897 99.3267 64.923 98.8733 64.5097 98.3C64.0964 97.7133 63.883 97.04 63.8697 96.28H65.8097C65.8764 96.9333 66.143 97.4867 66.6097 97.94C67.0897 98.38 67.783 98.6 68.6897 98.6C69.5564 98.6 70.2364 98.3867 70.7297 97.96C71.2364 97.52 71.4897 96.96 71.4897 96.28C71.4897 95.7467 71.343 95.3133 71.0497 94.98C70.7564 94.6467 70.3897 94.3933 69.9497 94.22C69.5097 94.0467 68.9164 93.86 68.1697 93.66C67.2497 93.42 66.5097 93.18 65.9497 92.94C65.403 92.7 64.9297 92.3267 64.5297 91.82C64.143 91.3 63.9497 90.6067 63.9497 89.74C63.9497 88.98 64.143 88.3067 64.5297 87.72C64.9164 87.1333 65.4564 86.68 66.1497 86.36C66.8564 86.04 67.663 85.88 68.5697 85.88C69.8764 85.88 70.943 86.2067 71.7697 86.86C72.6097 87.5133 73.083 88.38 73.1897 89.46H71.1897C71.123 88.9267 70.843 88.46 70.3497 88.06C69.8564 87.6467 69.203 87.44 68.3897 87.44C67.6297 87.44 67.0097 87.64 66.5297 88.04C66.0497 88.4267 65.8097 88.9733 65.8097 89.68C65.8097 90.1867 65.9497 90.6 66.2297 90.92C66.523 91.24 66.8764 91.4867 67.2897 91.66C67.7164 91.82 68.3097 92.0067 69.0697 92.22C69.9897 92.4733 70.7297 92.7267 71.2897 92.98C71.8497 93.22 72.3297 93.6 72.7297 94.12C73.1297 94.6267 73.3297 95.32 73.3297 96.2C73.3297 96.88 73.1497 97.52 72.7897 98.12C72.4297 98.72 71.8964 99.2067 71.1897 99.58C70.483 99.9533 69.6497 100.14 68.6897 100.14ZM77.748 87.26C77.4013 87.26 77.108 87.14 76.868 86.9C76.628 86.66 76.508 86.3667 76.508 86.02C76.508 85.6733 76.628 85.38 76.868 85.14C77.108 84.9 77.4013 84.78 77.748 84.78C78.0813 84.78 78.3613 84.9 78.588 85.14C78.828 85.38 78.948 85.6733 78.948 86.02C78.948 86.3667 78.828 86.66 78.588 86.9C78.3613 87.14 78.0813 87.26 77.748 87.26ZM78.628 89.04V100H76.808V89.04H78.628ZM84.3498 91.06C84.7098 90.4333 85.2432 89.9133 85.9498 89.5C86.6698 89.0733 87.5032 88.86 88.4498 88.86C89.4232 88.86 90.3032 89.0933 91.0898 89.56C91.8898 90.0267 92.5165 90.6867 92.9698 91.54C93.4232 92.38 93.6498 93.36 93.6498 94.48C93.6498 95.5867 93.4232 96.5733 92.9698 97.44C92.5165 98.3067 91.8898 98.98 91.0898 99.46C90.3032 99.94 89.4232 100.18 88.4498 100.18C87.5165 100.18 86.6898 99.9733 85.9698 99.56C85.2632 99.1333 84.7232 98.6067 84.3498 97.98V105.2H82.5298V89.04H84.3498V91.06ZM91.7898 94.48C91.7898 93.6533 91.6232 92.9333 91.2898 92.32C90.9565 91.7067 90.5032 91.24 89.9298 90.92C89.3698 90.6 88.7498 90.44 88.0698 90.44C87.4032 90.44 86.7832 90.6067 86.2098 90.94C85.6498 91.26 85.1965 91.7333 84.8498 92.36C84.5165 92.9733 84.3498 93.6867 84.3498 94.5C84.3498 95.3267 84.5165 96.0533 84.8498 96.68C85.1965 97.2933 85.6498 97.7667 86.2098 98.1C86.7832 98.42 87.4032 98.58 88.0698 98.58C88.7498 98.58 89.3698 98.42 89.9298 98.1C90.5032 97.7667 90.9565 97.2933 91.2898 96.68C91.6232 96.0533 91.7898 95.32 91.7898 94.48ZM99.2055 86.06L98.9855 96.06H97.4655L97.2455 86.06H99.2055ZM98.3055 100.12C97.9588 100.12 97.6655 100 97.4255 99.76C97.1855 99.52 97.0655 99.2267 97.0655 98.88C97.0655 98.5333 97.1855 98.24 97.4255 98C97.6655 97.76 97.9588 97.64 98.3055 97.64C98.6388 97.64 98.9188 97.76 99.1455 98C99.3855 98.24 99.5055 98.5333 99.5055 98.88C99.5055 99.2267 99.3855 99.52 99.1455 99.76C98.9188 100 98.6388 100.12 98.3055 100.12Z" fill="#323842"/>
</svg>
