<svg width="691" height="198" viewBox="0 0 691 198" fill="none" xmlns="http://www.w3.org/2000/svg">
<g filter="url(#filter0_d_231_349)">
<path d="M34.4053 40.6361C33.0464 40.6361 31.8786 40.1478 30.9018 39.171C29.9251 38.1943 29.4367 37.0265 29.4367 35.6676C29.4367 34.2874 29.9251 33.1196 30.9018 32.1641C31.8786 31.1874 33.0464 30.699 34.4053 30.699C35.7855 30.699 36.9533 31.1874 37.9088 32.1641C38.8855 33.1196 39.3739 34.2874 39.3739 35.6676C39.3739 37.0265 38.8855 38.1943 37.9088 39.171C36.9533 40.1478 35.7855 40.6361 34.4053 40.6361ZM94.403 50.9555L77.204 33.7884V50H71.8533V20.3796L89.0522 37.5149V21.3351H94.403V50.9555ZM106.952 50.637C105.614 50.637 104.351 50.3185 103.162 49.6815C101.973 49.0233 101.007 48.0784 100.263 46.8469C99.5414 45.5941 99.1804 44.0865 99.1804 42.3242V30.8901H104.722V41.5916C104.722 42.6533 105.041 43.5982 105.678 44.4263C106.336 45.2544 107.249 45.6684 108.417 45.6684C109.372 45.6684 110.222 45.3287 110.965 44.6492C111.729 43.9485 112.111 42.9506 112.111 41.6553V30.8901H117.653V50H112.621V47.9935C111.942 48.8428 111.103 49.501 110.105 49.9682C109.128 50.414 108.077 50.637 106.952 50.637ZM124.097 50V35.2854H120.53V30.8901H124.193V24.5201H129.543V30.8901H133.333V35.2854H129.639V50H124.097ZM136.2 50V30.8901H141.169V34.1706C141.827 33.0665 142.655 32.2172 143.653 31.6226C144.672 31.0069 145.861 30.699 147.22 30.699L148.43 35.6039C148.027 35.4765 147.57 35.4128 147.061 35.4128C145.468 35.4128 144.184 35.933 143.207 36.9734C142.23 37.9926 141.742 39.4577 141.742 41.3687V50H136.2ZM150.91 50V30.8901H156.451V50H150.91ZM153.681 28.1191C152.852 28.1191 152.152 27.8325 151.578 27.2592C151.005 26.6859 150.718 25.9852 150.718 25.1571C150.718 24.3078 151.005 23.6071 151.578 23.055C152.152 22.4817 152.852 22.1951 153.681 22.1951C154.53 22.1951 155.231 22.4817 155.783 23.055C156.356 23.6071 156.643 24.3078 156.643 25.1571C156.643 25.9852 156.356 26.6859 155.783 27.2592C155.231 27.8325 154.53 28.1191 153.681 28.1191ZM170.605 50.637C168.46 50.637 166.57 50.1911 164.935 49.2993C163.301 48.4075 162.027 47.1866 161.113 45.6366C160.2 44.0653 159.744 42.2711 159.744 40.2539C159.744 38.3217 160.19 36.6124 161.082 35.1261C161.973 33.6186 163.173 32.4295 164.681 31.5589C166.209 30.6884 167.898 30.2531 169.745 30.2531C171.635 30.2531 173.323 30.6884 174.809 31.5589C176.295 32.4083 177.463 33.5761 178.312 35.0624C179.183 36.5487 179.618 38.2368 179.618 40.1265V42.0694H167.961C167.43 42.0694 166.921 42.0375 166.432 41.9738C165.944 41.9101 165.456 41.8358 164.967 41.7509C165.222 43.0249 165.849 44.0653 166.846 44.8722C167.866 45.6578 169.161 46.0506 170.732 46.0506C171.942 46.0506 173.025 45.8064 173.981 45.3181C174.958 44.8297 175.754 44.2246 176.37 43.5026L177.58 48.4712C176.624 49.1931 175.541 49.7346 174.331 50.0955C173.142 50.4565 171.9 50.637 170.605 50.637ZM164.84 38.4067C165.902 38.1731 166.942 38.0563 167.961 38.0563H171.337C171.932 38.0563 172.495 38.0775 173.025 38.12C173.556 38.1625 174.055 38.2368 174.522 38.343C174.204 37.1964 173.62 36.2939 172.771 35.6357C171.942 34.9775 170.913 34.6484 169.681 34.6484C168.513 34.6484 167.494 34.9881 166.624 35.6676C165.774 36.3258 165.18 37.2388 164.84 38.4067ZM182.691 50V30.8901H187.659V32.9922C188.339 32.1004 189.178 31.4209 190.175 30.9538C191.173 30.4867 192.246 30.2531 193.392 30.2531C194.751 30.2531 196.015 30.5822 197.182 31.2404C198.372 31.8774 199.327 32.8223 200.049 34.0751C200.792 35.3066 201.164 36.8035 201.164 38.5659V50H195.622V39.2984C195.622 38.2368 195.303 37.2919 194.666 36.4638C194.029 35.6357 193.116 35.2217 191.927 35.2217C190.972 35.2217 190.112 35.5508 189.347 36.209C188.604 36.846 188.233 37.8546 188.233 39.2347V50H182.691ZM206.598 50V35.2854H203.031V30.8901H206.694V24.5201H212.044V30.8901H215.835V35.2854H212.14V50H206.598ZM216.614 42.7382V38.1519H226.806V42.7382H216.614ZM230.904 50V21.3351H239.663C241.744 21.3351 243.517 21.7492 244.982 22.5773C246.468 23.4054 247.604 24.5095 248.39 25.8897C249.176 27.2486 249.569 28.7455 249.569 30.3805C249.569 31.8668 249.239 33.2151 248.581 34.4254C247.944 35.6357 247.031 36.6337 245.842 37.4193L253.422 50H247.148L240.778 39.1073H236.446V50H230.904ZM236.446 34.3299H239.536C240.576 34.3299 241.426 34.1388 242.084 33.7566C242.742 33.3531 243.23 32.8542 243.549 32.2596C243.867 31.6439 244.027 31.0175 244.027 30.3805C244.027 29.2551 243.613 28.3315 242.784 27.6096C241.956 26.8664 240.873 26.4948 239.536 26.4948H236.446V34.3299ZM255.402 50V30.8901H260.944V50H255.402ZM258.173 28.1191C257.345 28.1191 256.644 27.8325 256.071 27.2592C255.498 26.6859 255.211 25.9852 255.211 25.1571C255.211 24.3078 255.498 23.6071 256.071 23.055C256.644 22.4817 257.345 22.1951 258.173 22.1951C259.022 22.1951 259.723 22.4817 260.275 23.055C260.848 23.6071 261.135 24.3078 261.135 25.1571C261.135 25.9852 260.848 26.6859 260.275 27.2592C259.723 27.8325 259.022 28.1191 258.173 28.1191ZM274.556 50.637C272.666 50.637 270.935 50.1805 269.364 49.2675C267.793 48.3544 266.54 47.1229 265.606 45.5729C264.693 44.0228 264.236 42.3136 264.236 40.445C264.236 38.5553 264.693 36.846 265.606 35.3172C266.54 33.7672 267.793 32.5357 269.364 31.6226C270.935 30.7096 272.666 30.2531 274.556 30.2531C275.872 30.2531 277.114 30.476 278.282 30.9219C279.471 31.3466 280.522 31.9836 281.435 32.8329L280.002 38.4704C279.471 37.5998 278.76 36.846 277.868 36.209C276.998 35.5508 275.968 35.2217 274.779 35.2217C273.781 35.2217 272.889 35.4552 272.103 35.9224C271.318 36.3895 270.702 37.0159 270.256 37.8015C269.81 38.5871 269.587 39.4683 269.587 40.445C269.587 41.4005 269.81 42.2817 270.256 43.0886C270.702 43.8742 271.318 44.5006 272.103 44.9677C272.889 45.4349 273.781 45.6684 274.779 45.6684C275.968 45.6684 276.998 45.3499 277.868 44.7129C278.76 44.0547 279.471 43.2903 280.002 42.4197L281.435 48.0572C280.522 48.9065 279.471 49.5541 278.282 50C277.114 50.4247 275.872 50.637 274.556 50.637ZM284.317 50V19.4241H289.859V32.3233C290.538 31.6439 291.313 31.1343 292.184 30.7945C293.075 30.4336 294.02 30.2531 295.018 30.2531C296.377 30.2531 297.641 30.5822 298.808 31.2404C299.997 31.8774 300.953 32.8223 301.675 34.0751C302.418 35.3066 302.79 36.8035 302.79 38.5659V50H297.248V39.2984C297.248 38.2368 296.929 37.2919 296.292 36.4638C295.655 35.6357 294.742 35.2217 293.553 35.2217C292.598 35.2217 291.738 35.5508 290.973 36.209C290.23 36.846 289.859 37.8546 289.859 39.2347V50H284.317ZM318.391 50V35.2854H314.824V30.8901H318.487V26.0171C318.487 23.7451 319.145 22.0146 320.461 20.8255C321.799 19.6365 323.445 19.0419 325.398 19.0419C326.12 19.0419 326.81 19.1269 327.468 19.2967C328.148 19.4454 328.742 19.6896 329.252 20.0293L328.169 24.5201C327.532 23.7345 326.789 23.3417 325.939 23.3417C325.43 23.3417 324.952 23.5222 324.506 23.8831C324.06 24.2441 323.837 24.9129 323.837 25.8897V30.8901H327.628V35.2854H323.933V50H318.391ZM338.917 50.637C337.028 50.637 335.297 50.1805 333.726 49.2675C332.155 48.3544 330.902 47.1229 329.967 45.5729C329.054 44.0228 328.598 42.3136 328.598 40.445C328.598 38.5553 329.054 36.846 329.967 35.3172C330.902 33.7672 332.155 32.5357 333.726 31.6226C335.297 30.7096 337.028 30.2531 338.917 30.2531C340.828 30.2531 342.559 30.7096 344.109 31.6226C345.68 32.5357 346.922 33.7672 347.835 35.3172C348.77 36.846 349.237 38.5553 349.237 40.445C349.237 42.3136 348.77 44.0228 347.835 45.5729C346.922 47.1229 345.68 48.3544 344.109 49.2675C342.559 50.1805 340.828 50.637 338.917 50.637ZM338.917 45.6684C339.873 45.6684 340.733 45.4349 341.497 44.9677C342.283 44.5006 342.899 43.8742 343.344 43.0886C343.812 42.2817 344.045 41.4005 344.045 40.445C344.045 39.4683 343.812 38.5871 343.344 37.8015C342.899 37.0159 342.283 36.3895 341.497 35.9224C340.733 35.4552 339.873 35.2217 338.917 35.2217C337.962 35.2217 337.091 35.4552 336.306 35.9224C335.541 36.3895 334.925 37.0159 334.458 37.8015C334.012 38.5871 333.789 39.4683 333.789 40.445C333.789 41.4005 334.012 42.2817 334.458 43.0886C334.925 43.8742 335.541 44.5006 336.306 44.9677C337.091 45.4349 337.962 45.6684 338.917 45.6684ZM352.485 50V30.8901H357.454V34.1706C358.112 33.0665 358.94 32.2172 359.938 31.6226C360.957 31.0069 362.146 30.699 363.505 30.699L364.716 35.6039C364.312 35.4765 363.856 35.4128 363.346 35.4128C361.754 35.4128 360.469 35.933 359.492 36.9734C358.516 37.9926 358.027 39.4577 358.027 41.3687V50H352.485ZM385.271 50.5096C383.508 50.5096 381.905 50.0531 380.461 49.1401C379.018 48.227 377.86 47.0167 376.99 45.5092C376.141 43.9804 375.716 42.2923 375.716 40.445C375.716 38.5978 376.141 36.9097 376.99 35.3809C377.86 33.8521 379.018 32.6418 380.461 31.75C381.905 30.837 383.508 30.3805 385.271 30.3805C386.502 30.3805 387.628 30.6034 388.647 31.0493C389.666 31.474 390.537 32.0685 391.259 32.8329V30.8901H396.036V50H391.259V48.0572C390.537 48.8216 389.666 49.4267 388.647 49.8726C387.628 50.2973 386.502 50.5096 385.271 50.5096ZM385.94 45.6366C386.874 45.6366 387.723 45.403 388.488 44.9359C389.252 44.4687 389.857 43.8424 390.303 43.0567C390.77 42.2711 391.004 41.4005 391.004 40.445C391.004 39.4895 390.77 38.619 390.303 37.8334C389.857 37.0477 389.252 36.4213 388.488 35.9542C387.723 35.4871 386.874 35.2535 385.94 35.2535C385.005 35.2535 384.156 35.4871 383.392 35.9542C382.627 36.4213 382.011 37.0477 381.544 37.8334C381.098 38.619 380.876 39.4895 380.876 40.445C380.876 41.4005 381.098 42.2711 381.544 43.0567C382.011 43.8424 382.627 44.4687 383.392 44.9359C384.156 45.403 385.005 45.6366 385.94 45.6366ZM410.726 50V21.3351H416.268V30.5079H424.549V21.3351H430.091V50H424.549V35.6676H416.268V50H410.726ZM445.16 50.637C443.016 50.637 441.126 50.1911 439.491 49.2993C437.856 48.4075 436.582 47.1866 435.669 45.6366C434.756 44.0653 434.3 42.2711 434.3 40.2539C434.3 38.3217 434.746 36.6124 435.637 35.1261C436.529 33.6186 437.729 32.4295 439.236 31.5589C440.765 30.6884 442.453 30.2531 444.301 30.2531C446.19 30.2531 447.878 30.6884 449.365 31.5589C450.851 32.4083 452.019 33.5761 452.868 35.0624C453.739 36.5487 454.174 38.2368 454.174 40.1265V42.0694H442.517C441.986 42.0694 441.477 42.0375 440.988 41.9738C440.5 41.9101 440.011 41.8358 439.523 41.7509C439.778 43.0249 440.404 44.0653 441.402 44.8722C442.421 45.6578 443.717 46.0506 445.288 46.0506C446.498 46.0506 447.581 45.8064 448.537 45.3181C449.513 44.8297 450.31 44.2246 450.925 43.5026L452.136 48.4712C451.18 49.1931 450.097 49.7346 448.887 50.0955C447.698 50.4565 446.456 50.637 445.16 50.637ZM439.396 38.4067C440.457 38.1731 441.498 38.0563 442.517 38.0563H445.893C446.488 38.0563 447.05 38.0775 447.581 38.12C448.112 38.1625 448.611 38.2368 449.078 38.343C448.76 37.1964 448.176 36.2939 447.326 35.6357C446.498 34.9775 445.468 34.6484 444.237 34.6484C443.069 34.6484 442.05 34.9881 441.179 35.6676C440.33 36.3258 439.735 37.2388 439.396 38.4067ZM465.846 50.5096C464.084 50.5096 462.48 50.0531 461.037 49.1401C459.593 48.227 458.436 47.0167 457.565 45.5092C456.716 43.9804 456.291 42.2923 456.291 40.445C456.291 38.5978 456.716 36.9097 457.565 35.3809C458.436 33.8521 459.593 32.6418 461.037 31.75C462.48 30.837 464.084 30.3805 465.846 30.3805C467.077 30.3805 468.203 30.6034 469.222 31.0493C470.241 31.474 471.112 32.0685 471.834 32.8329V30.8901H476.611V50H471.834V48.0572C471.112 48.8216 470.241 49.4267 469.222 49.8726C468.203 50.2973 467.077 50.5096 465.846 50.5096ZM466.515 45.6366C467.449 45.6366 468.298 45.403 469.063 44.9359C469.827 44.4687 470.432 43.8424 470.878 43.0567C471.345 42.2711 471.579 41.4005 471.579 40.445C471.579 39.4895 471.345 38.619 470.878 37.8334C470.432 37.0477 469.827 36.4213 469.063 35.9542C468.298 35.4871 467.449 35.2535 466.515 35.2535C465.581 35.2535 464.731 35.4871 463.967 35.9542C463.202 36.4213 462.587 37.0477 462.12 37.8334C461.674 38.619 461.451 39.4895 461.451 40.445C461.451 41.4005 461.674 42.2711 462.12 43.0567C462.587 43.8424 463.202 44.4687 463.967 44.9359C464.731 45.403 465.581 45.6366 466.515 45.6366ZM480.869 50V19.4241H486.411V50H480.869ZM492.888 50V35.2854H489.321V30.8901H492.984V24.5201H498.335V30.8901H502.125V35.2854H498.43V50H492.888ZM504.991 50V19.4241H510.533V32.3233C511.213 31.6439 511.988 31.1343 512.858 30.7945C513.75 30.4336 514.695 30.2531 515.693 30.2531C517.052 30.2531 518.315 30.5822 519.483 31.2404C520.672 31.8774 521.628 32.8223 522.35 34.0751C523.093 35.3066 523.464 36.8035 523.464 38.5659V50H517.922V39.2984C517.922 38.2368 517.604 37.2919 516.967 36.4638C516.33 35.6357 515.417 35.2217 514.228 35.2217C513.272 35.2217 512.412 35.5508 511.648 36.209C510.905 36.846 510.533 37.8546 510.533 39.2347V50H504.991ZM527.36 50V30.8901H532.902V50H527.36ZM530.131 28.1191C529.303 28.1191 528.602 27.8325 528.029 27.2592C527.455 26.6859 527.169 25.9852 527.169 25.1571C527.169 24.3078 527.455 23.6071 528.029 23.055C528.602 22.4817 529.303 22.1951 530.131 22.1951C530.98 22.1951 531.681 22.4817 532.233 23.055C532.806 23.6071 533.093 24.3078 533.093 25.1571C533.093 25.9852 532.806 26.6859 532.233 27.2592C531.681 27.8325 530.98 28.1191 530.131 28.1191ZM547.055 50.637C544.911 50.637 543.021 50.1911 541.386 49.2993C539.751 48.4075 538.477 47.1866 537.564 45.6366C536.651 44.0653 536.194 42.2711 536.194 40.2539C536.194 38.3217 536.64 36.6124 537.532 35.1261C538.424 33.6186 539.623 32.4295 541.131 31.5589C542.66 30.6884 544.348 30.2531 546.195 30.2531C548.085 30.2531 549.773 30.6884 551.259 31.5589C552.746 32.4083 553.913 33.5761 554.763 35.0624C555.633 36.5487 556.069 38.2368 556.069 40.1265V42.0694H544.412C543.881 42.0694 543.371 42.0375 542.883 41.9738C542.394 41.9101 541.906 41.8358 541.418 41.7509C541.672 43.0249 542.299 44.0653 543.297 44.8722C544.316 45.6578 545.611 46.0506 547.183 46.0506C548.393 46.0506 549.476 45.8064 550.431 45.3181C551.408 44.8297 552.204 44.2246 552.82 43.5026L554.03 48.4712C553.075 49.1931 551.992 49.7346 550.782 50.0955C549.592 50.4565 548.35 50.637 547.055 50.637ZM541.29 38.4067C542.352 38.1731 543.392 38.0563 544.412 38.0563H547.788C548.382 38.0563 548.945 38.0775 549.476 38.12C550.007 38.1625 550.506 38.2368 550.973 38.343C550.654 37.1964 550.07 36.2939 549.221 35.6357C548.393 34.9775 547.363 34.6484 546.131 34.6484C544.964 34.6484 543.944 34.9881 543.074 35.6676C542.225 36.3258 541.63 37.2388 541.29 38.4067ZM559.141 50V30.8901H564.11V34.1706C564.768 33.0665 565.596 32.2172 566.594 31.6226C567.613 31.0069 568.802 30.699 570.161 30.699L571.371 35.6039C570.968 35.4765 570.512 35.4128 570.002 35.4128C568.409 35.4128 567.125 35.933 566.148 36.9734C565.171 37.9926 564.683 39.4577 564.683 41.3687V50H559.141ZM589.665 50V36.432L581.416 21.3351H587.85L591.226 27.7688C591.459 28.2359 591.704 28.7137 591.958 29.202C592.213 29.6692 592.457 30.2319 592.691 30.8901C592.946 30.2319 593.19 29.6692 593.424 29.202C593.678 28.7137 593.933 28.2359 594.188 27.7688L597.596 21.3351H603.647L595.398 36.432V50H589.665ZM611.502 50.637C609.613 50.637 607.882 50.1805 606.311 49.2675C604.74 48.3544 603.487 47.1229 602.553 45.5729C601.639 44.0228 601.183 42.3136 601.183 40.445C601.183 38.5553 601.639 36.846 602.553 35.3172C603.487 33.7672 604.74 32.5357 606.311 31.6226C607.882 30.7096 609.613 30.2531 611.502 30.2531C613.413 30.2531 615.144 30.7096 616.694 31.6226C618.265 32.5357 619.507 33.7672 620.42 35.3172C621.355 36.846 621.822 38.5553 621.822 40.445C621.822 42.3136 621.355 44.0228 620.42 45.5729C619.507 47.1229 618.265 48.3544 616.694 49.2675C615.144 50.1805 613.413 50.637 611.502 50.637ZM611.502 45.6684C612.458 45.6684 613.318 45.4349 614.082 44.9677C614.868 44.5006 615.484 43.8742 615.929 43.0886C616.397 42.2817 616.63 41.4005 616.63 40.445C616.63 39.4683 616.397 38.5871 615.929 37.8015C615.484 37.0159 614.868 36.3895 614.082 35.9224C613.318 35.4552 612.458 35.2217 611.502 35.2217C610.547 35.2217 609.676 35.4552 608.891 35.9224C608.126 36.3895 607.51 37.0159 607.043 37.8015C606.597 38.5871 606.374 39.4683 606.374 40.445C606.374 41.4005 606.597 42.2817 607.043 43.0886C607.51 43.8742 608.126 44.5006 608.891 44.9677C609.676 45.4349 610.547 45.6684 611.502 45.6684ZM632.46 50.637C631.122 50.637 629.858 50.3185 628.669 49.6815C627.48 49.0233 626.514 48.0784 625.771 46.8469C625.049 45.5941 624.688 44.0865 624.688 42.3242V30.8901H630.23V41.5916C630.23 42.6533 630.549 43.5982 631.186 44.4263C631.844 45.2544 632.757 45.6684 633.925 45.6684C634.88 45.6684 635.729 45.3287 636.473 44.6492C637.237 43.9485 637.619 42.9506 637.619 41.6553V30.8901H643.161V50H638.129V47.9935C637.449 48.8428 636.611 49.501 635.613 49.9682C634.636 50.414 633.585 50.637 632.46 50.637Z" fill="url(#paint0_linear_231_349)"/>
</g>
<g filter="url(#filter1_d_231_349)">
<path d="M34.4053 102.282C33.0464 102.282 31.8786 101.794 30.9018 100.817C29.9251 99.8403 29.4367 98.6725 29.4367 97.3135C29.4367 95.9334 29.9251 94.7655 30.9018 93.81C31.8786 92.8333 33.0464 92.345 34.4053 92.345C35.7855 92.345 36.9533 92.8333 37.9088 93.81C38.8855 94.7655 39.3739 95.9334 39.3739 97.3135C39.3739 98.6725 38.8855 99.8403 37.9088 100.817C36.9533 101.794 35.7855 102.282 34.4053 102.282ZM71.8533 111.646V82.9811H77.3951V92.1539H85.6761V82.9811H91.218V111.646H85.6761V97.3135H77.3951V111.646H71.8533ZM95.9049 121.201L102.275 108.397L94.4716 92.5361H100.587L103.963 99.543C104.26 100.18 104.515 100.764 104.727 101.295C104.961 101.804 105.152 102.303 105.301 102.792C105.47 102.303 105.672 101.804 105.906 101.295C106.139 100.764 106.415 100.18 106.734 99.543L110.174 92.5361H116.066L101.861 121.201H95.9049ZM126.065 112.156C124.281 112.156 122.667 111.699 121.224 110.786C119.78 109.873 118.622 108.663 117.752 107.155C116.903 105.626 116.478 103.938 116.478 102.091C116.478 100.244 116.903 98.5557 117.752 97.0269C118.622 95.4981 119.78 94.2878 121.224 93.396C122.667 92.483 124.281 92.0265 126.065 92.0265C127.084 92.0265 128.029 92.1751 128.899 92.4724C129.77 92.7696 130.556 93.1943 131.256 93.7463V81.0701H136.798V111.646H132.021V109.767C131.299 110.51 130.428 111.094 129.409 111.519C128.39 111.943 127.275 112.156 126.065 112.156ZM126.702 107.283C127.636 107.283 128.485 107.049 129.25 106.582C130.014 106.115 130.619 105.488 131.065 104.703C131.532 103.917 131.766 103.047 131.766 102.091C131.766 101.136 131.532 100.265 131.065 99.4793C130.619 98.6937 130.014 98.0673 129.25 97.6002C128.485 97.133 127.636 96.8995 126.702 96.8995C125.767 96.8995 124.918 97.133 124.154 97.6002C123.389 98.0673 122.774 98.6937 122.306 99.4793C121.861 100.265 121.638 101.136 121.638 102.091C121.638 103.047 121.861 103.917 122.306 104.703C122.774 105.488 123.389 106.115 124.154 106.582C124.918 107.049 125.767 107.283 126.702 107.283ZM140.992 111.646V92.5361H145.961V95.8166C146.619 94.7125 147.447 93.8631 148.445 93.2686C149.464 92.6528 150.653 92.345 152.012 92.345L153.223 97.2498C152.819 97.1224 152.363 97.0587 151.853 97.0587C150.261 97.0587 148.976 97.5789 147.999 98.6194C147.023 99.6386 146.534 101.104 146.534 103.015V111.646H140.992ZM163.611 112.156C161.848 112.156 160.245 111.699 158.801 110.786C157.358 109.873 156.2 108.663 155.33 107.155C154.48 105.626 154.056 103.938 154.056 102.091C154.056 100.244 154.48 98.5557 155.33 97.0269C156.2 95.4981 157.358 94.2878 158.801 93.396C160.245 92.483 161.848 92.0265 163.611 92.0265C164.842 92.0265 165.968 92.2494 166.987 92.6953C168.006 93.12 168.877 93.7145 169.598 94.4789V92.5361H174.376V111.646H169.598V109.703C168.877 110.468 168.006 111.073 166.987 111.519C165.968 111.943 164.842 112.156 163.611 112.156ZM164.28 107.283C165.214 107.283 166.063 107.049 166.828 106.582C167.592 106.115 168.197 105.488 168.643 104.703C169.11 103.917 169.344 103.047 169.344 102.091C169.344 101.136 169.11 100.265 168.643 99.4793C168.197 98.6937 167.592 98.0673 166.828 97.6002C166.063 97.133 165.214 96.8995 164.28 96.8995C163.345 96.8995 162.496 97.133 161.732 97.6002C160.967 98.0673 160.351 98.6937 159.884 99.4793C159.438 100.265 159.215 101.136 159.215 102.091C159.215 103.047 159.438 103.917 159.884 104.703C160.351 105.488 160.967 106.115 161.732 106.582C162.496 107.049 163.345 107.283 164.28 107.283ZM180.8 111.646V96.9313H177.233V92.5361H180.895V86.1661H186.246V92.5361H190.036V96.9313H186.342V111.646H180.8ZM192.966 111.646V92.5361H198.508V111.646H192.966ZM195.737 89.7651C194.909 89.7651 194.208 89.4785 193.635 88.9052C193.062 88.3319 192.775 87.6312 192.775 86.8031C192.775 85.9537 193.062 85.2531 193.635 84.701C194.208 84.1277 194.909 83.841 195.737 83.841C196.587 83.841 197.287 84.1277 197.839 84.701C198.413 85.2531 198.699 85.9537 198.699 86.8031C198.699 87.6312 198.413 88.3319 197.839 88.9052C197.287 89.4785 196.587 89.7651 195.737 89.7651ZM212.12 112.283C210.23 112.283 208.5 111.826 206.929 110.913C205.357 110 204.104 108.769 203.17 107.219C202.257 105.669 201.801 103.96 201.801 102.091C201.801 100.201 202.257 98.492 203.17 96.9632C204.104 95.4132 205.357 94.1816 206.929 93.2686C208.5 92.3556 210.23 91.8991 212.12 91.8991C214.031 91.8991 215.762 92.3556 217.312 93.2686C218.883 94.1816 220.125 95.4132 221.038 96.9632C221.972 98.492 222.439 100.201 222.439 102.091C222.439 103.96 221.972 105.669 221.038 107.219C220.125 108.769 218.883 110 217.312 110.913C215.762 111.826 214.031 112.283 212.12 112.283ZM212.12 107.314C213.076 107.314 213.935 107.081 214.7 106.614C215.486 106.147 216.101 105.52 216.547 104.735C217.014 103.928 217.248 103.047 217.248 102.091C217.248 101.114 217.014 100.233 216.547 99.4475C216.101 98.6618 215.486 98.0355 214.7 97.5683C213.935 97.1012 213.076 96.8676 212.12 96.8676C211.165 96.8676 210.294 97.1012 209.508 97.5683C208.744 98.0355 208.128 98.6618 207.661 99.4475C207.215 100.233 206.992 101.114 206.992 102.091C206.992 103.047 207.215 103.928 207.661 104.735C208.128 105.52 208.744 106.147 209.508 106.614C210.294 107.081 211.165 107.314 212.12 107.314ZM225.688 111.646V92.5361H230.657V94.6381C231.336 93.7463 232.175 93.0669 233.173 92.5998C234.171 92.1326 235.243 91.8991 236.39 91.8991C237.749 91.8991 239.012 92.2282 240.18 92.8864C241.369 93.5234 242.324 94.4683 243.046 95.721C243.789 96.9526 244.161 98.4495 244.161 100.212V111.646H238.619V100.944C238.619 99.8828 238.301 98.9379 237.664 98.1098C237.027 97.2817 236.114 96.8676 234.925 96.8676C233.969 96.8676 233.109 97.1967 232.345 97.855C231.602 98.492 231.23 99.5006 231.23 100.881V111.646H225.688ZM266.897 112.219C264.943 112.219 263.213 111.826 261.705 111.041C260.198 110.234 259.009 109.14 258.138 107.76C257.289 106.38 256.864 104.809 256.864 103.047C256.864 101.836 257.066 100.732 257.469 99.7341C257.873 98.7149 258.457 97.7913 259.221 96.9632C259.985 96.1139 260.898 95.3707 261.96 94.7337L261.801 94.5107C261.249 93.7251 260.771 92.9289 260.368 92.122C259.964 91.3151 259.762 90.3915 259.762 89.3511C259.762 88.0134 260.102 86.8243 260.782 85.7839C261.461 84.7222 262.353 83.8941 263.457 83.2996C264.582 82.7051 265.793 82.4078 267.088 82.4078C268.404 82.4078 269.636 82.7157 270.782 83.3314C271.95 83.926 272.895 84.7435 273.617 85.7839C274.36 86.8243 274.732 88.0028 274.732 89.3192C274.732 90.5932 274.424 91.6655 273.808 92.5361C273.192 93.3854 272.492 94.0648 271.706 94.5744C270.942 95.084 270.326 95.4556 269.859 95.6892L269.286 95.9758L274.796 103.588C275.9 102.123 276.484 100.499 276.547 98.7149L280.051 103.524C279.393 104.989 278.543 106.263 277.503 107.346L280.656 111.646H274.095L273.235 110.499C272.258 111.073 271.228 111.497 270.145 111.773C269.084 112.071 268.001 112.219 266.897 112.219ZM267.534 107.442C268.086 107.442 268.617 107.389 269.126 107.283C269.636 107.155 270.124 106.985 270.591 106.773L264.572 98.4283C264.211 98.6618 263.839 98.9697 263.457 99.3519C263.096 99.7341 262.799 100.191 262.565 100.721C262.332 101.231 262.215 101.847 262.215 102.569C262.215 103.885 262.671 105.032 263.584 106.009C264.497 106.964 265.814 107.442 267.534 107.442ZM266.642 92.4724L267.598 91.9309C267.81 91.8035 268.075 91.6336 268.394 91.4213C268.712 91.1877 268.999 90.8799 269.254 90.4977C269.53 90.1155 269.668 89.6483 269.668 89.0963C269.668 88.4168 269.434 87.8329 268.967 87.3445C268.521 86.8562 267.958 86.612 267.279 86.612C266.557 86.612 265.963 86.8562 265.495 87.3445C265.05 87.8117 264.827 88.3531 264.827 88.9689C264.827 89.4148 264.933 89.8394 265.145 90.2429C265.357 90.6251 265.623 91.0391 265.941 91.485L266.642 92.4724ZM293.513 111.646V82.9811H308.801V87.9497H299.055V92.345H306.572V97.1224H299.055V106.486H308.801V111.646H293.513ZM312.623 111.646V92.5361H317.592V94.6381C318.271 93.7463 319.11 93.0669 320.108 92.5998C321.106 92.1326 322.178 91.8991 323.325 91.8991C324.684 91.8991 325.947 92.2282 327.115 92.8864C328.304 93.5234 329.26 94.4683 329.981 95.721C330.725 96.9526 331.096 98.4495 331.096 100.212V111.646H325.554V100.944C325.554 99.8828 325.236 98.9379 324.599 98.1098C323.962 97.2817 323.049 96.8676 321.86 96.8676C320.904 96.8676 320.044 97.1967 319.28 97.855C318.537 98.492 318.165 99.5006 318.165 100.881V111.646H312.623ZM344.833 112.283C342.689 112.283 340.799 111.837 339.164 110.945C337.529 110.053 336.255 108.833 335.342 107.283C334.429 105.711 333.973 103.917 333.973 101.9C333.973 99.9677 334.419 98.2584 335.31 96.7721C336.202 95.2645 337.402 94.0755 338.909 93.2049C340.438 92.3343 342.126 91.8991 343.973 91.8991C345.863 91.8991 347.551 92.3343 349.038 93.2049C350.524 94.0542 351.692 95.2221 352.541 96.7084C353.412 98.1947 353.847 99.8828 353.847 101.773V103.715H342.19C341.659 103.715 341.149 103.684 340.661 103.62C340.173 103.556 339.684 103.482 339.196 103.397C339.451 104.671 340.077 105.711 341.075 106.518C342.094 107.304 343.39 107.697 344.961 107.697C346.171 107.697 347.254 107.452 348.21 106.964C349.186 106.476 349.982 105.871 350.598 105.149L351.809 110.117C350.853 110.839 349.77 111.381 348.56 111.742C347.371 112.102 346.129 112.283 344.833 112.283ZM339.069 100.053C340.13 99.8191 341.171 99.7023 342.19 99.7023H345.566C346.16 99.7023 346.723 99.7235 347.254 99.766C347.785 99.8084 348.284 99.8828 348.751 99.9889C348.432 98.8423 347.849 97.9399 346.999 97.2817C346.171 96.6235 345.141 96.2943 343.91 96.2943C342.742 96.2943 341.723 96.6341 340.852 97.3135C340.003 97.9718 339.408 98.8848 339.069 100.053ZM356.919 111.646V92.5361H361.888V95.8166C362.546 94.7125 363.374 93.8631 364.372 93.2686C365.392 92.6528 366.581 92.345 367.939 92.345L369.15 97.2498C368.746 97.1224 368.29 97.0587 367.78 97.0587C366.188 97.0587 364.903 97.5789 363.926 98.6194C362.95 99.6386 362.461 101.104 362.461 103.015V111.646H356.919ZM379.283 121.838C377.797 121.838 376.374 121.615 375.015 121.169C373.677 120.744 372.52 120.16 371.544 119.417L372.881 113.939C373.561 114.852 374.452 115.595 375.557 116.169C376.661 116.763 377.903 117.06 379.283 117.06C381.236 117.06 382.755 116.498 383.838 115.372C384.92 114.268 385.462 112.846 385.462 111.105V109.767C384.74 110.51 383.869 111.094 382.85 111.519C381.852 111.943 380.748 112.156 379.538 112.156C377.775 112.156 376.172 111.699 374.728 110.786C373.285 109.873 372.127 108.663 371.257 107.155C370.408 105.626 369.983 103.938 369.983 102.091C369.983 100.244 370.408 98.5557 371.257 97.0269C372.127 95.4981 373.285 94.2878 374.728 93.396C376.172 92.483 377.775 92.0265 379.538 92.0265C380.769 92.0265 381.895 92.2494 382.914 92.6953C383.933 93.12 384.804 93.7145 385.526 94.4789V92.5361H390.303V111.901C390.303 113.982 389.793 115.765 388.774 117.252C387.755 118.738 386.407 119.874 384.729 120.659C383.052 121.445 381.236 121.838 379.283 121.838ZM380.207 107.283C381.141 107.283 381.99 107.049 382.755 106.582C383.519 106.115 384.124 105.488 384.57 104.703C385.037 103.917 385.271 103.047 385.271 102.091C385.271 101.136 385.037 100.265 384.57 99.4793C384.124 98.6937 383.519 98.0673 382.755 97.6002C381.99 97.133 381.141 96.8995 380.207 96.8995C379.272 96.8995 378.423 97.133 377.659 97.6002C376.894 98.0673 376.279 98.6937 375.811 99.4793C375.365 100.265 375.143 101.136 375.143 102.091C375.143 103.047 375.365 103.917 375.811 104.703C376.279 105.488 376.894 106.115 377.659 106.582C378.423 107.049 379.272 107.283 380.207 107.283ZM394.02 121.201L400.39 108.397L392.586 92.5361H398.701L402.078 99.543C402.375 100.18 402.63 100.764 402.842 101.295C403.076 101.804 403.267 102.303 403.415 102.792C403.585 102.303 403.787 101.804 404.02 101.295C404.254 100.764 404.53 100.18 404.848 99.543L408.288 92.5361H414.181L399.975 121.201H394.02ZM426.092 111.646V92.5361H431.634V111.646H426.092ZM428.863 89.7651C428.035 89.7651 427.335 89.4785 426.761 88.9052C426.188 88.3319 425.901 87.6312 425.901 86.8031C425.901 85.9537 426.188 85.2531 426.761 84.701C427.335 84.1277 428.035 83.841 428.863 83.841C429.713 83.841 430.413 84.1277 430.965 84.701C431.539 85.2531 431.825 85.9537 431.825 86.8031C431.825 87.6312 431.539 88.3319 430.965 88.9052C430.413 89.4785 429.713 89.7651 428.863 89.7651ZM435.882 111.646V92.5361H440.851V94.6381C441.53 93.7463 442.369 93.0669 443.367 92.5998C444.365 92.1326 445.437 91.8991 446.584 91.8991C447.943 91.8991 449.206 92.2282 450.374 92.8864C451.563 93.5234 452.518 94.4683 453.24 95.721C453.984 96.9526 454.355 98.4495 454.355 100.212V111.646H448.813V100.944C448.813 99.8828 448.495 98.9379 447.858 98.1098C447.221 97.2817 446.308 96.8676 445.119 96.8676C444.163 96.8676 443.303 97.1967 442.539 97.855C441.796 98.492 441.424 99.5006 441.424 100.881V111.646H435.882ZM468.683 111.646V82.9811H483.971V87.9497H474.224V92.345H481.741V97.1224H474.224V106.486H483.971V111.646H468.683ZM495.42 112.601L484.941 92.5361H491.088L494.082 98.6831C494.358 99.2139 494.613 99.7447 494.846 100.276C495.08 100.785 495.313 101.369 495.547 102.027C495.78 101.369 496.014 100.785 496.248 100.276C496.481 99.7447 496.736 99.2139 497.012 98.6831L500.006 92.5361H505.898L495.42 112.601ZM517.136 112.283C514.992 112.283 513.102 111.837 511.467 110.945C509.832 110.053 508.558 108.833 507.645 107.283C506.732 105.711 506.275 103.917 506.275 101.9C506.275 99.9677 506.721 98.2584 507.613 96.7721C508.505 95.2645 509.705 94.0755 511.212 93.2049C512.741 92.3343 514.429 91.8991 516.276 91.8991C518.166 91.8991 519.854 92.3343 521.34 93.2049C522.827 94.0542 523.994 95.2221 524.844 96.7084C525.714 98.1947 526.15 99.8828 526.15 101.773V103.715H514.493C513.962 103.715 513.452 103.684 512.964 103.62C512.475 103.556 511.987 103.482 511.499 103.397C511.754 104.671 512.38 105.711 513.378 106.518C514.397 107.304 515.692 107.697 517.264 107.697C518.474 107.697 519.557 107.452 520.512 106.964C521.489 106.476 522.285 105.871 522.901 105.149L524.111 110.117C523.156 110.839 522.073 111.381 520.863 111.742C519.674 112.102 518.431 112.283 517.136 112.283ZM511.371 100.053C512.433 99.8191 513.473 99.7023 514.493 99.7023H517.869C518.463 99.7023 519.026 99.7235 519.557 99.766C520.088 99.8084 520.587 99.8828 521.054 99.9889C520.735 98.8423 520.151 97.9399 519.302 97.2817C518.474 96.6235 517.444 96.2943 516.213 96.2943C515.045 96.2943 514.025 96.6341 513.155 97.3135C512.306 97.9718 511.711 98.8848 511.371 100.053ZM529.222 111.646V92.5361H534.191V95.8166C534.849 94.7125 535.677 93.8631 536.675 93.2686C537.694 92.6528 538.883 92.345 540.242 92.345L541.453 97.2498C541.049 97.1224 540.593 97.0587 540.083 97.0587C538.491 97.0587 537.206 97.5789 536.229 98.6194C535.252 99.6386 534.764 101.104 534.764 103.015V111.646H529.222ZM543.39 121.201L549.76 108.397L541.957 92.5361H548.072L551.448 99.543C551.746 100.18 552 100.764 552.213 101.295C552.446 101.804 552.637 102.303 552.786 102.792C552.956 102.303 553.158 101.804 553.391 101.295C553.625 100.764 553.901 100.18 554.219 99.543L557.659 92.5361H563.551L549.346 121.201H543.39ZM583.712 112.283C581.971 112.283 580.315 111.964 578.744 111.327C577.194 110.669 575.952 109.884 575.017 108.971L576.578 102.601C577.321 103.896 578.372 104.979 579.731 105.849C581.09 106.699 582.481 107.123 583.903 107.123C585.071 107.123 585.984 106.805 586.643 106.168C587.322 105.531 587.662 104.756 587.662 103.843C587.662 103.1 587.481 102.484 587.12 101.995C586.781 101.507 586.366 101.104 585.878 100.785C585.411 100.467 584.997 100.222 584.636 100.053L581.26 98.3646C580.283 97.8762 579.349 97.3029 578.457 96.6447C577.565 95.9652 576.833 95.1265 576.259 94.1285C575.707 93.1306 575.431 91.8991 575.431 90.434C575.431 88.8202 575.792 87.4082 576.514 86.1979C577.257 84.9876 578.298 84.0428 579.636 83.3633C580.973 82.6838 582.544 82.3441 584.349 82.3441C586.048 82.3441 587.556 82.6201 588.872 83.1722C590.21 83.703 591.293 84.2763 592.121 84.8921L590.656 91.1028C589.806 89.9987 588.787 89.1175 587.598 88.4593C586.43 87.7798 585.262 87.4401 584.095 87.4401C583.054 87.4401 582.247 87.7055 581.674 88.2363C581.122 88.7672 580.846 89.4254 580.846 90.211C580.846 90.6994 580.952 91.1347 581.164 91.5169C581.398 91.8991 581.727 92.2388 582.152 92.5361C582.576 92.8333 583.075 93.1306 583.649 93.4278L587.057 95.1159C587.63 95.3919 588.256 95.7529 588.936 96.1988C589.615 96.6234 590.273 97.1649 590.91 97.8231C591.547 98.4814 592.068 99.2776 592.471 100.212C592.874 101.125 593.076 102.218 593.076 103.492C593.076 105.149 592.694 106.646 591.93 107.983C591.165 109.3 590.082 110.351 588.681 111.136C587.301 111.901 585.645 112.283 583.712 112.283ZM596.469 111.646V92.5361H602.011V111.646H596.469ZM599.24 89.7651C598.412 89.7651 597.711 89.4785 597.138 88.9052C596.565 88.3319 596.278 87.6312 596.278 86.8031C596.278 85.9537 596.565 85.2531 597.138 84.701C597.711 84.1277 598.412 83.841 599.24 83.841C600.089 83.841 600.79 84.1277 601.342 84.701C601.916 85.2531 602.202 85.9537 602.202 86.8031C602.202 87.6312 601.916 88.3319 601.342 88.9052C600.79 89.4785 600.089 89.7651 599.24 89.7651ZM606.259 121.201V92.5361H611.036V94.4152C611.78 93.672 612.65 93.0881 613.648 92.6635C614.667 92.2388 615.782 92.0265 616.992 92.0265C618.776 92.0265 620.39 92.483 621.834 93.396C623.277 94.2878 624.424 95.4981 625.273 97.0269C626.144 98.5557 626.579 100.244 626.579 102.091C626.579 103.938 626.144 105.626 625.273 107.155C624.424 108.663 623.277 109.873 621.834 110.786C620.39 111.699 618.776 112.156 616.992 112.156C615.973 112.156 615.028 111.996 614.158 111.678C613.287 111.381 612.502 110.967 611.801 110.436V121.201H606.259ZM616.355 107.283C617.29 107.283 618.139 107.049 618.903 106.582C619.668 106.115 620.273 105.488 620.719 104.703C621.186 103.917 621.42 103.047 621.42 102.091C621.42 101.136 621.186 100.265 620.719 99.4793C620.273 98.6937 619.668 98.0673 618.903 97.6002C618.139 97.133 617.29 96.8995 616.355 96.8995C615.421 96.8995 614.572 97.133 613.807 97.6002C613.043 98.0673 612.427 98.6937 611.96 99.4793C611.514 100.265 611.291 101.136 611.291 102.091C611.291 103.047 611.514 103.917 611.96 104.703C612.427 105.488 613.043 106.115 613.807 106.582C614.572 107.049 615.421 107.283 616.355 107.283Z" fill="url(#paint1_linear_231_349)"/>
</g>
<g filter="url(#filter2_d_231_349)">
<path d="M34.4053 163.928C33.0464 163.928 31.8786 163.44 30.9018 162.463C29.9251 161.486 29.4367 160.318 29.4367 158.959C29.4367 157.579 29.9251 156.411 30.9018 155.456C31.8786 154.479 33.0464 153.991 34.4053 153.991C35.7855 153.991 36.9533 154.479 37.9088 155.456C38.8855 156.411 39.3739 157.579 39.3739 158.959C39.3739 160.318 38.8855 161.486 37.9088 162.463C36.9533 163.44 35.7855 163.928 34.4053 163.928ZM94.403 174.247L77.204 157.08V173.292H71.8533V143.672L89.0522 160.807V144.627H94.403V174.247ZM108.162 173.801C106.4 173.801 104.797 173.345 103.353 172.432C101.909 171.519 100.752 170.309 99.8811 168.801C99.0318 167.272 98.6072 165.584 98.6072 163.737C98.6072 161.89 99.0318 160.202 99.8811 158.673C100.752 157.144 101.909 155.934 103.353 155.042C104.797 154.129 106.4 153.672 108.162 153.672C109.394 153.672 110.519 153.895 111.538 154.341C112.557 154.766 113.428 155.36 114.15 156.125V154.182H118.927V173.292H114.15V171.349C113.428 172.113 112.557 172.719 111.538 173.165C110.519 173.589 109.394 173.801 108.162 173.801ZM108.831 168.928C109.765 168.928 110.615 168.695 111.379 168.228C112.143 167.761 112.748 167.134 113.194 166.349C113.662 165.563 113.895 164.692 113.895 163.737C113.895 162.781 113.662 161.911 113.194 161.125C112.748 160.34 112.143 159.713 111.379 159.246C110.615 158.779 109.765 158.545 108.831 158.545C107.897 158.545 107.047 158.779 106.283 159.246C105.519 159.713 104.903 160.34 104.436 161.125C103.99 161.911 103.767 162.781 103.767 163.737C103.767 164.692 103.99 165.563 104.436 166.349C104.903 167.134 105.519 167.761 106.283 168.228C107.047 168.695 107.897 168.928 108.831 168.928ZM125.351 173.292V158.577H121.784V154.182H125.447V147.812H130.797V154.182H134.588V158.577H130.893V173.292H125.351ZM144.843 173.929C143.505 173.929 142.242 173.61 141.053 172.973C139.864 172.315 138.898 171.37 138.155 170.139C137.433 168.886 137.072 167.378 137.072 165.616V154.182H142.614V164.884C142.614 165.945 142.932 166.89 143.569 167.718C144.227 168.546 145.14 168.96 146.308 168.96C147.264 168.96 148.113 168.621 148.856 167.941C149.621 167.24 150.003 166.242 150.003 164.947V154.182H155.545V173.292H150.512V171.285C149.833 172.135 148.994 172.793 147.996 173.26C147.02 173.706 145.969 173.929 144.843 173.929ZM159.759 173.292V154.182H164.727V157.463C165.386 156.358 166.214 155.509 167.212 154.915C168.231 154.299 169.42 153.991 170.779 153.991L171.989 158.896C171.586 158.768 171.129 158.705 170.62 158.705C169.027 158.705 167.743 159.225 166.766 160.265C165.789 161.285 165.301 162.75 165.301 164.661V173.292H159.759ZM182.377 173.801C180.615 173.801 179.012 173.345 177.568 172.432C176.124 171.519 174.967 170.309 174.096 168.801C173.247 167.272 172.822 165.584 172.822 163.737C172.822 161.89 173.247 160.202 174.096 158.673C174.967 157.144 176.124 155.934 177.568 155.042C179.012 154.129 180.615 153.672 182.377 153.672C183.609 153.672 184.734 153.895 185.753 154.341C186.773 154.766 187.643 155.36 188.365 156.125V154.182H193.143V173.292H188.365V171.349C187.643 172.113 186.773 172.719 185.753 173.165C184.734 173.589 183.609 173.801 182.377 173.801ZM183.046 168.928C183.98 168.928 184.83 168.695 185.594 168.228C186.358 167.761 186.964 167.134 187.41 166.349C187.877 165.563 188.11 164.692 188.11 163.737C188.11 162.781 187.877 161.911 187.41 161.125C186.964 160.34 186.358 159.713 185.594 159.246C184.83 158.779 183.98 158.545 183.046 158.545C182.112 158.545 181.263 158.779 180.498 159.246C179.734 159.713 179.118 160.34 178.651 161.125C178.205 161.911 177.982 162.781 177.982 163.737C177.982 164.692 178.205 165.563 178.651 166.349C179.118 167.134 179.734 167.761 180.498 168.228C181.263 168.695 182.112 168.928 183.046 168.928ZM197.4 173.292V142.716H202.942V173.292H197.4ZM217.686 173.292V144.627H227.432C229.725 144.627 231.806 144.999 233.674 145.742C235.564 146.485 237.189 147.515 238.547 148.831C239.928 150.126 240.989 151.645 241.732 153.386C242.476 155.127 242.847 156.985 242.847 158.959C242.847 160.934 242.476 162.792 241.732 164.533C240.989 166.274 239.928 167.803 238.547 169.12C237.189 170.415 235.564 171.434 233.674 172.177C231.806 172.92 229.725 173.292 227.432 173.292H217.686ZM223.228 168.132H226.922C228.536 168.132 229.959 167.899 231.19 167.432C232.422 166.943 233.451 166.285 234.28 165.457C235.129 164.608 235.766 163.631 236.191 162.527C236.636 161.423 236.859 160.233 236.859 158.959C236.859 157.685 236.636 156.496 236.191 155.392C235.766 154.267 235.129 153.29 234.28 152.462C233.451 151.613 232.422 150.955 231.19 150.487C229.959 150.02 228.536 149.787 226.922 149.787H223.228V168.132ZM246.713 173.292V154.182H252.255V173.292H246.713ZM249.484 151.411C248.656 151.411 247.955 151.124 247.382 150.551C246.809 149.978 246.522 149.277 246.522 148.449C246.522 147.6 246.809 146.899 247.382 146.347C247.955 145.774 248.656 145.487 249.484 145.487C250.333 145.487 251.034 145.774 251.586 146.347C252.159 146.899 252.446 147.6 252.446 148.449C252.446 149.277 252.159 149.978 251.586 150.551C251.034 151.124 250.333 151.411 249.484 151.411ZM264.847 183.484C263.361 183.484 261.939 183.261 260.58 182.815C259.242 182.39 258.085 181.806 257.108 181.063L258.446 175.585C259.125 176.498 260.017 177.241 261.121 177.815C262.225 178.409 263.467 178.706 264.847 178.706C266.801 178.706 268.319 178.144 269.402 177.018C270.485 175.914 271.026 174.492 271.026 172.75V171.413C270.304 172.156 269.434 172.74 268.415 173.165C267.417 173.589 266.313 173.801 265.102 173.801C263.34 173.801 261.737 173.345 260.293 172.432C258.849 171.519 257.692 170.309 256.821 168.801C255.972 167.272 255.547 165.584 255.547 163.737C255.547 161.89 255.972 160.202 256.821 158.673C257.692 157.144 258.849 155.934 260.293 155.042C261.737 154.129 263.34 153.672 265.102 153.672C266.334 153.672 267.459 153.895 268.478 154.341C269.498 154.766 270.368 155.36 271.09 156.125V154.182H275.868V173.547C275.868 175.628 275.358 177.411 274.339 178.897C273.32 180.384 271.971 181.52 270.294 182.305C268.616 183.091 266.801 183.484 264.847 183.484ZM265.771 168.928C266.705 168.928 267.555 168.695 268.319 168.228C269.084 167.761 269.689 167.134 270.135 166.349C270.602 165.563 270.835 164.692 270.835 163.737C270.835 162.781 270.602 161.911 270.135 161.125C269.689 160.34 269.084 159.713 268.319 159.246C267.555 158.779 266.705 158.545 265.771 158.545C264.837 158.545 263.988 158.779 263.223 159.246C262.459 159.713 261.843 160.34 261.376 161.125C260.93 161.911 260.707 162.781 260.707 163.737C260.707 164.692 260.93 165.563 261.376 166.349C261.843 167.134 262.459 167.761 263.223 168.228C263.988 168.695 264.837 168.928 265.771 168.928ZM289.967 173.929C287.822 173.929 285.933 173.483 284.298 172.591C282.663 171.699 281.389 170.478 280.476 168.928C279.563 167.357 279.106 165.563 279.106 163.546C279.106 161.614 279.552 159.904 280.444 158.418C281.336 156.91 282.535 155.721 284.043 154.851C285.572 153.98 287.26 153.545 289.107 153.545C290.997 153.545 292.685 153.98 294.171 154.851C295.658 155.7 296.825 156.868 297.675 158.354C298.545 159.841 298.981 161.529 298.981 163.418V165.361H287.324C286.793 165.361 286.283 165.329 285.795 165.266C285.306 165.202 284.818 165.128 284.33 165.043C284.584 166.317 285.211 167.357 286.209 168.164C287.228 168.95 288.523 169.343 290.094 169.343C291.305 169.343 292.388 169.098 293.343 168.61C294.32 168.122 295.116 167.516 295.732 166.795L296.942 171.763C295.987 172.485 294.904 173.026 293.693 173.387C292.504 173.748 291.262 173.929 289.967 173.929ZM284.202 161.699C285.264 161.465 286.304 161.348 287.324 161.348H290.7C291.294 161.348 291.857 161.369 292.388 161.412C292.918 161.454 293.417 161.529 293.885 161.635C293.566 160.488 292.982 159.586 292.133 158.928C291.305 158.269 290.275 157.94 289.043 157.94C287.876 157.94 286.856 158.28 285.986 158.959C285.136 159.618 284.542 160.531 284.202 161.699ZM308.328 173.929C307.032 173.929 305.716 173.717 304.378 173.292C303.062 172.867 302.032 172.294 301.289 171.572L302.658 166.349C303.274 167.198 304.123 167.941 305.206 168.578C306.31 169.215 307.446 169.534 308.614 169.534C309.4 169.534 309.962 169.385 310.302 169.088C310.663 168.79 310.844 168.429 310.844 168.005C310.844 167.516 310.663 167.166 310.302 166.954C309.941 166.72 309.57 166.529 309.187 166.38L306.512 165.361C305.918 165.128 305.238 164.809 304.474 164.406C303.709 164.002 303.04 163.429 302.467 162.686C301.915 161.943 301.639 160.966 301.639 159.756C301.639 158.652 301.915 157.632 302.467 156.698C303.019 155.764 303.815 155.01 304.856 154.437C305.918 153.842 307.192 153.545 308.678 153.545C310.058 153.545 311.343 153.779 312.532 154.246C313.742 154.713 314.623 155.233 315.175 155.806L313.901 160.839C313.179 159.904 312.319 159.193 311.321 158.705C310.345 158.195 309.41 157.94 308.519 157.94C307.839 157.94 307.34 158.078 307.022 158.354C306.703 158.63 306.544 158.949 306.544 159.31C306.544 159.586 306.65 159.862 306.862 160.138C307.096 160.393 307.478 160.626 308.009 160.839L310.493 161.762C311.215 162.017 311.98 162.357 312.786 162.781C313.615 163.206 314.315 163.801 314.889 164.565C315.462 165.308 315.749 166.338 315.749 167.654C315.749 169.502 315.058 171.009 313.678 172.177C312.319 173.345 310.536 173.929 308.328 173.929ZM321.168 173.292V158.577H317.601V154.182H321.264V147.812H326.614V154.182H330.404V158.577H326.71V173.292H321.168ZM333.335 173.292V154.182H338.876V173.292H333.335ZM336.106 151.411C335.277 151.411 334.577 151.124 334.003 150.551C333.43 149.978 333.144 149.277 333.144 148.449C333.144 147.6 333.43 146.899 334.003 146.347C334.577 145.774 335.277 145.487 336.106 145.487C336.955 145.487 337.656 145.774 338.208 146.347C338.781 146.899 339.068 147.6 339.068 148.449C339.068 149.277 338.781 149.978 338.208 150.551C337.656 151.124 336.955 151.411 336.106 151.411ZM352.488 173.929C350.599 173.929 348.868 173.472 347.297 172.559C345.726 171.646 344.473 170.415 343.539 168.865C342.625 167.315 342.169 165.605 342.169 163.737C342.169 161.847 342.625 160.138 343.539 158.609C344.473 157.059 345.726 155.828 347.297 154.915C348.868 154.002 350.599 153.545 352.488 153.545C354.399 153.545 356.13 154.002 357.68 154.915C359.251 155.828 360.493 157.059 361.406 158.609C362.341 160.138 362.808 161.847 362.808 163.737C362.808 165.605 362.341 167.315 361.406 168.865C360.493 170.415 359.251 171.646 357.68 172.559C356.13 173.472 354.399 173.929 352.488 173.929ZM352.488 168.96C353.444 168.96 354.304 168.727 355.068 168.26C355.854 167.792 356.47 167.166 356.915 166.38C357.383 165.574 357.616 164.692 357.616 163.737C357.616 162.76 357.383 161.879 356.915 161.093C356.47 160.308 355.854 159.681 355.068 159.214C354.304 158.747 353.444 158.514 352.488 158.514C351.533 158.514 350.662 158.747 349.877 159.214C349.112 159.681 348.496 160.308 348.029 161.093C347.583 161.879 347.36 162.76 347.36 163.737C347.36 164.692 347.583 165.574 348.029 166.38C348.496 167.166 349.112 167.792 349.877 168.26C350.662 168.727 351.533 168.96 352.488 168.96ZM366.056 173.292V154.182H371.025V156.284C371.704 155.392 372.543 154.713 373.541 154.246C374.539 153.779 375.611 153.545 376.758 153.545C378.117 153.545 379.38 153.874 380.548 154.532C381.737 155.169 382.693 156.114 383.415 157.367C384.158 158.598 384.529 160.095 384.529 161.858V173.292H378.987V162.59C378.987 161.529 378.669 160.584 378.032 159.756C377.395 158.928 376.482 158.514 375.293 158.514C374.337 158.514 373.477 158.843 372.713 159.501C371.97 160.138 371.598 161.146 371.598 162.527V173.292H366.056ZM398.857 173.292V144.627H407.838C409.749 144.627 411.268 144.999 412.393 145.742C413.54 146.464 414.357 147.345 414.845 148.385C415.334 149.405 415.578 150.381 415.578 151.315C415.578 152.144 415.419 152.929 415.1 153.672C414.782 154.394 414.336 155.031 413.762 155.583C415.079 156.411 416.141 157.516 416.947 158.896C417.754 160.255 418.158 161.773 418.158 163.45C418.158 165.085 417.754 166.657 416.947 168.164C416.141 169.672 414.941 170.903 413.348 171.859C411.756 172.814 409.792 173.292 407.456 173.292H398.857ZM404.399 168.132H406.883C408.157 168.132 409.176 167.888 409.94 167.4C410.726 166.89 411.289 166.264 411.629 165.521C411.99 164.756 412.17 164.002 412.17 163.259C412.17 162.537 412 161.805 411.66 161.062C411.321 160.297 410.758 159.66 409.972 159.151C409.208 158.641 408.178 158.386 406.883 158.386H404.399V168.132ZM404.399 154.373H406.883C407.881 154.373 408.688 154.14 409.304 153.672C409.919 153.205 410.227 152.526 410.227 151.634C410.227 150.7 409.919 149.999 409.304 149.532C408.709 149.065 407.945 148.831 407.01 148.831H404.399V154.373ZM431.138 173.929C429.248 173.929 427.517 173.472 425.946 172.559C424.375 171.646 423.122 170.415 422.188 168.865C421.275 167.315 420.818 165.605 420.818 163.737C420.818 161.847 421.275 160.138 422.188 158.609C423.122 157.059 424.375 155.828 425.946 154.915C427.517 154.002 429.248 153.545 431.138 153.545C433.049 153.545 434.779 154.002 436.329 154.915C437.9 155.828 439.143 157.059 440.056 158.609C440.99 160.138 441.457 161.847 441.457 163.737C441.457 165.605 440.99 167.315 440.056 168.865C439.143 170.415 437.9 171.646 436.329 172.559C434.779 173.472 433.049 173.929 431.138 173.929ZM431.138 168.96C432.093 168.96 432.953 168.727 433.717 168.26C434.503 167.792 435.119 167.166 435.565 166.38C436.032 165.574 436.265 164.692 436.265 163.737C436.265 162.76 436.032 161.879 435.565 161.093C435.119 160.308 434.503 159.681 433.717 159.214C432.953 158.747 432.093 158.514 431.138 158.514C430.182 158.514 429.312 158.747 428.526 159.214C427.761 159.681 427.146 160.308 426.679 161.093C426.233 161.879 426.01 162.76 426.01 163.737C426.01 164.692 426.233 165.574 426.679 166.38C427.146 167.166 427.761 167.792 428.526 168.26C429.312 168.727 430.182 168.96 431.138 168.96ZM454.069 173.929C452.18 173.929 450.449 173.472 448.878 172.559C447.307 171.646 446.054 170.415 445.12 168.865C444.207 167.315 443.75 165.605 443.75 163.737C443.75 161.847 444.207 160.138 445.12 158.609C446.054 157.059 447.307 155.828 448.878 154.915C450.449 154.002 452.18 153.545 454.069 153.545C455.98 153.545 457.711 154.002 459.261 154.915C460.832 155.828 462.074 157.059 462.987 158.609C463.922 160.138 464.389 161.847 464.389 163.737C464.389 165.605 463.922 167.315 462.987 168.865C462.074 170.415 460.832 171.646 459.261 172.559C457.711 173.472 455.98 173.929 454.069 173.929ZM454.069 168.96C455.025 168.96 455.885 168.727 456.649 168.26C457.435 167.792 458.051 167.166 458.497 166.38C458.964 165.574 459.197 164.692 459.197 163.737C459.197 162.76 458.964 161.879 458.497 161.093C458.051 160.308 457.435 159.681 456.649 159.214C455.885 158.747 455.025 158.514 454.069 158.514C453.114 158.514 452.243 158.747 451.458 159.214C450.693 159.681 450.078 160.308 449.61 161.093C449.165 161.879 448.942 162.76 448.942 163.737C448.942 164.692 449.165 165.574 449.61 166.38C450.078 167.166 450.693 167.792 451.458 168.26C452.243 168.727 453.114 168.96 454.069 168.96ZM473.912 173.929C472.617 173.929 471.3 173.717 469.963 173.292C468.646 172.867 467.616 172.294 466.873 171.572L468.243 166.349C468.858 167.198 469.708 167.941 470.791 168.578C471.895 169.215 473.031 169.534 474.199 169.534C474.984 169.534 475.547 169.385 475.887 169.088C476.248 168.79 476.428 168.429 476.428 168.005C476.428 167.516 476.248 167.166 475.887 166.954C475.526 166.72 475.154 166.529 474.772 166.38L472.096 165.361C471.502 165.128 470.822 164.809 470.058 164.406C469.294 164.002 468.625 163.429 468.052 162.686C467.499 161.943 467.223 160.966 467.223 159.756C467.223 158.652 467.499 157.632 468.052 156.698C468.604 155.764 469.4 155.01 470.44 154.437C471.502 153.842 472.776 153.545 474.262 153.545C475.642 153.545 476.927 153.779 478.116 154.246C479.326 154.713 480.208 155.233 480.76 155.806L479.486 160.839C478.764 159.904 477.904 159.193 476.906 158.705C475.929 158.195 474.995 157.94 474.103 157.94C473.424 157.94 472.925 158.078 472.606 158.354C472.288 158.63 472.128 158.949 472.128 159.31C472.128 159.586 472.234 159.862 472.447 160.138C472.68 160.393 473.063 160.626 473.593 160.839L476.078 161.762C476.8 162.017 477.564 162.357 478.371 162.781C479.199 163.206 479.9 163.801 480.473 164.565C481.046 165.308 481.333 166.338 481.333 167.654C481.333 169.502 480.643 171.009 479.263 172.177C477.904 173.345 476.12 173.929 473.912 173.929ZM486.752 173.292V158.577H483.185V154.182H486.848V147.812H492.199V154.182H495.989V158.577H492.294V173.292H486.752ZM510.625 173.292V158.577H507.058V154.182H510.72V149.309C510.72 147.037 511.379 145.306 512.695 144.117C514.033 142.928 515.678 142.334 517.632 142.334C518.354 142.334 519.044 142.419 519.702 142.589C520.382 142.737 520.976 142.981 521.486 143.321L520.403 147.812C519.766 147.026 519.023 146.634 518.173 146.634C517.664 146.634 517.186 146.814 516.74 147.175C516.294 147.536 516.071 148.205 516.071 149.182V154.182H519.861V158.577H516.167V173.292H510.625ZM522.728 173.292V154.182H527.696V157.463C528.355 156.358 529.183 155.509 530.181 154.915C531.2 154.299 532.389 153.991 533.748 153.991L534.958 158.896C534.555 158.768 534.098 158.705 533.589 158.705C531.996 158.705 530.712 159.225 529.735 160.265C528.758 161.285 528.27 162.75 528.27 164.661V173.292H522.728ZM546.111 173.929C544.221 173.929 542.49 173.472 540.919 172.559C539.348 171.646 538.095 170.415 537.161 168.865C536.248 167.315 535.791 165.605 535.791 163.737C535.791 161.847 536.248 160.138 537.161 158.609C538.095 157.059 539.348 155.828 540.919 154.915C542.49 154.002 544.221 153.545 546.111 153.545C548.022 153.545 549.752 154.002 551.302 154.915C552.873 155.828 554.116 157.059 555.029 158.609C555.963 160.138 556.43 161.847 556.43 163.737C556.43 165.605 555.963 167.315 555.029 168.865C554.116 170.415 552.873 171.646 551.302 172.559C549.752 173.472 548.022 173.929 546.111 173.929ZM546.111 168.96C547.066 168.96 547.926 168.727 548.69 168.26C549.476 167.792 550.092 167.166 550.538 166.38C551.005 165.574 551.238 164.692 551.238 163.737C551.238 162.76 551.005 161.879 550.538 161.093C550.092 160.308 549.476 159.681 548.69 159.214C547.926 158.747 547.066 158.514 546.111 158.514C545.155 158.514 544.285 158.747 543.499 159.214C542.735 159.681 542.119 160.308 541.652 161.093C541.206 161.879 540.983 162.76 540.983 163.737C540.983 164.692 541.206 165.574 541.652 166.38C542.119 167.166 542.735 167.792 543.499 168.26C544.285 168.727 545.155 168.96 546.111 168.96ZM559.679 173.292V154.182H564.647V156.284C565.327 155.392 566.165 154.713 567.163 154.246C568.183 153.779 569.244 153.545 570.348 153.545C571.474 153.545 572.535 153.779 573.533 154.246C574.531 154.713 575.37 155.392 576.049 156.284C576.793 155.392 577.716 154.713 578.82 154.246C579.925 153.779 581.124 153.545 582.419 153.545C583.778 153.545 585.052 153.863 586.241 154.5C587.43 155.116 588.397 156.029 589.14 157.24C589.883 158.429 590.254 159.883 590.254 161.603V173.292H584.713V162.399C584.713 161.38 584.415 160.478 583.821 159.692C583.226 158.906 582.366 158.514 581.241 158.514C580.646 158.514 580.073 158.662 579.521 158.959C578.99 159.235 578.555 159.66 578.215 160.233C577.897 160.786 577.737 161.486 577.737 162.336V173.292H572.196V162.399C572.196 161.72 572.058 161.083 571.782 160.488C571.527 159.894 571.134 159.416 570.603 159.055C570.094 158.694 569.467 158.514 568.724 158.514C568.129 158.514 567.556 158.662 567.004 158.959C566.473 159.235 566.038 159.66 565.698 160.233C565.38 160.786 565.221 161.486 565.221 162.336V173.292H559.679ZM604.572 173.292V144.627H619.86V149.405H610.114V153.991H618.904V158.768H610.114V173.292H604.572ZM622.114 173.292V154.182H627.083V157.463C627.741 156.358 628.569 155.509 629.567 154.915C630.586 154.299 631.775 153.991 633.134 153.991L634.345 158.896C633.941 158.768 633.485 158.705 632.975 158.705C631.383 158.705 630.098 159.225 629.121 160.265C628.145 161.285 627.656 162.75 627.656 164.661V173.292H622.114ZM644.149 173.929C642.812 173.929 641.548 173.61 640.359 172.973C639.17 172.315 638.204 171.37 637.461 170.139C636.739 168.886 636.378 167.378 636.378 165.616V154.182H641.92V164.884C641.92 165.945 642.238 166.89 642.875 167.718C643.534 168.546 644.447 168.96 645.614 168.96C646.57 168.96 647.419 168.621 648.162 167.941C648.927 167.24 649.309 166.242 649.309 164.947V154.182H654.851V173.292H649.819V171.285C649.139 172.135 648.3 172.793 647.303 173.26C646.326 173.706 645.275 173.929 644.149 173.929ZM659.129 173.292V154.182H664.671V173.292H659.129ZM661.9 151.411C661.072 151.411 660.371 151.124 659.798 150.551C659.224 149.978 658.938 149.277 658.938 148.449C658.938 147.6 659.224 146.899 659.798 146.347C660.371 145.774 661.072 145.487 661.9 145.487C662.749 145.487 663.45 145.774 664.002 146.347C664.575 146.899 664.862 147.6 664.862 148.449C664.862 149.277 664.575 149.978 664.002 150.551C663.45 151.124 662.749 151.411 661.9 151.411ZM671.148 173.292V158.577H667.581V154.182H671.244V147.812H676.594V154.182H680.385V158.577H676.69V173.292H671.148Z" fill="url(#paint2_linear_231_349)"/>
</g>
<defs>
<filter id="filter0_d_231_349" x="18.9188" y="11.777" width="634.76" height="52.9494" filterUnits="userSpaceOnUse" color-interpolation-filters="sRGB">
<feFlood flood-opacity="0" result="BackgroundImageFix"/>
<feColorMatrix in="SourceAlpha" type="matrix" values="0 0 0 0 0 0 0 0 0 0 0 0 0 0 0 0 0 0 127 0" result="hardAlpha"/>
<feOffset dy="3.25297"/>
<feGaussianBlur stdDeviation="5.25897"/>
<feComposite in2="hardAlpha" operator="out"/>
<feColorMatrix type="matrix" values="0 0 0 0 0 0 0 0 0 0 0 0 0 0 0 0 0 0 0.25 0"/>
<feBlend mode="normal" in2="BackgroundImageFix" result="effect1_dropShadow_231_349"/>
<feBlend mode="normal" in="SourceGraphic" in2="effect1_dropShadow_231_349" result="shape"/>
</filter>
<filter id="filter1_d_231_349" x="18.9188" y="73.8051" width="618.178" height="61.8037" filterUnits="userSpaceOnUse" color-interpolation-filters="sRGB">
<feFlood flood-opacity="0" result="BackgroundImageFix"/>
<feColorMatrix in="SourceAlpha" type="matrix" values="0 0 0 0 0 0 0 0 0 0 0 0 0 0 0 0 0 0 127 0" result="hardAlpha"/>
<feOffset dy="3.25297"/>
<feGaussianBlur stdDeviation="5.25897"/>
<feComposite in2="hardAlpha" operator="out"/>
<feColorMatrix type="matrix" values="0 0 0 0 0 0 0 0 0 0 0 0 0 0 0 0 0 0 0.25 0"/>
<feBlend mode="normal" in2="BackgroundImageFix" result="effect1_dropShadow_231_349"/>
<feBlend mode="normal" in="SourceGraphic" in2="effect1_dropShadow_231_349" result="shape"/>
</filter>
<filter id="filter2_d_231_349" x="18.9188" y="135.069" width="671.984" height="62.1859" filterUnits="userSpaceOnUse" color-interpolation-filters="sRGB">
<feFlood flood-opacity="0" result="BackgroundImageFix"/>
<feColorMatrix in="SourceAlpha" type="matrix" values="0 0 0 0 0 0 0 0 0 0 0 0 0 0 0 0 0 0 127 0" result="hardAlpha"/>
<feOffset dy="3.25297"/>
<feGaussianBlur stdDeviation="5.25897"/>
<feComposite in2="hardAlpha" operator="out"/>
<feColorMatrix type="matrix" values="0 0 0 0 0 0 0 0 0 0 0 0 0 0 0 0 0 0 0.25 0"/>
<feBlend mode="normal" in2="BackgroundImageFix" result="effect1_dropShadow_231_349"/>
<feBlend mode="normal" in="SourceGraphic" in2="effect1_dropShadow_231_349" result="shape"/>
</filter>
<linearGradient id="paint0_linear_231_349" x1="325.488" y1="0" x2="325.488" y2="69.2682" gradientUnits="userSpaceOnUse">
<stop stop-color="#E7E6E6"/>
<stop offset="1" stop-color="white"/>
</linearGradient>
<linearGradient id="paint1_linear_231_349" x1="325.488" y1="61.646" x2="325.488" y2="130.914" gradientUnits="userSpaceOnUse">
<stop stop-color="#E7E6E6"/>
<stop offset="1" stop-color="white"/>
</linearGradient>
<linearGradient id="paint2_linear_231_349" x1="343" y1="123.292" x2="343" y2="192.689" gradientUnits="userSpaceOnUse">
<stop stop-color="#E7E6E6"/>
<stop offset="1" stop-color="white"/>
</linearGradient>
</defs>
</svg>
