<svg width="231" height="80" viewBox="0 0 231 80" fill="none" xmlns="http://www.w3.org/2000/svg">
<g filter="url(#filter0_d_93_388)">
<path d="M28.842 14.5024H28.5379C28.396 13.8132 28.2237 13.1848 28.021 12.6172C27.8386 12.0293 27.5649 11.5225 27.2 11.0969C26.8352 10.6712 26.3588 10.3367 25.7709 10.0934C25.2033 9.85019 24.4634 9.72856 23.5513 9.72856H21.1491V27.8204C21.1491 28.7326 21.291 29.4218 21.5748 29.8881C21.8586 30.3543 22.1931 30.5874 22.5782 30.5874V30.8915H14.2773V30.5874C14.6422 30.5874 14.9665 30.3543 15.2503 29.8881C15.5341 29.4218 15.676 28.7326 15.676 27.8204V9.72856H13.2739C12.3617 9.72856 11.6116 9.85019 11.0238 10.0934C10.4562 10.3367 9.98996 10.6712 9.62508 11.0969C9.2602 11.5225 8.97641 12.0293 8.7737 12.6172C8.59126 13.1848 8.42909 13.8132 8.28719 14.5024H7.98313L8.13516 8.81637H28.6899L28.842 14.5024ZM25.8885 30.5874C26.071 30.5874 26.2433 30.5063 26.4054 30.3442C26.5879 30.1617 26.7399 29.9387 26.8615 29.6752C27.0034 29.3914 27.1149 29.0772 27.196 28.7326C27.2771 28.3677 27.3176 28.013 27.3176 27.6684V19.6411C27.3176 19.2559 27.2771 18.8911 27.196 18.5464C27.1149 18.1816 27.0034 17.8674 26.8615 17.6038C26.7399 17.3201 26.5879 17.0971 26.4054 16.9349C26.2433 16.7525 26.071 16.6612 25.8885 16.6612V16.3572C26.4561 16.3166 27.0237 16.266 27.5913 16.2051C28.1589 16.1241 28.7163 16.0328 29.2636 15.9315C29.8109 15.8301 30.3279 15.7186 30.8144 15.597C31.3009 15.4551 31.7367 15.293 32.1218 15.1105H32.4867V17.4518C33.0948 16.6004 33.855 15.9518 34.7672 15.5058C35.6997 15.0396 36.7031 14.8064 37.7774 14.8064C38.5275 14.8064 39.1457 14.9483 39.6322 15.2321C40.1187 15.5159 40.4836 15.8707 40.7269 16.2964C40.9701 16.7221 41.0918 17.1883 41.0918 17.6951C41.0918 18.2018 40.9904 18.6681 40.7877 19.0938C40.585 19.5195 40.2809 19.8742 39.8755 20.158C39.4903 20.4418 39.014 20.5837 38.4464 20.5837C37.7774 20.5837 37.2808 20.4012 36.9565 20.0364C36.6321 19.6715 36.3686 19.2762 36.1659 18.8505C35.9632 18.4045 35.7605 17.9991 35.5578 17.6343C35.3551 17.2694 35.0206 17.0869 34.5544 17.0869C34.3111 17.0869 34.078 17.1579 33.855 17.2998C33.6523 17.4417 33.4597 17.6241 33.2773 17.8471C33.0948 18.0498 32.9327 18.2627 32.7908 18.4856C32.6692 18.6883 32.5678 18.8708 32.4867 19.0329V27.5468C32.4867 27.9116 32.5273 28.2765 32.6083 28.6414C32.6894 29.0063 32.7908 29.3407 32.9124 29.6448C33.0543 29.9286 33.2063 30.1617 33.3685 30.3442C33.5509 30.5063 33.7334 30.5874 33.9158 30.5874V30.8915H25.8885V30.5874ZM40.7948 23.0162C40.7948 21.8405 41.0077 20.756 41.4334 19.7627C41.8793 18.7492 42.4773 17.8775 43.2273 17.1477C43.9976 16.418 44.8997 15.8504 45.9335 15.445C46.9876 15.0193 48.1126 14.8064 49.3086 14.8064C50.5046 14.8064 51.6094 15.0193 52.6229 15.445C53.6568 15.8504 54.5487 16.418 55.2987 17.1477C56.0487 17.8775 56.6366 18.7492 57.0623 19.7627C57.5082 20.756 57.7312 21.8405 57.7312 23.0162C57.7312 24.1716 57.5082 25.2561 57.0623 26.2697C56.6366 27.263 56.0487 28.1245 55.2987 28.8542C54.5487 29.584 53.6568 30.1617 52.6229 30.5874C51.6094 30.9928 50.5046 31.1955 49.3086 31.1955C48.1126 31.1955 46.9876 30.9928 45.9335 30.5874C44.8997 30.1617 43.9976 29.584 43.2273 28.8542C42.4773 28.1245 41.8793 27.263 41.4334 26.2697C41.0077 25.2561 40.7948 24.1716 40.7948 23.0162ZM46.3288 22.9858C46.3288 24.4453 46.3997 25.6616 46.5416 26.6346C46.7038 27.5873 46.9167 28.3475 47.1802 28.9151C47.464 29.4624 47.7782 29.8577 48.1228 30.1009C48.4877 30.3239 48.8728 30.4354 49.2782 30.4354C49.6836 30.4354 50.0587 30.3239 50.4033 30.1009C50.7681 29.8577 51.0823 29.4624 51.3459 28.9151C51.6094 28.3475 51.8121 27.5873 51.954 26.6346C52.1162 25.6616 52.1972 24.4453 52.1972 22.9858C52.1972 21.5263 52.1162 20.3202 51.954 19.3674C51.8121 18.4147 51.6094 17.6647 51.3459 17.1173C51.0823 16.5498 50.7681 16.1545 50.4033 15.9315C50.0587 15.6882 49.6836 15.5666 49.2782 15.5666C48.8728 15.5666 48.4877 15.6882 48.1228 15.9315C47.7782 16.1545 47.464 16.5498 47.1802 17.1173C46.9167 17.6647 46.7038 18.4147 46.5416 19.3674C46.3997 20.3202 46.3288 21.5263 46.3288 22.9858ZM64.17 16.7525C64.9201 16.1241 65.741 15.6477 66.633 15.3234C67.5249 14.9788 68.4269 14.8064 69.3391 14.8064C70.2716 14.8064 71.1331 14.9889 71.9237 15.3538C72.7345 15.6984 73.4339 16.2153 74.0217 16.9045C74.6096 17.5734 75.0657 18.4045 75.39 19.3978C75.7346 20.3708 75.9069 21.4756 75.9069 22.7121C75.9069 23.9487 75.7346 25.094 75.39 26.1481C75.0454 27.1819 74.5589 28.0738 73.9305 28.8238C73.3021 29.5739 72.542 30.1617 71.65 30.5874C70.7784 30.9928 69.7952 31.1955 68.7006 31.1955C67.6668 31.1955 66.785 31.0131 66.0552 30.6482C65.3255 30.2833 64.6971 29.7766 64.17 29.1279V34.4794C64.17 34.8443 64.2106 35.2092 64.2917 35.5741C64.3728 35.939 64.4741 36.2633 64.5957 36.5471C64.7376 36.8512 64.8897 37.0843 65.0518 37.2464C65.2343 37.4289 65.4167 37.5201 65.5991 37.5201V37.8242H57.5718V37.5201C57.7543 37.5201 57.9266 37.4289 58.0887 37.2464C58.2712 37.0843 58.4232 36.8613 58.5448 36.5775C58.6867 36.314 58.7982 35.9998 58.8793 35.6349C58.9604 35.2903 59.0009 34.9457 59.0009 34.6011V19.6411C59.0009 19.2559 58.9604 18.8911 58.8793 18.5464C58.7982 18.1816 58.6867 17.8674 58.5448 17.6038C58.4232 17.3201 58.2712 17.0971 58.0887 16.9349C57.9266 16.7525 57.7543 16.6612 57.5718 16.6612V16.3572C58.1394 16.3166 58.707 16.266 59.2746 16.2051C59.8422 16.1241 60.3996 16.0328 60.947 15.9315C61.4943 15.8301 62.0112 15.7186 62.4977 15.597C62.9842 15.4551 63.42 15.293 63.8052 15.1105H64.17V16.7525ZM64.17 26.5129C64.4538 27.7292 64.8795 28.6009 65.4471 29.1279C66.035 29.6347 66.6836 29.8881 67.3931 29.8881C68.3053 29.8881 69.0351 29.2698 69.5824 28.0333C70.15 26.7765 70.4338 25.0737 70.4338 22.925C70.4338 20.8776 70.1196 19.2661 69.4912 18.0903C68.8628 16.9146 68.0418 16.3268 67.0283 16.3268C66.785 16.3268 66.5215 16.3774 66.2377 16.4788C65.9742 16.5802 65.7106 16.7221 65.4471 16.9045C65.1836 17.0869 64.9403 17.2998 64.7174 17.543C64.4944 17.766 64.3119 18.0093 64.17 18.2728V26.5129ZM79.4809 13.8334C78.7309 13.8334 78.0923 13.5902 77.5653 13.1037C77.0585 12.6172 76.8051 12.0192 76.8051 11.3097C76.8051 10.6002 77.0585 10.0022 77.5653 9.51572C78.0923 9.02921 78.7309 8.78596 79.4809 8.78596C80.2309 8.78596 80.8593 9.02921 81.3661 9.51572C81.8931 10.0022 82.1567 10.6002 82.1567 11.3097C82.1567 12.0192 81.8931 12.6172 81.3661 13.1037C80.8593 13.5902 80.2309 13.8334 79.4809 13.8334ZM75.8929 30.5874C76.0754 30.5874 76.2477 30.5063 76.4098 30.3442C76.5923 30.1617 76.7443 29.9387 76.8659 29.6752C77.0078 29.3914 77.1193 29.0772 77.2004 28.7326C77.2815 28.3677 77.322 28.013 77.322 27.6684V19.6411C77.322 19.2559 77.2815 18.8911 77.2004 18.5464C77.1193 18.1816 77.0078 17.8674 76.8659 17.6038C76.7443 17.3201 76.5923 17.0971 76.4098 16.9349C76.2477 16.7525 76.0754 16.6612 75.8929 16.6612V16.3572C76.4605 16.3166 77.0281 16.266 77.5957 16.2051C78.1633 16.1241 78.7207 16.0328 79.268 15.9315C79.8154 15.8301 80.3323 15.7186 80.8188 15.597C81.3053 15.4551 81.7411 15.293 82.1263 15.1105H82.4911V27.5468C82.4911 27.9116 82.5317 28.2765 82.6128 28.6414C82.6938 29.0063 82.7952 29.3407 82.9168 29.6448C83.0587 29.9286 83.2108 30.1617 83.3729 30.3442C83.5554 30.5063 83.7378 30.5874 83.9202 30.5874V30.8915H75.8929V30.5874ZM96.0496 21.2526C95.3604 21.2526 94.8333 21.1107 94.4684 20.8269C94.1036 20.5431 93.8299 20.1985 93.6475 19.7931C93.465 19.3674 93.3333 18.9113 93.2522 18.4248C93.1914 17.918 93.1001 17.4619 92.9785 17.0565C92.8772 16.6308 92.7049 16.2761 92.4616 15.9923C92.2386 15.7085 91.8839 15.5666 91.3974 15.5666C90.5865 15.5666 89.9683 16.0632 89.5426 17.0565C89.1372 18.0295 88.9345 19.4688 88.9345 21.3742C88.9345 23.523 89.3399 25.1751 90.1507 26.3305C90.9818 27.486 92.0663 28.0637 93.4042 28.0637C94.5597 28.0637 95.5428 27.7697 96.3536 27.1819C97.1645 26.594 97.7118 25.7832 97.9956 24.7494H98.2997C98.1983 26.7765 97.5496 28.3576 96.3536 29.4928C95.1779 30.628 93.5765 31.1955 91.5494 31.1955C90.3737 31.1955 89.2993 30.9928 88.3263 30.5874C87.3533 30.182 86.5121 29.6144 85.8026 28.8847C85.1134 28.1549 84.5762 27.2832 84.191 26.2697C83.8059 25.2561 83.6133 24.1412 83.6133 22.925C83.6133 21.729 83.8059 20.6344 84.191 19.6411C84.5762 18.6275 85.1134 17.766 85.8026 17.0565C86.4918 16.347 87.3128 15.7997 88.2655 15.4146C89.2385 15.0092 90.3028 14.8064 91.4582 14.8064C92.3704 14.8064 93.2319 14.9179 94.0428 15.1409C94.8536 15.3639 95.5529 15.668 96.1408 16.0531C96.7489 16.418 97.2253 16.864 97.5699 17.391C97.9145 17.8978 98.0868 18.4451 98.0868 19.0329C98.0868 19.7019 97.874 20.2391 97.4483 20.6445C97.0429 21.0499 96.5766 21.2526 96.0496 21.2526ZM113.105 28.3677C113.105 28.7123 113.155 28.986 113.257 29.1887C113.378 29.3712 113.561 29.4624 113.804 29.4624C113.966 29.4624 114.108 29.4218 114.23 29.3407C114.372 29.2597 114.503 29.0874 114.625 28.8238H114.929C114.929 29.5131 114.615 30.0806 113.987 30.5266C113.378 30.9726 112.608 31.1955 111.676 31.1955C109.75 31.1955 108.564 30.6178 108.118 29.4624C107.652 30.0705 107.064 30.5165 106.355 30.8003C105.665 31.0638 104.895 31.1955 104.044 31.1955C103.354 31.1955 102.696 31.0841 102.067 30.8611C101.459 30.6381 100.922 30.3138 100.456 29.8881C99.9894 29.4421 99.6144 28.9151 99.3306 28.3069C99.0671 27.6785 98.9353 26.969 98.9353 26.1785C98.9353 25.0433 99.1583 24.0906 99.6043 23.3203C100.05 22.55 100.608 21.9317 101.277 21.4655C101.946 20.9992 102.665 20.6648 103.436 20.4621C104.226 20.2593 104.956 20.158 105.625 20.158C106.05 20.158 106.405 20.1884 106.689 20.2492C106.993 20.2898 107.236 20.3404 107.419 20.4012C107.621 20.4823 107.794 20.5634 107.936 20.6445V18.4552C107.936 17.5836 107.784 16.8842 107.48 16.3572C107.196 15.8301 106.821 15.5666 106.355 15.5666C105.564 15.5666 105.169 16.3673 105.169 17.9687C105.169 18.6377 104.905 19.1951 104.378 19.6411C103.851 20.087 103.131 20.31 102.219 20.31C101.51 20.31 100.962 20.1276 100.577 19.7627C100.192 19.3978 99.9996 18.9113 99.9996 18.3032C99.9996 17.7559 100.152 17.2694 100.456 16.8437C100.78 16.3977 101.216 16.0227 101.763 15.7186C102.31 15.4146 102.949 15.1916 103.679 15.0497C104.429 14.8875 105.229 14.8064 106.081 14.8064C107.236 14.8064 108.25 14.9788 109.122 15.3234C109.993 15.668 110.723 16.1646 111.311 16.8133C111.919 17.4417 112.365 18.212 112.649 19.1242C112.953 20.0161 113.105 21.0195 113.105 22.1344V28.3677ZM107.936 22.6209C107.936 22.2763 107.834 21.952 107.632 21.6479C107.449 21.3438 107.135 21.1918 106.689 21.1918C105.98 21.1918 105.402 21.6378 104.956 22.5297C104.51 23.4013 104.287 24.6581 104.287 26.3001C104.287 27.3136 104.469 28.0941 104.834 28.6414C105.199 29.1887 105.635 29.4624 106.142 29.4624C106.851 29.4624 107.449 29.1482 107.936 28.5198V22.6209ZM121.242 27.5468C121.242 27.9116 121.282 28.2765 121.363 28.6414C121.444 29.0063 121.546 29.3407 121.667 29.6448C121.809 29.9286 121.961 30.1617 122.123 30.3442C122.306 30.5063 122.488 30.5874 122.671 30.5874V30.8915H114.643V30.5874C114.826 30.5874 114.998 30.5063 115.16 30.3442C115.343 30.1617 115.495 29.9387 115.616 29.6752C115.758 29.3914 115.87 29.0772 115.951 28.7326C116.032 28.3677 116.072 28.013 116.072 27.6684V12.1003C116.072 11.7151 116.032 11.3502 115.951 11.0056C115.87 10.6408 115.758 10.3266 115.616 10.063C115.495 9.77924 115.343 9.55626 115.16 9.39409C114.998 9.21165 114.826 9.12043 114.643 9.12043V8.81637C115.211 8.77583 115.779 8.72515 116.346 8.66434C116.914 8.58325 117.471 8.49203 118.019 8.39068C118.566 8.28932 119.083 8.17783 119.569 8.05621C120.056 7.91431 120.492 7.75214 120.877 7.5697H121.242V27.5468ZM140.415 30.2833C141.57 30.2833 142.473 30.03 143.121 29.5232C143.79 28.9961 144.125 28.1853 144.125 27.0907C144.125 26.5231 143.942 26.0264 143.577 25.6008C143.233 25.1751 142.766 24.7798 142.179 24.4149C141.591 24.05 140.922 23.7054 140.172 23.3811C139.442 23.0567 138.682 22.7121 137.891 22.3473C137.121 21.9824 136.361 21.5871 135.611 21.1614C134.881 20.7154 134.222 20.2087 133.634 19.6411C133.047 19.0735 132.57 18.4248 132.205 17.6951C131.861 16.945 131.688 16.0835 131.688 15.1105C131.688 14.097 131.881 13.1848 132.266 12.3739C132.671 11.5631 133.249 10.8739 133.999 10.3063C134.749 9.71843 135.672 9.27247 136.766 8.9684C137.881 8.64407 139.148 8.4819 140.567 8.4819C141.783 8.4819 142.888 8.62379 143.881 8.90759C144.875 9.19138 145.716 9.57653 146.405 10.063C147.115 10.5495 147.652 11.1171 148.017 11.7658C148.402 12.3942 148.584 13.0631 148.564 13.7726C148.544 14.6037 148.29 15.3234 147.804 15.9315C147.317 16.5193 146.648 16.8133 145.797 16.8133C144.824 16.8133 144.125 16.5599 143.699 16.0531C143.273 15.5261 143.071 14.847 143.091 14.0159C143.091 13.5699 143.101 13.0834 143.121 12.5564C143.141 12.009 143.081 11.5023 142.939 11.036C142.797 10.5698 142.533 10.1847 142.148 9.8806C141.783 9.55626 141.216 9.39409 140.445 9.39409C139.452 9.39409 138.651 9.72856 138.043 10.3975C137.455 11.0664 137.162 11.9482 137.162 13.0429C137.162 13.6915 137.334 14.2693 137.678 14.776C138.043 15.2625 138.52 15.7186 139.108 16.1443C139.695 16.5498 140.354 16.9349 141.084 17.2998C141.834 17.6444 142.594 17.9991 143.364 18.364C144.155 18.7289 144.915 19.114 145.645 19.5195C146.395 19.9046 147.064 20.3506 147.652 20.8573C148.24 21.3641 148.706 21.9317 149.05 22.5601C149.415 23.1885 149.598 23.9183 149.598 24.7494C149.598 25.7224 149.375 26.6143 148.929 27.4251C148.483 28.2157 147.844 28.8948 147.013 29.4624C146.202 30.0097 145.229 30.4354 144.094 30.7394C142.979 31.0435 141.733 31.1955 140.354 31.1955C138.996 31.1955 137.77 31.0536 136.675 30.7699C135.601 30.4861 134.688 30.1009 133.938 29.6144C133.209 29.1279 132.641 28.5705 132.236 27.9421C131.851 27.2934 131.668 26.6143 131.688 25.9048C131.709 25.0737 131.962 24.3642 132.449 23.7764C132.935 23.1682 133.604 22.8642 134.455 22.8642C135.428 22.8642 136.128 23.1277 136.553 23.6547C136.979 24.1615 137.182 24.8305 137.162 25.6616C137.162 26.1075 137.182 26.6042 137.222 27.1515C137.283 27.6785 137.415 28.1752 137.618 28.6414C137.841 29.1076 138.165 29.5029 138.591 29.8273C139.037 30.1313 139.645 30.2833 140.415 30.2833ZM161.371 19.6411C161.371 19.2559 161.33 18.8911 161.249 18.5464C161.168 18.1816 161.057 17.8674 160.915 17.6038C160.793 17.3201 160.641 17.0971 160.459 16.9349C160.297 16.7525 160.124 16.6612 159.942 16.6612V16.3572C160.51 16.3166 161.077 16.266 161.645 16.2051C162.212 16.1241 162.77 16.0328 163.317 15.9315C163.864 15.8301 164.381 15.7186 164.868 15.597C165.354 15.4551 165.79 15.293 166.175 15.1105H166.54V26.8474C166.54 28.2664 166.682 29.2495 166.966 29.7968C167.25 30.3239 167.584 30.5874 167.969 30.5874V30.8915H161.371V28.6718C161.148 28.9759 160.854 29.2799 160.489 29.584C160.145 29.8881 159.729 30.1617 159.243 30.405C158.756 30.6482 158.219 30.8408 157.631 30.9827C157.043 31.1246 156.394 31.1955 155.685 31.1955C154.104 31.1955 152.857 30.7394 151.945 29.8273C151.033 28.9151 150.577 27.5772 150.577 25.8136V19.6411C150.577 19.2559 150.536 18.8911 150.455 18.5464C150.374 18.1816 150.263 17.8674 150.121 17.6038C149.999 17.3201 149.847 17.0971 149.665 16.9349C149.502 16.7525 149.33 16.6612 149.148 16.6612V16.3572C149.715 16.3166 150.283 16.266 150.85 16.2051C151.418 16.1241 151.975 16.0328 152.523 15.9315C153.07 15.8301 153.587 15.7186 154.073 15.597C154.56 15.4551 154.996 15.293 155.381 15.1105H155.746V26.0568C155.746 26.9082 155.969 27.6583 156.415 28.3069C156.861 28.9353 157.52 29.2495 158.391 29.2495C158.756 29.2495 159.111 29.1887 159.455 29.0671C159.82 28.9455 160.145 28.7732 160.428 28.5502C160.712 28.3272 160.935 28.0738 161.097 27.79C161.28 27.486 161.371 27.1515 161.371 26.7866V19.6411ZM180.965 19.7931C180.965 17.9687 180.094 17.0565 178.35 17.0565C177.823 17.0565 177.296 17.2086 176.769 17.5126C176.263 17.8167 175.837 18.2322 175.492 18.7593V27.5468C175.492 27.9116 175.533 28.2765 175.614 28.6414C175.695 29.0063 175.796 29.3407 175.918 29.6448C176.06 29.9286 176.212 30.1617 176.374 30.3442C176.556 30.5063 176.739 30.5874 176.921 30.5874V30.8915H168.894V30.5874C169.076 30.5874 169.249 30.5063 169.411 30.3442C169.593 30.1617 169.745 29.9387 169.867 29.6752C170.009 29.3914 170.12 29.0772 170.201 28.7326C170.283 28.3677 170.323 28.013 170.323 27.6684V19.6411C170.323 19.2559 170.283 18.8911 170.201 18.5464C170.12 18.1816 170.009 17.8674 169.867 17.6038C169.745 17.3201 169.593 17.0971 169.411 16.9349C169.249 16.7525 169.076 16.6612 168.894 16.6612V16.3572C169.462 16.3166 170.029 16.266 170.597 16.2051C171.164 16.1241 171.722 16.0328 172.269 15.9315C172.816 15.8301 173.333 15.7186 173.82 15.597C174.306 15.4551 174.742 15.293 175.127 15.1105H175.492V17.391C176.08 16.6815 176.85 16.0734 177.803 15.5666C178.776 15.0598 179.84 14.8064 180.996 14.8064C182.658 14.8064 183.925 15.3031 184.797 16.2964C185.689 17.2896 186.134 18.7289 186.134 20.6141V27.5468C186.134 27.9116 186.175 28.2765 186.256 28.6414C186.337 29.0063 186.439 29.3407 186.56 29.6448C186.702 29.9286 186.854 30.1617 187.016 30.3442C187.199 30.5063 187.381 30.5874 187.564 30.5874V30.8915H179.536V30.5874C179.719 30.5874 179.891 30.5063 180.053 30.3442C180.236 30.1617 180.388 29.9387 180.509 29.6752C180.651 29.3914 180.763 29.0772 180.844 28.7326C180.925 28.3677 180.965 28.013 180.965 27.6684V19.7931ZM200.266 19.7931C200.266 17.9687 199.395 17.0565 197.651 17.0565C197.124 17.0565 196.597 17.2086 196.07 17.5126C195.564 17.8167 195.138 18.2322 194.793 18.7593V27.5468C194.793 27.9116 194.834 28.2765 194.915 28.6414C194.996 29.0063 195.097 29.3407 195.219 29.6448C195.361 29.9286 195.513 30.1617 195.675 30.3442C195.857 30.5063 196.04 30.5874 196.222 30.5874V30.8915H188.195V30.5874C188.377 30.5874 188.55 30.5063 188.712 30.3442C188.894 30.1617 189.046 29.9387 189.168 29.6752C189.31 29.3914 189.421 29.0772 189.502 28.7326C189.584 28.3677 189.624 28.013 189.624 27.6684V19.6411C189.624 19.2559 189.584 18.8911 189.502 18.5464C189.421 18.1816 189.31 17.8674 189.168 17.6038C189.046 17.3201 188.894 17.0971 188.712 16.9349C188.55 16.7525 188.377 16.6612 188.195 16.6612V16.3572C188.763 16.3166 189.33 16.266 189.898 16.2051C190.465 16.1241 191.023 16.0328 191.57 15.9315C192.117 15.8301 192.634 15.7186 193.121 15.597C193.607 15.4551 194.043 15.293 194.428 15.1105H194.793V17.391C195.381 16.6815 196.151 16.0734 197.104 15.5666C198.077 15.0598 199.141 14.8064 200.297 14.8064C201.959 14.8064 203.226 15.3031 204.098 16.2964C204.99 17.2896 205.435 18.7289 205.435 20.6141V27.5468C205.435 27.9116 205.476 28.2765 205.557 28.6414C205.638 29.0063 205.74 29.3407 205.861 29.6448C206.003 29.9286 206.155 30.1617 206.317 30.3442C206.5 30.5063 206.682 30.5874 206.865 30.5874V30.8915H198.837V30.5874C199.02 30.5874 199.192 30.5063 199.354 30.3442C199.537 30.1617 199.689 29.9387 199.81 29.6752C199.952 29.3914 200.064 29.0772 200.145 28.7326C200.226 28.3677 200.266 28.013 200.266 27.6684V19.7931ZM208.687 38.1586C207.917 38.1586 207.268 38.0269 206.741 37.7633C206.214 37.4998 205.799 37.1654 205.495 36.7599C205.211 36.3748 205.028 35.9491 204.947 35.4829C204.887 35.0369 204.927 34.6112 205.069 34.2058C205.211 33.8206 205.454 33.4963 205.799 33.2328C206.143 32.9693 206.589 32.8375 207.137 32.8375C207.643 32.8375 208.039 32.9186 208.322 33.0807C208.606 33.2429 208.829 33.4355 208.991 33.6585C209.174 33.9017 209.316 34.1551 209.417 34.4186C209.518 34.7024 209.63 34.9558 209.752 35.1788C209.873 35.422 210.015 35.6248 210.177 35.7869C210.36 35.9491 210.623 36.0302 210.968 36.0302C211.312 36.0302 211.647 35.8984 211.971 35.6349C212.316 35.3714 212.63 34.9153 212.914 34.2666L207.137 18.4248C206.812 17.5329 206.427 16.8133 205.981 16.266C205.535 15.6984 205.12 15.4146 204.734 15.4146V15.1105H213.248V15.4146C212.883 15.4146 212.64 15.6984 212.519 16.266C212.397 16.8133 212.498 17.5329 212.823 18.4248L215.802 26.6346L218.904 18.3336C219.066 17.9079 219.127 17.5228 219.086 17.1782C219.066 16.8133 218.985 16.5092 218.843 16.266C218.721 16.0024 218.559 15.7997 218.357 15.6578C218.174 15.4957 217.992 15.4146 217.809 15.4146V15.1105H222.613V15.4146C222.431 15.4146 222.198 15.4957 221.914 15.6578C221.63 15.7997 221.347 16.0024 221.063 16.266C220.779 16.5092 220.505 16.8133 220.242 17.1782C219.999 17.5228 219.796 17.9079 219.634 18.3336L213.948 33.6585C213.38 35.1991 212.66 36.3342 211.789 37.064C210.937 37.7938 209.904 38.1586 208.687 38.1586ZM78.2807 63.2833C79.4361 63.2833 80.3382 63.03 80.9868 62.5232C81.6558 61.9961 81.9903 61.1853 81.9903 60.0907C81.9903 59.5231 81.8078 59.0264 81.4429 58.6008C81.0983 58.1751 80.6321 57.7798 80.0442 57.4149C79.4564 57.05 78.7874 56.7054 78.0374 56.3811C77.3077 56.0567 76.5475 55.7121 75.7569 55.3473C74.9866 54.9824 74.2265 54.5871 73.4764 54.1614C72.7467 53.7154 72.0879 53.2087 71.5 52.6411C70.9122 52.0735 70.4358 51.4248 70.0709 50.6951C69.7263 49.945 69.554 49.0835 69.554 48.1105C69.554 47.097 69.7466 46.1848 70.1317 45.3739C70.5371 44.5631 71.1149 43.8739 71.8649 43.3063C72.6149 42.7184 73.5373 42.2725 74.6319 41.9684C75.7468 41.6441 77.0137 41.4819 78.4327 41.4819C79.649 41.4819 80.7537 41.6238 81.747 41.9076C82.7403 42.1914 83.5815 42.5765 84.2707 43.063C84.9802 43.5495 85.5174 44.1171 85.8823 44.7658C86.2674 45.3942 86.4499 46.0631 86.4296 46.7726C86.4093 47.6037 86.1559 48.3234 85.6694 48.9315C85.1829 49.5193 84.514 49.8133 83.6626 49.8133C82.6896 49.8133 81.9903 49.5599 81.5646 49.0531C81.1389 48.5261 80.9362 47.847 80.9564 47.0159C80.9564 46.5699 80.9666 46.0834 80.9868 45.5564C81.0071 45.009 80.9463 44.5023 80.8044 44.036C80.6625 43.5698 80.399 43.1847 80.0138 42.8806C79.649 42.5563 79.0814 42.3941 78.3111 42.3941C77.3178 42.3941 76.5171 42.7286 75.909 43.3975C75.3211 44.0664 75.0272 44.9482 75.0272 46.0429C75.0272 46.6915 75.1995 47.2693 75.5441 47.776C75.909 48.2625 76.3853 48.7186 76.9732 49.1443C77.561 49.5498 78.2199 49.9349 78.9496 50.2998C79.6996 50.6444 80.4598 50.9991 81.2301 51.364C82.0207 51.7289 82.7808 52.114 83.5106 52.5195C84.2606 52.9046 84.9296 53.3506 85.5174 53.8573C86.1053 54.3641 86.5715 54.9317 86.9161 55.5601C87.281 56.1885 87.4634 56.9183 87.4634 57.7494C87.4634 58.7224 87.2404 59.6143 86.7945 60.4251C86.3485 61.2157 85.71 61.8948 84.8789 62.4624C84.068 63.0097 83.095 63.4354 81.9599 63.7394C80.8449 64.0435 79.5983 64.1955 78.2199 64.1955C76.8617 64.1955 75.6353 64.0536 74.5407 63.7699C73.4663 63.4861 72.5541 63.1009 71.8041 62.6144C71.0743 62.1279 70.5067 61.5705 70.1013 60.9421C69.7162 60.2934 69.5337 59.6143 69.554 58.9048C69.5743 58.0737 69.8277 57.3642 70.3142 56.7764C70.8007 56.1682 71.4696 55.8642 72.321 55.8642C73.294 55.8642 73.9934 56.1277 74.419 56.6547C74.8447 57.1615 75.0474 57.8305 75.0272 58.6616C75.0272 59.1075 75.0474 59.6042 75.088 60.1515C75.1488 60.6785 75.2806 61.1752 75.4833 61.6414C75.7063 62.1076 76.0306 62.5029 76.4563 62.8273C76.9022 63.1313 77.5104 63.2833 78.2807 63.2833ZM93.9084 49.7525C94.6584 49.1241 95.4794 48.6477 96.3713 48.3234C97.2633 47.9788 98.1653 47.8064 99.0775 47.8064C100.01 47.8064 100.872 47.9889 101.662 48.3538C102.473 48.6984 103.172 49.2153 103.76 49.9045C104.348 50.5734 104.804 51.4045 105.128 52.3978C105.473 53.3708 105.645 54.4756 105.645 55.7121C105.645 56.9487 105.473 58.094 105.128 59.1481C104.784 60.1819 104.297 61.0738 103.669 61.8238C103.04 62.5739 102.28 63.1617 101.388 63.5874C100.517 63.9928 99.5336 64.1955 98.439 64.1955C97.4052 64.1955 96.5234 64.0131 95.7936 63.6482C95.0639 63.2833 94.4355 62.7766 93.9084 62.1279V67.4794C93.9084 67.8443 93.949 68.2092 94.03 68.5741C94.1111 68.939 94.2125 69.2633 94.3341 69.5471C94.476 69.8512 94.628 70.0843 94.7902 70.2464C94.9726 70.4289 95.1551 70.5201 95.3375 70.5201V70.8242H87.3102V70.5201C87.4926 70.5201 87.665 70.4289 87.8271 70.2464C88.0096 70.0843 88.1616 69.8613 88.2832 69.5775C88.4251 69.314 88.5366 68.9998 88.6177 68.6349C88.6988 68.2903 88.7393 67.9457 88.7393 67.6011V52.6411C88.7393 52.2559 88.6988 51.8911 88.6177 51.5464C88.5366 51.1816 88.4251 50.8674 88.2832 50.6038C88.1616 50.3201 88.0096 50.0971 87.8271 49.9349C87.665 49.7525 87.4926 49.6612 87.3102 49.6612V49.3572C87.8778 49.3166 88.4454 49.266 89.013 49.2051C89.5806 49.1241 90.138 49.0328 90.6853 48.9315C91.2326 48.8301 91.7496 48.7186 92.2361 48.597C92.7226 48.4551 93.1584 48.293 93.5435 48.1105H93.9084V49.7525ZM93.9084 59.5129C94.1922 60.7292 94.6179 61.6009 95.1855 62.1279C95.7733 62.6347 96.422 62.8881 97.1315 62.8881C98.0437 62.8881 98.7735 62.2698 99.3208 61.0333C99.8884 59.7765 100.172 58.0737 100.172 55.925C100.172 53.8776 99.858 52.2661 99.2296 51.0903C98.6012 49.9146 97.7802 49.3268 96.7666 49.3268C96.5234 49.3268 96.2599 49.3774 95.9761 49.4788C95.7125 49.5802 95.449 49.7221 95.1855 49.9045C94.922 50.0869 94.6787 50.2998 94.4557 50.543C94.2328 50.766 94.0503 51.0093 93.9084 51.2728V59.5129ZM111.933 60.5468C111.933 60.9116 111.973 61.2765 112.054 61.6414C112.135 62.0063 112.237 62.3407 112.358 62.6448C112.5 62.9286 112.652 63.1617 112.814 63.3442C112.997 63.5063 113.179 63.5874 113.362 63.5874V63.8915H105.334V63.5874C105.517 63.5874 105.689 63.5063 105.851 63.3442C106.034 63.1617 106.186 62.9387 106.307 62.6752C106.449 62.3914 106.561 62.0772 106.642 61.7326C106.723 61.3677 106.763 61.013 106.763 60.6684V45.1003C106.763 44.7151 106.723 44.3502 106.642 44.0056C106.561 43.6408 106.449 43.3266 106.307 43.063C106.186 42.7792 106.034 42.5563 105.851 42.3941C105.689 42.2117 105.517 42.1204 105.334 42.1204V41.8164C105.902 41.7758 106.47 41.7251 107.037 41.6643C107.605 41.5833 108.162 41.492 108.709 41.3907C109.257 41.2893 109.774 41.1778 110.26 41.0562C110.747 40.9143 111.183 40.7521 111.568 40.5697H111.933V60.5468ZM127.076 61.3677C127.076 61.7123 127.126 61.986 127.228 62.1887C127.349 62.3712 127.532 62.4624 127.775 62.4624C127.937 62.4624 128.079 62.4218 128.201 62.3407C128.343 62.2597 128.474 62.0874 128.596 61.8238H128.9C128.9 62.5131 128.586 63.0806 127.958 63.5266C127.349 63.9726 126.579 64.1955 125.647 64.1955C123.721 64.1955 122.535 63.6178 122.089 62.4624C121.623 63.0705 121.035 63.5165 120.325 63.8003C119.636 64.0638 118.866 64.1955 118.015 64.1955C117.325 64.1955 116.667 64.0841 116.038 63.8611C115.43 63.6381 114.893 63.3138 114.427 62.8881C113.96 62.4421 113.585 61.9151 113.302 61.3069C113.038 60.6785 112.906 59.969 112.906 59.1785C112.906 58.0433 113.129 57.0906 113.575 56.3203C114.021 55.55 114.579 54.9317 115.248 54.4655C115.917 53.9992 116.636 53.6648 117.406 53.4621C118.197 53.2593 118.927 53.158 119.596 53.158C120.021 53.158 120.376 53.1884 120.66 53.2492C120.964 53.2898 121.207 53.3404 121.39 53.4012C121.592 53.4823 121.765 53.5634 121.907 53.6445V51.4552C121.907 50.5836 121.755 49.8842 121.451 49.3572C121.167 48.8301 120.792 48.5666 120.325 48.5666C119.535 48.5666 119.14 49.3673 119.14 50.9687C119.14 51.6377 118.876 52.1951 118.349 52.6411C117.822 53.087 117.102 53.31 116.19 53.31C115.481 53.31 114.933 53.1276 114.548 52.7627C114.163 52.3978 113.971 51.9113 113.971 51.3032C113.971 50.7559 114.123 50.2694 114.427 49.8437C114.751 49.3977 115.187 49.0227 115.734 48.7186C116.281 48.4146 116.92 48.1916 117.65 48.0497C118.4 47.8875 119.2 47.8064 120.052 47.8064C121.207 47.8064 122.221 47.9788 123.092 48.3234C123.964 48.668 124.694 49.1646 125.282 49.8133C125.89 50.4417 126.336 51.212 126.62 52.1242C126.924 53.0161 127.076 54.0195 127.076 55.1344V61.3677ZM121.907 55.6209C121.907 55.2763 121.805 54.952 121.603 54.6479C121.42 54.3438 121.106 54.1918 120.66 54.1918C119.95 54.1918 119.373 54.6378 118.927 55.5297C118.481 56.4013 118.258 57.6581 118.258 59.3001C118.258 60.3136 118.44 61.0941 118.805 61.6414C119.17 62.1887 119.606 62.4624 120.113 62.4624C120.822 62.4624 121.42 62.1482 121.907 61.5198V55.6209ZM136.019 48.5666C135.654 48.5666 135.33 48.7085 135.046 48.9923C134.762 49.2761 134.621 49.6815 134.621 50.2086C134.621 50.8775 134.823 51.4654 135.229 51.9721C135.634 52.4789 136.141 52.9451 136.749 53.3708C137.357 53.7763 138.016 54.1817 138.725 54.5871C139.435 54.9722 140.094 55.3979 140.702 55.8642C141.31 56.3101 141.817 56.827 142.222 57.4149C142.628 57.9825 142.83 58.6514 142.83 59.4217C142.83 60.1109 142.658 60.7495 142.313 61.3373C141.989 61.9252 141.523 62.432 140.915 62.8577C140.307 63.2833 139.587 63.6178 138.756 63.8611C137.945 64.0841 137.053 64.1955 136.08 64.1955C135.107 64.1955 134.205 64.1145 133.374 63.9523C132.543 63.8104 131.813 63.5874 131.185 63.2833C130.577 62.959 130.09 62.5536 129.725 62.0671C129.381 61.5806 129.208 61.013 129.208 60.3643C129.208 59.6751 129.431 59.0771 129.877 58.5703C130.343 58.0636 130.931 57.8102 131.641 57.8102C132.229 57.8102 132.685 57.9521 133.009 58.2359C133.333 58.4994 133.577 58.844 133.739 59.2697C133.921 59.6954 134.053 60.1515 134.134 60.638C134.235 61.1042 134.347 61.5502 134.469 61.9759C134.61 62.4016 134.793 62.7563 135.016 63.0401C135.259 63.3036 135.614 63.4354 136.08 63.4354C136.567 63.4354 136.942 63.3239 137.205 63.1009C137.489 62.8779 137.631 62.5333 137.631 62.0671C137.631 61.4184 137.428 60.8508 137.023 60.3643C136.617 59.8576 136.1 59.3812 135.472 58.9352C134.864 58.4893 134.205 58.0534 133.496 57.6277C132.786 57.2021 132.117 56.7358 131.489 56.229C130.881 55.7223 130.374 55.1648 129.968 54.5567C129.563 53.9283 129.36 53.2087 129.36 52.3978C129.36 51.7694 129.522 51.1816 129.847 50.6343C130.191 50.0667 130.658 49.5802 131.245 49.1747C131.833 48.749 132.523 48.4146 133.313 48.1713C134.124 47.9281 134.996 47.8064 135.928 47.8064C138.077 47.8064 139.729 48.1815 140.884 48.9315C142.06 49.6612 142.648 50.614 142.648 51.7897C142.648 52.4384 142.435 52.9553 142.009 53.3404C141.584 53.7256 141.016 53.9182 140.307 53.9182C139.739 53.9182 139.283 53.7864 138.938 53.5229C138.614 53.2593 138.34 52.935 138.117 52.5499C137.915 52.1444 137.752 51.7086 137.631 51.2424C137.529 50.7761 137.408 50.3505 137.266 49.9653C137.144 49.5599 136.992 49.2254 136.81 48.9619C136.627 48.6984 136.364 48.5666 136.019 48.5666ZM154.464 52.7931C154.464 50.9687 153.592 50.0565 151.849 50.0565C151.322 50.0565 150.795 50.2086 150.268 50.5126C149.761 50.8167 149.335 51.2322 148.99 51.7593V60.5468C148.99 60.9116 149.031 61.2765 149.112 61.6414C149.193 62.0063 149.295 62.3407 149.416 62.6448C149.558 62.9286 149.71 63.1617 149.872 63.3442C150.055 63.5063 150.237 63.5874 150.42 63.5874V63.8915H142.392V63.5874C142.575 63.5874 142.747 63.5063 142.909 63.3442C143.092 63.1617 143.244 62.9387 143.365 62.6752C143.507 62.3914 143.619 62.0772 143.7 61.7326C143.781 61.3677 143.821 61.013 143.821 60.6684V45.1003C143.821 44.7151 143.781 44.3502 143.7 44.0056C143.619 43.6408 143.507 43.3266 143.365 43.063C143.244 42.7792 143.092 42.5563 142.909 42.3941C142.747 42.2117 142.575 42.1204 142.392 42.1204V41.8164C142.96 41.7758 143.527 41.7251 144.095 41.6643C144.663 41.5833 145.22 41.492 145.767 41.3907C146.315 41.2893 146.832 41.1778 147.318 41.0562C147.805 40.9143 148.24 40.7521 148.626 40.5697H148.99V50.391C149.578 49.6815 150.349 49.0734 151.301 48.5666C152.274 48.0598 153.339 47.8064 154.494 47.8064C156.156 47.8064 157.423 48.3031 158.295 49.2964C159.187 50.2896 159.633 51.7289 159.633 53.6141V60.5468C159.633 60.9116 159.673 61.2765 159.754 61.6414C159.835 62.0063 159.937 62.3407 160.058 62.6448C160.2 62.9286 160.352 63.1617 160.515 63.3442C160.697 63.5063 160.879 63.5874 161.062 63.5874V63.8915H153.035V63.5874C153.217 63.5874 153.389 63.5063 153.551 63.3442C153.734 63.1617 153.886 62.9387 154.008 62.6752C154.149 62.3914 154.261 62.0772 154.342 61.7326C154.423 61.3677 154.464 61.013 154.464 60.6684V52.7931Z" fill="white"/>
</g>
<defs>
<filter id="filter0_d_93_388" x="0.117774" y="0.812122" width="230.361" height="78.9852" filterUnits="userSpaceOnUse" color-interpolation-filters="sRGB">
<feFlood flood-opacity="0" result="BackgroundImageFix"/>
<feColorMatrix in="SourceAlpha" type="matrix" values="0 0 0 0 0 0 0 0 0 0 0 0 0 0 0 0 0 0 127 0" result="hardAlpha"/>
<feOffset dy="1.1078"/>
<feGaussianBlur stdDeviation="3.93269"/>
<feComposite in2="hardAlpha" operator="out"/>
<feColorMatrix type="matrix" values="0 0 0 0 0 0 0 0 0 0 0 0 0 0 0 0 0 0 0.25 0"/>
<feBlend mode="normal" in2="BackgroundImageFix" result="effect1_dropShadow_93_388"/>
<feBlend mode="normal" in="SourceGraphic" in2="effect1_dropShadow_93_388" result="shape"/>
</filter>
</defs>
</svg>
