<svg width="545" height="175" viewBox="0 0 545 175" fill="none" xmlns="http://www.w3.org/2000/svg">
<g filter="url(#filter0_d_57_121)">
<path d="M37.778 38.1579C37.778 42.3938 36.5151 45.6387 33.9891 47.8927C31.502 50.1466 27.7907 51.2736 22.8554 51.2736C20.7569 51.2736 18.8138 51.021 17.0262 50.5158C15.2386 49.9717 13.6841 49.2528 12.3628 48.359C11.0416 47.4263 10.0117 46.3577 9.27338 45.153C8.53502 43.9094 8.18527 42.5687 8.22413 41.1308C8.26299 39.5375 8.74875 38.1774 9.68142 37.0504C10.6141 35.8846 11.8965 35.3017 13.5287 35.3017C15.394 35.3017 16.7347 35.8068 17.5508 36.8172C18.3669 37.7888 18.7555 39.0712 18.7166 40.6645C18.7166 41.5194 18.6778 42.4715 18.6001 43.5208C18.5223 44.5312 18.5806 45.4833 18.7749 46.3771C19.0081 47.2709 19.455 48.0287 20.1156 48.6505C20.8151 49.2334 21.9033 49.5248 23.38 49.5248C24.6235 49.5248 25.5756 49.0585 26.2363 48.1258C26.9358 47.1932 27.2855 45.9107 27.2855 44.2786L27.3438 14.2583C27.3438 12.5096 27.0718 11.1883 26.5277 10.2945C25.9837 9.40068 25.3425 8.95378 24.6041 8.95378V8.37086H40.5178V8.95378C39.8183 8.95378 39.1965 9.40068 38.6524 10.2945C38.1084 11.1883 37.8363 12.5096 37.8363 14.2583L37.778 38.1579ZM78.0554 14.2583C78.0554 12.5096 77.7833 11.1883 77.2393 10.2945C76.6952 9.40068 76.054 8.95378 75.3157 8.95378V8.37086H82.4855V8.95378C81.786 8.95378 81.1643 9.40068 80.6202 10.2945C80.0761 11.1883 79.8041 12.5096 79.8041 14.2583V34.8353C79.8041 40.2759 78.5023 44.3757 75.8986 47.1349C73.2949 49.894 69.5448 51.2736 64.6483 51.2736C58.8579 51.2736 54.5249 49.6997 51.6492 46.552C48.7735 43.4042 47.3356 38.7603 47.3356 32.6202V14.2583C47.3356 12.5096 47.0636 11.1883 46.5195 10.2945C45.9755 9.40068 45.3343 8.95378 44.5959 8.95378V8.37086H60.5095V8.95378C59.81 8.95378 59.1883 9.40068 58.6442 10.2945C58.1002 11.1883 57.8281 12.5096 57.8281 14.2583L57.8864 34.4273C57.8864 38.7409 58.7025 41.9275 60.3347 43.9871C62.0057 46.0468 64.5511 47.0766 67.9709 47.0766C74.6939 47.0766 78.0554 43.171 78.0554 35.3599V14.2583ZM99.2676 44.2203C99.2676 46.0856 99.5397 47.5235 100.084 48.5339C100.628 49.5443 101.25 50.0495 101.949 50.0495V50.6907H86.0354V50.0495C86.7738 50.0495 87.415 49.5443 87.959 48.5339C88.5031 47.5235 88.7751 46.0856 88.7751 44.2203V14.2583C88.7751 12.5096 88.5031 11.1883 87.959 10.2945C87.415 9.40068 86.7738 8.95378 86.0354 8.95378V8.37086H101.949V8.95378C101.25 8.95378 100.628 9.40068 100.084 10.2945C99.5397 11.1883 99.2676 12.5096 99.2676 14.2583V44.2203ZM124.722 7.72965C127.054 7.72965 129.172 8.00168 131.076 8.54573C132.98 9.08979 134.593 9.82815 135.914 10.7608C137.274 11.6935 138.304 12.7816 139.003 14.0252C139.742 15.2299 140.092 16.5123 140.053 17.8724C140.014 19.4657 139.528 20.8453 138.595 22.0111C137.663 23.1381 136.38 23.7016 134.748 23.7016C132.883 23.7016 131.542 23.2158 130.726 22.2443C129.91 21.2339 129.521 19.9321 129.56 18.3388C129.56 17.4838 129.58 16.5511 129.619 15.5407C129.657 14.4915 129.541 13.52 129.269 12.6262C128.997 11.7323 128.492 10.994 127.753 10.4111C127.054 9.78929 125.966 9.4784 124.489 9.4784C123.168 9.4784 121.885 9.82815 120.642 10.5277C119.437 11.1883 118.368 12.2181 117.436 13.6171C116.503 15.0161 115.745 16.8037 115.162 18.98C114.618 21.1173 114.346 23.6822 114.346 26.6745C114.346 29.3559 114.638 31.7653 115.22 33.9026C115.842 36.04 116.717 37.8665 117.844 39.3821C118.971 40.8588 120.331 42.0052 121.924 42.8213C123.517 43.6374 125.305 44.0454 127.287 44.0454C130.629 44.0454 133.369 43.0933 135.506 41.1891C137.643 39.2461 138.887 36.6229 139.237 33.3197H139.82C140.014 35.9623 139.742 38.3911 139.003 40.6062C138.265 42.8213 137.138 44.7255 135.623 46.3188C134.146 47.8732 132.339 49.0974 130.201 49.9912C128.064 50.8461 125.655 51.2736 122.973 51.2736C120.059 51.2736 117.416 50.7684 115.046 49.758C112.675 48.7088 110.654 47.232 108.983 45.3278C107.312 43.4236 106.01 41.1503 105.078 38.5077C104.184 35.8263 103.737 32.834 103.737 29.5308C103.737 26.0721 104.262 23.0021 105.311 20.3207C106.399 17.6004 107.876 15.3076 109.741 13.4422C111.645 11.5769 113.88 10.1585 116.445 9.18695C119.009 8.21542 121.769 7.72965 124.722 7.72965ZM173.061 8.37086L173.352 19.2131H172.828C172.556 17.8918 172.225 16.6872 171.837 15.599C171.487 14.4721 170.962 13.5005 170.263 12.6845C169.563 11.8684 168.65 11.2466 167.523 10.8191C166.435 10.3528 165.017 10.1196 163.268 10.1196H155.107V28.7147H160.703C163.54 28.7147 165.619 28.1123 166.94 26.9076C168.3 25.7029 168.98 24.2456 168.98 22.5358H169.563V36.4675H168.98C168.98 34.7576 168.3 33.3197 166.94 32.1539C165.619 30.9492 163.54 30.3469 160.703 30.3469H155.107V48.9419H163.268C165.017 48.9419 166.435 48.7088 167.523 48.2424C168.65 47.7761 169.563 47.1349 170.263 46.3188C170.962 45.5027 171.487 44.5506 171.837 43.4625C172.225 42.3355 172.556 41.1114 172.828 39.7901H173.352L173.061 50.6907H141.875V50.1078C142.613 50.1078 143.254 49.6609 143.798 48.767C144.343 47.8732 144.615 46.552 144.615 44.8032V14.2583C144.615 12.5096 144.343 11.1883 143.798 10.2945C143.254 9.40068 142.613 8.95378 141.875 8.95378V8.37086H173.061Z" fill="white"/>
<path d="M61.7737 71.1717L62.2672 89.5283H61.379C60.9184 87.2913 60.3592 85.2517 59.7012 83.4094C59.1091 81.5014 58.2209 79.8565 57.0366 78.4748C55.8523 77.0932 54.3061 76.0405 52.3981 75.3167C50.5558 74.5272 48.1543 74.1324 45.1936 74.1324H31.3768V105.615H40.8512C45.6541 105.615 49.1741 104.595 51.4111 102.556C53.7139 100.516 54.8653 98.0486 54.8653 95.1537H55.8523V118.741H54.8653C54.8653 115.846 53.7139 113.412 51.4111 111.438C49.1741 109.398 45.6541 108.378 40.8512 108.378H31.3768V139.861H45.1936C48.1543 139.861 50.5558 139.466 52.3981 138.677C54.3061 137.887 55.8523 136.801 57.0366 135.42C58.2209 134.038 59.1091 132.426 59.7012 130.584C60.3592 128.676 60.9184 126.603 61.379 124.366H62.2672L61.7737 142.822H8.97383V141.835C10.2239 141.835 11.3095 141.078 12.2306 139.565C13.1518 138.052 13.6123 135.815 13.6123 132.854V81.1395C13.6123 78.1788 13.1518 75.9418 12.2306 74.4285C11.3095 72.9152 10.2239 72.1586 8.97383 72.1586V71.1717H61.7737ZM140.88 72.1586C138.972 72.1586 137.129 73.0139 135.353 74.7246C133.642 76.3694 132.293 78.5735 131.306 81.3369L108.904 142.822H98.1462L75.9406 81.7317C74.8221 78.6393 73.5062 76.2707 71.9929 74.6259C70.5455 72.981 69.2954 72.1586 68.2427 72.1586V71.1717H98.4422V72.1586C96.4026 72.1586 95.0209 72.981 94.2972 74.6259C93.6392 76.2707 93.9024 78.7709 95.0867 82.1264L111.272 127.031L128.05 81.0408C129.168 77.8169 129.3 75.547 128.444 74.2311C127.655 72.8494 126.24 72.1586 124.201 72.1586V71.1717H140.88V72.1586ZM199.683 71.1717L200.177 89.5283H199.289C198.828 87.2913 198.269 85.2517 197.611 83.4094C197.019 81.5014 196.131 79.8565 194.946 78.4748C193.762 77.0932 192.216 76.0405 190.308 75.3167C188.466 74.5272 186.064 74.1324 183.103 74.1324H169.286V105.615H178.761C183.564 105.615 187.084 104.595 189.321 102.556C191.624 100.516 192.775 98.0486 192.775 95.1537H193.762V118.741H192.775C192.775 115.846 191.624 113.412 189.321 111.438C187.084 109.398 183.564 108.378 178.761 108.378H169.286V139.861H183.103C186.064 139.861 188.466 139.466 190.308 138.677C192.216 137.887 193.762 136.801 194.946 135.42C196.131 134.038 197.019 132.426 197.611 130.584C198.269 128.676 198.828 126.603 199.289 124.366H200.177L199.683 142.822H146.884V141.835C148.134 141.835 149.219 141.078 150.14 139.565C151.061 138.052 151.522 135.815 151.522 132.854V81.1395C151.522 78.1788 151.061 75.9418 150.14 74.4285C149.219 72.9152 148.134 72.1586 146.884 72.1586V71.1717H199.683ZM231.22 71.1717C236.22 71.1717 240.694 71.5335 244.642 72.2573C248.655 72.9152 252.044 74.0008 254.807 75.5141C257.571 77.0274 259.676 78.9683 261.123 81.3369C262.637 83.7055 263.393 86.5675 263.393 89.9231C263.393 95.1208 261.617 99.1671 258.064 102.062C254.511 104.891 249.511 106.799 243.063 107.786C246.287 108.378 248.787 109.497 250.563 111.142C252.406 112.721 253.787 114.563 254.709 116.668C255.63 118.708 256.255 120.846 256.584 123.083C256.978 125.32 257.34 127.393 257.669 129.301C257.998 131.143 258.492 132.689 259.15 133.939C259.808 135.124 260.893 135.716 262.406 135.716C264.775 135.716 265.959 134.334 265.959 131.571H267.045C267.045 135.453 265.894 138.479 263.591 140.65C261.288 142.756 258.426 143.809 255.005 143.809C251.189 143.809 248.261 143.052 246.221 141.539C244.181 139.96 242.635 137.986 241.583 135.617C240.596 133.183 239.872 130.551 239.411 127.722C239.017 124.827 238.49 122.064 237.832 119.432C237.24 116.8 236.319 114.497 235.069 112.523C233.819 110.55 231.878 109.234 229.246 108.576H228.555V130.189C228.555 133.939 229.016 136.801 229.937 138.775C230.858 140.749 231.911 141.736 233.095 141.736V142.822H206.152V141.736C207.402 141.736 208.488 140.881 209.409 139.17C210.33 137.459 210.791 135.025 210.791 131.867V81.1395C210.791 78.1788 210.33 75.9418 209.409 74.4285C208.488 72.9152 207.402 72.1586 206.152 72.1586V71.1717H231.22ZM228.555 74.1324V105.615H229.542C234.543 105.615 238.424 104.266 241.188 101.569C244.017 98.8053 245.432 94.9563 245.432 90.0217C245.432 85.0214 243.984 81.1395 241.089 78.3762C238.194 75.547 234.181 74.1324 229.049 74.1324H228.555ZM301.52 131.867C301.52 135.025 301.98 137.459 302.902 139.17C303.823 140.881 304.875 141.736 306.06 141.736V142.822H279.117V141.736C280.367 141.736 281.453 140.881 282.374 139.17C283.295 137.459 283.755 135.025 283.755 131.867V110.451L270.629 81.5343C269.445 78.8367 268.063 76.5997 266.484 74.8233C264.905 73.0468 263.491 72.1586 262.241 72.1586V71.1717H289.48V72.1586C288.229 72.1586 287.473 73.0468 287.21 74.8233C286.946 76.5997 287.44 78.8367 288.69 81.5343L299.941 106.306L311.192 81.5343C311.784 80.2184 312.08 79.0012 312.08 77.8827C312.146 76.6984 312.014 75.6786 311.685 74.8233C311.356 73.9679 310.863 73.31 310.205 72.8494C309.613 72.3889 309.02 72.1586 308.428 72.1586V71.1717H322.837V72.1586C321.587 72.1586 320.173 73.0468 318.593 74.8233C317.014 76.5997 315.633 78.8367 314.448 81.5343L301.52 110.056V131.867ZM354.001 71.1717C367.094 71.1717 376.798 74.2311 383.115 80.35C389.497 86.4689 392.688 95.3511 392.688 106.997C392.688 130.88 379.792 142.822 354.001 142.822H328.834V141.835C330.084 141.835 331.17 141.078 332.091 139.565C333.012 138.052 333.473 135.815 333.473 132.854V81.1395C333.473 78.1788 333.012 75.9418 332.091 74.4285C331.17 72.9152 330.084 72.1586 328.834 72.1586V71.1717H354.001ZM352.224 139.861C359.593 139.861 365.186 137.098 369.002 131.571C372.818 125.978 374.726 117.886 374.726 107.293C374.726 96.6341 372.785 88.4427 368.903 82.7186C365.021 76.9945 359.396 74.1324 352.027 74.1324H351.237V139.861H352.224ZM430.451 71.1717L452.657 132.262C453.775 135.354 455.058 137.723 456.505 139.367C458.019 141.012 459.302 141.835 460.354 141.835V142.822H430.155V141.835C432.195 141.835 433.543 141.012 434.201 139.367C434.925 137.723 434.695 135.222 433.51 131.867L431.438 126.143H403.015L400.547 132.953C399.363 136.176 399.199 138.479 400.054 139.861C400.909 141.177 402.357 141.835 404.396 141.835V142.822H387.718V141.835C389.626 141.835 391.435 141.012 393.146 139.367C394.922 137.657 396.304 135.42 397.291 132.656L419.694 71.1717H430.451ZM430.451 123.182L417.325 86.9623L404.002 123.182H430.451ZM490.217 131.867C490.217 135.025 490.678 137.459 491.599 139.17C492.52 140.881 493.573 141.736 494.757 141.736V142.822H467.814V141.736C469.064 141.736 470.15 140.881 471.071 139.17C471.992 137.459 472.453 135.025 472.453 131.867V110.451L459.327 81.5343C458.142 78.8367 456.761 76.5997 455.182 74.8233C453.603 73.0468 452.188 72.1586 450.938 72.1586V71.1717H478.177V72.1586C476.927 72.1586 476.17 73.0468 475.907 74.8233C475.644 76.5997 476.137 78.8367 477.387 81.5343L488.638 106.306L499.889 81.5343C500.481 80.2184 500.777 79.0012 500.777 77.8827C500.843 76.6984 500.711 75.6786 500.382 74.8233C500.053 73.9679 499.56 73.31 498.902 72.8494C498.31 72.3889 497.718 72.1586 497.125 72.1586V71.1717H511.534V72.1586C510.284 72.1586 508.87 73.0468 507.291 74.8233C505.712 76.5997 504.33 78.8367 503.146 81.5343L490.217 110.056V131.867ZM528.144 143.71C525.71 143.71 523.637 142.92 521.926 141.341C520.281 139.762 519.459 137.821 519.459 135.518C519.459 133.216 520.281 131.275 521.926 129.696C523.637 128.117 525.71 127.327 528.144 127.327C530.578 127.327 532.618 128.117 534.263 129.696C535.973 131.275 536.829 133.216 536.829 135.518C536.829 137.821 535.973 139.762 534.263 141.341C532.618 142.92 530.578 143.71 528.144 143.71Z" fill="white"/>
<path d="M304.96 14.6057C304.377 12.7792 303.619 11.3801 302.686 10.4085C301.792 9.43688 301.034 8.95108 300.412 8.95108V8.36813H318.251V8.95108C317.046 8.95108 316.249 9.45631 315.861 10.4668C315.472 11.4384 315.608 12.8957 316.269 14.8389L324.139 38.915L329.619 22.1842L327.228 14.6057C326.645 12.7792 325.888 11.3801 324.955 10.4085C324.061 9.43688 323.303 8.95108 322.681 8.95108V8.36813H340.52V8.95108C339.315 8.95108 338.518 9.45631 338.13 10.4668C337.741 11.4384 337.877 12.8957 338.538 14.8389L346.408 38.915L354.511 14.1977C355.133 12.2934 355.21 10.9526 354.744 10.1753C354.278 9.35915 353.442 8.95108 352.237 8.95108V8.36813H362.089V8.95108C360.962 8.95108 359.874 9.45631 358.825 10.4668C357.775 11.4384 356.979 12.7403 356.434 14.3726L344.95 50.6907H338.596L330.668 25.507L322.681 50.6907H316.327L304.96 14.6057ZM376.945 8.36813L390.062 44.4531C390.723 46.2796 391.48 47.6787 392.335 48.6503C393.229 49.6219 393.987 50.1077 394.609 50.1077V50.6907H376.771V50.1077C377.975 50.1077 378.772 49.6219 379.161 48.6503C379.588 47.6787 379.452 46.2019 378.753 44.2199L377.528 40.8387H360.739L359.282 44.8611C358.582 46.7654 358.485 48.1257 358.99 48.9418C359.496 49.7191 360.351 50.1077 361.555 50.1077V50.6907H351.703V50.1077C352.83 50.1077 353.899 49.6219 354.91 48.6503C355.959 47.6399 356.775 46.3185 357.358 44.6862L370.591 8.36813H376.945ZM376.945 39.0899L369.192 17.6954L361.322 39.0899H376.945ZM412.248 44.2199C412.248 46.0853 412.52 47.5233 413.064 48.5337C413.609 49.5442 414.23 50.0494 414.93 50.0494V50.6907H399.015V50.0494C399.754 50.0494 400.395 49.5442 400.939 48.5337C401.483 47.5233 401.755 46.0853 401.755 44.2199V31.5697L394.002 14.4892C393.302 12.8957 392.486 11.5744 391.553 10.5251C390.621 9.47574 389.785 8.95108 389.047 8.95108V8.36813H405.136V8.95108C404.398 8.95108 403.951 9.47574 403.795 10.5251C403.64 11.5744 403.932 12.8957 404.67 14.4892L411.316 29.1213L417.961 14.4892C418.311 13.7119 418.486 12.9929 418.486 12.3322C418.525 11.6327 418.447 11.0303 418.253 10.5251C418.058 10.0198 417.767 9.63119 417.378 9.35915C417.029 9.0871 416.679 8.95108 416.329 8.95108V8.36813H424.84V8.95108C424.102 8.95108 423.266 9.47574 422.333 10.5251C421.401 11.5744 420.585 12.8957 419.885 14.4892L412.248 31.3366V44.2199Z" fill="white"/>
<path d="M209.479 61.0041C211.12 62.8038 208.367 65.3974 206.673 63.6507C205.138 62.0627 203.074 60.8453 200.798 60.0513C198.628 59.3632 196.405 58.8339 194.182 58.5692C185.342 69.7908 173.538 78.895 160.57 77.8893C151.73 75.2427 157.606 65.0798 162.899 61.851C170.256 56.5578 181.531 53.2761 191.853 53.9642C194.129 50.9471 196.14 47.7712 197.993 44.5423C197.622 44.9658 197.305 45.2304 197.146 45.3892C194.817 47.5594 190.053 49.3062 188.042 45.7598C186.665 42.5839 188.359 39.0904 189.206 36.0733C189.629 34.8029 190.106 33.5855 190.529 32.421C191.535 29.8273 195.611 31.2035 194.87 33.8501C194.076 37.4495 190.423 43.272 191.376 44.1718C193.335 46.0774 201.01 38.9316 202.809 35.0146C203.868 32.2622 208.156 33.956 207.044 36.7084C204.715 42.2663 201.327 48.6181 197.04 54.7052C201.804 55.7109 206.091 57.7223 209.479 61.0041ZM174.015 70.1083C179.52 67.0912 184.283 63.0155 188.412 58.2516C180.313 58.4104 172.109 60.9512 165.651 65.5033C153.265 76.1955 166.551 74.5017 174.015 70.1083ZM232.753 33.5325C235.029 32.8444 236.193 36.3909 233.864 37.1319C230.212 38.0847 226.189 38.5081 222.537 37.3436C223.648 41.9487 221.214 46.8713 215.021 47.2948C210.998 47.877 206.34 45.8656 207.504 41.1018C208.404 37.7141 210.892 35.1205 213.697 33.1091C213.591 32.6856 213.591 32.2622 213.75 31.7858C214.227 30.4625 215.815 29.9861 217.032 30.5684C217.085 30.6213 217.138 30.6213 217.191 30.6742H217.244C217.985 31.0448 218.62 31.4682 219.202 31.9446C223.331 34.3265 228.148 35.1734 232.753 33.5325ZM217.826 42.3721C219.731 40.6783 219.096 37.82 217.455 36.1262C217.402 36.1262 217.35 36.1791 217.297 36.2321C215.073 37.3436 212.85 39.0904 211.739 41.3664C211.104 42.7427 211.262 43.1661 212.797 43.3778C214.438 43.5896 216.661 43.3778 217.826 42.3721ZM265.357 34.4853C267.051 31.9975 270.333 34.697 268.269 36.8672C264.881 41.0488 259.535 44.8599 253.871 43.4308C251.013 42.6897 249.425 40.5195 248.684 37.9259C248.366 38.5081 248.049 39.0374 247.731 39.5668C245.614 42.7956 242.703 46.6067 238.415 46.6067C236.086 46.6067 233.969 44.7011 233.704 42.3721C233.175 38.9845 234.339 35.7557 235.08 32.6856C235.927 29.6156 240.479 31.0448 239.421 34.0619C238.839 35.8615 236.086 41.9487 238.098 43.0073C239.95 43.5896 241.591 42.2133 242.967 40.89C244.714 39.1433 246.143 36.9731 247.202 34.75C247.784 33.5855 248.26 32.421 248.631 31.2035C248.684 31.0977 248.737 30.9918 248.79 30.9389C249.637 28.2394 253.871 29.298 253.13 32.2092C250.484 43.0602 260.858 40.3078 265.357 34.4853ZM298.593 34.1677C299.916 32.2092 303.092 34.3794 301.663 36.3379C300.128 38.614 298.222 40.4137 296.052 41.9487C290.6 46.0774 282.078 47.4006 276.679 42.3721C275.091 40.8371 271.915 38.1376 274.456 36.0733C274.773 35.8615 275.091 35.7557 275.409 35.7027C278.214 35.1205 281.76 34.1677 282.449 31.2565C282.501 30.7272 282.343 30.3037 281.813 30.3037C276.044 30.3037 272.021 35.9674 269.48 40.6254C267.681 44.0659 266.093 47.7182 264.822 51.4235C264.134 53.5937 260.747 52.588 261.329 50.4178C263.605 42.2663 266.622 33.5325 273.662 28.2394C277.102 25.6986 283.931 23.899 286.63 28.557C288.8 33.5855 284.407 37.5024 279.855 39.2492C285.413 44.013 294.517 39.9373 298.593 34.1677Z" fill="#FD7034"/>
</g>
<defs>
<filter id="filter0_d_57_121" x="0.0356016" y="3.99413" width="544.923" height="152.339" filterUnits="userSpaceOnUse" color-interpolation-filters="sRGB">
<feFlood flood-opacity="0" result="BackgroundImageFix"/>
<feColorMatrix in="SourceAlpha" type="matrix" values="0 0 0 0 0 0 0 0 0 0 0 0 0 0 0 0 0 0 127 0" result="hardAlpha"/>
<feOffset dy="4.39469"/>
<feGaussianBlur stdDeviation="4.06508"/>
<feComposite in2="hardAlpha" operator="out"/>
<feColorMatrix type="matrix" values="0 0 0 0 0 0 0 0 0 0 0 0 0 0 0 0 0 0 0.25 0"/>
<feBlend mode="normal" in2="BackgroundImageFix" result="effect1_dropShadow_57_121"/>
<feBlend mode="normal" in="SourceGraphic" in2="effect1_dropShadow_57_121" result="shape"/>
</filter>
</defs>
</svg>
