<svg width="354" height="113" viewBox="0 0 354 113" fill="none" xmlns="http://www.w3.org/2000/svg">
<g filter="url(#filter0_d_583_1163)">
<path d="M149.095 18.4738C149.095 16.2503 148.156 15.1386 146.279 15.1386C145.711 15.1386 145.142 15.3239 144.574 15.6945C144.006 16.065 143.537 16.5591 143.166 17.1768V27.9236C143.166 28.3683 143.215 28.813 143.314 29.2577C143.413 29.7024 143.537 30.11 143.685 30.4806C143.858 30.8265 144.043 31.1106 144.241 31.333C144.463 31.5306 144.685 31.6294 144.908 31.6294V32H135.124V31.6294C135.347 31.6294 135.557 31.5306 135.754 31.333C135.977 31.1106 136.162 30.8388 136.31 30.5177C136.483 30.1718 136.619 29.7889 136.718 29.3689C136.817 28.9242 136.866 28.4918 136.866 28.0718V18.2885C136.866 17.8191 136.817 17.3744 136.718 16.9544C136.619 16.5097 136.483 16.1268 136.31 15.8056C136.162 15.4598 135.977 15.188 135.754 14.9904C135.557 14.768 135.347 14.6568 135.124 14.6568V14.2863C135.816 14.2368 136.508 14.1751 137.2 14.101C137.891 14.0021 138.571 13.891 139.238 13.7674C139.905 13.6439 140.535 13.508 141.128 13.3598C141.721 13.1869 142.252 12.9892 142.721 12.7669H143.166V15.5092C143.833 14.6445 144.722 13.9157 145.834 13.3227C146.946 12.7051 148.169 12.3963 149.503 12.3963C152.097 12.3963 153.851 13.508 154.765 15.7315C155.407 14.7927 156.297 14.0021 157.433 13.3598C158.594 12.7175 159.867 12.3963 161.25 12.3963C163.177 12.3963 164.635 13.0016 165.623 14.2121C166.636 15.4227 167.142 17.1768 167.142 19.4744V27.9236C167.142 28.3683 167.192 28.813 167.291 29.2577C167.39 29.7024 167.513 30.11 167.661 30.4806C167.834 30.8265 168.02 31.1106 168.217 31.333C168.44 31.5306 168.662 31.6294 168.884 31.6294V32H159.101V31.6294C159.323 31.6294 159.533 31.5306 159.731 31.333C159.953 31.1106 160.139 30.8388 160.287 30.5177C160.46 30.1718 160.596 29.7889 160.694 29.3689C160.793 28.9242 160.843 28.4918 160.843 28.0718V18.4738C160.843 16.2503 159.904 15.1386 158.026 15.1386C157.507 15.1386 156.989 15.2992 156.47 15.6203C155.951 15.9168 155.506 16.3244 155.136 16.8433C155.21 17.2385 155.272 17.6585 155.321 18.1032C155.37 18.5232 155.395 18.9803 155.395 19.4744V27.9236C155.395 28.3683 155.444 28.813 155.543 29.2577C155.642 29.7024 155.766 30.11 155.914 30.4806C156.087 30.8265 156.272 31.1106 156.47 31.333C156.692 31.5306 156.914 31.6294 157.137 31.6294V32H147.353V31.6294C147.576 31.6294 147.786 31.5306 147.983 31.333C148.206 31.1106 148.391 30.8388 148.539 30.5177C148.712 30.1718 148.848 29.7889 148.947 29.3689C149.046 28.9242 149.095 28.4918 149.095 28.0718V18.4738ZM168.708 22.402C168.708 20.9691 168.968 19.6473 169.486 18.4368C170.03 17.2015 170.759 16.1392 171.673 15.2498C172.612 14.3604 173.711 13.6686 174.971 13.1745C176.256 12.6557 177.627 12.3963 179.084 12.3963C180.542 12.3963 181.889 12.6557 183.124 13.1745C184.384 13.6686 185.471 14.3604 186.385 15.2498C187.299 16.1392 188.015 17.2015 188.534 18.4368C189.078 19.6473 189.35 20.9691 189.35 22.402C189.35 23.8102 189.078 25.1319 188.534 26.3672C188.015 27.5777 187.299 28.6277 186.385 29.5171C185.471 30.4065 184.384 31.1106 183.124 31.6294C181.889 32.1235 180.542 32.3706 179.084 32.3706C177.627 32.3706 176.256 32.1235 174.971 31.6294C173.711 31.1106 172.612 30.4065 171.673 29.5171C170.759 28.6277 170.03 27.5777 169.486 26.3672C168.968 25.1319 168.708 23.8102 168.708 22.402ZM175.453 22.3649C175.453 24.1437 175.539 25.626 175.712 26.8119C175.91 27.973 176.169 28.8995 176.49 29.5912C176.836 30.2583 177.219 30.74 177.639 31.0365C178.084 31.3082 178.553 31.4441 179.047 31.4441C179.541 31.4441 179.999 31.3082 180.419 31.0365C180.863 30.74 181.246 30.2583 181.567 29.5912C181.889 28.8995 182.136 27.973 182.308 26.8119C182.506 25.626 182.605 24.1437 182.605 22.3649C182.605 20.5861 182.506 19.1162 182.308 17.955C182.136 16.7938 181.889 15.8797 181.567 15.2127C181.246 14.521 180.863 14.0392 180.419 13.7674C179.999 13.471 179.541 13.3227 179.047 13.3227C178.553 13.3227 178.084 13.471 177.639 13.7674C177.219 14.0392 176.836 14.521 176.49 15.2127C176.169 15.8797 175.91 16.7938 175.712 17.955C175.539 19.1162 175.453 20.5861 175.453 22.3649ZM198.397 13.3227C197.952 13.3227 197.557 13.4957 197.211 13.8416C196.865 14.1874 196.693 14.6815 196.693 15.3239C196.693 16.1392 196.94 16.8556 197.434 17.4732C197.928 18.0909 198.545 18.6591 199.287 19.1779C200.028 19.672 200.831 20.1661 201.695 20.6602C202.56 21.1296 203.363 21.6485 204.104 22.2167C204.845 22.7602 205.463 23.3902 205.957 24.1066C206.451 24.7984 206.698 25.6137 206.698 26.5525C206.698 27.3924 206.488 28.1707 206.068 28.8871C205.673 29.6036 205.105 30.2212 204.364 30.74C203.622 31.2588 202.745 31.6665 201.732 31.9629C200.744 32.2347 199.657 32.3706 198.471 32.3706C197.285 32.3706 196.186 32.2718 195.173 32.0741C194.16 31.9012 193.271 31.6294 192.505 31.2588C191.764 30.8636 191.171 30.3694 190.726 29.7765C190.306 29.1836 190.096 28.4918 190.096 27.7013C190.096 26.8613 190.368 26.1325 190.911 25.5148C191.48 24.8972 192.196 24.5884 193.061 24.5884C193.777 24.5884 194.333 24.7613 194.728 25.1072C195.124 25.4284 195.42 25.8484 195.618 26.3672C195.84 26.886 196.001 27.4419 196.1 28.0348C196.223 28.603 196.359 29.1465 196.507 29.6653C196.68 30.1842 196.903 30.6165 197.174 30.9624C197.471 31.2835 197.903 31.4441 198.471 31.4441C199.064 31.4441 199.521 31.3082 199.842 31.0365C200.188 30.7647 200.361 30.3447 200.361 29.7765C200.361 28.9859 200.114 28.2942 199.62 27.7013C199.126 27.0836 198.496 26.5031 197.73 25.9595C196.989 25.416 196.186 24.8849 195.321 24.366C194.457 23.8472 193.641 23.279 192.876 22.6614C192.134 22.0437 191.517 21.3643 191.023 20.6232C190.529 19.8573 190.281 18.9803 190.281 17.9921C190.281 17.2262 190.479 16.5097 190.874 15.8427C191.294 15.1509 191.863 14.558 192.579 14.0639C193.296 13.5451 194.136 13.1375 195.099 12.841C196.087 12.5445 197.15 12.3963 198.286 12.3963C200.905 12.3963 202.918 12.8533 204.326 13.7674C205.759 14.6568 206.476 15.818 206.476 17.2509C206.476 18.0415 206.216 18.6715 205.698 19.1409C205.179 19.6103 204.487 19.845 203.622 19.845C202.931 19.845 202.375 19.6844 201.955 19.3632C201.559 19.042 201.226 18.6467 200.954 18.1773C200.707 17.6832 200.509 17.1521 200.361 16.5839C200.238 16.0156 200.09 15.4968 199.917 15.0274C199.768 14.5333 199.583 14.1257 199.361 13.8045C199.138 13.4833 198.817 13.3227 198.397 13.3227ZM206.901 12.7669C207.766 12.7669 208.593 12.631 209.384 12.3592C210.199 12.0875 210.94 11.7045 211.608 11.2104C212.275 10.7163 212.83 10.1358 213.275 9.46871C213.745 8.80166 214.066 8.07285 214.239 7.28228H214.98V12.7669H219.204V13.6933H214.98V26.4042C214.98 28.2818 215.622 29.2206 216.907 29.2206C217.45 29.2206 217.92 29.0477 218.315 28.7018C218.71 28.356 218.945 28.0101 219.019 27.6642H219.39C219.39 28.3313 219.254 28.9612 218.982 29.5542C218.71 30.1224 218.327 30.6165 217.833 31.0365C217.339 31.4565 216.746 31.7777 216.054 32C215.387 32.2471 214.659 32.3706 213.868 32.3706C212.163 32.3706 210.866 31.8641 209.977 30.8512C209.112 29.8383 208.68 28.356 208.68 26.4042V13.6933H206.345V12.7669H206.901Z" fill="#4D4D4D"/>
</g>
<g filter="url(#filter1_d_583_1163)">
<path d="M31.9739 85.9161C31.9739 88.8458 32.3706 91.1042 33.1641 92.6911C34.0186 94.2781 35.0257 95.0716 36.1854 95.0716V96.0787H11.1909V95.0716C12.3506 95.0716 13.3577 94.2781 14.2122 92.6911C15.0667 91.1042 15.494 88.8458 15.494 85.9161V38.8567C15.494 36.1101 15.0667 34.0348 14.2122 32.631C13.3577 31.2271 12.3506 30.5252 11.1909 30.5252V29.6096H59.8067L60.2645 46.6389H59.3489C58.9216 44.5636 58.3723 42.6715 57.7009 40.9625C57.0905 39.1924 56.236 37.6665 55.1374 36.3847C54.0387 35.1029 52.6043 34.1264 50.8343 33.455C49.1252 32.7225 46.9584 32.3563 44.3339 32.3563H31.9739V61.9286H42.5943C44.7306 61.9286 46.4701 61.6845 47.8129 61.1962C49.2168 60.6468 50.3155 59.9449 51.1089 59.0904C51.9635 58.1748 52.5433 57.1677 52.8485 56.0691C53.2147 54.9094 53.3978 53.6886 53.3978 52.4069H54.3134V74.197H53.3978C53.3978 72.9152 53.2147 71.6945 52.8485 70.5348C52.5433 69.3751 51.9635 68.368 51.1089 67.5135C50.3155 66.659 49.2168 65.9875 47.8129 65.4993C46.4701 64.9499 44.7306 64.6753 42.5943 64.6753H31.9739V85.9161ZM101.153 88.4796C101.153 89.5172 101.306 90.3412 101.611 90.9516C101.977 91.5009 102.526 91.7756 103.259 91.7756C103.747 91.7756 104.174 91.6535 104.541 91.4094C104.968 91.1652 105.365 90.6464 105.731 89.8529H106.646C106.646 91.9282 105.7 93.6372 103.808 94.98C101.977 96.3228 99.6577 96.9942 96.85 96.9942C91.0515 96.9942 87.4809 95.2547 86.1381 91.7756C84.7342 93.6067 82.9642 94.9495 80.8279 95.804C78.7526 96.5975 76.4332 96.9942 73.8697 96.9942C71.7944 96.9942 69.8107 96.6585 67.9186 95.9871C66.0875 95.3157 64.47 94.3391 63.0662 93.0574C61.6623 91.7145 60.5332 90.1276 59.6786 88.2965C58.8852 86.4043 58.4884 84.2681 58.4884 81.8876C58.4884 78.4696 59.1598 75.6008 60.5026 73.2814C61.8454 70.962 63.524 69.1004 65.5382 67.6966C67.5524 66.2927 69.7192 65.2856 72.0386 64.6753C74.419 64.0649 76.6163 63.7597 78.6306 63.7597C79.9123 63.7597 80.9805 63.8513 81.835 64.0344C82.7505 64.1564 83.483 64.309 84.0323 64.4921C84.6427 64.7363 85.1615 64.9804 85.5887 65.2246V58.6326C85.5887 56.008 85.131 53.9023 84.2154 52.3153C83.3609 50.7284 82.2317 49.9349 80.8279 49.9349C78.4474 49.9349 77.2572 52.3458 77.2572 57.1677C77.2572 59.1819 76.4637 60.8605 74.8768 62.2033C73.2898 63.5461 71.123 64.2175 68.3764 64.2175C66.2401 64.2175 64.5921 63.6682 63.4324 62.5695C62.2727 61.4708 61.6929 60.0059 61.6929 58.1748C61.6929 56.5268 62.1506 55.062 63.0662 53.7802C64.0428 52.4374 65.3551 51.3082 67.0031 50.3927C68.651 49.4771 70.5737 48.8057 72.771 48.3784C75.0294 47.8901 77.4403 47.646 80.0039 47.646C83.483 47.646 86.5348 48.1648 89.1594 49.2024C91.784 50.2401 93.9813 51.7355 95.7514 53.6886C97.5825 55.5808 98.9253 57.9002 99.7798 60.6468C100.695 63.3324 101.153 66.3538 101.153 69.7108V88.4796ZM85.5887 71.1757C85.5887 70.138 85.2836 69.1615 84.6732 68.2459C84.1239 67.3304 83.1778 66.8726 81.835 66.8726C79.6987 66.8726 77.9591 68.2154 76.6163 70.901C75.2735 73.5256 74.6021 77.3099 74.6021 82.2538C74.6021 85.3057 75.1515 87.6556 76.2501 89.3036C77.3488 90.9516 78.6611 91.7756 80.187 91.7756C82.3233 91.7756 84.1239 90.8295 85.5887 88.9374V71.1757ZM118.092 96.0787L104.084 58.2664C102.986 55.2146 101.734 52.9867 100.331 51.5829C98.9877 50.179 97.7365 49.4771 96.5768 49.4771V48.5615H122.121V49.4771C121.022 49.4771 120.29 50.179 119.923 51.5829C119.557 52.9867 119.954 55.2146 121.114 58.2664L131.093 84.9089L140.798 58.0833C141.347 56.6184 141.591 55.3366 141.53 54.238C141.53 53.1393 141.347 52.2238 140.981 51.4913C140.615 50.7589 140.127 50.2401 139.516 49.9349C138.967 49.5687 138.417 49.3855 137.868 49.3855V48.5615H152.425V49.3855C151.876 49.3855 151.174 49.5687 150.32 49.9349C149.465 50.2401 148.58 50.7589 147.665 51.4913C146.81 52.2238 145.956 53.1393 145.101 54.238C144.308 55.3366 143.636 56.6184 143.087 58.0833L129.262 96.0787H118.092ZM145.126 72.3659C145.126 68.8258 145.767 65.5603 147.049 62.5695C148.392 59.5177 150.192 56.8931 152.45 54.6957C154.77 52.4984 157.486 50.7894 160.599 49.5687C163.773 48.2869 167.16 47.646 170.761 47.646C174.363 47.646 177.689 48.2869 180.741 49.5687C183.854 50.7894 186.54 52.4984 188.798 54.6957C191.056 56.8931 192.826 59.5177 194.108 62.5695C195.451 65.5603 196.122 68.8258 196.122 72.3659C196.122 75.845 195.451 79.1105 194.108 82.1623C192.826 85.1531 191.056 87.7472 188.798 89.9445C186.54 92.1418 183.854 93.8814 180.741 95.1631C177.689 96.3839 174.363 96.9942 170.761 96.9942C167.16 96.9942 163.773 96.3839 160.599 95.1631C157.486 93.8814 154.77 92.1418 152.45 89.9445C150.192 87.7472 148.392 85.1531 147.049 82.1623C145.767 79.1105 145.126 75.845 145.126 72.3659ZM161.789 72.2743C161.789 76.669 162.003 80.3312 162.43 83.261C162.918 86.1297 163.559 88.4186 164.353 90.1276C165.207 91.7756 166.153 92.9658 167.191 93.6982C168.29 94.3696 169.449 94.7053 170.67 94.7053C171.891 94.7053 173.02 94.3696 174.057 93.6982C175.156 92.9658 176.102 91.7756 176.896 90.1276C177.689 88.4186 178.3 86.1297 178.727 83.261C179.215 80.3312 179.459 76.669 179.459 72.2743C179.459 67.8797 179.215 64.248 178.727 61.3793C178.3 58.5105 177.689 56.2522 176.896 54.6042C176.102 52.8952 175.156 51.7049 174.057 51.0335C173.02 50.3011 171.891 49.9349 170.67 49.9349C169.449 49.9349 168.29 50.3011 167.191 51.0335C166.153 51.7049 165.207 52.8952 164.353 54.6042C163.559 56.2522 162.918 58.5105 162.43 61.3793C162.003 64.248 161.789 67.8797 161.789 72.2743ZM195.195 95.1631C195.745 95.1631 196.263 94.919 196.752 94.4307C197.301 93.8814 197.759 93.2099 198.125 92.4165C198.552 91.562 198.888 90.6159 199.132 89.5783C199.376 88.4796 199.498 87.4115 199.498 86.3738V62.2033C199.498 61.0436 199.376 59.9449 199.132 58.9073C198.888 57.8086 198.552 56.8626 198.125 56.0691C197.759 55.2146 197.301 54.5432 196.752 54.0549C196.263 53.5055 195.745 53.2309 195.195 53.2309V52.3153C196.904 52.1932 198.613 52.0406 200.322 51.8575C202.031 51.6134 203.71 51.3387 205.358 51.0335C207.006 50.7284 208.562 50.3927 210.027 50.0264C211.492 49.5992 212.804 49.1109 213.964 48.5615H215.063V55.6113C216.894 53.0478 219.183 51.0946 221.929 49.7518C224.737 48.3479 227.758 47.646 230.993 47.646C233.252 47.646 235.113 48.0733 236.578 48.9278C238.043 49.7823 239.142 50.8504 239.874 52.1322C240.607 53.414 240.973 54.8178 240.973 56.3437C240.973 57.8697 240.668 59.2735 240.057 60.5553C239.447 61.837 238.531 62.9052 237.311 63.7597C236.151 64.6142 234.717 65.0415 233.008 65.0415C230.993 65.0415 229.498 64.4921 228.521 63.3935C227.545 62.2948 226.751 61.1046 226.141 59.8228C225.531 58.48 224.92 57.2593 224.31 56.1606C223.699 55.062 222.692 54.5126 221.289 54.5126C220.556 54.5126 219.854 54.7263 219.183 55.1535C218.572 55.5808 217.993 56.1301 217.443 56.8015C216.894 57.4119 216.406 58.0528 215.978 58.7242C215.612 59.3345 215.307 59.8839 215.063 60.3722V86.0076C215.063 87.1063 215.185 88.2049 215.429 89.3036C215.673 90.4023 215.978 91.4094 216.345 92.3249C216.772 93.1794 217.23 93.8814 217.718 94.4307C218.267 94.919 218.817 95.1631 219.366 95.1631V96.0787H195.195V95.1631ZM253.654 44.7162C251.396 44.7162 249.473 43.9838 247.886 42.5189C246.36 41.054 245.597 39.2534 245.597 37.1172C245.597 34.9809 246.36 33.1803 247.886 31.7154C249.473 30.2505 251.396 29.5181 253.654 29.5181C255.912 29.5181 257.804 30.2505 259.33 31.7154C260.917 33.1803 261.711 34.9809 261.711 37.1172C261.711 39.2534 260.917 41.054 259.33 42.5189C257.804 43.9838 255.912 44.7162 253.654 44.7162ZM242.85 95.1631C243.4 95.1631 243.919 94.919 244.407 94.4307C244.956 93.8814 245.414 93.2099 245.78 92.4165C246.207 91.562 246.543 90.6159 246.787 89.5783C247.031 88.4796 247.154 87.4115 247.154 86.3738V62.2033C247.154 61.0436 247.031 59.9449 246.787 58.9073C246.543 57.8086 246.207 56.8626 245.78 56.0691C245.414 55.2146 244.956 54.5432 244.407 54.0549C243.919 53.5055 243.4 53.2309 242.85 53.2309V52.3153C244.559 52.1932 246.268 52.0406 247.978 51.8575C249.687 51.6134 251.365 51.3387 253.013 51.0335C254.661 50.7284 256.217 50.3927 257.682 50.0264C259.147 49.5992 260.46 49.1109 261.619 48.5615H262.718V86.0076C262.718 87.1063 262.84 88.2049 263.084 89.3036C263.328 90.4023 263.633 91.4094 264 92.3249C264.427 93.1794 264.885 93.8814 265.373 94.4307C265.922 94.919 266.472 95.1631 267.021 95.1631V96.0787H242.85V95.1631ZM266.576 48.5615C268.712 48.5615 270.757 48.2258 272.71 47.5544C274.725 46.883 276.556 45.937 278.204 44.7162C279.852 43.4955 281.225 42.0611 282.324 40.4131C283.483 38.7651 284.277 36.9646 284.704 35.0114H286.535V48.5615H296.972V50.8504H286.535V82.2538C286.535 86.8926 288.122 89.212 291.296 89.212C292.639 89.212 293.799 88.7848 294.775 87.9303C295.752 87.0758 296.332 86.2212 296.515 85.3667H297.43C297.43 87.0147 297.094 88.5712 296.423 90.036C295.752 91.4399 294.806 92.6606 293.585 93.6982C292.364 94.7359 290.899 95.5293 289.19 96.0787C287.542 96.689 285.742 96.9942 283.788 96.9942C279.577 96.9942 276.373 95.743 274.175 93.2405C272.039 90.738 270.971 87.0758 270.971 82.2538V50.8504H265.203V48.5615H266.576ZM313.229 69.4361C313.534 75.2957 314.969 79.7819 317.532 82.8947C320.157 86.0076 323.544 87.564 327.695 87.564C328.549 87.564 329.679 87.503 331.082 87.3809C332.486 87.1978 333.921 86.7706 335.386 86.0992C336.85 85.4278 338.224 84.4512 339.505 83.1694C340.787 81.8266 341.672 79.965 342.161 77.5845H343.076C342.832 80.6974 342.1 83.4746 340.879 85.9161C339.719 88.2965 338.193 90.3107 336.301 91.9587C334.409 93.6067 332.212 94.8579 329.709 95.7125C327.207 96.567 324.49 96.9942 321.561 96.9942C318.021 96.9942 314.755 96.3839 311.764 95.1631C308.835 93.9424 306.301 92.2334 304.165 90.036C302.029 87.8387 300.35 85.2141 299.13 82.1623C297.97 79.1105 297.39 75.7534 297.39 72.0912C297.39 68.429 297.939 65.1025 299.038 62.1117C300.198 59.1209 301.785 56.5574 303.799 54.4211C305.874 52.2848 308.316 50.6368 311.123 49.4771C313.992 48.2564 317.136 47.646 320.554 47.646C323.666 47.646 326.566 48.1648 329.251 49.2024C331.998 50.179 334.378 51.5829 336.393 53.414C338.407 55.184 339.994 57.2898 341.153 59.7313C342.313 62.1117 342.893 64.7058 342.893 67.5135V69.4361H313.229ZM327.786 67.2388C327.603 61.8676 326.901 57.656 325.681 54.6042C324.46 51.4913 322.873 49.9349 320.92 49.9349C319.76 49.9349 318.722 50.3927 317.807 51.3082C316.891 52.2238 316.098 53.475 315.426 55.062C314.755 56.6489 314.236 58.5105 313.87 60.6468C313.504 62.7221 313.26 64.9194 313.138 67.2388H327.786Z" fill="#FD7034"/>
</g>
<defs>
<filter id="filter0_d_583_1163" x="124.883" y="2.16148" width="104.749" height="45.5716" filterUnits="userSpaceOnUse" color-interpolation-filters="sRGB">
<feFlood flood-opacity="0" result="BackgroundImageFix"/>
<feColorMatrix in="SourceAlpha" type="matrix" values="0 0 0 0 0 0 0 0 0 0 0 0 0 0 0 0 0 0 127 0" result="hardAlpha"/>
<feOffset dy="5.12081"/>
<feGaussianBlur stdDeviation="5.12081"/>
<feComposite in2="hardAlpha" operator="out"/>
<feColorMatrix type="matrix" values="0 0 0 0 0 0 0 0 0 0 0 0 0 0 0 0 0 0 0.25 0"/>
<feBlend mode="normal" in2="BackgroundImageFix" result="effect1_dropShadow_583_1163"/>
<feBlend mode="normal" in="SourceGraphic" in2="effect1_dropShadow_583_1163" result="shape"/>
</filter>
<filter id="filter1_d_583_1163" x="0.437214" y="23.8852" width="353.393" height="88.9835" filterUnits="userSpaceOnUse" color-interpolation-filters="sRGB">
<feFlood flood-opacity="0" result="BackgroundImageFix"/>
<feColorMatrix in="SourceAlpha" type="matrix" values="0 0 0 0 0 0 0 0 0 0 0 0 0 0 0 0 0 0 127 0" result="hardAlpha"/>
<feOffset dy="5.12081"/>
<feGaussianBlur stdDeviation="5.37685"/>
<feComposite in2="hardAlpha" operator="out"/>
<feColorMatrix type="matrix" values="0 0 0 0 0 0 0 0 0 0 0 0 0 0 0 0 0 0 0.25 0"/>
<feBlend mode="normal" in2="BackgroundImageFix" result="effect1_dropShadow_583_1163"/>
<feBlend mode="normal" in="SourceGraphic" in2="effect1_dropShadow_583_1163" result="shape"/>
</filter>
</defs>
</svg>
