<svg width="195" height="66" viewBox="0 0 195 66" fill="none" xmlns="http://www.w3.org/2000/svg">
<g filter="url(#filter0_d_424_751)">
<path d="M7.58539 26.2873C7.93985 26.2873 8.24767 26.0448 8.50885 25.5598C8.77002 25.0747 8.90061 24.3845 8.90061 23.489V9.10554C8.90061 8.26604 8.77002 7.63175 8.50885 7.20267C8.24767 6.77359 7.93985 6.55905 7.58539 6.55905V6.27922H15.1409C17.6594 6.27922 19.6089 6.69897 20.9894 7.53847C22.3699 8.37797 23.0602 9.54395 23.0602 11.0364C23.0602 12.1184 22.7431 13.0325 22.1088 13.7788C21.4745 14.5063 20.635 14.9727 19.5903 15.1779C20.2619 15.3085 20.8962 15.5417 21.4931 15.8775C22.0901 16.2133 22.6125 16.6237 23.0602 17.1088C23.5079 17.5938 23.8531 18.1442 24.0956 18.7598C24.3568 19.3568 24.4874 19.9817 24.4874 20.6347C24.4874 22.6868 23.8437 24.1979 22.5565 25.168C21.2693 26.1194 19.3477 26.5952 16.7919 26.5952H7.58539V26.2873ZM13.9656 15.3738C15.2528 15.3738 16.2416 15.0287 16.9318 14.3384C17.6221 13.6295 17.9672 12.6314 17.9672 11.3442C17.9672 10.001 17.6128 8.96563 16.9039 8.23806C16.2136 7.49183 15.2435 7.11872 13.9936 7.11872H13.9376V15.3738H13.9656ZM14.3854 25.7557C17.7247 25.7557 19.3944 24.1513 19.3944 20.9425C19.3944 17.7897 17.6687 16.2133 14.2175 16.2133H13.9376V25.7557H14.3854ZM30.1621 18.452C30.2554 20.2429 30.6938 21.6141 31.4773 22.5655C32.2795 23.517 33.3149 23.9927 34.5835 23.9927C34.8446 23.9927 35.1898 23.974 35.6188 23.9367C36.0479 23.8808 36.4863 23.7502 36.9341 23.545C37.3818 23.3398 37.8015 23.0413 38.1933 22.6495C38.5851 22.2391 38.8556 21.6701 39.0048 20.9425H39.2847C39.21 21.8939 38.9862 22.7428 38.6131 23.489C38.2586 24.2166 37.7922 24.8322 37.2139 25.3359C36.6356 25.8396 35.964 26.222 35.1991 26.4832C34.4342 26.7444 33.604 26.875 32.7086 26.875C31.6265 26.875 30.6285 26.6884 29.7143 26.3153C28.8189 25.9422 28.0447 25.4199 27.3917 24.7483C26.7388 24.0766 26.2257 23.2745 25.8526 22.3417C25.4982 21.4089 25.321 20.3828 25.321 19.2635C25.321 18.1442 25.4889 17.1274 25.8247 16.2133C26.1791 15.2992 26.6642 14.5157 27.2798 13.8627C27.9141 13.2098 28.6603 12.7061 29.5185 12.3516C30.3953 11.9785 31.356 11.7919 32.4007 11.7919C33.3522 11.7919 34.2383 11.9505 35.0592 12.2677C35.8987 12.5662 36.6262 12.9952 37.2419 13.5549C37.8575 14.0959 38.3426 14.7395 38.697 15.4858C39.0515 16.2133 39.2287 17.0062 39.2287 17.8643V18.452H30.1621ZM34.6114 17.7804C34.5555 16.1387 34.3409 14.8515 33.9678 13.9187C33.5947 12.9672 33.1097 12.4915 32.5127 12.4915C32.1582 12.4915 31.8411 12.6314 31.5612 12.9113C31.2814 13.1911 31.0389 13.5736 30.8337 14.0586C30.6285 14.5436 30.4699 15.1126 30.358 15.7656C30.246 16.3999 30.1714 17.0715 30.1341 17.7804H34.6114ZM39.012 26.3153C39.1799 26.3153 39.3385 26.2407 39.4878 26.0915C39.6557 25.9236 39.7956 25.7183 39.9075 25.4758C40.0381 25.2146 40.1407 24.9255 40.2153 24.6083C40.2899 24.2725 40.3273 23.9461 40.3273 23.6289V16.2413C40.3273 15.8868 40.2899 15.551 40.2153 15.2339C40.1407 14.8981 40.0381 14.6089 39.9075 14.3664C39.7956 14.1052 39.6557 13.9 39.4878 13.7508C39.3385 13.5829 39.1799 13.4989 39.012 13.4989V13.2191C39.5344 13.1818 40.0568 13.1351 40.5791 13.0792C41.1015 13.0046 41.6145 12.9206 42.1182 12.8273C42.6219 12.7341 43.0976 12.6314 43.5453 12.5195C43.9931 12.3889 44.3942 12.2397 44.7486 12.0718H45.0844V14.2265C45.6441 13.443 46.3437 12.846 47.1832 12.4356C48.0413 12.0065 48.9648 11.7919 49.9535 11.7919C50.6438 11.7919 51.2128 11.9225 51.6605 12.1837C52.1083 12.4449 52.4441 12.7714 52.6679 13.1631C52.8918 13.5549 53.0037 13.984 53.0037 14.4504C53.0037 14.9168 52.9105 15.3458 52.7239 15.7376C52.5373 16.1294 52.2575 16.4558 51.8844 16.717C51.5299 16.9782 51.0915 17.1088 50.5692 17.1088C49.9535 17.1088 49.4965 16.9409 49.198 16.6051C48.8995 16.2693 48.657 15.9055 48.4704 15.5137C48.2839 15.1033 48.0973 14.7302 47.9108 14.3944C47.7242 14.0586 47.4164 13.8907 46.9873 13.8907C46.7634 13.8907 46.5489 13.956 46.3437 14.0866C46.1571 14.2172 45.9799 14.3851 45.812 14.5903C45.6441 14.7768 45.4949 14.9727 45.3643 15.1779C45.2523 15.3645 45.1591 15.5324 45.0844 15.6816V23.517C45.0844 23.8528 45.1217 24.1886 45.1964 24.5244C45.271 24.8602 45.3643 25.168 45.4762 25.4478C45.6068 25.709 45.7467 25.9236 45.896 26.0915C46.0639 26.2407 46.2318 26.3153 46.3997 26.3153V26.5952H39.012V26.3153ZM53.4136 26.3153C53.5815 26.3153 53.7401 26.2407 53.8894 26.0915C54.0573 25.9236 54.1972 25.7183 54.3091 25.4758C54.4397 25.2146 54.5423 24.9255 54.6169 24.6083C54.6915 24.2725 54.7289 23.9461 54.7289 23.6289V16.2413C54.7289 15.8868 54.6915 15.551 54.6169 15.2339C54.5423 14.8981 54.4397 14.6089 54.3091 14.3664C54.1972 14.1052 54.0573 13.9 53.8894 13.7508C53.7401 13.5829 53.5815 13.4989 53.4136 13.4989V13.2191C53.936 13.1818 54.4584 13.1351 54.9807 13.0792C55.5031 13.0046 56.0161 12.9206 56.5198 12.8273C57.0235 12.7341 57.4992 12.6314 57.9469 12.5195C58.3947 12.3889 58.7958 12.2397 59.1502 12.0718H59.486V14.2265C60.0457 13.443 60.7453 12.846 61.5848 12.4356C62.4429 12.0065 63.3664 11.7919 64.3551 11.7919C65.0454 11.7919 65.6144 11.9225 66.0621 12.1837C66.5099 12.4449 66.8457 12.7714 67.0695 13.1631C67.2934 13.5549 67.4053 13.984 67.4053 14.4504C67.4053 14.9168 67.3121 15.3458 67.1255 15.7376C66.9389 16.1294 66.6591 16.4558 66.286 16.717C65.9315 16.9782 65.4931 17.1088 64.9708 17.1088C64.3551 17.1088 63.8981 16.9409 63.5996 16.6051C63.3011 16.2693 63.0586 15.9055 62.872 15.5137C62.6855 15.1033 62.4989 14.7302 62.3124 14.3944C62.1258 14.0586 61.818 13.8907 61.3889 13.8907C61.165 13.8907 60.9505 13.956 60.7453 14.0866C60.5587 14.2172 60.3815 14.3851 60.2136 14.5903C60.0457 14.7768 59.8965 14.9727 59.7659 15.1779C59.6539 15.3645 59.5607 15.5324 59.486 15.6816V23.517C59.486 23.8528 59.5233 24.1886 59.598 24.5244C59.6726 24.8602 59.7659 25.168 59.8778 25.4478C60.0084 25.709 60.1483 25.9236 60.2976 26.0915C60.4655 26.2407 60.6334 26.3153 60.8013 26.3153V26.5952H53.4136V26.3153ZM70.6333 33.2832C69.9243 33.2832 69.3274 33.1619 68.8423 32.9194C68.3573 32.6769 67.9748 32.3691 67.695 31.9959C67.4338 31.6415 67.2659 31.2497 67.1913 30.8206C67.1353 30.4102 67.1726 30.0185 67.3032 29.6453C67.4338 29.2909 67.6577 28.9924 67.9748 28.7499C68.292 28.5074 68.7024 28.3861 69.2061 28.3861C69.6725 28.3861 70.0363 28.4607 70.2975 28.61C70.5586 28.7592 70.7638 28.9364 70.9131 29.1416C71.081 29.3655 71.2116 29.5987 71.3049 29.8412C71.3981 30.1024 71.5007 30.3356 71.6127 30.5408C71.7246 30.7647 71.8552 30.9512 72.0044 31.1005C72.1723 31.2497 72.4149 31.3243 72.732 31.3243C73.0492 31.3243 73.357 31.2031 73.6555 30.9606C73.9726 30.718 74.2618 30.2983 74.5229 29.7013L69.2061 15.122C68.9076 14.3011 68.5532 13.6388 68.1427 13.1351C67.7323 12.6128 67.3499 12.3516 66.9954 12.3516V12.0718H74.8308V12.3516C74.495 12.3516 74.2711 12.6128 74.1592 13.1351C74.0472 13.6388 74.1405 14.3011 74.439 15.122L77.1814 22.6775L80.0357 15.038C80.1849 14.6463 80.2409 14.2918 80.2036 13.9746C80.1849 13.6388 80.1103 13.359 79.9797 13.1351C79.8678 12.8926 79.7185 12.7061 79.532 12.5755C79.3641 12.4262 79.1962 12.3516 79.0283 12.3516V12.0718H83.4496V12.3516C83.2817 12.3516 83.0672 12.4262 82.806 12.5755C82.5448 12.7061 82.2837 12.8926 82.0225 13.1351C81.7613 13.359 81.5095 13.6388 81.2669 13.9746C81.0431 14.2918 80.8565 14.6463 80.7073 15.038L75.4744 29.1416C74.952 30.5595 74.2898 31.6042 73.4876 32.2758C72.704 32.9474 71.7526 33.2832 70.6333 33.2832ZM91.7268 26.2873C92.0813 26.2873 92.3891 26.0448 92.6503 25.5598C92.9114 25.0747 93.042 24.3845 93.042 23.489V9.10554C93.042 8.26604 92.9114 7.63175 92.6503 7.20267C92.3891 6.77359 92.0813 6.55905 91.7268 6.55905V6.27922H99.2823C101.801 6.27922 103.75 6.69897 105.131 7.53847C106.511 8.37797 107.202 9.54395 107.202 11.0364C107.202 12.1184 106.884 13.0325 106.25 13.7788C105.616 14.5063 104.776 14.9727 103.732 15.1779C104.403 15.3085 105.038 15.5417 105.635 15.8775C106.232 16.2133 106.754 16.6237 107.202 17.1088C107.649 17.5938 107.994 18.1442 108.237 18.7598C108.498 19.3568 108.629 19.9817 108.629 20.6347C108.629 22.6868 107.985 24.1979 106.698 25.168C105.411 26.1194 103.489 26.5952 100.933 26.5952H91.7268V26.2873ZM98.107 15.3738C99.3943 15.3738 100.383 15.0287 101.073 14.3384C101.764 13.6295 102.109 12.6314 102.109 11.3442C102.109 10.001 101.754 8.96563 101.045 8.23806C100.355 7.49183 99.3849 7.11872 98.135 7.11872H98.079V15.3738H98.107ZM98.5268 25.7557C101.866 25.7557 103.536 24.1513 103.536 20.9425C103.536 17.7897 101.81 16.2133 98.3589 16.2133H98.079V25.7557H98.5268ZM122.503 24.2725C122.503 24.5897 122.549 24.8415 122.643 25.0281C122.754 25.196 122.922 25.2799 123.146 25.2799C123.295 25.2799 123.426 25.2426 123.538 25.168C123.669 25.0934 123.79 24.9348 123.902 24.6923H124.182C124.182 25.3266 123.892 25.8489 123.314 26.2594C122.754 26.6698 122.046 26.875 121.187 26.875C119.415 26.875 118.324 26.3433 117.913 25.2799C117.484 25.8396 116.943 26.25 116.29 26.5112C115.656 26.7537 114.947 26.875 114.164 26.875C113.529 26.875 112.923 26.7724 112.345 26.5672C111.785 26.362 111.291 26.0635 110.862 25.6717C110.432 25.2613 110.087 24.7762 109.826 24.2166C109.584 23.6382 109.462 22.9853 109.462 22.2577C109.462 21.213 109.668 20.3362 110.078 19.6273C110.488 18.9184 111.001 18.3494 111.617 17.9203C112.233 17.4912 112.895 17.1834 113.604 16.9969C114.331 16.8103 115.003 16.717 115.619 16.717C116.01 16.717 116.337 16.745 116.598 16.801C116.878 16.8383 117.102 16.8849 117.27 16.9409C117.456 17.0155 117.615 17.0901 117.745 17.1648V15.15C117.745 14.3478 117.606 13.7041 117.326 13.2191C117.065 12.7341 116.719 12.4915 116.29 12.4915C115.563 12.4915 115.199 13.2284 115.199 14.7022C115.199 15.3179 114.956 15.8309 114.471 16.2413C113.986 16.6517 113.324 16.8569 112.485 16.8569C111.832 16.8569 111.328 16.689 110.973 16.3532C110.619 16.0174 110.442 15.5697 110.442 15.01C110.442 14.5063 110.582 14.0586 110.862 13.6668C111.16 13.2564 111.561 12.9113 112.065 12.6314C112.569 12.3516 113.156 12.1464 113.828 12.0158C114.518 11.8666 115.255 11.7919 116.038 11.7919C117.102 11.7919 118.035 11.9505 118.837 12.2677C119.639 12.5848 120.311 13.0419 120.852 13.6388C121.411 14.2172 121.822 14.9261 122.083 15.7656C122.363 16.5864 122.503 17.5099 122.503 18.5359V24.2725ZM117.745 18.9837C117.745 18.6665 117.652 18.368 117.466 18.0882C117.298 17.8084 117.009 17.6685 116.598 17.6685C115.945 17.6685 115.414 18.0789 115.003 18.8997C114.593 19.7019 114.387 20.8586 114.387 22.3697C114.387 23.3024 114.555 24.0207 114.891 24.5244C115.227 25.0281 115.628 25.2799 116.094 25.2799C116.747 25.2799 117.298 24.9908 117.745 24.4125V18.9837ZM135.165 16.3812C135.165 14.7022 134.362 13.8627 132.758 13.8627C132.273 13.8627 131.788 14.0026 131.303 14.2825C130.837 14.5623 130.445 14.9447 130.128 15.4298V23.517C130.128 23.8528 130.165 24.1886 130.24 24.5244C130.314 24.8602 130.407 25.168 130.519 25.4478C130.65 25.709 130.79 25.9236 130.939 26.0915C131.107 26.2407 131.275 26.3153 131.443 26.3153V26.5952H124.055V26.3153C124.223 26.3153 124.382 26.2407 124.531 26.0915C124.699 25.9236 124.839 25.7183 124.951 25.4758C125.081 25.2146 125.184 24.9255 125.259 24.6083C125.333 24.2725 125.37 23.9461 125.37 23.6289V16.2413C125.37 15.8868 125.333 15.551 125.259 15.2339C125.184 14.8981 125.081 14.6089 124.951 14.3664C124.839 14.1052 124.699 13.9 124.531 13.7508C124.382 13.5829 124.223 13.4989 124.055 13.4989V13.2191C124.578 13.1818 125.1 13.1351 125.622 13.0792C126.145 13.0046 126.658 12.9206 127.161 12.8273C127.665 12.7341 128.141 12.6314 128.589 12.5195C129.036 12.3889 129.437 12.2397 129.792 12.0718H130.128V14.1705C130.669 13.5176 131.378 12.9579 132.254 12.4915C133.15 12.0251 134.129 11.7919 135.193 11.7919C136.722 11.7919 137.888 12.249 138.691 13.1631C139.511 14.0773 139.922 15.4018 139.922 17.1368V23.517C139.922 23.8528 139.959 24.1886 140.034 24.5244C140.108 24.8602 140.202 25.168 140.314 25.4478C140.444 25.709 140.584 25.9236 140.733 26.0915C140.901 26.2407 141.069 26.3153 141.237 26.3153V26.5952H133.849V26.3153C134.017 26.3153 134.176 26.2407 134.325 26.0915C134.493 25.9236 134.633 25.7183 134.745 25.4758C134.876 25.2146 134.978 24.9255 135.053 24.6083C135.127 24.2725 135.165 23.9461 135.165 23.6289V16.3812ZM154.011 24.2725C154.011 24.5897 154.058 24.8415 154.151 25.0281C154.263 25.196 154.431 25.2799 154.655 25.2799C154.804 25.2799 154.935 25.2426 155.047 25.168C155.177 25.0934 155.299 24.9348 155.41 24.6923H155.69C155.69 25.3266 155.401 25.8489 154.823 26.2594C154.263 26.6698 153.554 26.875 152.696 26.875C150.924 26.875 149.832 26.3433 149.422 25.2799C148.993 25.8396 148.452 26.25 147.799 26.5112C147.165 26.7537 146.456 26.875 145.672 26.875C145.038 26.875 144.432 26.7724 143.853 26.5672C143.294 26.362 142.799 26.0635 142.37 25.6717C141.941 25.2613 141.596 24.7762 141.335 24.2166C141.092 23.6382 140.971 22.9853 140.971 22.2577C140.971 21.213 141.176 20.3362 141.587 19.6273C141.997 18.9184 142.51 18.3494 143.126 17.9203C143.741 17.4912 144.404 17.1834 145.113 16.9969C145.84 16.8103 146.512 16.717 147.127 16.717C147.519 16.717 147.846 16.745 148.107 16.801C148.387 16.8383 148.61 16.8849 148.778 16.9409C148.965 17.0155 149.124 17.0901 149.254 17.1648V15.15C149.254 14.3478 149.114 13.7041 148.834 13.2191C148.573 12.7341 148.228 12.4915 147.799 12.4915C147.071 12.4915 146.708 13.2284 146.708 14.7022C146.708 15.3179 146.465 15.8309 145.98 16.2413C145.495 16.6517 144.833 16.8569 143.993 16.8569C143.34 16.8569 142.837 16.689 142.482 16.3532C142.128 16.0174 141.95 15.5697 141.95 15.01C141.95 14.5063 142.09 14.0586 142.37 13.6668C142.669 13.2564 143.07 12.9113 143.573 12.6314C144.077 12.3516 144.665 12.1464 145.336 12.0158C146.027 11.8666 146.764 11.7919 147.547 11.7919C148.61 11.7919 149.543 11.9505 150.345 12.2677C151.148 12.5848 151.819 13.0419 152.36 13.6388C152.92 14.2172 153.33 14.9261 153.592 15.7656C153.871 16.5864 154.011 17.5099 154.011 18.5359V24.2725ZM149.254 18.9837C149.254 18.6665 149.161 18.368 148.974 18.0882C148.806 17.8084 148.517 17.6685 148.107 17.6685C147.454 17.6685 146.922 18.0789 146.512 18.8997C146.101 19.7019 145.896 20.8586 145.896 22.3697C145.896 23.3024 146.064 24.0207 146.4 24.5244C146.736 25.0281 147.137 25.2799 147.603 25.2799C148.256 25.2799 148.806 24.9908 149.254 24.4125V18.9837ZM166.673 16.3812C166.673 14.7022 165.871 13.8627 164.267 13.8627C163.782 13.8627 163.297 14.0026 162.812 14.2825C162.345 14.5623 161.953 14.9447 161.636 15.4298V23.517C161.636 23.8528 161.674 24.1886 161.748 24.5244C161.823 24.8602 161.916 25.168 162.028 25.4478C162.159 25.709 162.299 25.9236 162.448 26.0915C162.616 26.2407 162.784 26.3153 162.952 26.3153V26.5952H155.564V26.3153C155.732 26.3153 155.89 26.2407 156.04 26.0915C156.208 25.9236 156.347 25.7183 156.459 25.4758C156.59 25.2146 156.693 24.9255 156.767 24.6083C156.842 24.2725 156.879 23.9461 156.879 23.6289V16.2413C156.879 15.8868 156.842 15.551 156.767 15.2339C156.693 14.8981 156.59 14.6089 156.459 14.3664C156.347 14.1052 156.208 13.9 156.04 13.7508C155.89 13.5829 155.732 13.4989 155.564 13.4989V13.2191C156.086 13.1818 156.609 13.1351 157.131 13.0792C157.653 13.0046 158.166 12.9206 158.67 12.8273C159.174 12.7341 159.649 12.6314 160.097 12.5195C160.545 12.3889 160.946 12.2397 161.301 12.0718H161.636V14.1705C162.177 13.5176 162.886 12.9579 163.763 12.4915C164.659 12.0251 165.638 11.7919 166.701 11.7919C168.231 11.7919 169.397 12.249 170.199 13.1631C171.02 14.0773 171.43 15.4018 171.43 17.1368V23.517C171.43 23.8528 171.468 24.1886 171.542 24.5244C171.617 24.8602 171.71 25.168 171.822 25.4478C171.953 25.709 172.093 25.9236 172.242 26.0915C172.41 26.2407 172.578 26.3153 172.746 26.3153V26.5952H165.358V26.3153C165.526 26.3153 165.685 26.2407 165.834 26.0915C166.002 25.9236 166.142 25.7183 166.254 25.4758C166.384 25.2146 166.487 24.9255 166.561 24.6083C166.636 24.2725 166.673 23.9461 166.673 23.6289V16.3812ZM185.52 24.2725C185.52 24.5897 185.567 24.8415 185.66 25.0281C185.772 25.196 185.94 25.2799 186.164 25.2799C186.313 25.2799 186.443 25.2426 186.555 25.168C186.686 25.0934 186.807 24.9348 186.919 24.6923H187.199C187.199 25.3266 186.91 25.8489 186.331 26.2594C185.772 26.6698 185.063 26.875 184.205 26.875C182.432 26.875 181.341 26.3433 180.931 25.2799C180.502 25.8396 179.961 26.25 179.308 26.5112C178.673 26.7537 177.964 26.875 177.181 26.875C176.547 26.875 175.94 26.7724 175.362 26.5672C174.802 26.362 174.308 26.0635 173.879 25.6717C173.45 25.2613 173.105 24.7762 172.843 24.2166C172.601 23.6382 172.48 22.9853 172.48 22.2577C172.48 21.213 172.685 20.3362 173.095 19.6273C173.506 18.9184 174.019 18.3494 174.634 17.9203C175.25 17.4912 175.912 17.1834 176.621 16.9969C177.349 16.8103 178.02 16.717 178.636 16.717C179.028 16.717 179.354 16.745 179.615 16.801C179.895 16.8383 180.119 16.8849 180.287 16.9409C180.474 17.0155 180.632 17.0901 180.763 17.1648V15.15C180.763 14.3478 180.623 13.7041 180.343 13.2191C180.082 12.7341 179.737 12.4915 179.308 12.4915C178.58 12.4915 178.216 13.2284 178.216 14.7022C178.216 15.3179 177.974 15.8309 177.489 16.2413C177.004 16.6517 176.341 16.8569 175.502 16.8569C174.849 16.8569 174.345 16.689 173.991 16.3532C173.636 16.0174 173.459 15.5697 173.459 15.01C173.459 14.5063 173.599 14.0586 173.879 13.6668C174.177 13.2564 174.578 12.9113 175.082 12.6314C175.586 12.3516 176.173 12.1464 176.845 12.0158C177.535 11.8666 178.272 11.7919 179.056 11.7919C180.119 11.7919 181.052 11.9505 181.854 12.2677C182.656 12.5848 183.328 13.0419 183.869 13.6388C184.429 14.2172 184.839 14.9261 185.1 15.7656C185.38 16.5864 185.52 17.5099 185.52 18.5359V24.2725ZM180.763 18.9837C180.763 18.6665 180.669 18.368 180.483 18.0882C180.315 17.8084 180.026 17.6685 179.615 17.6685C178.962 17.6685 178.431 18.0789 178.02 18.8997C177.61 19.7019 177.405 20.8586 177.405 22.3697C177.405 23.3024 177.573 24.0207 177.908 24.5244C178.244 25.0281 178.645 25.2799 179.112 25.2799C179.765 25.2799 180.315 24.9908 180.763 24.4125V18.9837ZM68.4574 56.2873C68.8119 56.2873 69.1197 56.0448 69.3809 55.5598C69.6421 55.0747 69.7727 54.3845 69.7727 53.489V39.1055C69.7727 38.266 69.6421 37.6318 69.3809 37.2027C69.1197 36.7736 68.8119 36.5591 68.4574 36.5591V36.2792H76.013C78.5315 36.2792 80.481 36.699 81.8615 37.5385C83.242 38.378 83.9322 39.5439 83.9322 41.0364C83.9322 42.1184 83.6151 43.0325 82.9808 43.7788C82.3465 44.5063 81.507 44.9727 80.4623 45.1779C81.1339 45.3085 81.7682 45.5417 82.3652 45.8775C82.9622 46.2133 83.4845 46.6237 83.9322 47.1088C84.38 47.5938 84.7251 48.1442 84.9676 48.7598C85.2288 49.3568 85.3594 49.9817 85.3594 50.6347C85.3594 52.6868 84.7158 54.1979 83.4285 55.168C82.1413 56.1194 80.2198 56.5952 77.664 56.5952H68.4574V56.2873ZM74.8377 45.3738C76.1249 45.3738 77.1136 45.0287 77.8039 44.3384C78.4941 43.6295 78.8393 42.6314 78.8393 41.3442C78.8393 40.001 78.4848 38.9656 77.7759 38.2381C77.0856 37.4918 76.1156 37.1187 74.8656 37.1187H74.8097V45.3738H74.8377ZM75.2574 55.7557C78.5968 55.7557 80.2664 54.1513 80.2664 50.9425C80.2664 47.7897 78.5408 46.2133 75.0895 46.2133H74.8097V55.7557H75.2574ZM91.4182 53.517C91.4182 53.8528 91.4556 54.1886 91.5302 54.5244C91.6048 54.8602 91.6981 55.168 91.81 55.4478C91.9406 55.709 92.0805 55.9236 92.2298 56.0915C92.3977 56.2407 92.5656 56.3153 92.7335 56.3153V56.5952H85.3458V56.3153C85.5137 56.3153 85.6723 56.2407 85.8216 56.0915C85.9895 55.9236 86.1294 55.7183 86.2413 55.4758C86.3719 55.2146 86.4745 54.9255 86.5491 54.6083C86.6238 54.2725 86.6611 53.9461 86.6611 53.6289V39.3014C86.6611 38.947 86.6238 38.6112 86.5491 38.294C86.4745 37.9582 86.3719 37.6691 86.2413 37.4265C86.1294 37.1654 85.9895 36.9601 85.8216 36.8109C85.6723 36.643 85.5137 36.5591 85.3458 36.5591V36.2792C85.8682 36.2419 86.3906 36.1953 86.9129 36.1393C87.4353 36.0647 87.9483 35.9807 88.452 35.8875C88.9557 35.7942 89.4314 35.6916 89.8792 35.5796C90.3269 35.449 90.728 35.2998 91.0824 35.1319H91.4182V53.517ZM96.8735 40.8965C96.1832 40.8965 95.5956 40.6726 95.1105 40.2249C94.6441 39.7771 94.4109 39.2268 94.4109 38.5739C94.4109 37.9209 94.6441 37.3706 95.1105 36.9228C95.5956 36.4751 96.1832 36.2512 96.8735 36.2512C97.5637 36.2512 98.1421 36.4751 98.6084 36.9228C99.0935 37.3706 99.336 37.9209 99.336 38.5739C99.336 39.2268 99.0935 39.7771 98.6084 40.2249C98.1421 40.6726 97.5637 40.8965 96.8735 40.8965ZM93.5714 56.3153C93.7393 56.3153 93.8979 56.2407 94.0471 56.0915C94.215 55.9236 94.355 55.7183 94.4669 55.4758C94.5975 55.2146 94.7001 54.9255 94.7747 54.6083C94.8493 54.2725 94.8867 53.9461 94.8867 53.6289V46.2413C94.8867 45.8868 94.8493 45.551 94.7747 45.2339C94.7001 44.8981 94.5975 44.6089 94.4669 44.3664C94.355 44.1052 94.215 43.9 94.0471 43.7508C93.8979 43.5829 93.7393 43.4989 93.5714 43.4989V43.2191C94.0938 43.1818 94.6161 43.1351 95.1385 43.0792C95.6609 43.0046 96.1739 42.9206 96.6776 42.8273C97.1813 42.7341 97.657 42.6314 98.1047 42.5195C98.5525 42.3889 98.9536 42.2397 99.308 42.0718H99.6438V53.517C99.6438 53.8528 99.6811 54.1886 99.7558 54.5244C99.8304 54.8602 99.9237 55.168 100.036 55.4478C100.166 55.709 100.306 55.9236 100.455 56.0915C100.623 56.2407 100.791 56.3153 100.959 56.3153V56.5952H93.5714V56.3153ZM106.945 42.4915C106.609 42.4915 106.311 42.6221 106.049 42.8833C105.788 43.1445 105.658 43.5176 105.658 44.0026C105.658 44.6183 105.844 45.1593 106.217 45.6257C106.59 46.0921 107.057 46.5211 107.616 46.9129C108.176 47.286 108.782 47.6591 109.435 48.0322C110.088 48.3867 110.695 48.7785 111.254 49.2075C111.814 49.618 112.28 50.0937 112.653 50.6347C113.027 51.1571 113.213 51.7727 113.213 52.4816C113.213 53.1159 113.055 53.7035 112.737 54.2445C112.439 54.7856 112.01 55.252 111.45 55.6437C110.891 56.0355 110.228 56.3433 109.463 56.5672C108.717 56.7724 107.896 56.875 107.001 56.875C106.105 56.875 105.275 56.8004 104.51 56.6511C103.745 56.5205 103.074 56.3153 102.495 56.0355C101.936 55.737 101.488 55.3639 101.152 54.9162C100.835 54.4684 100.677 53.9461 100.677 53.3491C100.677 52.7148 100.882 52.1645 101.292 51.6981C101.721 51.2317 102.262 50.9985 102.915 50.9985C103.456 50.9985 103.876 51.1291 104.175 51.3902C104.473 51.6328 104.697 51.9499 104.846 52.3417C105.014 52.7334 105.135 53.1532 105.21 53.6009C105.303 54.03 105.406 54.4404 105.518 54.8322C105.648 55.224 105.816 55.5504 106.021 55.8116C106.245 56.0541 106.572 56.1754 107.001 56.1754C107.449 56.1754 107.794 56.0728 108.036 55.8676C108.297 55.6624 108.428 55.3452 108.428 54.9162C108.428 54.3192 108.241 53.7968 107.868 53.3491C107.495 52.8827 107.019 52.4443 106.441 52.0339C105.881 51.6234 105.275 51.2223 104.622 50.8306C103.969 50.4388 103.354 50.0097 102.775 49.5433C102.216 49.077 101.749 48.5639 101.376 48.0043C101.003 47.4259 100.816 46.7637 100.816 46.0174C100.816 45.4391 100.966 44.8981 101.264 44.3944C101.581 43.872 102.01 43.4243 102.551 43.0512C103.092 42.6594 103.727 42.3516 104.454 42.1277C105.201 41.9039 106.003 41.7919 106.861 41.7919C108.838 41.7919 110.359 42.1371 111.422 42.8273C112.504 43.4989 113.045 44.3757 113.045 45.4578C113.045 46.0547 112.849 46.5305 112.458 46.8849C112.066 47.2394 111.543 47.4166 110.891 47.4166C110.368 47.4166 109.948 47.2953 109.631 47.0528C109.333 46.8103 109.081 46.5118 108.876 46.1574C108.689 45.7842 108.54 45.3831 108.428 44.9541C108.335 44.525 108.223 44.1332 108.092 43.7788C107.98 43.4057 107.84 43.0978 107.672 42.8553C107.505 42.6128 107.262 42.4915 106.945 42.4915ZM120.062 42.4915C119.726 42.4915 119.428 42.6221 119.167 42.8833C118.905 43.1445 118.775 43.5176 118.775 44.0026C118.775 44.6183 118.961 45.1593 119.334 45.6257C119.708 46.0921 120.174 46.5211 120.734 46.9129C121.293 47.286 121.9 47.6591 122.553 48.0322C123.206 48.3867 123.812 48.7785 124.372 49.2075C124.931 49.618 125.398 50.0937 125.771 50.6347C126.144 51.1571 126.33 51.7727 126.33 52.4816C126.33 53.1159 126.172 53.7035 125.855 54.2445C125.556 54.7856 125.127 55.252 124.567 55.6437C124.008 56.0355 123.345 56.3433 122.581 56.5672C121.834 56.7724 121.014 56.875 120.118 56.875C119.223 56.875 118.392 56.8004 117.628 56.6511C116.863 56.5205 116.191 56.3153 115.613 56.0355C115.053 55.737 114.605 55.3639 114.27 54.9162C113.952 54.4684 113.794 53.9461 113.794 53.3491C113.794 52.7148 113.999 52.1645 114.409 51.6981C114.839 51.2317 115.38 50.9985 116.032 50.9985C116.573 50.9985 116.993 51.1291 117.292 51.3902C117.59 51.6328 117.814 51.9499 117.963 52.3417C118.131 52.7334 118.252 53.1532 118.327 53.6009C118.42 54.03 118.523 54.4404 118.635 54.8322C118.766 55.224 118.933 55.5504 119.139 55.8116C119.362 56.0541 119.689 56.1754 120.118 56.1754C120.566 56.1754 120.911 56.0728 121.153 55.8676C121.415 55.6624 121.545 55.3452 121.545 54.9162C121.545 54.3192 121.359 53.7968 120.986 53.3491C120.612 52.8827 120.137 52.4443 119.558 52.0339C118.999 51.6234 118.392 51.2223 117.739 50.8306C117.087 50.4388 116.471 50.0097 115.893 49.5433C115.333 49.077 114.866 48.5639 114.493 48.0043C114.12 47.4259 113.934 46.7637 113.934 46.0174C113.934 45.4391 114.083 44.8981 114.381 44.3944C114.699 43.872 115.128 43.4243 115.669 43.0512C116.21 42.6594 116.844 42.3516 117.572 42.1277C118.318 41.9039 119.12 41.7919 119.978 41.7919C121.956 41.7919 123.476 42.1371 124.539 42.8273C125.621 43.4989 126.162 44.3757 126.162 45.4578C126.162 46.0547 125.967 46.5305 125.575 46.8849C125.183 47.2394 124.661 47.4166 124.008 47.4166C123.485 47.4166 123.066 47.2953 122.748 47.0528C122.45 46.8103 122.198 46.5118 121.993 46.1574C121.806 45.7842 121.657 45.3831 121.545 44.9541C121.452 44.525 121.34 44.1332 121.209 43.7788C121.097 43.4057 120.958 43.0978 120.79 42.8553C120.622 42.6128 120.379 42.4915 120.062 42.4915Z" fill="white"/>
</g>
<defs>
<filter id="filter0_d_424_751" x="0.351437" y="0.0640835" width="194.081" height="65.0638" filterUnits="userSpaceOnUse" color-interpolation-filters="sRGB">
<feFlood flood-opacity="0" result="BackgroundImageFix"/>
<feColorMatrix in="SourceAlpha" type="matrix" values="0 0 0 0 0 0 0 0 0 0 0 0 0 0 0 0 0 0 127 0" result="hardAlpha"/>
<feOffset dy="1.01888"/>
<feGaussianBlur stdDeviation="3.61701"/>
<feComposite in2="hardAlpha" operator="out"/>
<feColorMatrix type="matrix" values="0 0 0 0 0 0 0 0 0 0 0 0 0 0 0 0 0 0 0.25 0"/>
<feBlend mode="normal" in2="BackgroundImageFix" result="effect1_dropShadow_424_751"/>
<feBlend mode="normal" in="SourceGraphic" in2="effect1_dropShadow_424_751" result="shape"/>
</filter>
</defs>
</svg>
