<svg width="569" height="166" viewBox="0 0 569 166" fill="none" xmlns="http://www.w3.org/2000/svg">
<g filter="url(#filter0_d_104_150)">
<path d="M15.3444 16.6101C14.595 14.2619 13.6207 12.4633 12.4217 11.2142C11.2725 9.96518 10.2983 9.34065 9.49886 9.34065V8.59122H32.4315V9.34065C30.8827 9.34065 29.8584 9.99016 29.3588 11.2892C28.8592 12.5382 29.0341 14.4118 29.8834 16.9099L40.0008 47.8615L47.0454 26.3528L43.9727 16.6101C43.2233 14.2619 42.2491 12.4633 41.05 11.2142C39.9008 9.96518 38.9266 9.34065 38.1272 9.34065V8.59122H61.0598V9.34065C59.511 9.34065 58.4868 9.99016 57.9871 11.2892C57.4875 12.5382 57.6624 14.4118 58.5117 16.9099L68.6291 47.8615L79.0462 16.0855C79.8456 13.6374 79.9455 11.9137 79.3459 10.9145C78.7464 9.86525 77.6722 9.34065 76.1234 9.34065V8.59122H88.7888V9.34065C87.3399 9.34065 85.941 9.99016 84.592 11.2892C83.243 12.5382 82.2188 14.212 81.5193 16.3104L66.7555 63H58.5867L48.3944 30.6245L38.1272 63H29.9584L15.3444 16.6101ZM122.298 35.6457C122.298 31.1491 120.149 28.9008 115.853 28.9008C114.554 28.9008 113.255 29.2755 111.956 30.025C110.707 30.7744 109.657 31.7986 108.808 33.0977V54.7562C108.808 55.6556 108.908 56.5549 109.108 57.4542C109.308 58.3535 109.557 59.1779 109.857 59.9273C110.207 60.6268 110.582 61.2014 110.981 61.651C111.431 62.0507 111.881 62.2506 112.33 62.2506V63H92.5453V62.2506C92.995 62.2506 93.4197 62.0507 93.8194 61.651C94.269 61.2014 94.6437 60.6518 94.9435 60.0023C95.2932 59.3028 95.568 58.5284 95.7679 57.679C95.9677 56.7797 96.0677 55.9054 96.0677 55.056V16.6851C96.0677 15.7358 95.9677 14.8365 95.7679 13.9871C95.568 13.0878 95.2932 12.3134 94.9435 11.6639C94.6437 10.9644 94.269 10.4148 93.8194 10.0151C93.4197 9.56548 92.995 9.34065 92.5453 9.34065V8.59122C93.9443 8.49129 95.3432 8.36639 96.7421 8.2165C98.1411 8.01666 99.515 7.79183 100.864 7.54201C102.213 7.2922 103.487 7.01741 104.686 6.71764C105.885 6.3679 106.959 5.96821 107.909 5.51855H108.808V29.7252C110.257 27.9765 112.155 26.4777 114.504 25.2286C116.902 23.9796 119.525 23.355 122.373 23.355C126.47 23.355 129.592 24.5791 131.741 27.0273C133.939 29.4754 135.038 33.0227 135.038 37.6692V54.7562C135.038 55.6556 135.138 56.5549 135.338 57.4542C135.538 58.3535 135.788 59.1779 136.087 59.9273C136.437 60.6268 136.812 61.2014 137.211 61.651C137.661 62.0507 138.111 62.2506 138.56 62.2506V63H118.775V62.2506C119.225 62.2506 119.65 62.0507 120.049 61.651C120.499 61.2014 120.874 60.6518 121.174 60.0023C121.523 59.3028 121.798 58.5284 121.998 57.679C122.198 56.7797 122.298 55.9054 122.298 55.056V35.6457ZM145.301 80.9114C143.403 80.9114 141.804 80.5867 140.505 79.9372C139.206 79.2877 138.182 78.4633 137.432 77.464C136.733 76.5148 136.283 75.4656 136.083 74.3164C135.933 73.2173 136.033 72.1681 136.383 71.1688C136.733 70.2195 137.332 69.4201 138.182 68.7706C139.031 68.1211 140.13 67.7964 141.479 67.7964C142.728 67.7964 143.702 67.9962 144.402 68.3959C145.101 68.7956 145.651 69.2703 146.051 69.8198C146.5 70.4194 146.85 71.0439 147.1 71.6934C147.35 72.3929 147.624 73.0174 147.924 73.567C148.224 74.1665 148.574 74.6662 148.973 75.0659C149.423 75.4656 150.073 75.6654 150.922 75.6654C151.771 75.6654 152.596 75.3407 153.395 74.6911C154.244 74.0416 155.019 72.9175 155.718 71.3187L141.479 32.2733C140.68 30.0749 139.73 28.3013 138.631 26.9523C137.532 25.5534 136.508 24.8539 135.559 24.8539V24.1045H156.543V24.8539C155.643 24.8539 155.044 25.5534 154.744 26.9523C154.444 28.3013 154.694 30.0749 155.494 32.2733L162.838 52.5079L170.482 32.0484C170.882 30.9992 171.032 30.05 170.932 29.2006C170.882 28.3013 170.682 27.5519 170.332 26.9523C170.033 26.3028 169.633 25.8032 169.133 25.4534C168.684 25.0537 168.234 24.8539 167.784 24.8539V24.1045H179.625V24.8539C179.176 24.8539 178.601 25.0537 177.902 25.4534C177.202 25.8032 176.503 26.3028 175.803 26.9523C175.104 27.5519 174.429 28.3013 173.78 29.2006C173.18 30.05 172.681 30.9992 172.281 32.0484L158.266 69.8198C156.867 73.617 155.094 76.4148 152.945 78.2135C150.847 80.0121 148.299 80.9114 145.301 80.9114ZM233.269 7.76684C236.267 7.76684 238.989 8.11658 241.438 8.81605C243.886 9.51552 245.959 10.4648 247.658 11.6639C249.407 12.863 250.731 14.2619 251.63 15.8607C252.579 17.4095 253.029 19.0583 252.979 20.807C252.929 22.8554 252.304 24.6291 251.105 26.1279C249.906 27.5768 248.257 28.3013 246.159 28.3013C243.761 28.3013 242.037 27.6768 240.988 26.4277C239.939 25.1287 239.439 23.455 239.489 21.4065C239.489 20.3073 239.514 19.1083 239.564 17.8092C239.614 16.4603 239.464 15.2112 239.114 14.0621C238.765 12.9129 238.115 11.9637 237.166 11.2142C236.267 10.4148 234.868 10.0151 232.969 10.0151C231.27 10.0151 229.622 10.4648 228.023 11.3641C226.474 12.2135 225.1 13.5375 223.901 15.3361C222.702 17.1347 221.728 19.433 220.978 22.2309C220.279 24.9788 219.929 28.2763 219.929 32.1234C219.929 35.5708 220.304 38.6684 221.053 41.4164C221.852 44.1643 222.977 46.5125 224.426 48.461C225.874 50.3596 227.623 51.8335 229.672 52.8827C231.72 53.9319 234.018 54.4565 236.566 54.4565C240.863 54.4565 244.385 53.2324 247.133 50.7843C249.881 48.2861 251.48 44.9137 251.93 40.6669H252.679C252.929 44.0643 252.579 47.187 251.63 50.0348C250.681 52.8827 249.232 55.3308 247.283 57.3793C245.385 59.3777 243.061 60.9516 240.313 62.1007C237.566 63.1998 234.468 63.7494 231.021 63.7494C227.273 63.7494 223.876 63.0999 220.828 61.8009C217.781 60.4519 215.183 58.5534 213.034 56.1052C210.886 53.6571 209.212 50.7343 208.013 47.3369C206.864 43.8895 206.289 40.0424 206.289 35.7956C206.289 31.349 206.964 27.402 208.313 23.9546C209.712 20.4572 211.61 17.5095 214.008 15.1113C216.457 12.7131 219.329 10.8895 222.627 9.64042C225.924 8.39137 229.472 7.76684 233.269 7.76684ZM284.324 35.6457C284.324 31.1491 282.176 28.9008 277.879 28.9008C276.58 28.9008 275.281 29.2755 273.982 30.025C272.733 30.7744 271.684 31.7986 270.835 33.0977V54.7562C270.835 55.6556 270.935 56.5549 271.134 57.4542C271.334 58.3535 271.584 59.1779 271.884 59.9273C272.234 60.6268 272.608 61.2014 273.008 61.651C273.458 62.0507 273.907 62.2506 274.357 62.2506V63H254.572V62.2506C255.022 62.2506 255.446 62.0507 255.846 61.651C256.296 61.2014 256.67 60.6518 256.97 60.0023C257.32 59.3028 257.595 58.5284 257.795 57.679C257.994 56.7797 258.094 55.9054 258.094 55.056V16.6851C258.094 15.7358 257.994 14.8365 257.795 13.9871C257.595 13.0878 257.32 12.3134 256.97 11.6639C256.67 10.9644 256.296 10.4148 255.846 10.0151C255.446 9.56548 255.022 9.34065 254.572 9.34065V8.59122C255.971 8.49129 257.37 8.36639 258.769 8.2165C260.168 8.01666 261.542 7.79183 262.891 7.54201C264.24 7.2922 265.514 7.01741 266.713 6.71764C267.912 6.3679 268.986 5.96821 269.935 5.51855H270.835V29.7252C272.284 27.9765 274.182 26.4777 276.53 25.2286C278.929 23.9796 281.552 23.355 284.399 23.355C288.496 23.355 291.619 24.5791 293.767 27.0273C295.966 29.4754 297.065 33.0227 297.065 37.6692V54.7562C297.065 55.6556 297.165 56.5549 297.365 57.4542C297.564 58.3535 297.814 59.1779 298.114 59.9273C298.464 60.6268 298.838 61.2014 299.238 61.651C299.688 62.0507 300.137 62.2506 300.587 62.2506V63H280.802V62.2506C281.252 62.2506 281.676 62.0507 282.076 61.651C282.526 61.2014 282.901 60.6518 283.2 60.0023C283.55 59.3028 283.825 58.5284 284.025 57.679C284.225 56.7797 284.324 55.9054 284.324 55.056V35.6457ZM302.489 43.5897C302.489 40.6919 303.013 38.0189 304.063 35.5708C305.162 33.0727 306.636 30.9243 308.484 29.1257C310.383 27.327 312.606 25.9281 315.154 24.9288C317.752 23.8796 320.525 23.355 323.473 23.355C326.421 23.355 329.144 23.8796 331.642 24.9288C334.19 25.9281 336.388 27.327 338.237 29.1257C340.085 30.9243 341.534 33.0727 342.583 35.5708C343.683 38.0189 344.232 40.6919 344.232 43.5897C344.232 46.4375 343.683 49.1105 342.583 51.6086C341.534 54.0568 340.085 56.1802 338.237 57.9788C336.388 59.7774 334.19 61.2014 331.642 62.2506C329.144 63.2498 326.421 63.7494 323.473 63.7494C320.525 63.7494 317.752 63.2498 315.154 62.2506C312.606 61.2014 310.383 59.7774 308.484 57.9788C306.636 56.1802 305.162 54.0568 304.063 51.6086C303.013 49.1105 302.489 46.4375 302.489 43.5897ZM316.128 43.5148C316.128 47.112 316.303 50.1098 316.653 52.5079C317.053 54.8562 317.577 56.7298 318.227 58.1287C318.926 59.4777 319.701 60.4519 320.55 61.0515C321.449 61.6011 322.399 61.8759 323.398 61.8759C324.397 61.8759 325.321 61.6011 326.171 61.0515C327.07 60.4519 327.845 59.4777 328.494 58.1287C329.144 56.7298 329.643 54.8562 329.993 52.5079C330.393 50.1098 330.593 47.112 330.593 43.5148C330.593 39.9175 330.393 36.9447 329.993 34.5965C329.643 32.2483 329.144 30.3997 328.494 29.0507C327.845 27.6518 327.07 26.6775 326.171 26.1279C325.321 25.5284 324.397 25.2286 323.398 25.2286C322.399 25.2286 321.449 25.5284 320.55 26.1279C319.701 26.6775 318.926 27.6518 318.227 29.0507C317.577 30.3997 317.053 32.2483 316.653 34.5965C316.303 36.9447 316.128 39.9175 316.128 43.5148ZM348.722 43.5897C348.722 40.6919 349.247 38.0189 350.296 35.5708C351.395 33.0727 352.869 30.9243 354.718 29.1257C356.616 27.327 358.84 25.9281 361.388 24.9288C363.986 23.8796 366.759 23.355 369.706 23.355C372.654 23.355 375.377 23.8796 377.875 24.9288C380.423 25.9281 382.622 27.327 384.47 29.1257C386.319 30.9243 387.768 33.0727 388.817 35.5708C389.916 38.0189 390.466 40.6919 390.466 43.5897C390.466 46.4375 389.916 49.1105 388.817 51.6086C387.768 54.0568 386.319 56.1802 384.47 57.9788C382.622 59.7774 380.423 61.2014 377.875 62.2506C375.377 63.2498 372.654 63.7494 369.706 63.7494C366.759 63.7494 363.986 63.2498 361.388 62.2506C358.84 61.2014 356.616 59.7774 354.718 57.9788C352.869 56.1802 351.395 54.0568 350.296 51.6086C349.247 49.1105 348.722 46.4375 348.722 43.5897ZM362.362 43.5148C362.362 47.112 362.537 50.1098 362.887 52.5079C363.286 54.8562 363.811 56.7298 364.46 58.1287C365.16 59.4777 365.934 60.4519 366.784 61.0515C367.683 61.6011 368.632 61.8759 369.632 61.8759C370.631 61.8759 371.555 61.6011 372.404 61.0515C373.304 60.4519 374.078 59.4777 374.728 58.1287C375.377 56.7298 375.877 54.8562 376.227 52.5079C376.626 50.1098 376.826 47.112 376.826 43.5148C376.826 39.9175 376.626 36.9447 376.227 34.5965C375.877 32.2483 375.377 30.3997 374.728 29.0507C374.078 27.6518 373.304 26.6775 372.404 26.1279C371.555 25.5284 370.631 25.2286 369.632 25.2286C368.632 25.2286 367.683 25.5284 366.784 26.1279C365.934 26.6775 365.16 27.6518 364.46 29.0507C363.811 30.3997 363.286 32.2483 362.887 34.5965C362.537 36.9447 362.362 39.9175 362.362 43.5148ZM411.011 25.2286C410.112 25.2286 409.313 25.5784 408.613 26.2778C407.914 26.9773 407.564 27.9765 407.564 29.2755C407.564 30.9243 408.064 32.3732 409.063 33.6223C410.062 34.8713 411.311 36.0204 412.81 37.0696C414.309 38.0689 415.933 39.0681 417.681 40.0674C419.43 41.0167 421.054 42.0659 422.553 43.215C424.051 44.3142 425.3 45.5882 426.3 47.0371C427.299 48.436 427.799 50.0848 427.799 51.9833C427.799 53.6821 427.374 55.2559 426.525 56.7048C425.725 58.1537 424.576 59.4027 423.077 60.4519C421.578 61.5011 419.805 62.3255 417.756 62.9251C415.758 63.4746 413.559 63.7494 411.161 63.7494C408.763 63.7494 406.54 63.5496 404.491 63.1499C402.443 62.8002 400.644 62.2506 399.095 61.5011C397.596 60.7017 396.397 59.7025 395.498 58.5034C394.649 57.3043 394.224 55.9054 394.224 54.3066C394.224 52.6079 394.774 51.134 395.873 49.8849C397.022 48.6359 398.471 48.0114 400.219 48.0114C401.668 48.0114 402.793 48.3611 403.592 49.0606C404.391 49.7101 404.991 50.5594 405.391 51.6086C405.84 52.6578 406.165 53.782 406.365 54.9811C406.615 56.1302 406.889 57.2294 407.189 58.2786C407.539 59.3278 407.989 60.2021 408.538 60.9016C409.138 61.5511 410.012 61.8759 411.161 61.8759C412.36 61.8759 413.285 61.6011 413.934 61.0515C414.634 60.5019 414.983 59.6525 414.983 58.5034C414.983 56.9046 414.484 55.5057 413.484 54.3066C412.485 53.0575 411.211 51.8834 409.662 50.7843C408.163 49.6851 406.54 48.6109 404.791 47.5617C403.042 46.5125 401.394 45.3634 399.845 44.1143C398.346 42.8653 397.097 41.4913 396.098 39.9924C395.098 38.4436 394.599 36.6699 394.599 34.6715C394.599 33.1226 394.998 31.6737 395.798 30.3248C396.647 28.9258 397.796 27.7267 399.245 26.7275C400.694 25.6783 402.393 24.8539 404.341 24.2544C406.34 23.6548 408.488 23.355 410.786 23.355C416.082 23.355 420.154 24.2793 423.002 26.1279C425.9 27.9266 427.349 30.2748 427.349 33.1726C427.349 34.7714 426.824 36.0454 425.775 36.9947C424.726 37.944 423.327 38.4186 421.578 38.4186C420.179 38.4186 419.055 38.0939 418.206 37.4444C417.406 36.7949 416.732 35.9955 416.182 35.0462C415.683 34.0469 415.283 32.9727 414.983 31.8236C414.733 30.6745 414.434 29.6253 414.084 28.676C413.784 27.6768 413.409 26.8524 412.96 26.2029C412.51 25.5534 411.861 25.2286 411.011 25.2286ZM444.567 41.1915C444.817 45.9879 445.991 49.6601 448.089 52.2082C450.238 54.7562 453.011 56.0303 456.408 56.0303C457.108 56.0303 458.032 55.9803 459.181 55.8804C460.33 55.7305 461.504 55.3808 462.703 54.8312C463.902 54.2816 465.027 53.4822 466.076 52.433C467.125 51.3338 467.849 49.81 468.249 47.8615H468.999C468.799 50.4095 468.199 52.6828 467.2 54.6813C466.251 56.6298 465.002 58.2786 463.453 59.6276C461.904 60.9765 460.105 62.0008 458.057 62.7002C456.008 63.3997 453.785 63.7494 451.387 63.7494C448.489 63.7494 445.816 63.2498 443.368 62.2506C440.97 61.2513 438.896 59.8524 437.148 58.0537C435.399 56.2551 434.025 54.1067 433.026 51.6086C432.077 49.1105 431.602 46.3626 431.602 43.3649C431.602 40.3671 432.052 37.6442 432.951 35.1961C433.9 32.7479 435.199 30.6495 436.848 28.9008C438.547 27.1522 440.545 25.8032 442.843 24.8539C445.192 23.8547 447.765 23.355 450.563 23.355C453.111 23.355 455.484 23.7797 457.682 24.6291C459.93 25.4285 461.879 26.5776 463.528 28.0765C465.176 29.5254 466.476 31.2491 467.425 33.2475C468.374 35.1961 468.849 37.3195 468.849 39.6177V41.1915H444.567ZM456.483 39.3929C456.333 34.9962 455.759 31.5488 454.759 29.0507C453.76 26.5027 452.461 25.2286 450.862 25.2286C449.913 25.2286 449.064 25.6033 448.314 26.3528C447.565 27.1022 446.915 28.1264 446.366 29.4254C445.816 30.7245 445.391 32.2483 445.092 33.997C444.792 35.6957 444.592 37.4943 444.492 39.3929H456.483ZM9.49886 151.176C10.4481 151.176 11.2725 150.526 11.972 149.227C12.6715 147.928 13.0212 146.079 13.0212 143.681V105.16C13.0212 102.912 12.6715 101.213 11.972 100.064C11.2725 98.9152 10.4481 98.3407 9.49886 98.3407V97.5912H29.7335C36.4784 97.5912 41.6995 98.7154 45.3967 100.964C49.0939 103.212 50.9425 106.335 50.9425 110.332C50.9425 113.229 50.0931 115.678 48.3944 117.676C46.6957 119.625 44.4474 120.874 41.6495 121.423C43.4481 121.773 45.1469 122.397 46.7456 123.297C48.3444 124.196 49.7434 125.295 50.9425 126.594C52.1416 127.893 53.0659 129.367 53.7154 131.016C54.4148 132.615 54.7646 134.288 54.7646 136.037C54.7646 141.533 53.0409 145.58 49.5935 148.178C46.1461 150.726 41 152 34.1552 152H9.49886V151.176ZM26.5859 121.948C30.0333 121.948 32.6813 121.023 34.5299 119.175C36.3785 117.276 37.3028 114.603 37.3028 111.156C37.3028 107.559 36.3535 104.786 34.455 102.837C32.6064 100.839 30.0083 99.8395 26.6609 99.8395H26.511V121.948H26.5859ZM27.7101 149.752C36.6533 149.752 41.1249 145.455 41.1249 136.861C41.1249 128.418 36.5034 124.196 27.2604 124.196H26.511V149.752H27.7101ZM59.9772 132.59C59.9772 129.692 60.5018 127.019 61.551 124.571C62.6502 122.073 64.1241 119.924 65.9727 118.126C67.8712 116.327 70.0946 114.928 72.6426 113.929C75.2407 112.88 78.0136 112.355 80.9613 112.355C83.9091 112.355 86.632 112.88 89.1301 113.929C91.6782 114.928 93.8765 116.327 95.7251 118.126C97.5737 119.924 99.0226 122.073 100.072 124.571C101.171 127.019 101.721 129.692 101.721 132.59C101.721 135.438 101.171 138.111 100.072 140.609C99.0226 143.057 97.5737 145.18 95.7251 146.979C93.8765 148.777 91.6782 150.201 89.1301 151.251C86.632 152.25 83.9091 152.749 80.9613 152.749C78.0136 152.749 75.2407 152.25 72.6426 151.251C70.0946 150.201 67.8712 148.777 65.9727 146.979C64.1241 145.18 62.6502 143.057 61.551 140.609C60.5018 138.111 59.9772 135.438 59.9772 132.59ZM73.6169 132.515C73.6169 136.112 73.7918 139.11 74.1415 141.508C74.5412 143.856 75.0658 145.73 75.7153 147.129C76.4148 148.478 77.1892 149.452 78.0385 150.051C78.9379 150.601 79.8871 150.876 80.8864 150.876C81.8856 150.876 82.8099 150.601 83.6593 150.051C84.5586 149.452 85.333 148.478 85.9825 147.129C86.632 145.73 87.1316 143.856 87.4814 141.508C87.8811 139.11 88.0809 136.112 88.0809 132.515C88.0809 128.917 87.8811 125.945 87.4814 123.597C87.1316 121.248 86.632 119.4 85.9825 118.051C85.333 116.652 84.5586 115.678 83.6593 115.128C82.8099 114.528 81.8856 114.229 80.8864 114.229C79.8871 114.229 78.9379 114.528 78.0385 115.128C77.1892 115.678 76.4148 116.652 75.7153 118.051C75.0658 119.4 74.5412 121.248 74.1415 123.597C73.7918 125.945 73.6169 128.917 73.6169 132.515ZM131.464 124.646C131.464 120.149 129.565 117.901 125.768 117.901C124.619 117.901 123.47 118.276 122.321 119.025C121.171 119.774 120.222 120.774 119.473 122.023V143.756C119.473 144.656 119.573 145.555 119.773 146.454C119.972 147.354 120.222 148.178 120.522 148.927C120.872 149.627 121.246 150.201 121.646 150.651C122.096 151.051 122.545 151.251 122.995 151.251V152H103.21V151.251C103.66 151.251 104.084 151.051 104.484 150.651C104.934 150.201 105.309 149.652 105.608 149.002C105.958 148.303 106.233 147.528 106.433 146.679C106.632 145.78 106.732 144.905 106.732 144.056V124.271C106.732 123.322 106.632 122.422 106.433 121.573C106.233 120.674 105.958 119.899 105.608 119.25C105.309 118.55 104.934 118.001 104.484 117.601C104.084 117.151 103.66 116.927 103.21 116.927V116.177C104.609 116.077 106.008 115.952 107.407 115.802C108.806 115.603 110.18 115.378 111.529 115.128C112.878 114.878 114.152 114.603 115.351 114.304C116.55 113.954 117.624 113.554 118.573 113.104H119.473V118.65C120.822 116.902 122.62 115.428 124.869 114.229C127.117 112.98 129.59 112.355 132.288 112.355C137.534 112.355 141.081 114.603 142.93 119.1C144.229 117.201 146.028 115.603 148.326 114.304C150.674 113.005 153.247 112.355 156.045 112.355C159.942 112.355 162.89 113.579 164.888 116.027C166.937 118.475 167.961 122.023 167.961 126.669V143.756C167.961 144.656 168.061 145.555 168.261 146.454C168.461 147.354 168.71 148.178 169.01 148.927C169.36 149.627 169.735 150.201 170.134 150.651C170.584 151.051 171.034 151.251 171.483 151.251V152H151.698V151.251C152.148 151.251 152.573 151.051 152.972 150.651C153.422 150.201 153.797 149.652 154.097 149.002C154.446 148.303 154.721 147.528 154.921 146.679C155.121 145.78 155.221 144.905 155.221 144.056V124.646C155.221 120.149 153.322 117.901 149.525 117.901C148.476 117.901 147.427 118.226 146.377 118.875C145.328 119.475 144.429 120.299 143.679 121.348C143.829 122.148 143.954 122.997 144.054 123.896C144.154 124.746 144.204 125.67 144.204 126.669V143.756C144.204 144.656 144.304 145.555 144.504 146.454C144.704 147.354 144.953 148.178 145.253 148.927C145.603 149.627 145.978 150.201 146.377 150.651C146.827 151.051 147.277 151.251 147.726 151.251V152H127.941V151.251C128.391 151.251 128.816 151.051 129.215 150.651C129.665 150.201 130.04 149.652 130.34 149.002C130.689 148.303 130.964 147.528 131.164 146.679C131.364 145.78 131.464 144.905 131.464 144.056V124.646ZM188.466 142.033C188.865 144.531 189.865 146.404 191.463 147.653C193.062 148.902 194.736 149.527 196.485 149.527C198.733 149.527 200.531 148.053 201.88 145.105C203.229 142.107 203.904 138.111 203.904 133.114C203.904 128.118 203.229 124.221 201.88 121.423C200.531 118.575 198.783 117.151 196.634 117.151C195.086 117.151 193.512 117.776 191.913 119.025C190.364 120.274 189.215 121.973 188.466 124.121V142.033ZM175.8 106.135C175.8 105.136 175.7 104.161 175.5 103.212C175.301 102.263 175.026 101.438 174.676 100.739C174.376 99.9894 174.002 99.4148 173.552 99.0151C173.152 98.5655 172.728 98.3407 172.278 98.3407V97.5912C173.577 97.4913 174.926 97.3664 176.325 97.2165C177.724 97.0167 179.098 96.7918 180.447 96.542C181.846 96.2922 183.145 96.0174 184.344 95.7176C185.593 95.3679 186.667 94.9682 187.566 94.5185H188.466V119.55C190.064 117.251 191.913 115.478 194.011 114.229C196.16 112.98 198.608 112.355 201.356 112.355C203.604 112.355 205.703 112.805 207.651 113.704C209.6 114.553 211.298 115.827 212.747 117.526C214.196 119.175 215.32 121.223 216.12 123.671C216.969 126.07 217.394 128.793 217.394 131.84C217.394 134.888 216.969 137.711 216.12 140.309C215.27 142.857 214.046 145.055 212.447 146.904C210.899 148.752 209.025 150.201 206.827 151.251C204.678 152.25 202.28 152.749 199.632 152.749C194.636 152.749 190.864 151.151 188.316 147.953L176.55 152H175.8V106.135ZM255.631 145.78C255.631 146.629 255.755 147.304 256.005 147.803C256.305 148.253 256.755 148.478 257.354 148.478C257.754 148.478 258.104 148.378 258.403 148.178C258.753 147.978 259.078 147.553 259.378 146.904H260.127C260.127 148.603 259.353 150.002 257.804 151.101C256.305 152.2 254.406 152.749 252.108 152.749C247.362 152.749 244.439 151.326 243.34 148.478C242.191 149.977 240.742 151.076 238.993 151.775C237.294 152.425 235.396 152.749 233.297 152.749C231.599 152.749 229.975 152.475 228.426 151.925C226.927 151.375 225.603 150.576 224.454 149.527C223.305 148.428 222.381 147.129 221.681 145.63C221.032 144.081 220.707 142.332 220.707 140.384C220.707 137.586 221.257 135.238 222.356 133.339C223.455 131.441 224.829 129.917 226.478 128.768C228.126 127.618 229.9 126.794 231.799 126.294C233.747 125.795 235.546 125.545 237.195 125.545C238.244 125.545 239.118 125.62 239.818 125.77C240.567 125.87 241.167 125.995 241.616 126.145C242.116 126.344 242.54 126.544 242.89 126.744V121.348C242.89 119.2 242.515 117.476 241.766 116.177C241.067 114.878 240.142 114.229 238.993 114.229C237.045 114.229 236.07 116.202 236.07 120.149C236.07 121.798 235.421 123.172 234.122 124.271C232.823 125.37 231.049 125.92 228.801 125.92C227.052 125.92 225.703 125.47 224.754 124.571C223.805 123.671 223.33 122.472 223.33 120.974C223.33 119.625 223.705 118.425 224.454 117.376C225.254 116.277 226.328 115.353 227.677 114.603C229.026 113.854 230.6 113.304 232.398 112.955C234.247 112.555 236.22 112.355 238.319 112.355C241.167 112.355 243.665 112.78 245.813 113.629C247.961 114.478 249.76 115.702 251.209 117.301C252.708 118.85 253.807 120.749 254.506 122.997C255.256 125.195 255.631 127.668 255.631 130.416V145.78ZM242.89 131.615C242.89 130.766 242.64 129.967 242.141 129.217C241.691 128.468 240.917 128.093 239.818 128.093C238.069 128.093 236.645 129.192 235.546 131.391C234.447 133.539 233.897 136.637 233.897 140.684C233.897 143.182 234.347 145.105 235.246 146.454C236.145 147.803 237.219 148.478 238.469 148.478C240.217 148.478 241.691 147.703 242.89 146.154V131.615ZM263.135 150.126L281.721 114.978H276.325C274.576 114.978 273.002 115.303 271.603 115.952C270.254 116.552 269.055 117.401 268.006 118.5C267.007 119.6 266.183 120.899 265.533 122.397C264.884 123.846 264.384 125.42 264.034 127.119H263.285L263.659 113.104H296.185V114.978L277.749 150.126H283.819C285.568 150.126 287.117 149.827 288.466 149.227C289.865 148.578 291.064 147.703 292.063 146.604C293.112 145.505 293.961 144.231 294.611 142.782C295.26 141.283 295.76 139.684 296.11 137.986H296.859L296.485 152H263.135V150.126ZM340.194 135.887C340.194 141.333 338.57 145.505 335.323 148.403C332.125 151.301 327.354 152.749 321.009 152.749C318.311 152.749 315.812 152.425 313.514 151.775C311.216 151.076 309.217 150.151 307.519 149.002C305.82 147.803 304.496 146.429 303.547 144.88C302.597 143.282 302.148 141.558 302.198 139.709C302.248 137.661 302.872 135.912 304.071 134.463C305.27 132.964 306.919 132.215 309.018 132.215C311.416 132.215 313.14 132.864 314.189 134.164C315.238 135.413 315.738 137.061 315.688 139.11C315.688 140.209 315.638 141.433 315.538 142.782C315.438 144.081 315.513 145.305 315.763 146.454C316.062 147.603 316.637 148.578 317.486 149.377C318.386 150.126 319.784 150.501 321.683 150.501C323.282 150.501 324.506 149.902 325.355 148.702C326.255 147.503 326.704 145.855 326.704 143.756L326.779 105.16C326.779 102.912 326.429 101.213 325.73 100.064C325.031 98.9152 324.206 98.3407 323.257 98.3407V97.5912H343.716V98.3407C342.817 98.3407 342.018 98.9152 341.318 100.064C340.619 101.213 340.269 102.912 340.269 105.16L340.194 135.887ZM374.971 124.271C374.971 123.322 374.871 122.422 374.671 121.573C374.471 120.674 374.196 119.899 373.846 119.25C373.547 118.55 373.172 118.001 372.722 117.601C372.323 117.151 371.898 116.927 371.448 116.927V116.177C372.847 116.077 374.246 115.952 375.645 115.802C377.044 115.603 378.418 115.378 379.767 115.128C381.116 114.878 382.39 114.603 383.589 114.304C384.788 113.954 385.862 113.554 386.812 113.104H387.711V142.033C387.711 145.53 388.061 147.953 388.76 149.302C389.46 150.601 390.284 151.251 391.233 151.251V152H374.971V146.529C374.421 147.279 373.697 148.028 372.797 148.777C371.948 149.527 370.924 150.201 369.725 150.801C368.525 151.4 367.202 151.875 365.753 152.225C364.304 152.575 362.705 152.749 360.956 152.749C357.059 152.749 353.987 151.625 351.738 149.377C349.49 147.129 348.366 143.831 348.366 139.484V124.271C348.366 123.322 348.266 122.422 348.066 121.573C347.866 120.674 347.591 119.899 347.242 119.25C346.942 118.55 346.567 118.001 346.117 117.601C345.718 117.151 345.293 116.927 344.843 116.927V116.177C346.242 116.077 347.641 115.952 349.04 115.802C350.439 115.603 351.813 115.378 353.162 115.128C354.511 114.878 355.785 114.603 356.984 114.304C358.183 113.954 359.258 113.554 360.207 113.104H361.106V140.084C361.106 142.182 361.656 144.031 362.755 145.63C363.854 147.179 365.478 147.953 367.626 147.953C368.525 147.953 369.4 147.803 370.249 147.503C371.149 147.204 371.948 146.779 372.647 146.229C373.347 145.68 373.896 145.055 374.296 144.356C374.746 143.606 374.971 142.782 374.971 141.883V124.271ZM403.872 109.957C402.024 109.957 400.45 109.357 399.151 108.158C397.902 106.959 397.277 105.485 397.277 103.737C397.277 101.988 397.902 100.514 399.151 99.3149C400.45 98.1158 402.024 97.5163 403.872 97.5163C405.721 97.5163 407.27 98.1158 408.519 99.3149C409.818 100.514 410.467 101.988 410.467 103.737C410.467 105.485 409.818 106.959 408.519 108.158C407.27 109.357 405.721 109.957 403.872 109.957ZM395.029 151.251C395.479 151.251 395.903 151.051 396.303 150.651C396.753 150.201 397.127 149.652 397.427 149.002C397.777 148.303 398.052 147.528 398.252 146.679C398.451 145.78 398.551 144.905 398.551 144.056V124.271C398.551 123.322 398.451 122.422 398.252 121.573C398.052 120.674 397.777 119.899 397.427 119.25C397.127 118.55 396.753 118.001 396.303 117.601C395.903 117.151 395.479 116.927 395.029 116.927V116.177C396.428 116.077 397.827 115.952 399.226 115.802C400.625 115.603 401.999 115.378 403.348 115.128C404.697 114.878 405.971 114.603 407.17 114.304C408.369 113.954 409.443 113.554 410.392 113.104H411.292V143.756C411.292 144.656 411.392 145.555 411.591 146.454C411.791 147.354 412.041 148.178 412.341 148.927C412.691 149.627 413.065 150.201 413.465 150.651C413.915 151.051 414.364 151.251 414.814 151.251V152H395.029V151.251ZM446.958 128.243C445.259 128.243 443.96 127.893 443.061 127.194C442.161 126.494 441.487 125.645 441.037 124.646C440.588 123.597 440.263 122.472 440.063 121.273C439.913 120.024 439.688 118.9 439.388 117.901C439.139 116.852 438.714 115.977 438.114 115.278C437.565 114.578 436.69 114.229 435.491 114.229C433.493 114.229 431.969 115.453 430.92 117.901C429.921 120.299 429.421 123.846 429.421 128.543C429.421 133.839 430.42 137.911 432.419 140.759C434.467 143.606 437.14 145.03 440.438 145.03C443.285 145.03 445.709 144.306 447.707 142.857C449.706 141.408 451.055 139.41 451.754 136.861H452.503C452.254 141.858 450.655 145.755 447.707 148.553C444.809 151.35 440.862 152.749 435.866 152.749C432.968 152.749 430.32 152.25 427.922 151.251C425.524 150.251 423.45 148.852 421.702 147.054C420.003 145.255 418.679 143.107 417.73 140.609C416.781 138.111 416.306 135.363 416.306 132.365C416.306 129.417 416.781 126.719 417.73 124.271C418.679 121.773 420.003 119.65 421.702 117.901C423.401 116.152 425.424 114.803 427.772 113.854C430.17 112.855 432.793 112.355 435.641 112.355C437.89 112.355 440.013 112.63 442.011 113.179C444.01 113.729 445.734 114.478 447.183 115.428C448.681 116.327 449.855 117.426 450.705 118.725C451.554 119.974 451.979 121.323 451.979 122.772C451.979 124.421 451.454 125.745 450.405 126.744C449.406 127.743 448.257 128.243 446.958 128.243ZM469.284 130.192C469.534 134.988 470.708 138.66 472.806 141.208C474.954 143.756 477.727 145.03 481.125 145.03C481.824 145.03 482.749 144.98 483.898 144.88C485.047 144.731 486.221 144.381 487.42 143.831C488.619 143.282 489.743 142.482 490.792 141.433C491.842 140.334 492.566 138.81 492.966 136.861H493.715C493.515 139.41 492.916 141.683 491.917 143.681C490.967 145.63 489.718 147.279 488.169 148.628C486.621 149.977 484.822 151.001 482.773 151.7C480.725 152.4 478.502 152.749 476.104 152.749C473.206 152.749 470.533 152.25 468.085 151.251C465.686 150.251 463.613 148.852 461.864 147.054C460.116 145.255 458.742 143.107 457.742 140.609C456.793 138.111 456.319 135.363 456.319 132.365C456.319 129.367 456.768 126.644 457.668 124.196C458.617 121.748 459.916 119.65 461.565 117.901C463.263 116.152 465.262 114.803 467.56 113.854C469.908 112.855 472.481 112.355 475.279 112.355C477.827 112.355 480.2 112.78 482.399 113.629C484.647 114.428 486.596 115.578 488.244 117.076C489.893 118.525 491.192 120.249 492.141 122.248C493.091 124.196 493.565 126.319 493.565 128.618V130.192H469.284ZM481.2 128.393C481.05 123.996 480.475 120.549 479.476 118.051C478.477 115.503 477.178 114.229 475.579 114.229C474.63 114.229 473.78 114.603 473.031 115.353C472.281 116.102 471.632 117.126 471.082 118.425C470.533 119.724 470.108 121.248 469.808 122.997C469.509 124.696 469.309 126.494 469.209 128.393H481.2ZM537.101 134.913C537.101 132.665 537.326 130.641 537.776 128.843C538.226 126.994 538.8 125.295 539.5 123.746C540.199 122.148 540.949 120.674 541.748 119.325C542.597 117.926 543.372 116.552 544.071 115.203C544.821 113.804 545.42 112.405 545.87 111.006C546.369 109.607 546.619 108.108 546.619 106.509C546.619 105.46 546.469 104.486 546.17 103.587C545.87 102.687 545.445 101.913 544.896 101.263C544.346 100.564 543.721 100.014 543.022 99.6147C542.323 99.215 541.548 99.0151 540.699 99.0151C539.05 99.0151 537.776 99.4148 536.877 100.214C535.977 100.964 535.303 101.913 534.853 103.062C534.404 104.211 534.129 105.46 534.029 106.809C533.979 108.108 533.954 109.307 533.954 110.407C534.004 112.455 533.504 114.129 532.455 115.428C531.406 116.677 529.682 117.301 527.284 117.301C525.186 117.301 523.537 116.577 522.338 115.128C521.139 113.629 520.514 111.855 520.464 109.807C520.414 108.058 520.814 106.41 521.663 104.861C522.563 103.262 523.862 101.863 525.56 100.664C527.309 99.4648 529.432 98.5155 531.93 97.816C534.478 97.1166 537.376 96.7668 540.624 96.7668C543.222 96.7668 545.695 97.0416 548.043 97.5912C550.391 98.1408 552.465 98.9402 554.263 99.9894C556.062 101.039 557.486 102.338 558.535 103.886C559.584 105.385 560.109 107.109 560.109 109.058C560.109 111.056 559.709 112.78 558.91 114.229C558.111 115.678 557.086 117.002 555.837 118.201C554.638 119.35 553.289 120.449 551.79 121.498C550.292 122.547 548.843 123.696 547.444 124.945C546.095 126.195 544.871 127.618 543.771 129.217C542.672 130.766 541.873 132.665 541.373 134.913C541.073 136.212 540.324 136.861 539.125 136.861C537.776 136.861 537.101 136.212 537.101 134.913ZM539.125 152.674C537.276 152.674 535.703 152.075 534.404 150.876C533.154 149.677 532.53 148.203 532.53 146.454C532.53 144.706 533.154 143.232 534.404 142.033C535.703 140.833 537.276 140.234 539.125 140.234C540.974 140.234 542.522 140.833 543.771 142.033C545.07 143.232 545.72 144.706 545.72 146.454C545.72 148.203 545.07 149.677 543.771 150.876C542.522 152.075 540.974 152.674 539.125 152.674Z" fill="white"/>
</g>
<defs>
<filter id="filter0_d_104_150" x="0.696368" y="0.907697" width="568.215" height="164.836" filterUnits="userSpaceOnUse" color-interpolation-filters="sRGB">
<feFlood flood-opacity="0" result="BackgroundImageFix"/>
<feColorMatrix in="SourceAlpha" type="matrix" values="0 0 0 0 0 0 0 0 0 0 0 0 0 0 0 0 0 0 127 0" result="hardAlpha"/>
<feOffset dy="4.19168"/>
<feGaussianBlur stdDeviation="4.40127"/>
<feComposite in2="hardAlpha" operator="out"/>
<feColorMatrix type="matrix" values="0 0 0 0 0 0 0 0 0 0 0 0 0 0 0 0 0 0 0.25 0"/>
<feBlend mode="normal" in2="BackgroundImageFix" result="effect1_dropShadow_104_150"/>
<feBlend mode="normal" in="SourceGraphic" in2="effect1_dropShadow_104_150" result="shape"/>
</filter>
</defs>
</svg>
