<svg width="180" height="74" viewBox="0 0 180 74" fill="none" xmlns="http://www.w3.org/2000/svg">
<g filter="url(#filter0_d_93_375)">
<path d="M18.3159 6.80234C19.4464 6.80234 20.4732 6.93423 21.3965 7.19801C22.3197 7.46179 23.1016 7.81978 23.7422 8.27197C24.4017 8.72416 24.901 9.25172 25.2401 9.85465C25.5981 10.4387 25.7677 11.0605 25.7488 11.7199C25.73 12.4924 25.4945 13.1613 25.0423 13.7266C24.5901 14.273 23.9683 14.5462 23.177 14.5462C22.2726 14.5462 21.6226 14.3106 21.2269 13.8396C20.8312 13.3497 20.6428 12.7185 20.6616 11.946C20.6616 11.5315 20.6711 11.0793 20.6899 10.5895C20.7087 10.0807 20.6522 9.60971 20.5203 9.17636C20.3884 8.74301 20.1435 8.38502 19.7855 8.1024C19.4464 7.80094 18.9188 7.65021 18.2028 7.65021C17.5622 7.65021 16.9405 7.81978 16.3375 8.15892C15.7535 8.47923 15.2353 8.97852 14.7831 9.65681C14.3309 10.3351 13.9635 11.2018 13.6809 12.2569C13.4171 13.2932 13.2852 14.5367 13.2852 15.9875C13.2852 17.2876 13.4265 18.4557 13.7092 19.492C14.0106 20.5283 14.4346 21.4138 14.981 22.1487C15.5274 22.8646 16.1868 23.4204 16.9593 23.8161C17.7318 24.2118 18.5985 24.4096 19.5594 24.4096C21.1798 24.4096 22.5081 23.948 23.5444 23.0248C24.5806 22.0827 25.1836 20.8109 25.3531 19.2094H25.6358C25.73 20.4906 25.5981 21.6682 25.2401 22.7422C24.8821 23.8161 24.3357 24.7393 23.6009 25.5118C22.8849 26.2655 22.0088 26.859 20.9725 27.2924C19.9362 27.7069 18.7681 27.9141 17.468 27.9141C16.0549 27.9141 14.7737 27.6692 13.6244 27.1793C12.4751 26.6706 11.4953 25.9546 10.6851 25.0314C9.87494 24.1082 9.24376 23.0059 8.79156 21.7247C8.35821 20.4247 8.14154 18.9739 8.14154 17.3724C8.14154 15.6955 8.39589 14.207 8.90461 12.907C9.43217 11.5881 10.1481 10.4764 11.0525 9.57203C11.9758 8.66764 13.0591 7.97993 14.3027 7.5089C15.5462 7.03786 16.8839 6.80234 18.3159 6.80234ZM29.3887 11.7765C28.6915 11.7765 28.098 11.5504 27.6082 11.0982C27.1371 10.646 26.9016 10.0902 26.9016 9.43072C26.9016 8.77127 27.1371 8.21545 27.6082 7.76325C28.098 7.31106 28.6915 7.08496 29.3887 7.08496C30.0858 7.08496 30.6699 7.31106 31.1409 7.76325C31.6308 8.21545 31.8757 8.77127 31.8757 9.43072C31.8757 10.0902 31.6308 10.646 31.1409 11.0982C30.6699 11.5504 30.0858 11.7765 29.3887 11.7765ZM26.0537 27.3489C26.2233 27.3489 26.3835 27.2735 26.5342 27.1228C26.7038 26.9532 26.8451 26.746 26.9581 26.501C27.09 26.2372 27.1936 25.9452 27.269 25.6249C27.3444 25.2857 27.3821 24.956 27.3821 24.6357V17.1745C27.3821 16.8165 27.3444 16.4774 27.269 16.1571C27.1936 15.8179 27.09 15.5259 26.9581 15.281C26.8451 15.0172 26.7038 14.8099 26.5342 14.6592C26.3835 14.4896 26.2233 14.4048 26.0537 14.4048V14.1222C26.5813 14.0845 27.1089 14.0374 27.6364 13.9809C28.164 13.9055 28.6821 13.8208 29.1908 13.7266C29.6995 13.6323 30.18 13.5287 30.6322 13.4157C31.0844 13.2838 31.4895 13.133 31.8475 12.9635H32.1866V24.5227C32.1866 24.8618 32.2243 25.201 32.2997 25.5401C32.375 25.8793 32.4692 26.1901 32.5823 26.4728C32.7142 26.7365 32.8555 26.9532 33.0062 27.1228C33.1758 27.2735 33.3454 27.3489 33.5149 27.3489V27.6315H26.0537V27.3489ZM33.3776 12.9635C34.037 12.9635 34.6682 12.8598 35.2712 12.6526C35.8929 12.4453 36.4582 12.1533 36.9669 11.7765C37.4756 11.3996 37.8995 10.9569 38.2387 10.4482C38.5967 9.93943 38.8416 9.38361 38.9735 8.78069H39.5387V12.9635H42.7606V13.67H39.5387V23.3639C39.5387 24.7959 40.0286 25.5118 41.0084 25.5118C41.4229 25.5118 41.7809 25.38 42.0823 25.1162C42.3838 24.8524 42.5628 24.5886 42.6193 24.3248H42.9019C42.9019 24.8336 42.7983 25.314 42.591 25.7662C42.3838 26.1996 42.0917 26.5764 41.7149 26.8967C41.3381 27.217 40.8859 27.4619 40.3583 27.6315C39.8496 27.8199 39.2938 27.9141 38.6909 27.9141C37.3908 27.9141 36.4016 27.5279 35.7233 26.7554C35.0639 25.9829 34.7342 24.8524 34.7342 23.3639V13.67H32.9537V12.9635H33.3776ZM43.0275 27.3489C43.1971 27.3489 43.3573 27.2735 43.508 27.1228C43.6776 26.9532 43.8189 26.746 43.9319 26.501C44.0638 26.2372 44.1675 25.9452 44.2428 25.6249C44.3182 25.2857 44.3559 24.956 44.3559 24.6357V17.1745C44.3559 16.8165 44.3182 16.4774 44.2428 16.1571C44.1675 15.8179 44.0638 15.5259 43.9319 15.281C43.8189 15.0172 43.6776 14.8099 43.508 14.6592C43.3573 14.4896 43.1971 14.4048 43.0275 14.4048V14.1222C43.5551 14.0845 44.0827 14.0374 44.6102 13.9809C45.1378 13.9055 45.6559 13.8208 46.1646 13.7266C46.6734 13.6323 47.1538 13.5287 47.606 13.4157C48.0582 13.2838 48.4633 13.133 48.8213 12.9635H49.1604V15.1397C49.7257 14.3483 50.4322 13.7454 51.2801 13.3309C52.1468 12.8975 53.0794 12.6809 54.078 12.6809C54.7752 12.6809 55.3498 12.8127 55.802 13.0765C56.2542 13.3403 56.5934 13.67 56.8194 14.0657C57.0455 14.4614 57.1586 14.8947 57.1586 15.3658C57.1586 15.8368 57.0644 16.2701 56.876 16.6658C56.6876 17.0615 56.4049 17.3912 56.0281 17.655C55.6701 17.9188 55.2273 18.0507 54.6998 18.0507C54.078 18.0507 53.6164 17.8811 53.3149 17.5419C53.0135 17.2028 52.7685 16.8354 52.5801 16.4397C52.3917 16.0252 52.2033 15.6484 52.0149 15.3092C51.8265 14.9701 51.5156 14.8005 51.0822 14.8005C50.8561 14.8005 50.6395 14.8665 50.4322 14.9983C50.2438 15.1302 50.0648 15.2998 49.8952 15.5071C49.7257 15.6955 49.5749 15.8933 49.443 16.1006C49.33 16.289 49.2358 16.4586 49.1604 16.6093V24.5227C49.1604 24.8618 49.1981 25.201 49.2735 25.5401C49.3488 25.8793 49.443 26.1901 49.5561 26.4728C49.688 26.7365 49.8293 26.9532 49.98 27.1228C50.1496 27.2735 50.3192 27.3489 50.4887 27.3489V27.6315H43.0275V27.3489ZM68.7959 17.1745C68.7959 16.8165 68.7583 16.4774 68.6829 16.1571C68.6075 15.8179 68.5039 15.5259 68.372 15.281C68.259 15.0172 68.1177 14.8099 67.9481 14.6592C67.7974 14.4896 67.6372 14.4048 67.4676 14.4048V14.1222C67.9952 14.0845 68.5227 14.0374 69.0503 13.9809C69.5779 13.9055 70.096 13.8208 70.6047 13.7266C71.1134 13.6323 71.5939 13.5287 72.0461 13.4157C72.4983 13.2838 72.9034 13.133 73.2614 12.9635H73.6005V23.8726C73.6005 25.1915 73.7324 26.1053 73.9962 26.6141C74.2599 27.1039 74.5708 27.3489 74.9288 27.3489V27.6315H68.7959V25.5684C68.5887 25.851 68.3155 26.1336 67.9763 26.4162C67.656 26.6989 67.2698 26.9532 66.8176 27.1793C66.3654 27.4054 65.8661 27.5844 65.3197 27.7163C64.7733 27.8482 64.1704 27.9141 63.5109 27.9141C62.0413 27.9141 60.8826 27.4902 60.0347 26.6423C59.1868 25.7945 58.7629 24.5509 58.7629 22.9117V17.1745C58.7629 16.8165 58.7252 16.4774 58.6499 16.1571C58.5745 15.8179 58.4709 15.5259 58.339 15.281C58.2259 15.0172 58.0846 14.8099 57.915 14.6592C57.7643 14.4896 57.6042 14.4048 57.4346 14.4048V14.1222C57.9621 14.0845 58.4897 14.0374 59.0173 13.9809C59.5448 13.9055 60.063 13.8208 60.5717 13.7266C61.0804 13.6323 61.5609 13.5287 62.013 13.4157C62.4652 13.2838 62.8703 13.133 63.2283 12.9635H63.5675V23.1378C63.5675 23.9292 63.7747 24.6263 64.1892 25.2292C64.6037 25.8133 65.2161 26.1053 66.0263 26.1053C66.3654 26.1053 66.6951 26.0488 67.0154 25.9358C67.3546 25.8227 67.656 25.6626 67.9198 25.4553C68.1836 25.2481 68.3909 25.0125 68.5416 24.7488C68.7112 24.4661 68.7959 24.1553 68.7959 23.8161V17.1745ZM81.2635 13.3874C80.9244 13.3874 80.6229 13.5193 80.3591 13.7831C80.0953 14.0469 79.9634 14.4237 79.9634 14.9136C79.9634 15.5353 80.1519 16.0817 80.5287 16.5528C80.9055 17.0238 81.3766 17.4571 81.9418 17.8528C82.507 18.2296 83.1194 18.6065 83.7788 18.9833C84.4383 19.3413 85.0506 19.737 85.6159 20.1703C86.1811 20.5848 86.6521 21.0653 87.029 21.6117C87.4058 22.1392 87.5942 22.761 87.5942 23.477C87.5942 24.1176 87.4341 24.7111 87.1138 25.2575C86.8123 25.8039 86.3789 26.2749 85.8137 26.6706C85.2485 27.0663 84.5796 27.3771 83.8071 27.6032C83.0534 27.8105 82.2244 27.9141 81.32 27.9141C80.4156 27.9141 79.5772 27.8388 78.8047 27.688C78.0322 27.5561 77.3539 27.3489 76.7698 27.0663C76.2046 26.7648 75.7524 26.388 75.4133 25.9358C75.0929 25.4836 74.9328 24.956 74.9328 24.3531C74.9328 23.7125 75.1401 23.1567 75.5546 22.6856C75.9879 22.2146 76.5343 21.9791 77.1938 21.9791C77.7402 21.9791 78.1641 22.111 78.4656 22.3748C78.767 22.6197 78.9931 22.94 79.1438 23.3357C79.3134 23.7313 79.4359 24.1553 79.5113 24.6075C79.6055 25.0408 79.7091 25.4553 79.8221 25.851C79.954 26.2467 80.1236 26.5764 80.3309 26.8402C80.557 27.0851 80.8867 27.2076 81.32 27.2076C81.7722 27.2076 82.1208 27.1039 82.3657 26.8967C82.6295 26.6894 82.7614 26.3691 82.7614 25.9358C82.7614 25.3329 82.573 24.8053 82.1962 24.3531C81.8193 23.8821 81.3389 23.4393 80.7548 23.0248C80.1895 22.6103 79.5772 22.2052 78.9177 21.8095C78.2583 21.4138 77.6365 20.9805 77.0525 20.5095C76.4872 20.0384 76.0162 19.5203 75.6393 18.955C75.2625 18.371 75.0741 17.7021 75.0741 16.9484C75.0741 16.3643 75.2248 15.8179 75.5263 15.3092C75.8466 14.7817 76.28 14.3295 76.8264 13.9527C77.3728 13.557 78.0134 13.2461 78.7482 13.02C79.5018 12.7939 80.312 12.6809 81.1787 12.6809C83.1759 12.6809 84.7115 13.0294 85.7854 13.7266C86.8782 14.4048 87.4246 15.2904 87.4246 16.3832C87.4246 16.9861 87.2268 17.4666 86.8311 17.8246C86.4355 18.1825 85.9079 18.3615 85.2485 18.3615C84.7209 18.3615 84.297 18.2391 83.9767 17.9941C83.6752 17.7492 83.4208 17.4477 83.2136 17.0897C83.0252 16.7129 82.8744 16.3078 82.7614 15.8745C82.6672 15.4411 82.5541 15.0455 82.4222 14.6875C82.3092 14.3106 82.1679 13.9998 81.9983 13.7548C81.8287 13.5099 81.5838 13.3874 81.2635 13.3874ZM95.9638 27.3206C96.3217 27.3206 96.6326 27.0757 96.8964 26.5858C97.1602 26.0959 97.2921 25.3988 97.2921 24.4944V9.9677C97.2921 9.11983 97.1602 8.47923 96.8964 8.04587C96.6326 7.61252 96.3217 7.39585 95.9638 7.39585V7.11323H103.595C106.138 7.11323 108.107 7.53716 109.501 8.38502C110.896 9.23288 111.593 10.4105 111.593 11.9178C111.593 13.0106 111.272 13.9338 110.632 14.6875C109.991 15.4223 109.143 15.8933 108.088 16.1006C108.766 16.2325 109.407 16.468 110.01 16.8071C110.613 17.1463 111.14 17.5608 111.593 18.0507C112.045 18.5405 112.393 19.0964 112.638 19.7181C112.902 20.321 113.034 20.9522 113.034 21.6117C113.034 23.6842 112.384 25.2104 111.084 26.1901C109.784 27.151 107.843 27.6315 105.262 27.6315H95.9638V27.3206ZM102.408 16.2984C103.708 16.2984 104.706 15.9498 105.403 15.2527C106.1 14.5367 106.449 13.5287 106.449 12.2287C106.449 10.8721 106.091 9.82639 105.375 9.09157C104.678 8.33792 103.698 7.96109 102.436 7.96109H102.379V16.2984H102.408ZM102.831 26.7836C106.204 26.7836 107.89 25.1633 107.89 21.9226C107.89 18.7384 106.148 17.1463 102.662 17.1463H102.379V26.7836H102.831ZM118.765 19.4072C118.86 21.216 119.302 22.6008 120.094 23.5618C120.904 24.5227 121.949 25.0031 123.231 25.0031C123.494 25.0031 123.843 24.9843 124.276 24.9466C124.71 24.8901 125.153 24.7582 125.605 24.5509C126.057 24.3437 126.481 24.0422 126.877 23.6465C127.272 23.232 127.545 22.6574 127.696 21.9226H127.979C127.903 22.8835 127.677 23.7408 127.3 24.4944C126.942 25.2292 126.471 25.851 125.887 26.3597C125.303 26.8684 124.625 27.2547 123.852 27.5185C123.08 27.7822 122.242 27.9141 121.337 27.9141C120.244 27.9141 119.236 27.7257 118.313 27.3489C117.409 26.9721 116.627 26.4445 115.967 25.7662C115.308 25.0879 114.79 24.2777 114.413 23.3357C114.055 22.3936 113.876 21.3573 113.876 20.2268C113.876 19.0963 114.046 18.0695 114.385 17.1463C114.743 16.223 115.233 15.4317 115.854 14.7723C116.495 14.1128 117.249 13.6041 118.115 13.2461C119.001 12.8693 119.971 12.6809 121.026 12.6809C121.987 12.6809 122.882 12.841 123.711 13.1613C124.559 13.4628 125.294 13.8961 125.916 14.4614C126.537 15.0078 127.027 15.6578 127.385 16.4115C127.743 17.1463 127.922 17.947 127.922 18.8137V19.4072H118.765ZM123.259 18.7289C123.202 17.0709 122.986 15.7708 122.609 14.8288C122.232 13.8679 121.742 13.3874 121.139 13.3874C120.781 13.3874 120.461 13.5287 120.178 13.8113C119.896 14.094 119.651 14.4802 119.444 14.9701C119.236 15.46 119.076 16.0346 118.963 16.6941C118.85 17.3347 118.775 18.013 118.737 18.7289H123.259ZM127.703 27.3489C127.873 27.3489 128.033 27.2735 128.184 27.1228C128.353 26.9532 128.495 26.746 128.608 26.501C128.74 26.2372 128.843 25.9452 128.919 25.6249C128.994 25.2857 129.032 24.956 129.032 24.6357V17.1745C129.032 16.8165 128.994 16.4774 128.919 16.1571C128.843 15.8179 128.74 15.5259 128.608 15.281C128.495 15.0172 128.353 14.8099 128.184 14.6592C128.033 14.4896 127.873 14.4048 127.703 14.4048V14.1222C128.231 14.0845 128.759 14.0374 129.286 13.9809C129.814 13.9055 130.332 13.8208 130.84 13.7266C131.349 13.6323 131.83 13.5287 132.282 13.4157C132.734 13.2838 133.139 13.133 133.497 12.9635H133.836V15.1397C134.402 14.3483 135.108 13.7454 135.956 13.3309C136.823 12.8975 137.755 12.6809 138.754 12.6809C139.451 12.6809 140.026 12.8127 140.478 13.0765C140.93 13.3403 141.269 13.67 141.495 14.0657C141.721 14.4614 141.834 14.8947 141.834 15.3658C141.834 15.8368 141.74 16.2701 141.552 16.6658C141.363 17.0615 141.081 17.3912 140.704 17.655C140.346 17.9188 139.903 18.0507 139.376 18.0507C138.754 18.0507 138.292 17.8811 137.991 17.5419C137.689 17.2028 137.444 16.8354 137.256 16.4397C137.068 16.0252 136.879 15.6484 136.691 15.3092C136.502 14.9701 136.191 14.8005 135.758 14.8005C135.532 14.8005 135.315 14.8665 135.108 14.9983C134.92 15.1302 134.741 15.2998 134.571 15.5071C134.402 15.6955 134.251 15.8933 134.119 16.1006C134.006 16.289 133.912 16.4586 133.836 16.6093V24.5227C133.836 24.8618 133.874 25.201 133.949 25.5401C134.025 25.8793 134.119 26.1901 134.232 26.4728C134.364 26.7365 134.505 26.9532 134.656 27.1228C134.825 27.2735 134.995 27.3489 135.165 27.3489V27.6315H127.703V27.3489ZM142.248 27.3489C142.418 27.3489 142.578 27.2735 142.729 27.1228C142.898 26.9532 143.04 26.746 143.153 26.501C143.285 26.2372 143.388 25.9452 143.464 25.6249C143.539 25.2857 143.577 24.956 143.577 24.6357V17.1745C143.577 16.8165 143.539 16.4774 143.464 16.1571C143.388 15.8179 143.285 15.5259 143.153 15.281C143.04 15.0172 142.898 14.8099 142.729 14.6592C142.578 14.4896 142.418 14.4048 142.248 14.4048V14.1222C142.776 14.0845 143.304 14.0374 143.831 13.9809C144.359 13.9055 144.877 13.8208 145.386 13.7266C145.894 13.6323 146.375 13.5287 146.827 13.4157C147.279 13.2838 147.684 13.133 148.042 12.9635H148.381V15.1397C148.947 14.3483 149.653 13.7454 150.501 13.3309C151.368 12.8975 152.3 12.6809 153.299 12.6809C153.996 12.6809 154.571 12.8127 155.023 13.0765C155.475 13.3403 155.814 13.67 156.04 14.0657C156.266 14.4614 156.379 14.8947 156.379 15.3658C156.379 15.8368 156.285 16.2701 156.097 16.6658C155.908 17.0615 155.626 17.3912 155.249 17.655C154.891 17.9188 154.448 18.0507 153.921 18.0507C153.299 18.0507 152.837 17.8811 152.536 17.5419C152.234 17.2028 151.989 16.8354 151.801 16.4397C151.613 16.0252 151.424 15.6484 151.236 15.3092C151.047 14.9701 150.736 14.8005 150.303 14.8005C150.077 14.8005 149.86 14.8665 149.653 14.9983C149.465 15.1302 149.286 15.2998 149.116 15.5071C148.947 15.6955 148.796 15.8933 148.664 16.1006C148.551 16.289 148.457 16.4586 148.381 16.6093V24.5227C148.381 24.8618 148.419 25.201 148.494 25.5401C148.57 25.8793 148.664 26.1901 148.777 26.4728C148.909 26.7365 149.05 26.9532 149.201 27.1228C149.37 27.2735 149.54 27.3489 149.71 27.3489V27.6315H142.248V27.3489ZM159.64 34.3861C158.924 34.3861 158.321 34.2637 157.831 34.0187C157.341 33.7738 156.955 33.4629 156.672 33.0861C156.408 32.7281 156.239 32.3324 156.163 31.8991C156.107 31.4846 156.144 31.0889 156.276 30.7121C156.408 30.3541 156.634 30.0526 156.955 29.8077C157.275 29.5627 157.689 29.4403 158.198 29.4403C158.669 29.4403 159.037 29.5156 159.3 29.6664C159.564 29.8171 159.771 29.9961 159.922 30.2034C160.092 30.4294 160.224 30.665 160.318 30.9099C160.412 31.1737 160.516 31.4092 160.629 31.6165C160.742 31.8426 160.874 32.031 161.024 32.1817C161.194 32.3324 161.439 32.4078 161.759 32.4078C162.08 32.4078 162.39 32.2853 162.692 32.0404C163.012 31.7954 163.304 31.3715 163.568 30.7686L158.198 16.044C157.897 15.215 157.539 14.5462 157.124 14.0374C156.71 13.5099 156.323 13.2461 155.965 13.2461V12.9635H163.879V13.2461C163.54 13.2461 163.314 13.5099 163.201 14.0374C163.088 14.5462 163.182 15.215 163.483 16.044L166.253 23.6748L169.136 15.9593C169.286 15.5636 169.343 15.2056 169.305 14.8853C169.286 14.5462 169.211 14.2635 169.079 14.0374C168.966 13.7925 168.815 13.6041 168.627 13.4722C168.457 13.3215 168.288 13.2461 168.118 13.2461V12.9635H172.584V13.2461C172.414 13.2461 172.197 13.3215 171.934 13.4722C171.67 13.6041 171.406 13.7925 171.142 14.0374C170.878 14.2635 170.624 14.5462 170.379 14.8853C170.153 15.2056 169.965 15.5636 169.814 15.9593L164.529 30.2034C164.001 31.6353 163.332 32.6904 162.522 33.3687C161.731 34.047 160.77 34.3861 159.64 34.3861ZM62.0989 57.7554L71.7363 38.9611H67.2426C66.5832 38.9611 65.9897 39.0741 65.4621 39.3002C64.9534 39.5075 64.5012 39.809 64.1055 40.2046C63.7287 40.6003 63.4178 41.0713 63.1729 41.6177C62.928 42.1453 62.7395 42.7294 62.6077 43.37H62.325L62.4663 38.1132H77.4735V38.9611L67.8361 57.7836H72.7537C73.4132 57.7836 73.9973 57.6706 74.506 57.4445C75.0335 57.2184 75.4857 56.9075 75.8626 56.5118C76.2582 56.1162 76.5785 55.6546 76.8235 55.127C77.0684 54.5806 77.2568 53.9871 77.3887 53.3465H77.6713L77.53 58.6315H62.0989V57.7554ZM81.5797 42.7765C80.8825 42.7765 80.289 42.5504 79.7992 42.0982C79.3281 41.646 79.0926 41.0902 79.0926 40.4307C79.0926 39.7713 79.3281 39.2154 79.7992 38.7633C80.289 38.3111 80.8825 38.085 81.5797 38.085C82.2768 38.085 82.8609 38.3111 83.3319 38.7633C83.8218 39.2154 84.0667 39.7713 84.0667 40.4307C84.0667 41.0902 83.8218 41.646 83.3319 42.0982C82.8609 42.5504 82.2768 42.7765 81.5797 42.7765ZM78.2448 58.3489C78.4143 58.3489 78.5745 58.2735 78.7252 58.1228C78.8948 57.9532 79.0361 57.746 79.1491 57.501C79.281 57.2372 79.3847 56.9452 79.46 56.6249C79.5354 56.2857 79.5731 55.956 79.5731 55.6357V48.1745C79.5731 47.8165 79.5354 47.4774 79.46 47.1571C79.3847 46.8179 79.281 46.5259 79.1491 46.281C79.0361 46.0172 78.8948 45.8099 78.7252 45.6592C78.5745 45.4896 78.4143 45.4048 78.2448 45.4048V45.1222C78.7723 45.0845 79.2999 45.0374 79.8274 44.9809C80.355 44.9055 80.8731 44.8208 81.3818 44.7266C81.8906 44.6323 82.371 44.5287 82.8232 44.4157C83.2754 44.2838 83.6805 44.133 84.0385 43.9635H84.3776V55.5227C84.3776 55.8618 84.4153 56.201 84.4907 56.5401C84.566 56.8793 84.6602 57.1901 84.7733 57.4728C84.9052 57.7365 85.0465 57.9532 85.1972 58.1228C85.3668 58.2735 85.5364 58.3489 85.7059 58.3489V58.6315H78.2448V58.3489ZM97.4963 48.3158C97.4963 46.6201 96.6861 45.7723 95.0658 45.7723C94.5759 45.7723 94.086 45.9136 93.5961 46.1962C93.1251 46.4788 92.7294 46.8651 92.4091 47.3549V55.5227C92.4091 55.8618 92.4468 56.201 92.5222 56.5401C92.5975 56.8793 92.6918 57.1901 92.8048 57.4728C92.9367 57.7365 93.078 57.9532 93.2287 58.1228C93.3983 58.2735 93.5679 58.3489 93.7375 58.3489V58.6315H86.2763V58.3489C86.4458 58.3489 86.606 58.2735 86.7567 58.1228C86.9263 57.9532 87.0676 57.746 87.1806 57.501C87.3125 57.2372 87.4162 56.9452 87.4915 56.6249C87.5669 56.2857 87.6046 55.956 87.6046 55.6357V48.1745C87.6046 47.8165 87.5669 47.4774 87.4915 47.1571C87.4162 46.8179 87.3125 46.5259 87.1806 46.281C87.0676 46.0172 86.9263 45.8099 86.7567 45.6592C86.606 45.4896 86.4458 45.4048 86.2763 45.4048V45.1222C86.8038 45.0845 87.3314 45.0374 87.8589 44.9809C88.3865 44.9055 88.9046 44.8208 89.4134 44.7266C89.9221 44.6323 90.4025 44.5287 90.8547 44.4157C91.3069 44.2838 91.712 44.133 92.07 43.9635H92.4091V46.0831C92.9555 45.4237 93.6715 44.8584 94.5571 44.3874C95.4614 43.9164 96.4506 43.6809 97.5246 43.6809C99.0696 43.6809 100.247 44.1425 101.057 45.0657C101.886 45.9889 102.301 47.3267 102.301 49.0789V55.5227C102.301 55.8618 102.339 56.201 102.414 56.5401C102.489 56.8793 102.583 57.1901 102.697 57.4728C102.828 57.7365 102.97 57.9532 103.12 58.1228C103.29 58.2735 103.46 58.3489 103.629 58.3489V58.6315H96.168V58.3489C96.3376 58.3489 96.4977 58.2735 96.6484 58.1228C96.818 57.9532 96.9593 57.746 97.0724 57.501C97.2043 57.2372 97.3079 56.9452 97.3833 56.6249C97.4586 56.2857 97.4963 55.956 97.4963 55.6357V48.3158ZM105.834 59.225C105.344 58.9989 104.958 58.7163 104.676 58.3771C104.393 58.038 104.252 57.6141 104.252 57.1053C104.252 56.4082 104.468 55.8147 104.902 55.3248C105.354 54.8161 105.872 54.3922 106.456 54.053C105.684 53.5255 105.071 52.8755 104.619 52.103C104.186 51.3305 103.969 50.4826 103.969 49.5594C103.969 48.7303 104.139 47.9579 104.478 47.2419C104.817 46.5259 105.278 45.9041 105.863 45.3766C106.465 44.849 107.172 44.4345 107.982 44.1331C108.792 43.8316 109.659 43.6809 110.582 43.6809C111.355 43.6809 112.108 43.7845 112.843 43.9917C112.994 43.6149 113.182 43.2192 113.409 42.8047C113.635 42.3902 113.898 42.0134 114.2 41.6742C114.52 41.3351 114.878 41.0525 115.274 40.8264C115.669 40.6003 116.103 40.4872 116.574 40.4872C117.252 40.4872 117.751 40.6945 118.072 41.109C118.411 41.5235 118.59 41.9851 118.609 42.4938C118.646 42.9837 118.515 43.4359 118.213 43.8504C117.93 44.2649 117.507 44.4722 116.941 44.4722C116.583 44.4722 116.291 44.4251 116.065 44.3309C115.858 44.2367 115.669 44.1425 115.5 44.0483C115.33 43.9352 115.161 43.8316 114.991 43.7374C114.84 43.6432 114.633 43.5961 114.369 43.5961C114.219 43.5961 114.049 43.6338 113.861 43.7091C113.691 43.7845 113.531 43.9541 113.38 44.2178C114.699 44.6889 115.773 45.386 116.602 46.3092C117.45 47.2325 117.874 48.297 117.874 49.5028C117.874 50.3507 117.686 51.142 117.309 51.8769C116.951 52.6117 116.442 53.2429 115.783 53.7704C115.142 54.298 114.388 54.7125 113.522 55.014C112.655 55.3154 111.722 55.4661 110.724 55.4661C110.027 55.4661 109.348 55.3625 108.689 55.1553C108.029 54.948 107.473 54.6936 107.021 54.3922C106.4 54.7502 106.089 55.1082 106.089 55.4661C106.089 55.7676 106.381 55.956 106.965 56.0314C107.568 56.0879 108.312 56.1256 109.197 56.1444C110.083 56.1444 111.044 56.1727 112.08 56.2292C113.116 56.2669 114.077 56.4271 114.963 56.7097C115.848 56.9735 116.583 57.3974 117.167 57.9815C117.77 58.5656 118.072 59.3946 118.072 60.4685C118.072 61.1657 117.902 61.8157 117.563 62.4186C117.243 63.0215 116.762 63.5397 116.122 63.973C115.5 64.4064 114.727 64.7455 113.804 64.9905C112.9 65.2542 111.873 65.3861 110.724 65.3861C109.744 65.3861 108.839 65.3014 108.01 65.1318C107.181 64.981 106.465 64.755 105.863 64.4535C105.26 64.152 104.779 63.7752 104.421 63.323C104.082 62.8897 103.912 62.3809 103.912 61.7969C103.912 60.5156 104.553 59.6584 105.834 59.225ZM108.915 49.5876C108.915 50.5674 108.962 51.3964 109.056 52.0747C109.169 52.7341 109.311 53.2711 109.48 53.6856C109.669 54.0813 109.885 54.3639 110.13 54.5335C110.375 54.7031 110.639 54.7879 110.921 54.7879C111.204 54.7879 111.468 54.7031 111.713 54.5335C111.958 54.3639 112.165 54.0813 112.335 53.6856C112.523 53.2711 112.664 52.7341 112.759 52.0747C112.872 51.3964 112.928 50.5674 112.928 49.5876C112.928 48.6079 112.872 47.7883 112.759 47.1288C112.664 46.4694 112.523 45.9418 112.335 45.5462C112.165 45.1316 111.958 44.8396 111.713 44.67C111.468 44.4816 111.204 44.3874 110.921 44.3874C110.639 44.3874 110.375 44.4816 110.13 44.67C109.885 44.8396 109.669 45.1316 109.48 45.5462C109.311 45.9418 109.169 46.4694 109.056 47.1288C108.962 47.7883 108.915 48.6079 108.915 49.5876ZM108.18 59.9316C107.954 60.2142 107.775 60.5627 107.643 60.9773C107.53 61.3918 107.473 61.7969 107.473 62.1925C107.473 62.9273 107.775 63.5397 108.378 64.0296C108.981 64.5194 109.782 64.7644 110.78 64.7644C111.854 64.7644 112.702 64.5289 113.324 64.0578C113.964 63.5868 114.285 63.031 114.285 62.3904C114.285 61.957 114.096 61.6084 113.719 61.3447C113.343 61.0997 112.862 60.8925 112.278 60.7229C111.694 60.5533 111.035 60.412 110.3 60.299C109.584 60.2048 108.877 60.0823 108.18 59.9316Z" fill="white"/>
</g>
<defs>
<filter id="filter0_d_93_375" x="0.830922" y="0.521331" width="179.063" height="73.2052" filterUnits="userSpaceOnUse" color-interpolation-filters="sRGB">
<feFlood flood-opacity="0" result="BackgroundImageFix"/>
<feColorMatrix in="SourceAlpha" type="matrix" values="0 0 0 0 0 0 0 0 0 0 0 0 0 0 0 0 0 0 127 0" result="hardAlpha"/>
<feOffset dy="1.02967"/>
<feGaussianBlur stdDeviation="3.65534"/>
<feComposite in2="hardAlpha" operator="out"/>
<feColorMatrix type="matrix" values="0 0 0 0 0 0 0 0 0 0 0 0 0 0 0 0 0 0 0.25 0"/>
<feBlend mode="normal" in2="BackgroundImageFix" result="effect1_dropShadow_93_375"/>
<feBlend mode="normal" in="SourceGraphic" in2="effect1_dropShadow_93_375" result="shape"/>
</filter>
</defs>
</svg>
