<svg width="177" height="47" viewBox="0 0 177 47" fill="none" xmlns="http://www.w3.org/2000/svg">
<rect width="166" height="47" rx="23.5" fill="#ABC937"/>
<path d="M59.1345 18.268V20.46H56.1585V29.5H53.4225V20.46H50.4465V18.268H59.1345ZM63.2436 22.06C63.5636 21.5693 63.9636 21.1853 64.4436 20.908C64.9236 20.62 65.457 20.476 66.0436 20.476V23.372H65.2916C64.609 23.372 64.097 23.5213 63.7556 23.82C63.4143 24.108 63.2436 24.62 63.2436 25.356V29.5H60.5076V20.572H63.2436V22.06ZM76.4714 20.572L70.8714 33.74H67.9274L69.9754 29.196L66.3434 20.572H69.3994L71.4634 26.156L73.5114 20.572H76.4714ZM90.8994 29.5H88.1634L83.5874 22.572V29.5H80.8514V18.268H83.5874L88.1634 25.228V18.268H90.8994V29.5ZM96.9466 29.628C96.072 29.628 95.2826 29.4413 94.5786 29.068C93.8853 28.6947 93.336 28.1613 92.9306 27.468C92.536 26.7747 92.3386 25.964 92.3386 25.036C92.3386 24.1187 92.5413 23.3133 92.9466 22.62C93.352 21.916 93.9066 21.3773 94.6106 21.004C95.3146 20.6307 96.104 20.444 96.9786 20.444C97.8533 20.444 98.6426 20.6307 99.3466 21.004C100.051 21.3773 100.605 21.916 101.011 22.62C101.416 23.3133 101.619 24.1187 101.619 25.036C101.619 25.9533 101.411 26.764 100.995 27.468C100.589 28.1613 100.029 28.6947 99.3146 29.068C98.6106 29.4413 97.8213 29.628 96.9466 29.628ZM96.9466 27.26C97.4693 27.26 97.912 27.068 98.2746 26.684C98.648 26.3 98.8346 25.7507 98.8346 25.036C98.8346 24.3213 98.6533 23.772 98.2906 23.388C97.9386 23.004 97.5013 22.812 96.9786 22.812C96.4453 22.812 96.0026 23.004 95.6506 23.388C95.2986 23.7613 95.1226 24.3107 95.1226 25.036C95.1226 25.7507 95.2933 26.3 95.6346 26.684C95.9866 27.068 96.424 27.26 96.9466 27.26ZM115.886 20.572L113.47 29.5H110.446L109.038 23.708L107.582 29.5H104.574L102.142 20.572H104.878L106.142 26.956L107.646 20.572H110.542L112.062 26.924L113.31 20.572H115.886Z" fill="white"/>
<circle cx="162" cy="23" r="15" fill="#FEC81D" fill-opacity="0.9"/>
<g clip-path="url(#clip0_430_1353)">
<path d="M161.598 28.3033L166.312 23.5893C166.468 23.433 166.557 23.2226 166.56 23.0044C166.563 22.7863 166.479 22.5782 166.327 22.4259L161.734 17.833C161.62 17.7191 161.475 17.6424 161.315 17.6125C161.156 17.5827 160.99 17.601 160.839 17.6653C160.688 17.7295 160.558 17.8368 160.465 17.9735C160.373 18.1102 160.323 18.2701 160.321 18.433L160.272 22.264L133.174 22.6157L133.153 24.263L160.251 23.909L160.2 27.7399C160.197 27.9028 160.244 28.0615 160.332 28.1958C160.421 28.3302 160.548 28.4341 160.698 28.4944C160.848 28.5548 161.013 28.5688 161.173 28.5348C161.333 28.5008 161.481 28.4202 161.598 28.3033Z" fill="white"/>
</g>
<defs>
<clipPath id="clip0_430_1353">
<rect width="25" height="24.3573" fill="white" transform="translate(166.901 23) rotate(135)"/>
</clipPath>
</defs>
</svg>
