<svg width="490" height="113" viewBox="0 0 490 113" fill="none" xmlns="http://www.w3.org/2000/svg">
<path d="M19.35 90.99C15.33 90.99 11.82 90.27 8.82 88.83C5.88 87.33 3.36 85.26 1.26 82.62L10.71 73.53C11.79 75.03 13.05 76.17 14.49 76.95C15.99 77.73 17.67 78.12 19.53 78.12C21.33 78.12 22.89 77.76 24.21 77.04C25.53 76.26 26.58 75.18 27.36 73.8C28.14 72.36 28.53 70.59 28.53 68.49V26.46H42.75V67.68C42.75 72.42 41.79 76.53 39.87 80.01C37.95 83.49 35.25 86.19 31.77 88.11C28.29 90.03 24.15 90.99 19.35 90.99ZM73.1004 90.99C69.0804 90.99 65.5104 90.18 62.3904 88.56C59.3304 86.88 56.9304 84.6 55.1904 81.72C53.4504 78.78 52.5804 75.42 52.5804 71.64V46.26H66.3504V71.46C66.3504 72.96 66.5904 74.25 67.0704 75.33C67.6104 76.41 68.3904 77.25 69.4104 77.85C70.4304 78.45 71.6604 78.75 73.1004 78.75C75.1404 78.75 76.7604 78.12 77.9604 76.86C79.1604 75.54 79.7604 73.74 79.7604 71.46V46.26H93.5304V71.55C93.5304 75.39 92.6604 78.78 90.9204 81.72C89.1804 84.6 86.7804 86.88 83.7204 88.56C80.6604 90.18 77.1204 90.99 73.1004 90.99ZM103.076 90V46.26H116.846V90H103.076ZM110.006 40.23C107.846 40.23 106.046 39.51 104.606 38.07C103.226 36.57 102.536 34.77 102.536 32.67C102.536 30.51 103.226 28.71 104.606 27.27C106.046 25.83 107.846 25.11 110.006 25.11C112.166 25.11 113.936 25.83 115.316 27.27C116.696 28.71 117.386 30.51 117.386 32.67C117.386 34.77 116.696 36.57 115.316 38.07C113.936 39.51 112.166 40.23 110.006 40.23ZM148.593 90.99C144.093 90.99 140.013 90 136.353 88.02C132.693 86.04 129.813 83.31 127.713 79.83C125.613 76.35 124.563 72.45 124.563 68.13C124.563 63.75 125.613 59.85 127.713 56.43C129.873 52.95 132.783 50.22 136.443 48.24C140.103 46.26 144.213 45.27 148.773 45.27C152.193 45.27 155.313 45.87 158.133 47.07C161.013 48.21 163.563 49.95 165.783 52.29L156.963 61.11C155.943 59.97 154.743 59.13 153.363 58.59C152.043 58.05 150.513 57.78 148.773 57.78C146.793 57.78 145.023 58.23 143.463 59.13C141.963 59.97 140.763 61.17 139.863 62.73C139.023 64.23 138.603 66 138.603 68.04C138.603 70.08 139.023 71.88 139.863 73.44C140.763 75 141.993 76.23 143.553 77.13C145.113 78.03 146.853 78.48 148.773 78.48C150.573 78.48 152.163 78.18 153.543 77.58C154.983 76.92 156.213 76.02 157.233 74.88L165.963 83.7C163.683 86.1 161.103 87.93 158.223 89.19C155.343 90.39 152.133 90.99 148.593 90.99ZM193.537 90.99C188.797 90.99 184.567 90.03 180.847 88.11C177.187 86.13 174.307 83.4 172.207 79.92C170.107 76.44 169.057 72.51 169.057 68.13C169.057 63.75 170.077 59.85 172.117 56.43C174.217 52.95 177.037 50.22 180.577 48.24C184.117 46.26 188.107 45.27 192.547 45.27C196.867 45.27 200.677 46.2 203.977 48.06C207.277 49.92 209.857 52.5 211.717 55.8C213.637 59.1 214.597 62.88 214.597 67.14C214.597 67.92 214.537 68.76 214.417 69.66C214.357 70.5 214.207 71.49 213.967 72.63L176.257 72.72V63.27L208.117 63.18L202.177 67.14C202.117 64.62 201.727 62.55 201.007 60.93C200.287 59.25 199.207 57.99 197.767 57.15C196.387 56.25 194.677 55.8 192.637 55.8C190.477 55.8 188.587 56.31 186.967 57.33C185.407 58.29 184.177 59.67 183.277 61.47C182.437 63.27 182.017 65.46 182.017 68.04C182.017 70.62 182.467 72.84 183.367 74.7C184.327 76.5 185.647 77.91 187.327 78.93C189.067 79.89 191.107 80.37 193.447 80.37C195.607 80.37 197.557 80.01 199.297 79.29C201.037 78.51 202.567 77.37 203.887 75.87L211.447 83.43C209.287 85.95 206.677 87.84 203.617 89.1C200.557 90.36 197.197 90.99 193.537 90.99Z" fill="black"/>
<path d="M223.403 90V26.46H237.533V90H223.403ZM234.293 90V77.58H265.703V90H234.293ZM291.059 90.9C287.039 90.9 283.439 89.91 280.259 87.93C277.139 85.95 274.649 83.25 272.789 79.83C270.989 76.41 270.089 72.51 270.089 68.13C270.089 63.75 270.989 59.85 272.789 56.43C274.649 53.01 277.139 50.31 280.259 48.33C283.439 46.35 287.039 45.36 291.059 45.36C293.999 45.36 296.639 45.93 298.979 47.07C301.379 48.21 303.329 49.8 304.829 51.84C306.329 53.82 307.169 56.1 307.349 58.68V77.58C307.169 80.16 306.329 82.47 304.829 84.51C303.389 86.49 301.469 88.05 299.069 89.19C296.669 90.33 293.999 90.9 291.059 90.9ZM293.849 78.48C296.789 78.48 299.159 77.52 300.959 75.6C302.759 73.62 303.659 71.13 303.659 68.13C303.659 66.09 303.239 64.29 302.399 62.73C301.619 61.17 300.479 59.97 298.979 59.13C297.539 58.23 295.859 57.78 293.939 57.78C292.019 57.78 290.309 58.23 288.809 59.13C287.369 59.97 286.199 61.17 285.299 62.73C284.459 64.29 284.039 66.09 284.039 68.13C284.039 70.11 284.459 71.88 285.299 73.44C286.139 75 287.309 76.23 288.809 77.13C290.309 78.03 291.989 78.48 293.849 78.48ZM303.119 90V78.21L305.189 67.59L303.119 56.97V46.26H316.619V90H303.119ZM352.415 90.9C349.475 90.9 346.775 90.3 344.315 89.1C341.855 87.84 339.845 86.19 338.285 84.15C336.725 82.05 335.825 79.71 335.585 77.13V58.68C335.825 56.1 336.725 53.82 338.285 51.84C339.845 49.8 341.855 48.21 344.315 47.07C346.775 45.93 349.475 45.36 352.415 45.36C356.555 45.36 360.215 46.35 363.395 48.33C366.635 50.31 369.155 53.01 370.955 56.43C372.815 59.85 373.745 63.75 373.745 68.13C373.745 72.51 372.815 76.41 370.955 79.83C369.155 83.25 366.635 85.95 363.395 87.93C360.215 89.91 356.555 90.9 352.415 90.9ZM327.215 90V24.66H340.985V56.97L338.735 67.59L340.805 78.21V90H327.215ZM349.985 78.48C351.905 78.48 353.585 78.03 355.025 77.13C356.525 76.23 357.695 75 358.535 73.44C359.375 71.88 359.795 70.11 359.795 68.13C359.795 66.09 359.375 64.29 358.535 62.73C357.695 61.17 356.525 59.97 355.025 59.13C353.585 58.23 351.905 57.78 349.985 57.78C348.065 57.78 346.355 58.23 344.855 59.13C343.355 59.97 342.185 61.17 341.345 62.73C340.565 64.29 340.175 66.09 340.175 68.13C340.175 70.17 340.595 71.97 341.435 73.53C342.275 75.09 343.415 76.32 344.855 77.22C346.355 78.06 348.065 78.48 349.985 78.48Z" fill="#ABC937"/>
</svg>
