<svg width="386" height="101" viewBox="0 0 386 101" fill="none" xmlns="http://www.w3.org/2000/svg">
<path d="M3.36 14.52H8.24V16H1.54V2.06H3.36V14.52ZM20.1728 10.1C20.1728 10.4467 20.1528 10.8133 20.1128 11.2H11.3528C11.4195 12.28 11.7861 13.1267 12.4528 13.74C13.1328 14.34 13.9528 14.64 14.9128 14.64C15.6995 14.64 16.3528 14.46 16.8728 14.1C17.4061 13.7267 17.7795 13.2333 17.9928 12.62H19.9528C19.6595 13.6733 19.0728 14.5333 18.1928 15.2C17.3128 15.8533 16.2195 16.18 14.9128 16.18C13.8728 16.18 12.9395 15.9467 12.1128 15.48C11.2995 15.0133 10.6595 14.3533 10.1928 13.5C9.72615 12.6333 9.49281 11.6333 9.49281 10.5C9.49281 9.36667 9.71948 8.37333 10.1728 7.52C10.6261 6.66667 11.2595 6.01333 12.0728 5.56C12.8995 5.09333 13.8461 4.86 14.9128 4.86C15.9528 4.86 16.8728 5.08667 17.6728 5.54C18.4728 5.99333 19.0861 6.62 19.5128 7.42C19.9528 8.20667 20.1728 9.1 20.1728 10.1ZM18.2928 9.72C18.2928 9.02667 18.1395 8.43333 17.8328 7.94C17.5261 7.43333 17.1061 7.05333 16.5728 6.8C16.0528 6.53333 15.4728 6.4 14.8328 6.4C13.9128 6.4 13.1261 6.69333 12.4728 7.28C11.8328 7.86667 11.4661 8.68 11.3728 9.72H18.2928ZM24.7952 6.54V13C24.7952 13.5333 24.9085 13.9133 25.1352 14.14C25.3618 14.3533 25.7552 14.46 26.3152 14.46H27.6552V16H26.0152C25.0018 16 24.2418 15.7667 23.7352 15.3C23.2285 14.8333 22.9752 14.0667 22.9752 13V6.54H21.5552V5.04H22.9752V2.28H24.7952V5.04H27.6552V6.54H24.7952ZM30.1403 2.06H32.1603L30.2403 6.6H28.9603L30.1403 2.06ZM38.1153 16.18C37.2753 16.18 36.522 16.04 35.8553 15.76C35.1886 15.4667 34.662 15.0667 34.2753 14.56C33.8886 14.04 33.6753 13.4467 33.6353 12.78H35.5153C35.5686 13.3267 35.822 13.7733 36.2753 14.12C36.742 14.4667 37.3486 14.64 38.0953 14.64C38.7886 14.64 39.3353 14.4867 39.7353 14.18C40.1353 13.8733 40.3353 13.4867 40.3353 13.02C40.3353 12.54 40.122 12.1867 39.6953 11.96C39.2686 11.72 38.6086 11.4867 37.7153 11.26C36.902 11.0467 36.2353 10.8333 35.7153 10.62C35.2086 10.3933 34.7686 10.0667 34.3953 9.64C34.0353 9.2 33.8553 8.62667 33.8553 7.92C33.8553 7.36 34.022 6.84667 34.3553 6.38C34.6886 5.91333 35.162 5.54667 35.7753 5.28C36.3886 5 37.0886 4.86 37.8753 4.86C39.0886 4.86 40.0686 5.16667 40.8153 5.78C41.562 6.39333 41.962 7.23333 42.0153 8.3H40.1953C40.1553 7.72667 39.922 7.26667 39.4953 6.92C39.082 6.57333 38.522 6.4 37.8153 6.4C37.162 6.4 36.642 6.54 36.2553 6.82C35.8686 7.1 35.6753 7.46667 35.6753 7.92C35.6753 8.28 35.7886 8.58 36.0153 8.82C36.2553 9.04667 36.5486 9.23333 36.8953 9.38C37.2553 9.51333 37.7486 9.66667 38.3753 9.84C39.162 10.0533 39.802 10.2667 40.2953 10.48C40.7886 10.68 41.2086 10.9867 41.5553 11.4C41.9153 11.8133 42.102 12.3533 42.1153 13.02C42.1153 13.62 41.9486 14.16 41.6153 14.64C41.282 15.12 40.8086 15.5 40.1953 15.78C39.5953 16.0467 38.902 16.18 38.1153 16.18ZM63.1966 4.84C64.0499 4.84 64.8099 5.02 65.4766 5.38C66.1432 5.72667 66.6699 6.25333 67.0566 6.96C67.4432 7.66667 67.6366 8.52667 67.6366 9.54V16H65.8366V9.8C65.8366 8.70667 65.5632 7.87333 65.0166 7.3C64.4832 6.71333 63.7566 6.42 62.8366 6.42C61.8899 6.42 61.1366 6.72667 60.5766 7.34C60.0166 7.94 59.7366 8.81333 59.7366 9.96V16H57.9366V9.8C57.9366 8.70667 57.6632 7.87333 57.1166 7.3C56.5832 6.71333 55.8566 6.42 54.9366 6.42C53.9899 6.42 53.2366 6.72667 52.6766 7.34C52.1166 7.94 51.8366 8.81333 51.8366 9.96V16H50.0166V5.04H51.8366V6.62C52.1966 6.04667 52.6766 5.60667 53.2766 5.3C53.8899 4.99333 54.5632 4.84 55.2966 4.84C56.2166 4.84 57.0299 5.04667 57.7366 5.46C58.4432 5.87333 58.9699 6.48 59.3166 7.28C59.6232 6.50667 60.1299 5.90667 60.8366 5.48C61.5432 5.05333 62.3299 4.84 63.1966 4.84ZM71.562 3.26C71.2154 3.26 70.922 3.14 70.682 2.9C70.442 2.66 70.322 2.36667 70.322 2.02C70.322 1.67333 70.442 1.38 70.682 1.14C70.922 0.899999 71.2154 0.779999 71.562 0.779999C71.8954 0.779999 72.1754 0.899999 72.402 1.14C72.642 1.38 72.762 1.67333 72.762 2.02C72.762 2.36667 72.642 2.66 72.402 2.9C72.1754 3.14 71.8954 3.26 71.562 3.26ZM72.442 5.04V16H70.622V5.04H72.442ZM81.2639 16L78.6639 11.92L76.1639 16H74.2639L77.8039 10.56L74.2639 5.04H76.3239L78.9239 9.1L81.4039 5.04H83.3039L79.7839 10.46L83.3239 16H81.2639ZM91.3863 3.26C91.0396 3.26 90.7463 3.14 90.5063 2.9C90.2663 2.66 90.1463 2.36667 90.1463 2.02C90.1463 1.67333 90.2663 1.38 90.5063 1.14C90.7463 0.899999 91.0396 0.779999 91.3863 0.779999C91.7196 0.779999 91.9996 0.899999 92.2263 1.14C92.4663 1.38 92.5863 1.67333 92.5863 2.02C92.5863 2.36667 92.4663 2.66 92.2263 2.9C91.9996 3.14 91.7196 3.26 91.3863 3.26ZM92.2663 5.04V16H90.4463V5.04H92.2663ZM97.5881 6.54V13C97.5881 13.5333 97.7015 13.9133 97.9281 14.14C98.1548 14.3533 98.5481 14.46 99.1081 14.46H100.448V16H98.8081C97.7948 16 97.0348 15.7667 96.5281 15.3C96.0215 14.8333 95.7681 14.0667 95.7681 13V6.54H94.3481V5.04H95.7681V2.28H97.5881V5.04H100.448V6.54H97.5881ZM117.425 5.04L110.825 21.16H108.945L111.105 15.88L106.685 5.04H108.705L112.145 13.92L115.545 5.04H117.425ZM124.035 16.18C123.008 16.18 122.075 15.9467 121.235 15.48C120.408 15.0133 119.755 14.3533 119.275 13.5C118.808 12.6333 118.575 11.6333 118.575 10.5C118.575 9.38 118.815 8.39333 119.295 7.54C119.788 6.67333 120.455 6.01333 121.295 5.56C122.135 5.09333 123.075 4.86 124.115 4.86C125.155 4.86 126.095 5.09333 126.935 5.56C127.775 6.01333 128.435 6.66667 128.915 7.52C129.408 8.37333 129.655 9.36667 129.655 10.5C129.655 11.6333 129.402 12.6333 128.895 13.5C128.402 14.3533 127.728 15.0133 126.875 15.48C126.022 15.9467 125.075 16.18 124.035 16.18ZM124.035 14.58C124.688 14.58 125.302 14.4267 125.875 14.12C126.448 13.8133 126.908 13.3533 127.255 12.74C127.615 12.1267 127.795 11.38 127.795 10.5C127.795 9.62 127.622 8.87333 127.275 8.26C126.928 7.64667 126.475 7.19333 125.915 6.9C125.355 6.59333 124.748 6.44 124.095 6.44C123.428 6.44 122.815 6.59333 122.255 6.9C121.708 7.19333 121.268 7.64667 120.935 8.26C120.602 8.87333 120.435 9.62 120.435 10.5C120.435 11.3933 120.595 12.1467 120.915 12.76C121.248 13.3733 121.688 13.8333 122.235 14.14C122.782 14.4333 123.382 14.58 124.035 14.58ZM141.768 5.04V16H139.948V14.38C139.601 14.94 139.114 15.38 138.488 15.7C137.874 16.0067 137.194 16.16 136.448 16.16C135.594 16.16 134.828 15.9867 134.148 15.64C133.468 15.28 132.928 14.7467 132.528 14.04C132.141 13.3333 131.948 12.4733 131.948 11.46V5.04H133.748V11.22C133.748 12.3 134.021 13.1333 134.568 13.72C135.114 14.2933 135.861 14.58 136.808 14.58C137.781 14.58 138.548 14.28 139.108 13.68C139.668 13.08 139.948 12.2067 139.948 11.06V5.04H141.768ZM146.661 6.82C146.981 6.19333 147.434 5.70667 148.021 5.36C148.621 5.01333 149.347 4.84 150.201 4.84V6.72H149.721C147.681 6.72 146.661 7.82667 146.661 10.04V16H144.841V5.04H146.661V6.82ZM172.234 5.04L168.814 16H166.934L164.294 7.3L161.654 16H159.774L156.334 5.04H158.194L160.714 14.24L163.434 5.04H165.294L167.954 14.26L170.434 5.04H172.234ZM173.36 10.48C173.36 9.36 173.587 8.38 174.04 7.54C174.493 6.68667 175.113 6.02667 175.9 5.56C176.7 5.09333 177.587 4.86 178.56 4.86C179.52 4.86 180.353 5.06667 181.06 5.48C181.767 5.89333 182.293 6.41333 182.64 7.04V5.04H184.48V16H182.64V13.96C182.28 14.6 181.74 15.1333 181.02 15.56C180.313 15.9733 179.487 16.18 178.54 16.18C177.567 16.18 176.687 15.94 175.9 15.46C175.113 14.98 174.493 14.3067 174.04 13.44C173.587 12.5733 173.36 11.5867 173.36 10.48ZM182.64 10.5C182.64 9.67333 182.473 8.95333 182.14 8.34C181.807 7.72667 181.353 7.26 180.78 6.94C180.22 6.60667 179.6 6.44 178.92 6.44C178.24 6.44 177.62 6.6 177.06 6.92C176.5 7.24 176.053 7.70667 175.72 8.32C175.387 8.93333 175.22 9.65333 175.22 10.48C175.22 11.32 175.387 12.0533 175.72 12.68C176.053 13.2933 176.5 13.7667 177.06 14.1C177.62 14.42 178.24 14.58 178.92 14.58C179.6 14.58 180.22 14.42 180.78 14.1C181.353 13.7667 181.807 13.2933 182.14 12.68C182.473 12.0533 182.64 11.3267 182.64 10.5ZM196.996 5.04L190.396 21.16H188.516L190.676 15.88L186.256 5.04H188.276L191.716 13.92L195.116 5.04H196.996ZM201.185 2.06L200.965 12.06H199.445L199.225 2.06H201.185ZM200.285 16.12C199.938 16.12 199.645 16 199.405 15.76C199.165 15.52 199.045 15.2267 199.045 14.88C199.045 14.5333 199.165 14.24 199.405 14C199.645 13.76 199.938 13.64 200.285 13.64C200.618 13.64 200.898 13.76 201.125 14C201.365 14.24 201.485 14.5333 201.485 14.88C201.485 15.2267 201.365 15.52 201.125 15.76C200.898 16 200.618 16.12 200.285 16.12ZM209.434 9.02C209.434 7.66 209.741 6.44 210.354 5.36C210.968 4.26667 211.801 3.41333 212.854 2.8C213.921 2.18667 215.101 1.88 216.394 1.88C217.914 1.88 219.241 2.24667 220.374 2.98C221.508 3.71333 222.334 4.75333 222.854 6.1H220.674C220.288 5.26 219.728 4.61333 218.994 4.16C218.274 3.70667 217.408 3.48 216.394 3.48C215.421 3.48 214.548 3.70667 213.774 4.16C213.001 4.61333 212.394 5.26 211.954 6.1C211.514 6.92667 211.294 7.9 211.294 9.02C211.294 10.1267 211.514 11.1 211.954 11.94C212.394 12.7667 213.001 13.4067 213.774 13.86C214.548 14.3133 215.421 14.54 216.394 14.54C217.408 14.54 218.274 14.32 218.994 13.88C219.728 13.4267 220.288 12.78 220.674 11.94H222.854C222.334 13.2733 221.508 14.3067 220.374 15.04C219.241 15.76 217.914 16.12 216.394 16.12C215.101 16.12 213.921 15.82 212.854 15.22C211.801 14.6067 210.968 13.76 210.354 12.68C209.741 11.6 209.434 10.38 209.434 9.02ZM230.343 16.18C229.317 16.18 228.383 15.9467 227.543 15.48C226.717 15.0133 226.063 14.3533 225.583 13.5C225.117 12.6333 224.883 11.6333 224.883 10.5C224.883 9.38 225.123 8.39333 225.603 7.54C226.097 6.67333 226.763 6.01333 227.603 5.56C228.443 5.09333 229.383 4.86 230.423 4.86C231.463 4.86 232.403 5.09333 233.243 5.56C234.083 6.01333 234.743 6.66667 235.223 7.52C235.717 8.37333 235.963 9.36667 235.963 10.5C235.963 11.6333 235.71 12.6333 235.203 13.5C234.71 14.3533 234.037 15.0133 233.183 15.48C232.33 15.9467 231.383 16.18 230.343 16.18ZM230.343 14.58C230.997 14.58 231.61 14.4267 232.183 14.12C232.757 13.8133 233.217 13.3533 233.563 12.74C233.923 12.1267 234.103 11.38 234.103 10.5C234.103 9.62 233.93 8.87333 233.583 8.26C233.237 7.64667 232.783 7.19333 232.223 6.9C231.663 6.59333 231.057 6.44 230.403 6.44C229.737 6.44 229.123 6.59333 228.563 6.9C228.017 7.19333 227.577 7.64667 227.243 8.26C226.91 8.87333 226.743 9.62 226.743 10.5C226.743 11.3933 226.903 12.1467 227.223 12.76C227.557 13.3733 227.997 13.8333 228.543 14.14C229.09 14.4333 229.69 14.58 230.343 14.58ZM251.536 4.84C252.39 4.84 253.15 5.02 253.816 5.38C254.483 5.72667 255.01 6.25333 255.396 6.96C255.783 7.66667 255.976 8.52667 255.976 9.54V16H254.176V9.8C254.176 8.70667 253.903 7.87333 253.356 7.3C252.823 6.71333 252.096 6.42 251.176 6.42C250.23 6.42 249.476 6.72667 248.916 7.34C248.356 7.94 248.076 8.81333 248.076 9.96V16H246.276V9.8C246.276 8.70667 246.003 7.87333 245.456 7.3C244.923 6.71333 244.196 6.42 243.276 6.42C242.33 6.42 241.576 6.72667 241.016 7.34C240.456 7.94 240.176 8.81333 240.176 9.96V16H238.356V5.04H240.176V6.62C240.536 6.04667 241.016 5.60667 241.616 5.3C242.23 4.99333 242.903 4.84 243.636 4.84C244.556 4.84 245.37 5.04667 246.076 5.46C246.783 5.87333 247.31 6.48 247.656 7.28C247.963 6.50667 248.47 5.90667 249.176 5.48C249.883 5.05333 250.67 4.84 251.536 4.84ZM260.782 7.08C261.155 6.42667 261.702 5.89333 262.422 5.48C263.142 5.06667 263.962 4.86 264.882 4.86C265.869 4.86 266.755 5.09333 267.542 5.56C268.329 6.02667 268.949 6.68667 269.402 7.54C269.855 8.38 270.082 9.36 270.082 10.48C270.082 11.5867 269.855 12.5733 269.402 13.44C268.949 14.3067 268.322 14.98 267.522 15.46C266.735 15.94 265.855 16.18 264.882 16.18C263.935 16.18 263.102 15.9733 262.382 15.56C261.675 15.1467 261.142 14.62 260.782 13.98V16H258.962V1.2H260.782V7.08ZM268.222 10.48C268.222 9.65333 268.055 8.93333 267.722 8.32C267.389 7.70667 266.935 7.24 266.362 6.92C265.802 6.6 265.182 6.44 264.502 6.44C263.835 6.44 263.215 6.60667 262.642 6.94C262.082 7.26 261.629 7.73333 261.282 8.36C260.949 8.97333 260.782 9.68667 260.782 10.5C260.782 11.3267 260.949 12.0533 261.282 12.68C261.629 13.2933 262.082 13.7667 262.642 14.1C263.215 14.42 263.835 14.58 264.502 14.58C265.182 14.58 265.802 14.42 266.362 14.1C266.935 13.7667 267.389 13.2933 267.722 12.68C268.055 12.0533 268.222 11.32 268.222 10.48ZM273.418 3.26C273.071 3.26 272.778 3.14 272.538 2.9C272.298 2.66 272.178 2.36667 272.178 2.02C272.178 1.67333 272.298 1.38 272.538 1.14C272.778 0.899999 273.071 0.779999 273.418 0.779999C273.751 0.779999 274.031 0.899999 274.258 1.14C274.498 1.38 274.618 1.67333 274.618 2.02C274.618 2.36667 274.498 2.66 274.258 2.9C274.031 3.14 273.751 3.26 273.418 3.26ZM274.298 5.04V16H272.478V5.04H274.298ZM282.739 4.84C284.073 4.84 285.153 5.24667 285.979 6.06C286.806 6.86 287.219 8.02 287.219 9.54V16H285.419V9.8C285.419 8.70667 285.146 7.87333 284.599 7.3C284.053 6.71333 283.306 6.42 282.359 6.42C281.399 6.42 280.633 6.72 280.059 7.32C279.499 7.92 279.219 8.79333 279.219 9.94V16H277.399V5.04H279.219V6.6C279.579 6.04 280.066 5.60667 280.679 5.3C281.306 4.99333 281.993 4.84 282.739 4.84ZM300.192 10.1C300.192 10.4467 300.172 10.8133 300.132 11.2H291.372C291.439 12.28 291.806 13.1267 292.472 13.74C293.152 14.34 293.972 14.64 294.932 14.64C295.719 14.64 296.372 14.46 296.892 14.1C297.426 13.7267 297.799 13.2333 298.012 12.62H299.972C299.679 13.6733 299.092 14.5333 298.212 15.2C297.332 15.8533 296.239 16.18 294.932 16.18C293.892 16.18 292.959 15.9467 292.132 15.48C291.319 15.0133 290.679 14.3533 290.212 13.5C289.746 12.6333 289.512 11.6333 289.512 10.5C289.512 9.36667 289.739 8.37333 290.192 7.52C290.646 6.66667 291.279 6.01333 292.092 5.56C292.919 5.09333 293.866 4.86 294.932 4.86C295.972 4.86 296.892 5.08667 297.692 5.54C298.492 5.99333 299.106 6.62 299.532 7.42C299.972 8.20667 300.192 9.1 300.192 10.1ZM298.312 9.72C298.312 9.02667 298.159 8.43333 297.852 7.94C297.546 7.43333 297.126 7.05333 296.592 6.8C296.072 6.53333 295.492 6.4 294.852 6.4C293.932 6.4 293.146 6.69333 292.492 7.28C291.852 7.86667 291.486 8.68 291.392 9.72H298.312ZM310.147 6.54V13C310.147 13.5333 310.26 13.9133 310.487 14.14C310.713 14.3533 311.107 14.46 311.667 14.46H313.007V16H311.367C310.353 16 309.593 15.7667 309.087 15.3C308.58 14.8333 308.327 14.0667 308.327 13V6.54H306.907V5.04H308.327V2.28H310.147V5.04H313.007V6.54H310.147ZM320.652 4.84C321.479 4.84 322.225 5.02 322.892 5.38C323.559 5.72667 324.079 6.25333 324.452 6.96C324.839 7.66667 325.032 8.52667 325.032 9.54V16H323.232V9.8C323.232 8.70667 322.959 7.87333 322.412 7.3C321.865 6.71333 321.119 6.42 320.172 6.42C319.212 6.42 318.445 6.72 317.872 7.32C317.312 7.92 317.032 8.79333 317.032 9.94V16H315.212V1.2H317.032V6.6C317.392 6.04 317.885 5.60667 318.512 5.3C319.152 4.99333 319.865 4.84 320.652 4.84ZM329.825 6.82C330.145 6.19333 330.598 5.70667 331.185 5.36C331.785 5.01333 332.512 4.84 333.365 4.84V6.72H332.885C330.845 6.72 329.825 7.82667 329.825 10.04V16H328.005V5.04H329.825V6.82ZM345.466 10.1C345.466 10.4467 345.446 10.8133 345.406 11.2H336.646C336.712 12.28 337.079 13.1267 337.746 13.74C338.426 14.34 339.246 14.64 340.206 14.64C340.992 14.64 341.646 14.46 342.166 14.1C342.699 13.7267 343.072 13.2333 343.286 12.62H345.246C344.952 13.6733 344.366 14.5333 343.486 15.2C342.606 15.8533 341.512 16.18 340.206 16.18C339.166 16.18 338.232 15.9467 337.406 15.48C336.592 15.0133 335.952 14.3533 335.486 13.5C335.019 12.6333 334.786 11.6333 334.786 10.5C334.786 9.36667 335.012 8.37333 335.466 7.52C335.919 6.66667 336.552 6.01333 337.366 5.56C338.192 5.09333 339.139 4.86 340.206 4.86C341.246 4.86 342.166 5.08667 342.966 5.54C343.766 5.99333 344.379 6.62 344.806 7.42C345.246 8.20667 345.466 9.1 345.466 10.1ZM343.586 9.72C343.586 9.02667 343.432 8.43333 343.126 7.94C342.819 7.43333 342.399 7.05333 341.866 6.8C341.346 6.53333 340.766 6.4 340.126 6.4C339.206 6.4 338.419 6.69333 337.766 7.28C337.126 7.86667 336.759 8.68 336.666 9.72H343.586ZM357.868 10.1C357.868 10.4467 357.848 10.8133 357.808 11.2H349.048C349.115 12.28 349.481 13.1267 350.148 13.74C350.828 14.34 351.648 14.64 352.608 14.64C353.395 14.64 354.048 14.46 354.568 14.1C355.101 13.7267 355.475 13.2333 355.688 12.62H357.648C357.355 13.6733 356.768 14.5333 355.888 15.2C355.008 15.8533 353.915 16.18 352.608 16.18C351.568 16.18 350.635 15.9467 349.808 15.48C348.995 15.0133 348.355 14.3533 347.888 13.5C347.421 12.6333 347.188 11.6333 347.188 10.5C347.188 9.36667 347.415 8.37333 347.868 7.52C348.321 6.66667 348.955 6.01333 349.768 5.56C350.595 5.09333 351.541 4.86 352.608 4.86C353.648 4.86 354.568 5.08667 355.368 5.54C356.168 5.99333 356.781 6.62 357.208 7.42C357.648 8.20667 357.868 9.1 357.868 10.1ZM355.988 9.72C355.988 9.02667 355.835 8.43333 355.528 7.94C355.221 7.43333 354.801 7.05333 354.268 6.8C353.748 6.53333 353.168 6.4 352.528 6.4C351.608 6.4 350.821 6.69333 350.168 7.28C349.528 7.86667 349.161 8.68 349.068 9.72H355.988ZM6 34.54H3.7V44H1.88V34.54H0.46V33.04H1.88V32.26C1.88 31.0333 2.19333 30.14 2.82 29.58C3.46 29.0067 4.48 28.72 5.88 28.72V30.24C5.08 30.24 4.51333 30.4 4.18 30.72C3.86 31.0267 3.7 31.54 3.7 32.26V33.04H6V34.54ZM9.94203 34.82C10.262 34.1933 10.7154 33.7067 11.302 33.36C11.902 33.0133 12.6287 32.84 13.482 32.84V34.72H13.002C10.962 34.72 9.94203 35.8267 9.94203 38.04V44H8.12203V33.04H9.94203V34.82ZM25.303 33.04V44H23.483V42.38C23.1363 42.94 22.6496 43.38 22.023 43.7C21.4096 44.0067 20.7296 44.16 19.983 44.16C19.1296 44.16 18.363 43.9867 17.683 43.64C17.003 43.28 16.463 42.7467 16.063 42.04C15.6763 41.3333 15.483 40.4733 15.483 39.46V33.04H17.283V39.22C17.283 40.3 17.5563 41.1333 18.103 41.72C18.6496 42.2933 19.3963 42.58 20.343 42.58C21.3163 42.58 22.083 42.28 22.643 41.68C23.203 41.08 23.483 40.2067 23.483 39.06V33.04H25.303ZM29.3159 31.26C28.9693 31.26 28.6759 31.14 28.4359 30.9C28.1959 30.66 28.0759 30.3667 28.0759 30.02C28.0759 29.6733 28.1959 29.38 28.4359 29.14C28.6759 28.9 28.9693 28.78 29.3159 28.78C29.6493 28.78 29.9293 28.9 30.1559 29.14C30.3959 29.38 30.5159 29.6733 30.5159 30.02C30.5159 30.3667 30.3959 30.66 30.1559 30.9C29.9293 31.14 29.6493 31.26 29.3159 31.26ZM30.1959 33.04V44H28.3759V33.04H30.1959ZM35.5178 34.54V41C35.5178 41.5333 35.6311 41.9133 35.8578 42.14C36.0845 42.3533 36.4778 42.46 37.0378 42.46H38.3778V44H36.7378C35.7245 44 34.9645 43.7667 34.4578 43.3C33.9511 42.8333 33.6978 42.0667 33.6978 41V34.54H32.2778V33.04H33.6978V30.28H35.5178V33.04H38.3778V34.54H35.5178ZM44.463 44.18C43.623 44.18 42.8696 44.04 42.203 43.76C41.5363 43.4667 41.0096 43.0667 40.623 42.56C40.2363 42.04 40.023 41.4467 39.983 40.78H41.863C41.9163 41.3267 42.1696 41.7733 42.623 42.12C43.0896 42.4667 43.6963 42.64 44.443 42.64C45.1363 42.64 45.683 42.4867 46.083 42.18C46.483 41.8733 46.683 41.4867 46.683 41.02C46.683 40.54 46.4696 40.1867 46.043 39.96C45.6163 39.72 44.9563 39.4867 44.063 39.26C43.2496 39.0467 42.583 38.8333 42.063 38.62C41.5563 38.3933 41.1163 38.0667 40.743 37.64C40.383 37.2 40.203 36.6267 40.203 35.92C40.203 35.36 40.3696 34.8467 40.703 34.38C41.0363 33.9133 41.5096 33.5467 42.123 33.28C42.7363 33 43.4363 32.86 44.223 32.86C45.4363 32.86 46.4163 33.1667 47.163 33.78C47.9096 34.3933 48.3096 35.2333 48.363 36.3H46.543C46.503 35.7267 46.2696 35.2667 45.843 34.92C45.4296 34.5733 44.8696 34.4 44.163 34.4C43.5096 34.4 42.9896 34.54 42.603 34.82C42.2163 35.1 42.023 35.4667 42.023 35.92C42.023 36.28 42.1363 36.58 42.363 36.82C42.603 37.0467 42.8963 37.2333 43.243 37.38C43.603 37.5133 44.0963 37.6667 44.723 37.84C45.5096 38.0533 46.1496 38.2667 46.643 38.48C47.1363 38.68 47.5563 38.9867 47.903 39.4C48.263 39.8133 48.4496 40.3533 48.463 41.02C48.463 41.62 48.2963 42.16 47.963 42.64C47.6296 43.12 47.1563 43.5 46.543 43.78C45.943 44.0467 45.2496 44.18 44.463 44.18ZM58.5842 34.54V41C58.5842 41.5333 58.6976 41.9133 58.9242 42.14C59.1509 42.3533 59.5442 42.46 60.1042 42.46H61.4442V44H59.8042C58.7909 44 58.0309 43.7667 57.5242 43.3C57.0176 42.8333 56.7642 42.0667 56.7642 41V34.54H55.3442V33.04H56.7642V30.28H58.5842V33.04H61.4442V34.54H58.5842ZM68.4294 44.18C67.4027 44.18 66.4694 43.9467 65.6294 43.48C64.8027 43.0133 64.1494 42.3533 63.6694 41.5C63.2027 40.6333 62.9694 39.6333 62.9694 38.5C62.9694 37.38 63.2094 36.3933 63.6894 35.54C64.1827 34.6733 64.8494 34.0133 65.6894 33.56C66.5294 33.0933 67.4694 32.86 68.5094 32.86C69.5494 32.86 70.4894 33.0933 71.3294 33.56C72.1694 34.0133 72.8294 34.6667 73.3094 35.52C73.8027 36.3733 74.0494 37.3667 74.0494 38.5C74.0494 39.6333 73.796 40.6333 73.2894 41.5C72.796 42.3533 72.1227 43.0133 71.2694 43.48C70.416 43.9467 69.4694 44.18 68.4294 44.18ZM68.4294 42.58C69.0827 42.58 69.696 42.4267 70.2694 42.12C70.8427 41.8133 71.3027 41.3533 71.6494 40.74C72.0094 40.1267 72.1894 39.38 72.1894 38.5C72.1894 37.62 72.016 36.8733 71.6694 36.26C71.3227 35.6467 70.8694 35.1933 70.3094 34.9C69.7494 34.5933 69.1427 34.44 68.4894 34.44C67.8227 34.44 67.2094 34.5933 66.6494 34.9C66.1027 35.1933 65.6627 35.6467 65.3294 36.26C64.996 36.8733 64.8294 37.62 64.8294 38.5C64.8294 39.3933 64.9894 40.1467 65.3094 40.76C65.6427 41.3733 66.0827 41.8333 66.6294 42.14C67.176 42.4333 67.776 42.58 68.4294 42.58ZM81.0944 38.5C81.0944 37.3667 81.321 36.38 81.7744 35.54C82.2277 34.6867 82.8544 34.0267 83.6544 33.56C84.4677 33.0933 85.3944 32.86 86.4344 32.86C87.781 32.86 88.8877 33.1867 89.7544 33.84C90.6344 34.4933 91.2144 35.4 91.4944 36.56H89.5344C89.3477 35.8933 88.981 35.3667 88.4344 34.98C87.901 34.5933 87.2344 34.4 86.4344 34.4C85.3944 34.4 84.5544 34.76 83.9144 35.48C83.2744 36.1867 82.9544 37.1933 82.9544 38.5C82.9544 39.82 83.2744 40.84 83.9144 41.56C84.5544 42.28 85.3944 42.64 86.4344 42.64C87.2344 42.64 87.901 42.4533 88.4344 42.08C88.9677 41.7067 89.3344 41.1733 89.5344 40.48H91.4944C91.201 41.6 90.6144 42.5 89.7344 43.18C88.8544 43.8467 87.7544 44.18 86.4344 44.18C85.3944 44.18 84.4677 43.9467 83.6544 43.48C82.8544 43.0133 82.2277 42.3533 81.7744 41.5C81.321 40.6467 81.0944 39.6467 81.0944 38.5ZM95.7428 34.82C96.0628 34.1933 96.5161 33.7067 97.1028 33.36C97.7028 33.0133 98.4295 32.84 99.2828 32.84V34.72H98.8028C96.7628 34.72 95.7428 35.8267 95.7428 38.04V44H93.9228V33.04H95.7428V34.82ZM111.384 38.1C111.384 38.4467 111.364 38.8133 111.324 39.2H102.564C102.63 40.28 102.997 41.1267 103.664 41.74C104.344 42.34 105.164 42.64 106.124 42.64C106.91 42.64 107.564 42.46 108.084 42.1C108.617 41.7267 108.99 41.2333 109.204 40.62H111.164C110.87 41.6733 110.284 42.5333 109.404 43.2C108.524 43.8533 107.43 44.18 106.124 44.18C105.084 44.18 104.15 43.9467 103.324 43.48C102.51 43.0133 101.87 42.3533 101.404 41.5C100.937 40.6333 100.704 39.6333 100.704 38.5C100.704 37.3667 100.93 36.3733 101.384 35.52C101.837 34.6667 102.47 34.0133 103.284 33.56C104.11 33.0933 105.057 32.86 106.124 32.86C107.164 32.86 108.084 33.0867 108.884 33.54C109.684 33.9933 110.297 34.62 110.724 35.42C111.164 36.2067 111.384 37.1 111.384 38.1ZM109.504 37.72C109.504 37.0267 109.35 36.4333 109.044 35.94C108.737 35.4333 108.317 35.0533 107.784 34.8C107.264 34.5333 106.684 34.4 106.044 34.4C105.124 34.4 104.337 34.6933 103.684 35.28C103.044 35.8667 102.677 36.68 102.584 37.72H109.504ZM113.106 38.48C113.106 37.36 113.333 36.38 113.786 35.54C114.239 34.6867 114.859 34.0267 115.646 33.56C116.446 33.0933 117.333 32.86 118.306 32.86C119.266 32.86 120.099 33.0667 120.806 33.48C121.513 33.8933 122.039 34.4133 122.386 35.04V33.04H124.226V44H122.386V41.96C122.026 42.6 121.486 43.1333 120.766 43.56C120.059 43.9733 119.233 44.18 118.286 44.18C117.313 44.18 116.433 43.94 115.646 43.46C114.859 42.98 114.239 42.3067 113.786 41.44C113.333 40.5733 113.106 39.5867 113.106 38.48ZM122.386 38.5C122.386 37.6733 122.219 36.9533 121.886 36.34C121.553 35.7267 121.099 35.26 120.526 34.94C119.966 34.6067 119.346 34.44 118.666 34.44C117.986 34.44 117.366 34.6 116.806 34.92C116.246 35.24 115.799 35.7067 115.466 36.32C115.133 36.9333 114.966 37.6533 114.966 38.48C114.966 39.32 115.133 40.0533 115.466 40.68C115.799 41.2933 116.246 41.7667 116.806 42.1C117.366 42.42 117.986 42.58 118.666 42.58C119.346 42.58 119.966 42.42 120.526 42.1C121.099 41.7667 121.553 41.2933 121.886 40.68C122.219 40.0533 122.386 39.3267 122.386 38.5ZM129.522 34.54V41C129.522 41.5333 129.635 41.9133 129.862 42.14C130.088 42.3533 130.482 42.46 131.042 42.46H132.382V44H130.742C129.728 44 128.968 43.7667 128.462 43.3C127.955 42.8333 127.702 42.0667 127.702 41V34.54H126.282V33.04H127.702V30.28H129.522V33.04H132.382V34.54H129.522ZM144.587 38.1C144.587 38.4467 144.567 38.8133 144.527 39.2H135.767C135.834 40.28 136.2 41.1267 136.867 41.74C137.547 42.34 138.367 42.64 139.327 42.64C140.114 42.64 140.767 42.46 141.287 42.1C141.82 41.7267 142.194 41.2333 142.407 40.62H144.367C144.074 41.6733 143.487 42.5333 142.607 43.2C141.727 43.8533 140.634 44.18 139.327 44.18C138.287 44.18 137.354 43.9467 136.527 43.48C135.714 43.0133 135.074 42.3533 134.607 41.5C134.14 40.6333 133.907 39.6333 133.907 38.5C133.907 37.3667 134.134 36.3733 134.587 35.52C135.04 34.6667 135.674 34.0133 136.487 33.56C137.314 33.0933 138.26 32.86 139.327 32.86C140.367 32.86 141.287 33.0867 142.087 33.54C142.887 33.9933 143.5 34.62 143.927 35.42C144.367 36.2067 144.587 37.1 144.587 38.1ZM142.707 37.72C142.707 37.0267 142.554 36.4333 142.247 35.94C141.94 35.4333 141.52 35.0533 140.987 34.8C140.467 34.5333 139.887 34.4 139.247 34.4C138.327 34.4 137.54 34.6933 136.887 35.28C136.247 35.8667 135.88 36.68 135.787 37.72H142.707ZM151.641 38.48C151.641 37.36 151.868 36.38 152.321 35.54C152.775 34.6867 153.395 34.0267 154.181 33.56C154.981 33.0933 155.868 32.86 156.841 32.86C157.801 32.86 158.635 33.0667 159.341 33.48C160.048 33.8933 160.575 34.4133 160.921 35.04V33.04H162.761V44H160.921V41.96C160.561 42.6 160.021 43.1333 159.301 43.56C158.595 43.9733 157.768 44.18 156.821 44.18C155.848 44.18 154.968 43.94 154.181 43.46C153.395 42.98 152.775 42.3067 152.321 41.44C151.868 40.5733 151.641 39.5867 151.641 38.48ZM160.921 38.5C160.921 37.6733 160.755 36.9533 160.421 36.34C160.088 35.7267 159.635 35.26 159.061 34.94C158.501 34.6067 157.881 34.44 157.201 34.44C156.521 34.44 155.901 34.6 155.341 34.92C154.781 35.24 154.335 35.7067 154.001 36.32C153.668 36.9333 153.501 37.6533 153.501 38.48C153.501 39.32 153.668 40.0533 154.001 40.68C154.335 41.2933 154.781 41.7667 155.341 42.1C155.901 42.42 156.521 42.58 157.201 42.58C157.881 42.58 158.501 42.42 159.061 42.1C159.635 41.7667 160.088 41.2933 160.421 40.68C160.755 40.0533 160.921 39.3267 160.921 38.5ZM172.149 31.26C171.802 31.26 171.509 31.14 171.269 30.9C171.042 30.66 170.929 30.3667 170.929 30.02C170.929 29.6733 171.042 29.38 171.269 29.14C171.509 28.9 171.802 28.78 172.149 28.78C172.496 28.78 172.782 28.9 173.009 29.14C173.249 29.38 173.369 29.6733 173.369 30.02C173.369 30.3667 173.249 30.66 173.009 30.9C172.782 31.14 172.496 31.26 172.149 31.26ZM173.049 46.38C173.049 47.3533 172.802 48.0667 172.309 48.52C171.816 48.9733 171.096 49.2 170.149 49.2H169.089V47.66H169.849C170.356 47.66 170.709 47.56 170.909 47.36C171.122 47.16 171.229 46.82 171.229 46.34V33.04H173.049V46.38ZM185.85 33.04V44H184.03V42.38C183.683 42.94 183.197 43.38 182.57 43.7C181.957 44.0067 181.277 44.16 180.53 44.16C179.677 44.16 178.91 43.9867 178.23 43.64C177.55 43.28 177.01 42.7467 176.61 42.04C176.223 41.3333 176.03 40.4733 176.03 39.46V33.04H177.83V39.22C177.83 40.3 178.103 41.1333 178.65 41.72C179.197 42.2933 179.943 42.58 180.89 42.58C181.863 42.58 182.63 42.28 183.19 41.68C183.75 41.08 184.03 40.2067 184.03 39.06V33.04H185.85ZM189.863 31.26C189.516 31.26 189.223 31.14 188.983 30.9C188.743 30.66 188.623 30.3667 188.623 30.02C188.623 29.6733 188.743 29.38 188.983 29.14C189.223 28.9 189.516 28.78 189.863 28.78C190.196 28.78 190.476 28.9 190.703 29.14C190.943 29.38 191.063 29.6733 191.063 30.02C191.063 30.3667 190.943 30.66 190.703 30.9C190.476 31.14 190.196 31.26 189.863 31.26ZM190.743 33.04V44H188.923V33.04H190.743ZM193.165 38.5C193.165 37.3667 193.391 36.38 193.845 35.54C194.298 34.6867 194.925 34.0267 195.725 33.56C196.538 33.0933 197.465 32.86 198.505 32.86C199.851 32.86 200.958 33.1867 201.825 33.84C202.705 34.4933 203.285 35.4 203.565 36.56H201.605C201.418 35.8933 201.051 35.3667 200.505 34.98C199.971 34.5933 199.305 34.4 198.505 34.4C197.465 34.4 196.625 34.76 195.985 35.48C195.345 36.1867 195.025 37.1933 195.025 38.5C195.025 39.82 195.345 40.84 195.985 41.56C196.625 42.28 197.465 42.64 198.505 42.64C199.305 42.64 199.971 42.4533 200.505 42.08C201.038 41.7067 201.405 41.1733 201.605 40.48H203.565C203.271 41.6 202.685 42.5 201.805 43.18C200.925 43.8467 199.825 44.18 198.505 44.18C197.465 44.18 196.538 43.9467 195.725 43.48C194.925 43.0133 194.298 42.3533 193.845 41.5C193.391 40.6467 193.165 39.6467 193.165 38.5ZM215.993 38.1C215.993 38.4467 215.973 38.8133 215.933 39.2H207.173C207.24 40.28 207.606 41.1267 208.273 41.74C208.953 42.34 209.773 42.64 210.733 42.64C211.52 42.64 212.173 42.46 212.693 42.1C213.226 41.7267 213.6 41.2333 213.813 40.62H215.773C215.48 41.6733 214.893 42.5333 214.013 43.2C213.133 43.8533 212.04 44.18 210.733 44.18C209.693 44.18 208.76 43.9467 207.933 43.48C207.12 43.0133 206.48 42.3533 206.013 41.5C205.546 40.6333 205.313 39.6333 205.313 38.5C205.313 37.3667 205.54 36.3733 205.993 35.52C206.446 34.6667 207.08 34.0133 207.893 33.56C208.72 33.0933 209.666 32.86 210.733 32.86C211.773 32.86 212.693 33.0867 213.493 33.54C214.293 33.9933 214.906 34.62 215.333 35.42C215.773 36.2067 215.993 37.1 215.993 38.1ZM214.113 37.72C214.113 37.0267 213.96 36.4333 213.653 35.94C213.346 35.4333 212.926 35.0533 212.393 34.8C211.873 34.5333 211.293 34.4 210.653 34.4C209.733 34.4 208.946 34.6933 208.293 35.28C207.653 35.8667 207.286 36.68 207.193 37.72H214.113ZM223.048 38.48C223.048 37.36 223.274 36.38 223.728 35.54C224.181 34.6867 224.801 34.0267 225.588 33.56C226.388 33.0933 227.274 32.86 228.248 32.86C229.208 32.86 230.041 33.0667 230.748 33.48C231.454 33.8933 231.981 34.4133 232.328 35.04V33.04H234.168V44H232.328V41.96C231.968 42.6 231.428 43.1333 230.708 43.56C230.001 43.9733 229.174 44.18 228.228 44.18C227.254 44.18 226.374 43.94 225.588 43.46C224.801 42.98 224.181 42.3067 223.728 41.44C223.274 40.5733 223.048 39.5867 223.048 38.48ZM232.328 38.5C232.328 37.6733 232.161 36.9533 231.828 36.34C231.494 35.7267 231.041 35.26 230.468 34.94C229.908 34.6067 229.288 34.44 228.608 34.44C227.928 34.44 227.308 34.6 226.748 34.92C226.188 35.24 225.741 35.7067 225.408 36.32C225.074 36.9333 224.908 37.6533 224.908 38.48C224.908 39.32 225.074 40.0533 225.408 40.68C225.741 41.2933 226.188 41.7667 226.748 42.1C227.308 42.42 227.928 42.58 228.608 42.58C229.288 42.58 229.908 42.42 230.468 42.1C231.041 41.7667 231.494 41.2933 231.828 40.68C232.161 40.0533 232.328 39.3267 232.328 38.5ZM241.123 44.18C240.283 44.18 239.53 44.04 238.863 43.76C238.196 43.4667 237.67 43.0667 237.283 42.56C236.896 42.04 236.683 41.4467 236.643 40.78H238.523C238.576 41.3267 238.83 41.7733 239.283 42.12C239.75 42.4667 240.356 42.64 241.103 42.64C241.796 42.64 242.343 42.4867 242.743 42.18C243.143 41.8733 243.343 41.4867 243.343 41.02C243.343 40.54 243.13 40.1867 242.703 39.96C242.276 39.72 241.616 39.4867 240.723 39.26C239.91 39.0467 239.243 38.8333 238.723 38.62C238.216 38.3933 237.776 38.0667 237.403 37.64C237.043 37.2 236.863 36.6267 236.863 35.92C236.863 35.36 237.03 34.8467 237.363 34.38C237.696 33.9133 238.17 33.5467 238.783 33.28C239.396 33 240.096 32.86 240.883 32.86C242.096 32.86 243.076 33.1667 243.823 33.78C244.57 34.3933 244.97 35.2333 245.023 36.3H243.203C243.163 35.7267 242.93 35.2667 242.503 34.92C242.09 34.5733 241.53 34.4 240.823 34.4C240.17 34.4 239.65 34.54 239.263 34.82C238.876 35.1 238.683 35.4667 238.683 35.92C238.683 36.28 238.796 36.58 239.023 36.82C239.263 37.0467 239.556 37.2333 239.903 37.38C240.263 37.5133 240.756 37.6667 241.383 37.84C242.17 38.0533 242.81 38.2667 243.303 38.48C243.796 38.68 244.216 38.9867 244.563 39.4C244.923 39.8133 245.11 40.3533 245.123 41.02C245.123 41.62 244.956 42.16 244.623 42.64C244.29 43.12 243.816 43.5 243.203 43.78C242.603 44.0467 241.91 44.18 241.123 44.18ZM254.844 35.08C255.218 34.4267 255.764 33.8933 256.484 33.48C257.204 33.0667 258.024 32.86 258.944 32.86C259.931 32.86 260.818 33.0933 261.604 33.56C262.391 34.0267 263.011 34.6867 263.464 35.54C263.918 36.38 264.144 37.36 264.144 38.48C264.144 39.5867 263.918 40.5733 263.464 41.44C263.011 42.3067 262.384 42.98 261.584 43.46C260.798 43.94 259.918 44.18 258.944 44.18C257.998 44.18 257.164 43.9733 256.444 43.56C255.738 43.1467 255.204 42.62 254.844 41.98V44H253.024V29.2H254.844V35.08ZM262.284 38.48C262.284 37.6533 262.118 36.9333 261.784 36.32C261.451 35.7067 260.998 35.24 260.424 34.92C259.864 34.6 259.244 34.44 258.564 34.44C257.898 34.44 257.278 34.6067 256.704 34.94C256.144 35.26 255.691 35.7333 255.344 36.36C255.011 36.9733 254.844 37.6867 254.844 38.5C254.844 39.3267 255.011 40.0533 255.344 40.68C255.691 41.2933 256.144 41.7667 256.704 42.1C257.278 42.42 257.898 42.58 258.564 42.58C259.244 42.58 259.864 42.42 260.424 42.1C260.998 41.7667 261.451 41.2933 261.784 40.68C262.118 40.0533 262.284 39.32 262.284 38.48ZM271.32 44.18C270.293 44.18 269.36 43.9467 268.52 43.48C267.693 43.0133 267.04 42.3533 266.56 41.5C266.093 40.6333 265.86 39.6333 265.86 38.5C265.86 37.38 266.1 36.3933 266.58 35.54C267.073 34.6733 267.74 34.0133 268.58 33.56C269.42 33.0933 270.36 32.86 271.4 32.86C272.44 32.86 273.38 33.0933 274.22 33.56C275.06 34.0133 275.72 34.6667 276.2 35.52C276.693 36.3733 276.94 37.3667 276.94 38.5C276.94 39.6333 276.687 40.6333 276.18 41.5C275.687 42.3533 275.013 43.0133 274.16 43.48C273.307 43.9467 272.36 44.18 271.32 44.18ZM271.32 42.58C271.973 42.58 272.587 42.4267 273.16 42.12C273.733 41.8133 274.193 41.3533 274.54 40.74C274.9 40.1267 275.08 39.38 275.08 38.5C275.08 37.62 274.907 36.8733 274.56 36.26C274.213 35.6467 273.76 35.1933 273.2 34.9C272.64 34.5933 272.033 34.44 271.38 34.44C270.713 34.44 270.1 34.5933 269.54 34.9C268.993 35.1933 268.553 35.6467 268.22 36.26C267.887 36.8733 267.72 37.62 267.72 38.5C267.72 39.3933 267.88 40.1467 268.2 40.76C268.533 41.3733 268.973 41.8333 269.52 42.14C270.067 42.4333 270.667 42.58 271.32 42.58ZM281.153 29.2V44H279.333V29.2H281.153ZM283.575 38.48C283.575 37.36 283.802 36.38 284.255 35.54C284.708 34.6867 285.328 34.0267 286.115 33.56C286.915 33.0933 287.808 32.86 288.795 32.86C289.648 32.86 290.442 33.06 291.175 33.46C291.908 33.8467 292.468 34.36 292.855 35V29.2H294.695V44H292.855V41.94C292.495 42.5933 291.962 43.1333 291.255 43.56C290.548 43.9733 289.722 44.18 288.775 44.18C287.802 44.18 286.915 43.94 286.115 43.46C285.328 42.98 284.708 42.3067 284.255 41.44C283.802 40.5733 283.575 39.5867 283.575 38.48ZM292.855 38.5C292.855 37.6733 292.688 36.9533 292.355 36.34C292.022 35.7267 291.568 35.26 290.995 34.94C290.435 34.6067 289.815 34.44 289.135 34.44C288.455 34.44 287.835 34.6 287.275 34.92C286.715 35.24 286.268 35.7067 285.935 36.32C285.602 36.9333 285.435 37.6533 285.435 38.48C285.435 39.32 285.602 40.0533 285.935 40.68C286.268 41.2933 286.715 41.7667 287.275 42.1C287.835 42.42 288.455 42.58 289.135 42.58C289.815 42.58 290.435 42.42 290.995 42.1C291.568 41.7667 292.022 41.2933 292.355 40.68C292.688 40.0533 292.855 39.3267 292.855 38.5ZM307.883 44.18C306.856 44.18 305.923 43.9467 305.083 43.48C304.256 43.0133 303.603 42.3533 303.123 41.5C302.656 40.6333 302.423 39.6333 302.423 38.5C302.423 37.38 302.663 36.3933 303.143 35.54C303.636 34.6733 304.303 34.0133 305.143 33.56C305.983 33.0933 306.923 32.86 307.963 32.86C309.003 32.86 309.943 33.0933 310.783 33.56C311.623 34.0133 312.283 34.6667 312.763 35.52C313.256 36.3733 313.503 37.3667 313.503 38.5C313.503 39.6333 313.249 40.6333 312.743 41.5C312.249 42.3533 311.576 43.0133 310.723 43.48C309.869 43.9467 308.923 44.18 307.883 44.18ZM307.883 42.58C308.536 42.58 309.149 42.4267 309.723 42.12C310.296 41.8133 310.756 41.3533 311.103 40.74C311.463 40.1267 311.643 39.38 311.643 38.5C311.643 37.62 311.469 36.8733 311.123 36.26C310.776 35.6467 310.323 35.1933 309.763 34.9C309.203 34.5933 308.596 34.44 307.943 34.44C307.276 34.44 306.663 34.5933 306.103 34.9C305.556 35.1933 305.116 35.6467 304.783 36.26C304.449 36.8733 304.283 37.62 304.283 38.5C304.283 39.3933 304.443 40.1467 304.763 40.76C305.096 41.3733 305.536 41.8333 306.083 42.14C306.629 42.4333 307.229 42.58 307.883 42.58ZM317.715 34.82C318.035 34.1933 318.489 33.7067 319.075 33.36C319.675 33.0133 320.402 32.84 321.255 32.84V34.72H320.775C318.735 34.72 317.715 35.8267 317.715 38.04V44H315.895V33.04H317.715V34.82ZM332.568 44.18C331.728 44.18 330.975 44.04 330.308 43.76C329.642 43.4667 329.115 43.0667 328.728 42.56C328.342 42.04 328.128 41.4467 328.088 40.78H329.968C330.022 41.3267 330.275 41.7733 330.728 42.12C331.195 42.4667 331.802 42.64 332.548 42.64C333.242 42.64 333.788 42.4867 334.188 42.18C334.588 41.8733 334.788 41.4867 334.788 41.02C334.788 40.54 334.575 40.1867 334.148 39.96C333.722 39.72 333.062 39.4867 332.168 39.26C331.355 39.0467 330.688 38.8333 330.168 38.62C329.662 38.3933 329.222 38.0667 328.848 37.64C328.488 37.2 328.308 36.6267 328.308 35.92C328.308 35.36 328.475 34.8467 328.808 34.38C329.142 33.9133 329.615 33.5467 330.228 33.28C330.842 33 331.542 32.86 332.328 32.86C333.542 32.86 334.522 33.1667 335.268 33.78C336.015 34.3933 336.415 35.2333 336.468 36.3H334.648C334.608 35.7267 334.375 35.2667 333.948 34.92C333.535 34.5733 332.975 34.4 332.268 34.4C331.615 34.4 331.095 34.54 330.708 34.82C330.322 35.1 330.128 35.4667 330.128 35.92C330.128 36.28 330.242 36.58 330.468 36.82C330.708 37.0467 331.002 37.2333 331.348 37.38C331.708 37.5133 332.202 37.6667 332.828 37.84C333.615 38.0533 334.255 38.2667 334.748 38.48C335.242 38.68 335.662 38.9867 336.008 39.4C336.368 39.8133 336.555 40.3533 336.568 41.02C336.568 41.62 336.402 42.16 336.068 42.64C335.735 43.12 335.262 43.5 334.648 43.78C334.048 44.0467 333.355 44.18 332.568 44.18ZM353.738 33.04L350.318 44H348.438L345.798 35.3L343.158 44H341.278L337.838 33.04H339.698L342.218 42.24L344.938 33.04H346.798L349.458 42.26L351.938 33.04H353.738ZM365.544 38.1C365.544 38.4467 365.524 38.8133 365.484 39.2H356.724C356.791 40.28 357.157 41.1267 357.824 41.74C358.504 42.34 359.324 42.64 360.284 42.64C361.071 42.64 361.724 42.46 362.244 42.1C362.777 41.7267 363.151 41.2333 363.364 40.62H365.324C365.031 41.6733 364.444 42.5333 363.564 43.2C362.684 43.8533 361.591 44.18 360.284 44.18C359.244 44.18 358.311 43.9467 357.484 43.48C356.671 43.0133 356.031 42.3533 355.564 41.5C355.097 40.6333 354.864 39.6333 354.864 38.5C354.864 37.3667 355.091 36.3733 355.544 35.52C355.997 34.6667 356.631 34.0133 357.444 33.56C358.271 33.0933 359.217 32.86 360.284 32.86C361.324 32.86 362.244 33.0867 363.044 33.54C363.844 33.9933 364.457 34.62 364.884 35.42C365.324 36.2067 365.544 37.1 365.544 38.1ZM363.664 37.72C363.664 37.0267 363.511 36.4333 363.204 35.94C362.897 35.4333 362.477 35.0533 361.944 34.8C361.424 34.5333 360.844 34.4 360.204 34.4C359.284 34.4 358.497 34.6933 357.844 35.28C357.204 35.8667 356.837 36.68 356.744 37.72H363.664ZM377.946 38.1C377.946 38.4467 377.926 38.8133 377.886 39.2H369.126C369.193 40.28 369.56 41.1267 370.226 41.74C370.906 42.34 371.726 42.64 372.686 42.64C373.473 42.64 374.126 42.46 374.646 42.1C375.18 41.7267 375.553 41.2333 375.766 40.62H377.726C377.433 41.6733 376.846 42.5333 375.966 43.2C375.086 43.8533 373.993 44.18 372.686 44.18C371.646 44.18 370.713 43.9467 369.886 43.48C369.073 43.0133 368.433 42.3533 367.966 41.5C367.5 40.6333 367.266 39.6333 367.266 38.5C367.266 37.3667 367.493 36.3733 367.946 35.52C368.4 34.6667 369.033 34.0133 369.846 33.56C370.673 33.0933 371.62 32.86 372.686 32.86C373.726 32.86 374.646 33.0867 375.446 33.54C376.246 33.9933 376.86 34.62 377.286 35.42C377.726 36.2067 377.946 37.1 377.946 38.1ZM376.066 37.72C376.066 37.0267 375.913 36.4333 375.606 35.94C375.3 35.4333 374.88 35.0533 374.346 34.8C373.826 34.5333 373.246 34.4 372.606 34.4C371.686 34.4 370.9 34.6933 370.246 35.28C369.606 35.8667 369.24 36.68 369.146 37.72H376.066ZM382.569 34.54V41C382.569 41.5333 382.682 41.9133 382.909 42.14C383.135 42.3533 383.529 42.46 384.089 42.46H385.429V44H383.789C382.775 44 382.015 43.7667 381.509 43.3C381.002 42.8333 380.749 42.0667 380.749 41V34.54H379.329V33.04H380.749V30.28H382.569V33.04H385.429V34.54H382.569ZM0.86 66.48C0.86 65.36 1.08667 64.38 1.54 63.54C1.99333 62.6867 2.61333 62.0267 3.4 61.56C4.2 61.0933 5.08667 60.86 6.06 60.86C7.02 60.86 7.85333 61.0667 8.56 61.48C9.26667 61.8933 9.79333 62.4133 10.14 63.04V61.04H11.98V72H10.14V69.96C9.78 70.6 9.24 71.1333 8.52 71.56C7.81333 71.9733 6.98667 72.18 6.04 72.18C5.06667 72.18 4.18667 71.94 3.4 71.46C2.61333 70.98 1.99333 70.3067 1.54 69.44C1.08667 68.5733 0.86 67.5867 0.86 66.48ZM10.14 66.5C10.14 65.6733 9.97333 64.9533 9.64 64.34C9.30667 63.7267 8.85333 63.26 8.28 62.94C7.72 62.6067 7.1 62.44 6.42 62.44C5.74 62.44 5.12 62.6 4.56 62.92C4 63.24 3.55333 63.7067 3.22 64.32C2.88667 64.9333 2.72 65.6533 2.72 66.48C2.72 67.32 2.88667 68.0533 3.22 68.68C3.55333 69.2933 4 69.7667 4.56 70.1C5.12 70.42 5.74 70.58 6.42 70.58C7.1 70.58 7.72 70.42 8.28 70.1C8.85333 69.7667 9.30667 69.2933 9.64 68.68C9.97333 68.0533 10.14 67.3267 10.14 66.5ZM18.9356 72.18C18.0956 72.18 17.3423 72.04 16.6756 71.76C16.009 71.4667 15.4823 71.0667 15.0956 70.56C14.709 70.04 14.4956 69.4467 14.4556 68.78H16.3356C16.389 69.3267 16.6423 69.7733 17.0956 70.12C17.5623 70.4667 18.169 70.64 18.9156 70.64C19.609 70.64 20.1556 70.4867 20.5556 70.18C20.9556 69.8733 21.1556 69.4867 21.1556 69.02C21.1556 68.54 20.9423 68.1867 20.5156 67.96C20.089 67.72 19.429 67.4867 18.5356 67.26C17.7223 67.0467 17.0556 66.8333 16.5356 66.62C16.029 66.3933 15.589 66.0667 15.2156 65.64C14.8556 65.2 14.6756 64.6267 14.6756 63.92C14.6756 63.36 14.8423 62.8467 15.1756 62.38C15.509 61.9133 15.9823 61.5467 16.5956 61.28C17.209 61 17.909 60.86 18.6956 60.86C19.909 60.86 20.889 61.1667 21.6356 61.78C22.3823 62.3933 22.7823 63.2333 22.8356 64.3H21.0156C20.9756 63.7267 20.7423 63.2667 20.3156 62.92C19.9023 62.5733 19.3423 62.4 18.6356 62.4C17.9823 62.4 17.4623 62.54 17.0756 62.82C16.689 63.1 16.4956 63.4667 16.4956 63.92C16.4956 64.28 16.609 64.58 16.8356 64.82C17.0756 65.0467 17.369 65.2333 17.7156 65.38C18.0756 65.5133 18.569 65.6667 19.1956 65.84C19.9823 66.0533 20.6223 66.2667 21.1156 66.48C21.609 66.68 22.029 66.9867 22.3756 67.4C22.7356 67.8133 22.9223 68.3533 22.9356 69.02C22.9356 69.62 22.769 70.16 22.4356 70.64C22.1023 71.12 21.629 71.5 21.0156 71.78C20.4156 72.0467 19.7223 72.18 18.9356 72.18ZM40.2769 61.04L33.6769 77.16H31.7969L33.9569 71.88L29.5369 61.04H31.5569L34.9969 69.92L38.3969 61.04H40.2769ZM46.8864 72.18C45.8597 72.18 44.9264 71.9467 44.0864 71.48C43.2597 71.0133 42.6064 70.3533 42.1264 69.5C41.6597 68.6333 41.4264 67.6333 41.4264 66.5C41.4264 65.38 41.6664 64.3933 42.1464 63.54C42.6397 62.6733 43.3064 62.0133 44.1464 61.56C44.9864 61.0933 45.9264 60.86 46.9664 60.86C48.0064 60.86 48.9464 61.0933 49.7864 61.56C50.6264 62.0133 51.2864 62.6667 51.7664 63.52C52.2597 64.3733 52.5064 65.3667 52.5064 66.5C52.5064 67.6333 52.2531 68.6333 51.7464 69.5C51.2531 70.3533 50.5797 71.0133 49.7264 71.48C48.8731 71.9467 47.9264 72.18 46.8864 72.18ZM46.8864 70.58C47.5397 70.58 48.1531 70.4267 48.7264 70.12C49.2997 69.8133 49.7597 69.3533 50.1064 68.74C50.4664 68.1267 50.6464 67.38 50.6464 66.5C50.6464 65.62 50.4731 64.8733 50.1264 64.26C49.7797 63.6467 49.3264 63.1933 48.7664 62.9C48.2064 62.5933 47.5997 62.44 46.9464 62.44C46.2797 62.44 45.6664 62.5933 45.1064 62.9C44.5597 63.1933 44.1197 63.6467 43.7864 64.26C43.4531 64.8733 43.2864 65.62 43.2864 66.5C43.2864 67.3933 43.4464 68.1467 43.7664 68.76C44.0997 69.3733 44.5397 69.8333 45.0864 70.14C45.6331 70.4333 46.2331 70.58 46.8864 70.58ZM64.6194 61.04V72H62.7994V70.38C62.4527 70.94 61.966 71.38 61.3394 71.7C60.726 72.0067 60.046 72.16 59.2994 72.16C58.446 72.16 57.6794 71.9867 56.9994 71.64C56.3194 71.28 55.7794 70.7467 55.3794 70.04C54.9927 69.3333 54.7994 68.4733 54.7994 67.46V61.04H56.5994V67.22C56.5994 68.3 56.8727 69.1333 57.4194 69.72C57.966 70.2933 58.7127 70.58 59.6594 70.58C60.6327 70.58 61.3994 70.28 61.9594 69.68C62.5194 69.08 62.7994 68.2067 62.7994 67.06V61.04H64.6194ZM74.8444 57.2V72H73.0244V57.2H74.8444ZM78.8863 59.26C78.5396 59.26 78.2463 59.14 78.0063 58.9C77.7663 58.66 77.6463 58.3667 77.6463 58.02C77.6463 57.6733 77.7663 57.38 78.0063 57.14C78.2463 56.9 78.5396 56.78 78.8863 56.78C79.2196 56.78 79.4996 56.9 79.7263 57.14C79.9663 57.38 80.0863 57.6733 80.0863 58.02C80.0863 58.3667 79.9663 58.66 79.7263 58.9C79.4996 59.14 79.2196 59.26 78.8863 59.26ZM79.7663 61.04V72H77.9463V61.04H79.7663ZM88.9881 72L84.6881 67.16V72H82.8681V57.2H84.6881V65.9L88.9081 61.04H91.4481L86.2881 66.5L91.4681 72H88.9881ZM103.161 66.1C103.161 66.4467 103.141 66.8133 103.101 67.2H94.3411C94.4078 68.28 94.7744 69.1267 95.4411 69.74C96.1211 70.34 96.9411 70.64 97.9011 70.64C98.6878 70.64 99.3411 70.46 99.8611 70.1C100.394 69.7267 100.768 69.2333 100.981 68.62H102.941C102.648 69.6733 102.061 70.5333 101.181 71.2C100.301 71.8533 99.2078 72.18 97.9011 72.18C96.8611 72.18 95.9278 71.9467 95.1011 71.48C94.2878 71.0133 93.6478 70.3533 93.1811 69.5C92.7144 68.6333 92.4811 67.6333 92.4811 66.5C92.4811 65.3667 92.7078 64.3733 93.1611 63.52C93.6144 62.6667 94.2478 62.0133 95.0611 61.56C95.8878 61.0933 96.8344 60.86 97.9011 60.86C98.9411 60.86 99.8611 61.0867 100.661 61.54C101.461 61.9933 102.074 62.62 102.501 63.42C102.941 64.2067 103.161 65.1 103.161 66.1ZM101.281 65.72C101.281 65.0267 101.128 64.4333 100.821 63.94C100.514 63.4333 100.094 63.0533 99.5611 62.8C99.0411 62.5333 98.4611 62.4 97.8211 62.4C96.9011 62.4 96.1144 62.6933 95.4611 63.28C94.8211 63.8667 94.4544 64.68 94.3611 65.72H101.281ZM290.205 62.54V69C290.205 69.5333 290.319 69.9133 290.545 70.14C290.772 70.3533 291.165 70.46 291.725 70.46H293.065V72H291.425C290.412 72 289.652 71.7667 289.145 71.3C288.639 70.8333 288.385 70.0667 288.385 69V62.54H286.965V61.04H288.385V58.28H290.205V61.04H293.065V62.54H290.205ZM300.05 72.18C299.024 72.18 298.09 71.9467 297.25 71.48C296.424 71.0133 295.77 70.3533 295.29 69.5C294.824 68.6333 294.59 67.6333 294.59 66.5C294.59 65.38 294.83 64.3933 295.31 63.54C295.804 62.6733 296.47 62.0133 297.31 61.56C298.15 61.0933 299.09 60.86 300.13 60.86C301.17 60.86 302.11 61.0933 302.95 61.56C303.79 62.0133 304.45 62.6667 304.93 63.52C305.424 64.3733 305.67 65.3667 305.67 66.5C305.67 67.6333 305.417 68.6333 304.91 69.5C304.417 70.3533 303.744 71.0133 302.89 71.48C302.037 71.9467 301.09 72.18 300.05 72.18ZM300.05 70.58C300.704 70.58 301.317 70.4267 301.89 70.12C302.464 69.8133 302.924 69.3533 303.27 68.74C303.63 68.1267 303.81 67.38 303.81 66.5C303.81 65.62 303.637 64.8733 303.29 64.26C302.944 63.6467 302.49 63.1933 301.93 62.9C301.37 62.5933 300.764 62.44 300.11 62.44C299.444 62.44 298.83 62.5933 298.27 62.9C297.724 63.1933 297.284 63.6467 296.95 64.26C296.617 64.8733 296.45 65.62 296.45 66.5C296.45 67.3933 296.61 68.1467 296.93 68.76C297.264 69.3733 297.704 69.8333 298.25 70.14C298.797 70.4333 299.397 70.58 300.05 70.58ZM312.715 66.48C312.715 65.36 312.942 64.38 313.395 63.54C313.849 62.6867 314.469 62.0267 315.255 61.56C316.055 61.0933 316.942 60.86 317.915 60.86C318.875 60.86 319.709 61.0667 320.415 61.48C321.122 61.8933 321.649 62.4133 321.995 63.04V61.04H323.835V72H321.995V69.96C321.635 70.6 321.095 71.1333 320.375 71.56C319.669 71.9733 318.842 72.18 317.895 72.18C316.922 72.18 316.042 71.94 315.255 71.46C314.469 70.98 313.849 70.3067 313.395 69.44C312.942 68.5733 312.715 67.5867 312.715 66.48ZM321.995 66.5C321.995 65.6733 321.829 64.9533 321.495 64.34C321.162 63.7267 320.709 63.26 320.135 62.94C319.575 62.6067 318.955 62.44 318.275 62.44C317.595 62.44 316.975 62.6 316.415 62.92C315.855 63.24 315.409 63.7067 315.075 64.32C314.742 64.9333 314.575 65.6533 314.575 66.48C314.575 67.32 314.742 68.0533 315.075 68.68C315.409 69.2933 315.855 69.7667 316.415 70.1C316.975 70.42 317.595 70.58 318.275 70.58C318.955 70.58 319.575 70.42 320.135 70.1C320.709 69.7667 321.162 69.2933 321.495 68.68C321.829 68.0533 321.995 67.3267 321.995 66.5ZM334.463 62.54V69C334.463 69.5333 334.576 69.9133 334.803 70.14C335.03 70.3533 335.423 70.46 335.983 70.46H337.323V72H335.683C334.67 72 333.91 71.7667 333.403 71.3C332.896 70.8333 332.643 70.0667 332.643 69V62.54H331.223V61.04H332.643V58.28H334.463V61.04H337.323V62.54H334.463ZM338.848 66.48C338.848 65.36 339.075 64.38 339.528 63.54C339.982 62.6867 340.602 62.0267 341.388 61.56C342.188 61.0933 343.075 60.86 344.048 60.86C345.008 60.86 345.842 61.0667 346.548 61.48C347.255 61.8933 347.782 62.4133 348.128 63.04V61.04H349.968V72H348.128V69.96C347.768 70.6 347.228 71.1333 346.508 71.56C345.802 71.9733 344.975 72.18 344.028 72.18C343.055 72.18 342.175 71.94 341.388 71.46C340.602 70.98 339.982 70.3067 339.528 69.44C339.075 68.5733 338.848 67.5867 338.848 66.48ZM348.128 66.5C348.128 65.6733 347.962 64.9533 347.628 64.34C347.295 63.7267 346.842 63.26 346.268 62.94C345.708 62.6067 345.088 62.44 344.408 62.44C343.728 62.44 343.108 62.6 342.548 62.92C341.988 63.24 341.542 63.7067 341.208 64.32C340.875 64.9333 340.708 65.6533 340.708 66.48C340.708 67.32 340.875 68.0533 341.208 68.68C341.542 69.2933 341.988 69.7667 342.548 70.1C343.108 70.42 343.728 70.58 344.408 70.58C345.088 70.58 345.708 70.42 346.268 70.1C346.842 69.7667 347.295 69.2933 347.628 68.68C347.962 68.0533 348.128 67.3267 348.128 66.5ZM356.924 72.18C356.084 72.18 355.331 72.04 354.664 71.76C353.997 71.4667 353.471 71.0667 353.084 70.56C352.697 70.04 352.484 69.4467 352.444 68.78H354.324C354.377 69.3267 354.631 69.7733 355.084 70.12C355.551 70.4667 356.157 70.64 356.904 70.64C357.597 70.64 358.144 70.4867 358.544 70.18C358.944 69.8733 359.144 69.4867 359.144 69.02C359.144 68.54 358.931 68.1867 358.504 67.96C358.077 67.72 357.417 67.4867 356.524 67.26C355.711 67.0467 355.044 66.8333 354.524 66.62C354.017 66.3933 353.577 66.0667 353.204 65.64C352.844 65.2 352.664 64.6267 352.664 63.92C352.664 63.36 352.831 62.8467 353.164 62.38C353.497 61.9133 353.971 61.5467 354.584 61.28C355.197 61 355.897 60.86 356.684 60.86C357.897 60.86 358.877 61.1667 359.624 61.78C360.371 62.3933 360.771 63.2333 360.824 64.3H359.004C358.964 63.7267 358.731 63.2667 358.304 62.92C357.891 62.5733 357.331 62.4 356.624 62.4C355.971 62.4 355.451 62.54 355.064 62.82C354.677 63.1 354.484 63.4667 354.484 63.92C354.484 64.28 354.597 64.58 354.824 64.82C355.064 65.0467 355.357 65.2333 355.704 65.38C356.064 65.5133 356.557 65.6667 357.184 65.84C357.971 66.0533 358.611 66.2667 359.104 66.48C359.597 66.68 360.017 66.9867 360.364 67.4C360.724 67.8133 360.911 68.3533 360.924 69.02C360.924 69.62 360.757 70.16 360.424 70.64C360.091 71.12 359.617 71.5 359.004 71.78C358.404 72.0467 357.711 72.18 356.924 72.18ZM365.713 62.54V69C365.713 69.5333 365.826 69.9133 366.053 70.14C366.28 70.3533 366.673 70.46 367.233 70.46H368.573V72H366.933C365.92 72 365.16 71.7667 364.653 71.3C364.146 70.8333 363.893 70.0667 363.893 69V62.54H362.473V61.04H363.893V58.28H365.713V61.04H368.573V62.54H365.713ZM380.218 61.04L373.618 77.16H371.738L373.898 71.88L369.478 61.04H371.498L374.938 69.92L378.338 61.04H380.218ZM3.76 90.54V97C3.76 97.5333 3.87333 97.9133 4.1 98.14C4.32667 98.3533 4.72 98.46 5.28 98.46H6.62V100H4.98C3.96667 100 3.20667 99.7667 2.7 99.3C2.19333 98.8333 1.94 98.0667 1.94 97V90.54H0.52V89.04H1.94V86.28H3.76V89.04H6.62V90.54H3.76ZM10.6452 90.82C10.9652 90.1933 11.4185 89.7067 12.0052 89.36C12.6052 89.0133 13.3318 88.84 14.1852 88.84V90.72H13.7052C11.6652 90.72 10.6452 91.8267 10.6452 94.04V100H8.82516V89.04H10.6452V90.82ZM26.2861 94.1C26.2861 94.4467 26.2661 94.8133 26.2261 95.2H17.4661C17.5328 96.28 17.8994 97.1267 18.5661 97.74C19.2461 98.34 20.0661 98.64 21.0261 98.64C21.8128 98.64 22.4661 98.46 22.9861 98.1C23.5194 97.7267 23.8928 97.2333 24.1061 96.62H26.0661C25.7728 97.6733 25.1861 98.5333 24.3061 99.2C23.4261 99.8533 22.3328 100.18 21.0261 100.18C19.9861 100.18 19.0528 99.9467 18.2261 99.48C17.4128 99.0133 16.7728 98.3533 16.3061 97.5C15.8394 96.6333 15.6061 95.6333 15.6061 94.5C15.6061 93.3667 15.8328 92.3733 16.2861 91.52C16.7394 90.6667 17.3728 90.0133 18.1861 89.56C19.0128 89.0933 19.9594 88.86 21.0261 88.86C22.0661 88.86 22.9861 89.0867 23.7861 89.54C24.5861 89.9933 25.1994 90.62 25.6261 91.42C26.0661 92.2067 26.2861 93.1 26.2861 94.1ZM24.4061 93.72C24.4061 93.0267 24.2528 92.4333 23.9461 91.94C23.6394 91.4333 23.2194 91.0533 22.6861 90.8C22.1661 90.5333 21.5861 90.4 20.9461 90.4C20.0261 90.4 19.2394 90.6933 18.5861 91.28C17.9461 91.8667 17.5794 92.68 17.4861 93.72H24.4061ZM28.0084 94.48C28.0084 93.36 28.2351 92.38 28.6884 91.54C29.1418 90.6867 29.7618 90.0267 30.5484 89.56C31.3484 89.0933 32.2351 88.86 33.2084 88.86C34.1684 88.86 35.0018 89.0667 35.7084 89.48C36.4151 89.8933 36.9418 90.4133 37.2884 91.04V89.04H39.1284V100H37.2884V97.96C36.9284 98.6 36.3884 99.1333 35.6684 99.56C34.9618 99.9733 34.1351 100.18 33.1884 100.18C32.2151 100.18 31.3351 99.94 30.5484 99.46C29.7618 98.98 29.1418 98.3067 28.6884 97.44C28.2351 96.5733 28.0084 95.5867 28.0084 94.48ZM37.2884 94.5C37.2884 93.6733 37.1218 92.9533 36.7884 92.34C36.4551 91.7267 36.0018 91.26 35.4284 90.94C34.8684 90.6067 34.2484 90.44 33.5684 90.44C32.8884 90.44 32.2684 90.6 31.7084 90.92C31.1484 91.24 30.7018 91.7067 30.3684 92.32C30.0351 92.9333 29.8684 93.6533 29.8684 94.48C29.8684 95.32 30.0351 96.0533 30.3684 96.68C30.7018 97.2933 31.1484 97.7667 31.7084 98.1C32.2684 98.42 32.8884 98.58 33.5684 98.58C34.2484 98.58 34.8684 98.42 35.4284 98.1C36.0018 97.7667 36.4551 97.2933 36.7884 96.68C37.1218 96.0533 37.2884 95.3267 37.2884 94.5ZM44.4241 90.54V97C44.4241 97.5333 44.5374 97.9133 44.7641 98.14C44.9907 98.3533 45.3841 98.46 45.9441 98.46H47.2841V100H45.6441C44.6307 100 43.8707 99.7667 43.3641 99.3C42.8574 98.8333 42.6041 98.0667 42.6041 97V90.54H41.1841V89.04H42.6041V86.28H44.4241V89.04H47.2841V90.54H44.4241ZM51.8492 86.06L51.6292 96.06H50.1092L49.8892 86.06H51.8492ZM50.9492 100.12C50.6026 100.12 50.3092 100 50.0692 99.76C49.8292 99.52 49.7092 99.2267 49.7092 98.88C49.7092 98.5333 49.8292 98.24 50.0692 98C50.3092 97.76 50.6026 97.64 50.9492 97.64C51.2826 97.64 51.5626 97.76 51.7892 98C52.0292 98.24 52.1492 98.5333 52.1492 98.88C52.1492 99.2267 52.0292 99.52 51.7892 99.76C51.5626 100 51.2826 100.12 50.9492 100.12Z" fill="#323842"/>
<path d="M108.822 66.42C108.822 65.26 109.055 64.2467 109.522 63.38C110.002 62.5133 110.662 61.8467 111.502 61.38C112.355 60.9133 113.328 60.68 114.422 60.68C115.822 60.68 116.988 61.0467 117.922 61.78C118.868 62.5133 119.488 63.5467 119.782 64.88H116.142C115.835 64.0267 115.242 63.6 114.362 63.6C113.735 63.6 113.235 63.8467 112.862 64.34C112.488 64.82 112.302 65.5133 112.302 66.42C112.302 67.3267 112.488 68.0267 112.862 68.52C113.235 69 113.735 69.24 114.362 69.24C115.242 69.24 115.835 68.8133 116.142 67.96H119.782C119.488 69.2667 118.868 70.2933 117.922 71.04C116.975 71.7867 115.808 72.16 114.422 72.16C113.328 72.16 112.355 71.9267 111.502 71.46C110.662 70.9933 110.002 70.3267 109.522 69.46C109.055 68.5933 108.822 67.58 108.822 66.42ZM128.471 60.72C129.751 60.72 130.778 61.1467 131.551 62C132.324 62.84 132.711 64 132.711 65.48V72H129.311V65.94C129.311 65.1933 129.118 64.6133 128.731 64.2C128.344 63.7867 127.824 63.58 127.171 63.58C126.518 63.58 125.998 63.7867 125.611 64.2C125.224 64.6133 125.031 65.1933 125.031 65.94V72H121.611V57.2H125.031V62.34C125.378 61.8467 125.851 61.4533 126.451 61.16C127.051 60.8667 127.724 60.72 128.471 60.72ZM140.168 72.16C139.074 72.16 138.088 71.9267 137.208 71.46C136.341 70.9933 135.654 70.3267 135.148 69.46C134.654 68.5933 134.408 67.58 134.408 66.42C134.408 65.2733 134.661 64.2667 135.168 63.4C135.674 62.52 136.368 61.8467 137.248 61.38C138.128 60.9133 139.114 60.68 140.208 60.68C141.301 60.68 142.288 60.9133 143.168 61.38C144.048 61.8467 144.741 62.52 145.248 63.4C145.754 64.2667 146.008 65.2733 146.008 66.42C146.008 67.5667 145.748 68.58 145.228 69.46C144.721 70.3267 144.021 70.9933 143.128 71.46C142.248 71.9267 141.261 72.16 140.168 72.16ZM140.168 69.2C140.821 69.2 141.374 68.96 141.828 68.48C142.294 68 142.528 67.3133 142.528 66.42C142.528 65.5267 142.301 64.84 141.848 64.36C141.408 63.88 140.861 63.64 140.208 63.64C139.541 63.64 138.988 63.88 138.548 64.36C138.108 64.8267 137.888 65.5133 137.888 66.42C137.888 67.3133 138.101 68 138.528 68.48C138.968 68.96 139.514 69.2 140.168 69.2ZM152.902 72.16C151.809 72.16 150.822 71.9267 149.942 71.46C149.075 70.9933 148.389 70.3267 147.882 69.46C147.389 68.5933 147.142 67.58 147.142 66.42C147.142 65.2733 147.395 64.2667 147.902 63.4C148.409 62.52 149.102 61.8467 149.982 61.38C150.862 60.9133 151.849 60.68 152.942 60.68C154.035 60.68 155.022 60.9133 155.902 61.38C156.782 61.8467 157.475 62.52 157.982 63.4C158.489 64.2667 158.742 65.2733 158.742 66.42C158.742 67.5667 158.482 68.58 157.962 69.46C157.455 70.3267 156.755 70.9933 155.862 71.46C154.982 71.9267 153.995 72.16 152.902 72.16ZM152.902 69.2C153.555 69.2 154.109 68.96 154.562 68.48C155.029 68 155.262 67.3133 155.262 66.42C155.262 65.5267 155.035 64.84 154.582 64.36C154.142 63.88 153.595 63.64 152.942 63.64C152.275 63.64 151.722 63.88 151.282 64.36C150.842 64.8267 150.622 65.5133 150.622 66.42C150.622 67.3133 150.835 68 151.262 68.48C151.702 68.96 152.249 69.2 152.902 69.2ZM165.096 72.16C164.123 72.16 163.256 71.9933 162.496 71.66C161.736 71.3267 161.136 70.8733 160.696 70.3C160.256 69.7133 160.01 69.06 159.956 68.34H163.336C163.376 68.7267 163.556 69.04 163.876 69.28C164.196 69.52 164.59 69.64 165.056 69.64C165.483 69.64 165.81 69.56 166.036 69.4C166.276 69.2267 166.396 69.0067 166.396 68.74C166.396 68.42 166.23 68.1867 165.896 68.04C165.563 67.88 165.023 67.7067 164.276 67.52C163.476 67.3333 162.81 67.14 162.276 66.94C161.743 66.7267 161.283 66.4 160.896 65.96C160.51 65.5067 160.316 64.9 160.316 64.14C160.316 63.5 160.49 62.92 160.836 62.4C161.196 61.8667 161.716 61.4467 162.396 61.14C163.09 60.8333 163.91 60.68 164.856 60.68C166.256 60.68 167.356 61.0267 168.156 61.72C168.97 62.4133 169.436 63.3333 169.556 64.48H166.396C166.343 64.0933 166.17 63.7867 165.876 63.56C165.596 63.3333 165.223 63.22 164.756 63.22C164.356 63.22 164.05 63.3 163.836 63.46C163.623 63.6067 163.516 63.8133 163.516 64.08C163.516 64.4 163.683 64.64 164.016 64.8C164.363 64.96 164.896 65.12 165.616 65.28C166.443 65.4933 167.116 65.7067 167.636 65.92C168.156 66.12 168.61 66.4533 168.996 66.92C169.396 67.3733 169.603 67.9867 169.616 68.76C169.616 69.4133 169.43 70 169.056 70.52C168.696 71.0267 168.17 71.4267 167.476 71.72C166.796 72.0133 166.003 72.16 165.096 72.16ZM182.229 66.24C182.229 66.56 182.209 66.8933 182.169 67.24H174.429C174.482 67.9333 174.702 68.4667 175.089 68.84C175.489 69.2 175.975 69.38 176.549 69.38C177.402 69.38 177.995 69.02 178.329 68.3H181.969C181.782 69.0333 181.442 69.6933 180.949 70.28C180.469 70.8667 179.862 71.3267 179.129 71.66C178.395 71.9933 177.575 72.16 176.669 72.16C175.575 72.16 174.602 71.9267 173.749 71.46C172.895 70.9933 172.229 70.3267 171.749 69.46C171.269 68.5933 171.029 67.58 171.029 66.42C171.029 65.26 171.262 64.2467 171.729 63.38C172.209 62.5133 172.875 61.8467 173.729 61.38C174.582 60.9133 175.562 60.68 176.669 60.68C177.749 60.68 178.709 60.9067 179.549 61.36C180.389 61.8133 181.042 62.46 181.509 63.3C181.989 64.14 182.229 65.12 182.229 66.24ZM178.729 65.34C178.729 64.7533 178.529 64.2867 178.129 63.94C177.729 63.5933 177.229 63.42 176.629 63.42C176.055 63.42 175.569 63.5867 175.169 63.92C174.782 64.2533 174.542 64.7267 174.449 65.34H178.729ZM199.671 60.84L192.671 77.3H188.991L191.551 71.62L187.011 60.84H190.831L193.411 67.82L195.971 60.84H199.671ZM205.988 72.16C204.895 72.16 203.908 71.9267 203.028 71.46C202.161 70.9933 201.475 70.3267 200.968 69.46C200.475 68.5933 200.228 67.58 200.228 66.42C200.228 65.2733 200.481 64.2667 200.988 63.4C201.495 62.52 202.188 61.8467 203.068 61.38C203.948 60.9133 204.935 60.68 206.028 60.68C207.121 60.68 208.108 60.9133 208.988 61.38C209.868 61.8467 210.561 62.52 211.068 63.4C211.575 64.2667 211.828 65.2733 211.828 66.42C211.828 67.5667 211.568 68.58 211.048 69.46C210.541 70.3267 209.841 70.9933 208.948 71.46C208.068 71.9267 207.081 72.16 205.988 72.16ZM205.988 69.2C206.641 69.2 207.195 68.96 207.648 68.48C208.115 68 208.348 67.3133 208.348 66.42C208.348 65.5267 208.121 64.84 207.668 64.36C207.228 63.88 206.681 63.64 206.028 63.64C205.361 63.64 204.808 63.88 204.368 64.36C203.928 64.8267 203.708 65.5133 203.708 66.42C203.708 67.3133 203.921 68 204.348 68.48C204.788 68.96 205.335 69.2 205.988 69.2ZM224.662 60.84V72H221.242V70.48C220.896 70.9733 220.422 71.3733 219.822 71.68C219.236 71.9733 218.582 72.12 217.862 72.12C217.009 72.12 216.256 71.9333 215.602 71.56C214.949 71.1733 214.442 70.62 214.082 69.9C213.722 69.18 213.542 68.3333 213.542 67.36V60.84H216.942V66.9C216.942 67.6467 217.136 68.2267 217.522 68.64C217.909 69.0533 218.429 69.26 219.082 69.26C219.749 69.26 220.276 69.0533 220.662 68.64C221.049 68.2267 221.242 67.6467 221.242 66.9V60.84H224.662ZM230.539 62.7C230.939 62.0867 231.439 61.6067 232.039 61.26C232.639 60.9 233.306 60.72 234.039 60.72V64.34H233.099C232.246 64.34 231.606 64.5267 231.179 64.9C230.752 65.26 230.539 65.9 230.539 66.82V72H227.119V60.84H230.539V62.7ZM255.932 60.84L252.912 72H249.132L247.372 64.76L245.552 72H241.792L238.752 60.84H242.172L243.752 68.82L245.632 60.84H249.252L251.152 68.78L252.712 60.84H255.932ZM256.556 66.4C256.556 65.2533 256.769 64.2467 257.196 63.38C257.636 62.5133 258.229 61.8467 258.976 61.38C259.723 60.9133 260.556 60.68 261.476 60.68C262.263 60.68 262.949 60.84 263.536 61.16C264.136 61.48 264.596 61.9 264.916 62.42V60.84H268.336V72H264.916V70.42C264.583 70.94 264.116 71.36 263.516 71.68C262.929 72 262.243 72.16 261.456 72.16C260.549 72.16 259.723 71.9267 258.976 71.46C258.229 70.98 257.636 70.3067 257.196 69.44C256.769 68.56 256.556 67.5467 256.556 66.4ZM264.916 66.42C264.916 65.5667 264.676 64.8933 264.196 64.4C263.729 63.9067 263.156 63.66 262.476 63.66C261.796 63.66 261.216 63.9067 260.736 64.4C260.269 64.88 260.036 65.5467 260.036 66.4C260.036 67.2533 260.269 67.9333 260.736 68.44C261.216 68.9333 261.796 69.18 262.476 69.18C263.156 69.18 263.729 68.9333 264.196 68.44C264.676 67.9467 264.916 67.2733 264.916 66.42ZM282.21 60.84L275.21 77.3H271.53L274.09 71.62L269.55 60.84H273.37L275.95 67.82L278.51 60.84H282.21Z" fill="#FF6220"/>
</svg>
