<svg width="344" height="51" viewBox="0 0 344 51" fill="none" xmlns="http://www.w3.org/2000/svg">
<path d="M11.6563 38.8057C9.45393 38.8057 7.35904 38.4029 5.37158 37.5971C3.41097 36.7646 1.8398 35.7708 0.658069 34.6159L2.6321 26.5587C3.57212 28.197 4.90157 29.5667 6.62045 30.6679C8.33934 31.7422 10.0985 32.2793 11.898 32.2793C13.3751 32.2793 14.53 31.8765 15.3626 31.0707C16.222 30.265 16.6518 29.2847 16.6518 28.1298C16.6518 27.1898 16.4235 26.411 15.9669 25.7932C15.5372 25.1755 15.0134 24.6652 14.3957 24.2623C13.8049 23.8595 13.2811 23.5506 12.8246 23.3358L8.5542 21.2006C7.31875 20.5829 6.13702 19.8577 5.009 19.0251C3.88098 18.1657 2.95439 17.1048 2.22924 15.8425C1.53094 14.5802 1.18179 13.0224 1.18179 11.1693C1.18179 9.1281 1.63837 7.34207 2.55153 5.81118C3.49154 4.2803 4.80757 3.08514 6.49959 2.2257C8.19162 1.36625 10.1791 0.936533 12.462 0.936533C14.6106 0.936533 16.5175 1.28568 18.1826 1.98398C19.8747 2.65542 21.2444 3.38057 22.2919 4.15944L20.4387 12.0153C19.3644 10.6187 18.0752 9.5041 16.5712 8.67152C15.094 7.81207 13.6169 7.38235 12.1397 7.38235C10.8237 7.38235 9.80308 7.71807 9.07792 8.38951C8.37963 9.06095 8.03048 9.89354 8.03048 10.8873C8.03048 11.505 8.16476 12.0556 8.43334 12.539C8.72877 13.0224 9.14507 13.4522 9.68222 13.8282C10.2194 14.2042 10.8505 14.5802 11.5757 14.9562L15.8863 17.0914C16.6115 17.4405 17.4038 17.8971 18.2632 18.4611C19.1227 18.9983 19.9552 19.6831 20.761 20.5157C21.5667 21.3483 22.2247 22.3555 22.735 23.5372C23.2453 24.6921 23.5004 26.0752 23.5004 27.6867C23.5004 29.7816 23.017 31.675 22.0501 33.3671C21.0833 35.0322 19.7135 36.3617 17.9409 37.3554C16.1952 38.3223 14.1003 38.8057 11.6563 38.8057ZM27.7922 38V13.8282H34.802V38H27.7922ZM31.2971 10.3233C30.2497 10.3233 29.3634 9.96068 28.6382 9.23553C27.9131 8.51037 27.5505 7.62407 27.5505 6.57662C27.5505 5.50232 27.9131 4.61602 28.6382 3.91772C29.3634 3.19257 30.2497 2.82999 31.2971 2.82999C32.3714 2.82999 33.2577 3.19257 33.956 3.91772C34.6812 4.61602 35.0438 5.50232 35.0438 6.57662C35.0438 7.62407 34.6812 8.51037 33.956 9.23553C33.2577 9.96068 32.3714 10.3233 31.2971 10.3233ZM50.7303 50.8916C48.8502 50.8916 47.0508 50.6096 45.3319 50.0456C43.6399 49.5085 42.1761 48.7699 40.9407 47.8299L42.6327 40.9006C43.4921 42.0555 44.6202 42.9955 46.0168 43.7207C47.4133 44.4727 48.9845 44.8487 50.7303 44.8487C53.2012 44.8487 55.1215 44.137 56.4912 42.7135C57.8609 41.3169 58.5458 39.5175 58.5458 37.3151V35.6231C57.6327 36.5631 56.5315 37.3017 55.2423 37.8389C53.98 38.376 52.5834 38.6446 51.0525 38.6446C48.8234 38.6446 46.7956 38.0671 44.9693 36.9123C43.143 35.7574 41.6793 34.2265 40.5781 32.3196C39.5038 30.3859 38.9666 28.2507 38.9666 25.9141C38.9666 23.5775 39.5038 21.4423 40.5781 19.5086C41.6793 17.5748 43.143 16.0439 44.9693 14.9159C46.7956 13.761 48.8234 13.1836 51.0525 13.1836C52.6103 13.1836 54.0337 13.4656 55.3229 14.0296C56.6121 14.5668 57.7132 15.3188 58.6264 16.2856V13.8282H64.6693V38.3223C64.6693 40.9543 64.0248 43.2104 62.7356 45.0904C61.4464 46.9704 59.741 48.4073 57.6192 49.401C55.4975 50.3948 53.2012 50.8916 50.7303 50.8916ZM51.8986 32.4808C53.0803 32.4808 54.1546 32.1853 55.1215 31.5945C56.0883 31.0036 56.8538 30.2113 57.4178 29.2176C58.0087 28.2238 58.3041 27.1227 58.3041 25.9141C58.3041 24.7055 58.0087 23.6043 57.4178 22.6106C56.8538 21.6169 56.0883 20.8246 55.1215 20.2337C54.1546 19.6428 53.0803 19.3474 51.8986 19.3474C50.7168 19.3474 49.6425 19.6428 48.6757 20.2337C47.7088 20.8246 46.9299 21.6169 46.339 22.6106C45.775 23.6043 45.493 24.7055 45.493 25.9141C45.493 27.1227 45.775 28.2238 46.339 29.2176C46.9299 30.2113 47.7088 31.0036 48.6757 31.5945C49.6425 32.1853 50.7168 32.4808 51.8986 32.4808ZM69.9746 38V13.8282H76.2592V16.4871C77.1187 15.3591 78.1796 14.4996 79.4419 13.9087C80.7042 13.3179 82.0605 13.0224 83.5108 13.0224C85.2297 13.0224 86.8277 13.4387 88.3049 14.2713C89.8089 15.0771 91.0175 16.2722 91.9306 17.8568C92.8707 19.4146 93.3407 21.308 93.3407 23.5372V38H86.3308V24.4638C86.3308 23.1209 85.928 21.9257 85.1222 20.8783C84.3165 19.8308 83.1616 19.3071 81.6576 19.3071C80.449 19.3071 79.3613 19.7234 78.3944 20.556C77.4544 21.3617 76.9844 22.6375 76.9844 24.3832V38H69.9746ZM109.065 38.6446C106.836 38.6446 104.808 38.0671 102.982 36.9123C101.155 35.7574 99.6916 34.2265 98.5905 32.3196C97.5162 30.3859 96.979 28.2507 96.979 25.9141C96.979 23.5775 97.5162 21.4423 98.5905 19.5086C99.6916 17.5748 101.155 16.0439 102.982 14.9159C104.808 13.761 106.836 13.1836 109.065 13.1836C110.623 13.1836 112.046 13.4656 113.335 14.0296C114.624 14.5668 115.726 15.3188 116.639 16.2856V13.8282H122.682V38H116.639V35.5425C115.726 36.5094 114.624 37.2748 113.335 37.8389C112.046 38.376 110.623 38.6446 109.065 38.6446ZM109.911 32.4808C111.093 32.4808 112.167 32.1853 113.134 31.5945C114.101 31.0036 114.866 30.2113 115.43 29.2176C116.021 28.2238 116.316 27.1227 116.316 25.9141C116.316 24.7055 116.021 23.6043 115.43 22.6106C114.866 21.6169 114.101 20.8246 113.134 20.2337C112.167 19.6428 111.093 19.3474 109.911 19.3474C108.729 19.3474 107.655 19.6428 106.688 20.2337C105.721 20.8246 104.942 21.6169 104.351 22.6106C103.787 23.6043 103.505 24.7055 103.505 25.9141C103.505 27.1227 103.787 28.2238 104.351 29.2176C104.942 30.2113 105.721 31.0036 106.688 31.5945C107.655 32.1853 108.729 32.4808 109.911 32.4808ZM130.807 38V19.3877H126.295V13.8282H130.928V5.7709H137.696V13.8282H142.49V19.3877H137.817V38H130.807ZM155.462 38.8057C153.77 38.8057 152.172 38.4029 150.668 37.5971C149.164 36.7646 147.942 35.5694 147.002 34.0116C146.089 32.4271 145.632 30.5202 145.632 28.291V13.8282H152.642V27.3644C152.642 28.7073 153.045 29.9024 153.851 30.9499C154.683 31.9973 155.838 32.5211 157.315 32.5211C158.524 32.5211 159.598 32.0913 160.538 31.2319C161.505 30.3456 161.989 29.0833 161.989 27.445V13.8282H168.998V38H162.633V35.462C161.774 36.5363 160.713 37.3688 159.451 37.9597C158.215 38.5237 156.886 38.8057 155.462 38.8057ZM174.329 38V13.8282H180.614V17.9777C181.446 16.5811 182.494 15.5068 183.756 14.7548C185.045 13.9759 186.549 13.5865 188.268 13.5865L189.799 19.7906C189.289 19.6294 188.711 19.5488 188.067 19.5488C186.052 19.5488 184.427 20.2068 183.192 21.5229C181.956 22.812 181.339 24.6652 181.339 27.0824V38H174.329ZM204.59 38.8057C201.878 38.8057 199.487 38.2417 197.419 37.1137C195.351 35.9857 193.74 34.4414 192.585 32.4808C191.43 30.4933 190.853 28.2238 190.853 25.6724C190.853 23.2283 191.417 21.0663 192.545 19.1863C193.673 17.2794 195.19 15.7753 197.097 14.6742C199.031 13.573 201.166 13.0224 203.502 13.0224C205.893 13.0224 208.028 13.573 209.908 14.6742C211.788 15.7485 213.265 17.2257 214.34 19.1057C215.441 20.9857 215.991 23.1209 215.991 25.5112V27.9687H201.246C200.575 27.9687 199.93 27.9284 199.313 27.8478C198.695 27.7673 198.077 27.6733 197.46 27.5658C197.782 29.1773 198.574 30.4933 199.836 31.5139C201.126 32.5076 202.764 33.0045 204.751 33.0045C206.282 33.0045 207.652 32.6956 208.861 32.0779C210.096 31.4602 211.103 30.6947 211.882 29.7816L213.413 36.0663C212.204 36.9794 210.835 37.6643 209.304 38.1209C207.8 38.5774 206.229 38.8057 204.59 38.8057ZM197.298 23.3358C198.641 23.0403 199.957 22.8926 201.246 22.8926H205.517C206.269 22.8926 206.981 22.9195 207.652 22.9732C208.323 23.0269 208.955 23.1209 209.545 23.2552C209.143 21.8049 208.404 20.6634 207.33 19.8308C206.282 18.9983 204.98 18.582 203.422 18.582C201.945 18.582 200.656 19.0117 199.554 19.8711C198.48 20.7037 197.728 21.8586 197.298 23.3358ZM237.303 38.8057C235.906 38.8057 234.523 38.5909 233.153 38.1611C231.81 37.7314 230.682 37.06 229.769 36.1468L231.663 29.3787C232.2 30.1844 232.885 30.829 233.717 31.3125C234.55 31.7959 235.49 32.0376 236.537 32.0376C237.8 32.0376 238.847 31.6213 239.68 30.7887C240.539 29.9562 240.969 28.5596 240.969 26.599V1.74226H248.462V27.1227C248.462 29.8084 247.938 32.0242 246.891 33.7699C245.843 35.4888 244.46 36.7646 242.741 37.5971C241.049 38.4029 239.237 38.8057 237.303 38.8057ZM263.839 38.8057C262.147 38.8057 260.549 38.4029 259.045 37.5971C257.541 36.7646 256.319 35.5694 255.379 34.0116C254.466 32.4271 254.009 30.5202 254.009 28.291V13.8282H261.019V27.3644C261.019 28.7073 261.422 29.9024 262.227 30.9499C263.06 31.9973 264.215 32.5211 265.692 32.5211C266.901 32.5211 267.975 32.0913 268.915 31.2319C269.882 30.3456 270.365 29.0833 270.365 27.445V13.8282H277.375V38H271.01V35.462C270.15 36.5363 269.09 37.3688 267.827 37.9597C266.592 38.5237 265.262 38.8057 263.839 38.8057ZM282.786 38V13.8282H289.796V38H282.786ZM286.291 10.3233C285.244 10.3233 284.357 9.96068 283.632 9.23553C282.907 8.51037 282.544 7.62407 282.544 6.57662C282.544 5.50232 282.907 4.61602 283.632 3.91772C284.357 3.19257 285.244 2.82999 286.291 2.82999C287.365 2.82999 288.252 3.19257 288.95 3.91772C289.675 4.61602 290.038 5.50232 290.038 6.57662C290.038 7.62407 289.675 8.51037 288.95 9.23553C288.252 9.96068 287.365 10.3233 286.291 10.3233ZM307.013 38.8057C304.623 38.8057 302.434 38.2283 300.447 37.0734C298.459 35.9185 296.875 34.3608 295.693 32.4002C294.538 30.4396 293.961 28.2776 293.961 25.9141C293.961 23.5238 294.538 21.3617 295.693 19.428C296.875 17.4674 298.459 15.9096 300.447 14.7548C302.434 13.5999 304.623 13.0224 307.013 13.0224C308.678 13.0224 310.25 13.3045 311.727 13.8685C313.231 14.4056 314.56 15.2113 315.715 16.2856L313.902 23.4163C313.231 22.3152 312.331 21.3617 311.203 20.556C310.102 19.7234 308.799 19.3071 307.295 19.3071C306.033 19.3071 304.905 19.6026 303.911 20.1934C302.918 20.7843 302.139 21.5766 301.575 22.5703C301.011 23.564 300.729 24.6786 300.729 25.9141C300.729 27.1227 301.011 28.2373 301.575 29.2579C302.139 30.2516 302.918 31.0439 303.911 31.6348C304.905 32.2256 306.033 32.5211 307.295 32.5211C308.799 32.5211 310.102 32.1182 311.203 31.3125C312.331 30.4799 313.231 29.513 313.902 28.4118L315.715 35.5425C314.56 36.6168 313.231 37.436 311.727 38C310.25 38.5372 308.678 38.8057 307.013 38.8057ZM331.889 38.8057C329.176 38.8057 326.786 38.2417 324.718 37.1137C322.65 35.9857 321.038 34.4414 319.884 32.4808C318.729 30.4933 318.151 28.2238 318.151 25.6724C318.151 23.2283 318.715 21.0663 319.843 19.1863C320.971 17.2794 322.489 15.7753 324.396 14.6742C326.329 13.573 328.465 13.0224 330.801 13.0224C333.191 13.0224 335.327 13.573 337.207 14.6742C339.087 15.7485 340.564 17.2257 341.638 19.1057C342.739 20.9857 343.29 23.1209 343.29 25.5112V27.9687H328.545C327.874 27.9687 327.229 27.9284 326.611 27.8478C325.994 27.7673 325.376 27.6733 324.758 27.5658C325.08 29.1773 325.873 30.4933 327.135 31.5139C328.424 32.5076 330.063 33.0045 332.05 33.0045C333.581 33.0045 334.951 32.6956 336.159 32.0779C337.395 31.4602 338.402 30.6947 339.181 29.7816L340.712 36.0663C339.503 36.9794 338.133 37.6643 336.602 38.1209C335.098 38.5774 333.527 38.8057 331.889 38.8057ZM324.597 23.3358C325.94 23.0403 327.256 22.8926 328.545 22.8926H332.815C333.567 22.8926 334.279 22.9195 334.951 22.9732C335.622 23.0269 336.253 23.1209 336.844 23.2552C336.441 21.8049 335.703 20.6634 334.628 19.8308C333.581 18.9983 332.278 18.582 330.721 18.582C329.243 18.582 327.954 19.0117 326.853 19.8711C325.779 20.7037 325.027 21.8586 324.597 23.3358Z" fill="black"/>
</svg>
