<svg width="149" height="32" viewBox="0 0 149 32" fill="none" xmlns="http://www.w3.org/2000/svg">
<path d="M6.12 30.88C4.97333 30.1333 4.29333 29.3867 4.08 28.64C3.89333 27.8933 4.16 27.2933 4.88 26.84C5.04 26.7333 5.34667 26.72 5.8 26.8C6.28 26.88 6.64 27.04 6.88 27.28C7.41333 27.76 8.01333 28.0533 8.68 28.16C9.37333 28.2933 10.2133 28.2267 11.2 27.96C12.32 27.6133 13.1733 27.1867 13.76 26.68C14.3733 26.1467 15.0533 25.4267 15.8 24.52C16.36 23.8 16.7467 23.0933 16.96 22.4C17.2 21.7067 17.3067 21.08 17.28 20.52C17.28 19.9333 17.1467 19.4933 16.88 19.2C16.2133 18.2667 15.3867 17.6267 14.4 17.28C13.4133 16.9067 12.12 16.9333 10.52 17.36C10.3333 17.3867 10.0533 17.44 9.68 17.52C9.30667 17.6 8.97333 17.68 8.68 17.76C8.38667 17.8133 8.22667 17.84 8.2 17.84C8.01333 17.8933 7.86667 17.92 7.76 17.92C7.65333 17.92 7.52 18.0533 7.36 18.32C7.22667 18.56 7.01333 19.08 6.72 19.88C6.42667 20.6533 5.98667 21.8533 5.4 23.48C4.84 25.1067 4.36 26.2667 3.96 26.96C3.58667 27.6267 3.25333 27.9333 2.96 27.88C2.66667 27.8 2.33333 27.5067 1.96 27C1.74667 26.6267 1.50667 26.2133 1.24 25.76C1 25.3067 1.01333 24.84 1.28 24.36C1.41333 24.12 1.52 23.9067 1.6 23.72C1.68 23.5067 1.78667 23.1467 1.92 22.64C2.05333 22.24 2.30667 21.5467 2.68 20.56C3.08 19.5467 3.54667 18.3733 4.08 17.04C4.61333 15.68 5.17333 14.28 5.76 12.84C6.34667 11.4 6.90667 10.04 7.44 8.76C8 7.48 8.46667 6.4 8.84 5.52C9.21333 4.69333 9.44 4.09333 9.52 3.72C9.6 3.34666 9.57333 3.14666 9.44 3.12C9.44 2.98667 9.4 2.86667 9.32 2.76C9.24 2.62667 9.21333 2.50667 9.24 2.4C9.24 2.29333 9.46667 2.14666 9.92 1.96C10.4 1.77333 10.9067 1.6 11.44 1.44C11.9733 1.28 12.36 1.22667 12.6 1.28C12.7333 1.28 12.8933 1.28 13.08 1.28C13.2667 1.25333 13.36 1.18667 13.36 1.08C13.44 1.08 13.6933 1.05333 14.12 1C14.5467 0.946665 15.0133 0.946665 15.52 1C17.3067 1.16 18.7733 1.68 19.92 2.56C21.0667 3.41333 21.6267 4.78667 21.6 6.68C21.5733 7.13333 21.3867 7.72 21.04 8.44C20.6933 9.16 20.2533 9.88 19.72 10.6C19.2133 11.32 18.6667 11.9467 18.08 12.48C17.7333 12.7733 17.36 13.08 16.96 13.4C16.5867 13.6933 16.2533 13.9467 15.96 14.16C15.6933 14.3467 15.56 14.44 15.56 14.44C15.56 14.44 15.6667 14.48 15.88 14.56C16.0933 14.64 16.32 14.72 16.56 14.8C17.7867 15.2533 18.7467 15.8267 19.44 16.52C20.16 17.2133 20.6667 18.1733 20.96 19.4C21.0667 19.8 21.0667 20.2933 20.96 20.88C20.88 21.4667 20.76 22.0533 20.6 22.64C20.44 23.2 20.2667 23.68 20.08 24.08C19.8933 24.2667 19.7467 24.4667 19.64 24.68C19.5333 24.8667 19.48 24.96 19.48 24.96C19.48 25.0133 19.3733 25.2267 19.16 25.6C18.9467 25.9467 18.6933 26.3333 18.4 26.76C18.1067 27.1867 17.8267 27.56 17.56 27.88C17.2933 28.0933 16.9067 28.3867 16.4 28.76C15.92 29.16 15.3867 29.5467 14.8 29.92C14.24 30.2933 13.7067 30.5733 13.2 30.76C12.4533 31.08 11.6133 31.2933 10.68 31.4C9.77333 31.5333 8.90667 31.5467 8.08 31.44C7.25333 31.36 6.6 31.1733 6.12 30.88ZM9 14.28C9 14.28 9.21333 14.24 9.64 14.16C10.0933 14.0533 10.5867 13.9467 11.12 13.84C11.6533 13.7067 12.0533 13.5867 12.32 13.48C12.4533 13.4 12.64 13.2933 12.88 13.16C13.1467 13.0267 13.4133 12.8267 13.68 12.56C14.0533 12.2133 14.4533 11.8267 14.88 11.4C15.3067 10.9467 15.72 10.4667 16.12 9.96C16.5467 9.45333 16.9067 8.90667 17.2 8.32C17.8133 7.36 18.1467 6.66667 18.2 6.24C18.2533 5.81333 18.1067 5.42667 17.76 5.08C17.52 4.78667 17.1867 4.57333 16.76 4.44C16.3333 4.28 15.8667 4.2 15.36 4.2C14.88 4.17333 14.4133 4.22667 13.96 4.36C13.6133 4.46667 13.3467 4.6 13.16 4.76C12.9733 4.89333 12.88 5.10667 12.88 5.4C12.88 5.64 12.8 5.89333 12.64 6.16C12.5067 6.4 12.3733 6.58667 12.24 6.72C12.2133 6.90667 12.12 7.09333 11.96 7.28C11.8267 7.44 11.76 7.52 11.76 7.52C11.76 7.62667 11.5867 7.96 11.24 8.52C10.92 9.05333 10.5733 9.82667 10.2 10.84C9.72 11.9867 9.4 12.8133 9.24 13.32C9.08 13.8267 9 14.1467 9 14.28ZM30.6575 27.2C29.8575 27.6533 29.0042 27.92 28.0975 28C27.2175 28.0533 26.3908 27.9333 25.6175 27.64C24.8442 27.32 24.2175 26.8533 23.7375 26.24C23.4708 25.8933 23.2175 25.3467 22.9775 24.6C22.7375 23.8267 22.6975 22.7867 22.8575 21.48C23.0175 20.2533 23.3908 19.0133 23.9775 17.76C24.5908 16.5067 25.3375 15.4 26.2175 14.44C27.0975 13.48 28.0575 12.8267 29.0975 12.48C29.4708 12.3467 29.8442 12.2533 30.2175 12.2C30.6175 12.12 31.1375 12.1067 31.7775 12.16C32.3908 12.24 32.9375 12.4 33.4175 12.64C33.8975 12.8533 34.2442 13.0933 34.4575 13.36C34.8842 13.7867 35.1642 14.2 35.2975 14.6C35.4308 15 35.4842 15.3867 35.4575 15.76C35.3242 16.6133 34.9375 17.5333 34.2975 18.52C33.6842 19.5067 32.8175 20.24 31.6975 20.72C31.2442 20.9067 30.7108 21.0267 30.0975 21.08C29.4842 21.1333 28.6442 21.0533 27.5775 20.84C26.9375 20.7067 26.5108 20.7733 26.2975 21.04C26.1108 21.3067 26.0308 21.8267 26.0575 22.6C26.1108 23.08 26.2175 23.5067 26.3775 23.88C26.5642 24.2267 26.8975 24.4667 27.3775 24.6C27.9908 24.7067 28.4308 24.72 28.6975 24.64C28.9642 24.5333 29.2975 24.3867 29.6975 24.2C29.9108 24.0667 30.1108 23.92 30.2975 23.76C30.5108 23.6 30.7108 23.44 30.8975 23.28C31.1108 23.12 31.2842 23 31.4175 22.92C31.5508 22.8133 31.6842 22.7467 31.8175 22.72C31.9508 22.6933 32.0842 22.68 32.2175 22.68C32.5108 22.7067 32.7908 22.8667 33.0575 23.16C33.3242 23.4533 33.4975 23.7333 33.5775 24C33.5775 24.2133 33.4442 24.52 33.1775 24.92C32.9108 25.2933 32.5508 25.6933 32.0975 26.12C31.6708 26.52 31.1908 26.88 30.6575 27.2ZM30.1375 18.28C30.3242 18.2 30.5908 18.0133 30.9375 17.72C31.3108 17.4267 31.6442 17.12 31.9375 16.8C32.2308 16.4533 32.3775 16.1867 32.3775 16C32.3775 15.7067 32.1775 15.4533 31.7775 15.24C31.4042 15.0267 30.9108 14.9867 30.2975 15.12C30.0842 15.1733 29.8308 15.32 29.5375 15.56C29.2442 15.8 28.9508 16.08 28.6575 16.4C28.3642 16.6933 28.1108 16.9867 27.8975 17.28C27.6842 17.5467 27.5375 17.76 27.4575 17.92C27.5642 18.0533 27.7775 18.16 28.0975 18.24C28.4175 18.32 28.7642 18.36 29.1375 18.36C29.5375 18.36 29.8708 18.3333 30.1375 18.28ZM38.4169 28.24C37.5102 27.8667 36.8435 27.48 36.4169 27.08C36.0169 26.6533 35.8569 26.28 35.9369 25.96C35.9902 25.8 36.0835 25.6533 36.2169 25.52C36.3502 25.3867 36.6435 25.3333 37.0969 25.36C37.5769 25.36 38.3102 25.48 39.2969 25.72C39.5902 25.72 39.8835 25.7067 40.1769 25.68C40.4702 25.6533 40.7369 25.6133 40.9769 25.56C41.2435 25.5067 41.4569 25.44 41.6169 25.36C41.7502 25.3067 41.7902 25.24 41.7369 25.16C41.6835 25.0533 41.5902 24.9467 41.4569 24.84C41.3502 24.7067 41.2302 24.6267 41.0969 24.6C40.9635 24.5467 40.8435 24.52 40.7369 24.52C40.6835 24.3867 40.5635 24.2533 40.3769 24.12C40.2169 23.9867 40.0169 23.84 39.7769 23.68C39.1902 23.2 38.6569 22.7733 38.1769 22.4C37.6969 22.0267 37.5102 21.7467 37.6169 21.56C37.6169 21.4533 37.6169 21.4 37.6169 21.4C37.6169 21.3733 37.6169 21.36 37.6169 21.36C37.4302 21.36 37.2569 21.1067 37.0969 20.6C36.9369 20.0667 36.8569 19.5867 36.8569 19.16C36.8569 18.6267 36.9635 18.0933 37.1769 17.56C37.4169 17.0267 37.7102 16.52 38.0569 16.04C38.4302 15.56 38.8035 15.1333 39.1769 14.76C39.6835 14.28 40.2169 13.8133 40.7769 13.36C41.3635 12.88 41.9902 12.4533 42.6569 12.08C43.3502 11.7067 44.1102 11.4133 44.9369 11.2C45.3102 11.12 45.7369 11.08 46.2169 11.08C46.6969 11.08 47.0435 11.1467 47.2569 11.28C47.4702 11.1467 47.7369 11.1867 48.0569 11.4C48.3769 11.5867 48.6969 11.8533 49.0169 12.2C49.3369 12.5467 49.5769 12.8933 49.7369 13.24C49.7369 13.56 49.7235 13.96 49.6969 14.44C49.6969 14.8933 49.6702 15.2933 49.6169 15.64C49.5635 15.9867 49.4435 16.16 49.2569 16.16C49.2569 16.16 49.2169 16.1733 49.1369 16.2C49.0835 16.2 49.0569 16.2667 49.0569 16.4C49.0569 16.6667 48.8569 16.9733 48.4569 17.32C47.9502 17.6667 47.4702 17.9467 47.0169 18.16C46.5635 18.3733 46.2169 18.3867 45.9769 18.2C45.8169 18.0933 45.6702 17.9867 45.5369 17.88C45.4035 17.7733 45.2835 17.64 45.1769 17.48C45.1769 17.48 45.1369 17.4267 45.0569 17.32C45.0035 17.1867 44.9769 17.0667 44.9769 16.96C44.9769 16.8533 45.0169 16.76 45.0969 16.68C45.1769 16.5733 45.2169 16.52 45.2169 16.52C45.5902 16.1733 45.8702 15.8533 46.0569 15.56C46.2702 15.2667 46.4169 15.0133 46.4969 14.8C46.5769 14.56 46.6169 14.3733 46.6169 14.24C46.6169 14.08 46.5769 13.9867 46.4969 13.96C46.4435 13.9067 46.3102 13.88 46.0969 13.88C45.9635 13.88 45.6702 13.9867 45.2169 14.2C44.7902 14.4133 44.3369 14.68 43.8569 15C43.3769 15.2933 43.0035 15.56 42.7369 15.8C42.6302 15.9867 42.5502 16.1067 42.4969 16.16C42.4702 16.2133 42.4035 16.24 42.2969 16.24C42.2969 16.1333 42.2302 16.1467 42.0969 16.28C41.9635 16.4133 41.8035 16.6 41.6169 16.84C41.4302 17.08 41.2435 17.3333 41.0569 17.6C40.8702 17.8667 40.7235 18.08 40.6169 18.24C40.5902 18.48 40.5235 18.7067 40.4169 18.92C40.3369 19.1067 40.3102 19.3067 40.3369 19.52C40.3635 19.7867 40.4969 20.04 40.7369 20.28C40.9769 20.52 41.3235 20.8267 41.7769 21.2C42.7102 21.8933 43.4035 22.44 43.8569 22.84C44.3369 23.24 44.6702 23.56 44.8569 23.8C45.0435 24.04 45.1635 24.28 45.2169 24.52C45.6702 25.3467 45.7235 26.0667 45.3769 26.68C45.0302 27.2667 44.4969 27.72 43.7769 28.04C43.5102 28.1733 43.0435 28.2933 42.3769 28.4C41.7102 28.5333 41.0035 28.5867 40.2569 28.56C39.5369 28.56 38.9235 28.4533 38.4169 28.24ZM55.4813 28.24C55.1079 28.1333 54.7346 27.9467 54.3613 27.68C53.9879 27.4133 53.6013 27.1067 53.2013 26.76C52.8813 26.3333 52.6546 25.9467 52.5213 25.6C52.3879 25.2267 52.3079 24.8 52.2813 24.32C52.2813 23.8133 52.2813 23.1733 52.2813 22.4C52.2813 22.08 52.3346 21.6267 52.4413 21.04C52.5746 20.4533 52.7079 19.84 52.8413 19.2C53.0013 18.56 53.1479 18 53.2813 17.52C53.4146 17.0133 53.4946 16.68 53.5213 16.52C53.6013 16.1733 53.4679 15.9733 53.1213 15.92C52.7746 15.8667 52.3879 15.8533 51.9613 15.88C51.5613 15.88 51.2946 15.84 51.1613 15.76C51.0546 15.7333 51.0013 15.6 51.0013 15.36C51.0013 15.0933 51.0013 14.96 51.0013 14.96C51.0013 14.8533 50.9479 14.7867 50.8413 14.76C50.7346 14.7067 50.6413 14.6133 50.5613 14.48C50.5079 14.3733 50.5746 14.1733 50.7613 13.88C50.9479 13.5867 51.1879 13.4133 51.4813 13.36C51.7213 13.3067 52.0813 13.2667 52.5613 13.24C53.0413 13.1867 53.5213 13.0933 54.0013 12.96C54.5079 12.8 54.8946 12.56 55.1613 12.24C55.4013 11.6533 55.6679 11.0267 55.9613 10.36C56.2546 9.66667 56.5346 9.06667 56.8013 8.56C57.0679 8.02667 57.2546 7.69333 57.3613 7.56C57.8146 7.32 58.2813 7.22667 58.7613 7.28C59.2413 7.30667 59.6146 7.53333 59.8813 7.96C60.0146 8.14667 60.1213 8.28 60.2013 8.36C60.3079 8.44 60.3479 8.56 60.3213 8.72C60.3213 8.88 60.2146 9.17333 60.0013 9.6C59.8146 10 59.4946 10.6267 59.0413 11.48C58.9079 11.7467 58.7879 11.9867 58.6813 12.2C58.5746 12.3867 58.5213 12.48 58.5213 12.48C58.6279 12.5067 58.7879 12.52 59.0013 12.52C59.2146 12.52 59.4813 12.5067 59.8013 12.48C60.0946 12.4267 60.4146 12.3867 60.7613 12.36C61.1079 12.3067 61.4146 12.3067 61.6813 12.36C62.2946 12.36 62.7479 12.5333 63.0413 12.88C63.3346 13.2267 63.4946 13.6667 63.5213 14.2C63.5746 14.4933 63.4679 14.7467 63.2013 14.96C62.9346 15.1733 62.4413 15.28 61.7213 15.28C61.4813 15.28 61.1346 15.2933 60.6813 15.32C60.2279 15.3467 59.7613 15.3733 59.2813 15.4C58.8013 15.4267 58.3879 15.4667 58.0412 15.52C57.7213 15.5467 57.5613 15.5867 57.5613 15.64C57.4813 15.6933 57.3479 15.9067 57.1613 16.28C57.0013 16.6267 56.8279 17.0533 56.6413 17.56C56.4813 18.0667 56.3346 18.5467 56.2013 19C56.0146 19.9067 55.8813 20.7867 55.8013 21.64C55.7213 22.4933 55.7079 23.24 55.7613 23.88C55.8413 24.4933 56.0013 24.9333 56.2413 25.2C56.4813 25.44 56.8413 25.44 57.3213 25.2C57.8279 24.9333 58.2946 24.6267 58.7213 24.28C59.2013 23.88 59.6146 23.76 59.9613 23.92C60.3079 24.0533 60.5213 24.3467 60.6013 24.8C60.7079 25.2267 60.5879 25.6933 60.2413 26.2C59.9213 26.7067 59.4679 27.1333 58.8813 27.48C58.2946 27.8267 57.6946 28.0667 57.0813 28.2C56.4679 28.36 55.9346 28.3733 55.4813 28.24ZM73.8509 30.04C73.6109 29.9333 73.3309 29.72 73.0109 29.4C72.4776 28.9467 72.1176 28.3733 71.9309 27.68C71.7709 26.96 71.7576 26.2667 71.8909 25.6C72.2109 24.8 72.5576 24.2533 72.9309 23.96C73.3309 23.64 73.7443 23.5067 74.1709 23.56C74.6243 23.5867 75.0509 23.7467 75.4509 24.04C75.2643 24.6 75.1176 25.1067 75.0109 25.56C74.9043 26.0133 74.9443 26.4 75.1309 26.72C75.3176 27.04 75.7576 27.2933 76.4509 27.48C76.9843 27.5333 77.4376 27.56 77.8109 27.56C78.2109 27.5333 78.6776 27.5067 79.2109 27.48C79.8243 27.4267 80.3043 27.36 80.6509 27.28C81.0243 27.2 81.3576 27.12 81.6509 27.04C82.3976 26.8267 83.0376 26.5333 83.5709 26.16C84.1043 25.76 84.5443 25.3067 84.8909 24.8C85.1043 24.4267 85.2509 24.0933 85.3309 23.8C85.4109 23.48 85.4509 23.1467 85.4509 22.8C85.4509 22.4 85.4109 22.0533 85.3309 21.76C85.2509 21.44 85.1043 21.0667 84.8909 20.64C84.7043 20.1867 84.3976 19.56 83.9709 18.76C83.9443 18.5733 83.7309 18.2533 83.3309 17.8C82.9576 17.3467 82.5843 16.9067 82.2109 16.48C82.0243 16.0533 81.7843 15.5733 81.4909 15.04C81.1976 14.48 80.8643 14.08 80.4909 13.84C80.3843 13.68 80.2643 13.4267 80.1309 13.08C80.0243 12.7333 79.9309 12.5467 79.8509 12.52C79.8509 12.52 79.8109 12.4533 79.7309 12.32C79.6776 12.1867 79.6109 12.0267 79.5309 11.84C79.1843 11.0667 79.1709 10.1067 79.4909 8.96C79.8109 7.78667 80.3976 6.69333 81.2509 5.68C81.5443 5.2 81.9176 4.72 82.3709 4.24C82.8243 3.73333 83.2376 3.32 83.6109 3C84.0109 2.65333 84.2643 2.48 84.3709 2.48C84.3709 2.48 84.4509 2.45333 84.6109 2.4C84.7976 2.32 85.0243 2.18667 85.2909 2C85.5843 1.81333 85.8643 1.66667 86.1309 1.56C86.3976 1.42667 86.7843 1.30667 87.2909 1.2L87.5309 1.16L87.6909 1.12C88.1443 0.986665 88.5176 0.893332 88.8109 0.839999C89.1043 0.759999 89.3843 0.719998 89.6509 0.719998C89.9176 0.719998 90.2376 0.733332 90.6109 0.759998C91.8109 1.08 92.7309 1.52 93.3709 2.08C94.0376 2.61333 94.3976 3.58667 94.4509 5L94.1309 6.12L93.4509 6.88C93.3709 6.85333 93.1576 6.93333 92.8109 7.12C92.4909 7.30667 92.0376 7.45333 91.4509 7.56C90.8909 7.64 90.1709 7.50667 89.2909 7.16C89.1843 7.13333 89.1443 7.06667 89.1709 6.96C89.1976 6.82667 89.3043 6.74667 89.4909 6.72C89.5709 6.66667 89.6909 6.54667 89.8509 6.36C90.0376 6.17333 90.2109 5.96 90.3709 5.72C90.7176 5.24 90.7976 4.88 90.6109 4.64C90.4509 4.37333 90.1309 4.24 89.6509 4.24C88.7443 4.26666 87.8776 4.44 87.0509 4.76C86.2243 5.05333 85.4643 5.58667 84.7709 6.36C84.2109 7.08 83.7976 7.72 83.5309 8.28C83.2643 8.81333 83.1309 9.30667 83.1309 9.76C83.1843 9.94667 83.2109 10.2267 83.2109 10.6C83.2376 10.9467 83.3443 11.3067 83.5309 11.68C84.4109 12.9067 85.0909 13.8533 85.5709 14.52C86.0776 15.1867 86.4243 15.6667 86.6109 15.96C86.6643 16.04 86.7043 16.1067 86.7309 16.16C86.7576 16.2133 86.7709 16.2667 86.7709 16.32C86.8776 16.5067 87.0243 16.7733 87.2109 17.12C87.3976 17.4667 87.5709 17.8 87.7309 18.12C87.8909 18.44 87.9709 18.6533 87.9709 18.76C87.9709 18.76 88.0109 18.84 88.0909 19C88.1709 19.1333 88.2643 19.3333 88.3709 19.6C88.5043 19.84 88.6243 20.1867 88.7309 20.64C88.8643 21.0667 88.9709 21.5333 89.0509 22.04C89.1309 22.52 89.1709 22.96 89.1709 23.36C89.1709 23.68 89.0909 24.0933 88.9309 24.6C88.7709 25.08 88.5576 25.5733 88.2909 26.08C88.0509 26.56 87.7443 26.96 87.3709 27.28C86.9976 27.6 86.4509 27.9867 85.7309 28.44C85.0109 28.8933 84.2243 29.3067 83.3709 29.68C82.5176 30.0533 81.6909 30.3067 80.8909 30.44C80.0909 30.5733 79.3309 30.68 78.6109 30.76C77.9176 30.84 77.2643 30.8667 76.6509 30.84C76.0643 30.84 75.5309 30.7733 75.0509 30.64C74.5709 30.5067 74.1709 30.3067 73.8509 30.04ZM97.0556 28.72C95.589 28.72 94.4556 28.2933 93.6556 27.44C92.8823 26.5867 92.4956 25.28 92.4956 23.52C92.4956 22.56 92.669 21.5067 93.0156 20.36C93.389 19.2133 93.869 18.0933 94.4556 17C95.069 15.9067 95.7356 14.96 96.4556 14.16C97.1756 13.3333 97.8956 12.76 98.6156 12.44C98.8823 12.3067 99.1623 12.2133 99.4556 12.16C99.7756 12.08 100.082 12.04 100.376 12.04C100.696 12.04 101.042 12.0667 101.416 12.12C101.816 12.1467 102.189 12.2267 102.536 12.36C103.149 12.5467 103.682 12.9067 104.136 13.44C104.616 13.9733 104.856 14.7467 104.856 15.76C104.856 16.0267 104.829 16.32 104.776 16.64C104.722 16.9333 104.629 17.2267 104.496 17.52C104.149 18.4 103.616 19.24 102.896 20.04C102.202 20.84 101.469 21.4 100.696 21.72C100.482 21.8267 100.269 21.9067 100.056 21.96C99.869 21.9867 99.669 22 99.4556 22C98.8956 22 98.389 21.92 97.9356 21.76C97.509 21.6 97.109 21.3867 96.7356 21.12L96.4156 20.84L96.2156 21.24C96.029 21.7467 95.8956 22.1733 95.8156 22.52C95.7623 22.8667 95.7356 23.12 95.7356 23.28C95.7356 23.6 95.749 23.9333 95.7756 24.28C95.8023 24.6 95.8823 24.8667 96.0156 25.08C96.1223 25.2133 96.2556 25.32 96.4156 25.4C96.6023 25.48 96.829 25.52 97.0956 25.52C97.2556 25.52 97.4023 25.52 97.5356 25.52C97.6956 25.4933 97.829 25.4667 97.9356 25.44C98.4156 25.3333 98.8023 25.16 99.0956 24.92C99.4156 24.6533 99.749 24.4267 100.096 24.24L100.256 24.16L100.216 24.04C100.669 23.8 100.976 23.6533 101.136 23.6C101.296 23.52 101.416 23.4533 101.496 23.4C101.602 23.2933 101.722 23.24 101.856 23.24C102.229 23.1867 102.589 23.2933 102.936 23.56C103.309 23.8 103.496 24.1067 103.496 24.48C103.496 24.64 103.376 24.8933 103.136 25.24C102.922 25.5867 102.642 25.9333 102.296 26.28C101.976 26.6 101.642 26.8533 101.296 27.04C101.216 27.0667 101.136 27.1067 101.056 27.16C100.976 27.1867 100.896 27.2267 100.816 27.28H100.856C100.616 27.6 100.376 27.76 100.136 27.76H99.8156C99.709 27.9467 99.3623 28.1467 98.7756 28.36C98.189 28.6 97.6156 28.72 97.0556 28.72ZM99.1356 19.08C99.3756 19.08 99.589 19.04 99.7756 18.96C99.989 18.88 100.189 18.7867 100.376 18.68C101.016 18.2267 101.429 17.64 101.616 16.92C101.802 16.2 101.736 15.6533 101.416 15.28C101.362 15.2 101.296 15.1467 101.216 15.12C101.136 15.0667 101.042 15.04 100.936 15.04C100.642 15.04 100.309 15.1333 99.9356 15.32C99.589 15.5067 99.2423 15.7733 98.8956 16.12C98.549 16.4667 98.229 16.88 97.9356 17.36L97.4156 18.2C97.469 18.1733 97.509 18.16 97.5356 18.16C97.589 18.1333 97.629 18.12 97.6556 18.12C97.8956 18.12 98.0556 18.2 98.1356 18.36C98.2156 18.52 98.309 18.68 98.4156 18.84C98.549 19 98.789 19.08 99.1356 19.08ZM106.655 29.2C106.308 29.0667 106.028 28.8533 105.815 28.56C105.602 28.2933 105.482 27.8933 105.455 27.36C105.428 27.0133 105.442 26.5067 105.495 25.84C105.548 25.1467 105.642 24.4533 105.775 23.76C105.775 23.7067 105.775 23.6533 105.775 23.6C105.802 23.52 105.815 23.4667 105.815 23.44C105.842 23.3333 105.868 23.1733 105.895 22.96C105.922 22.72 105.948 22.5333 105.975 22.4C106.028 22.24 106.055 22.2267 106.055 22.36L106.295 21.28C106.402 20.8 106.522 20.3067 106.655 19.8C106.788 19.2933 106.908 18.8533 107.015 18.48C107.148 18.08 107.228 17.8533 107.255 17.8C107.255 17.8 107.295 17.6533 107.375 17.36C107.482 17.04 107.588 16.72 107.695 16.4C108.122 15.0667 108.522 13.96 108.895 13.08C109.295 12.2 109.642 11.56 109.935 11.16C109.962 11.08 110.002 10.9867 110.055 10.88C110.108 10.7467 110.148 10.64 110.175 10.56C110.175 10.2667 110.188 10.0533 110.215 9.92C110.268 9.78667 110.335 9.66667 110.415 9.56C110.468 9.45333 110.548 9.32 110.655 9.16C110.762 8.97333 110.882 8.74667 111.015 8.48L111.175 8.04C111.335 7.69333 111.535 7.29333 111.775 6.84C112.015 6.36 112.188 6 112.295 5.76C112.375 5.52 112.535 5.24 112.775 4.92C113.015 4.57333 113.282 4.34667 113.575 4.24L113.535 4.2C113.668 3.96 113.922 3.77333 114.295 3.64C114.668 3.48 114.975 3.4 115.215 3.4C115.588 3.4 115.868 3.50667 116.055 3.72C116.268 3.93333 116.375 4.22667 116.375 4.6C116.375 5 116.362 5.29333 116.335 5.48C116.335 5.64 116.242 5.82667 116.055 6.04H116.095C116.148 5.98667 116.135 6.06667 116.055 6.28C115.975 6.49333 115.908 6.64 115.855 6.72C115.802 6.85333 115.735 7 115.655 7.16C115.602 7.32 115.535 7.44 115.455 7.52C115.375 7.62667 115.162 8 114.815 8.64C114.468 9.25333 114.082 9.98667 113.655 10.84C113.228 11.6667 112.815 12.48 112.415 13.28C112.042 14.0533 111.775 14.6533 111.615 15.08L111.415 15.68C111.388 15.7867 111.375 15.8667 111.375 15.92C111.295 16.1067 111.215 16.2933 111.135 16.48C111.055 16.6667 110.975 16.8267 110.895 16.96L110.255 19.44L110.095 20.28L109.735 21.2L109.495 21.96C109.442 22.12 109.402 22.2933 109.375 22.48C109.348 22.6667 109.295 22.8 109.215 22.88C109.215 22.9067 109.202 22.9467 109.175 23C109.175 23.0267 109.175 23.0533 109.175 23.08C109.068 23.5067 108.882 24.1067 108.615 24.88C108.375 25.6533 108.228 26.5067 108.175 27.44C108.175 27.4667 108.162 27.4933 108.135 27.52C108.135 27.5467 108.135 27.5733 108.135 27.6C108.055 28.16 107.882 28.5867 107.615 28.88C107.375 29.2 107.055 29.3067 106.655 29.2ZM115.164 28.44C114.658 28.5733 114.204 28.4267 113.804 28C113.404 27.6 113.124 27 112.964 26.2C112.804 25.4 112.831 24.5067 113.044 23.52C113.178 23.2 113.284 22.8933 113.364 22.6C113.444 22.28 113.484 22.0267 113.484 21.84C113.538 21.5733 113.644 21.1867 113.804 20.68C113.964 20.1467 114.138 19.6 114.324 19.04C114.511 18.48 114.684 17.9867 114.844 17.56C115.031 17.1067 115.151 16.8267 115.204 16.72C115.311 16.72 115.404 16.6267 115.484 16.44C115.564 16.2533 115.604 16.0667 115.604 15.88C115.604 15.6667 115.644 15.4267 115.724 15.16C115.831 14.8933 115.938 14.7067 116.044 14.6C116.044 14.4667 116.071 14.32 116.124 14.16C116.204 13.9733 116.244 13.8267 116.244 13.72C116.244 13.6133 116.271 13.5067 116.324 13.4C116.404 13.2933 116.444 13.1867 116.444 13.08C116.631 12.7333 116.871 12.1867 117.164 11.44C117.484 10.6667 117.818 9.81333 118.164 8.88C118.538 7.94667 118.884 7.02667 119.204 6.12C119.524 5.21333 119.778 4.45333 119.964 3.84C120.178 3.2 120.284 2.81333 120.284 2.68C120.284 2.46667 120.364 2.26667 120.524 2.08C120.684 1.89333 120.871 1.8 121.084 1.8C121.164 1.72 121.351 1.66666 121.644 1.64C121.938 1.58667 122.138 1.56 122.244 1.56C122.244 1.56 122.298 1.61333 122.404 1.72C122.511 1.82667 122.671 1.98666 122.884 2.2C123.098 2.38667 123.298 2.6 123.484 2.84C123.698 3.08 123.804 3.36 123.804 3.68C123.804 4.02667 123.751 4.36 123.644 4.68C123.564 5 123.404 5.44 123.164 6C122.924 6.53333 122.551 7.33333 122.044 8.4C121.831 8.93333 121.604 9.44 121.364 9.92C121.124 10.3733 121.004 10.6533 121.004 10.76C121.004 10.8667 120.951 11.0267 120.844 11.24C120.764 11.4533 120.671 11.72 120.564 12.04C120.458 12.2533 120.311 12.5733 120.124 13C119.938 13.4 119.738 13.84 119.524 14.32C119.338 14.7733 119.178 15.1733 119.044 15.52C118.911 15.84 118.844 16.0267 118.844 16.08C118.844 16.1867 118.831 16.2933 118.804 16.4C118.804 16.5067 118.751 16.6133 118.644 16.72C118.538 16.72 118.471 16.8 118.444 16.96C118.444 17.0933 118.444 17.16 118.444 17.16C118.444 17.4267 118.231 18.1333 117.804 19.28C117.378 20.7467 116.978 22.0933 116.604 23.32C116.258 24.5467 116.084 25.5333 116.084 26.28C116.084 26.92 115.978 27.4133 115.764 27.76C115.578 28.1067 115.378 28.3333 115.164 28.44ZM123.274 27.64C122.234 27.2133 121.514 26.52 121.114 25.56C120.714 24.6 120.607 23.32 120.794 21.72C120.847 20.8933 120.82 20.3467 120.714 20.08C120.607 19.7867 120.407 19.5067 120.114 19.24C120.034 19.1333 119.847 18.96 119.554 18.72C119.26 18.4533 119.127 18.2533 119.154 18.12C119.127 17.9333 119.167 17.7067 119.274 17.44C119.38 17.1467 119.474 16.9867 119.554 16.96C119.74 16.88 119.927 16.7867 120.114 16.68C120.327 16.5733 120.487 16.5467 120.594 16.6C120.7 16.6 120.86 16.6667 121.074 16.8C121.314 16.9333 121.434 17.0533 121.434 17.16C121.54 17.3467 121.7 17.2667 121.914 16.92C122.154 16.5733 122.407 16.1333 122.674 15.6C122.94 15.1733 123.274 14.7733 123.674 14.4C124.074 14.0267 124.474 13.6933 124.874 13.4C125.3 13.08 125.66 12.84 125.954 12.68C126.087 12.6267 126.34 12.5467 126.714 12.44C127.114 12.3333 127.527 12.2533 127.954 12.2C128.38 12.12 128.7 12.0933 128.914 12.12C129.394 12.1467 129.9 12.3467 130.434 12.72C130.967 13.0933 131.38 13.44 131.674 13.76C132.02 14 132.247 14.3733 132.354 14.88C132.487 15.36 132.54 15.8667 132.514 16.4C132.487 16.9333 132.38 17.3867 132.194 17.76C132.114 18.0267 131.834 18.4 131.354 18.88C130.874 19.36 130.34 19.8267 129.754 20.28C129.194 20.7067 128.714 21 128.314 21.16C127.967 21.24 127.554 21.3067 127.074 21.36C126.594 21.3867 126.14 21.3867 125.714 21.36C125.314 21.3067 125.034 21.24 124.874 21.16C124.687 21.0533 124.527 21.0933 124.394 21.28C124.287 21.44 124.194 21.8933 124.114 22.64C124.087 22.9333 124.087 23.1867 124.114 23.4C124.167 23.6133 124.22 23.7733 124.274 23.88C124.46 24.2 124.647 24.44 124.834 24.6C125.02 24.7333 125.367 24.7733 125.874 24.72C126.38 24.6667 126.887 24.36 127.394 23.8C127.927 23.2133 128.407 22.7467 128.834 22.4C128.94 22.2133 129.167 22.0933 129.514 22.04C129.887 21.96 130.327 21.9867 130.834 22.12C131.127 22.3067 131.26 22.6 131.234 23C131.234 23.4 131.02 23.9867 130.594 24.76C130.514 24.9467 130.287 25.2267 129.914 25.6C129.567 25.9467 129.18 26.3067 128.754 26.68C128.354 27.0267 128.02 27.28 127.754 27.44C126.954 27.8667 126.167 28.0667 125.394 28.04C124.62 28.0133 123.914 27.88 123.274 27.64ZM126.234 18.64C126.634 18.5333 126.967 18.4267 127.234 18.32C127.527 18.2133 127.807 18.04 128.074 17.8C128.34 17.56 128.647 17.2 128.994 16.72C129.1 16.4267 129.154 16.1733 129.154 15.96C129.18 15.7467 129.167 15.6133 129.114 15.56C128.9 15.3467 128.66 15.28 128.394 15.36C128.154 15.4133 127.887 15.5467 127.594 15.76C127.407 15.84 127.14 16.0133 126.794 16.28C126.474 16.52 126.154 16.8 125.834 17.12C125.54 17.4133 125.3 17.6933 125.114 17.96C124.954 18.2 124.927 18.3467 125.034 18.4C124.98 18.5067 125.127 18.5733 125.474 18.6C125.847 18.6267 126.1 18.64 126.234 18.64ZM137.153 27.16C137.073 27.1867 136.9 27.1733 136.633 27.12C136.393 27.0667 136.14 27 135.873 26.92C135.633 26.84 135.486 26.7733 135.433 26.72C135.326 26.6133 135.18 26.4267 134.993 26.16C134.806 25.8667 134.7 25.48 134.673 25C134.673 24.52 134.9 23.9467 135.353 23.28C135.486 23.0133 135.646 22.6133 135.833 22.08C136.02 21.5467 136.206 20.9867 136.393 20.4C136.606 19.7867 136.793 19.24 136.953 18.76C137.14 18.28 137.273 17.9467 137.353 17.76C137.406 17.3067 137.38 16.9867 137.273 16.8C137.193 16.5867 136.966 16.4667 136.593 16.44C136.326 16.44 136.113 16.3467 135.953 16.16C135.82 15.9733 135.753 15.64 135.753 15.16C135.806 14.7867 135.9 14.4667 136.033 14.2C136.193 13.9067 136.406 13.6667 136.673 13.48C136.94 13.3467 137.273 13.2533 137.673 13.2C138.1 13.1467 138.513 13.1333 138.913 13.16C139.313 13.1867 139.593 13.28 139.753 13.44C139.94 13.5467 140.086 13.7867 140.193 14.16C140.326 14.5067 140.433 14.8667 140.513 15.24C140.593 15.6133 140.646 15.8933 140.673 16.08C140.94 15.8667 141.233 15.5733 141.553 15.2C141.9 14.8 142.246 14.4267 142.593 14.08C143.02 13.7867 143.526 13.4933 144.113 13.2C144.7 12.88 145.126 12.72 145.393 12.72C145.686 12.72 146.046 12.8667 146.473 13.16C146.9 13.4267 147.166 13.6667 147.273 13.88C147.54 14.3333 147.726 14.8133 147.833 15.32C147.966 15.8 147.886 16.2267 147.593 16.6C147.326 16.9467 146.953 17.2933 146.473 17.64C145.993 17.96 145.393 18.0533 144.673 17.92C144.513 17.8667 144.34 17.6667 144.153 17.32C143.993 16.9733 143.9 16.72 143.873 16.56C143.873 16.48 143.753 16.56 143.513 16.8C143.3 17.0133 143.033 17.28 142.713 17.6C142.42 17.92 142.14 18.2133 141.873 18.48C141.42 19.04 140.94 19.8 140.433 20.76C139.926 21.72 139.326 22.88 138.633 24.24C138.313 24.9067 138.046 25.5467 137.833 26.16C137.62 26.7467 137.393 27.08 137.153 27.16Z" fill="#FD7034"/>
</svg>
