<svg width="199" height="25" viewBox="0 0 199 25" fill="none" xmlns="http://www.w3.org/2000/svg">
<path d="M0.188501 19V1.65625H5.62288C6.77913 1.65625 7.6977 1.88108 8.37861 2.33073C9.07236 2.76753 9.56697 3.30069 9.86246 3.93021C10.1579 4.54687 10.3057 5.13785 10.3057 5.70312C10.3057 6.20417 10.2093 6.67951 10.0166 7.12917C9.82392 7.56597 9.55413 7.95139 9.20725 8.28542C10.0038 8.78646 10.6461 9.45451 11.1343 10.2896C11.6225 11.1118 11.8666 12.0304 11.8666 13.0453C11.8666 14.0345 11.6225 14.9852 11.1343 15.8974C10.6461 16.8095 9.92027 17.5547 8.95673 18.1328C7.99319 18.7109 6.80482 19 5.39163 19H0.188501ZM3.54163 15.8781H5.04475C5.81558 15.8781 6.43225 15.7304 6.89475 15.4349C7.3701 15.1266 7.71055 14.7476 7.91611 14.2979C8.13451 13.8354 8.24371 13.3793 8.24371 12.9297C8.24371 12.4929 8.14093 12.0497 7.93538 11.6C7.72982 11.1375 7.38937 10.7521 6.91402 10.4437C6.45152 10.1354 5.82843 9.98125 5.04475 9.98125H3.54163V15.8781ZM3.54163 7.55312H5.04475C5.64857 7.55312 6.13676 7.4118 6.50933 7.12917C6.8819 6.84653 7.06819 6.43542 7.06819 5.89583C7.06819 5.33055 6.8819 4.9066 6.50933 4.62396C6.14961 4.34132 5.68711 4.2 5.12183 4.2H3.54163V7.55312ZM20.0477 19.3854C18.7501 19.3854 17.6067 19.1156 16.6175 18.576C15.6283 18.0365 14.8574 17.2977 14.305 16.3599C13.7526 15.4092 13.4763 14.3236 13.4763 13.1031C13.4763 11.934 13.7461 10.8998 14.2857 10.0005C14.8253 9.08837 15.5512 8.36892 16.4633 7.84219C17.3883 7.31545 18.4097 7.05208 19.5274 7.05208C20.6708 7.05208 21.6921 7.31545 22.5914 7.84219C23.4908 8.35608 24.1973 9.06267 24.7112 9.96198C25.238 10.8613 25.5013 11.8826 25.5013 13.026V14.2016H18.4482C18.127 14.2016 17.8187 14.1823 17.5232 14.1438C17.2277 14.1052 16.9322 14.0602 16.6368 14.0089C16.7909 14.7797 17.1699 15.4092 17.7737 15.8974C18.3904 16.3727 19.1741 16.6104 20.1248 16.6104C20.8571 16.6104 21.5123 16.4627 22.0904 16.1672C22.6814 15.8717 23.1631 15.5056 23.5357 15.0688L24.268 18.075C23.6899 18.5118 23.0347 18.8394 22.3024 19.0578C21.5829 19.2762 20.8314 19.3854 20.0477 19.3854ZM16.5597 11.9854C17.202 11.8441 17.8316 11.7734 18.4482 11.7734H20.4909C20.8506 11.7734 21.1911 11.7863 21.5123 11.812C21.8335 11.8377 22.1354 11.8826 22.418 11.9469C22.2253 11.2531 21.872 10.7071 21.3581 10.3089C20.8571 9.91059 20.234 9.71146 19.4888 9.71146C18.7822 9.71146 18.1656 9.91701 17.6388 10.3281C17.125 10.7264 16.7652 11.2788 16.5597 11.9854ZM27.3604 19V7.4375H30.3666V9.4224C30.7649 8.75434 31.2659 8.24045 31.8698 7.88073C32.4864 7.50816 33.2059 7.32187 34.0281 7.32187L34.7604 10.2896C34.5163 10.2125 34.2401 10.174 33.9317 10.174C32.9682 10.174 32.1909 10.4887 31.6 11.1182C31.009 11.7349 30.7135 12.6214 30.7135 13.7776V19H27.3604ZM36.2219 19V7.4375H39.2282V9.4224C39.6265 8.75434 40.1275 8.24045 40.7313 7.88073C41.348 7.50816 42.0674 7.32187 42.8897 7.32187L43.6219 10.2896C43.3779 10.2125 43.1016 10.174 42.7933 10.174C41.8298 10.174 41.0525 10.4887 40.4615 11.1182C39.8706 11.7349 39.5751 12.6214 39.5751 13.7776V19H36.2219ZM44.7945 24.7813L48.6486 17.0344L43.9273 7.4375H47.6273L49.67 11.6771C49.8498 12.0625 50.004 12.4158 50.1325 12.737C50.2738 13.0453 50.3894 13.3472 50.4794 13.6427C50.5821 13.3472 50.7042 13.0453 50.8455 12.737C50.9868 12.4158 51.1538 12.0625 51.3465 11.6771L53.4278 7.4375H56.9929L48.3981 24.7813H44.7945ZM64.7398 19V1.65625H70.1741C71.3304 1.65625 72.249 1.88108 72.9299 2.33073C73.6236 2.76753 74.1182 3.30069 74.4137 3.93021C74.7092 4.54687 74.857 5.13785 74.857 5.70312C74.857 6.20417 74.7606 6.67951 74.5679 7.12917C74.3752 7.56597 74.1054 7.95139 73.7585 8.28542C74.555 8.78646 75.1974 9.45451 75.6856 10.2896C76.1738 11.1118 76.4179 12.0304 76.4179 13.0453C76.4179 14.0345 76.1738 14.9852 75.6856 15.8974C75.1974 16.8095 74.4715 17.5547 73.508 18.1328C72.5445 18.7109 71.3561 19 69.9429 19H64.7398ZM68.0929 15.8781H69.596C70.3669 15.8781 70.9835 15.7304 71.446 15.4349C71.9214 15.1266 72.2618 14.7476 72.4674 14.2979C72.6858 13.8354 72.795 13.3793 72.795 12.9297C72.795 12.4929 72.6922 12.0497 72.4866 11.6C72.2811 11.1375 71.9406 10.7521 71.4653 10.4437C71.0028 10.1354 70.3797 9.98125 69.596 9.98125H68.0929V15.8781ZM68.0929 7.55312H69.596C70.1998 7.55312 70.688 7.4118 71.0606 7.12917C71.4332 6.84653 71.6195 6.43542 71.6195 5.89583C71.6195 5.33055 71.4332 4.9066 71.0606 4.62396C70.7009 4.34132 70.2384 4.2 69.6731 4.2H68.0929V7.55312ZM83.8089 19.3083C82.7425 19.3083 81.7726 19.0321 80.899 18.4797C80.0254 17.9273 79.3252 17.195 78.7984 16.2828C78.2846 15.3578 78.0276 14.3365 78.0276 13.2187C78.0276 12.101 78.2846 11.0797 78.7984 10.1547C79.3252 9.22969 80.0254 8.4974 80.899 7.95781C81.7726 7.40538 82.7425 7.12917 83.8089 7.12917C84.554 7.12917 85.2349 7.26406 85.8516 7.53385C86.4682 7.7908 86.995 8.15052 87.4318 8.61302V7.4375H90.3224V19H87.4318V17.8245C86.995 18.287 86.4682 18.6531 85.8516 18.9229C85.2349 19.1799 84.554 19.3083 83.8089 19.3083ZM84.2135 16.3599C84.7788 16.3599 85.2927 16.2186 85.7552 15.9359C86.2177 15.6533 86.5839 15.2743 86.8537 14.799C87.1363 14.3236 87.2776 13.7969 87.2776 13.2187C87.2776 12.6406 87.1363 12.1139 86.8537 11.6385C86.5839 11.1632 86.2177 10.7842 85.7552 10.5016C85.2927 10.2189 84.7788 10.0776 84.2135 10.0776C83.6483 10.0776 83.1344 10.2189 82.6719 10.5016C82.2094 10.7842 81.8368 11.1632 81.5542 11.6385C81.2844 12.1139 81.1495 12.6406 81.1495 13.2187C81.1495 13.7969 81.2844 14.3236 81.5542 14.799C81.8368 15.2743 82.2094 15.6533 82.6719 15.9359C83.1344 16.2186 83.6483 16.3599 84.2135 16.3599ZM92.8601 19V7.4375H95.8664V8.70937C96.2775 8.16979 96.785 7.75868 97.3888 7.47604C97.9926 7.1934 98.6414 7.05208 99.3351 7.05208C100.157 7.05208 100.922 7.25122 101.628 7.64948C102.348 8.0349 102.926 8.6066 103.363 9.36458C103.812 10.1097 104.037 11.0155 104.037 12.0818V19H100.684V12.525C100.684 11.8826 100.491 11.3109 100.106 10.8099C99.7205 10.3089 99.1681 10.0583 98.4487 10.0583C97.8705 10.0583 97.3502 10.2575 96.8877 10.6557C96.4381 11.0411 96.2133 11.6514 96.2133 12.4865V19H92.8601ZM111.559 19.3083C110.493 19.3083 109.523 19.0321 108.649 18.4797C107.775 17.9273 107.075 17.195 106.548 16.2828C106.035 15.3578 105.778 14.3365 105.778 13.2187C105.778 12.101 106.035 11.0797 106.548 10.1547C107.075 9.22969 107.775 8.4974 108.649 7.95781C109.523 7.40538 110.493 7.12917 111.559 7.12917C112.304 7.12917 112.985 7.26406 113.602 7.53385C114.218 7.7908 114.745 8.15052 115.182 8.61302V7.4375H118.072V19H115.182V17.8245C114.745 18.287 114.218 18.6531 113.602 18.9229C112.985 19.1799 112.304 19.3083 111.559 19.3083ZM111.964 16.3599C112.529 16.3599 113.043 16.2186 113.505 15.9359C113.968 15.6533 114.334 15.2743 114.604 14.799C114.886 14.3236 115.028 13.7969 115.028 13.2187C115.028 12.6406 114.886 12.1139 114.604 11.6385C114.334 11.1632 113.968 10.7842 113.505 10.5016C113.043 10.2189 112.529 10.0776 111.964 10.0776C111.398 10.0776 110.884 10.2189 110.422 10.5016C109.959 10.7842 109.587 11.1632 109.304 11.6385C109.034 12.1139 108.899 12.6406 108.899 13.2187C108.899 13.7969 109.034 14.3236 109.304 14.799C109.587 15.2743 109.959 15.6533 110.422 15.9359C110.884 16.2186 111.398 16.3599 111.964 16.3599ZM120.61 19V7.4375H123.616V8.70937C124.027 8.16979 124.535 7.75868 125.139 7.47604C125.743 7.1934 126.391 7.05208 127.085 7.05208C127.907 7.05208 128.672 7.25122 129.378 7.64948C130.098 8.0349 130.676 8.6066 131.113 9.36458C131.562 10.1097 131.787 11.0155 131.787 12.0818V19H128.434V12.525C128.434 11.8826 128.241 11.3109 127.856 10.8099C127.471 10.3089 126.918 10.0583 126.199 10.0583C125.621 10.0583 125.1 10.2575 124.638 10.6557C124.188 11.0411 123.963 11.6514 123.963 12.4865V19H120.61ZM139.309 19.3083C138.243 19.3083 137.273 19.0321 136.399 18.4797C135.525 17.9273 134.825 17.195 134.298 16.2828C133.785 15.3578 133.528 14.3365 133.528 13.2187C133.528 12.101 133.785 11.0797 134.298 10.1547C134.825 9.22969 135.525 8.4974 136.399 7.95781C137.273 7.40538 138.243 7.12917 139.309 7.12917C140.054 7.12917 140.735 7.26406 141.352 7.53385C141.968 7.7908 142.495 8.15052 142.932 8.61302V7.4375H145.822V19H142.932V17.8245C142.495 18.287 141.968 18.6531 141.352 18.9229C140.735 19.1799 140.054 19.3083 139.309 19.3083ZM139.714 16.3599C140.279 16.3599 140.793 16.2186 141.255 15.9359C141.718 15.6533 142.084 15.2743 142.354 14.799C142.636 14.3236 142.778 13.7969 142.778 13.2187C142.778 12.6406 142.636 12.1139 142.354 11.6385C142.084 11.1632 141.718 10.7842 141.255 10.5016C140.793 10.2189 140.279 10.0776 139.714 10.0776C139.148 10.0776 138.634 10.2189 138.172 10.5016C137.709 10.7842 137.337 11.1632 137.054 11.6385C136.784 12.1139 136.649 12.6406 136.649 13.2187C136.649 13.7969 136.784 14.3236 137.054 14.799C137.337 15.2743 137.709 15.6533 138.172 15.9359C138.634 16.2186 139.148 16.3599 139.714 16.3599ZM154.71 19V1.65625H160.145C161.301 1.65625 162.22 1.88108 162.901 2.33073C163.594 2.76753 164.089 3.30069 164.384 3.93021C164.68 4.54687 164.828 5.13785 164.828 5.70312C164.828 6.20417 164.731 6.67951 164.539 7.12917C164.346 7.56597 164.076 7.95139 163.729 8.28542C164.526 8.78646 165.168 9.45451 165.656 10.2896C166.145 11.1118 166.389 12.0304 166.389 13.0453C166.389 14.0345 166.145 14.9852 165.656 15.8974C165.168 16.8095 164.442 17.5547 163.479 18.1328C162.515 18.7109 161.327 19 159.914 19H154.71ZM158.064 15.8781H159.567C160.338 15.8781 160.954 15.7304 161.417 15.4349C161.892 15.1266 162.233 14.7476 162.438 14.2979C162.656 13.8354 162.766 13.3793 162.766 12.9297C162.766 12.4929 162.663 12.0497 162.457 11.6C162.252 11.1375 161.911 10.7521 161.436 10.4437C160.973 10.1354 160.35 9.98125 159.567 9.98125H158.064V15.8781ZM158.064 7.55312H159.567C160.171 7.55312 160.659 7.4118 161.031 7.12917C161.404 6.84653 161.59 6.43542 161.59 5.89583C161.59 5.33055 161.404 4.9066 161.031 4.62396C160.672 4.34132 160.209 4.2 159.644 4.2H158.064V7.55312ZM168.615 19V0.499999H171.968V19H168.615ZM174.577 19V7.4375H177.93V19H174.577ZM176.253 5.76094C175.752 5.76094 175.328 5.5875 174.982 5.24062C174.635 4.89375 174.461 4.46979 174.461 3.96875C174.461 3.45486 174.635 3.0309 174.982 2.69687C175.328 2.35 175.752 2.17656 176.253 2.17656C176.767 2.17656 177.191 2.35 177.525 2.69687C177.872 3.0309 178.046 3.45486 178.046 3.96875C178.046 4.46979 177.872 4.89375 177.525 5.24062C177.191 5.5875 176.767 5.76094 176.253 5.76094ZM184.297 19.3854C183.513 19.3854 182.716 19.2569 181.907 19C181.111 18.7431 180.487 18.3962 180.038 17.9594L180.866 14.799C181.239 15.3128 181.753 15.7625 182.408 16.1479C183.076 16.5333 183.763 16.726 184.47 16.726C184.945 16.726 185.286 16.6361 185.491 16.4562C185.71 16.2764 185.819 16.058 185.819 15.801C185.819 15.5056 185.71 15.2936 185.491 15.1651C185.273 15.0238 185.048 14.9082 184.817 14.8182L183.198 14.2016C182.838 14.0602 182.427 13.8675 181.965 13.6234C181.502 13.3793 181.098 13.0325 180.751 12.5828C180.417 12.1332 180.25 11.5422 180.25 10.8099C180.25 10.1418 180.417 9.52517 180.751 8.9599C181.085 8.39462 181.567 7.93854 182.196 7.59167C182.838 7.23194 183.609 7.05208 184.509 7.05208C185.344 7.05208 186.121 7.1934 186.84 7.47604C187.573 7.75868 188.106 8.07344 188.44 8.42031L187.669 11.4651C187.232 10.8998 186.712 10.4694 186.108 10.174C185.517 9.86562 184.952 9.71146 184.412 9.71146C184.001 9.71146 183.699 9.79497 183.507 9.96198C183.314 10.129 183.217 10.3217 183.217 10.5401C183.217 10.7071 183.282 10.8741 183.41 11.0411C183.551 11.1953 183.783 11.3366 184.104 11.4651L185.607 12.024C186.044 12.1781 186.506 12.3837 186.995 12.6406C187.496 12.8976 187.92 13.2573 188.266 13.7198C188.613 14.1694 188.787 14.7925 188.787 15.5891C188.787 16.7068 188.369 17.6189 187.534 18.3255C186.712 19.0321 185.633 19.3854 184.297 19.3854ZM194.513 19.3854C193.729 19.3854 192.933 19.2569 192.124 19C191.327 18.7431 190.704 18.3962 190.254 17.9594L191.083 14.799C191.456 15.3128 191.969 15.7625 192.625 16.1479C193.293 16.5333 193.98 16.726 194.687 16.726C195.162 16.726 195.502 16.6361 195.708 16.4562C195.926 16.2764 196.036 16.058 196.036 15.801C196.036 15.5056 195.926 15.2936 195.708 15.1651C195.49 15.0238 195.265 14.9082 195.033 14.8182L193.415 14.2016C193.055 14.0602 192.644 13.8675 192.181 13.6234C191.719 13.3793 191.314 13.0325 190.967 12.5828C190.633 12.1332 190.466 11.5422 190.466 10.8099C190.466 10.1418 190.633 9.52517 190.967 8.9599C191.301 8.39462 191.783 7.93854 192.413 7.59167C193.055 7.23194 193.826 7.05208 194.725 7.05208C195.56 7.05208 196.337 7.1934 197.057 7.47604C197.789 7.75868 198.322 8.07344 198.656 8.42031L197.886 11.4651C197.449 10.8998 196.928 10.4694 196.325 10.174C195.734 9.86562 195.168 9.71146 194.629 9.71146C194.218 9.71146 193.916 9.79497 193.723 9.96198C193.53 10.129 193.434 10.3217 193.434 10.5401C193.434 10.7071 193.498 10.8741 193.627 11.0411C193.768 11.1953 193.999 11.3366 194.32 11.4651L195.824 12.024C196.26 12.1781 196.723 12.3837 197.211 12.6406C197.712 12.8976 198.136 13.2573 198.483 13.7198C198.83 14.1694 199.003 14.7925 199.003 15.5891C199.003 16.7068 198.586 17.6189 197.751 18.3255C196.928 19.0321 195.849 19.3854 194.513 19.3854Z" fill="url(#paint0_linear_305_675)"/>
<defs>
<linearGradient id="paint0_linear_305_675" x1="-22.9648" y1="9.5" x2="200" y2="9.32267" gradientUnits="userSpaceOnUse">
<stop offset="0.0001" stop-color="#FF6162"/>
<stop offset="0.840563" stop-color="#FF6D8D"/>
</linearGradient>
</defs>
</svg>
