<svg width="537" height="70" viewBox="0 0 537 70" fill="none" xmlns="http://www.w3.org/2000/svg">
<path d="M7.824 10.52H2.96L2.064 13H0.528L4.56 1.912H6.24L10.256 13H8.72L7.824 10.52ZM7.408 9.336L5.392 3.704L3.376 9.336H7.408ZM16.3749 8.6C16.3749 7.69333 16.5562 6.904 16.9189 6.232C17.2815 5.54933 17.7829 5.02133 18.4229 4.648C19.0735 4.27467 19.8149 4.088 20.6469 4.088C21.7242 4.088 22.6095 4.34933 23.3029 4.872C24.0069 5.39467 24.4709 6.12 24.6949 7.048H23.1269C22.9775 6.51467 22.6842 6.09333 22.2469 5.784C21.8202 5.47467 21.2869 5.32 20.6469 5.32C19.8149 5.32 19.1429 5.608 18.6309 6.184C18.1189 6.74933 17.8629 7.55467 17.8629 8.6C17.8629 9.656 18.1189 10.472 18.6309 11.048C19.1429 11.624 19.8149 11.912 20.6469 11.912C21.2869 11.912 21.8202 11.7627 22.2469 11.464C22.6735 11.1653 22.9669 10.7387 23.1269 10.184H24.6949C24.4602 11.08 23.9909 11.8 23.2869 12.344C22.5829 12.8773 21.7029 13.144 20.6469 13.144C19.8149 13.144 19.0735 12.9573 18.4229 12.584C17.7829 12.2107 17.2815 11.6827 16.9189 11C16.5562 10.3173 16.3749 9.51733 16.3749 8.6ZM30.7816 13.144C29.9603 13.144 29.2136 12.9573 28.5416 12.584C27.8803 12.2107 27.3576 11.6827 26.9736 11C26.6003 10.3067 26.4136 9.50667 26.4136 8.6C26.4136 7.704 26.6056 6.91467 26.9896 6.232C27.3843 5.53867 27.9176 5.01067 28.5896 4.648C29.2616 4.27467 30.0136 4.088 30.8456 4.088C31.6776 4.088 32.4296 4.27467 33.1016 4.648C33.7736 5.01067 34.3016 5.53333 34.6856 6.216C35.0803 6.89867 35.2776 7.69333 35.2776 8.6C35.2776 9.50667 35.075 10.3067 34.6696 11C34.275 11.6827 33.7363 12.2107 33.0536 12.584C32.371 12.9573 31.6136 13.144 30.7816 13.144ZM30.7816 11.864C31.3043 11.864 31.795 11.7413 32.2536 11.496C32.7123 11.2507 33.0803 10.8827 33.3576 10.392C33.6456 9.90133 33.7896 9.304 33.7896 8.6C33.7896 7.896 33.651 7.29867 33.3736 6.808C33.0963 6.31733 32.7336 5.95467 32.2856 5.72C31.8376 5.47467 31.3523 5.352 30.8296 5.352C30.2963 5.352 29.8056 5.47467 29.3576 5.72C28.9203 5.95467 28.5683 6.31733 28.3016 6.808C28.035 7.29867 27.9016 7.896 27.9016 8.6C27.9016 9.31467 28.0296 9.91733 28.2856 10.408C28.5523 10.8987 28.9043 11.2667 29.3416 11.512C29.779 11.7467 30.259 11.864 30.7816 11.864ZM48.056 4.072C48.7387 4.072 49.3467 4.216 49.88 4.504C50.4133 4.78133 50.8347 5.20267 51.144 5.768C51.4533 6.33333 51.608 7.02133 51.608 7.832V13H50.168V8.04C50.168 7.16533 49.9493 6.49867 49.512 6.04C49.0853 5.57067 48.504 5.336 47.768 5.336C47.0107 5.336 46.408 5.58133 45.96 6.072C45.512 6.552 45.288 7.25067 45.288 8.168V13H43.848V8.04C43.848 7.16533 43.6293 6.49867 43.192 6.04C42.7653 5.57067 42.184 5.336 41.448 5.336C40.6907 5.336 40.088 5.58133 39.64 6.072C39.192 6.552 38.968 7.25067 38.968 8.168V13H37.512V4.232H38.968V5.496C39.256 5.03733 39.64 4.68533 40.12 4.44C40.6107 4.19467 41.1493 4.072 41.736 4.072C42.472 4.072 43.1227 4.23733 43.688 4.568C44.2533 4.89867 44.6747 5.384 44.952 6.024C45.1973 5.40533 45.6027 4.92533 46.168 4.584C46.7333 4.24267 47.3627 4.072 48.056 4.072ZM55.7724 5.864C56.071 5.34133 56.5084 4.91467 57.0844 4.584C57.6604 4.25333 58.3164 4.088 59.0524 4.088C59.8417 4.088 60.551 4.27467 61.1804 4.648C61.8097 5.02133 62.3057 5.54933 62.6684 6.232C63.031 6.904 63.2124 7.688 63.2124 8.584C63.2124 9.46933 63.031 10.2587 62.6684 10.952C62.3057 11.6453 61.8044 12.184 61.1644 12.568C60.535 12.952 59.831 13.144 59.0524 13.144C58.295 13.144 57.6284 12.9787 57.0524 12.648C56.487 12.3173 56.0604 11.896 55.7724 11.384V13H54.3164V1.16H55.7724V5.864ZM61.7244 8.584C61.7244 7.92267 61.591 7.34667 61.3244 6.856C61.0577 6.36533 60.695 5.992 60.2364 5.736C59.7884 5.48 59.2924 5.352 58.7484 5.352C58.215 5.352 57.719 5.48533 57.2604 5.752C56.8124 6.008 56.4497 6.38667 56.1724 6.888C55.9057 7.37867 55.7724 7.94933 55.7724 8.6C55.7724 9.26133 55.9057 9.84267 56.1724 10.344C56.4497 10.8347 56.8124 11.2133 57.2604 11.48C57.719 11.736 58.215 11.864 58.7484 11.864C59.2924 11.864 59.7884 11.736 60.2364 11.48C60.695 11.2133 61.0577 10.8347 61.3244 10.344C61.591 9.84267 61.7244 9.256 61.7244 8.584ZM66.2009 2.808C65.9235 2.808 65.6889 2.712 65.4969 2.52C65.3049 2.328 65.2089 2.09333 65.2089 1.816C65.2089 1.53867 65.3049 1.304 65.4969 1.112C65.6889 0.919999 65.9235 0.823999 66.2009 0.823999C66.4675 0.823999 66.6915 0.919999 66.8729 1.112C67.0649 1.304 67.1609 1.53867 67.1609 1.816C67.1609 2.09333 67.0649 2.328 66.8729 2.52C66.6915 2.712 66.4675 2.808 66.2009 2.808ZM66.9049 4.232V13H65.4489V4.232H66.9049ZM73.9784 4.072C75.045 4.072 75.909 4.39733 76.5704 5.048C77.2317 5.688 77.5624 6.616 77.5624 7.832V13H76.1224V8.04C76.1224 7.16533 75.9037 6.49867 75.4664 6.04C75.029 5.57067 74.4317 5.336 73.6744 5.336C72.9064 5.336 72.293 5.576 71.8344 6.056C71.3864 6.536 71.1624 7.23467 71.1624 8.152V13H69.7064V4.232H71.1624V5.48C71.4504 5.032 71.8397 4.68533 72.3304 4.44C72.8317 4.19467 73.381 4.072 73.9784 4.072ZM79.7167 8.584C79.7167 7.688 79.8981 6.904 80.2607 6.232C80.6234 5.54933 81.1194 5.02133 81.7487 4.648C82.3887 4.27467 83.0981 4.088 83.8767 4.088C84.6447 4.088 85.3114 4.25333 85.8767 4.584C86.4421 4.91467 86.8634 5.33067 87.1407 5.832V4.232H88.6127V13H87.1407V11.368C86.8527 11.88 86.4207 12.3067 85.8447 12.648C85.2794 12.9787 84.6181 13.144 83.8607 13.144C83.0821 13.144 82.3781 12.952 81.7487 12.568C81.1194 12.184 80.6234 11.6453 80.2607 10.952C79.8981 10.2587 79.7167 9.46933 79.7167 8.584ZM87.1407 8.6C87.1407 7.93867 87.0074 7.36267 86.7407 6.872C86.4741 6.38133 86.1114 6.008 85.6527 5.752C85.2047 5.48533 84.7087 5.352 84.1647 5.352C83.6207 5.352 83.1247 5.48 82.6767 5.736C82.2287 5.992 81.8714 6.36533 81.6047 6.856C81.3381 7.34667 81.2047 7.92267 81.2047 8.584C81.2047 9.256 81.3381 9.84267 81.6047 10.344C81.8714 10.8347 82.2287 11.2133 82.6767 11.48C83.1247 11.736 83.6207 11.864 84.1647 11.864C84.7087 11.864 85.2047 11.736 85.6527 11.48C86.1114 11.2133 86.4741 10.8347 86.7407 10.344C87.0074 9.84267 87.1407 9.26133 87.1407 8.6ZM93.1692 5.432V10.6C93.1692 11.0267 93.2599 11.3307 93.4412 11.512C93.6226 11.6827 93.9372 11.768 94.3852 11.768H95.4572V13H94.1452C93.3346 13 92.7266 12.8133 92.3212 12.44C91.9159 12.0667 91.7132 11.4533 91.7132 10.6V5.432H90.5772V4.232H91.7132V2.024H93.1692V4.232H95.4572V5.432H93.1692ZM98.2934 2.808C98.016 2.808 97.7814 2.712 97.5894 2.52C97.3974 2.328 97.3014 2.09333 97.3014 1.816C97.3014 1.53867 97.3974 1.304 97.5894 1.112C97.7814 0.919999 98.016 0.823999 98.2934 0.823999C98.56 0.823999 98.784 0.919999 98.9654 1.112C99.1574 1.304 99.2534 1.53867 99.2534 1.816C99.2534 2.09333 99.1574 2.328 98.9654 2.52C98.784 2.712 98.56 2.808 98.2934 2.808ZM98.9974 4.232V13H97.5414V4.232H98.9974ZM105.623 13.144C104.802 13.144 104.055 12.9573 103.383 12.584C102.722 12.2107 102.199 11.6827 101.815 11C101.442 10.3067 101.255 9.50667 101.255 8.6C101.255 7.704 101.447 6.91467 101.831 6.232C102.226 5.53867 102.759 5.01067 103.431 4.648C104.103 4.27467 104.855 4.088 105.687 4.088C106.519 4.088 107.271 4.27467 107.943 4.648C108.615 5.01067 109.143 5.53333 109.527 6.216C109.922 6.89867 110.119 7.69333 110.119 8.6C110.119 9.50667 109.916 10.3067 109.511 11C109.116 11.6827 108.578 12.2107 107.895 12.584C107.212 12.9573 106.455 13.144 105.623 13.144ZM105.623 11.864C106.146 11.864 106.636 11.7413 107.095 11.496C107.554 11.2507 107.922 10.8827 108.199 10.392C108.487 9.90133 108.631 9.304 108.631 8.6C108.631 7.896 108.492 7.29867 108.215 6.808C107.938 6.31733 107.575 5.95467 107.127 5.72C106.679 5.47467 106.194 5.352 105.671 5.352C105.138 5.352 104.647 5.47467 104.199 5.72C103.762 5.95467 103.41 6.31733 103.143 6.808C102.876 7.29867 102.743 7.896 102.743 8.6C102.743 9.31467 102.871 9.91733 103.127 10.408C103.394 10.8987 103.746 11.2667 104.183 11.512C104.62 11.7467 105.1 11.864 105.623 11.864ZM116.625 4.072C117.692 4.072 118.556 4.39733 119.217 5.048C119.879 5.688 120.209 6.616 120.209 7.832V13H118.769V8.04C118.769 7.16533 118.551 6.49867 118.113 6.04C117.676 5.57067 117.079 5.336 116.321 5.336C115.553 5.336 114.94 5.576 114.481 6.056C114.033 6.536 113.809 7.23467 113.809 8.152V13H112.353V4.232H113.809V5.48C114.097 5.032 114.487 4.68533 114.977 4.44C115.479 4.19467 116.028 4.072 116.625 4.072ZM131.317 13.144C130.496 13.144 129.749 12.9573 129.077 12.584C128.416 12.2107 127.893 11.6827 127.509 11C127.136 10.3067 126.949 9.50667 126.949 8.6C126.949 7.704 127.141 6.91467 127.525 6.232C127.92 5.53867 128.453 5.01067 129.125 4.648C129.797 4.27467 130.549 4.088 131.381 4.088C132.213 4.088 132.965 4.27467 133.637 4.648C134.309 5.01067 134.837 5.53333 135.221 6.216C135.616 6.89867 135.813 7.69333 135.813 8.6C135.813 9.50667 135.611 10.3067 135.205 11C134.811 11.6827 134.272 12.2107 133.589 12.584C132.907 12.9573 132.149 13.144 131.317 13.144ZM131.317 11.864C131.84 11.864 132.331 11.7413 132.789 11.496C133.248 11.2507 133.616 10.8827 133.893 10.392C134.181 9.90133 134.325 9.304 134.325 8.6C134.325 7.896 134.187 7.29867 133.909 6.808C133.632 6.31733 133.269 5.95467 132.821 5.72C132.373 5.47467 131.888 5.352 131.365 5.352C130.832 5.352 130.341 5.47467 129.893 5.72C129.456 5.95467 129.104 6.31733 128.837 6.808C128.571 7.29867 128.437 7.896 128.437 8.6C128.437 9.31467 128.565 9.91733 128.821 10.408C129.088 10.8987 129.44 11.2667 129.877 11.512C130.315 11.7467 130.795 11.864 131.317 11.864ZM141.616 5.432H139.776V13H138.32V5.432H137.184V4.232H138.32V3.608C138.32 2.62667 138.57 1.912 139.072 1.464C139.584 1.00533 140.4 0.775999 141.52 0.775999V1.992C140.88 1.992 140.426 2.12 140.16 2.376C139.904 2.62133 139.776 3.032 139.776 3.608V4.232H141.616V5.432ZM151.323 13.144C150.651 13.144 150.048 13.032 149.515 12.808C148.982 12.5733 148.56 12.2533 148.251 11.848C147.942 11.432 147.771 10.9573 147.739 10.424H149.243C149.286 10.8613 149.488 11.2187 149.851 11.496C150.224 11.7733 150.71 11.912 151.307 11.912C151.862 11.912 152.299 11.7893 152.619 11.544C152.939 11.2987 153.099 10.9893 153.099 10.616C153.099 10.232 152.928 9.94933 152.587 9.768C152.246 9.576 151.718 9.38933 151.003 9.208C150.352 9.03733 149.819 8.86667 149.403 8.696C148.998 8.51467 148.646 8.25333 148.347 7.912C148.059 7.56 147.915 7.10133 147.915 6.536C147.915 6.088 148.048 5.67733 148.315 5.304C148.582 4.93067 148.96 4.63733 149.451 4.424C149.942 4.2 150.502 4.088 151.131 4.088C152.102 4.088 152.886 4.33333 153.483 4.824C154.08 5.31467 154.4 5.98667 154.443 6.84H152.987C152.955 6.38133 152.768 6.01333 152.427 5.736C152.096 5.45867 151.648 5.32 151.083 5.32C150.56 5.32 150.144 5.432 149.835 5.656C149.526 5.88 149.371 6.17333 149.371 6.536C149.371 6.824 149.462 7.064 149.643 7.256C149.835 7.43733 150.07 7.58667 150.347 7.704C150.635 7.81067 151.03 7.93333 151.531 8.072C152.16 8.24267 152.672 8.41333 153.067 8.584C153.462 8.744 153.798 8.98933 154.075 9.32C154.363 9.65067 154.512 10.0827 154.523 10.616C154.523 11.096 154.39 11.528 154.123 11.912C153.856 12.296 153.478 12.6 152.987 12.824C152.507 13.0373 151.952 13.144 151.323 13.144ZM168.578 4.232L165.842 13H164.338L162.226 6.04L160.114 13H158.61L155.858 4.232H157.346L159.362 11.592L161.538 4.232H163.026L165.154 11.608L167.138 4.232H168.578ZM178.343 8.28C178.343 8.55733 178.327 8.85067 178.295 9.16H171.287C171.341 10.024 171.634 10.7013 172.167 11.192C172.711 11.672 173.367 11.912 174.135 11.912C174.765 11.912 175.287 11.768 175.703 11.48C176.13 11.1813 176.429 10.7867 176.599 10.296H178.167C177.933 11.1387 177.463 11.8267 176.759 12.36C176.055 12.8827 175.181 13.144 174.135 13.144C173.303 13.144 172.557 12.9573 171.895 12.584C171.245 12.2107 170.733 11.6827 170.359 11C169.986 10.3067 169.799 9.50667 169.799 8.6C169.799 7.69333 169.981 6.89867 170.343 6.216C170.706 5.53333 171.213 5.01067 171.863 4.648C172.525 4.27467 173.282 4.088 174.135 4.088C174.967 4.088 175.703 4.26933 176.343 4.632C176.983 4.99467 177.474 5.496 177.815 6.136C178.167 6.76533 178.343 7.48 178.343 8.28ZM176.839 7.976C176.839 7.42133 176.717 6.94667 176.471 6.552C176.226 6.14667 175.89 5.84267 175.463 5.64C175.047 5.42667 174.583 5.32 174.071 5.32C173.335 5.32 172.706 5.55467 172.183 6.024C171.671 6.49333 171.378 7.144 171.303 7.976H176.839ZM188.585 8.28C188.585 8.55733 188.569 8.85067 188.537 9.16H181.529C181.582 10.024 181.876 10.7013 182.409 11.192C182.953 11.672 183.609 11.912 184.377 11.912C185.006 11.912 185.529 11.768 185.945 11.48C186.372 11.1813 186.67 10.7867 186.841 10.296H188.409C188.174 11.1387 187.705 11.8267 187.001 12.36C186.297 12.8827 185.422 13.144 184.377 13.144C183.545 13.144 182.798 12.9573 182.137 12.584C181.486 12.2107 180.974 11.6827 180.601 11C180.228 10.3067 180.041 9.50667 180.041 8.6C180.041 7.69333 180.222 6.89867 180.585 6.216C180.948 5.53333 181.454 5.01067 182.105 4.648C182.766 4.27467 183.524 4.088 184.377 4.088C185.209 4.088 185.945 4.26933 186.585 4.632C187.225 4.99467 187.716 5.496 188.057 6.136C188.409 6.76533 188.585 7.48 188.585 8.28ZM187.081 7.976C187.081 7.42133 186.958 6.94667 186.713 6.552C186.468 6.14667 186.132 5.84267 185.705 5.64C185.289 5.42667 184.825 5.32 184.313 5.32C183.577 5.32 182.948 5.55467 182.425 6.024C181.913 6.49333 181.62 7.144 181.545 7.976H187.081ZM192.603 5.432V10.6C192.603 11.0267 192.694 11.3307 192.875 11.512C193.056 11.6827 193.371 11.768 193.819 11.768H194.891V13H193.579C192.768 13 192.16 12.8133 191.755 12.44C191.35 12.0667 191.147 11.4533 191.147 10.6V5.432H190.011V4.232H191.147V2.024H192.603V4.232H194.891V5.432H192.603ZM212.105 4.072C212.787 4.072 213.395 4.216 213.929 4.504C214.462 4.78133 214.883 5.20267 215.193 5.768C215.502 6.33333 215.657 7.02133 215.657 7.832V13H214.217V8.04C214.217 7.16533 213.998 6.49867 213.561 6.04C213.134 5.57067 212.553 5.336 211.817 5.336C211.059 5.336 210.457 5.58133 210.009 6.072C209.561 6.552 209.337 7.25067 209.337 8.168V13H207.897V8.04C207.897 7.16533 207.678 6.49867 207.241 6.04C206.814 5.57067 206.233 5.336 205.497 5.336C204.739 5.336 204.137 5.58133 203.689 6.072C203.241 6.552 203.017 7.25067 203.017 8.168V13H201.561V4.232H203.017V5.496C203.305 5.03733 203.689 4.68533 204.169 4.44C204.659 4.19467 205.198 4.072 205.785 4.072C206.521 4.072 207.171 4.23733 207.737 4.568C208.302 4.89867 208.723 5.384 209.001 6.024C209.246 5.40533 209.651 4.92533 210.217 4.584C210.782 4.24267 211.411 4.072 212.105 4.072ZM217.821 8.584C217.821 7.688 218.002 6.904 218.365 6.232C218.728 5.54933 219.224 5.02133 219.853 4.648C220.493 4.27467 221.202 4.088 221.981 4.088C222.749 4.088 223.416 4.25333 223.981 4.584C224.546 4.91467 224.968 5.33067 225.245 5.832V4.232H226.717V13H225.245V11.368C224.957 11.88 224.525 12.3067 223.949 12.648C223.384 12.9787 222.722 13.144 221.965 13.144C221.186 13.144 220.482 12.952 219.853 12.568C219.224 12.184 218.728 11.6453 218.365 10.952C218.002 10.2587 217.821 9.46933 217.821 8.584ZM225.245 8.6C225.245 7.93867 225.112 7.36267 224.845 6.872C224.578 6.38133 224.216 6.008 223.757 5.752C223.309 5.48533 222.813 5.352 222.269 5.352C221.725 5.352 221.229 5.48 220.781 5.736C220.333 5.992 219.976 6.36533 219.709 6.856C219.442 7.34667 219.309 7.92267 219.309 8.584C219.309 9.256 219.442 9.84267 219.709 10.344C219.976 10.8347 220.333 11.2133 220.781 11.48C221.229 11.736 221.725 11.864 222.269 11.864C222.813 11.864 223.309 11.736 223.757 11.48C224.216 11.2133 224.578 10.8347 224.845 10.344C225.112 9.84267 225.245 9.26133 225.245 8.6ZM233.77 4.072C234.836 4.072 235.7 4.39733 236.362 5.048C237.023 5.688 237.354 6.616 237.354 7.832V13H235.914V8.04C235.914 7.16533 235.695 6.49867 235.258 6.04C234.82 5.57067 234.223 5.336 233.466 5.336C232.698 5.336 232.084 5.576 231.626 6.056C231.178 6.536 230.954 7.23467 230.954 8.152V13H229.498V4.232H230.954V5.48C231.242 5.032 231.631 4.68533 232.122 4.44C232.623 4.19467 233.172 4.072 233.77 4.072ZM243.668 4.088C244.425 4.088 245.087 4.25333 245.652 4.584C246.228 4.91467 246.655 5.33067 246.932 5.832V4.232H248.404V13.192C248.404 13.992 248.233 14.7013 247.892 15.32C247.551 15.9493 247.06 16.44 246.42 16.792C245.791 17.144 245.055 17.32 244.212 17.32C243.06 17.32 242.1 17.048 241.332 16.504C240.564 15.96 240.111 15.2187 239.972 14.28H241.412C241.572 14.8133 241.903 15.24 242.404 15.56C242.905 15.8907 243.508 16.056 244.212 16.056C245.012 16.056 245.663 15.8053 246.164 15.304C246.676 14.8027 246.932 14.0987 246.932 13.192V11.352C246.644 11.864 246.217 12.2907 245.652 12.632C245.087 12.9733 244.425 13.144 243.668 13.144C242.889 13.144 242.18 12.952 241.54 12.568C240.911 12.184 240.415 11.6453 240.052 10.952C239.689 10.2587 239.508 9.46933 239.508 8.584C239.508 7.688 239.689 6.904 240.052 6.232C240.415 5.54933 240.911 5.02133 241.54 4.648C242.18 4.27467 242.889 4.088 243.668 4.088ZM246.932 8.6C246.932 7.93867 246.799 7.36267 246.532 6.872C246.265 6.38133 245.903 6.008 245.444 5.752C244.996 5.48533 244.5 5.352 243.956 5.352C243.412 5.352 242.916 5.48 242.468 5.736C242.02 5.992 241.663 6.36533 241.396 6.856C241.129 7.34667 240.996 7.92267 240.996 8.584C240.996 9.256 241.129 9.84267 241.396 10.344C241.663 10.8347 242.02 11.2133 242.468 11.48C242.916 11.736 243.412 11.864 243.956 11.864C244.5 11.864 244.996 11.736 245.444 11.48C245.903 11.2133 246.265 10.8347 246.532 10.344C246.799 9.84267 246.932 9.26133 246.932 8.6ZM255.008 13.144C254.187 13.144 253.44 12.9573 252.768 12.584C252.107 12.2107 251.584 11.6827 251.2 11C250.827 10.3067 250.64 9.50667 250.64 8.6C250.64 7.704 250.832 6.91467 251.216 6.232C251.611 5.53867 252.144 5.01067 252.816 4.648C253.488 4.27467 254.24 4.088 255.072 4.088C255.904 4.088 256.656 4.27467 257.328 4.648C258.001 5.01067 258.528 5.53333 258.912 6.216C259.307 6.89867 259.504 7.69333 259.504 8.6C259.504 9.50667 259.302 10.3067 258.896 11C258.502 11.6827 257.963 12.2107 257.28 12.584C256.598 12.9573 255.84 13.144 255.008 13.144ZM255.008 11.864C255.531 11.864 256.022 11.7413 256.48 11.496C256.939 11.2507 257.307 10.8827 257.584 10.392C257.872 9.90133 258.016 9.304 258.016 8.6C258.016 7.896 257.878 7.29867 257.6 6.808C257.323 6.31733 256.96 5.95467 256.512 5.72C256.064 5.47467 255.579 5.352 255.056 5.352C254.523 5.352 254.032 5.47467 253.584 5.72C253.147 5.95467 252.795 6.31733 252.528 6.808C252.262 7.29867 252.128 7.896 252.128 8.6C252.128 9.31467 252.256 9.91733 252.512 10.408C252.779 10.8987 253.131 11.2667 253.568 11.512C254.006 11.7467 254.486 11.864 255.008 11.864ZM265.78 8.584C265.78 7.688 265.962 6.904 266.324 6.232C266.687 5.54933 267.183 5.02133 267.812 4.648C268.452 4.27467 269.162 4.088 269.94 4.088C270.708 4.088 271.375 4.25333 271.94 4.584C272.506 4.91467 272.927 5.33067 273.204 5.832V4.232H274.676V13H273.204V11.368C272.916 11.88 272.484 12.3067 271.908 12.648C271.343 12.9787 270.682 13.144 269.924 13.144C269.146 13.144 268.442 12.952 267.812 12.568C267.183 12.184 266.687 11.6453 266.324 10.952C265.962 10.2587 265.78 9.46933 265.78 8.584ZM273.204 8.6C273.204 7.93867 273.071 7.36267 272.804 6.872C272.538 6.38133 272.175 6.008 271.716 5.752C271.268 5.48533 270.772 5.352 270.228 5.352C269.684 5.352 269.188 5.48 268.74 5.736C268.292 5.992 267.935 6.36533 267.668 6.856C267.402 7.34667 267.268 7.92267 267.268 8.584C267.268 9.256 267.402 9.84267 267.668 10.344C267.935 10.8347 268.292 11.2133 268.74 11.48C269.188 11.736 269.684 11.864 270.228 11.864C270.772 11.864 271.268 11.736 271.716 11.48C272.175 11.2133 272.538 10.8347 272.804 10.344C273.071 9.84267 273.204 9.26133 273.204 8.6ZM281.729 4.072C282.796 4.072 283.66 4.39733 284.321 5.048C284.982 5.688 285.313 6.616 285.313 7.832V13H283.873V8.04C283.873 7.16533 283.654 6.49867 283.217 6.04C282.78 5.57067 282.182 5.336 281.425 5.336C280.657 5.336 280.044 5.576 279.585 6.056C279.137 6.536 278.913 7.23467 278.913 8.152V13H277.457V4.232H278.913V5.48C279.201 5.032 279.59 4.68533 280.081 4.44C280.582 4.19467 281.132 4.072 281.729 4.072ZM287.467 8.584C287.467 7.688 287.649 6.904 288.011 6.232C288.374 5.54933 288.87 5.02133 289.499 4.648C290.139 4.27467 290.854 4.088 291.643 4.088C292.326 4.088 292.961 4.248 293.547 4.568C294.134 4.87733 294.582 5.288 294.891 5.8V1.16H296.363V13H294.891V11.352C294.603 11.8747 294.177 12.3067 293.611 12.648C293.046 12.9787 292.385 13.144 291.627 13.144C290.849 13.144 290.139 12.952 289.499 12.568C288.87 12.184 288.374 11.6453 288.011 10.952C287.649 10.2587 287.467 9.46933 287.467 8.584ZM294.891 8.6C294.891 7.93867 294.758 7.36267 294.491 6.872C294.225 6.38133 293.862 6.008 293.403 5.752C292.955 5.48533 292.459 5.352 291.915 5.352C291.371 5.352 290.875 5.48 290.427 5.736C289.979 5.992 289.622 6.36533 289.355 6.856C289.089 7.34667 288.955 7.92267 288.955 8.584C288.955 9.256 289.089 9.84267 289.355 10.344C289.622 10.8347 289.979 11.2133 290.427 11.48C290.875 11.736 291.371 11.864 291.915 11.864C292.459 11.864 292.955 11.736 293.403 11.48C293.862 11.2133 294.225 10.8347 294.491 10.344C294.758 9.84267 294.891 9.26133 294.891 8.6ZM307.297 5.432H305.457V13H304.001V5.432H302.865V4.232H304.001V3.608C304.001 2.62667 304.252 1.912 304.753 1.464C305.265 1.00533 306.081 0.775999 307.201 0.775999V1.992C306.561 1.992 306.108 2.12 305.841 2.376C305.585 2.62133 305.457 3.032 305.457 3.608V4.232H307.297V5.432ZM310.771 5.656C311.027 5.15467 311.39 4.76533 311.859 4.488C312.339 4.21067 312.92 4.072 313.603 4.072V5.576H313.219C311.587 5.576 310.771 6.46133 310.771 8.232V13H309.315V4.232H310.771V5.656ZM323.604 8.28C323.604 8.55733 323.588 8.85067 323.556 9.16H316.548C316.601 10.024 316.895 10.7013 317.428 11.192C317.972 11.672 318.628 11.912 319.396 11.912C320.025 11.912 320.548 11.768 320.964 11.48C321.391 11.1813 321.689 10.7867 321.86 10.296H323.428C323.193 11.1387 322.724 11.8267 322.02 12.36C321.316 12.8827 320.441 13.144 319.396 13.144C318.564 13.144 317.817 12.9573 317.156 12.584C316.505 12.2107 315.993 11.6827 315.62 11C315.247 10.3067 315.06 9.50667 315.06 8.6C315.06 7.69333 315.241 6.89867 315.604 6.216C315.967 5.53333 316.473 5.01067 317.124 4.648C317.785 4.27467 318.543 4.088 319.396 4.088C320.228 4.088 320.964 4.26933 321.604 4.632C322.244 4.99467 322.735 5.496 323.076 6.136C323.428 6.76533 323.604 7.48 323.604 8.28ZM322.1 7.976C322.1 7.42133 321.977 6.94667 321.732 6.552C321.487 6.14667 321.151 5.84267 320.724 5.64C320.308 5.42667 319.844 5.32 319.332 5.32C318.596 5.32 317.967 5.55467 317.444 6.024C316.932 6.49333 316.639 7.144 316.564 7.976H322.1ZM328.95 13.144C328.278 13.144 327.675 13.032 327.142 12.808C326.608 12.5733 326.187 12.2533 325.878 11.848C325.568 11.432 325.398 10.9573 325.366 10.424H326.87C326.912 10.8613 327.115 11.2187 327.478 11.496C327.851 11.7733 328.336 11.912 328.934 11.912C329.488 11.912 329.926 11.7893 330.246 11.544C330.566 11.2987 330.726 10.9893 330.726 10.616C330.726 10.232 330.555 9.94933 330.214 9.768C329.872 9.576 329.344 9.38933 328.63 9.208C327.979 9.03733 327.446 8.86667 327.03 8.696C326.624 8.51467 326.272 8.25333 325.974 7.912C325.686 7.56 325.542 7.10133 325.542 6.536C325.542 6.088 325.675 5.67733 325.942 5.304C326.208 4.93067 326.587 4.63733 327.078 4.424C327.568 4.2 328.128 4.088 328.758 4.088C329.728 4.088 330.512 4.33333 331.11 4.824C331.707 5.31467 332.027 5.98667 332.07 6.84H330.614C330.582 6.38133 330.395 6.01333 330.054 5.736C329.723 5.45867 329.275 5.32 328.71 5.32C328.187 5.32 327.771 5.432 327.462 5.656C327.152 5.88 326.998 6.17333 326.998 6.536C326.998 6.824 327.088 7.064 327.27 7.256C327.462 7.43733 327.696 7.58667 327.974 7.704C328.262 7.81067 328.656 7.93333 329.158 8.072C329.787 8.24267 330.299 8.41333 330.694 8.584C331.088 8.744 331.424 8.98933 331.702 9.32C331.99 9.65067 332.139 10.0827 332.15 10.616C332.15 11.096 332.016 11.528 331.75 11.912C331.483 12.296 331.104 12.6 330.614 12.824C330.134 13.0373 329.579 13.144 328.95 13.144ZM338.877 4.072C339.538 4.072 340.136 4.216 340.669 4.504C341.202 4.78133 341.618 5.20267 341.917 5.768C342.226 6.33333 342.381 7.02133 342.381 7.832V13H340.941V8.04C340.941 7.16533 340.722 6.49867 340.285 6.04C339.848 5.57067 339.25 5.336 338.493 5.336C337.725 5.336 337.112 5.576 336.653 6.056C336.205 6.536 335.981 7.23467 335.981 8.152V13H334.525V1.16H335.981V5.48C336.269 5.032 336.664 4.68533 337.165 4.44C337.677 4.19467 338.248 4.072 338.877 4.072ZM351.121 5.848C351.409 5.34667 351.836 4.93067 352.401 4.6C352.977 4.25867 353.644 4.088 354.401 4.088C355.18 4.088 355.884 4.27467 356.513 4.648C357.153 5.02133 357.654 5.54933 358.017 6.232C358.38 6.904 358.561 7.688 358.561 8.584C358.561 9.46933 358.38 10.2587 358.017 10.952C357.654 11.6453 357.153 12.184 356.513 12.568C355.884 12.952 355.18 13.144 354.401 13.144C353.654 13.144 352.993 12.9787 352.417 12.648C351.852 12.3067 351.42 11.8853 351.121 11.384V17.16H349.665V4.232H351.121V5.848ZM357.073 8.584C357.073 7.92267 356.94 7.34667 356.673 6.856C356.406 6.36533 356.044 5.992 355.585 5.736C355.137 5.48 354.641 5.352 354.097 5.352C353.564 5.352 353.068 5.48533 352.609 5.752C352.161 6.008 351.798 6.38667 351.521 6.888C351.254 7.37867 351.121 7.94933 351.121 8.6C351.121 9.26133 351.254 9.84267 351.521 10.344C351.798 10.8347 352.161 11.2133 352.609 11.48C353.068 11.736 353.564 11.864 354.097 11.864C354.641 11.864 355.137 11.736 355.585 11.48C356.044 11.2133 356.406 10.8347 356.673 10.344C356.94 9.84267 357.073 9.256 357.073 8.584ZM361.55 2.808C361.272 2.808 361.038 2.712 360.846 2.52C360.654 2.328 360.558 2.09333 360.558 1.816C360.558 1.53867 360.654 1.304 360.846 1.112C361.038 0.919999 361.272 0.823999 361.55 0.823999C361.816 0.823999 362.04 0.919999 362.222 1.112C362.414 1.304 362.51 1.53867 362.51 1.816C362.51 2.09333 362.414 2.328 362.222 2.52C362.04 2.712 361.816 2.808 361.55 2.808ZM362.254 4.232V13H360.798V4.232H362.254ZM369.327 4.072C370.394 4.072 371.258 4.39733 371.919 5.048C372.58 5.688 372.911 6.616 372.911 7.832V13H371.471V8.04C371.471 7.16533 371.252 6.49867 370.815 6.04C370.378 5.57067 369.78 5.336 369.023 5.336C368.255 5.336 367.642 5.576 367.183 6.056C366.735 6.536 366.511 7.23467 366.511 8.152V13H365.055V4.232H366.511V5.48C366.799 5.032 367.188 4.68533 367.679 4.44C368.18 4.19467 368.73 4.072 369.327 4.072ZM383.61 8.28C383.61 8.55733 383.594 8.85067 383.562 9.16H376.554C376.607 10.024 376.9 10.7013 377.434 11.192C377.978 11.672 378.634 11.912 379.402 11.912C380.031 11.912 380.554 11.768 380.97 11.48C381.396 11.1813 381.695 10.7867 381.866 10.296H383.434C383.199 11.1387 382.73 11.8267 382.026 12.36C381.322 12.8827 380.447 13.144 379.402 13.144C378.57 13.144 377.823 12.9573 377.162 12.584C376.511 12.2107 375.999 11.6827 375.626 11C375.252 10.3067 375.066 9.50667 375.066 8.6C375.066 7.69333 375.247 6.89867 375.61 6.216C375.972 5.53333 376.479 5.01067 377.13 4.648C377.791 4.27467 378.548 4.088 379.402 4.088C380.234 4.088 380.97 4.26933 381.61 4.632C382.25 4.99467 382.74 5.496 383.082 6.136C383.434 6.76533 383.61 7.48 383.61 8.28ZM382.106 7.976C382.106 7.42133 381.983 6.94667 381.738 6.552C381.492 6.14667 381.156 5.84267 380.73 5.64C380.314 5.42667 379.85 5.32 379.338 5.32C378.602 5.32 377.972 5.55467 377.45 6.024C376.938 6.49333 376.644 7.144 376.57 7.976H382.106ZM385.307 8.584C385.307 7.688 385.489 6.904 385.851 6.232C386.214 5.54933 386.71 5.02133 387.339 4.648C387.979 4.27467 388.689 4.088 389.467 4.088C390.235 4.088 390.902 4.25333 391.467 4.584C392.033 4.91467 392.454 5.33067 392.731 5.832V4.232H394.203V13H392.731V11.368C392.443 11.88 392.011 12.3067 391.435 12.648C390.87 12.9787 390.209 13.144 389.451 13.144C388.673 13.144 387.969 12.952 387.339 12.568C386.71 12.184 386.214 11.6453 385.851 10.952C385.489 10.2587 385.307 9.46933 385.307 8.584ZM392.731 8.6C392.731 7.93867 392.598 7.36267 392.331 6.872C392.065 6.38133 391.702 6.008 391.243 5.752C390.795 5.48533 390.299 5.352 389.755 5.352C389.211 5.352 388.715 5.48 388.267 5.736C387.819 5.992 387.462 6.36533 387.195 6.856C386.929 7.34667 386.795 7.92267 386.795 8.584C386.795 9.256 386.929 9.84267 387.195 10.344C387.462 10.8347 387.819 11.2133 388.267 11.48C388.715 11.736 389.211 11.864 389.755 11.864C390.299 11.864 390.795 11.736 391.243 11.48C391.702 11.2133 392.065 10.8347 392.331 10.344C392.598 9.84267 392.731 9.26133 392.731 8.6ZM398.44 5.848C398.728 5.34667 399.155 4.93067 399.72 4.6C400.296 4.25867 400.963 4.088 401.72 4.088C402.499 4.088 403.203 4.27467 403.832 4.648C404.472 5.02133 404.973 5.54933 405.336 6.232C405.699 6.904 405.88 7.688 405.88 8.584C405.88 9.46933 405.699 10.2587 405.336 10.952C404.973 11.6453 404.472 12.184 403.832 12.568C403.203 12.952 402.499 13.144 401.72 13.144C400.973 13.144 400.312 12.9787 399.736 12.648C399.171 12.3067 398.739 11.8853 398.44 11.384V17.16H396.984V4.232H398.44V5.848ZM404.392 8.584C404.392 7.92267 404.259 7.34667 403.992 6.856C403.725 6.36533 403.363 5.992 402.904 5.736C402.456 5.48 401.96 5.352 401.416 5.352C400.883 5.352 400.387 5.48533 399.928 5.752C399.48 6.008 399.117 6.38667 398.84 6.888C398.573 7.37867 398.44 7.94933 398.44 8.6C398.44 9.26133 398.573 9.84267 398.84 10.344C399.117 10.8347 399.48 11.2133 399.928 11.48C400.387 11.736 400.883 11.864 401.416 11.864C401.96 11.864 402.456 11.736 402.904 11.48C403.363 11.2133 403.725 10.8347 403.992 10.344C404.259 9.84267 404.392 9.256 404.392 8.584ZM409.572 5.848C409.86 5.34667 410.287 4.93067 410.852 4.6C411.428 4.25867 412.095 4.088 412.852 4.088C413.631 4.088 414.335 4.27467 414.964 4.648C415.604 5.02133 416.106 5.54933 416.468 6.232C416.831 6.904 417.012 7.688 417.012 8.584C417.012 9.46933 416.831 10.2587 416.468 10.952C416.106 11.6453 415.604 12.184 414.964 12.568C414.335 12.952 413.631 13.144 412.852 13.144C412.106 13.144 411.444 12.9787 410.868 12.648C410.303 12.3067 409.871 11.8853 409.572 11.384V17.16H408.116V4.232H409.572V5.848ZM415.524 8.584C415.524 7.92267 415.391 7.34667 415.124 6.856C414.858 6.36533 414.495 5.992 414.036 5.736C413.588 5.48 413.092 5.352 412.548 5.352C412.015 5.352 411.519 5.48533 411.06 5.752C410.612 6.008 410.25 6.38667 409.972 6.888C409.706 7.37867 409.572 7.94933 409.572 8.6C409.572 9.26133 409.706 9.84267 409.972 10.344C410.25 10.8347 410.612 11.2133 411.06 11.48C411.519 11.736 412.015 11.864 412.548 11.864C413.092 11.864 413.588 11.736 414.036 11.48C414.495 11.2133 414.858 10.8347 415.124 10.344C415.391 9.84267 415.524 9.256 415.524 8.584ZM420.705 1.16V13H419.249V1.16H420.705ZM431.506 8.28C431.506 8.55733 431.49 8.85067 431.458 9.16H424.45C424.504 10.024 424.797 10.7013 425.33 11.192C425.874 11.672 426.53 11.912 427.298 11.912C427.928 11.912 428.45 11.768 428.866 11.48C429.293 11.1813 429.592 10.7867 429.762 10.296H431.33C431.096 11.1387 430.626 11.8267 429.922 12.36C429.218 12.8827 428.344 13.144 427.298 13.144C426.466 13.144 425.72 12.9573 425.058 12.584C424.408 12.2107 423.896 11.6827 423.522 11C423.149 10.3067 422.962 9.50667 422.962 8.6C422.962 7.69333 423.144 6.89867 423.506 6.216C423.869 5.53333 424.376 5.01067 425.026 4.648C425.688 4.27467 426.445 4.088 427.298 4.088C428.13 4.088 428.866 4.26933 429.506 4.632C430.146 4.99467 430.637 5.496 430.978 6.136C431.33 6.76533 431.506 7.48 431.506 8.28ZM430.002 7.976C430.002 7.42133 429.88 6.94667 429.634 6.552C429.389 6.14667 429.053 5.84267 428.626 5.64C428.21 5.42667 427.746 5.32 427.234 5.32C426.498 5.32 425.869 5.55467 425.346 6.024C424.834 6.49333 424.541 7.144 424.466 7.976H430.002ZM435.252 10.984L433.46 15.288H432.484L433.652 10.984H435.252ZM441.282 8.584C441.282 7.688 441.463 6.904 441.826 6.232C442.188 5.54933 442.684 5.02133 443.314 4.648C443.954 4.27467 444.668 4.088 445.458 4.088C446.14 4.088 446.775 4.248 447.362 4.568C447.948 4.87733 448.396 5.288 448.706 5.8V1.16H450.178V13H448.706V11.352C448.418 11.8747 447.991 12.3067 447.426 12.648C446.86 12.9787 446.199 13.144 445.442 13.144C444.663 13.144 443.954 12.952 443.314 12.568C442.684 12.184 442.188 11.6453 441.826 10.952C441.463 10.2587 441.282 9.46933 441.282 8.584ZM448.706 8.6C448.706 7.93867 448.572 7.36267 448.306 6.872C448.039 6.38133 447.676 6.008 447.218 5.752C446.77 5.48533 446.274 5.352 445.73 5.352C445.186 5.352 444.69 5.48 444.242 5.736C443.794 5.992 443.436 6.36533 443.17 6.856C442.903 7.34667 442.77 7.92267 442.77 8.584C442.77 9.256 442.903 9.84267 443.17 10.344C443.436 10.8347 443.794 11.2133 444.242 11.48C444.69 11.736 445.186 11.864 445.73 11.864C446.274 11.864 446.77 11.736 447.218 11.48C447.676 11.2133 448.039 10.8347 448.306 10.344C448.572 9.84267 448.706 9.26133 448.706 8.6ZM460.958 8.28C460.958 8.55733 460.942 8.85067 460.91 9.16H453.902C453.956 10.024 454.249 10.7013 454.782 11.192C455.326 11.672 455.982 11.912 456.75 11.912C457.38 11.912 457.902 11.768 458.318 11.48C458.745 11.1813 459.044 10.7867 459.214 10.296H460.782C460.548 11.1387 460.078 11.8267 459.374 12.36C458.67 12.8827 457.796 13.144 456.75 13.144C455.918 13.144 455.172 12.9573 454.51 12.584C453.86 12.2107 453.348 11.6827 452.974 11C452.601 10.3067 452.414 9.50667 452.414 8.6C452.414 7.69333 452.596 6.89867 452.958 6.216C453.321 5.53333 453.828 5.01067 454.478 4.648C455.14 4.27467 455.897 4.088 456.75 4.088C457.582 4.088 458.318 4.26933 458.958 4.632C459.598 4.99467 460.089 5.496 460.43 6.136C460.782 6.76533 460.958 7.48 460.958 8.28ZM459.454 7.976C459.454 7.42133 459.332 6.94667 459.086 6.552C458.841 6.14667 458.505 5.84267 458.078 5.64C457.662 5.42667 457.198 5.32 456.686 5.32C455.95 5.32 455.321 5.55467 454.798 6.024C454.286 6.49333 453.993 7.144 453.918 7.976H459.454ZM464.656 1.16V13H463.2V1.16H464.656ZM468.21 2.808C467.932 2.808 467.698 2.712 467.506 2.52C467.314 2.328 467.218 2.09333 467.218 1.816C467.218 1.53867 467.314 1.304 467.506 1.112C467.698 0.919999 467.932 0.823999 468.21 0.823999C468.476 0.823999 468.7 0.919999 468.882 1.112C469.074 1.304 469.17 1.53867 469.17 1.816C469.17 2.09333 469.074 2.328 468.882 2.52C468.7 2.712 468.476 2.808 468.21 2.808ZM468.914 4.232V13H467.458V4.232H468.914ZM474.979 11.656L477.699 4.232H479.251L475.811 13H474.115L470.675 4.232H472.243L474.979 11.656ZM489.004 8.28C489.004 8.55733 488.988 8.85067 488.956 9.16H481.948C482.001 10.024 482.295 10.7013 482.828 11.192C483.372 11.672 484.028 11.912 484.796 11.912C485.425 11.912 485.948 11.768 486.364 11.48C486.791 11.1813 487.089 10.7867 487.26 10.296H488.828C488.593 11.1387 488.124 11.8267 487.42 12.36C486.716 12.8827 485.841 13.144 484.796 13.144C483.964 13.144 483.217 12.9573 482.556 12.584C481.905 12.2107 481.393 11.6827 481.02 11C480.647 10.3067 480.46 9.50667 480.46 8.6C480.46 7.69333 480.641 6.89867 481.004 6.216C481.367 5.53333 481.873 5.01067 482.524 4.648C483.185 4.27467 483.943 4.088 484.796 4.088C485.628 4.088 486.364 4.26933 487.004 4.632C487.644 4.99467 488.135 5.496 488.476 6.136C488.828 6.76533 489.004 7.48 489.004 8.28ZM487.5 7.976C487.5 7.42133 487.377 6.94667 487.132 6.552C486.887 6.14667 486.551 5.84267 486.124 5.64C485.708 5.42667 485.244 5.32 484.732 5.32C483.996 5.32 483.367 5.55467 482.844 6.024C482.332 6.49333 482.039 7.144 481.964 7.976H487.5ZM492.702 5.656C492.958 5.15467 493.32 4.76533 493.79 4.488C494.27 4.21067 494.851 4.072 495.534 4.072V5.576H495.15C493.518 5.576 492.702 6.46133 492.702 8.232V13H491.246V4.232H492.702V5.656ZM498.286 2.808C498.009 2.808 497.774 2.712 497.582 2.52C497.39 2.328 497.294 2.09333 497.294 1.816C497.294 1.53867 497.39 1.304 497.582 1.112C497.774 0.919999 498.009 0.823999 498.286 0.823999C498.553 0.823999 498.777 0.919999 498.958 1.112C499.15 1.304 499.246 1.53867 499.246 1.816C499.246 2.09333 499.15 2.328 498.958 2.52C498.777 2.712 498.553 2.808 498.286 2.808ZM498.99 4.232V13H497.534V4.232H498.99ZM506.064 4.072C507.131 4.072 507.995 4.39733 508.656 5.048C509.317 5.688 509.648 6.616 509.648 7.832V13H508.208V8.04C508.208 7.16533 507.989 6.49867 507.552 6.04C507.115 5.57067 506.517 5.336 505.76 5.336C504.992 5.336 504.379 5.576 503.92 6.056C503.472 6.536 503.248 7.23467 503.248 8.152V13H501.792V4.232H503.248V5.48C503.536 5.032 503.925 4.68533 504.416 4.44C504.917 4.19467 505.467 4.072 506.064 4.072ZM515.962 4.088C516.72 4.088 517.381 4.25333 517.946 4.584C518.522 4.91467 518.949 5.33067 519.226 5.832V4.232H520.698V13.192C520.698 13.992 520.528 14.7013 520.186 15.32C519.845 15.9493 519.354 16.44 518.714 16.792C518.085 17.144 517.349 17.32 516.506 17.32C515.354 17.32 514.394 17.048 513.626 16.504C512.858 15.96 512.405 15.2187 512.266 14.28H513.706C513.866 14.8133 514.197 15.24 514.698 15.56C515.2 15.8907 515.802 16.056 516.506 16.056C517.306 16.056 517.957 15.8053 518.458 15.304C518.97 14.8027 519.226 14.0987 519.226 13.192V11.352C518.938 11.864 518.512 12.2907 517.946 12.632C517.381 12.9733 516.72 13.144 515.962 13.144C515.184 13.144 514.474 12.952 513.834 12.568C513.205 12.184 512.709 11.6453 512.346 10.952C511.984 10.2587 511.802 9.46933 511.802 8.584C511.802 7.688 511.984 6.904 512.346 6.232C512.709 5.54933 513.205 5.02133 513.834 4.648C514.474 4.27467 515.184 4.088 515.962 4.088ZM519.226 8.6C519.226 7.93867 519.093 7.36267 518.826 6.872C518.56 6.38133 518.197 6.008 517.738 5.752C517.29 5.48533 516.794 5.352 516.25 5.352C515.706 5.352 515.21 5.48 514.762 5.736C514.314 5.992 513.957 6.36533 513.69 6.856C513.424 7.34667 513.29 7.92267 513.29 8.584C513.29 9.256 513.424 9.84267 513.69 10.344C513.957 10.8347 514.314 11.2133 514.762 11.48C515.21 11.736 515.706 11.864 516.25 11.864C516.794 11.864 517.29 11.736 517.738 11.48C518.197 11.2133 518.56 10.8347 518.826 10.344C519.093 9.84267 519.226 9.26133 519.226 8.6ZM527.521 8.584C527.521 7.688 527.702 6.904 528.065 6.232C528.427 5.54933 528.923 5.02133 529.553 4.648C530.193 4.27467 530.902 4.088 531.681 4.088C532.449 4.088 533.115 4.25333 533.681 4.584C534.246 4.91467 534.667 5.33067 534.945 5.832V4.232H536.417V13H534.945V11.368C534.657 11.88 534.225 12.3067 533.649 12.648C533.083 12.9787 532.422 13.144 531.665 13.144C530.886 13.144 530.182 12.952 529.553 12.568C528.923 12.184 528.427 11.6453 528.065 10.952C527.702 10.2587 527.521 9.46933 527.521 8.584ZM534.945 8.6C534.945 7.93867 534.811 7.36267 534.545 6.872C534.278 6.38133 533.915 6.008 533.457 5.752C533.009 5.48533 532.513 5.352 531.969 5.352C531.425 5.352 530.929 5.48 530.481 5.736C530.033 5.992 529.675 6.36533 529.409 6.856C529.142 7.34667 529.009 7.92267 529.009 8.584C529.009 9.256 529.142 9.84267 529.409 10.344C529.675 10.8347 530.033 11.2133 530.481 11.48C530.929 11.736 531.425 11.864 531.969 11.864C532.513 11.864 533.009 11.736 533.457 11.48C533.915 11.2133 534.278 10.8347 534.545 10.344C534.811 9.84267 534.945 9.26133 534.945 8.6ZM3.008 33.432V38.6C3.008 39.0267 3.09867 39.3307 3.28 39.512C3.46133 39.6827 3.776 39.768 4.224 39.768H5.296V41H3.984C3.17333 41 2.56533 40.8133 2.16 40.44C1.75467 40.0667 1.552 39.4533 1.552 38.6V33.432H0.416V32.232H1.552V30.024H3.008V32.232H5.296V33.432H3.008ZM8.83613 33.656C9.09213 33.1547 9.45479 32.7653 9.92413 32.488C10.4041 32.2107 10.9855 32.072 11.6681 32.072V33.576H11.2841C9.65213 33.576 8.83613 34.4613 8.83613 36.232V41H7.38013V32.232H8.83613V33.656ZM17.4929 41.144C16.6715 41.144 15.9249 40.9573 15.2529 40.584C14.5915 40.2107 14.0689 39.6827 13.6849 39C13.3115 38.3067 13.1249 37.5067 13.1249 36.6C13.1249 35.704 13.3169 34.9147 13.7009 34.232C14.0955 33.5387 14.6289 33.0107 15.3009 32.648C15.9729 32.2747 16.7249 32.088 17.5569 32.088C18.3889 32.088 19.1409 32.2747 19.8129 32.648C20.4849 33.0107 21.0129 33.5333 21.3969 34.216C21.7915 34.8987 21.9889 35.6933 21.9889 36.6C21.9889 37.5067 21.7862 38.3067 21.3809 39C20.9862 39.6827 20.4475 40.2107 19.7649 40.584C19.0822 40.9573 18.3249 41.144 17.4929 41.144ZM17.4929 39.864C18.0155 39.864 18.5062 39.7413 18.9649 39.496C19.4235 39.2507 19.7915 38.8827 20.0689 38.392C20.3569 37.9013 20.5009 37.304 20.5009 36.6C20.5009 35.896 20.3622 35.2987 20.0849 34.808C19.8075 34.3173 19.4449 33.9547 18.9969 33.72C18.5489 33.4747 18.0635 33.352 17.5409 33.352C17.0075 33.352 16.5169 33.4747 16.0689 33.72C15.6315 33.9547 15.2795 34.3173 15.0129 34.808C14.7462 35.2987 14.6129 35.896 14.6129 36.6C14.6129 37.3147 14.7409 37.9173 14.9969 38.408C15.2635 38.8987 15.6155 39.2667 16.0529 39.512C16.4902 39.7467 16.9702 39.864 17.4929 39.864ZM25.6792 33.848C25.9672 33.3467 26.3939 32.9307 26.9592 32.6C27.5352 32.2587 28.2019 32.088 28.9592 32.088C29.7379 32.088 30.4419 32.2747 31.0712 32.648C31.7112 33.0213 32.2126 33.5493 32.5752 34.232C32.9379 34.904 33.1192 35.688 33.1192 36.584C33.1192 37.4693 32.9379 38.2587 32.5752 38.952C32.2126 39.6453 31.7112 40.184 31.0712 40.568C30.4419 40.952 29.7379 41.144 28.9592 41.144C28.2126 41.144 27.5512 40.9787 26.9752 40.648C26.4099 40.3067 25.9779 39.8853 25.6792 39.384V45.16H24.2232V32.232H25.6792V33.848ZM31.6312 36.584C31.6312 35.9227 31.4979 35.3467 31.2312 34.856C30.9646 34.3653 30.6019 33.992 30.1432 33.736C29.6952 33.48 29.1992 33.352 28.6552 33.352C28.1219 33.352 27.6259 33.4853 27.1672 33.752C26.7192 34.008 26.3566 34.3867 26.0792 34.888C25.8126 35.3787 25.6792 35.9493 25.6792 36.6C25.6792 37.2613 25.8126 37.8427 26.0792 38.344C26.3566 38.8347 26.7192 39.2133 27.1672 39.48C27.6259 39.736 28.1219 39.864 28.6552 39.864C29.1992 39.864 29.6952 39.736 30.1432 39.48C30.6019 39.2133 30.9646 38.8347 31.2312 38.344C31.4979 37.8427 31.6312 37.256 31.6312 36.584ZM36.1077 30.808C35.8304 30.808 35.5957 30.712 35.4037 30.52C35.2117 30.328 35.1157 30.0933 35.1157 29.816C35.1157 29.5387 35.2117 29.304 35.4037 29.112C35.5957 28.92 35.8304 28.824 36.1077 28.824C36.3744 28.824 36.5984 28.92 36.7797 29.112C36.9717 29.304 37.0677 29.5387 37.0677 29.816C37.0677 30.0933 36.9717 30.328 36.7797 30.52C36.5984 30.712 36.3744 30.808 36.1077 30.808ZM36.8117 32.232V41H35.3557V32.232H36.8117ZM39.0692 36.6C39.0692 35.6933 39.2506 34.904 39.6132 34.232C39.9759 33.5493 40.4772 33.0213 41.1172 32.648C41.7679 32.2747 42.5092 32.088 43.3412 32.088C44.4186 32.088 45.3039 32.3493 45.9972 32.872C46.7012 33.3947 47.1652 34.12 47.3892 35.048H45.8212C45.6719 34.5147 45.3786 34.0933 44.9412 33.784C44.5146 33.4747 43.9812 33.32 43.3412 33.32C42.5092 33.32 41.8372 33.608 41.3252 34.184C40.8132 34.7493 40.5572 35.5547 40.5572 36.6C40.5572 37.656 40.8132 38.472 41.3252 39.048C41.8372 39.624 42.5092 39.912 43.3412 39.912C43.9812 39.912 44.5146 39.7627 44.9412 39.464C45.3679 39.1653 45.6612 38.7387 45.8212 38.184H47.3892C47.1546 39.08 46.6852 39.8 45.9812 40.344C45.2772 40.8773 44.3972 41.144 43.3412 41.144C42.5092 41.144 41.7679 40.9573 41.1172 40.584C40.4772 40.2107 39.9759 39.6827 39.6132 39C39.2506 38.3173 39.0692 37.5173 39.0692 36.6ZM49.108 36.584C49.108 35.688 49.2893 34.904 49.652 34.232C50.0147 33.5493 50.5107 33.0213 51.14 32.648C51.78 32.2747 52.4893 32.088 53.268 32.088C54.036 32.088 54.7027 32.2533 55.268 32.584C55.8333 32.9147 56.2547 33.3307 56.532 33.832V32.232H58.004V41H56.532V39.368C56.244 39.88 55.812 40.3067 55.236 40.648C54.6707 40.9787 54.0093 41.144 53.252 41.144C52.4733 41.144 51.7693 40.952 51.14 40.568C50.5107 40.184 50.0147 39.6453 49.652 38.952C49.2893 38.2587 49.108 37.4693 49.108 36.584ZM56.532 36.6C56.532 35.9387 56.3987 35.3627 56.132 34.872C55.8653 34.3813 55.5027 34.008 55.044 33.752C54.596 33.4853 54.1 33.352 53.556 33.352C53.012 33.352 52.516 33.48 52.068 33.736C51.62 33.992 51.2627 34.3653 50.996 34.856C50.7293 35.3467 50.596 35.9227 50.596 36.584C50.596 37.256 50.7293 37.8427 50.996 38.344C51.2627 38.8347 51.62 39.2133 52.068 39.48C52.516 39.736 53.012 39.864 53.556 39.864C54.1 39.864 54.596 39.736 55.044 39.48C55.5027 39.2133 55.8653 38.8347 56.132 38.344C56.3987 37.8427 56.532 37.2613 56.532 36.6ZM62.2405 29.16V41H60.7845V29.16H62.2405ZM66.546 38.984L64.754 43.288H63.778L64.946 38.984H66.546ZM74.5755 33.656C74.8315 33.1547 75.1942 32.7653 75.6635 32.488C76.1435 32.2107 76.7248 32.072 77.4075 32.072V33.576H77.0235C75.3915 33.576 74.5755 34.4613 74.5755 36.232V41H73.1195V32.232H74.5755V33.656ZM87.4082 36.28C87.4082 36.5573 87.3922 36.8507 87.3602 37.16H80.3522C80.4056 38.024 80.6989 38.7013 81.2322 39.192C81.7762 39.672 82.4322 39.912 83.2002 39.912C83.8296 39.912 84.3522 39.768 84.7682 39.48C85.1949 39.1813 85.4936 38.7867 85.6642 38.296H87.2322C86.9976 39.1387 86.5282 39.8267 85.8242 40.36C85.1202 40.8827 84.2456 41.144 83.2002 41.144C82.3682 41.144 81.6216 40.9573 80.9602 40.584C80.3096 40.2107 79.7976 39.6827 79.4242 39C79.0509 38.3067 78.8642 37.5067 78.8642 36.6C78.8642 35.6933 79.0456 34.8987 79.4082 34.216C79.7709 33.5333 80.2776 33.0107 80.9282 32.648C81.5896 32.2747 82.3469 32.088 83.2002 32.088C84.0322 32.088 84.7682 32.2693 85.4082 32.632C86.0482 32.9947 86.5389 33.496 86.8802 34.136C87.2322 34.7653 87.4082 35.48 87.4082 36.28ZM85.9042 35.976C85.9042 35.4213 85.7816 34.9467 85.5362 34.552C85.2909 34.1467 84.9549 33.8427 84.5282 33.64C84.1122 33.4267 83.6482 33.32 83.1362 33.32C82.4002 33.32 81.7709 33.5547 81.2482 34.024C80.7362 34.4933 80.4429 35.144 80.3682 35.976H85.9042ZM93.2181 33.432H91.3781V41H89.9221V33.432H88.7861V32.232H89.9221V31.608C89.9221 30.6267 90.1728 29.912 90.6741 29.464C91.1861 29.0053 92.0021 28.776 93.1221 28.776V29.992C92.4821 29.992 92.0288 30.12 91.7621 30.376C91.5061 30.6213 91.3781 31.032 91.3781 31.608V32.232H93.2181V33.432ZM96.6918 33.656C96.9478 33.1547 97.3104 32.7653 97.7798 32.488C98.2598 32.2107 98.8411 32.072 99.5238 32.072V33.576H99.1398C97.5078 33.576 96.6918 34.4613 96.6918 36.232V41H95.2358V32.232H96.6918V33.656ZM109.525 36.28C109.525 36.5573 109.509 36.8507 109.477 37.16H102.469C102.522 38.024 102.815 38.7013 103.349 39.192C103.893 39.672 104.549 39.912 105.317 39.912C105.946 39.912 106.469 39.768 106.885 39.48C107.311 39.1813 107.61 38.7867 107.781 38.296H109.349C109.114 39.1387 108.645 39.8267 107.941 40.36C107.237 40.8827 106.362 41.144 105.317 41.144C104.485 41.144 103.738 40.9573 103.077 40.584C102.426 40.2107 101.914 39.6827 101.541 39C101.167 38.3067 100.981 37.5067 100.981 36.6C100.981 35.6933 101.162 34.8987 101.525 34.216C101.887 33.5333 102.394 33.0107 103.045 32.648C103.706 32.2747 104.463 32.088 105.317 32.088C106.149 32.088 106.885 32.2693 107.525 32.632C108.165 32.9947 108.655 33.496 108.997 34.136C109.349 34.7653 109.525 35.48 109.525 36.28ZM108.021 35.976C108.021 35.4213 107.898 34.9467 107.653 34.552C107.407 34.1467 107.071 33.8427 106.645 33.64C106.229 33.4267 105.765 33.32 105.253 33.32C104.517 33.32 103.887 33.5547 103.365 34.024C102.853 34.4933 102.559 35.144 102.485 35.976H108.021ZM114.87 41.144C114.198 41.144 113.596 41.032 113.062 40.808C112.529 40.5733 112.108 40.2533 111.798 39.848C111.489 39.432 111.318 38.9573 111.286 38.424H112.79C112.833 38.8613 113.036 39.2187 113.398 39.496C113.772 39.7733 114.257 39.912 114.854 39.912C115.409 39.912 115.846 39.7893 116.166 39.544C116.486 39.2987 116.646 38.9893 116.646 38.616C116.646 38.232 116.476 37.9493 116.134 37.768C115.793 37.576 115.265 37.3893 114.55 37.208C113.9 37.0373 113.366 36.8667 112.95 36.696C112.545 36.5147 112.193 36.2533 111.894 35.912C111.606 35.56 111.462 35.1013 111.462 34.536C111.462 34.088 111.596 33.6773 111.862 33.304C112.129 32.9307 112.508 32.6373 112.998 32.424C113.489 32.2 114.049 32.088 114.678 32.088C115.649 32.088 116.433 32.3333 117.03 32.824C117.628 33.3147 117.948 33.9867 117.99 34.84H116.534C116.502 34.3813 116.316 34.0133 115.974 33.736C115.644 33.4587 115.196 33.32 114.63 33.32C114.108 33.32 113.692 33.432 113.382 33.656C113.073 33.88 112.918 34.1733 112.918 34.536C112.918 34.824 113.009 35.064 113.19 35.256C113.382 35.4373 113.617 35.5867 113.894 35.704C114.182 35.8107 114.577 35.9333 115.078 36.072C115.708 36.2427 116.22 36.4133 116.614 36.584C117.009 36.744 117.345 36.9893 117.622 37.32C117.91 37.6507 118.06 38.0827 118.07 38.616C118.07 39.096 117.937 39.528 117.67 39.912C117.404 40.296 117.025 40.6 116.534 40.824C116.054 41.0373 115.5 41.144 114.87 41.144ZM124.798 32.072C125.459 32.072 126.056 32.216 126.59 32.504C127.123 32.7813 127.539 33.2027 127.838 33.768C128.147 34.3333 128.302 35.0213 128.302 35.832V41H126.862V36.04C126.862 35.1653 126.643 34.4987 126.206 34.04C125.768 33.5707 125.171 33.336 124.414 33.336C123.646 33.336 123.032 33.576 122.574 34.056C122.126 34.536 121.902 35.2347 121.902 36.152V41H120.446V29.16H121.902V33.48C122.19 33.032 122.584 32.6853 123.086 32.44C123.598 32.1947 124.168 32.072 124.798 32.072ZM131.752 30.808C131.475 30.808 131.24 30.712 131.048 30.52C130.856 30.328 130.76 30.0933 130.76 29.816C130.76 29.5387 130.856 29.304 131.048 29.112C131.24 28.92 131.475 28.824 131.752 28.824C132.019 28.824 132.243 28.92 132.424 29.112C132.616 29.304 132.712 29.5387 132.712 29.816C132.712 30.0933 132.616 30.328 132.424 30.52C132.243 30.712 132.019 30.808 131.752 30.808ZM132.456 32.232V41H131V32.232H132.456ZM139.53 32.072C140.596 32.072 141.46 32.3973 142.122 33.048C142.783 33.688 143.114 34.616 143.114 35.832V41H141.674V36.04C141.674 35.1653 141.455 34.4987 141.018 34.04C140.58 33.5707 139.983 33.336 139.226 33.336C138.458 33.336 137.844 33.576 137.386 34.056C136.938 34.536 136.714 35.2347 136.714 36.152V41H135.258V32.232H136.714V33.48C137.002 33.032 137.391 32.6853 137.882 32.44C138.383 32.1947 138.932 32.072 139.53 32.072ZM149.428 32.088C150.185 32.088 150.847 32.2533 151.412 32.584C151.988 32.9147 152.415 33.3307 152.692 33.832V32.232H154.164V41.192C154.164 41.992 153.993 42.7013 153.652 43.32C153.311 43.9493 152.82 44.44 152.18 44.792C151.551 45.144 150.815 45.32 149.972 45.32C148.82 45.32 147.86 45.048 147.092 44.504C146.324 43.96 145.871 43.2187 145.732 42.28H147.172C147.332 42.8133 147.663 43.24 148.164 43.56C148.665 43.8907 149.268 44.056 149.972 44.056C150.772 44.056 151.423 43.8053 151.924 43.304C152.436 42.8027 152.692 42.0987 152.692 41.192V39.352C152.404 39.864 151.977 40.2907 151.412 40.632C150.847 40.9733 150.185 41.144 149.428 41.144C148.649 41.144 147.94 40.952 147.3 40.568C146.671 40.184 146.175 39.6453 145.812 38.952C145.449 38.2587 145.268 37.4693 145.268 36.584C145.268 35.688 145.449 34.904 145.812 34.232C146.175 33.5493 146.671 33.0213 147.3 32.648C147.94 32.2747 148.649 32.088 149.428 32.088ZM152.692 36.6C152.692 35.9387 152.559 35.3627 152.292 34.872C152.025 34.3813 151.663 34.008 151.204 33.752C150.756 33.4853 150.26 33.352 149.716 33.352C149.172 33.352 148.676 33.48 148.228 33.736C147.78 33.992 147.423 34.3653 147.156 34.856C146.889 35.3467 146.756 35.9227 146.756 36.584C146.756 37.256 146.889 37.8427 147.156 38.344C147.423 38.8347 147.78 39.2133 148.228 39.48C148.676 39.736 149.172 39.864 149.716 39.864C150.26 39.864 150.756 39.736 151.204 39.48C151.663 39.2133 152.025 38.8347 152.292 38.344C152.559 37.8427 152.692 37.2613 152.692 36.6ZM158.448 38.984L156.656 43.288H155.68L156.848 38.984H158.448ZM164.478 36.584C164.478 35.688 164.659 34.904 165.022 34.232C165.385 33.5493 165.881 33.0213 166.51 32.648C167.15 32.2747 167.859 32.088 168.638 32.088C169.406 32.088 170.073 32.2533 170.638 32.584C171.203 32.9147 171.625 33.3307 171.902 33.832V32.232H173.374V41H171.902V39.368C171.614 39.88 171.182 40.3067 170.606 40.648C170.041 40.9787 169.379 41.144 168.622 41.144C167.843 41.144 167.139 40.952 166.51 40.568C165.881 40.184 165.385 39.6453 165.022 38.952C164.659 38.2587 164.478 37.4693 164.478 36.584ZM171.902 36.6C171.902 35.9387 171.769 35.3627 171.502 34.872C171.235 34.3813 170.873 34.008 170.414 33.752C169.966 33.4853 169.47 33.352 168.926 33.352C168.382 33.352 167.886 33.48 167.438 33.736C166.99 33.992 166.633 34.3653 166.366 34.856C166.099 35.3467 165.966 35.9227 165.966 36.584C165.966 37.256 166.099 37.8427 166.366 38.344C166.633 38.8347 166.99 39.2133 167.438 39.48C167.886 39.736 168.382 39.864 168.926 39.864C169.47 39.864 169.966 39.736 170.414 39.48C170.873 39.2133 171.235 38.8347 171.502 38.344C171.769 37.8427 171.902 37.2613 171.902 36.6ZM180.427 32.072C181.493 32.072 182.357 32.3973 183.019 33.048C183.68 33.688 184.011 34.616 184.011 35.832V41H182.571V36.04C182.571 35.1653 182.352 34.4987 181.915 34.04C181.477 33.5707 180.88 33.336 180.123 33.336C179.355 33.336 178.741 33.576 178.283 34.056C177.835 34.536 177.611 35.2347 177.611 36.152V41H176.155V32.232H177.611V33.48C177.899 33.032 178.288 32.6853 178.779 32.44C179.28 32.1947 179.829 32.072 180.427 32.072ZM186.165 36.584C186.165 35.688 186.346 34.904 186.709 34.232C187.072 33.5493 187.568 33.0213 188.197 32.648C188.837 32.2747 189.552 32.088 190.341 32.088C191.024 32.088 191.658 32.248 192.245 32.568C192.832 32.8773 193.28 33.288 193.589 33.8V29.16H195.061V41H193.589V39.352C193.301 39.8747 192.874 40.3067 192.309 40.648C191.744 40.9787 191.082 41.144 190.325 41.144C189.546 41.144 188.837 40.952 188.197 40.568C187.568 40.184 187.072 39.6453 186.709 38.952C186.346 38.2587 186.165 37.4693 186.165 36.584ZM193.589 36.6C193.589 35.9387 193.456 35.3627 193.189 34.872C192.922 34.3813 192.56 34.008 192.101 33.752C191.653 33.4853 191.157 33.352 190.613 33.352C190.069 33.352 189.573 33.48 189.125 33.736C188.677 33.992 188.32 34.3653 188.053 34.856C187.786 35.3467 187.653 35.9227 187.653 36.584C187.653 37.256 187.786 37.8427 188.053 38.344C188.32 38.8347 188.677 39.2133 189.125 39.48C189.573 39.736 190.069 39.864 190.613 39.864C191.157 39.864 191.653 39.736 192.101 39.48C192.56 39.2133 192.922 38.8347 193.189 38.344C193.456 37.8427 193.589 37.2613 193.589 36.6ZM210.427 36.28C210.427 36.5573 210.411 36.8507 210.379 37.16H203.371C203.424 38.024 203.718 38.7013 204.251 39.192C204.795 39.672 205.451 39.912 206.219 39.912C206.848 39.912 207.371 39.768 207.787 39.48C208.214 39.1813 208.512 38.7867 208.683 38.296H210.251C210.016 39.1387 209.547 39.8267 208.843 40.36C208.139 40.8827 207.264 41.144 206.219 41.144C205.387 41.144 204.64 40.9573 203.979 40.584C203.328 40.2107 202.816 39.6827 202.443 39C202.07 38.3067 201.883 37.5067 201.883 36.6C201.883 35.6933 202.064 34.8987 202.427 34.216C202.79 33.5333 203.296 33.0107 203.947 32.648C204.608 32.2747 205.366 32.088 206.219 32.088C207.051 32.088 207.787 32.2693 208.427 32.632C209.067 32.9947 209.558 33.496 209.899 34.136C210.251 34.7653 210.427 35.48 210.427 36.28ZM208.923 35.976C208.923 35.4213 208.8 34.9467 208.555 34.552C208.31 34.1467 207.974 33.8427 207.547 33.64C207.131 33.4267 206.667 33.32 206.155 33.32C205.419 33.32 204.79 33.5547 204.267 34.024C203.755 34.4933 203.462 35.144 203.387 35.976H208.923ZM217.245 41L215.165 37.736L213.165 41H211.645L214.477 36.648L211.645 32.232H213.293L215.373 35.48L217.357 32.232H218.877L216.061 36.568L218.893 41H217.245ZM224.469 41.144C223.648 41.144 222.901 40.9573 222.229 40.584C221.568 40.2107 221.045 39.6827 220.661 39C220.288 38.3067 220.101 37.5067 220.101 36.6C220.101 35.704 220.293 34.9147 220.677 34.232C221.072 33.5387 221.605 33.0107 222.277 32.648C222.949 32.2747 223.701 32.088 224.533 32.088C225.365 32.088 226.117 32.2747 226.789 32.648C227.461 33.0107 227.989 33.5333 228.373 34.216C228.768 34.8987 228.965 35.6933 228.965 36.6C228.965 37.5067 228.762 38.3067 228.357 39C227.962 39.6827 227.424 40.2107 226.741 40.584C226.058 40.9573 225.301 41.144 224.469 41.144ZM224.469 39.864C224.992 39.864 225.482 39.7413 225.941 39.496C226.4 39.2507 226.768 38.8827 227.045 38.392C227.333 37.9013 227.477 37.304 227.477 36.6C227.477 35.896 227.338 35.2987 227.061 34.808C226.784 34.3173 226.421 33.9547 225.973 33.72C225.525 33.4747 225.04 33.352 224.517 33.352C223.984 33.352 223.493 33.4747 223.045 33.72C222.608 33.9547 222.256 34.3173 221.989 34.808C221.722 35.2987 221.589 35.896 221.589 36.6C221.589 37.3147 221.717 37.9173 221.973 38.408C222.24 38.8987 222.592 39.2667 223.029 39.512C223.466 39.7467 223.946 39.864 224.469 39.864ZM232.975 33.432V38.6C232.975 39.0267 233.066 39.3307 233.247 39.512C233.429 39.6827 233.743 39.768 234.191 39.768H235.263V41H233.951C233.141 41 232.533 40.8133 232.127 40.44C231.722 40.0667 231.519 39.4533 231.519 38.6V33.432H230.383V32.232H231.519V30.024H232.975V32.232H235.263V33.432H232.975ZM238.1 30.808C237.822 30.808 237.588 30.712 237.396 30.52C237.204 30.328 237.108 30.0933 237.108 29.816C237.108 29.5387 237.204 29.304 237.396 29.112C237.588 28.92 237.822 28.824 238.1 28.824C238.366 28.824 238.59 28.92 238.772 29.112C238.964 29.304 239.06 29.5387 239.06 29.816C239.06 30.0933 238.964 30.328 238.772 30.52C238.59 30.712 238.366 30.808 238.1 30.808ZM238.804 32.232V41H237.348V32.232H238.804ZM241.061 36.6C241.061 35.6933 241.242 34.904 241.605 34.232C241.968 33.5493 242.469 33.0213 243.109 32.648C243.76 32.2747 244.501 32.088 245.333 32.088C246.41 32.088 247.296 32.3493 247.989 32.872C248.693 33.3947 249.157 34.12 249.381 35.048H247.813C247.664 34.5147 247.37 34.0933 246.933 33.784C246.506 33.4747 245.973 33.32 245.333 33.32C244.501 33.32 243.829 33.608 243.317 34.184C242.805 34.7493 242.549 35.5547 242.549 36.6C242.549 37.656 242.805 38.472 243.317 39.048C243.829 39.624 244.501 39.912 245.333 39.912C245.973 39.912 246.506 39.7627 246.933 39.464C247.36 39.1653 247.653 38.7387 247.813 38.184H249.381C249.146 39.08 248.677 39.8 247.973 40.344C247.269 40.8773 246.389 41.144 245.333 41.144C244.501 41.144 243.76 40.9573 243.109 40.584C242.469 40.2107 241.968 39.6827 241.605 39C241.242 38.3173 241.061 37.5173 241.061 36.6ZM258.005 33.432V38.6C258.005 39.0267 258.096 39.3307 258.277 39.512C258.459 39.6827 258.773 39.768 259.221 39.768H260.293V41H258.981C258.171 41 257.563 40.8133 257.157 40.44C256.752 40.0667 256.549 39.4533 256.549 38.6V33.432H255.413V32.232H256.549V30.024H258.005V32.232H260.293V33.432H258.005ZM261.834 36.584C261.834 35.688 262.015 34.904 262.378 34.232C262.74 33.5493 263.236 33.0213 263.866 32.648C264.506 32.2747 265.215 32.088 265.994 32.088C266.762 32.088 267.428 32.2533 267.994 32.584C268.559 32.9147 268.98 33.3307 269.258 33.832V32.232H270.73V41H269.258V39.368C268.97 39.88 268.538 40.3067 267.962 40.648C267.396 40.9787 266.735 41.144 265.978 41.144C265.199 41.144 264.495 40.952 263.866 40.568C263.236 40.184 262.74 39.6453 262.378 38.952C262.015 38.2587 261.834 37.4693 261.834 36.584ZM269.258 36.6C269.258 35.9387 269.124 35.3627 268.858 34.872C268.591 34.3813 268.228 34.008 267.77 33.752C267.322 33.4853 266.826 33.352 266.282 33.352C265.738 33.352 265.242 33.48 264.794 33.736C264.346 33.992 263.988 34.3653 263.722 34.856C263.455 35.3467 263.322 35.9227 263.322 36.584C263.322 37.256 263.455 37.8427 263.722 38.344C263.988 38.8347 264.346 39.2133 264.794 39.48C265.242 39.736 265.738 39.864 266.282 39.864C266.826 39.864 267.322 39.736 267.77 39.48C268.228 39.2133 268.591 38.8347 268.858 38.344C269.124 37.8427 269.258 37.2613 269.258 36.6ZM276.614 41.144C275.942 41.144 275.339 41.032 274.806 40.808C274.273 40.5733 273.851 40.2533 273.542 39.848C273.233 39.432 273.062 38.9573 273.03 38.424H274.534C274.577 38.8613 274.779 39.2187 275.142 39.496C275.515 39.7733 276.001 39.912 276.598 39.912C277.153 39.912 277.59 39.7893 277.91 39.544C278.23 39.2987 278.39 38.9893 278.39 38.616C278.39 38.232 278.219 37.9493 277.878 37.768C277.537 37.576 277.009 37.3893 276.294 37.208C275.643 37.0373 275.11 36.8667 274.694 36.696C274.289 36.5147 273.937 36.2533 273.638 35.912C273.35 35.56 273.206 35.1013 273.206 34.536C273.206 34.088 273.339 33.6773 273.606 33.304C273.873 32.9307 274.251 32.6373 274.742 32.424C275.233 32.2 275.793 32.088 276.422 32.088C277.393 32.088 278.177 32.3333 278.774 32.824C279.371 33.3147 279.691 33.9867 279.734 34.84H278.278C278.246 34.3813 278.059 34.0133 277.718 33.736C277.387 33.4587 276.939 33.32 276.374 33.32C275.851 33.32 275.435 33.432 275.126 33.656C274.817 33.88 274.662 34.1733 274.662 34.536C274.662 34.824 274.753 35.064 274.934 35.256C275.126 35.4373 275.361 35.5867 275.638 35.704C275.926 35.8107 276.321 35.9333 276.822 36.072C277.451 36.2427 277.963 36.4133 278.358 36.584C278.753 36.744 279.089 36.9893 279.366 37.32C279.654 37.6507 279.803 38.0827 279.814 38.616C279.814 39.096 279.681 39.528 279.414 39.912C279.147 40.296 278.769 40.6 278.278 40.824C277.798 41.0373 277.243 41.144 276.614 41.144ZM283.965 33.432V38.6C283.965 39.0267 284.056 39.3307 284.237 39.512C284.419 39.6827 284.733 39.768 285.181 39.768H286.253V41H284.941C284.131 41 283.523 40.8133 283.117 40.44C282.712 40.0667 282.509 39.4533 282.509 38.6V33.432H281.373V32.232H282.509V30.024H283.965V32.232H286.253V33.432H283.965ZM296.338 36.28C296.338 36.5573 296.322 36.8507 296.29 37.16H289.282C289.335 38.024 289.628 38.7013 290.162 39.192C290.706 39.672 291.362 39.912 292.13 39.912C292.759 39.912 293.282 39.768 293.698 39.48C294.124 39.1813 294.423 38.7867 294.594 38.296H296.162C295.927 39.1387 295.458 39.8267 294.754 40.36C294.05 40.8827 293.175 41.144 292.13 41.144C291.298 41.144 290.551 40.9573 289.89 40.584C289.239 40.2107 288.727 39.6827 288.354 39C287.98 38.3067 287.794 37.5067 287.794 36.6C287.794 35.6933 287.975 34.8987 288.338 34.216C288.7 33.5333 289.207 33.0107 289.858 32.648C290.519 32.2747 291.276 32.088 292.13 32.088C292.962 32.088 293.698 32.2693 294.338 32.632C294.978 32.9947 295.468 33.496 295.81 34.136C296.162 34.7653 296.338 35.48 296.338 36.28ZM294.834 35.976C294.834 35.4213 294.711 34.9467 294.466 34.552C294.22 34.1467 293.884 33.8427 293.458 33.64C293.042 33.4267 292.578 33.32 292.066 33.32C291.33 33.32 290.7 33.5547 290.178 34.024C289.666 34.4933 289.372 35.144 289.298 35.976H294.834ZM300.084 38.984L298.292 43.288H297.316L298.484 38.984H300.084ZM308.113 33.848C308.401 33.3467 308.828 32.9307 309.393 32.6C309.969 32.2587 310.636 32.088 311.393 32.088C312.172 32.088 312.876 32.2747 313.505 32.648C314.145 33.0213 314.646 33.5493 315.009 34.232C315.372 34.904 315.553 35.688 315.553 36.584C315.553 37.4693 315.372 38.2587 315.009 38.952C314.646 39.6453 314.145 40.184 313.505 40.568C312.876 40.952 312.172 41.144 311.393 41.144C310.646 41.144 309.985 40.9787 309.409 40.648C308.844 40.3067 308.412 39.8853 308.113 39.384V45.16H306.657V32.232H308.113V33.848ZM314.065 36.584C314.065 35.9227 313.932 35.3467 313.665 34.856C313.398 34.3653 313.036 33.992 312.577 33.736C312.129 33.48 311.633 33.352 311.089 33.352C310.556 33.352 310.06 33.4853 309.601 33.752C309.153 34.008 308.79 34.3867 308.513 34.888C308.246 35.3787 308.113 35.9493 308.113 36.6C308.113 37.2613 308.246 37.8427 308.513 38.344C308.79 38.8347 309.153 39.2133 309.601 39.48C310.06 39.736 310.556 39.864 311.089 39.864C311.633 39.864 312.129 39.736 312.577 39.48C313.036 39.2133 313.398 38.8347 313.665 38.344C313.932 37.8427 314.065 37.256 314.065 36.584ZM325.789 36.28C325.789 36.5573 325.773 36.8507 325.741 37.16H318.733C318.787 38.024 319.08 38.7013 319.613 39.192C320.157 39.672 320.813 39.912 321.581 39.912C322.211 39.912 322.733 39.768 323.149 39.48C323.576 39.1813 323.875 38.7867 324.045 38.296H325.613C325.379 39.1387 324.909 39.8267 324.205 40.36C323.501 40.8827 322.627 41.144 321.581 41.144C320.749 41.144 320.003 40.9573 319.341 40.584C318.691 40.2107 318.179 39.6827 317.805 39C317.432 38.3067 317.245 37.5067 317.245 36.6C317.245 35.6933 317.427 34.8987 317.789 34.216C318.152 33.5333 318.659 33.0107 319.309 32.648C319.971 32.2747 320.728 32.088 321.581 32.088C322.413 32.088 323.149 32.2693 323.789 32.632C324.429 32.9947 324.92 33.496 325.261 34.136C325.613 34.7653 325.789 35.48 325.789 36.28ZM324.285 35.976C324.285 35.4213 324.163 34.9467 323.917 34.552C323.672 34.1467 323.336 33.8427 322.909 33.64C322.493 33.4267 322.029 33.32 321.517 33.32C320.781 33.32 320.152 33.5547 319.629 34.024C319.117 34.4933 318.824 35.144 318.749 35.976H324.285ZM329.487 33.656C329.743 33.1547 330.106 32.7653 330.575 32.488C331.055 32.2107 331.637 32.072 332.319 32.072V33.576H331.935C330.303 33.576 329.487 34.4613 329.487 36.232V41H328.031V32.232H329.487V33.656ZM337.888 33.432H336.048V41H334.592V33.432H333.456V32.232H334.592V31.608C334.592 30.6267 334.843 29.912 335.344 29.464C335.856 29.0053 336.672 28.776 337.792 28.776V29.992C337.152 29.992 336.699 30.12 336.432 30.376C336.176 30.6213 336.048 31.032 336.048 31.608V32.232H337.888V33.432ZM347.906 36.28C347.906 36.5573 347.89 36.8507 347.858 37.16H340.85C340.903 38.024 341.196 38.7013 341.73 39.192C342.274 39.672 342.93 39.912 343.698 39.912C344.327 39.912 344.85 39.768 345.266 39.48C345.692 39.1813 345.991 38.7867 346.162 38.296H347.73C347.495 39.1387 347.026 39.8267 346.322 40.36C345.618 40.8827 344.743 41.144 343.698 41.144C342.866 41.144 342.119 40.9573 341.458 40.584C340.807 40.2107 340.295 39.6827 339.922 39C339.548 38.3067 339.362 37.5067 339.362 36.6C339.362 35.6933 339.543 34.8987 339.906 34.216C340.268 33.5333 340.775 33.0107 341.426 32.648C342.087 32.2747 342.844 32.088 343.698 32.088C344.53 32.088 345.266 32.2693 345.906 32.632C346.546 32.9947 347.036 33.496 347.378 34.136C347.73 34.7653 347.906 35.48 347.906 36.28ZM346.402 35.976C346.402 35.4213 346.279 34.9467 346.034 34.552C345.788 34.1467 345.452 33.8427 345.026 33.64C344.61 33.4267 344.146 33.32 343.634 33.32C342.898 33.32 342.268 33.5547 341.746 34.024C341.234 34.4933 340.94 35.144 340.866 35.976H346.402ZM349.604 36.6C349.604 35.6933 349.785 34.904 350.148 34.232C350.51 33.5493 351.012 33.0213 351.652 32.648C352.302 32.2747 353.044 32.088 353.876 32.088C354.953 32.088 355.838 32.3493 356.532 32.872C357.236 33.3947 357.7 34.12 357.924 35.048H356.356C356.206 34.5147 355.913 34.0933 355.476 33.784C355.049 33.4747 354.516 33.32 353.876 33.32C353.044 33.32 352.372 33.608 351.86 34.184C351.348 34.7493 351.092 35.5547 351.092 36.6C351.092 37.656 351.348 38.472 351.86 39.048C352.372 39.624 353.044 39.912 353.876 39.912C354.516 39.912 355.049 39.7627 355.476 39.464C355.902 39.1653 356.196 38.7387 356.356 38.184H357.924C357.689 39.08 357.22 39.8 356.516 40.344C355.812 40.8773 354.932 41.144 353.876 41.144C353.044 41.144 352.302 40.9573 351.652 40.584C351.012 40.2107 350.51 39.6827 350.148 39C349.785 38.3173 349.604 37.5173 349.604 36.6ZM361.962 33.432V38.6C361.962 39.0267 362.053 39.3307 362.234 39.512C362.416 39.6827 362.73 39.768 363.178 39.768H364.25V41H362.938C362.128 41 361.52 40.8133 361.114 40.44C360.709 40.0667 360.506 39.4533 360.506 38.6V33.432H359.37V32.232H360.506V30.024H361.962V32.232H364.25V33.432H361.962ZM374.488 33.432H372.648V41H371.192V33.432H370.056V32.232H371.192V31.608C371.192 30.6267 371.443 29.912 371.944 29.464C372.456 29.0053 373.272 28.776 374.392 28.776V29.992C373.752 29.992 373.299 30.12 373.032 30.376C372.776 30.6213 372.648 31.032 372.648 31.608V32.232H374.488V33.432ZM380.33 41.144C379.508 41.144 378.762 40.9573 378.09 40.584C377.428 40.2107 376.906 39.6827 376.522 39C376.148 38.3067 375.962 37.5067 375.962 36.6C375.962 35.704 376.154 34.9147 376.538 34.232C376.932 33.5387 377.466 33.0107 378.138 32.648C378.81 32.2747 379.562 32.088 380.394 32.088C381.226 32.088 381.978 32.2747 382.65 32.648C383.322 33.0107 383.85 33.5333 384.234 34.216C384.628 34.8987 384.826 35.6933 384.826 36.6C384.826 37.5067 384.623 38.3067 384.218 39C383.823 39.6827 383.284 40.2107 382.602 40.584C381.919 40.9573 381.162 41.144 380.33 41.144ZM380.33 39.864C380.852 39.864 381.343 39.7413 381.802 39.496C382.26 39.2507 382.628 38.8827 382.906 38.392C383.194 37.9013 383.338 37.304 383.338 36.6C383.338 35.896 383.199 35.2987 382.922 34.808C382.644 34.3173 382.282 33.9547 381.834 33.72C381.386 33.4747 380.9 33.352 380.378 33.352C379.844 33.352 379.354 33.4747 378.906 33.72C378.468 33.9547 378.116 34.3173 377.85 34.808C377.583 35.2987 377.45 35.896 377.45 36.6C377.45 37.3147 377.578 37.9173 377.834 38.408C378.1 38.8987 378.452 39.2667 378.89 39.512C379.327 39.7467 379.807 39.864 380.33 39.864ZM388.516 33.656C388.772 33.1547 389.135 32.7653 389.604 32.488C390.084 32.2107 390.665 32.072 391.348 32.072V33.576H390.964C389.332 33.576 388.516 34.4613 388.516 36.232V41H387.06V32.232H388.516V33.656ZM405.487 32.232L400.207 45.128H398.703L400.431 40.904L396.895 32.232H398.511L401.263 39.336L403.983 32.232H405.487ZM411.094 41.144C410.273 41.144 409.526 40.9573 408.854 40.584C408.193 40.2107 407.67 39.6827 407.286 39C406.913 38.3067 406.726 37.5067 406.726 36.6C406.726 35.704 406.918 34.9147 407.302 34.232C407.697 33.5387 408.23 33.0107 408.902 32.648C409.574 32.2747 410.326 32.088 411.158 32.088C411.99 32.088 412.742 32.2747 413.414 32.648C414.086 33.0107 414.614 33.5333 414.998 34.216C415.393 34.8987 415.59 35.6933 415.59 36.6C415.59 37.5067 415.387 38.3067 414.982 39C414.587 39.6827 414.049 40.2107 413.366 40.584C412.683 40.9573 411.926 41.144 411.094 41.144ZM411.094 39.864C411.617 39.864 412.107 39.7413 412.566 39.496C413.025 39.2507 413.393 38.8827 413.67 38.392C413.958 37.9013 414.102 37.304 414.102 36.6C414.102 35.896 413.963 35.2987 413.686 34.808C413.409 34.3173 413.046 33.9547 412.598 33.72C412.15 33.4747 411.665 33.352 411.142 33.352C410.609 33.352 410.118 33.4747 409.67 33.72C409.233 33.9547 408.881 34.3173 408.614 34.808C408.347 35.2987 408.214 35.896 408.214 36.6C408.214 37.3147 408.342 37.9173 408.598 38.408C408.865 38.8987 409.217 39.2667 409.654 39.512C410.091 39.7467 410.571 39.864 411.094 39.864ZM425.6 32.232V41H424.144V39.704C423.867 40.152 423.478 40.504 422.976 40.76C422.486 41.0053 421.942 41.128 421.344 41.128C420.662 41.128 420.048 40.9893 419.504 40.712C418.96 40.424 418.528 39.9973 418.208 39.432C417.899 38.8667 417.744 38.1787 417.744 37.368V32.232H419.184V37.176C419.184 38.04 419.403 38.7067 419.84 39.176C420.278 39.6347 420.875 39.864 421.632 39.864C422.411 39.864 423.024 39.624 423.472 39.144C423.92 38.664 424.144 37.9653 424.144 37.048V32.232H425.6ZM429.835 33.656C430.091 33.1547 430.454 32.7653 430.923 32.488C431.403 32.2107 431.984 32.072 432.667 32.072V33.576H432.283C430.651 33.576 429.835 34.4613 429.835 36.232V41H428.379V32.232H429.835V33.656ZM438.709 36.6C438.709 35.6933 438.891 34.904 439.253 34.232C439.616 33.5493 440.117 33.0213 440.757 32.648C441.408 32.2747 442.149 32.088 442.981 32.088C444.059 32.088 444.944 32.3493 445.637 32.872C446.341 33.3947 446.805 34.12 447.029 35.048H445.461C445.312 34.5147 445.019 34.0933 444.581 33.784C444.155 33.4747 443.621 33.32 442.981 33.32C442.149 33.32 441.477 33.608 440.965 34.184C440.453 34.7493 440.197 35.5547 440.197 36.6C440.197 37.656 440.453 38.472 440.965 39.048C441.477 39.624 442.149 39.912 442.981 39.912C443.621 39.912 444.155 39.7627 444.581 39.464C445.008 39.1653 445.301 38.7387 445.461 38.184H447.029C446.795 39.08 446.325 39.8 445.621 40.344C444.917 40.8773 444.037 41.144 442.981 41.144C442.149 41.144 441.408 40.9573 440.757 40.584C440.117 40.2107 439.616 39.6827 439.253 39C438.891 38.3173 438.709 37.5173 438.709 36.6ZM453.644 32.072C454.305 32.072 454.903 32.216 455.436 32.504C455.969 32.7813 456.385 33.2027 456.684 33.768C456.993 34.3333 457.148 35.0213 457.148 35.832V41H455.708V36.04C455.708 35.1653 455.489 34.4987 455.052 34.04C454.615 33.5707 454.017 33.336 453.26 33.336C452.492 33.336 451.879 33.576 451.42 34.056C450.972 34.536 450.748 35.2347 450.748 36.152V41H449.292V29.16H450.748V33.48C451.036 33.032 451.431 32.6853 451.932 32.44C452.444 32.1947 453.015 32.072 453.644 32.072ZM467.846 36.28C467.846 36.5573 467.83 36.8507 467.798 37.16H460.79C460.844 38.024 461.137 38.7013 461.67 39.192C462.214 39.672 462.87 39.912 463.638 39.912C464.268 39.912 464.79 39.768 465.206 39.48C465.633 39.1813 465.932 38.7867 466.102 38.296H467.67C467.436 39.1387 466.966 39.8267 466.262 40.36C465.558 40.8827 464.684 41.144 463.638 41.144C462.806 41.144 462.06 40.9573 461.398 40.584C460.748 40.2107 460.236 39.6827 459.862 39C459.489 38.3067 459.302 37.5067 459.302 36.6C459.302 35.6933 459.484 34.8987 459.846 34.216C460.209 33.5333 460.716 33.0107 461.366 32.648C462.028 32.2747 462.785 32.088 463.638 32.088C464.47 32.088 465.206 32.2693 465.846 32.632C466.486 32.9947 466.977 33.496 467.318 34.136C467.67 34.7653 467.846 35.48 467.846 36.28ZM466.342 35.976C466.342 35.4213 466.22 34.9467 465.974 34.552C465.729 34.1467 465.393 33.8427 464.966 33.64C464.55 33.4267 464.086 33.32 463.574 33.32C462.838 33.32 462.209 33.5547 461.686 34.024C461.174 34.4933 460.881 35.144 460.806 35.976H466.342ZM478.088 36.28C478.088 36.5573 478.072 36.8507 478.04 37.16H471.032C471.086 38.024 471.379 38.7013 471.912 39.192C472.456 39.672 473.112 39.912 473.88 39.912C474.51 39.912 475.032 39.768 475.448 39.48C475.875 39.1813 476.174 38.7867 476.344 38.296H477.912C477.678 39.1387 477.208 39.8267 476.504 40.36C475.8 40.8827 474.926 41.144 473.88 41.144C473.048 41.144 472.302 40.9573 471.64 40.584C470.99 40.2107 470.478 39.6827 470.104 39C469.731 38.3067 469.544 37.5067 469.544 36.6C469.544 35.6933 469.726 34.8987 470.088 34.216C470.451 33.5333 470.958 33.0107 471.608 32.648C472.27 32.2747 473.027 32.088 473.88 32.088C474.712 32.088 475.448 32.2693 476.088 32.632C476.728 32.9947 477.219 33.496 477.56 34.136C477.912 34.7653 478.088 35.48 478.088 36.28ZM476.584 35.976C476.584 35.4213 476.462 34.9467 476.216 34.552C475.971 34.1467 475.635 33.8427 475.208 33.64C474.792 33.4267 474.328 33.32 473.816 33.32C473.08 33.32 472.451 33.5547 471.928 34.024C471.416 34.4933 471.123 35.144 471.048 35.976H476.584ZM481.786 33.656C482.042 33.1547 482.405 32.7653 482.874 32.488C483.354 32.2107 483.935 32.072 484.618 32.072V33.576H484.234C482.602 33.576 481.786 34.4613 481.786 36.232V41H480.33V32.232H481.786V33.656ZM490.187 33.432H488.347V41H486.891V33.432H485.755V32.232H486.891V31.608C486.891 30.6267 487.142 29.912 487.643 29.464C488.155 29.0053 488.971 28.776 490.091 28.776V29.992C489.451 29.992 488.998 30.12 488.731 30.376C488.475 30.6213 488.347 31.032 488.347 31.608V32.232H490.187V33.432ZM499.981 32.232V41H498.525V39.704C498.247 40.152 497.858 40.504 497.357 40.76C496.866 41.0053 496.322 41.128 495.725 41.128C495.042 41.128 494.429 40.9893 493.885 40.712C493.341 40.424 492.909 39.9973 492.589 39.432C492.279 38.8667 492.125 38.1787 492.125 37.368V32.232H493.565V37.176C493.565 38.04 493.783 38.7067 494.221 39.176C494.658 39.6347 495.255 39.864 496.013 39.864C496.791 39.864 497.405 39.624 497.853 39.144C498.301 38.664 498.525 37.9653 498.525 37.048V32.232H499.981ZM504.215 29.16V41H502.759V29.16H504.215ZM11.776 60.072C12.4587 60.072 13.0667 60.216 13.6 60.504C14.1333 60.7813 14.5547 61.2027 14.864 61.768C15.1733 62.3333 15.328 63.0213 15.328 63.832V69H13.888V64.04C13.888 63.1653 13.6693 62.4987 13.232 62.04C12.8053 61.5707 12.224 61.336 11.488 61.336C10.7307 61.336 10.128 61.5813 9.68 62.072C9.232 62.552 9.008 63.2507 9.008 64.168V69H7.568V64.04C7.568 63.1653 7.34933 62.4987 6.912 62.04C6.48533 61.5707 5.904 61.336 5.168 61.336C4.41067 61.336 3.808 61.5813 3.36 62.072C2.912 62.552 2.688 63.2507 2.688 64.168V69H1.232V60.232H2.688V61.496C2.976 61.0373 3.36 60.6853 3.84 60.44C4.33067 60.1947 4.86933 60.072 5.456 60.072C6.192 60.072 6.84267 60.2373 7.408 60.568C7.97333 60.8987 8.39467 61.384 8.672 62.024C8.91733 61.4053 9.32267 60.9253 9.888 60.584C10.4533 60.2427 11.0827 60.072 11.776 60.072ZM21.8604 69.144C21.039 69.144 20.2924 68.9573 19.6204 68.584C18.959 68.2107 18.4364 67.6827 18.0524 67C17.679 66.3067 17.4924 65.5067 17.4924 64.6C17.4924 63.704 17.6844 62.9147 18.0684 62.232C18.463 61.5387 18.9964 61.0107 19.6684 60.648C20.3404 60.2747 21.0924 60.088 21.9244 60.088C22.7564 60.088 23.5084 60.2747 24.1804 60.648C24.8524 61.0107 25.3804 61.5333 25.7644 62.216C26.159 62.8987 26.3564 63.6933 26.3564 64.6C26.3564 65.5067 26.1537 66.3067 25.7484 67C25.3537 67.6827 24.815 68.2107 24.1324 68.584C23.4497 68.9573 22.6924 69.144 21.8604 69.144ZM21.8604 67.864C22.383 67.864 22.8737 67.7413 23.3324 67.496C23.791 67.2507 24.159 66.8827 24.4364 66.392C24.7244 65.9013 24.8684 65.304 24.8684 64.6C24.8684 63.896 24.7297 63.2987 24.4524 62.808C24.175 62.3173 23.8124 61.9547 23.3644 61.72C22.9164 61.4747 22.431 61.352 21.9084 61.352C21.375 61.352 20.8844 61.4747 20.4364 61.72C19.999 61.9547 19.647 62.3173 19.3804 62.808C19.1137 63.2987 18.9804 63.896 18.9804 64.6C18.9804 65.3147 19.1084 65.9173 19.3644 66.408C19.631 66.8987 19.983 67.2667 20.4204 67.512C20.8577 67.7467 21.3377 67.864 21.8604 67.864ZM39.1348 60.072C39.8174 60.072 40.4254 60.216 40.9587 60.504C41.4921 60.7813 41.9134 61.2027 42.2227 61.768C42.5321 62.3333 42.6868 63.0213 42.6868 63.832V69H41.2467V64.04C41.2467 63.1653 41.0281 62.4987 40.5907 62.04C40.1641 61.5707 39.5828 61.336 38.8468 61.336C38.0894 61.336 37.4867 61.5813 37.0387 62.072C36.5907 62.552 36.3667 63.2507 36.3667 64.168V69H34.9267V64.04C34.9267 63.1653 34.7081 62.4987 34.2707 62.04C33.8441 61.5707 33.2627 61.336 32.5267 61.336C31.7694 61.336 31.1667 61.5813 30.7187 62.072C30.2707 62.552 30.0467 63.2507 30.0467 64.168V69H28.5907V60.232H30.0467V61.496C30.3347 61.0373 30.7187 60.6853 31.1987 60.44C31.6894 60.1947 32.2281 60.072 32.8147 60.072C33.5507 60.072 34.2014 60.2373 34.7667 60.568C35.3321 60.8987 35.7534 61.384 36.0308 62.024C36.2761 61.4053 36.6814 60.9253 37.2467 60.584C37.8121 60.2427 38.4414 60.072 39.1348 60.072ZM53.3951 64.28C53.3951 64.5573 53.3791 64.8507 53.3471 65.16H46.3391C46.3925 66.024 46.6858 66.7013 47.2191 67.192C47.7631 67.672 48.4191 67.912 49.1871 67.912C49.8165 67.912 50.3391 67.768 50.7551 67.48C51.1818 67.1813 51.4805 66.7867 51.6511 66.296H53.2191C52.9845 67.1387 52.5151 67.8267 51.8111 68.36C51.1071 68.8827 50.2325 69.144 49.1871 69.144C48.3551 69.144 47.6085 68.9573 46.9471 68.584C46.2965 68.2107 45.7845 67.6827 45.4111 67C45.0378 66.3067 44.8511 65.5067 44.8511 64.6C44.8511 63.6933 45.0325 62.8987 45.3951 62.216C45.7578 61.5333 46.2645 61.0107 46.9151 60.648C47.5765 60.2747 48.3338 60.088 49.1871 60.088C50.0191 60.088 50.7551 60.2693 51.3951 60.632C52.0351 60.9947 52.5258 61.496 52.8671 62.136C53.2191 62.7653 53.3951 63.48 53.3951 64.28ZM51.8911 63.976C51.8911 63.4213 51.7685 62.9467 51.5231 62.552C51.2778 62.1467 50.9418 61.8427 50.5151 61.64C50.0991 61.4267 49.6351 61.32 49.1231 61.32C48.3871 61.32 47.7578 61.5547 47.2351 62.024C46.7231 62.4933 46.4298 63.144 46.3551 63.976H51.8911ZM59.909 60.072C60.9757 60.072 61.8397 60.3973 62.501 61.048C63.1623 61.688 63.493 62.616 63.493 63.832V69H62.053V64.04C62.053 63.1653 61.8343 62.4987 61.397 62.04C60.9597 61.5707 60.3623 61.336 59.605 61.336C58.837 61.336 58.2237 61.576 57.765 62.056C57.317 62.536 57.093 63.2347 57.093 64.152V69H55.637V60.232H57.093V61.48C57.381 61.032 57.7703 60.6853 58.261 60.44C58.7623 60.1947 59.3117 60.072 59.909 60.072ZM67.9674 61.432V66.6C67.9674 67.0267 68.058 67.3307 68.2394 67.512C68.4207 67.6827 68.7354 67.768 69.1834 67.768H70.2554V69H68.9434C68.1327 69 67.5247 68.8133 67.1194 68.44C66.714 68.0667 66.5114 67.4533 66.5114 66.6V61.432H65.3754V60.232H66.5114V58.024H67.9674V60.232H70.2554V61.432H67.9674ZM75.4435 69.144C74.7715 69.144 74.1688 69.032 73.6355 68.808C73.1022 68.5733 72.6808 68.2533 72.3715 67.848C72.0622 67.432 71.8915 66.9573 71.8595 66.424H73.3635C73.4062 66.8613 73.6088 67.2187 73.9715 67.496C74.3448 67.7733 74.8302 67.912 75.4275 67.912C75.9822 67.912 76.4195 67.7893 76.7395 67.544C77.0595 67.2987 77.2195 66.9893 77.2195 66.616C77.2195 66.232 77.0488 65.9493 76.7075 65.768C76.3662 65.576 75.8382 65.3893 75.1235 65.208C74.4728 65.0373 73.9395 64.8667 73.5235 64.696C73.1182 64.5147 72.7662 64.2533 72.4675 63.912C72.1795 63.56 72.0355 63.1013 72.0355 62.536C72.0355 62.088 72.1688 61.6773 72.4355 61.304C72.7022 60.9307 73.0808 60.6373 73.5715 60.424C74.0622 60.2 74.6222 60.088 75.2515 60.088C76.2222 60.088 77.0062 60.3333 77.6035 60.824C78.2008 61.3147 78.5208 61.9867 78.5635 62.84H77.1075C77.0755 62.3813 76.8888 62.0133 76.5475 61.736C76.2168 61.4587 75.7688 61.32 75.2035 61.32C74.6808 61.32 74.2648 61.432 73.9555 61.656C73.6462 61.88 73.4915 62.1733 73.4915 62.536C73.4915 62.824 73.5822 63.064 73.7635 63.256C73.9555 63.4373 74.1902 63.5867 74.4675 63.704C74.7555 63.8107 75.1502 63.9333 75.6515 64.072C76.2808 64.2427 76.7928 64.4133 77.1875 64.584C77.5822 64.744 77.9182 64.9893 78.1955 65.32C78.4835 65.6507 78.6328 66.0827 78.6435 66.616C78.6435 67.096 78.5102 67.528 78.2435 67.912C77.9768 68.296 77.5982 68.6 77.1075 68.824C76.6275 69.0373 76.0728 69.144 75.4435 69.144ZM81.4829 69.096C81.2055 69.096 80.9709 69 80.7789 68.808C80.5869 68.616 80.4909 68.3813 80.4909 68.104C80.4909 67.8267 80.5869 67.592 80.7789 67.4C80.9709 67.208 81.2055 67.112 81.4829 67.112C81.7495 67.112 81.9735 67.208 82.1549 67.4C82.3469 67.592 82.4429 67.8267 82.4429 68.104C82.4429 68.3813 82.3469 68.616 82.1549 68.808C81.9735 69 81.7495 69.096 81.4829 69.096Z" fill="#777777"/>
</svg>
