<svg width="123" height="27" viewBox="0 0 123 27" fill="none" xmlns="http://www.w3.org/2000/svg">
<path d="M1.58744 25.9595C1.31242 25.9595 1.08323 25.8106 0.899885 25.5126C0.762374 25.3751 0.613404 25.1574 0.452975 24.8594C0.292546 24.5615 0.235249 24.0802 0.281086 23.4156C0.349842 22.728 0.601945 21.7311 1.0374 20.4247C1.26658 19.5538 1.44993 18.9236 1.58744 18.5339C1.72495 18.1214 1.79371 17.8235 1.79371 17.6401C1.79371 17.388 1.81662 17.1818 1.86246 17.0213C1.93122 16.838 1.96559 16.6661 1.96559 16.5057C2.1031 16.5057 2.24062 16.3796 2.37813 16.1275C2.51564 15.8754 2.63023 15.5316 2.7219 15.0962C2.81358 14.7066 2.89379 14.3972 2.96255 14.168C3.05422 13.9159 3.10006 13.744 3.10006 13.6523C3.21465 13.469 3.32924 13.1825 3.44384 12.7929C3.58135 12.4033 3.78761 11.9334 4.06263 11.3834C4.24598 10.6958 4.45225 9.98535 4.68143 9.25196C4.91062 8.49565 5.1398 7.79664 5.36899 7.15492C5.62109 6.49029 5.82736 5.97462 5.98779 5.60793C6.23989 4.89745 6.4347 4.40471 6.57221 4.12968C6.70972 3.83174 6.70972 3.63694 6.57221 3.54526C6.41178 3.43067 6.33156 3.14419 6.33156 2.68582C6.35448 2.20453 6.57221 1.792 6.98474 1.44822C7.23684 1.15028 7.5577 0.944016 7.94732 0.829424C8.33693 0.691913 8.78384 0.623158 9.28805 0.623158C9.79225 0.623158 10.3194 0.646076 10.8694 0.691913C11.282 0.714831 11.7174 0.72629 12.1758 0.72629C12.6571 0.72629 12.955 0.72629 13.0696 0.72629C13.2759 0.817964 13.528 0.921097 13.8259 1.03569C14.1238 1.15028 14.3874 1.26487 14.6166 1.37947C14.8687 1.47114 14.9947 1.55136 14.9947 1.62011C14.9947 1.75762 15.0406 1.8493 15.1323 1.89513C15.2468 1.91805 15.3614 1.94097 15.476 1.96389C15.6365 1.96389 15.9 2.11286 16.2667 2.4108C16.6334 2.68582 17.0001 3.0296 17.3668 3.44213C17.7564 3.83174 18.0314 4.22136 18.1919 4.61097C18.3752 5.00059 18.5242 5.36728 18.6388 5.71106C18.7763 6.05484 18.7878 6.54758 18.6732 7.1893C18.6502 7.53308 18.5929 7.87685 18.5013 8.22063C18.4325 8.56441 18.3523 8.79359 18.2606 8.90819C18.1231 8.99986 17.9971 9.11445 17.8825 9.25196C17.7679 9.38947 17.7106 9.51553 17.7106 9.63012C17.7106 9.72179 17.6189 9.95098 17.4356 10.3177C17.2522 10.6614 17.023 11.0625 16.748 11.5209C16.473 11.9563 16.175 12.3918 15.8542 12.8272C15.5333 13.2627 15.2354 13.6065 14.9604 13.8586C14.6624 14.2253 14.3072 14.569 13.8947 14.8899C13.505 15.2108 13.1498 15.4743 12.829 15.6806C12.2331 15.9556 11.5455 16.2192 10.7663 16.4713C10.01 16.7234 9.27659 16.9297 8.56611 17.0901C7.85564 17.2276 7.28268 17.2849 6.84723 17.262C6.18259 17.3536 5.74714 17.4453 5.54088 17.537C5.33461 17.6057 5.18564 17.8006 5.09397 18.1214C4.97937 18.4194 4.86478 18.7288 4.75019 19.0496C4.65851 19.3705 4.61268 19.5997 4.61268 19.7372C4.56684 19.8288 4.46371 20.0809 4.30328 20.4935C4.16577 20.906 3.99388 21.3873 3.78761 21.9373C3.60426 22.4874 3.43238 23.0374 3.27195 23.5875C3.11152 24.1375 2.98547 24.6073 2.89379 24.997C2.80212 25.3178 2.60731 25.5585 2.30937 25.7189C2.03435 25.8793 1.79371 25.9595 1.58744 25.9595ZM6.46907 14.4774C6.56075 14.569 6.85869 14.5805 7.36289 14.5118C7.8671 14.443 8.47444 14.2711 9.18491 13.9961C9.64328 13.8357 10.1017 13.6409 10.56 13.4117C11.0413 13.1825 11.4997 12.9304 11.9351 12.6554C12.1643 12.4949 12.405 12.3001 12.6571 12.0709C12.9092 11.8188 13.2644 11.4063 13.7228 10.8333C13.7915 10.7187 13.9061 10.501 14.0665 10.1802C14.2499 9.83638 14.4103 9.51552 14.5478 9.21759C14.7541 8.89673 14.9604 8.4269 15.1666 7.8081C15.3729 7.16638 15.4187 6.63926 15.3041 6.22672C15.1896 5.63084 14.9604 5.1381 14.6166 4.74848C14.2728 4.33595 13.8374 4.03801 13.3102 3.85466C12.806 3.76299 12.382 3.70569 12.0383 3.68277C11.7174 3.65986 11.3622 3.68277 10.9726 3.75153C10.6059 3.86612 10.3423 4.02655 10.1819 4.23282C10.0444 4.43908 9.83809 4.87453 9.56307 5.53917C9.40264 5.86003 9.17345 6.30694 8.87551 6.8799C8.57757 7.42994 8.32547 7.99145 8.1192 8.56441C7.70667 10.077 7.33998 11.2344 7.01912 12.0366C6.72118 12.8387 6.52637 13.3658 6.4347 13.6179C6.45761 13.87 6.44616 14.0534 6.40032 14.168C6.35448 14.2596 6.3774 14.3628 6.46907 14.4774ZM17.5916 23.4156C17.4083 23.2322 17.2708 22.9572 17.1791 22.5905C17.1103 22.2238 17.0874 21.8686 17.1103 21.5248C17.1332 21.1581 17.1905 20.8831 17.2822 20.6997C17.2822 20.5164 17.3051 20.3789 17.351 20.2872C17.4197 20.1726 17.4426 20.0695 17.4197 19.9778C17.3968 19.8861 17.4197 19.7257 17.4885 19.4965C17.5572 19.2673 17.626 19.0496 17.6947 18.8433C17.8552 18.4766 18.0385 18.0068 18.2448 17.4339C18.4511 16.838 18.6573 16.2421 18.8636 15.6462C19.0699 15.0274 19.2417 14.5003 19.3792 14.0648C19.5168 13.6065 19.597 13.3315 19.6199 13.2398C19.6199 12.9648 19.8032 12.8158 20.1699 12.7929C20.445 12.7012 20.7773 12.8158 21.1669 13.1366C21.5565 13.4575 21.8659 13.8013 22.0951 14.168C22.2784 14.3513 22.3472 14.592 22.3014 14.8899C22.2555 15.1878 22.1065 15.6118 21.8544 16.1619C21.7628 16.3452 21.6482 16.6546 21.5107 17.0901C21.3961 17.5026 21.3159 17.8464 21.27 18.1214C21.1784 18.3048 21.0638 18.5683 20.9262 18.9121C20.8117 19.233 20.7085 19.5424 20.6168 19.8403C20.571 19.9549 20.5252 20.1726 20.4793 20.4935C20.4335 20.7914 20.3762 21.1008 20.3074 21.4217C20.2387 21.7425 20.147 21.9946 20.0324 22.178C19.8262 23.1176 19.4595 23.6677 18.9323 23.8281C18.4281 23.9885 17.9812 23.851 17.5916 23.4156ZM21.3044 9.63012C21.0523 9.44677 20.8575 9.22904 20.72 8.97694C20.6054 8.70192 20.5366 8.46127 20.5137 8.25501C20.5137 8.04874 20.5366 7.92269 20.5825 7.87685C20.8117 7.62475 21.0065 7.29243 21.1669 6.8799C21.3502 6.46737 21.545 6.08921 21.7513 5.74544C21.7971 5.67668 21.8544 5.58501 21.9232 5.47041C22.0149 5.3329 22.1065 5.25269 22.1982 5.22977C22.4732 5.04642 22.8514 5.05788 23.3327 5.26415C23.8369 5.47041 24.2036 5.7569 24.4328 6.12359C24.639 6.55904 24.6963 7.00595 24.6047 7.46432C24.5359 7.92269 24.2953 8.40398 23.8827 8.90819C23.539 9.36655 23.1035 9.66449 22.5764 9.80201C22.0493 9.9166 21.6253 9.8593 21.3044 9.63012ZM28.3961 24.1375C27.7315 24.2521 27.0669 24.1948 26.4022 23.9656C25.7605 23.7364 25.2219 23.3697 24.7865 22.8655C24.374 22.3384 24.1677 21.7082 24.1677 20.9748C24.0989 20.2872 24.1562 19.4736 24.3396 18.5339C24.5458 17.5714 24.8438 16.6088 25.2334 15.6462C25.6459 14.6836 26.1158 13.87 26.6429 13.2054C27.1013 12.6554 27.5596 12.1511 28.018 11.6928C28.4764 11.2344 28.8889 10.925 29.2556 10.7646C29.5765 10.6271 29.9661 10.5239 30.4244 10.4552C30.9057 10.3635 31.238 10.3177 31.4214 10.3177C31.7881 10.4093 32.1892 10.5583 32.6246 10.7646C33.083 10.9708 33.3122 11.2115 33.3122 11.4865C33.3122 11.4865 33.3351 11.5209 33.3809 11.5896C33.4497 11.6355 33.4841 11.6584 33.4841 11.6584C33.6216 11.6584 33.7705 11.8303 33.931 12.1741C34.1143 12.4949 34.2518 12.8731 34.3435 13.3085C34.4352 13.7211 34.4122 14.0534 34.2747 14.3055C34.1831 14.7409 33.9997 15.1649 33.7247 15.5775C33.4726 15.99 33.2549 16.1963 33.0715 16.1963C32.9798 16.1963 32.8882 16.2077 32.7965 16.2306C32.7277 16.2306 32.6934 16.2879 32.6934 16.4025C32.6934 16.5171 32.5673 16.5744 32.3152 16.5744C32.086 16.5744 31.8454 16.5286 31.5933 16.4369C31.3412 16.3452 31.1807 16.2077 31.112 16.0244C31.112 15.9098 31.1349 15.7608 31.1807 15.5775C31.2266 15.3941 31.2953 15.0847 31.387 14.6493C31.5245 14.0075 31.536 13.5836 31.4214 13.3773C31.3068 13.1481 31.0203 13.1252 30.5619 13.3085C29.989 13.6294 29.5192 14.0075 29.1525 14.443C28.7858 14.8555 28.4534 15.4399 28.1555 16.1963C27.8805 16.9526 27.5711 18.0068 27.2273 19.359C27.0898 19.8861 27.0669 20.2987 27.1586 20.5966C27.2731 20.8945 27.3648 21.055 27.4336 21.0779C27.7544 21.1696 28.0982 21.1925 28.4649 21.1467C28.8545 21.0779 29.1754 20.9748 29.4275 20.8373C29.7942 20.6539 30.115 20.4591 30.3901 20.2528C30.688 20.0236 31.0089 19.783 31.3526 19.5309C31.4672 19.4621 31.5704 19.3361 31.662 19.1527C31.7537 18.9465 31.8912 18.7975 32.0746 18.7058C32.2579 18.4308 32.4871 18.2933 32.7621 18.2933C33.0601 18.2704 33.3465 18.2589 33.6216 18.2589C33.8049 18.3048 33.9997 18.4194 34.206 18.6027C34.4122 18.786 34.5612 18.9694 34.6529 19.1527C34.7675 19.3132 34.756 19.4278 34.6185 19.4965C34.5268 19.4965 34.4695 19.5309 34.4466 19.5997C34.4466 19.6455 34.4466 19.6684 34.4466 19.6684C34.4925 19.7601 34.3893 19.9663 34.1372 20.2872C33.908 20.6081 33.6101 20.9518 33.2434 21.3185C32.8767 21.6852 32.5215 22.0061 32.1777 22.2811C31.8568 22.5332 31.6277 22.6593 31.4901 22.6593C31.261 22.6593 31.1464 22.728 31.1464 22.8655C31.1464 22.9114 30.9745 23.026 30.6307 23.2093C30.3098 23.3927 29.9317 23.576 29.4962 23.7594C29.0837 23.9427 28.717 24.0688 28.3961 24.1375ZM37.6526 23.7594C37.3088 23.6448 36.9994 23.4614 36.7244 23.2093C36.4723 22.9572 36.3692 22.5447 36.415 21.9717C36.4608 21.6279 36.5296 21.2727 36.6213 20.906C36.7129 20.5164 36.8275 20.1382 36.9651 19.7715C37.0338 19.359 37.114 18.9465 37.2057 18.5339C37.3203 18.1214 37.5036 17.7318 37.7557 17.3651C38.0537 16.5171 38.3631 15.6806 38.6839 14.8555C39.0048 14.0075 39.2798 13.1252 39.509 12.2084C39.8528 11.3834 40.1622 10.65 40.4372 10.0083C40.7351 9.36655 41.0904 8.54149 41.5029 7.53308C41.7321 7.00595 41.9269 6.42153 42.0873 5.77981C42.2707 5.11518 42.5457 4.53076 42.9124 4.02655C43.0728 3.82028 43.1874 3.6484 43.2562 3.51089C43.3478 3.35046 43.4395 3.20149 43.5312 3.06397C43.6916 2.74312 43.9323 2.59415 44.2531 2.61706C44.5969 2.63998 44.8261 2.73166 44.9407 2.89209C45.3303 3.05251 45.6053 3.35046 45.7657 3.78591C45.9262 4.19844 45.9835 4.49638 45.9376 4.67973C45.9376 4.93183 45.846 5.20685 45.6626 5.50479C45.5709 5.59647 45.4793 5.73398 45.3876 5.91732C45.2959 6.07775 45.1584 6.29548 44.9751 6.5705C44.8834 6.86844 44.7917 7.16638 44.7 7.46432C44.6084 7.76226 44.5052 8.03728 44.3906 8.28939C44.276 8.54149 44.15 8.79359 44.0125 9.0457C43.875 9.2978 43.7833 9.50407 43.7375 9.66449C43.5312 10.1916 43.302 10.7073 43.0499 11.2115C42.8207 11.6928 42.6145 12.2084 42.4311 12.7585C42.2478 13.2856 42.053 13.8471 41.8467 14.443C41.6404 15.016 41.3769 15.566 41.056 16.0931C40.8956 16.3223 40.8039 16.6317 40.781 17.0213C40.781 17.4109 40.7351 17.7891 40.6435 18.1558C40.483 18.5683 40.3341 18.9465 40.1966 19.2903C40.082 19.634 40.0247 19.8518 40.0247 19.9434C39.8642 20.4476 39.7382 20.9518 39.6465 21.456C39.5548 21.9373 39.4059 22.3613 39.1996 22.728C39.1996 23.2781 39.0506 23.6218 38.7527 23.7594C38.4548 23.8969 38.0881 23.8969 37.6526 23.7594ZM45.5251 24.0688C45.1584 24.0229 44.8834 23.9542 44.7 23.8625C44.5167 23.7479 44.1729 23.5073 43.6687 23.1406C43.3937 22.8655 43.0499 22.4415 42.6374 21.8686C42.2248 21.2956 41.8123 20.6883 41.3998 20.0466C40.9872 19.3819 40.6205 18.8204 40.2997 18.3621L42.1905 15.9556C42.4884 16.3223 42.729 16.6661 42.9124 16.9869C43.0957 17.3078 43.2447 17.5255 43.3593 17.6401C43.8864 18.4194 44.299 19.0496 44.5969 19.5309C44.8948 20.0122 45.1469 20.4018 45.3532 20.6997C45.5824 20.9977 45.8345 21.2612 46.1095 21.4904C46.3845 21.7196 46.7398 21.9603 47.1752 22.2124C47.244 22.2582 47.3127 22.3728 47.3815 22.5561C47.4503 22.7166 47.4732 22.8885 47.4503 23.0718C47.4044 23.3468 47.2325 23.576 46.9346 23.7594C46.6596 23.9198 46.1897 24.0229 45.5251 24.0688ZM40.5403 17.7089C40.4028 17.3193 40.3684 16.8838 40.4372 16.4025C40.5289 15.8983 40.7237 15.566 41.0216 15.4056C41.1133 15.2451 41.205 15.142 41.2966 15.0962C41.4112 15.0274 41.48 14.9472 41.5029 14.8555C41.5487 14.7639 41.6633 14.6378 41.8467 14.4774C42.053 14.3169 42.2363 14.168 42.3967 14.0305C42.7634 13.8013 43.1645 13.5263 43.6 13.2054C44.0583 12.8616 44.4938 12.5178 44.9063 12.1741C45.3418 11.8303 45.697 11.5324 45.972 11.2802C46.27 11.0281 46.4533 10.8677 46.5221 10.799C46.5908 10.7073 46.7283 10.65 46.9346 10.6271C47.1638 10.6042 47.3815 10.6385 47.5878 10.7302C47.8628 10.799 48.0805 10.9479 48.2409 11.1771C48.4243 11.4063 48.516 11.7272 48.516 12.1397C48.5847 12.3918 48.4357 12.7012 48.0691 13.0679C47.7253 13.4117 47.2898 13.7554 46.7627 14.0992C46.5794 14.2138 46.3272 14.3857 46.0064 14.6149C45.7084 14.8441 45.4449 15.0618 45.2157 15.2681C45.0553 15.3597 44.8146 15.5202 44.4938 15.7493C44.1958 15.9556 43.9323 16.1619 43.7031 16.3681C43.5197 16.4827 43.302 16.689 43.0499 16.9869C42.8207 17.262 42.5572 17.4682 42.2592 17.6057C41.5258 18.2933 41.0789 18.6256 40.9185 18.6027C40.781 18.5798 40.6549 18.2818 40.5403 17.7089ZM64.0963 26.4064C63.7755 26.3835 63.5004 26.2918 63.2713 26.1314C63.0421 25.9939 62.8243 25.7876 62.6181 25.5126C62.5264 25.3751 62.4004 25.1574 62.2399 24.8594C62.0795 24.5615 62.1139 24.1604 62.3431 23.6562C62.4347 23.3812 62.5264 23.1176 62.6181 22.8655C62.7098 22.6134 62.79 22.3728 62.8587 22.1436C62.8587 22.0519 62.916 21.8686 63.0306 21.5936C63.1681 21.2956 63.3056 20.9862 63.4431 20.6654C63.5119 20.4133 63.638 20.1497 63.8213 19.8747C64.0047 19.5767 64.1307 19.3361 64.1995 19.1527C64.3141 18.9923 64.4172 18.809 64.5089 18.6027C64.6005 18.3735 64.7266 18.1902 64.887 18.0527C64.887 17.961 64.9099 17.8578 64.9558 17.7433C65.0016 17.6057 65.0245 17.537 65.0245 17.537C65.0245 17.4682 65.0933 17.2276 65.2308 16.8151C65.3912 16.4025 65.6204 15.9785 65.9183 15.5431C66.1704 14.993 66.3538 14.6034 66.4684 14.3742C66.6059 14.1451 66.6747 13.9846 66.6747 13.893C66.6976 13.7784 66.6403 13.6638 66.5028 13.5492C66.4569 13.5033 66.2965 13.2169 66.0215 12.6897C65.7465 12.1626 65.4027 11.4865 64.9901 10.6614C64.5776 9.81347 64.1422 8.88527 63.6838 7.87685C63.5921 7.69351 63.5234 7.48724 63.4775 7.25806C63.4317 7.00595 63.3859 6.83406 63.34 6.74239C63.1108 6.28402 62.8702 5.7569 62.6181 5.16101C62.366 4.54222 62.217 4.04947 62.1712 3.68277C62.0795 3.08689 62.0222 2.49101 61.9993 1.89513C61.9993 1.29925 62.0795 0.898179 62.2399 0.691913C62.492 0.43981 62.8129 0.279381 63.2025 0.210625C63.615 0.141869 63.8786 0.26792 63.9932 0.588779C63.9932 0.634616 64.0734 0.680453 64.2338 0.72629C64.3943 0.749208 64.5547 0.795045 64.7151 0.863801C64.8756 0.909639 64.9558 0.989854 64.9558 1.10445C64.9558 1.19612 64.9558 1.37947 64.9558 1.65449C64.9558 1.90659 64.9672 2.15869 64.9901 2.4108C65.036 2.63998 65.0818 2.78895 65.1277 2.85771C65.1735 3.08689 65.2995 3.44213 65.5058 3.92342C65.4829 4.17552 65.5402 4.47346 65.6777 4.81724C65.8152 5.1381 65.9642 5.42458 66.1246 5.67668C66.2392 5.83711 66.308 6.03192 66.3309 6.2611C66.3538 6.46737 66.3653 6.61634 66.3653 6.70801C66.3882 6.79969 66.434 6.89136 66.5028 6.98303C66.5715 7.07471 66.6517 7.15492 66.7434 7.22368C66.8351 7.40703 66.9268 7.59037 67.0184 7.77372C67.133 7.95707 67.2476 8.09458 67.3622 8.18625C67.3393 8.23209 67.3393 8.32376 67.3622 8.46128C67.3851 8.57587 67.3966 8.63316 67.3966 8.63316C67.3966 8.63316 67.4653 8.70192 67.6029 8.83943C67.7404 8.97694 67.855 9.17175 67.9466 9.42385C68.2675 10.2718 68.4738 10.8104 68.5654 11.0396C68.6571 11.2688 68.7029 11.3834 68.7029 11.3834C68.7717 11.3834 68.9207 11.1542 69.1498 10.6958C69.379 10.2375 69.6884 9.68741 70.078 9.0457C70.3531 8.61024 70.7312 8.03728 71.2125 7.32681C71.7167 6.59342 72.2324 5.84857 72.7595 5.09226C73.3096 4.33595 73.7908 3.67131 74.2034 3.09835C74.6388 2.52539 74.9253 2.17015 75.0628 2.03264C75.2691 1.89513 75.5441 1.82638 75.8879 1.82638C76.2317 1.82638 76.5411 1.89513 76.8161 2.03264C77.114 2.17015 77.2859 2.38788 77.3317 2.68582C77.4234 3.12127 77.4005 3.56818 77.263 4.02655C77.1255 4.462 76.8619 4.86307 76.4723 5.22977C76.3806 5.45896 76.1973 5.7569 75.9223 6.12359C75.6472 6.49029 75.3951 6.81115 75.1659 7.08617C75.0055 7.33827 74.8107 7.63621 74.5815 7.97999C74.3523 8.30085 74.1805 8.57587 74.0659 8.80505C73.8825 8.96548 73.7106 9.19467 73.5502 9.49261C73.3898 9.76763 73.2637 9.99681 73.172 10.1802C73.0804 10.3406 72.9543 10.4781 72.7939 10.5927C72.6335 10.7073 72.4959 10.7531 72.3814 10.7302C72.3814 10.8219 72.347 10.9136 72.2782 11.0052C72.2324 11.074 72.2095 11.1542 72.2095 11.2459C72.2095 11.3375 72.1636 11.4292 72.072 11.5209C72.0032 11.6126 71.923 11.7042 71.8313 11.7959C71.625 11.9105 71.5219 12.0595 71.5219 12.2428C71.499 12.3116 71.4073 12.5064 71.2469 12.8272C71.0865 13.1252 70.926 13.4346 70.7656 13.7554C70.4677 14.0534 70.1468 14.4659 69.803 14.993C69.4822 15.4972 69.2301 16.0129 69.0467 16.54C68.8404 16.9297 68.6342 17.2734 68.4279 17.5714C68.2217 17.8464 68.0612 18.0412 67.9466 18.1558C67.9237 18.2475 67.8893 18.3506 67.8435 18.4652C67.8206 18.5798 67.7747 18.6715 67.706 18.7402C67.6143 19.0152 67.4768 19.3934 67.2935 19.8747C67.1101 20.333 66.9382 20.7685 66.7778 21.181C66.6174 21.5936 66.5142 21.88 66.4684 22.0405C66.4455 22.2009 66.3767 22.453 66.2621 22.7968C66.1475 23.1406 66.0559 23.45 65.9871 23.725C65.6204 24.3667 65.3225 24.8021 65.0933 25.0313C64.887 25.2834 64.7839 25.5012 64.7839 25.6845C64.6235 25.822 64.4859 25.971 64.3713 26.1314C64.2797 26.3148 64.188 26.4064 64.0963 26.4064ZM76.4838 23.725C76.0025 23.8167 75.6359 23.7937 75.3837 23.6562C75.1546 23.4958 74.9139 23.301 74.6618 23.0718C74.2951 22.8885 73.9628 22.6364 73.6649 22.3155C73.3669 21.9717 73.1377 21.6165 72.9773 21.2498C72.8169 20.8831 72.7481 20.5966 72.771 20.3903C72.8398 19.5882 73.0231 18.7173 73.3211 17.7776C73.6419 16.838 74.043 15.9212 74.5243 15.0274C75.0285 14.1336 75.59 13.3429 76.2088 12.6554C76.8505 11.9449 77.5381 11.4292 78.2715 11.1084C78.7298 10.925 79.2226 10.8563 79.7497 10.9021C80.2768 10.9479 80.6321 11.1657 80.8154 11.5553C81.1592 12.2199 81.079 12.6439 80.5748 12.8272C80.506 12.8272 80.4258 12.8616 80.3341 12.9304C80.2425 12.9762 80.1966 13.045 80.1966 13.1366C80.2883 13.1825 80.5404 13.1939 80.9529 13.171C81.3655 13.1252 81.778 13.0564 82.1905 12.9648C82.626 12.8502 82.9125 12.7356 83.05 12.621C83.1875 12.5522 83.2906 12.5178 83.3594 12.5178C83.4281 12.5178 83.6 12.5408 83.875 12.5866C84.2647 12.7012 84.4595 12.8387 84.4595 12.9991C84.4595 13.0908 84.4938 13.2398 84.5626 13.446C84.6314 13.6294 84.7116 13.7211 84.8032 13.7211C84.9637 13.744 84.998 13.9044 84.9064 14.2024C84.8376 14.5003 84.5741 14.8097 84.1157 15.1306C83.6802 15.4056 83.4052 15.5889 83.2906 15.6806C83.1989 15.7493 83.1875 15.9098 83.2562 16.1619C83.4396 16.5973 83.4281 17.1245 83.2219 17.7433C83.0156 18.3621 82.6718 19.0038 82.1905 19.6684C81.7092 20.333 81.1363 20.9633 80.4716 21.5592C79.8299 22.1321 79.1538 22.6249 78.4434 23.0374C77.7558 23.427 77.1026 23.6562 76.4838 23.725ZM76.587 20.8373C76.6786 20.8373 76.8391 20.7914 77.0683 20.6997C77.2974 20.5851 77.4808 20.4935 77.6183 20.4247C77.71 20.333 77.8246 20.2299 77.9621 20.1153C78.1225 19.9778 78.2486 19.8976 78.3402 19.8747C78.4319 19.8747 78.4892 19.8403 78.5121 19.7715C78.535 19.6799 78.6153 19.508 78.7528 19.2559C78.8903 18.9809 79.1653 18.5798 79.5778 18.0527C80.0362 17.5484 80.3341 17.1474 80.4716 16.8494C80.6092 16.5286 80.6206 16.1848 80.506 15.8181C80.4831 15.7264 80.4144 15.6691 80.2998 15.6462C80.2081 15.6233 80.082 15.566 79.9216 15.4743C79.6924 15.4743 79.532 15.5316 79.4403 15.6462C79.3716 15.7379 79.2111 15.6806 78.959 15.4743L78.409 14.7868L77.8246 15.3712C77.4579 15.7379 77.1256 16.1963 76.8276 16.7463C76.5526 17.2963 76.3349 17.8578 76.1744 18.4308C76.014 19.0038 75.9109 19.508 75.865 19.9434C75.8421 20.2872 75.8994 20.5164 76.0369 20.631C76.1744 20.7456 76.3578 20.8143 76.587 20.8373ZM88.0796 22.7968C87.6442 22.4072 87.266 22.0061 86.9451 21.5936C86.6243 21.1581 86.4066 20.4935 86.292 19.5997C86.2461 19.1871 86.292 18.6142 86.4295 17.8808C86.567 17.1474 86.7733 16.3796 87.0483 15.5775C87.3233 14.7524 87.6212 13.9961 87.9421 13.3085C88.263 12.621 88.5838 12.1168 88.9047 11.7959C89.1797 11.4521 89.5235 11.1771 89.936 10.9708C90.3715 10.7646 90.8184 10.7646 91.2767 10.9708C91.5288 11.2688 91.6549 11.6813 91.6549 12.2084C91.6778 12.7127 91.5518 13.1825 91.2767 13.6179C90.8184 14.2367 90.4173 15.016 90.0735 15.9556C89.7527 16.8724 89.5349 17.6974 89.4203 18.4308C89.2599 18.9579 89.1912 19.3705 89.2141 19.6684C89.237 19.9434 89.3974 20.1153 89.6954 20.1841C90.1308 20.2987 90.5777 20.1726 91.0361 19.8059C91.5174 19.4392 91.9757 18.9006 92.4112 18.1902C92.8696 17.4797 93.2706 16.6661 93.6144 15.7493C93.7519 15.4285 93.8551 15.0503 93.9238 14.6149C94.0155 14.1794 94.1072 13.8586 94.1988 13.6523C94.3134 13.1939 94.5082 12.8387 94.7833 12.5866C95.0812 12.3116 95.3906 12.1397 95.7115 12.0709C96.0323 12.0022 96.273 12.0366 96.4334 12.1741C96.6397 12.2657 96.8574 12.4147 97.0866 12.621C97.3158 12.8272 97.4074 13.1939 97.3616 13.7211C97.3616 14.569 97.1782 15.291 96.8115 15.8869C96.4449 16.4827 96.1355 17.113 95.8833 17.7776C95.6771 18.2589 95.3448 18.8204 94.8864 19.4621C94.428 20.1039 93.9353 20.6883 93.4082 21.2154C92.9039 21.7425 92.4341 22.0978 91.9987 22.2811C91.3569 22.6936 90.7038 22.9458 90.0391 23.0374C89.3745 23.1062 88.7213 23.026 88.0796 22.7968ZM99.4283 23.4843C99.2678 23.4843 99.0501 23.3697 98.7751 23.1406C98.523 22.9114 98.374 22.7051 98.3282 22.5218C98.2594 22.3384 98.2594 22.0748 98.3282 21.7311C98.4199 21.3644 98.5459 20.9404 98.7063 20.4591C98.8897 19.7028 99.0157 19.1527 99.0845 18.809C99.1532 18.4652 99.222 18.1672 99.2908 17.9151C99.3595 17.663 99.4512 17.2963 99.5658 16.8151C99.7033 16.5171 99.8064 16.2306 99.8752 15.9556C99.9669 15.6577 100.059 15.3597 100.15 15.0618C100.265 14.7639 100.391 14.4659 100.528 14.168C100.689 13.5721 100.884 13.0106 101.113 12.4835C101.365 11.9334 101.606 11.4751 101.835 11.1084C101.881 11.0396 101.984 10.9136 102.144 10.7302C102.305 10.5469 102.431 10.4552 102.522 10.4552C102.706 10.2718 102.958 10.2145 103.279 10.2833C103.599 10.3291 103.874 10.4437 104.104 10.6271C104.379 10.925 104.528 11.2802 104.551 11.6928C104.596 12.0824 104.436 12.6324 104.069 13.3429C103.794 14.0534 103.531 14.6149 103.279 15.0274C103.049 15.417 102.82 15.8754 102.591 16.4025C102.843 16.0358 103.153 15.6577 103.519 15.2681C103.886 14.8784 104.172 14.569 104.379 14.3399C104.677 14.019 104.952 13.7669 105.204 13.5836C105.479 13.3773 105.845 13.1252 106.304 12.8272C106.693 12.5522 107.083 12.3001 107.473 12.0709C107.885 11.8417 108.378 11.773 108.951 11.8647C109.18 11.8418 109.421 11.9563 109.673 12.2084C109.948 12.4605 110.154 12.7929 110.292 13.2054C110.452 13.595 110.452 14.019 110.292 14.4774C109.765 14.3628 109.295 14.3857 108.882 14.5461C108.47 14.6836 108.114 14.8555 107.816 15.0618C107.541 15.2681 107.324 15.4285 107.163 15.5431C106.934 15.6806 106.671 15.8639 106.373 16.0931C106.075 16.2994 105.754 16.54 105.41 16.8151C105.066 17.0672 104.7 17.3536 104.31 17.6745C103.76 18.1329 103.347 18.5339 103.072 18.8777C102.797 19.2215 102.58 19.5882 102.419 19.9778C102.282 20.3216 102.11 20.7341 101.903 21.2154C101.697 21.6967 101.502 22.1321 101.319 22.5218C101.136 22.8885 100.987 23.1176 100.872 23.2093C100.758 23.4385 100.517 23.5645 100.15 23.5875C99.8064 23.6104 99.5658 23.576 99.4283 23.4843ZM112.607 24.2063C111.828 23.8854 111.255 23.5531 110.888 23.2093C110.544 22.8426 110.407 22.5218 110.476 22.2467C110.521 22.1092 110.602 21.9832 110.716 21.8686C110.831 21.754 111.083 21.7082 111.473 21.7311C111.885 21.7311 112.515 21.8342 113.363 22.0405C113.615 22.0405 113.868 22.029 114.12 22.0061C114.372 21.9832 114.601 21.9488 114.807 21.903C115.036 21.8571 115.22 21.7998 115.357 21.7311C115.472 21.6852 115.506 21.6279 115.46 21.5592C115.415 21.4675 115.334 21.3758 115.22 21.2842C115.128 21.1696 115.025 21.1008 114.91 21.0779C114.796 21.0321 114.693 21.0091 114.601 21.0091C114.555 20.8945 114.452 20.78 114.292 20.6654C114.154 20.5508 113.982 20.4247 113.776 20.2872C113.272 19.8747 112.813 19.508 112.401 19.1871C111.988 18.8663 111.828 18.6256 111.919 18.4652C111.919 18.3735 111.919 18.3277 111.919 18.3277C111.919 18.3048 111.919 18.2933 111.919 18.2933C111.759 18.2933 111.61 18.0756 111.473 17.6401C111.335 17.1818 111.266 16.7692 111.266 16.4025C111.266 15.9442 111.358 15.4858 111.541 15.0274C111.748 14.569 112 14.1336 112.298 13.7211C112.618 13.3085 112.939 12.9418 113.26 12.621C113.696 12.2084 114.154 11.8074 114.635 11.4178C115.14 11.0052 115.678 10.6385 116.251 10.3177C116.847 9.99681 117.5 9.74471 118.211 9.56136C118.531 9.49261 118.898 9.45823 119.311 9.45823C119.723 9.45823 120.021 9.51553 120.204 9.63012C120.388 9.51553 120.617 9.5499 120.892 9.73325C121.167 9.89368 121.442 10.1229 121.717 10.4208C121.992 10.7187 122.198 11.0167 122.336 11.3146C122.336 11.5896 122.324 11.9334 122.302 12.346C122.302 12.7356 122.279 13.0793 122.233 13.3773C122.187 13.6752 122.084 13.8242 121.923 13.8242C121.923 13.8242 121.889 13.8357 121.82 13.8586C121.774 13.8586 121.751 13.9159 121.751 14.0305C121.751 14.2596 121.58 14.5232 121.236 14.8212C120.8 15.1191 120.388 15.3597 119.998 15.5431C119.609 15.7264 119.311 15.7379 119.104 15.5775C118.967 15.4858 118.841 15.3941 118.726 15.3024C118.612 15.2108 118.509 15.0962 118.417 14.9587C118.417 14.9587 118.382 14.9128 118.314 14.8212C118.268 14.7066 118.245 14.6034 118.245 14.5118C118.245 14.4201 118.279 14.3399 118.348 14.2711C118.417 14.1794 118.451 14.1336 118.451 14.1336C118.772 13.8357 119.013 13.5606 119.173 13.3085C119.357 13.0564 119.483 12.8387 119.551 12.6554C119.62 12.4491 119.654 12.2887 119.654 12.1741C119.654 12.0366 119.62 11.9563 119.551 11.9334C119.505 11.8876 119.391 11.8647 119.208 11.8647C119.093 11.8647 118.841 11.9563 118.451 12.1397C118.085 12.323 117.695 12.5522 117.282 12.8272C116.87 13.0793 116.549 13.3085 116.32 13.5148C116.228 13.6752 116.159 13.7784 116.114 13.8242C116.091 13.87 116.033 13.893 115.942 13.893C115.942 13.8013 115.884 13.8127 115.77 13.9273C115.655 14.0419 115.518 14.2024 115.357 14.4086C115.197 14.6149 115.036 14.8326 114.876 15.0618C114.716 15.291 114.589 15.4743 114.498 15.6118C114.475 15.8181 114.418 16.0129 114.326 16.1963C114.257 16.3567 114.234 16.5286 114.257 16.7119C114.28 16.9411 114.395 17.1588 114.601 17.3651C114.807 17.5714 115.105 17.8349 115.495 18.1558C116.297 18.7517 116.893 19.2215 117.282 19.5653C117.695 19.9091 117.981 20.1841 118.142 20.3903C118.302 20.5966 118.405 20.8029 118.451 21.0091C118.841 21.7196 118.887 22.3384 118.589 22.8655C118.291 23.3697 117.832 23.7594 117.214 24.0344C116.984 24.149 116.583 24.2521 116.01 24.3438C115.437 24.4584 114.83 24.5042 114.188 24.4813C113.57 24.4813 113.042 24.3896 112.607 24.2063Z" fill="#F9B401"/>
</svg>
