<svg width="96" height="31" viewBox="0 0 96 31" fill="none" xmlns="http://www.w3.org/2000/svg">
<path d="M3.62679 25.0021C2.75158 24.7832 2.04047 24.3238 1.49346 23.6236C0.968331 22.9453 0.541664 22.1248 0.213459 21.1621C0.191579 20.8776 0.180639 20.4838 0.180639 19.9805C0.202519 19.4773 0.23534 19.0068 0.2791 18.5692C0.322861 18.1316 0.366622 17.88 0.410382 17.8144C0.476023 17.7706 0.508844 17.6393 0.508844 17.4205C0.486963 17.333 0.497904 17.1908 0.541664 16.9938C0.607305 16.775 0.672946 16.5562 0.738587 16.3374C0.847989 16.0749 0.90269 15.867 0.90269 15.7138C0.90269 15.5388 0.89175 15.4075 0.869869 15.32C0.869869 15.32 0.90269 15.2544 0.968331 15.1231C1.03397 14.9699 1.11055 14.8496 1.19807 14.7621C1.32936 14.6308 1.38406 14.4995 1.36218 14.3682C1.36218 14.2369 1.36218 14.1713 1.36218 14.1713C1.3403 14.0838 1.36218 13.9634 1.42782 13.8103C1.49346 13.6571 1.5591 13.5368 1.62474 13.4492C1.6685 13.4055 1.7232 13.3179 1.78884 13.1867C1.87637 13.0335 1.92013 12.9569 1.92013 12.9569C1.92013 12.8913 1.96389 12.7162 2.05141 12.4318C2.16081 12.1474 2.28115 11.841 2.41243 11.5128C2.54372 11.1627 2.66406 10.8455 2.77346 10.561C2.90474 10.2766 3.0032 10.0906 3.06884 10.0031V9.93744C3.15637 9.71863 3.27671 9.48889 3.42987 9.2482C3.45175 9.1388 3.50645 8.96376 3.59397 8.72308C3.68149 8.46051 3.77995 8.20889 3.88936 7.9682C4.13004 7.44308 4.42543 6.85231 4.77551 6.1959C5.14748 5.51761 5.54132 4.85026 5.95705 4.19385C6.37278 3.51556 6.76662 2.91385 7.13859 2.38872C7.53243 1.84171 7.87158 1.43692 8.15602 1.17436C8.52799 0.758633 8.89995 0.463249 9.27192 0.288205C9.66577 0.0912823 10.0268 0.156923 10.355 0.485128C10.5082 0.638291 10.6394 0.868035 10.7488 1.17436C10.8582 1.4588 10.902 1.73231 10.8801 1.99487C10.8801 2.23556 10.7926 2.36684 10.6176 2.38872C10.4644 2.47624 10.2565 2.72786 9.99397 3.14359C9.73141 3.53744 9.43602 4.00786 9.10782 4.55487C8.80149 5.10188 8.49517 5.67077 8.18884 6.26154C7.88252 6.83043 7.59807 7.34462 7.33551 7.8041C7.05107 8.43863 6.7885 8.99658 6.54782 9.47795C6.30713 9.93744 6.18679 10.1672 6.18679 10.1672C6.16491 10.2328 6.14303 10.2875 6.12115 10.3313C6.09927 10.375 6.07739 10.4188 6.05551 10.4626C5.72731 11.1409 5.4538 11.7644 5.235 12.3333C5.01619 12.8803 4.79739 13.4602 4.57859 14.0728C4.44731 14.226 4.37072 14.3791 4.34884 14.5323C4.32696 14.6855 4.31602 14.7621 4.31602 14.7621C4.27226 14.7402 4.23944 14.7949 4.21756 14.9262C4.19568 15.0356 4.15192 15.1668 4.08628 15.32C3.97688 15.4075 3.91124 15.5497 3.88936 15.7467C3.86748 15.9217 3.85654 16.0968 3.85654 16.2718C3.70337 16.6656 3.56115 17.147 3.42987 17.7159C3.29859 18.2629 3.20013 18.799 3.13448 19.3241C3.09072 19.8274 3.07978 20.2212 3.10166 20.5056C3.14542 20.8776 3.24389 21.1949 3.39705 21.4574C3.57209 21.6981 3.81278 21.895 4.1191 22.0482C4.35978 22.1576 4.57859 22.2561 4.77551 22.3436C4.97243 22.4092 5.14748 22.4421 5.30064 22.4421C5.47568 22.4639 5.69448 22.4639 5.95705 22.4421C6.24149 22.3983 6.6244 22.3326 7.10577 22.2451H7.07295C7.35739 22.2014 7.65278 22.1467 7.9591 22.081C8.28731 21.9935 8.59363 21.9169 8.87807 21.8513C9.14064 21.8075 9.39226 21.7638 9.63295 21.72C9.87363 21.6544 10.0596 21.5997 10.1909 21.5559C10.6723 21.4246 11.0552 21.3152 11.3396 21.2277C11.6459 21.1402 11.8538 21.1402 11.9632 21.2277C12.0726 21.3152 12.1929 21.4793 12.3242 21.72C12.4555 21.9607 12.4883 22.1795 12.4227 22.3764C12.3789 22.4858 12.1601 22.7046 11.7663 23.0328C11.3724 23.3829 10.9239 23.7221 10.4206 24.0503C9.91739 24.4003 9.4579 24.641 9.04218 24.7723C8.60457 24.9692 8.0138 25.1005 7.26987 25.1662C6.54782 25.2537 5.84765 25.2756 5.16936 25.2318C4.49107 25.188 3.97688 25.1115 3.62679 25.0021ZM20.8504 22.3436C20.194 22.7156 19.4938 22.9344 18.7499 23C18.0278 23.0438 17.3495 22.9453 16.715 22.7046C16.0805 22.4421 15.5663 22.0591 15.1724 21.5559C14.9536 21.2715 14.7458 20.8229 14.5488 20.2103C14.3519 19.5757 14.3191 18.7224 14.4504 17.6503C14.5817 16.6438 14.888 15.6263 15.3694 14.5979C15.8726 13.5696 16.4853 12.6615 17.2073 11.8738C17.9294 11.0862 18.7171 10.5501 19.5704 10.2656C19.8767 10.1562 20.183 10.0797 20.4894 10.0359C20.8176 9.97026 21.2442 9.95932 21.7694 10.0031C22.2726 10.0687 22.7212 10.2 23.115 10.3969C23.5089 10.572 23.7933 10.7689 23.9683 10.9877C24.3184 11.3378 24.5482 11.6769 24.6576 12.0051C24.767 12.3333 24.8107 12.6506 24.7888 12.9569C24.6794 13.6571 24.3622 14.412 23.8371 15.2215C23.3338 16.0311 22.6227 16.6328 21.7037 17.0267C21.3318 17.1798 20.8941 17.2783 20.3909 17.3221C19.8877 17.3658 19.1984 17.3002 18.3232 17.1251C17.7981 17.0157 17.448 17.0704 17.273 17.2892C17.1198 17.508 17.0541 17.9347 17.076 18.5692C17.1198 18.9631 17.2073 19.3132 17.3386 19.6195C17.4918 19.9039 17.7653 20.1009 18.1591 20.2103C18.6624 20.2978 19.0234 20.3087 19.2422 20.2431C19.461 20.1556 19.7345 20.0352 20.0627 19.8821C20.2377 19.7726 20.4018 19.6523 20.555 19.521C20.73 19.3897 20.8941 19.2585 21.0473 19.1272C21.2224 18.9959 21.3646 18.8974 21.474 18.8318C21.5834 18.7443 21.6928 18.6896 21.8022 18.6677C21.9116 18.6458 22.021 18.6349 22.1304 18.6349C22.3711 18.6568 22.6008 18.788 22.8196 19.0287C23.0384 19.2694 23.1806 19.4991 23.2463 19.7179C23.2463 19.893 23.1369 20.1446 22.9181 20.4728C22.6993 20.7791 22.4039 21.1074 22.0319 21.4574C21.6818 21.7856 21.288 22.081 20.8504 22.3436ZM20.4237 15.0246C20.5769 14.959 20.7957 14.8058 21.0801 14.5651C21.3865 14.3244 21.66 14.0728 21.9006 13.8103C22.1413 13.5258 22.2617 13.307 22.2617 13.1538C22.2617 12.9132 22.0976 12.7053 21.7694 12.5303C21.463 12.3552 21.0583 12.3224 20.555 12.4318C20.38 12.4756 20.1721 12.5959 19.9314 12.7928C19.6907 12.9897 19.45 13.2195 19.2094 13.4821C18.9687 13.7227 18.7608 13.9634 18.5858 14.2041C18.4107 14.4229 18.2904 14.5979 18.2247 14.7292C18.3123 14.8386 18.4873 14.9262 18.7499 14.9918C19.0124 15.0574 19.2969 15.0903 19.6032 15.0903C19.9314 15.0903 20.2049 15.0684 20.4237 15.0246ZM27.8078 23.0328C27.5671 22.9891 27.3046 22.8468 27.0201 22.6062C26.7357 22.3436 26.4731 22.0591 26.2324 21.7528C26.0136 21.4246 25.8714 21.1511 25.8058 20.9323C25.8058 20.8885 25.7729 20.8338 25.7073 20.7682C25.6635 20.7026 25.6417 20.6697 25.6417 20.6697C25.5541 20.6041 25.4994 20.3197 25.4776 19.8164C25.4776 19.2913 25.5104 18.7115 25.576 18.0769C25.6417 17.4424 25.7182 16.9391 25.8058 16.5672C25.9152 16.2171 26.0793 15.7467 26.2981 15.1559C26.5169 14.5432 26.7029 13.9962 26.856 13.5149L27.7422 11.6113L26.4294 11.2503C26.2762 11.2065 26.1449 11.119 26.0355 10.9877C25.948 10.8564 25.9042 10.747 25.9042 10.6595C25.9042 10.4844 26.0027 10.2328 26.1996 9.90462C26.3965 9.57641 26.5388 9.41231 26.6263 9.41231C26.7357 9.43419 26.9326 9.44513 27.217 9.44513C27.5234 9.44513 27.8188 9.43419 28.1032 9.41231C28.3876 9.39043 28.5627 9.36855 28.6283 9.34667C28.7159 9.30291 28.8034 9.24821 28.8909 9.18256C28.9784 9.09504 29.0441 8.9747 29.0878 8.82154C29.1972 8.58086 29.2957 8.39487 29.3832 8.26359C29.4707 8.13231 29.5911 7.93539 29.7442 7.67282C29.8974 7.38838 30.0177 7.14769 30.1053 6.95077C30.2147 6.75385 30.3788 6.48034 30.5976 6.13026C30.707 5.97709 30.8273 5.79111 30.9586 5.57231C31.0899 5.3535 31.254 5.16752 31.4509 5.01436C31.6478 4.83932 31.9651 4.71897 32.4027 4.65333C32.8622 4.56581 33.256 4.66427 33.5842 4.94872C33.7593 5.16752 33.8577 5.37538 33.8796 5.57231C33.9015 5.76923 33.814 6.02086 33.617 6.32718C33.442 6.69915 33.2341 7.03829 32.9935 7.34462C32.7747 7.62906 32.5668 7.95727 32.3699 8.32923C32.0198 8.8106 31.9541 9.0841 32.1729 9.14974C32.3918 9.21538 33.0044 9.17162 34.0109 9.01846C34.6454 8.90906 35.1049 8.9747 35.3894 9.21538C35.6738 9.45607 35.8379 9.76239 35.8817 10.1344C35.9473 10.6595 35.8926 10.9768 35.7176 11.0862C35.5425 11.1956 35.0393 11.2503 34.2078 11.2503C33.6827 11.3378 33.2341 11.3925 32.8622 11.4144C32.4902 11.4144 32.2167 11.4144 32.0417 11.4144C31.7572 11.4362 31.5712 11.4472 31.4837 11.4472C31.3962 11.4472 31.2649 11.4691 31.0899 11.5128C30.9148 11.5566 30.7835 11.6332 30.696 11.7426C30.6304 11.8301 30.5538 11.9614 30.4663 12.1364C30.3788 12.2239 30.2475 12.4537 30.0724 12.8256C29.8974 13.1976 29.6786 13.6024 29.416 14.04C29.1097 14.959 28.8471 15.8451 28.6283 16.6985C28.4314 17.5299 28.2564 18.3614 28.1032 19.1928C28.0376 19.6085 28.0485 19.9149 28.136 20.1118C28.2454 20.2868 28.5299 20.3962 28.9894 20.44C29.23 20.4619 29.5801 20.4619 30.0396 20.44C30.4991 20.3962 30.882 20.3306 31.1883 20.2431C31.429 20.1337 31.6806 20.0243 31.9432 19.9149C32.2058 19.7836 32.4465 19.6523 32.6653 19.521C32.8622 19.4116 33.0591 19.3022 33.256 19.1928C33.4529 19.0615 33.5514 18.9959 33.5514 18.9959C33.6608 18.8209 33.814 18.8537 34.0109 19.0944C34.2297 19.3132 34.3829 19.5538 34.4704 19.8164C34.4704 20.079 34.4157 20.3962 34.3063 20.7682C34.1969 21.1183 33.7921 21.4903 33.0919 21.8841C32.1073 22.4968 31.1227 22.8687 30.1381 23C29.1535 23.1313 28.3767 23.1422 27.8078 23.0328ZM40.2158 8.7559C39.997 8.77778 39.7235 8.77778 39.3953 8.7559C39.0889 8.73402 38.9029 8.52615 38.8373 8.13231C38.8154 7.97915 38.8373 7.83692 38.9029 7.70564C38.9686 7.57436 39.0561 7.43214 39.1655 7.27897C39.4281 6.84137 39.7235 6.36 40.0517 5.83487C40.4018 5.30974 40.6315 4.88308 40.7409 4.55487C40.7409 4.46735 40.7518 4.39077 40.7737 4.32513C40.4018 4.39077 40.0188 4.25949 39.625 3.93128C39.2093 3.53744 39.0889 3.02325 39.264 2.38872C39.4609 1.73231 39.8438 1.20718 40.4127 0.813333C40.8065 0.572649 41.1785 0.441368 41.5286 0.419488C41.8787 0.397608 42.2506 0.474189 42.6445 0.64923C43.0165 0.868035 43.3228 1.20718 43.5635 1.66667C43.8041 2.10427 43.8698 2.4653 43.7604 2.74974C43.6947 3.25299 43.5744 3.72342 43.3994 4.16103C43.2462 4.59863 43.104 5.0253 42.9727 5.44103C42.8414 5.92239 42.5679 6.43658 42.1522 6.98359C41.7583 7.50872 41.3754 7.99009 41.0035 8.42769C41.0253 8.51521 40.9597 8.56991 40.8065 8.5918C40.6534 8.61368 40.4565 8.66838 40.2158 8.7559ZM41.9286 23.1969C41.1847 22.8906 40.6376 22.5733 40.2876 22.2451C39.9594 21.895 39.8281 21.5887 39.8937 21.3262C39.9375 21.1949 40.0141 21.0745 40.1235 20.9651C40.2329 20.8557 40.4735 20.812 40.8455 20.8338C41.2394 20.8338 41.8411 20.9323 42.6506 21.1292C42.8913 21.1292 43.132 21.1183 43.3727 21.0964C43.6134 21.0745 43.8322 21.0417 44.0291 20.9979C44.2479 20.9542 44.4229 20.8995 44.5542 20.8338C44.6636 20.7901 44.6964 20.7354 44.6527 20.6697C44.6089 20.5822 44.5323 20.4947 44.4229 20.4072C44.3354 20.2978 44.237 20.2321 44.1276 20.2103C44.0182 20.1665 43.9197 20.1446 43.8322 20.1446C43.7884 20.0352 43.6899 19.9258 43.5368 19.8164C43.4055 19.707 43.2414 19.5867 43.0445 19.4554C42.5631 19.0615 42.1255 18.7115 41.7317 18.4051C41.3378 18.0988 41.1847 17.8691 41.2722 17.7159C41.2722 17.6284 41.2722 17.5846 41.2722 17.5846C41.2722 17.5627 41.2722 17.5518 41.2722 17.5518C41.119 17.5518 40.9768 17.3439 40.8455 16.9282C40.7142 16.4906 40.6486 16.0968 40.6486 15.7467C40.6486 15.3091 40.7361 14.8715 40.9111 14.4338C41.1081 13.9962 41.3488 13.5805 41.6332 13.1867C41.9395 12.7928 42.2458 12.4427 42.5522 12.1364C42.9679 11.7426 43.4055 11.3597 43.865 10.9877C44.3464 10.5938 44.8605 10.2438 45.4076 9.93744C45.9764 9.63111 46.6 9.39043 47.2783 9.21538C47.5847 9.14974 47.9347 9.11692 48.3286 9.11692C48.7224 9.11692 49.0069 9.17162 49.1819 9.28103C49.357 9.17162 49.5758 9.20444 49.8383 9.37949C50.1009 9.53265 50.3635 9.75145 50.626 10.0359C50.8886 10.3203 51.0855 10.6048 51.2168 10.8892C51.2168 11.1518 51.2058 11.48 51.184 11.8738C51.184 12.2458 51.1621 12.574 51.1183 12.8585C51.0746 13.1429 50.9761 13.2851 50.8229 13.2851C50.8229 13.2851 50.7901 13.2961 50.7245 13.3179C50.6807 13.3179 50.6588 13.3726 50.6588 13.4821C50.6588 13.7009 50.4947 13.9525 50.1665 14.2369C49.7508 14.5214 49.357 14.7511 48.985 14.9262C48.613 15.1012 48.3286 15.1121 48.1317 14.959C48.0004 14.8715 47.88 14.7839 47.7706 14.6964C47.6612 14.6089 47.5628 14.4995 47.4752 14.3682C47.4752 14.3682 47.4424 14.3244 47.3768 14.2369C47.333 14.1275 47.3111 14.0291 47.3111 13.9415C47.3111 13.854 47.344 13.7774 47.4096 13.7118C47.4752 13.6243 47.5081 13.5805 47.5081 13.5805C47.8144 13.2961 48.0441 13.0335 48.1973 12.7928C48.3723 12.5521 48.4927 12.3443 48.5583 12.1692C48.624 11.9723 48.6568 11.8191 48.6568 11.7097C48.6568 11.5785 48.624 11.5019 48.5583 11.48C48.5146 11.4362 48.4052 11.4144 48.2301 11.4144C48.1207 11.4144 47.88 11.5019 47.5081 11.6769C47.158 11.852 46.786 12.0708 46.3922 12.3333C45.9983 12.574 45.692 12.7928 45.4732 12.9897C45.3857 13.1429 45.32 13.2414 45.2763 13.2851C45.2544 13.3289 45.1997 13.3508 45.1122 13.3508C45.1122 13.2632 45.0575 13.2742 44.9481 13.3836C44.8387 13.493 44.7074 13.6462 44.5542 13.8431C44.4011 14.04 44.2479 14.2479 44.0947 14.4667C43.9416 14.6855 43.8212 14.8605 43.7337 14.9918C43.7118 15.1887 43.6571 15.3747 43.5696 15.5497C43.504 15.7029 43.4821 15.867 43.504 16.0421C43.5258 16.2609 43.6352 16.4687 43.8322 16.6656C44.0291 16.8626 44.3135 17.1142 44.6855 17.4205C45.4513 17.9894 46.0202 18.4379 46.3922 18.7662C46.786 19.0944 47.0595 19.3569 47.2127 19.5538C47.3658 19.7508 47.4643 19.9477 47.5081 20.1446C47.88 20.8229 47.9238 21.4137 47.6394 21.9169C47.3549 22.3983 46.9173 22.7703 46.3265 23.0328C46.1077 23.1422 45.7248 23.2407 45.1778 23.3282C44.6308 23.4376 44.051 23.4814 43.4383 23.4595C42.8476 23.4595 42.3443 23.372 41.9286 23.1969ZM63.6819 24.7395C63.2881 24.7614 62.9599 24.5754 62.6973 24.1815C62.4347 23.7877 62.3144 23.4595 62.3363 23.1969C62.3582 22.8468 62.4566 22.3436 62.6317 21.6872C62.8067 21.0308 63.0036 20.3634 63.2224 19.6851C63.4412 19.0068 63.6382 18.4708 63.8132 18.0769C63.9007 17.7268 63.9773 17.4205 64.0429 17.1579C64.1305 16.8735 64.1852 16.6875 64.207 16.6C64.2727 16.5125 64.3711 16.2827 64.5024 15.9108C64.6556 15.5388 64.7759 15.1778 64.8635 14.8277C64.9072 14.6526 64.9947 14.3244 65.126 13.8431C65.2792 13.3398 65.4542 12.76 65.6511 12.1036C65.87 11.4472 66.0778 10.8017 66.2747 10.1672C66.4935 9.53265 66.6795 8.9747 66.8327 8.49333C66.9859 8.01197 67.0843 7.6947 67.1281 7.54154C67.3031 7.27897 67.4344 7.02735 67.5219 6.78667C67.6094 6.54598 67.6641 6.38188 67.686 6.29436C67.8173 6.20684 67.8939 6.09744 67.9158 5.96615C67.9376 5.81299 67.9486 5.69265 67.9486 5.60513C67.9486 5.49573 67.9814 5.40821 68.047 5.34256C68.1346 5.27692 68.1783 5.20034 68.1783 5.11282C68.2659 5.04718 68.3206 5.03624 68.3424 5.08C68.3643 5.12376 68.43 5.09094 68.5394 4.98154L68.7035 3.86564L71.6245 3.83282C71.5807 4.09538 71.5151 4.42359 71.4276 4.81744C71.34 5.1894 71.1322 5.69265 70.804 6.32718C70.6946 6.76479 70.5633 7.15863 70.4101 7.50872C70.2788 7.8588 70.2241 8.08855 70.246 8.19795C70.2023 8.24171 70.1038 8.46051 69.9506 8.85436C69.8194 9.24821 69.6553 9.72957 69.4583 10.2985C69.2833 10.8674 69.0973 11.4362 68.9004 12.0051C68.7253 12.574 68.5612 13.0773 68.4081 13.5149C68.2768 13.9306 68.1893 14.1932 68.1455 14.3026C67.9705 14.6526 67.7735 15.1668 67.5547 15.8451C67.3359 16.5234 67.0077 17.4424 66.5701 18.6021C66.3951 18.9521 66.1763 19.4773 65.9137 20.1774C65.673 20.8776 65.4761 21.5121 65.3229 22.081C65.0823 22.9344 64.8635 23.547 64.6665 23.919C64.4915 24.2909 64.3274 24.5097 64.1742 24.5754C64.0211 24.6629 63.857 24.7176 63.6819 24.7395ZM63.9773 5.44103C63.0802 5.52855 62.4676 5.41915 62.1394 5.11282C61.833 4.8065 61.7236 4.47829 61.8111 4.1282C61.8768 3.86564 62.03 3.64684 62.2706 3.4718C62.5332 3.27487 63.0036 3.11077 63.6819 2.97949C63.9226 2.93573 64.2289 2.88103 64.6009 2.81539C64.9947 2.74974 65.3667 2.6841 65.7168 2.61846C66.4388 2.53094 67.0296 2.45436 67.4891 2.38872C67.9705 2.32308 68.4628 2.26838 68.966 2.22462C69.4693 2.18085 70.1038 2.13709 70.8696 2.09333C71.5041 2.04957 72.0402 2.01675 72.4778 1.99487C72.9373 1.95111 73.167 1.92923 73.167 1.92923C73.2327 1.92923 73.4624 1.95111 73.8563 1.99487C74.2501 2.03863 74.6768 2.09333 75.1363 2.15897C75.5958 2.22462 75.9349 2.3012 76.1537 2.38872C76.657 2.49812 77.0617 2.69504 77.3681 2.97949C77.6744 3.26393 77.8713 3.59214 77.9588 3.9641C78.0245 4.22667 78.0245 4.43453 77.9588 4.58769C77.8932 4.71897 77.7729 4.82838 77.5978 4.9159C77.0946 5.06906 76.6788 5.20034 76.3506 5.30974C76.0443 5.39727 75.738 5.38633 75.4317 5.27692C75.3223 5.16752 75.191 5.06906 75.0378 4.98154C74.9065 4.89402 74.6658 4.82838 74.3158 4.78462C73.9876 4.71897 73.4624 4.66427 72.7404 4.62051C72.1277 4.68615 71.5917 4.71897 71.1322 4.71897C70.6727 4.71897 70.4429 4.77367 70.4429 4.88308L68.5065 4.98154L66.8983 5.14564C66.6795 5.16752 66.3732 5.20034 65.9794 5.2441C65.5855 5.26598 65.2026 5.2988 64.8306 5.34256C64.4587 5.36444 64.1742 5.39727 63.9773 5.44103ZM75.6352 22.3108C75.5696 22.3326 75.4274 22.3217 75.2086 22.2779C75.0117 22.2342 74.8038 22.1795 74.585 22.1138C74.3881 22.0482 74.2677 21.9935 74.224 21.9497C74.1364 21.8622 74.0161 21.7091 73.8629 21.4903C73.7098 21.2496 73.6223 20.9323 73.6004 20.5385C73.6004 20.1446 73.7864 19.6742 74.1583 19.1272C74.2677 18.9084 74.399 18.5802 74.5522 18.1426C74.7053 17.705 74.8585 17.2455 75.0117 16.7641C75.1867 16.2609 75.3399 15.8123 75.4711 15.4185C75.6243 15.0246 75.7337 14.7511 75.7993 14.5979C75.8431 14.226 75.8212 13.9634 75.7337 13.8103C75.6681 13.6352 75.4821 13.5368 75.1758 13.5149C74.957 13.5149 74.7819 13.4383 74.6506 13.2851C74.5412 13.132 74.4865 12.8585 74.4865 12.4646C74.5303 12.1583 74.6069 11.8957 74.7163 11.6769C74.8476 11.4362 75.0226 11.2393 75.2414 11.0862C75.4602 10.9768 75.7337 10.9002 76.0619 10.8564C76.412 10.8127 76.7511 10.8017 77.0793 10.8236C77.4076 10.8455 77.6373 10.9221 77.7686 11.0533C77.9217 11.1409 78.0421 11.3378 78.1296 11.6441C78.239 11.9285 78.3265 12.2239 78.3922 12.5303C78.4578 12.8366 78.5016 13.0663 78.5235 13.2195C78.7423 13.0444 78.9829 12.8038 79.2455 12.4974C79.5299 12.1692 79.8144 11.8629 80.0988 11.5785C80.4489 11.3378 80.8646 11.0971 81.346 10.8564C81.8274 10.5938 82.1775 10.4626 82.3963 10.4626C82.637 10.4626 82.9323 10.5829 83.2824 10.8236C83.6325 11.0424 83.8513 11.2393 83.9388 11.4144C84.1576 11.7863 84.3108 12.1802 84.3983 12.5959C84.5077 12.9897 84.4421 13.3398 84.2014 13.6462C83.9826 13.9306 83.6763 14.215 83.2824 14.4995C82.8886 14.7621 82.3963 14.8386 81.8055 14.7292C81.6742 14.6855 81.532 14.5214 81.3788 14.2369C81.2476 13.9525 81.171 13.7446 81.1491 13.6133C81.1491 13.5477 81.0506 13.6133 80.8537 13.8103C80.6787 13.9853 80.4599 14.2041 80.1973 14.4667C79.9566 14.7292 79.7269 14.9699 79.5081 15.1887C79.1361 15.6482 78.7423 16.2718 78.3265 17.0595C77.9108 17.8472 77.4185 18.799 76.8496 19.9149C76.587 20.4619 76.3682 20.987 76.1932 21.4903C76.0182 21.9716 75.8322 22.2451 75.6352 22.3108ZM86.6745 30.8113C86.587 30.8332 86.4557 30.8003 86.2806 30.7128C86.1275 30.6253 85.9962 30.4721 85.8868 30.2533C85.7774 30.0345 85.7446 29.7501 85.7883 29.4C85.7008 29.0937 85.7117 28.7108 85.8211 28.2513C85.9524 27.8137 86.2259 27.1573 86.6417 26.2821C86.8605 25.932 87.0574 25.5162 87.2324 25.0349C87.4293 24.5535 87.6481 24.0721 87.8888 23.5908C87.9982 23.3938 88.1842 23.0547 88.4468 22.5733C88.7312 22.092 89.0376 21.5231 89.3658 20.8667C89.7158 20.1884 90.0331 19.4882 90.3176 18.7662C89.7487 19.3569 89.2564 19.9149 88.8406 20.44C88.4468 20.9432 88.0858 21.348 87.7576 21.6544C87.4512 21.9388 87.123 22.0701 86.7729 22.0482C86.4885 21.9826 86.1493 21.7966 85.7555 21.4903C85.3617 21.1839 85.11 20.8448 85.0006 20.4728C84.9131 19.9915 84.8803 19.3788 84.9022 18.6349C84.9459 17.8909 85.0881 16.7641 85.3288 15.2544C85.5039 14.5104 85.5805 13.9415 85.5586 13.5477C85.5586 13.132 85.5039 12.8256 85.3945 12.6287C85.2851 12.4318 85.1428 12.2568 84.9678 12.1036C84.6834 11.841 84.6615 11.5566 84.9022 11.2503C85.1428 10.9439 85.4164 10.7142 85.7227 10.561C86.1822 10.4516 86.5432 10.4297 86.8058 10.4954C87.0902 10.5391 87.3746 10.7251 87.6591 11.0533C87.8341 11.3378 88.0092 11.6441 88.1842 11.9723C88.3593 12.3005 88.4468 12.7709 88.4468 13.3836C88.4468 13.6462 88.4358 13.9415 88.414 14.2697C88.3921 14.5761 88.3702 14.8605 88.3483 15.1231C88.3264 15.3856 88.3046 15.5935 88.2827 15.7467C88.0639 16.5562 87.867 17.2564 87.6919 17.8472C87.5169 18.4379 87.484 18.7333 87.5934 18.7333C88.0311 18.3832 88.403 18.0441 88.7093 17.7159C89.0376 17.3877 89.3876 16.9938 89.7596 16.5344C90.1316 16.0749 90.5911 15.4732 91.1381 14.7292C91.335 14.3573 91.5319 13.9962 91.7288 13.6462C91.9258 13.2961 92.0899 12.935 92.2211 12.5631C92.3524 12.2786 92.5275 11.9832 92.7463 11.6769C92.9651 11.3487 93.1182 11.1737 93.2058 11.1518C93.3152 11.108 93.4683 11.119 93.6652 11.1846C93.8622 11.2503 94.0481 11.3268 94.2232 11.4144C94.4201 11.48 94.5186 11.5347 94.5186 11.5785C94.5405 11.6003 94.6499 11.6222 94.8468 11.6441C95.0437 11.666 95.2406 11.6879 95.4376 11.7097C95.6345 11.7097 95.7329 11.7426 95.7329 11.8082C95.7329 11.852 95.6673 12.0161 95.536 12.3005C95.4266 12.585 95.2953 12.9022 95.1422 13.2523C94.989 13.6024 94.8468 13.9197 94.7155 14.2041C94.6061 14.4667 94.5623 14.6198 94.5842 14.6636C94.628 14.7074 94.5952 14.8715 94.4858 15.1559C94.3764 15.4185 94.2451 15.7138 94.0919 16.0421C93.9606 16.3703 93.8403 16.6656 93.7309 16.9282C93.5121 17.6503 93.2605 18.3723 92.976 19.0944C92.6916 19.7945 92.3524 20.4947 91.9586 21.1949C91.8273 21.4574 91.6304 21.8622 91.3678 22.4092C91.1271 22.9562 90.8864 23.4923 90.6458 24.0174C90.427 24.5644 90.2519 24.9802 90.1206 25.2646C90.0331 25.4397 89.9018 25.7132 89.7268 26.0851C89.5736 26.479 89.3986 26.9056 89.2017 27.3651C89.0266 27.8246 88.8516 28.2513 88.6765 28.6451C88.5015 29.0609 88.3702 29.3781 88.2827 29.5969C88.2389 30.0126 88.1405 30.319 87.9873 30.5159C87.7904 30.7128 87.5169 30.8113 87.1668 30.8113C86.8386 30.8113 86.6745 30.8113 86.6745 30.8113Z" fill="#F9B401"/>
</svg>
