<svg width="452" height="162" viewBox="0 0 452 162" fill="none" xmlns="http://www.w3.org/2000/svg">
<path d="M0.333333 13V4H35.1111V13H22.8889V54H12.5556V13H0.333333ZM34.4792 54V20.6667H43.1458V26.3889C44.294 24.463 45.7384 22.9815 47.4792 21.9444C49.2569 20.8704 51.331 20.3333 53.7014 20.3333L55.8125 28.8889C55.1088 28.6667 54.3125 28.5556 53.4236 28.5556C50.6458 28.5556 48.4051 29.463 46.7014 31.2778C44.9977 33.0556 44.1458 35.6111 44.1458 38.9444V54H34.4792ZM75.2656 55.1111C71.9693 55.1111 68.9508 54.3148 66.2101 52.7222C63.4693 51.1296 61.2841 48.9815 59.6545 46.2778C58.0619 43.5741 57.2656 40.5926 57.2656 37.3333C57.2656 34.037 58.0619 31.0556 59.6545 28.3889C61.2841 25.6852 63.4693 23.537 66.2101 21.9444C68.9508 20.3519 71.9693 19.5556 75.2656 19.5556C78.599 19.5556 81.6175 20.3519 84.3212 21.9444C87.0619 23.537 89.2286 25.6852 90.8212 28.3889C92.4508 31.0556 93.2656 34.037 93.2656 37.3333C93.2656 40.5926 92.4508 43.5741 90.8212 46.2778C89.2286 48.9815 87.0619 51.1296 84.3212 52.7222C81.6175 54.3148 78.599 55.1111 75.2656 55.1111ZM75.2656 46.4444C76.9323 46.4444 78.4323 46.037 79.7656 45.2222C81.136 44.4074 82.2101 43.3148 82.9878 41.9444C83.8027 40.537 84.2101 39 84.2101 37.3333C84.2101 35.6296 83.8027 34.0926 82.9878 32.7222C82.2101 31.3519 81.136 30.2593 79.7656 29.4444C78.4323 28.6296 76.9323 28.2222 75.2656 28.2222C73.599 28.2222 72.0804 28.6296 70.7101 29.4444C69.3767 30.2593 68.3027 31.3519 67.4878 32.7222C66.7101 34.0926 66.3212 35.6296 66.3212 37.3333C66.3212 39 66.7101 40.537 67.4878 41.9444C68.3027 43.3148 69.3767 44.4074 70.7101 45.2222C72.0804 46.037 73.599 46.4444 75.2656 46.4444ZM98.9323 70.6667V20.6667H107.266V23.9444C108.562 22.6481 110.08 21.6296 111.821 20.8889C113.599 20.1481 115.543 19.7778 117.655 19.7778C120.766 19.7778 123.58 20.5741 126.099 22.1667C128.617 23.7222 130.617 25.8333 132.099 28.5C133.617 31.1667 134.377 34.1111 134.377 37.3333C134.377 40.5556 133.617 43.5 132.099 46.1667C130.617 48.7963 128.617 50.9074 126.099 52.5C123.58 54.0926 120.766 54.8889 117.655 54.8889C115.877 54.8889 114.229 54.6111 112.71 54.0556C111.192 53.537 109.821 52.8148 108.599 51.8889V70.6667H98.9323ZM116.543 46.3889C118.173 46.3889 119.655 45.9815 120.988 45.1667C122.321 44.3519 123.377 43.2593 124.155 41.8889C124.969 40.5185 125.377 39 125.377 37.3333C125.377 35.6667 124.969 34.1481 124.155 32.7778C123.377 31.4074 122.321 30.3148 120.988 29.5C119.655 28.6852 118.173 28.2778 116.543 28.2778C114.914 28.2778 113.432 28.6852 112.099 29.5C110.766 30.3148 109.692 31.4074 108.877 32.7778C108.099 34.1481 107.71 35.6667 107.71 37.3333C107.71 39 108.099 40.5185 108.877 41.8889C109.692 43.2593 110.766 44.3519 112.099 45.1667C113.432 45.9815 114.914 46.3889 116.543 46.3889ZM140.137 54V20.6667H149.804V54H140.137ZM144.97 15.8333C143.526 15.8333 142.304 15.3333 141.304 14.3333C140.304 13.3333 139.804 12.1111 139.804 10.6667C139.804 9.18518 140.304 7.96296 141.304 7C142.304 6 143.526 5.5 144.97 5.5C146.452 5.5 147.674 6 148.637 7C149.637 7.96296 150.137 9.18518 150.137 10.6667C150.137 12.1111 149.637 13.3333 148.637 14.3333C147.674 15.3333 146.452 15.8333 144.97 15.8333ZM173.547 55.1111C170.251 55.1111 167.232 54.3148 164.491 52.7222C161.751 51.1296 159.565 48.9815 157.936 46.2778C156.343 43.5741 155.547 40.5926 155.547 37.3333C155.547 34.037 156.343 31.0556 157.936 28.3889C159.565 25.6852 161.751 23.537 164.491 21.9444C167.232 20.3519 170.251 19.5556 173.547 19.5556C175.843 19.5556 178.01 19.9444 180.047 20.7222C182.121 21.463 183.954 22.5741 185.547 24.0556L183.047 33.8889C182.121 32.3704 180.88 31.0556 179.325 29.9444C177.806 28.7963 176.01 28.2222 173.936 28.2222C172.195 28.2222 170.639 28.6296 169.269 29.4444C167.899 30.2593 166.825 31.3519 166.047 32.7222C165.269 34.0926 164.88 35.6296 164.88 37.3333C164.88 39 165.269 40.537 166.047 41.9444C166.825 43.3148 167.899 44.4074 169.269 45.2222C170.639 46.037 172.195 46.4444 173.936 46.4444C176.01 46.4444 177.806 45.8889 179.325 44.7778C180.88 43.6296 182.121 42.2963 183.047 40.7778L185.547 50.6111C183.954 52.0926 182.121 53.2222 180.047 54C178.01 54.7407 175.843 55.1111 173.547 55.1111ZM205.573 54.8889C202.499 54.8889 199.703 54.0926 197.184 52.5C194.666 50.9074 192.647 48.7963 191.128 46.1667C189.647 43.5 188.906 40.5556 188.906 37.3333C188.906 34.1111 189.647 31.1667 191.128 28.5C192.647 25.8333 194.666 23.7222 197.184 22.1667C199.703 20.5741 202.499 19.7778 205.573 19.7778C207.721 19.7778 209.684 20.1667 211.462 20.9444C213.24 21.6852 214.758 22.7222 216.017 24.0556V20.6667H224.351V54H216.017V50.6111C214.758 51.9444 213.24 53 211.462 53.7778C209.684 54.5185 207.721 54.8889 205.573 54.8889ZM206.74 46.3889C208.369 46.3889 209.851 45.9815 211.184 45.1667C212.517 44.3519 213.573 43.2593 214.351 41.8889C215.166 40.5185 215.573 39 215.573 37.3333C215.573 35.6667 215.166 34.1481 214.351 32.7778C213.573 31.4074 212.517 30.3148 211.184 29.5C209.851 28.6852 208.369 28.2778 206.74 28.2778C205.11 28.2778 203.628 28.6852 202.295 29.5C200.962 30.3148 199.888 31.4074 199.073 32.7778C198.295 34.1481 197.906 35.6667 197.906 37.3333C197.906 39 198.295 40.5185 199.073 41.8889C199.888 43.2593 200.962 44.3519 202.295 45.1667C203.628 45.9815 205.11 46.3889 206.74 46.3889ZM231.778 54V0.666665H241.444V54H231.778ZM279.995 55.1111C276.958 55.1111 274.069 54.5556 271.328 53.4444C268.624 52.2963 266.458 50.9259 264.828 49.3333L267.55 38.2222C268.847 40.4815 270.68 42.3704 273.05 43.8889C275.421 45.3704 277.847 46.1111 280.328 46.1111C282.365 46.1111 283.958 45.5556 285.106 44.4444C286.291 43.3333 286.884 41.9815 286.884 40.3889C286.884 39.0926 286.569 38.0185 285.939 37.1667C285.347 36.3148 284.624 35.6111 283.773 35.0556C282.958 34.5 282.236 34.0741 281.606 33.7778L275.717 30.8333C274.013 29.9815 272.384 28.9815 270.828 27.8333C269.273 26.6481 267.995 25.1852 266.995 23.4444C266.032 21.7037 265.55 19.5556 265.55 17C265.55 14.1852 266.18 11.7222 267.439 9.61111C268.736 7.5 270.55 5.85185 272.884 4.66667C275.217 3.48148 277.958 2.88889 281.106 2.88889C284.069 2.88889 286.698 3.37037 288.995 4.33333C291.328 5.25926 293.217 6.25926 294.661 7.33333L292.106 18.1667C290.624 16.2407 288.847 14.7037 286.773 13.5556C284.736 12.3704 282.698 11.7778 280.661 11.7778C278.847 11.7778 277.439 12.2407 276.439 13.1667C275.476 14.0926 274.995 15.2407 274.995 16.6111C274.995 17.463 275.18 18.2222 275.55 18.8889C275.958 19.5556 276.532 20.1481 277.273 20.6667C278.013 21.1852 278.884 21.7037 279.884 22.2222L285.828 25.1667C286.828 25.6481 287.921 26.2778 289.106 27.0556C290.291 27.7963 291.439 28.7407 292.55 29.8889C293.661 31.037 294.569 32.4259 295.273 34.0556C295.976 35.6481 296.328 37.5556 296.328 39.7778C296.328 42.6667 295.661 45.2778 294.328 47.6111C292.995 49.9074 291.106 51.7407 288.661 53.1111C286.254 54.4444 283.365 55.1111 279.995 55.1111ZM315.024 55.1111C312.691 55.1111 310.487 54.5556 308.413 53.4444C306.339 52.2963 304.654 50.6481 303.358 48.5C302.098 46.3148 301.469 43.6852 301.469 40.6111V20.6667H311.135V39.3333C311.135 41.1852 311.691 42.8333 312.802 44.2778C313.95 45.7222 315.543 46.4444 317.58 46.4444C319.247 46.4444 320.728 45.8519 322.024 44.6667C323.358 43.4444 324.024 41.7037 324.024 39.4444V20.6667H333.691V54H324.913V50.5C323.728 51.9815 322.265 53.1296 320.524 53.9444C318.821 54.7222 316.987 55.1111 315.024 55.1111ZM341.042 54V20.6667H349.708V24.3333C350.894 22.7778 352.356 21.5926 354.097 20.7778C355.838 19.963 357.708 19.5556 359.708 19.5556C362.079 19.5556 364.282 20.1296 366.319 21.2778C368.394 22.3889 370.06 24.037 371.319 26.2222C372.616 28.3704 373.264 30.9815 373.264 34.0556V54H363.597V35.3333C363.597 33.4815 363.042 31.8333 361.931 30.3889C360.819 28.9444 359.227 28.2222 357.153 28.2222C355.486 28.2222 353.986 28.7963 352.653 29.9444C351.356 31.0556 350.708 32.8148 350.708 35.2222V54H341.042ZM379.948 54V20.6667H388.615V24.3333C389.8 22.7778 391.263 21.5926 393.003 20.7778C394.744 19.963 396.615 19.5556 398.615 19.5556C400.985 19.5556 403.189 20.1296 405.226 21.2778C407.3 22.3889 408.966 24.037 410.226 26.2222C411.522 28.3704 412.17 30.9815 412.17 34.0556V54H402.503V35.3333C402.503 33.4815 401.948 31.8333 400.837 30.3889C399.726 28.9444 398.133 28.2222 396.059 28.2222C394.392 28.2222 392.892 28.7963 391.559 29.9444C390.263 31.0556 389.615 32.8148 389.615 35.2222V54H379.948ZM416.38 70.6667L427.491 48.3333L413.88 20.6667H424.547L430.436 32.8889C430.954 34 431.399 35.0185 431.769 35.9444C432.177 36.8333 432.51 37.7037 432.769 38.5556C433.065 37.7037 433.417 36.8333 433.825 35.9444C434.232 35.0185 434.714 34 435.269 32.8889L441.269 20.6667H451.547L426.769 70.6667H416.38ZM16.1667 146.111C13.1296 146.111 10.2407 145.556 7.5 144.444C4.7963 143.296 2.62963 141.926 1 140.333L3.72222 129.222C5.01852 131.481 6.85185 133.37 9.22222 134.889C11.5926 136.37 14.0185 137.111 16.5 137.111C18.537 137.111 20.1296 136.556 21.2778 135.444C22.463 134.333 23.0556 132.981 23.0556 131.389C23.0556 130.093 22.7407 129.019 22.1111 128.167C21.5185 127.315 20.7963 126.611 19.9444 126.056C19.1296 125.5 18.4074 125.074 17.7778 124.778L11.8889 121.833C10.1852 120.981 8.55556 119.981 7 118.833C5.44444 117.648 4.16667 116.185 3.16667 114.444C2.2037 112.704 1.72222 110.556 1.72222 108C1.72222 105.185 2.35185 102.722 3.61111 100.611C4.90741 98.5 6.72222 96.8519 9.05556 95.6667C11.3889 94.4815 14.1296 93.8889 17.2778 93.8889C20.2407 93.8889 22.8704 94.3704 25.1667 95.3333C27.5 96.2593 29.3889 97.2593 30.8333 98.3333L28.2778 109.167C26.7963 107.241 25.0185 105.704 22.9444 104.556C20.9074 103.37 18.8704 102.778 16.8333 102.778C15.0185 102.778 13.6111 103.241 12.6111 104.167C11.6481 105.093 11.1667 106.241 11.1667 107.611C11.1667 108.463 11.3519 109.222 11.7222 109.889C12.1296 110.556 12.7037 111.148 13.4444 111.667C14.1852 112.185 15.0556 112.704 16.0556 113.222L22 116.167C23 116.648 24.0926 117.278 25.2778 118.056C26.463 118.796 27.6111 119.741 28.7222 120.889C29.8333 122.037 30.7407 123.426 31.4444 125.056C32.1481 126.648 32.5 128.556 32.5 130.778C32.5 133.667 31.8333 136.278 30.5 138.611C29.1667 140.907 27.2778 142.741 24.8333 144.111C22.4259 145.444 19.537 146.111 16.1667 146.111ZM38.3073 161.667V111.667H46.6406V114.944C47.9369 113.648 49.4554 112.63 51.1962 111.889C52.974 111.148 54.9184 110.778 57.0295 110.778C60.1406 110.778 62.9554 111.574 65.474 113.167C67.9925 114.722 69.9925 116.833 71.474 119.5C72.9925 122.167 73.7517 125.111 73.7517 128.333C73.7517 131.556 72.9925 134.5 71.474 137.167C69.9925 139.796 67.9925 141.907 65.474 143.5C62.9554 145.093 60.1406 145.889 57.0295 145.889C55.2517 145.889 53.6036 145.611 52.0851 145.056C50.5666 144.537 49.1962 143.815 47.974 142.889V161.667H38.3073ZM55.9184 137.389C57.548 137.389 59.0295 136.981 60.3628 136.167C61.6962 135.352 62.7517 134.259 63.5295 132.889C64.3443 131.519 64.7517 130 64.7517 128.333C64.7517 126.667 64.3443 125.148 63.5295 123.778C62.7517 122.407 61.6962 121.315 60.3628 120.5C59.0295 119.685 57.548 119.278 55.9184 119.278C54.2888 119.278 52.8073 119.685 51.474 120.5C50.1406 121.315 49.0666 122.407 48.2517 123.778C47.474 125.148 47.0851 126.667 47.0851 128.333C47.0851 130 47.474 131.519 48.2517 132.889C49.0666 134.259 50.1406 135.352 51.474 136.167C52.8073 136.981 54.2888 137.389 55.9184 137.389ZM79.5122 145V91.6667H89.1788V145H79.5122ZM111.589 145.889C108.514 145.889 105.718 145.093 103.2 143.5C100.681 141.907 98.6626 139.796 97.1441 137.167C95.6626 134.5 94.9219 131.556 94.9219 128.333C94.9219 125.111 95.6626 122.167 97.1441 119.5C98.6626 116.833 100.681 114.722 103.2 113.167C105.718 111.574 108.514 110.778 111.589 110.778C113.737 110.778 115.7 111.167 117.477 111.944C119.255 112.685 120.774 113.722 122.033 115.056V111.667H130.366V145H122.033V141.611C120.774 142.944 119.255 144 117.477 144.778C115.7 145.519 113.737 145.889 111.589 145.889ZM112.755 137.389C114.385 137.389 115.866 136.981 117.2 136.167C118.533 135.352 119.589 134.259 120.366 132.889C121.181 131.519 121.589 130 121.589 128.333C121.589 126.667 121.181 125.148 120.366 123.778C119.589 122.407 118.533 121.315 117.2 120.5C115.866 119.685 114.385 119.278 112.755 119.278C111.126 119.278 109.644 119.685 108.311 120.5C106.977 121.315 105.903 122.407 105.089 123.778C104.311 125.148 103.922 126.667 103.922 128.333C103.922 130 104.311 131.519 105.089 132.889C105.903 134.259 106.977 135.352 108.311 136.167C109.644 136.981 111.126 137.389 112.755 137.389ZM148.627 146.111C146.367 146.111 144.071 145.741 141.738 145C139.442 144.259 137.645 143.259 136.349 142L138.738 132.889C139.812 134.37 141.293 135.667 143.182 136.778C145.108 137.889 147.09 138.444 149.127 138.444C150.497 138.444 151.479 138.185 152.071 137.667C152.701 137.148 153.016 136.519 153.016 135.778C153.016 134.926 152.701 134.315 152.071 133.944C151.442 133.537 150.793 133.204 150.127 132.944L145.46 131.167C144.423 130.759 143.238 130.204 141.905 129.5C140.571 128.796 139.405 127.796 138.405 126.5C137.442 125.204 136.96 123.5 136.96 121.389C136.96 119.463 137.442 117.685 138.405 116.056C139.367 114.426 140.756 113.111 142.571 112.111C144.423 111.074 146.645 110.556 149.238 110.556C151.645 110.556 153.886 110.963 155.96 111.778C158.071 112.593 159.608 113.5 160.571 114.5L158.349 123.278C157.09 121.648 155.59 120.407 153.849 119.556C152.145 118.667 150.516 118.222 148.96 118.222C147.775 118.222 146.905 118.463 146.349 118.944C145.793 119.426 145.516 119.981 145.516 120.611C145.516 121.093 145.701 121.574 146.071 122.056C146.479 122.5 147.145 122.907 148.071 123.278L152.405 124.889C153.664 125.333 154.997 125.926 156.405 126.667C157.849 127.407 159.071 128.444 160.071 129.778C161.071 131.074 161.571 132.87 161.571 135.167C161.571 138.389 160.367 141.019 157.96 143.056C155.59 145.093 152.479 146.111 148.627 146.111ZM167.135 145V91.6667H176.802V114.167C177.987 112.981 179.339 112.093 180.858 111.5C182.413 110.87 184.061 110.556 185.802 110.556C188.172 110.556 190.376 111.13 192.413 112.278C194.487 113.389 196.154 115.037 197.413 117.222C198.709 119.37 199.358 121.981 199.358 125.056V145H189.691V126.333C189.691 124.481 189.135 122.833 188.024 121.389C186.913 119.944 185.321 119.222 183.247 119.222C181.58 119.222 180.08 119.796 178.747 120.944C177.45 122.056 176.802 123.815 176.802 126.222V145H167.135Z" fill="black"/>
</svg>
