<svg width="179" height="25" viewBox="0 0 179 25" fill="none" xmlns="http://www.w3.org/2000/svg">
<path d="M9.26945 18.3469C8.01042 18.3469 6.82848 18.1156 5.72362 17.6531C4.61876 17.1778 3.64237 16.529 2.79445 15.7068C1.95938 14.8845 1.30417 13.9274 0.828825 12.8354C0.366325 11.7434 0.135075 10.5743 0.135075 9.32812C0.135075 8.08194 0.366325 6.91285 0.828825 5.82083C1.30417 4.72882 1.95938 3.7717 2.79445 2.94948C3.64237 2.12726 4.61876 1.4849 5.72362 1.0224C6.82848 0.547049 8.01042 0.309375 9.26945 0.309375C10.4385 0.309375 11.537 0.508507 12.5648 0.906771C13.5925 1.29219 14.5111 1.84462 15.3205 2.56406L14.4148 6.24479C13.9137 5.40972 13.2264 4.71597 12.3528 4.16354C11.4792 3.61111 10.4771 3.3349 9.34653 3.3349C8.25452 3.3349 7.26528 3.60469 6.37883 4.14427C5.49237 4.68385 4.78577 5.4033 4.25903 6.3026C3.74514 7.20191 3.4882 8.21042 3.4882 9.32812C3.4882 10.433 3.74514 11.4415 4.25903 12.3536C4.78577 13.253 5.49237 13.9724 6.37883 14.512C7.26528 15.0516 8.25452 15.3214 9.34653 15.3214C10.4642 15.3214 11.4599 15.0451 12.3335 14.4927C13.22 13.9274 13.9137 13.2337 14.4148 12.4115L15.3205 16.0922C14.5111 16.7988 13.5925 17.3512 12.5648 17.7495C11.537 18.1477 10.4385 18.3469 9.26945 18.3469ZM17.4114 18V6.4375H20.4369V18H17.4114ZM18.9338 4.66458C18.4584 4.66458 18.0537 4.50399 17.7197 4.18281C17.3985 3.84878 17.2379 3.4441 17.2379 2.96875C17.2379 2.48056 17.3985 2.07587 17.7197 1.75469C18.0537 1.43351 18.4584 1.27292 18.9338 1.27292C19.422 1.27292 19.8267 1.43351 20.1478 1.75469C20.469 2.07587 20.6296 2.48056 20.6296 2.96875C20.6296 3.4441 20.469 3.84878 20.1478 4.18281C19.8267 4.50399 19.422 4.66458 18.9338 4.66458ZM24.6488 18V8.86562H22.3748V6.4375H24.7066V2.58333H27.6165V6.4375H30.0446V8.86562H27.6743V18H24.6488ZM31.9717 18V6.4375H34.6889V8.46094C35.1 7.79288 35.6139 7.27257 36.2306 6.9C36.8601 6.51458 37.6052 6.32187 38.466 6.32187L39.1404 9.05833C38.8963 8.98125 38.6201 8.94271 38.3118 8.94271C37.3097 8.94271 36.5068 9.26389 35.9029 9.90625C35.2991 10.5486 34.9972 11.4608 34.9972 12.6427V18H31.9717ZM45.2306 18.3469C44.4213 18.3469 43.6568 18.1477 42.9374 17.7495C42.218 17.3512 41.6398 16.7795 41.203 16.0344C40.7662 15.2764 40.5478 14.3578 40.5478 13.2786V6.4375H43.5733V12.874C43.5733 13.5934 43.7853 14.2293 44.2093 14.7818C44.6461 15.3342 45.2499 15.6104 46.0207 15.6104C46.6631 15.6104 47.2348 15.3792 47.7358 14.9167C48.2369 14.4542 48.4874 13.7925 48.4874 12.9318V6.4375H51.5129V18H48.7572V16.6125C48.3461 17.1778 47.8322 17.6082 47.2155 17.9036C46.5989 18.1991 45.9372 18.3469 45.2306 18.3469ZM57.9403 18.3469C57.2081 18.3469 56.4565 18.2248 55.6857 17.9807C54.9148 17.7238 54.2982 17.3641 53.8357 16.9016L54.6065 13.9724C54.9791 14.512 55.4801 14.9745 56.1096 15.3599C56.752 15.7325 57.4136 15.9187 58.0945 15.9187C58.6084 15.9187 58.981 15.816 59.2122 15.6104C59.4563 15.392 59.5784 15.1286 59.5784 14.8203C59.5784 14.4734 59.4563 14.2229 59.2122 14.0688C58.9681 13.9017 58.724 13.7733 58.4799 13.6833L56.8805 13.0859C56.5464 12.9446 56.1546 12.7583 55.7049 12.5271C55.2553 12.283 54.8634 11.9425 54.5294 11.5057C54.2082 11.0561 54.0476 10.4715 54.0476 9.75208C54.0476 9.09687 54.2082 8.49306 54.5294 7.94062C54.8506 7.38819 55.3131 6.94496 55.9169 6.61094C56.5336 6.26406 57.2723 6.09062 58.1331 6.09062C58.9039 6.09062 59.6362 6.22552 60.3299 6.49531C61.0365 6.75226 61.5697 7.07344 61.9294 7.45885L61.2164 10.3109C60.8053 9.74566 60.3107 9.30885 59.7325 9.00052C59.1544 8.67934 58.5956 8.51875 58.056 8.51875C57.6063 8.51875 57.2723 8.62153 57.0539 8.82708C56.8355 9.01979 56.7263 9.25104 56.7263 9.52083C56.7263 9.72639 56.8034 9.9191 56.9575 10.099C57.1117 10.2788 57.3622 10.433 57.7091 10.5615L59.2122 11.1396C59.6105 11.2809 60.0473 11.48 60.5226 11.737C60.998 11.9811 61.4027 12.328 61.7367 12.7776C62.0836 13.2273 62.257 13.8439 62.257 14.6276C62.257 15.7325 61.8523 16.6318 61.043 17.3255C60.2464 18.0064 59.2122 18.3469 57.9403 18.3469ZM70.8145 18V0.65625H76.0947C77.2381 0.65625 78.1438 0.881076 78.8119 1.33073C79.4928 1.76753 79.981 2.30069 80.2764 2.93021C80.5719 3.54687 80.7197 4.13142 80.7197 4.68385C80.7197 5.22344 80.6105 5.72448 80.3921 6.18698C80.1737 6.64948 79.8718 7.04774 79.4863 7.38177C80.3214 7.86996 80.9959 8.5316 81.5098 9.36667C82.0237 10.1889 82.2806 11.1203 82.2806 12.1609C82.2806 13.1245 82.0365 14.0559 81.5483 14.9552C81.073 15.8545 80.36 16.5868 79.4093 17.1521C78.4714 17.7174 77.3087 18 75.9212 18H70.8145ZM73.8593 15.1672H75.6322C76.4416 15.1672 77.0903 15.0066 77.5785 14.6854C78.0796 14.3642 78.4457 13.966 78.677 13.4906C78.9082 13.0024 79.0238 12.5207 79.0238 12.0453C79.0238 11.5828 78.9082 11.1139 78.677 10.6385C78.4586 10.1503 78.0988 9.74566 77.5978 9.42448C77.1096 9.09045 76.4544 8.92344 75.6322 8.92344H73.8593V15.1672ZM73.8593 6.64948H75.6129C76.2553 6.64948 76.7756 6.49531 77.1738 6.18698C77.5721 5.87865 77.7712 5.43542 77.7712 4.85729C77.7712 4.26632 77.5721 3.81667 77.1738 3.50833C76.7884 3.2 76.2938 3.04583 75.69 3.04583H73.8593V6.64948ZM90.5388 18.3469C89.2669 18.3469 88.1363 18.0771 87.1471 17.5375C86.1707 16.9979 85.4063 16.2592 84.8539 15.3214C84.3143 14.3707 84.0445 13.2979 84.0445 12.1031C84.0445 10.9597 84.3079 9.93837 84.8346 9.03906C85.3742 8.12691 86.1001 7.40746 87.0122 6.88073C87.9244 6.35399 88.9329 6.09062 90.0377 6.09062C91.1683 6.09062 92.1768 6.35399 93.0632 6.88073C93.9626 7.39462 94.6756 8.09479 95.2023 8.98125C95.729 9.86771 95.9924 10.8762 95.9924 12.0068V13.1052H88.8044C88.4832 13.1052 88.1685 13.0859 87.8601 13.0474C87.5518 13.0089 87.2435 12.9639 86.9351 12.9125C87.0893 13.7476 87.494 14.4349 88.1492 14.9745C88.8044 15.5141 89.6266 15.7839 90.6159 15.7839C91.3481 15.7839 92.0098 15.6297 92.6007 15.3214C93.1917 15.013 93.6799 14.6276 94.0653 14.1651L94.7591 16.9979C94.181 17.4476 93.5322 17.7816 92.8127 18C92.0933 18.2313 91.3353 18.3469 90.5388 18.3469ZM86.858 11.0432C87.5132 10.9148 88.162 10.8505 88.8044 10.8505H91.2903C91.6372 10.8505 91.9648 10.8634 92.2731 10.8891C92.5815 10.9148 92.877 10.9533 93.1596 11.0047C92.9669 10.2595 92.5879 9.66215 92.0226 9.2125C91.4702 8.76285 90.8021 8.53802 90.0185 8.53802C89.2476 8.53802 88.5796 8.76927 88.0143 9.23177C87.449 9.69427 87.0636 10.2981 86.858 11.0432ZM98.0676 18V6.4375H100.785V8.46094C101.196 7.79288 101.71 7.27257 102.326 6.9C102.956 6.51458 103.701 6.32187 104.562 6.32187L105.236 9.05833C104.992 8.98125 104.716 8.94271 104.408 8.94271C103.406 8.94271 102.603 9.26389 101.999 9.90625C101.395 10.5486 101.093 11.4608 101.093 12.6427V18H98.0676ZM106.875 18V6.4375H109.592V8.46094C110.003 7.79288 110.517 7.27257 111.134 6.9C111.763 6.51458 112.509 6.32187 113.369 6.32187L114.044 9.05833C113.8 8.98125 113.523 8.94271 113.215 8.94271C112.213 8.94271 111.41 9.26389 110.806 9.90625C110.202 10.5486 109.901 11.4608 109.901 12.6427V18H106.875ZM115.336 23.7813L119.17 16.1115L114.411 6.4375H117.764L119.903 10.8698C120.095 11.2681 120.269 11.6406 120.423 11.9875C120.577 12.3344 120.712 12.6941 120.828 13.0667C120.956 12.6941 121.097 12.3344 121.252 11.9875C121.419 11.6406 121.605 11.2681 121.811 10.8698L123.988 6.4375H127.206L118.592 23.7813H115.336ZM133.607 18L140.815 3.48906H134.455V0.65625H145.459L138.252 15.1672H145.073V18H133.607ZM147.598 18V6.4375H150.623V18H147.598ZM149.12 4.66458C148.645 4.66458 148.24 4.50399 147.906 4.18281C147.585 3.84878 147.424 3.4441 147.424 2.96875C147.424 2.48056 147.585 2.07587 147.906 1.75469C148.24 1.43351 148.645 1.27292 149.12 1.27292C149.608 1.27292 150.013 1.43351 150.334 1.75469C150.656 2.07587 150.816 2.48056 150.816 2.96875C150.816 3.4441 150.656 3.84878 150.334 4.18281C150.013 4.50399 149.608 4.66458 149.12 4.66458ZM153.486 18V6.4375H156.204V7.86354C156.627 7.28542 157.148 6.84861 157.764 6.55312C158.381 6.24479 159.049 6.09062 159.769 6.09062C160.591 6.09062 161.355 6.28976 162.062 6.68802C162.781 7.08628 163.359 7.66441 163.796 8.4224C164.233 9.16753 164.451 10.0797 164.451 11.1589V18H161.426V11.5635C161.426 10.8441 161.214 10.2082 160.79 9.65573C160.366 9.1033 159.762 8.82708 158.979 8.82708C158.336 8.82708 157.764 9.05191 157.263 9.50156C156.762 9.93837 156.512 10.6064 156.512 11.5057V18H153.486ZM172.016 24.1281C171.117 24.1281 170.269 23.9932 169.472 23.7234C168.688 23.4665 168.001 23.1132 167.41 22.6635L168.162 19.5995C168.573 20.1519 169.106 20.6016 169.761 20.9484C170.429 21.3082 171.181 21.488 172.016 21.488C173.223 21.488 174.174 21.1347 174.868 20.4281C175.562 19.7344 175.909 18.8351 175.909 17.7302V16.7667C175.446 17.2292 174.9 17.5953 174.271 17.8651C173.641 18.1349 172.947 18.2698 172.189 18.2698C171.136 18.2698 170.172 18 169.299 17.4604C168.425 16.908 167.725 16.1757 167.198 15.2635C166.684 14.3385 166.427 13.3236 166.427 12.2187C166.427 11.1139 166.684 10.1054 167.198 9.19323C167.725 8.26823 168.425 7.53594 169.299 6.99635C170.172 6.44392 171.136 6.16771 172.189 6.16771C172.947 6.16771 173.647 6.3026 174.29 6.5724C174.932 6.84219 175.478 7.22118 175.928 7.70937V6.4375H178.568V18.1156C178.568 19.3747 178.266 20.4538 177.662 21.3531C177.058 22.2524 176.255 22.9398 175.253 23.4151C174.251 23.8905 173.172 24.1281 172.016 24.1281ZM172.555 15.5911C173.172 15.5911 173.725 15.437 174.213 15.1286C174.714 14.8203 175.112 14.4156 175.408 13.9146C175.703 13.4007 175.851 12.8354 175.851 12.2187C175.851 11.6021 175.703 11.0432 175.408 10.5422C175.112 10.0283 174.714 9.61719 174.213 9.30885C173.725 9.00052 173.179 8.84635 172.575 8.84635C171.958 8.84635 171.399 9.00052 170.898 9.30885C170.41 9.61719 170.018 10.0283 169.723 10.5422C169.427 11.0432 169.279 11.6021 169.279 12.2187C169.279 12.8354 169.427 13.4007 169.723 13.9146C170.018 14.4156 170.41 14.8203 170.898 15.1286C171.399 15.437 171.952 15.5911 172.555 15.5911Z" fill="url(#paint0_linear_305_670)"/>
<defs>
<linearGradient id="paint0_linear_305_670" x1="-81.5973" y1="8.5" x2="180" y2="8.25589" gradientUnits="userSpaceOnUse">
<stop offset="0.0001" stop-color="#FF6162"/>
<stop offset="1" stop-color="#FE4C00"/>
</linearGradient>
</defs>
</svg>
