<svg width="309" height="79" viewBox="0 0 309 79" fill="none" xmlns="http://www.w3.org/2000/svg">
<path d="M13.3 77.2C10.4333 75.3333 8.73333 73.4667 8.2 71.6C7.73333 69.7333 8.4 68.2333 10.2 67.1C10.6 66.8333 11.3667 66.8 12.5 67C13.7 67.2 14.6 67.6 15.2 68.2C16.5333 69.4 18.0333 70.1333 19.7 70.4C21.4333 70.7333 23.5333 70.5667 26 69.9C28.8 69.0333 30.9333 67.9667 32.4 66.7C33.9333 65.3667 35.6333 63.5667 37.5 61.3C38.9 59.5 39.8667 57.7333 40.4 56C41 54.2667 41.2667 52.7 41.2 51.3C41.2 49.8333 40.8667 48.7333 40.2 48C38.5333 45.6667 36.4667 44.0667 34 43.2C31.5333 42.2667 28.3 42.3333 24.3 43.4C23.8333 43.4667 23.1333 43.6 22.2 43.8C21.2667 44 20.4333 44.2 19.7 44.4C18.9667 44.5333 18.5667 44.6 18.5 44.6C18.0333 44.7333 17.6667 44.8 17.4 44.8C17.1333 44.8 16.8 45.1333 16.4 45.8C16.0667 46.4 15.5333 47.7 14.8 49.7C14.0667 51.6333 12.9667 54.6333 11.5 58.7C10.1 62.7667 8.9 65.6667 7.9 67.4C6.96667 69.0667 6.13333 69.8333 5.4 69.7C4.66667 69.5 3.83333 68.7667 2.9 67.5C2.36667 66.5667 1.76667 65.5333 1.1 64.4C0.5 63.2667 0.533334 62.1 1.2 60.9C1.53333 60.3 1.8 59.7667 2 59.3C2.2 58.7667 2.46667 57.8667 2.8 56.6C3.13333 55.6 3.76667 53.8667 4.7 51.4C5.7 48.8667 6.86667 45.9333 8.2 42.6C9.53333 39.2 10.9333 35.7 12.4 32.1C13.8667 28.5 15.2667 25.1 16.6 21.9C18 18.7 19.1667 16 20.1 13.8C21.0333 11.7333 21.6 10.2333 21.8 9.29999C22 8.36666 21.9333 7.86666 21.6 7.8C21.6 7.46666 21.5 7.16666 21.3 6.9C21.1 6.56666 21.0333 6.26666 21.1 6C21.1 5.73333 21.6667 5.36666 22.8 4.9C24 4.43333 25.2667 4 26.6 3.6C27.9333 3.2 28.9 3.06666 29.5 3.2C29.8333 3.2 30.2333 3.2 30.7 3.2C31.1667 3.13333 31.4 2.96666 31.4 2.7C31.6 2.7 32.2333 2.63333 33.3 2.5C34.3667 2.36666 35.5333 2.36666 36.8 2.5C41.2667 2.9 44.9333 4.2 47.8 6.4C50.6667 8.53333 52.0667 11.9667 52 16.7C51.9333 17.8333 51.4667 19.3 50.6 21.1C49.7333 22.9 48.6333 24.7 47.3 26.5C46.0333 28.3 44.6667 29.8667 43.2 31.2C42.3333 31.9333 41.4 32.7 40.4 33.5C39.4667 34.2333 38.6333 34.8667 37.9 35.4C37.2333 35.8667 36.9 36.1 36.9 36.1C36.9 36.1 37.1667 36.2 37.7 36.4C38.2333 36.6 38.8 36.8 39.4 37C42.4667 38.1333 44.8667 39.5667 46.6 41.3C48.4 43.0333 49.6667 45.4333 50.4 48.5C50.6667 49.5 50.6667 50.7333 50.4 52.2C50.2 53.6667 49.9 55.1333 49.5 56.6C49.1 58 48.6667 59.2 48.2 60.2C47.7333 60.6667 47.3667 61.1667 47.1 61.7C46.8333 62.1667 46.7 62.4 46.7 62.4C46.7 62.5333 46.4333 63.0667 45.9 64C45.3667 64.8667 44.7333 65.8333 44 66.9C43.2667 67.9667 42.5667 68.9 41.9 69.7C41.2333 70.2333 40.2667 70.9667 39 71.9C37.8 72.9 36.4667 73.8667 35 74.8C33.6 75.7333 32.2667 76.4333 31 76.9C29.1333 77.7 27.0333 78.2333 24.7 78.5C22.4333 78.8333 20.2667 78.8667 18.2 78.6C16.1333 78.4 14.5 77.9333 13.3 77.2ZM20.5 35.7C20.5 35.7 21.0333 35.6 22.1 35.4C23.2333 35.1333 24.4667 34.8667 25.8 34.6C27.1333 34.2667 28.1333 33.9667 28.8 33.7C29.1333 33.5 29.6 33.2333 30.2 32.9C30.8667 32.5667 31.5333 32.0667 32.2 31.4C33.1333 30.5333 34.1333 29.5667 35.2 28.5C36.2667 27.3667 37.3 26.1667 38.3 24.9C39.3667 23.6333 40.2667 22.2667 41 20.8C42.5333 18.4 43.3667 16.6667 43.5 15.6C43.6333 14.5333 43.2667 13.5667 42.4 12.7C41.8 11.9667 40.9667 11.4333 39.9 11.1C38.8333 10.7 37.6667 10.5 36.4 10.5C35.2 10.4333 34.0333 10.5667 32.9 10.9C32.0333 11.1667 31.3667 11.5 30.9 11.9C30.4333 12.2333 30.2 12.7667 30.2 13.5C30.2 14.1 30 14.7333 29.6 15.4C29.2667 16 28.9333 16.4667 28.6 16.8C28.5333 17.2667 28.3 17.7333 27.9 18.2C27.5667 18.6 27.4 18.8 27.4 18.8C27.4 19.0667 26.9667 19.9 26.1 21.3C25.3 22.6333 24.4333 24.5667 23.5 27.1C22.3 29.9667 21.5 32.0333 21.1 33.3C20.7 34.5667 20.5 35.3667 20.5 35.7ZM74.6438 68C72.6438 69.1333 70.5104 69.8 68.2438 70C66.0438 70.1333 63.9771 69.8333 62.0438 69.1C60.1104 68.3 58.5438 67.1333 57.3438 65.6C56.6771 64.7333 56.0438 63.3667 55.4438 61.5C54.8438 59.5667 54.7438 56.9667 55.1438 53.7C55.5438 50.6333 56.4771 47.5333 57.9438 44.4C59.4771 41.2667 61.3438 38.5 63.5438 36.1C65.7438 33.7 68.1438 32.0667 70.7438 31.2C71.6771 30.8667 72.6104 30.6333 73.5438 30.5C74.5438 30.3 75.8438 30.2667 77.4438 30.4C78.9771 30.6 80.3438 31 81.5438 31.6C82.7438 32.1333 83.6104 32.7333 84.1438 33.4C85.2104 34.4667 85.9104 35.5 86.2438 36.5C86.5771 37.5 86.7104 38.4667 86.6438 39.4C86.3104 41.5333 85.3438 43.8333 83.7438 46.3C82.2104 48.7667 80.0438 50.6 77.2438 51.8C76.1104 52.2667 74.7771 52.5667 73.2438 52.7C71.7104 52.8333 69.6104 52.6333 66.9438 52.1C65.3438 51.7667 64.2771 51.9333 63.7438 52.6C63.2771 53.2667 63.0771 54.5667 63.1438 56.5C63.2771 57.7 63.5438 58.7667 63.9438 59.7C64.4104 60.5667 65.2438 61.1667 66.4438 61.5C67.9771 61.7667 69.0771 61.8 69.7438 61.6C70.4104 61.3333 71.2438 60.9667 72.2438 60.5C72.7771 60.1667 73.2771 59.8 73.7438 59.4C74.2771 59 74.7771 58.6 75.2438 58.2C75.7771 57.8 76.2104 57.5 76.5438 57.3C76.8771 57.0333 77.2104 56.8667 77.5438 56.8C77.8771 56.7333 78.2104 56.7 78.5438 56.7C79.2771 56.7667 79.9771 57.1667 80.6438 57.9C81.3104 58.6333 81.7438 59.3333 81.9438 60C81.9438 60.5333 81.6104 61.3 80.9438 62.3C80.2771 63.2333 79.3771 64.2333 78.2438 65.3C77.1771 66.3 75.9771 67.2 74.6438 68ZM73.3438 45.7C73.8104 45.5 74.4771 45.0333 75.3438 44.3C76.2771 43.5667 77.1104 42.8 77.8438 42C78.5771 41.1333 78.9438 40.4667 78.9438 40C78.9438 39.2667 78.4438 38.6333 77.4438 38.1C76.5104 37.5667 75.2771 37.4667 73.7438 37.8C73.2104 37.9333 72.5771 38.3 71.8438 38.9C71.1104 39.5 70.3771 40.2 69.6438 41C68.9104 41.7333 68.2771 42.4667 67.7438 43.2C67.2104 43.8667 66.8438 44.4 66.6438 44.8C66.9104 45.1333 67.4438 45.4 68.2438 45.6C69.0438 45.8 69.9104 45.9 70.8438 45.9C71.8438 45.9 72.6771 45.8333 73.3438 45.7ZM94.0422 70.6C91.7755 69.6667 90.1089 68.7 89.0422 67.7C88.0422 66.6333 87.6422 65.7 87.8422 64.9C87.9755 64.5 88.2089 64.1333 88.5422 63.8C88.8755 63.4667 89.6089 63.3333 90.7422 63.4C91.9422 63.4 93.7755 63.7 96.2422 64.3C96.9755 64.3 97.7089 64.2667 98.4422 64.2C99.1755 64.1333 99.8422 64.0333 100.442 63.9C101.109 63.7667 101.642 63.6 102.042 63.4C102.376 63.2667 102.476 63.1 102.342 62.9C102.209 62.6333 101.976 62.3667 101.642 62.1C101.376 61.7667 101.076 61.5667 100.742 61.5C100.409 61.3667 100.109 61.3 99.8422 61.3C99.7089 60.9667 99.4089 60.6333 98.9422 60.3C98.5422 59.9667 98.0422 59.6 97.4422 59.2C95.9755 58 94.6422 56.9333 93.4422 56C92.2422 55.0667 91.7755 54.3667 92.0422 53.9C92.0422 53.6333 92.0422 53.5 92.0422 53.5C92.0422 53.4333 92.0422 53.4 92.0422 53.4C91.5755 53.4 91.1422 52.7667 90.7422 51.5C90.3422 50.1667 90.1422 48.9667 90.1422 47.9C90.1422 46.5667 90.4089 45.2333 90.9422 43.9C91.5422 42.5667 92.2755 41.3 93.1422 40.1C94.0755 38.9 95.0089 37.8333 95.9422 36.9C97.2089 35.7 98.5422 34.5333 99.9422 33.4C101.409 32.2 102.976 31.1333 104.642 30.2C106.376 29.2667 108.276 28.5333 110.342 28C111.276 27.8 112.342 27.7 113.542 27.7C114.742 27.7 115.609 27.8667 116.142 28.2C116.676 27.8667 117.342 27.9667 118.142 28.5C118.942 28.9667 119.742 29.6333 120.542 30.5C121.342 31.3667 121.942 32.2333 122.342 33.1C122.342 33.9 122.309 34.9 122.242 36.1C122.242 37.2333 122.176 38.2333 122.042 39.1C121.909 39.9667 121.609 40.4 121.142 40.4C121.142 40.4 121.042 40.4333 120.842 40.5C120.709 40.5 120.642 40.6667 120.642 41C120.642 41.6667 120.142 42.4333 119.142 43.3C117.876 44.1667 116.676 44.8667 115.542 45.4C114.409 45.9333 113.542 45.9667 112.942 45.5C112.542 45.2333 112.176 44.9667 111.842 44.7C111.509 44.4333 111.209 44.1 110.942 43.7C110.942 43.7 110.842 43.5667 110.642 43.3C110.509 42.9667 110.442 42.6667 110.442 42.4C110.442 42.1333 110.542 41.9 110.742 41.7C110.942 41.4333 111.042 41.3 111.042 41.3C111.976 40.4333 112.676 39.6333 113.142 38.9C113.676 38.1667 114.042 37.5333 114.242 37C114.442 36.4 114.542 35.9333 114.542 35.6C114.542 35.2 114.442 34.9667 114.242 34.9C114.109 34.7667 113.776 34.7 113.242 34.7C112.909 34.7 112.176 34.9667 111.042 35.5C109.976 36.0333 108.842 36.7 107.642 37.5C106.442 38.2333 105.509 38.9 104.842 39.5C104.576 39.9667 104.376 40.2667 104.242 40.4C104.176 40.5333 104.009 40.6 103.742 40.6C103.742 40.3333 103.576 40.3667 103.242 40.7C102.909 41.0333 102.509 41.5 102.042 42.1C101.576 42.7 101.109 43.3333 100.642 44C100.176 44.6667 99.8089 45.2 99.5422 45.6C99.4755 46.2 99.3089 46.7667 99.0422 47.3C98.8422 47.7667 98.7755 48.2667 98.8422 48.8C98.9089 49.4667 99.2422 50.1 99.8422 50.7C100.442 51.3 101.309 52.0667 102.442 53C104.776 54.7333 106.509 56.1 107.642 57.1C108.842 58.1 109.676 58.9 110.142 59.5C110.609 60.1 110.909 60.7 111.042 61.3C112.176 63.3667 112.309 65.1667 111.442 66.7C110.576 68.1667 109.242 69.3 107.442 70.1C106.776 70.4333 105.609 70.7333 103.942 71C102.276 71.3333 100.509 71.4667 98.6422 71.4C96.8422 71.4 95.3089 71.1333 94.0422 70.6ZM136.703 70.6C135.77 70.3333 134.836 69.8667 133.903 69.2C132.97 68.5333 132.003 67.7667 131.003 66.9C130.203 65.8333 129.636 64.8667 129.303 64C128.97 63.0667 128.77 62 128.703 60.8C128.703 59.5333 128.703 57.9333 128.703 56C128.703 55.2 128.836 54.0667 129.103 52.6C129.436 51.1333 129.77 49.6 130.103 48C130.503 46.4 130.87 45 131.203 43.8C131.536 42.5333 131.736 41.7 131.803 41.3C132.003 40.4333 131.67 39.9333 130.803 39.8C129.936 39.6667 128.97 39.6333 127.903 39.7C126.903 39.7 126.236 39.6 125.903 39.4C125.636 39.3333 125.503 39 125.503 38.4C125.503 37.7333 125.503 37.4 125.503 37.4C125.503 37.1333 125.37 36.9667 125.103 36.9C124.836 36.7667 124.603 36.5333 124.403 36.2C124.27 35.9333 124.436 35.4333 124.903 34.7C125.37 33.9667 125.97 33.5333 126.703 33.4C127.303 33.2667 128.203 33.1667 129.403 33.1C130.603 32.9667 131.803 32.7333 133.003 32.4C134.27 32 135.236 31.4 135.903 30.6C136.503 29.1333 137.17 27.5667 137.903 25.9C138.636 24.1667 139.336 22.6667 140.003 21.4C140.67 20.0667 141.136 19.2333 141.403 18.9C142.536 18.3 143.703 18.0667 144.903 18.2C146.103 18.2667 147.036 18.8333 147.703 19.9C148.036 20.3667 148.303 20.7 148.503 20.9C148.77 21.1 148.87 21.4 148.803 21.8C148.803 22.2 148.536 22.9333 148.003 24C147.536 25 146.736 26.5667 145.603 28.7C145.27 29.3667 144.97 29.9667 144.703 30.5C144.436 30.9667 144.303 31.2 144.303 31.2C144.57 31.2667 144.97 31.3 145.503 31.3C146.036 31.3 146.703 31.2667 147.503 31.2C148.236 31.0667 149.036 30.9667 149.903 30.9C150.77 30.7667 151.536 30.7667 152.203 30.9C153.736 30.9 154.87 31.3333 155.603 32.2C156.336 33.0667 156.736 34.1667 156.803 35.5C156.936 36.2333 156.67 36.8667 156.003 37.4C155.336 37.9333 154.103 38.2 152.303 38.2C151.703 38.2 150.836 38.2333 149.703 38.3C148.57 38.3667 147.403 38.4333 146.203 38.5C145.003 38.5667 143.97 38.6667 143.103 38.8C142.303 38.8667 141.903 38.9667 141.903 39.1C141.703 39.2333 141.37 39.7667 140.903 40.7C140.503 41.5667 140.07 42.6333 139.603 43.9C139.203 45.1667 138.836 46.3667 138.503 47.5C138.036 49.7667 137.703 51.9667 137.503 54.1C137.303 56.2333 137.27 58.1 137.403 59.7C137.603 61.2333 138.003 62.3333 138.603 63C139.203 63.6 140.103 63.6 141.303 63C142.57 62.3333 143.736 61.5667 144.803 60.7C146.003 59.7 147.036 59.4 147.903 59.8C148.77 60.1333 149.303 60.8667 149.503 62C149.77 63.0667 149.47 64.2333 148.603 65.5C147.803 66.7667 146.67 67.8333 145.203 68.7C143.736 69.5667 142.236 70.1667 140.703 70.5C139.17 70.9 137.836 70.9333 136.703 70.6ZM193.627 76.4C190.894 76.4 188.394 75.9333 186.127 75C183.861 74.1333 182.461 72.1667 181.927 69.1C181.994 67.4333 182.061 66.4 182.127 66C182.261 65.5333 182.527 65.3 182.927 65.3C183.194 65.3 183.394 65.2667 183.527 65.2C183.727 65.0667 183.827 64.7667 183.827 64.3C183.894 63.1667 184.061 61.8333 184.327 60.3C184.661 58.7 185.027 57.2333 185.427 55.9C185.894 54.5 186.327 53.5333 186.727 53C187.127 51.6667 187.694 49.8333 188.427 47.5C189.161 45.1667 189.927 42.7333 190.727 40.2C191.594 37.6 192.361 35.2333 193.027 33.1C193.761 30.9667 194.294 29.4667 194.627 28.6C194.961 27.7333 195.494 26.5333 196.227 25C196.961 23.4 197.461 22.0667 197.727 21C198.194 19.6667 198.694 18.2333 199.227 16.7C199.761 15.1 200.261 13.8667 200.727 13L202.427 10L199.727 7.7C198.794 6.76666 198.327 5.83333 198.327 4.9C198.327 3.83333 198.961 2.93333 200.227 2.2C201.561 1.46666 203.094 0.966665 204.827 0.699998C205.494 0.566663 206.261 0.499995 207.127 0.499995C208.061 0.499995 208.927 0.499995 209.727 0.499995C211.661 0.499995 213.594 0.566663 215.527 0.699998C217.461 0.83333 219.061 0.999996 220.327 1.2C221.061 1.33333 221.994 1.63333 223.127 2.1C224.261 2.56666 225.361 3.1 226.427 3.7C227.494 4.3 228.261 4.86666 228.727 5.4C228.727 5.4 228.861 5.53333 229.127 5.8C229.394 6 229.661 6.09999 229.927 6.09999C230.327 6.3 231.027 7.06666 232.027 8.39999C233.094 9.73333 234.127 11.2333 235.127 12.9C236.127 14.5 236.727 15.9667 236.927 17.3C237.127 18.3 237.261 19.4 237.327 20.6C237.461 21.7333 237.527 22.7667 237.527 23.7C237.461 25.3 237.361 26.8333 237.227 28.3C237.161 29.7667 236.994 31.3667 236.727 33.1C236.527 34.6333 236.161 36.3333 235.627 38.2C235.161 40 234.627 41.7667 234.027 43.5C233.494 45.1667 232.994 46.5333 232.527 47.6C232.127 48.6667 231.861 49.2 231.727 49.2C231.327 49.2 231.094 49.3 231.027 49.5C230.961 49.7 230.927 49.9333 230.927 50.2C230.861 50.8667 230.427 51.9333 229.627 53.4C228.827 54.8 227.827 56.3333 226.627 58C225.427 59.6 224.161 61.1 222.827 62.5C221.561 63.9 220.394 64.9333 219.327 65.6C217.194 67.9333 214.627 69.9 211.627 71.5C208.627 73.1667 205.527 74.4 202.327 75.2C199.194 76 196.294 76.4 193.627 76.4ZM196.127 66.3C196.794 66.3 197.861 66.2667 199.327 66.2C200.861 66.0667 202.094 65.8333 203.027 65.5C204.627 65.1 206.561 64.2333 208.827 62.9C211.094 61.5 213.161 59.8667 215.027 58C217.094 55.8667 218.961 53.6667 220.627 51.4C222.294 49.0667 223.927 45.8667 225.527 41.8C226.661 39.1333 227.461 36.4333 227.927 33.7C228.461 30.9667 228.727 28.5 228.727 26.3C228.727 22.3667 227.994 19.2 226.527 16.8C225.061 14.3333 223.161 12.6667 220.827 11.8C219.894 11.4667 218.927 11.2333 217.927 11.1C216.927 10.9 215.961 10.8 215.027 10.8C214.361 10.8 213.661 10.8333 212.927 10.9C212.261 10.9667 211.827 11.0667 211.627 11.2C211.094 11.2 210.494 11.7333 209.827 12.8C209.227 13.8667 208.661 15.2 208.127 16.8C207.594 18.4 207.094 19.9667 206.627 21.5C206.094 23.4333 205.594 25 205.127 26.2C204.661 27.3333 204.194 28.5 203.727 29.7C203.261 30.9 202.694 32.6 202.027 34.8C201.094 36.6 200.294 38.4333 199.627 40.3C199.027 42.1 198.527 43.7 198.127 45.1C197.727 46.4333 197.427 47.3667 197.227 47.9C196.827 48.7 196.394 49.9 195.927 51.5C195.527 53.0333 195.127 54.7 194.727 56.5C194.394 58.3 194.094 59.9667 193.827 61.5C193.627 63.0333 193.527 64.2 193.527 65C193.527 65.5333 193.794 65.9 194.327 66.1C194.861 66.2333 195.461 66.3 196.127 66.3ZM264.019 70.6C263.552 70.8667 262.919 70.7667 262.119 70.3C261.385 69.8333 260.652 69.1333 259.919 68.2C259.452 67.4 259.085 66.6 258.819 65.8C258.619 64.9333 258.519 63.6667 258.519 62C258.585 60.6667 258.585 59.7667 258.519 59.3C258.519 58.7667 258.219 58.7333 257.619 59.2C257.085 59.6 255.985 60.6 254.319 62.2C252.652 63.8667 251.052 65.3 249.519 66.5C248.052 67.6333 246.852 68.1667 245.919 68.1C245.452 68.1 244.819 67.8 244.019 67.2C243.219 66.6 242.452 65.8667 241.719 65C240.985 64.0667 240.452 63.2 240.119 62.4C239.719 60.8 239.685 58.7333 240.019 56.2C240.419 53.6667 241.052 51.0333 241.919 48.3C242.785 45.5 243.752 42.9 244.819 40.5C245.952 38.0333 247.052 36.0667 248.119 34.6C249.252 33.0667 250.219 32.3333 251.019 32.4C252.152 32.5333 253.119 33.1 253.919 34.1C254.785 35.0333 255.452 36.0667 255.919 37.2C256.185 37.6667 256.285 38.0667 256.219 38.4C256.219 38.7333 255.952 39.1333 255.419 39.6C254.819 40.4 254.085 41.5667 253.219 43.1C252.419 44.5667 251.585 46.1667 250.719 47.9C249.919 49.6333 249.185 51.3 248.519 52.9C247.919 54.4333 247.485 55.7 247.219 56.7C246.952 57.7 246.952 58.2 247.219 58.2C248.152 58.2 249.019 57.9667 249.819 57.5C250.619 56.9667 251.619 56.1333 252.819 55C254.219 53.6 255.452 52.2 256.519 50.8C257.585 49.3333 258.685 47.6667 259.819 45.8C260.685 44.4667 261.585 43 262.519 41.4C263.519 39.8 264.152 38.6667 264.419 38C265.352 36.2667 266.052 34.9667 266.519 34.1C266.985 33.2333 267.552 32.7 268.219 32.5C268.552 32.5 269.019 32.5 269.619 32.5C270.219 32.5 270.519 32.5 270.519 32.5C270.919 32.5667 271.385 32.8667 271.919 33.4C272.452 33.6667 272.985 34.0333 273.519 34.5C274.119 34.9667 274.419 35.3667 274.419 35.7C274.152 36.3667 273.719 37.3667 273.119 38.7C272.585 39.9667 272.185 40.9 271.919 41.5C270.652 44.3667 269.419 47.2 268.219 50C267.085 52.7333 266.252 55.5333 265.719 58.4C265.585 59.3333 265.552 60.4333 265.619 61.7C265.752 62.9 265.952 63.7667 266.219 64.3C266.419 64.7 266.652 65.1667 266.919 65.7C267.252 66.1667 267.619 66.5667 268.019 66.9C268.619 67.3 268.585 67.8 267.919 68.4C267.319 69 266.552 69.5333 265.619 70C264.752 70.4 264.219 70.6 264.019 70.6ZM286.53 70.9C285.664 70.9667 284.964 70.8667 284.43 70.6C283.897 70.4 283.23 70.0667 282.43 69.6C280.964 68.4667 279.73 67.0667 278.73 65.4C277.797 63.7333 277.364 62.3333 277.43 61.2C277.564 60.6 277.564 60.0667 277.43 59.6C277.364 59.1333 277.33 58.9 277.33 58.9C276.93 58.5667 276.797 58.3667 276.93 58.3C277.064 58.1667 277.164 57.9667 277.23 57.7C277.764 57.5667 277.83 57.2 277.43 56.6C277.23 56.0667 277.33 54.8667 277.73 53C278.197 51.0667 278.797 49.2667 279.53 47.6C279.864 46.8667 280.33 45.9 280.93 44.7C281.597 43.5 282.33 42.3 283.13 41.1C283.93 39.8333 284.664 38.8333 285.33 38.1C286.797 36.4333 288.097 35.0667 289.23 34C290.43 32.9333 291.764 32.1333 293.23 31.6C294.564 31.0667 295.897 30.8333 297.23 30.9C298.63 30.9667 299.864 31.4333 300.93 32.3C302.53 32.7667 303.964 33.5 305.23 34.5C306.497 35.4333 307.364 36.7667 307.83 38.5C308.364 40.4333 308.53 42.7333 308.33 45.4C308.197 48 307.064 51.3667 304.93 55.5C303.664 58.1 302.397 60.2 301.13 61.8C299.93 63.4 298.464 64.9333 296.73 66.4C295.464 67.4667 293.83 68.4 291.83 69.2C289.83 70 288.064 70.5667 286.53 70.9ZM295.23 55.8C296.097 54.6 296.764 53.4333 297.23 52.3C297.764 51.1667 298.264 49.6 298.73 47.6C298.93 46.8667 299.03 45.9667 299.03 44.9C299.097 43.8333 299.064 42.8667 298.93 42C298.864 41.0667 298.63 40.5667 298.23 40.5C297.364 40.1667 296.464 40.1667 295.53 40.5C294.664 40.7667 293.63 41.5667 292.43 42.9C291.364 44.1 290.497 45.2333 289.83 46.3C289.23 47.3 288.664 48.5333 288.13 50C287.664 51.4 287.13 53.2333 286.53 55.5C285.997 57.7 285.964 59.4667 286.43 60.8C286.964 62.1333 287.964 62.5 289.43 61.9C290.897 61.3 292.83 59.2667 295.23 55.8Z" fill="#212529"/>
</svg>
