<svg width="420" height="72" viewBox="0 0 420 72" fill="none" xmlns="http://www.w3.org/2000/svg">
<g filter="url(#filter0_d_305_677)">
<path d="M0.00507825 34.33C0.00507825 28.93 0.785078 24.16 2.34508 20.02C3.90508 15.82 6.00508 12.31 8.64508 9.48999C11.3451 6.61 14.4951 4.42 18.0951 2.92C21.7551 1.42 25.6551 0.669996 29.7951 0.669996C33.9351 0.669996 37.8051 1.42 41.4051 2.92C45.0051 4.42 48.1251 6.61 50.7651 9.48999C53.4651 12.31 55.5951 15.82 57.1551 20.02C58.7151 24.16 59.4951 28.93 59.4951 34.33C59.4951 39.73 58.7151 44.53 57.1551 48.73C55.5951 52.87 53.4651 56.38 50.7651 59.26C48.1251 62.08 45.0051 64.24 41.4051 65.74C37.8051 67.18 33.9351 67.9 29.7951 67.9C25.6551 67.9 21.7551 67.18 18.0951 65.74C14.4951 64.24 11.3451 62.08 8.64508 59.26C6.00508 56.38 3.90508 52.87 2.34508 48.73C0.785078 44.53 0.00507825 39.73 0.00507825 34.33ZM16.3851 34.33C16.3851 39.73 16.7451 44.38 17.4651 48.28C18.1851 52.12 19.1451 55.3 20.3451 57.82C21.5451 60.28 22.9551 62.11 24.5751 63.31C26.1951 64.51 27.9351 65.11 29.7951 65.11C31.5951 65.11 33.3051 64.51 34.9251 63.31C36.5451 62.11 37.9551 60.28 39.1551 57.82C40.3551 55.3 41.3151 52.12 42.0351 48.28C42.7551 44.38 43.1151 39.73 43.1151 34.33C43.1151 28.93 42.7551 24.31 42.0351 20.47C41.3151 16.57 40.3551 13.39 39.1551 10.93C37.9551 8.41 36.5451 6.55 34.9251 5.34999C33.3051 4.15 31.5951 3.55 29.7951 3.55C27.9351 3.55 26.1951 4.15 24.5751 5.34999C22.9551 6.55 21.5451 8.41 20.3451 10.93C19.1451 13.39 18.1851 16.57 17.4651 20.47C16.7451 24.31 16.3851 28.93 16.3851 34.33ZM97.0054 33.7C97.0054 32.56 96.8854 31.48 96.6454 30.46C96.4054 29.38 96.0754 28.45 95.6554 27.67C95.2954 26.83 94.8454 26.17 94.3054 25.69C93.8254 25.15 93.3154 24.88 92.7754 24.88V23.98C94.4554 23.86 96.1354 23.71 97.8154 23.53C99.4954 23.29 101.145 23.02 102.765 22.72C104.385 22.42 105.915 22.09 107.355 21.73C108.795 21.31 110.085 20.83 111.225 20.29H112.305V55.03C112.305 59.23 112.725 62.14 113.565 63.76C114.405 65.32 115.395 66.1 116.535 66.1V67H97.0054V60.43C96.3454 61.33 95.4754 62.23 94.3954 63.13C93.3754 64.03 92.1454 64.84 90.7054 65.56C89.2654 66.28 87.6754 66.85 85.9354 67.27C84.1954 67.69 82.2754 67.9 80.1754 67.9C75.4954 67.9 71.8054 66.55 69.1054 63.85C66.4054 61.15 65.0554 57.19 65.0554 51.97V33.7C65.0554 32.56 64.9354 31.48 64.6954 30.46C64.4554 29.38 64.1254 28.45 63.7054 27.67C63.3454 26.83 62.8954 26.17 62.3554 25.69C61.8754 25.15 61.3654 24.88 60.8254 24.88V23.98C62.5054 23.86 64.1854 23.71 65.8654 23.53C67.5454 23.29 69.1954 23.02 70.8154 22.72C72.4354 22.42 73.9654 22.09 75.4054 21.73C76.8454 21.31 78.1354 20.83 79.2754 20.29H80.3554V52.69C80.3554 55.21 81.0154 57.43 82.3354 59.35C83.6554 61.21 85.6054 62.14 88.1854 62.14C89.2654 62.14 90.3154 61.96 91.3354 61.6C92.4154 61.24 93.3754 60.73 94.2154 60.07C95.0554 59.41 95.7154 58.66 96.1954 57.82C96.7354 56.92 97.0054 55.93 97.0054 54.85V33.7ZM119.273 66.1C119.813 66.1 120.323 65.86 120.803 65.38C121.343 64.84 121.793 64.18 122.153 63.4C122.573 62.56 122.903 61.63 123.143 60.61C123.383 59.53 123.503 58.48 123.503 57.46V33.7C123.503 32.56 123.383 31.48 123.143 30.46C122.903 29.38 122.573 28.45 122.153 27.67C121.793 26.83 121.343 26.17 120.803 25.69C120.323 25.15 119.813 24.88 119.273 24.88V23.98C120.953 23.86 122.633 23.71 124.313 23.53C125.993 23.29 127.643 23.02 129.263 22.72C130.883 22.42 132.413 22.09 133.853 21.73C135.293 21.31 136.583 20.83 137.723 20.29H138.803V27.22C140.603 24.7 142.853 22.78 145.553 21.46C148.313 20.08 151.283 19.39 154.463 19.39C156.683 19.39 158.513 19.81 159.953 20.65C161.393 21.49 162.473 22.54 163.193 23.8C163.913 25.06 164.273 26.44 164.273 27.94C164.273 29.44 163.973 30.82 163.373 32.08C162.773 33.34 161.873 34.39 160.673 35.23C159.533 36.07 158.123 36.49 156.443 36.49C154.463 36.49 152.993 35.95 152.033 34.87C151.073 33.79 150.293 32.62 149.693 31.36C149.093 30.04 148.493 28.84 147.893 27.76C147.293 26.68 146.303 26.14 144.923 26.14C144.203 26.14 143.513 26.35 142.853 26.77C142.253 27.19 141.683 27.73 141.143 28.39C140.603 28.99 140.123 29.62 139.703 30.28C139.343 30.88 139.043 31.42 138.803 31.9V57.1C138.803 58.18 138.923 59.26 139.163 60.34C139.403 61.42 139.703 62.41 140.063 63.31C140.483 64.15 140.933 64.84 141.413 65.38C141.953 65.86 142.493 66.1 143.033 66.1V67H119.273V66.1ZM260.834 57.01C260.834 59.89 261.254 62.11 262.094 63.67C262.934 65.23 263.894 66.01 264.974 66.01V67H240.404V66.01C241.544 66.01 242.534 65.23 243.374 63.67C244.214 62.11 244.634 59.89 244.634 57.01V11.47L225.374 67H217.904L199.634 13.99V57.91C199.634 60.61 200.054 62.65 200.894 64.03C201.734 65.41 202.694 66.1 203.774 66.1V67H192.704V66.1C193.844 66.1 194.834 65.41 195.674 64.03C196.514 62.65 196.934 60.61 196.934 57.91V12.01C196.934 10.33 196.724 8.89 196.304 7.69C195.884 6.49 195.374 5.53 194.774 4.81C194.174 4.03 193.514 3.46 192.794 3.1C192.074 2.74 191.444 2.56 190.904 2.56V1.66H212.684L228.704 48.37L244.814 1.66H264.974V2.56C263.894 2.56 262.934 3.25 262.094 4.63C261.254 6.01 260.834 8.05 260.834 10.75V57.01ZM280.126 40.81C280.426 46.57 281.836 50.98 284.356 54.04C286.936 57.1 290.266 58.63 294.346 58.63C295.186 58.63 296.296 58.57 297.676 58.45C299.056 58.27 300.466 57.85 301.906 57.19C303.346 56.53 304.696 55.57 305.956 54.31C307.216 52.99 308.086 51.16 308.566 48.82H309.466C309.226 51.88 308.506 54.61 307.306 57.01C306.166 59.35 304.666 61.33 302.806 62.95C300.946 64.57 298.786 65.8 296.326 66.64C293.866 67.48 291.196 67.9 288.316 67.9C284.836 67.9 281.626 67.3 278.686 66.1C275.806 64.9 273.316 63.22 271.216 61.06C269.116 58.9 267.466 56.32 266.266 53.32C265.126 50.32 264.556 47.02 264.556 43.42C264.556 39.82 265.096 36.55 266.176 33.61C267.316 30.67 268.876 28.15 270.856 26.05C272.896 23.95 275.296 22.33 278.056 21.19C280.876 19.99 283.966 19.39 287.326 19.39C290.386 19.39 293.236 19.9 295.876 20.92C298.576 21.88 300.916 23.26 302.896 25.06C304.876 26.8 306.436 28.87 307.576 31.27C308.716 33.61 309.286 36.16 309.286 38.92V40.81H280.126ZM294.436 38.65C294.256 33.37 293.566 29.23 292.366 26.23C291.166 23.17 289.606 21.64 287.686 21.64C286.546 21.64 285.526 22.09 284.626 22.99C283.726 23.89 282.946 25.12 282.286 26.68C281.626 28.24 281.116 30.07 280.756 32.17C280.396 34.21 280.156 36.37 280.036 38.65H294.436ZM344.319 34.15C344.319 28.75 341.739 26.05 336.579 26.05C335.019 26.05 333.459 26.5 331.899 27.4C330.399 28.3 329.139 29.53 328.119 31.09V57.1C328.119 58.18 328.239 59.26 328.479 60.34C328.719 61.42 329.019 62.41 329.379 63.31C329.799 64.15 330.249 64.84 330.729 65.38C331.269 65.86 331.809 66.1 332.349 66.1V67H308.589V66.1C309.129 66.1 309.639 65.86 310.119 65.38C310.659 64.84 311.109 64.18 311.469 63.4C311.889 62.56 312.219 61.63 312.459 60.61C312.699 59.53 312.819 58.48 312.819 57.46V33.7C312.819 32.56 312.699 31.48 312.459 30.46C312.219 29.38 311.889 28.45 311.469 27.67C311.109 26.83 310.659 26.17 310.119 25.69C309.639 25.15 309.129 24.88 308.589 24.88V23.98C310.269 23.86 311.949 23.71 313.629 23.53C315.309 23.29 316.959 23.02 318.579 22.72C320.199 22.42 321.729 22.09 323.169 21.73C324.609 21.31 325.899 20.83 327.039 20.29H328.119V27.04C329.859 24.94 332.139 23.14 334.959 21.64C337.839 20.14 340.989 19.39 344.409 19.39C349.329 19.39 353.079 20.86 355.659 23.8C358.299 26.74 359.619 31 359.619 36.58V57.1C359.619 58.18 359.739 59.26 359.979 60.34C360.219 61.42 360.519 62.41 360.879 63.31C361.299 64.15 361.749 64.84 362.229 65.38C362.769 65.86 363.309 66.1 363.849 66.1V67H340.089V66.1C340.629 66.1 341.139 65.86 341.619 65.38C342.159 64.84 342.609 64.18 342.969 63.4C343.389 62.56 343.719 61.63 343.959 60.61C344.199 59.53 344.319 58.48 344.319 57.46V34.15ZM396.449 33.7C396.449 32.56 396.329 31.48 396.089 30.46C395.849 29.38 395.519 28.45 395.099 27.67C394.739 26.83 394.289 26.17 393.749 25.69C393.269 25.15 392.759 24.88 392.219 24.88V23.98C393.899 23.86 395.579 23.71 397.259 23.53C398.939 23.29 400.589 23.02 402.209 22.72C403.829 22.42 405.359 22.09 406.799 21.73C408.239 21.31 409.529 20.83 410.669 20.29H411.749V55.03C411.749 59.23 412.169 62.14 413.009 63.76C413.849 65.32 414.839 66.1 415.979 66.1V67H396.449V60.43C395.789 61.33 394.919 62.23 393.839 63.13C392.819 64.03 391.589 64.84 390.149 65.56C388.709 66.28 387.119 66.85 385.379 67.27C383.639 67.69 381.719 67.9 379.619 67.9C374.939 67.9 371.249 66.55 368.549 63.85C365.849 61.15 364.499 57.19 364.499 51.97V33.7C364.499 32.56 364.379 31.48 364.139 30.46C363.899 29.38 363.569 28.45 363.149 27.67C362.789 26.83 362.339 26.17 361.799 25.69C361.319 25.15 360.809 24.88 360.269 24.88V23.98C361.949 23.86 363.629 23.71 365.309 23.53C366.989 23.29 368.639 23.02 370.259 22.72C371.879 22.42 373.409 22.09 374.849 21.73C376.289 21.31 377.579 20.83 378.719 20.29H379.799V52.69C379.799 55.21 380.459 57.43 381.779 59.35C383.099 61.21 385.049 62.14 387.629 62.14C388.709 62.14 389.759 61.96 390.779 61.6C391.859 61.24 392.819 60.73 393.659 60.07C394.499 59.41 395.159 58.66 395.639 57.82C396.179 56.92 396.449 55.93 396.449 54.85V33.7Z" fill="#336021"/>
</g>
<defs>
<filter id="filter0_d_305_677" x="0.00488281" y="0.669983" width="419.974" height="71.23" filterUnits="userSpaceOnUse" color-interpolation-filters="sRGB">
<feFlood flood-opacity="0" result="BackgroundImageFix"/>
<feColorMatrix in="SourceAlpha" type="matrix" values="0 0 0 0 0 0 0 0 0 0 0 0 0 0 0 0 0 0 127 0" result="hardAlpha"/>
<feOffset dx="4" dy="4"/>
<feComposite in2="hardAlpha" operator="out"/>
<feColorMatrix type="matrix" values="0 0 0 0 0.690196 0 0 0 0 0.772549 0 0 0 0 0.72549 0 0 0 1 0"/>
<feBlend mode="normal" in2="BackgroundImageFix" result="effect1_dropShadow_305_677"/>
<feBlend mode="normal" in="SourceGraphic" in2="effect1_dropShadow_305_677" result="shape"/>
</filter>
</defs>
</svg>
