<svg width="327" height="38" viewBox="0 0 327 38" fill="none" xmlns="http://www.w3.org/2000/svg">
<path d="M0.10637 37V2.38462H18.5679V8.15385H6.79868V13.6923H17.4141V19.4615H6.79868V37H0.10637ZM21.2903 37V13.9231H27.2903V17.8846C28.0851 16.5513 29.0851 15.5256 30.2903 14.8077C31.521 14.0641 32.9569 13.6923 34.598 13.6923L36.0595 19.6154C35.5723 19.4615 35.021 19.3846 34.4056 19.3846C32.4826 19.3846 30.9313 20.0128 29.7518 21.2692C28.5723 22.5 27.9826 24.2692 27.9826 26.5769V37H21.2903ZM50.1809 37.7692C47.5911 37.7692 45.3091 37.2308 43.3347 36.1538C41.3604 35.0769 39.8219 33.6026 38.7194 31.7308C37.6168 29.8333 37.0655 27.6667 37.0655 25.2308C37.0655 22.8974 37.604 20.8333 38.6809 19.0385C39.7578 17.2179 41.2065 15.7821 43.027 14.7308C44.8732 13.6795 46.9117 13.1538 49.1424 13.1538C51.4245 13.1538 53.4629 13.6795 55.2578 14.7308C57.0527 15.7564 58.4629 17.1667 59.4886 18.9615C60.5399 20.7564 61.0655 22.7949 61.0655 25.0769V27.4231H46.9886C46.3476 27.4231 45.7322 27.3846 45.1424 27.3077C44.5527 27.2308 43.9629 27.141 43.3732 27.0385C43.6809 28.5769 44.4373 29.8333 45.6424 30.8077C46.8732 31.7564 48.4373 32.2308 50.3347 32.2308C51.7963 32.2308 53.104 31.9359 54.2578 31.3462C55.4373 30.7564 56.3988 30.0256 57.1424 29.1538L58.604 35.1538C57.4501 36.0256 56.1424 36.6795 54.6809 37.1154C53.245 37.5513 51.745 37.7692 50.1809 37.7692ZM43.2194 23C44.5014 22.7179 45.7578 22.5769 46.9886 22.5769H51.0655C51.7835 22.5769 52.4629 22.6026 53.104 22.6538C53.745 22.7051 54.3476 22.7949 54.9117 22.9231C54.527 21.5385 53.8219 20.4487 52.7963 19.6538C51.7963 18.859 50.5527 18.4615 49.0655 18.4615C47.6553 18.4615 46.4245 18.8718 45.3732 19.6923C44.3476 20.4872 43.6296 21.5897 43.2194 23ZM72.3528 37.7692C70.7887 37.7692 69.1989 37.5128 67.5835 37C65.9938 36.4872 64.7502 35.7949 63.8528 34.9231L65.5066 28.6154C66.2502 29.641 67.2758 30.5385 68.5835 31.3077C69.9169 32.0769 71.2887 32.4615 72.6989 32.4615C73.6476 32.4615 74.3271 32.2821 74.7374 31.9231C75.1733 31.5641 75.3912 31.1282 75.3912 30.6154C75.3912 30.0256 75.1733 29.6026 74.7374 29.3462C74.3015 29.0641 73.8528 28.8333 73.3912 28.6538L70.1605 27.4231C69.4425 27.141 68.622 26.7564 67.6989 26.2692C66.7758 25.7821 65.9682 25.0897 65.2758 24.1923C64.6092 23.2949 64.2758 22.1154 64.2758 20.6538C64.2758 19.3205 64.6092 18.0897 65.2758 16.9615C65.9425 15.8333 66.904 14.9231 68.1605 14.2308C69.4425 13.5128 70.981 13.1538 72.7758 13.1538C74.4425 13.1538 75.9938 13.4359 77.4297 14C78.8912 14.5641 79.9553 15.1923 80.622 15.8846L79.0835 21.9615C78.2117 20.8333 77.1733 19.9744 75.9681 19.3846C74.7887 18.7692 73.6605 18.4615 72.5835 18.4615C71.763 18.4615 71.1605 18.6282 70.7758 18.9615C70.3912 19.2949 70.1989 19.6795 70.1989 20.1154C70.1989 20.4487 70.3271 20.7821 70.5835 21.1154C70.8656 21.4231 71.3271 21.7051 71.9682 21.9615L74.9681 23.0769C75.8399 23.3846 76.763 23.7949 77.7374 24.3077C78.7374 24.8205 79.5835 25.5385 80.2758 26.4615C80.9681 27.359 81.3143 28.6026 81.3143 30.1923C81.3143 32.4231 80.481 34.2436 78.8143 35.6538C77.1733 37.0641 75.0194 37.7692 72.3528 37.7692ZM85.1665 37V0.0769235H91.8588V15.6538C92.6793 14.8333 93.6152 14.2179 94.6665 13.8077C95.7434 13.3718 96.8844 13.1538 98.0895 13.1538C99.7306 13.1538 101.256 13.5513 102.666 14.3462C104.102 15.1154 105.256 16.2564 106.128 17.7692C107.025 19.2564 107.474 21.0641 107.474 23.1923V37H100.782V24.0769C100.782 22.7949 100.397 21.6538 99.628 20.6538C98.8588 19.6538 97.7562 19.1538 96.3203 19.1538C95.1665 19.1538 94.128 19.5513 93.2049 20.3462C92.3075 21.1154 91.8588 22.3333 91.8588 24V37H85.1665ZM124.776 37V2.38462H135.237C137.648 2.38462 139.686 2.74359 141.353 3.46154C143.045 4.17949 144.404 5.12821 145.43 6.30769C146.455 7.46154 147.199 8.73077 147.66 10.1154C148.148 11.4744 148.391 12.8205 148.391 14.1538C148.391 15.4615 148.16 16.8077 147.699 18.1923C147.237 19.5513 146.481 20.8205 145.43 22C144.404 23.1538 143.058 24.0897 141.391 24.8077C139.725 25.5256 137.673 25.8846 135.237 25.8846H131.468V37H124.776ZM131.468 19.8846H134.853C136.494 19.8846 137.789 19.6026 138.737 19.0385C139.712 18.4487 140.404 17.7179 140.814 16.8462C141.25 15.9744 141.468 15.0769 141.468 14.1538C141.468 13.2564 141.263 12.3718 140.853 11.5C140.443 10.6026 139.75 9.85898 138.776 9.26923C137.827 8.67949 136.519 8.38462 134.853 8.38462H131.468V19.8846ZM160.942 37.6154C158.814 37.6154 156.878 37.0641 155.134 35.9615C153.39 34.859 151.993 33.3974 150.942 31.5769C149.916 29.7308 149.403 27.6923 149.403 25.4615C149.403 23.2308 149.916 21.1923 150.942 19.3462C151.993 17.5 153.39 16.0385 155.134 14.9615C156.878 13.859 158.814 13.3077 160.942 13.3077C162.429 13.3077 163.788 13.5769 165.019 14.1154C166.249 14.6282 167.301 15.3462 168.172 16.2692V13.9231H173.942V37H168.172V34.6538C167.301 35.5769 166.249 36.3077 165.019 36.8462C163.788 37.359 162.429 37.6154 160.942 37.6154ZM161.749 31.7308C162.878 31.7308 163.903 31.4487 164.826 30.8846C165.749 30.3205 166.48 29.5641 167.019 28.6154C167.583 27.6667 167.865 26.6154 167.865 25.4615C167.865 24.3077 167.583 23.2564 167.019 22.3077C166.48 21.359 165.749 20.6026 164.826 20.0385C163.903 19.4744 162.878 19.1923 161.749 19.1923C160.621 19.1923 159.596 19.4744 158.672 20.0385C157.749 20.6026 157.006 21.359 156.442 22.3077C155.903 23.2564 155.634 24.3077 155.634 25.4615C155.634 26.6154 155.903 27.6667 156.442 28.6154C157.006 29.5641 157.749 30.3205 158.672 30.8846C159.596 31.4487 160.621 31.7308 161.749 31.7308ZM179.084 37V13.9231H185.776V37H179.084ZM182.43 10.5769C181.43 10.5769 180.584 10.2308 179.891 9.53846C179.199 8.84615 178.853 8 178.853 7C178.853 5.97436 179.199 5.1282 179.891 4.46154C180.584 3.76923 181.43 3.42308 182.43 3.42308C183.455 3.42308 184.301 3.76923 184.968 4.46154C185.66 5.1282 186.007 5.97436 186.007 7C186.007 8 185.66 8.84615 184.968 9.53846C184.301 10.2308 183.455 10.5769 182.43 10.5769ZM190.906 37V13.9231H196.906V17.8846C197.701 16.5513 198.701 15.5256 199.906 14.8077C201.136 14.0641 202.572 13.6923 204.213 13.6923L205.675 19.6154C205.188 19.4615 204.636 19.3846 204.021 19.3846C202.098 19.3846 200.547 20.0128 199.367 21.2692C198.188 22.5 197.598 24.2692 197.598 26.5769V37H190.906ZM225.228 37.7692C223.894 37.7692 222.574 37.5641 221.266 37.1538C219.984 36.7436 218.907 36.1026 218.035 35.2308L219.843 28.7692C220.356 29.5385 221.01 30.1538 221.805 30.6154C222.6 31.0769 223.497 31.3077 224.497 31.3077C225.702 31.3077 226.702 30.9103 227.497 30.1154C228.318 29.3205 228.728 27.9872 228.728 26.1154V2.38462H235.882V26.6154C235.882 29.1795 235.382 31.2949 234.382 32.9615C233.382 34.6026 232.061 35.8205 230.42 36.6154C228.805 37.3846 227.074 37.7692 225.228 37.7692ZM250.562 37.7692C248.946 37.7692 247.421 37.3846 245.985 36.6154C244.549 35.8205 243.382 34.6795 242.485 33.1923C241.613 31.6795 241.177 29.859 241.177 27.7308V13.9231H247.87V26.8462C247.87 28.1282 248.254 29.2692 249.023 30.2692C249.818 31.2692 250.921 31.7692 252.331 31.7692C253.485 31.7692 254.511 31.359 255.408 30.5385C256.331 29.6923 256.793 28.4872 256.793 26.9231V13.9231H263.485V37H257.408V34.5769C256.588 35.6026 255.575 36.3974 254.37 36.9615C253.19 37.5 251.921 37.7692 250.562 37.7692ZM268.651 37V13.9231H275.343V37H268.651ZM271.997 10.5769C270.997 10.5769 270.151 10.2308 269.459 9.53846C268.766 8.84615 268.42 8 268.42 7C268.42 5.97436 268.766 5.1282 269.459 4.46154C270.151 3.76923 270.997 3.42308 271.997 3.42308C273.023 3.42308 273.869 3.76923 274.535 4.46154C275.228 5.1282 275.574 5.97436 275.574 7C275.574 8 275.228 8.84615 274.535 9.53846C273.869 10.2308 273.023 10.5769 271.997 10.5769ZM291.781 37.7692C289.499 37.7692 287.409 37.2179 285.511 36.1154C283.614 35.0128 282.101 33.5256 280.973 31.6538C279.87 29.7821 279.319 27.7179 279.319 25.4615C279.319 23.1795 279.87 21.1154 280.973 19.2692C282.101 17.3974 283.614 15.9103 285.511 14.8077C287.409 13.7051 289.499 13.1538 291.781 13.1538C293.37 13.1538 294.87 13.4231 296.281 13.9615C297.717 14.4744 298.986 15.2436 300.088 16.2692L298.358 23.0769C297.717 22.0256 296.858 21.1154 295.781 20.3462C294.729 19.5513 293.486 19.1538 292.05 19.1538C290.845 19.1538 289.768 19.4359 288.819 20C287.87 20.5641 287.127 21.3205 286.588 22.2692C286.05 23.2179 285.781 24.2821 285.781 25.4615C285.781 26.6154 286.05 27.6795 286.588 28.6538C287.127 29.6026 287.87 30.359 288.819 30.9231C289.768 31.4872 290.845 31.7692 292.05 31.7692C293.486 31.7692 294.729 31.3846 295.781 30.6154C296.858 29.8205 297.717 28.8974 298.358 27.8462L300.088 34.6538C298.986 35.6795 297.717 36.4615 296.281 37C294.87 37.5128 293.37 37.7692 291.781 37.7692ZM315.529 37.7692C312.94 37.7692 310.658 37.2308 308.683 36.1538C306.709 35.0769 305.17 33.6026 304.068 31.7308C302.965 29.8333 302.414 27.6667 302.414 25.2308C302.414 22.8974 302.953 20.8333 304.029 19.0385C305.106 17.2179 306.555 15.7821 308.376 14.7308C310.222 13.6795 312.26 13.1538 314.491 13.1538C316.773 13.1538 318.812 13.6795 320.606 14.7308C322.401 15.7564 323.812 17.1667 324.837 18.9615C325.888 20.7564 326.414 22.7949 326.414 25.0769V27.4231H312.337C311.696 27.4231 311.081 27.3846 310.491 27.3077C309.901 27.2308 309.312 27.141 308.722 27.0385C309.029 28.5769 309.786 29.8333 310.991 30.8077C312.222 31.7564 313.786 32.2308 315.683 32.2308C317.145 32.2308 318.453 31.9359 319.606 31.3462C320.786 30.7564 321.747 30.0256 322.491 29.1538L323.953 35.1538C322.799 36.0256 321.491 36.6795 320.029 37.1154C318.594 37.5513 317.094 37.7692 315.529 37.7692ZM308.568 23C309.85 22.7179 311.106 22.5769 312.337 22.5769H316.414C317.132 22.5769 317.812 22.6026 318.453 22.6538C319.094 22.7051 319.696 22.7949 320.26 22.9231C319.876 21.5385 319.17 20.4487 318.145 19.6538C317.145 18.859 315.901 18.4615 314.414 18.4615C313.004 18.4615 311.773 18.8718 310.722 19.6923C309.696 20.4872 308.978 21.5897 308.568 23Z" fill="black"/>
</svg>
