<svg width="187" height="29" viewBox="0 0 187 29" fill="none" xmlns="http://www.w3.org/2000/svg">
<g filter="url(#filter0_d_439_893)">
<path d="M3.65994 23.6792C4.02934 23.6792 4.35014 23.4265 4.62233 22.921C4.89452 22.4155 5.03062 21.6961 5.03062 20.7629V5.77294C5.03062 4.89804 4.89452 4.237 4.62233 3.78983C4.35014 3.34266 4.02934 3.11907 3.65994 3.11907V2.82744H11.534C14.1587 2.82744 16.1904 3.26489 17.6292 4.13979C19.0679 5.01469 19.7872 6.22983 19.7872 7.7852C19.7872 8.91285 19.4567 9.86552 18.7957 10.6432C18.1347 11.4015 17.2598 11.8875 16.171 12.1014C16.8709 12.2375 17.532 12.4805 18.1541 12.8305C18.7763 13.1804 19.3206 13.6081 19.7872 14.1136C20.2539 14.6191 20.6135 15.1927 20.8663 15.8343C21.1385 16.4564 21.2746 17.1077 21.2746 17.7882C21.2746 19.9269 20.6038 21.5017 19.2623 22.5127C17.9208 23.5042 15.9183 24 13.2547 24H3.65994V23.6792ZM10.3092 12.3055C11.6507 12.3055 12.6811 11.9458 13.4005 11.2265C14.1198 10.4877 14.4795 9.44751 14.4795 8.106C14.4795 6.70616 14.1101 5.62712 13.3713 4.86887C12.652 4.09118 11.641 3.70234 10.3383 3.70234H10.28V12.3055H10.3092ZM10.7466 23.1251C14.2268 23.1251 15.9669 21.4531 15.9669 18.109C15.9669 14.8233 14.1685 13.1804 10.5716 13.1804H10.28V23.1251H10.7466ZM22.4281 16.4467C22.4281 15.3191 22.6323 14.2789 23.0406 13.3262C23.4683 12.3541 24.0418 11.5181 24.7612 10.8182C25.5 10.1183 26.3652 9.57389 27.3567 9.18504C28.3677 8.77675 29.4468 8.57261 30.5938 8.57261C31.7409 8.57261 32.8005 8.77675 33.7726 9.18504C34.7642 9.57389 35.6197 10.1183 36.339 10.8182C37.0584 11.5181 37.6222 12.3541 38.0305 13.3262C38.4582 14.2789 38.6721 15.3191 38.6721 16.4467C38.6721 17.5549 38.4582 18.5951 38.0305 19.5672C37.6222 20.5198 37.0584 21.3461 36.339 22.0461C35.6197 22.746 34.7642 23.3001 33.7726 23.7084C32.8005 24.0972 31.7409 24.2916 30.5938 24.2916C29.4468 24.2916 28.3677 24.0972 27.3567 23.7084C26.3652 23.3001 25.5 22.746 24.7612 22.0461C24.0418 21.3461 23.4683 20.5198 23.0406 19.5672C22.6323 18.5951 22.4281 17.5549 22.4281 16.4467ZM27.7358 16.4175C27.7358 17.8174 27.8039 18.9839 27.94 19.9171C28.0955 20.8309 28.2997 21.56 28.5524 22.1044C28.8246 22.6293 29.126 23.0084 29.4565 23.2418C29.8064 23.4556 30.1758 23.5626 30.5647 23.5626C30.9535 23.5626 31.3132 23.4556 31.6437 23.2418C31.9937 23.0084 32.295 22.6293 32.5478 22.1044C32.8005 21.56 32.995 20.8309 33.1311 19.9171C33.2866 18.9839 33.3644 17.8174 33.3644 16.4175C33.3644 15.0177 33.2866 13.8609 33.1311 12.9471C32.995 12.0333 32.8005 11.314 32.5478 10.789C32.295 10.2446 31.9937 9.86552 31.6437 9.65165C31.3132 9.41835 30.9535 9.30169 30.5647 9.30169C30.1758 9.30169 29.8064 9.41835 29.4565 9.65165C29.126 9.86552 28.8246 10.2446 28.5524 10.789C28.2997 11.314 28.0955 12.0333 27.94 12.9471C27.8039 13.8609 27.7358 15.0177 27.7358 16.4175ZM49.3714 13.3554C49.3714 11.6056 48.6326 10.7307 47.155 10.7307C46.7078 10.7307 46.2606 10.8765 45.8134 11.1681C45.3663 11.4598 44.9969 11.8486 44.7052 12.3347V20.792C44.7052 21.142 44.7441 21.492 44.8219 21.8419C44.8997 22.1919 44.9969 22.5127 45.1135 22.8043C45.2496 23.0765 45.3954 23.3001 45.551 23.4751C45.726 23.6306 45.9009 23.7084 46.0759 23.7084V24H38.3768V23.7084C38.5518 23.7084 38.717 23.6306 38.8726 23.4751C39.0476 23.3001 39.1934 23.0862 39.31 22.8335C39.4461 22.5613 39.5531 22.2599 39.6308 21.9294C39.7086 21.5794 39.7475 21.2392 39.7475 20.9087V13.2096C39.7475 12.8402 39.7086 12.4902 39.6308 12.1597C39.5531 11.8097 39.4461 11.5084 39.31 11.2556C39.1934 10.9834 39.0476 10.7696 38.8726 10.614C38.717 10.4391 38.5518 10.3516 38.3768 10.3516V10.0599C38.9212 10.0211 39.4656 9.97245 40.0099 9.91412C40.5543 9.83636 41.089 9.74887 41.6139 9.65165C42.1389 9.55444 42.6346 9.44751 43.1013 9.33086C43.5679 9.19476 43.9859 9.03922 44.3553 8.86424H44.7052V11.0223C45.2302 10.3419 45.9301 9.76831 46.805 9.30169C47.6799 8.81564 48.6423 8.57261 49.6922 8.57261C51.7336 8.57261 53.114 9.44751 53.8334 11.1973C54.3389 10.4585 55.0388 9.83635 55.9331 9.33086C56.8469 8.82536 57.8482 8.57261 58.9369 8.57261C60.4534 8.57261 61.6005 9.04895 62.3782 10.0016C63.1753 10.9543 63.5739 12.3347 63.5739 14.1428V20.792C63.5739 21.142 63.6128 21.492 63.6906 21.8419C63.7683 22.1919 63.8655 22.5127 63.9822 22.8043C64.1183 23.0765 64.2641 23.3001 64.4196 23.4751C64.5946 23.6306 64.7696 23.7084 64.9446 23.7084V24H57.2455V23.7084C57.4204 23.7084 57.5857 23.6306 57.7412 23.4751C57.9162 23.3001 58.062 23.0862 58.1787 22.8335C58.3148 22.5613 58.4217 22.2599 58.4995 21.9294C58.5773 21.5794 58.6161 21.2392 58.6161 20.9087V13.3554C58.6161 11.6056 57.8773 10.7307 56.3997 10.7307C55.9914 10.7307 55.5832 10.8571 55.1749 11.1098C54.7666 11.3431 54.4166 11.6639 54.125 12.0722C54.1833 12.3833 54.2319 12.7138 54.2708 13.0638C54.3097 13.3943 54.3291 13.754 54.3291 14.1428V20.792C54.3291 21.142 54.368 21.492 54.4458 21.8419C54.5236 22.1919 54.6208 22.5127 54.7374 22.8043C54.8735 23.0765 55.0193 23.3001 55.1749 23.4751C55.3498 23.6306 55.5248 23.7084 55.6998 23.7084V24H48.0007V23.7084C48.1757 23.7084 48.3409 23.6306 48.4965 23.4751C48.6714 23.3001 48.8173 23.0862 48.9339 22.8335C49.07 22.5613 49.1769 22.2599 49.2547 21.9294C49.3325 21.5794 49.3714 21.2392 49.3714 20.9087V13.3554ZM70.6781 20.1213C70.8337 21.0934 71.2225 21.8225 71.8447 22.3085C72.4668 22.7946 73.1181 23.0376 73.7986 23.0376C74.6735 23.0376 75.3734 22.4641 75.8984 21.317C76.4233 20.1504 76.6858 18.5951 76.6858 16.6508C76.6858 14.7066 76.4233 13.1901 75.8984 12.1014C75.3734 10.9932 74.6929 10.4391 73.8569 10.4391C73.2542 10.4391 72.6418 10.6821 72.0196 11.1681C71.4169 11.6542 70.9698 12.3152 70.6781 13.1513V20.1213ZM65.7495 6.15206C65.7495 5.76321 65.7106 5.38409 65.6329 5.01469C65.5551 4.64529 65.4482 4.32449 65.3121 4.0523C65.1954 3.76067 65.0496 3.53708 64.8746 3.38154C64.7191 3.20656 64.5538 3.11907 64.3789 3.11907V2.82744C64.8843 2.78856 65.4093 2.73995 65.9537 2.68163C66.4981 2.60386 67.0327 2.51637 67.5577 2.41916C68.102 2.32194 68.6075 2.21501 69.0741 2.09836C69.5602 1.96226 69.9782 1.80673 70.3282 1.63175H70.6781V11.3723C71.3003 10.4779 72.0196 9.78775 72.8362 9.30169C73.6722 8.81564 74.6249 8.57261 75.6942 8.57261C76.5691 8.57261 77.3857 8.74759 78.1439 9.09755C78.9022 9.42807 79.5632 9.92385 80.127 10.5849C80.6909 11.2265 81.1283 12.0236 81.4394 12.9763C81.7699 13.9095 81.9352 14.9691 81.9352 16.1551C81.9352 17.341 81.7699 18.4395 81.4394 19.4505C81.1089 20.4421 80.6325 21.2975 80.0104 22.0169C79.4077 22.7363 78.6786 23.3001 77.8231 23.7084C76.9871 24.0972 76.0539 24.2916 75.0235 24.2916C73.0792 24.2916 71.6114 23.6695 70.6198 22.4252L66.0412 24H65.7495V6.15206ZM95.9397 21.5794C95.9397 21.91 95.9883 22.1724 96.0855 22.3669C96.2022 22.5418 96.3771 22.6293 96.6105 22.6293C96.766 22.6293 96.9021 22.5904 97.0187 22.5127C97.1548 22.4349 97.2812 22.2696 97.3979 22.0169H97.6895C97.6895 22.6779 97.3881 23.2223 96.7854 23.65C96.2022 24.0778 95.4634 24.2916 94.569 24.2916C92.722 24.2916 91.5846 23.7375 91.1569 22.6293C90.7097 23.2126 90.1459 23.6403 89.4654 23.9125C88.8044 24.1653 88.0656 24.2916 87.249 24.2916C86.588 24.2916 85.9561 24.1847 85.3534 23.9708C84.7702 23.757 84.2549 23.4459 83.8078 23.0376C83.3606 22.6099 83.0009 22.1044 82.7287 21.5211C82.476 20.9184 82.3496 20.2379 82.3496 19.4797C82.3496 18.3909 82.5635 17.4771 82.9912 16.7383C83.4189 15.9995 83.9536 15.4065 84.5952 14.9594C85.2368 14.5122 85.927 14.1914 86.6658 13.997C87.424 13.8026 88.1239 13.7054 88.7655 13.7054C89.1738 13.7054 89.5141 13.7345 89.7862 13.7928C90.0779 13.8317 90.3112 13.8803 90.4862 13.9387C90.6806 14.0164 90.8458 14.0942 90.9819 14.172V12.0722C90.9819 11.2362 90.8361 10.5654 90.5445 10.0599C90.2723 9.55444 89.9126 9.30169 89.4654 9.30169C88.7072 9.30169 88.3281 10.0697 88.3281 11.6056C88.3281 12.2472 88.0753 12.7818 87.5698 13.2096C87.0643 13.6373 86.3741 13.8512 85.4992 13.8512C84.8188 13.8512 84.2938 13.6762 83.9244 13.3262C83.555 12.9763 83.3703 12.5097 83.3703 11.9264C83.3703 11.4015 83.5161 10.9348 83.8078 10.5266C84.1188 10.0988 84.5368 9.73914 85.0618 9.44751C85.5867 9.15588 86.1992 8.94201 86.8991 8.80592C87.6184 8.65038 88.3864 8.57261 89.203 8.57261C90.3112 8.57261 91.2833 8.73787 92.1193 9.06839C92.9553 9.39891 93.6552 9.87524 94.2191 10.4974C94.8023 11.1001 95.2301 11.8389 95.5023 12.7138C95.7939 13.5693 95.9397 14.5316 95.9397 15.601V21.5794ZM90.9819 16.0676C90.9819 15.7371 90.8847 15.426 90.6903 15.1344C90.5153 14.8427 90.214 14.6969 89.7862 14.6969C89.1058 14.6969 88.5517 15.1246 88.1239 15.9801C87.6962 16.8161 87.4823 18.0215 87.4823 19.5963C87.4823 20.5685 87.6573 21.317 88.0073 21.8419C88.3572 22.3669 88.7752 22.6293 89.2613 22.6293C89.9418 22.6293 90.5153 22.328 90.9819 21.7253V16.0676ZM97.985 23.2709L105.217 9.59333H103.118C102.437 9.59333 101.825 9.7197 101.28 9.97245C100.756 10.2058 100.289 10.5363 99.8806 10.964C99.4918 11.3917 99.171 11.8972 98.9182 12.4805C98.6655 13.0443 98.4711 13.6567 98.335 14.3178H98.0433L98.1891 8.86424H110.846V9.59333L103.672 23.2709H106.034C106.715 23.2709 107.317 23.1543 107.842 22.921C108.387 22.6682 108.853 22.328 109.242 21.9002C109.65 21.4725 109.981 20.9767 110.234 20.4129C110.486 19.8296 110.681 19.2075 110.817 18.5465H111.108L110.963 24H97.985V23.2709ZM127.097 17.7299C127.097 19.8491 126.465 21.4725 125.201 22.6002C123.957 23.7278 122.1 24.2916 119.631 24.2916C118.581 24.2916 117.609 24.1653 116.715 23.9125C115.82 23.6403 115.043 23.2806 114.382 22.8335C113.721 22.3669 113.205 21.8322 112.836 21.2295C112.467 20.6073 112.292 19.9366 112.311 19.2172C112.33 18.4201 112.573 17.7396 113.04 17.1758C113.507 16.5925 114.148 16.3009 114.965 16.3009C115.898 16.3009 116.569 16.5536 116.977 17.0591C117.385 17.5452 117.58 18.1868 117.56 18.9839C117.56 19.4116 117.541 19.888 117.502 20.4129C117.463 20.9184 117.492 21.3947 117.59 21.8419C117.706 22.2891 117.93 22.6682 118.26 22.9793C118.61 23.2709 119.155 23.4167 119.893 23.4167C120.516 23.4167 120.992 23.1834 121.322 22.7168C121.672 22.2502 121.847 21.6086 121.847 20.792L121.877 5.77294C121.877 4.89804 121.74 4.237 121.468 3.78983C121.196 3.34266 120.875 3.11907 120.506 3.11907V2.82744H128.467V3.11907C128.118 3.11907 127.806 3.34266 127.534 3.78983C127.262 4.237 127.126 4.89804 127.126 5.77294L127.097 17.7299ZM139.755 13.2096C139.755 12.8402 139.716 12.4902 139.638 12.1597C139.56 11.8097 139.453 11.5084 139.317 11.2556C139.201 10.9834 139.055 10.7696 138.88 10.614C138.724 10.4391 138.559 10.3516 138.384 10.3516V10.0599C138.929 10.0211 139.473 9.97245 140.017 9.91412C140.562 9.83636 141.096 9.74887 141.621 9.65165C142.146 9.55444 142.642 9.44751 143.109 9.33086C143.575 9.19476 143.993 9.03922 144.363 8.86424H144.713V20.1213C144.713 21.4822 144.849 22.4252 145.121 22.9501C145.393 23.4556 145.714 23.7084 146.083 23.7084V24H139.755V21.8711C139.541 22.1627 139.259 22.4543 138.909 22.746C138.579 23.0376 138.18 23.3001 137.713 23.5334C137.247 23.7667 136.732 23.9514 136.168 24.0875C135.604 24.2236 134.982 24.2916 134.301 24.2916C132.785 24.2916 131.589 23.8542 130.714 22.9793C129.839 22.1044 129.402 20.8212 129.402 19.1297V13.2096C129.402 12.8402 129.363 12.4902 129.285 12.1597C129.207 11.8097 129.101 11.5084 128.964 11.2556C128.848 10.9834 128.702 10.7696 128.527 10.614C128.371 10.4391 128.206 10.3516 128.031 10.3516V10.0599C128.576 10.0211 129.12 9.97245 129.664 9.91412C130.209 9.83636 130.743 9.74887 131.268 9.65165C131.793 9.55444 132.289 9.44751 132.756 9.33086C133.222 9.19476 133.64 9.03922 134.01 8.86424H134.36V19.363C134.36 20.1796 134.573 20.899 135.001 21.5211C135.429 22.1238 136.061 22.4252 136.897 22.4252C137.247 22.4252 137.587 22.3669 137.918 22.2502C138.268 22.1335 138.579 21.9683 138.851 21.7544C139.123 21.5406 139.337 21.2975 139.492 21.0253C139.667 20.7337 139.755 20.4129 139.755 20.063V13.2096ZM150.127 7.63939C149.407 7.63939 148.795 7.40608 148.289 6.93947C147.803 6.47285 147.56 5.89931 147.56 5.21883C147.56 4.53835 147.803 3.96481 148.289 3.4982C148.795 3.03158 149.407 2.79828 150.127 2.79828C150.846 2.79828 151.449 3.03158 151.935 3.4982C152.44 3.96481 152.693 4.53835 152.693 5.21883C152.693 5.89931 152.44 6.47285 151.935 6.93947C151.449 7.40608 150.846 7.63939 150.127 7.63939ZM146.685 23.7084C146.86 23.7084 147.026 23.6306 147.181 23.4751C147.356 23.3001 147.502 23.0862 147.619 22.8335C147.755 22.5613 147.862 22.2599 147.939 21.9294C148.017 21.5794 148.056 21.2392 148.056 20.9087V13.2096C148.056 12.8402 148.017 12.4902 147.939 12.1597C147.862 11.8097 147.755 11.5084 147.619 11.2556C147.502 10.9834 147.356 10.7696 147.181 10.614C147.026 10.4391 146.86 10.3516 146.685 10.3516V10.0599C147.23 10.0211 147.774 9.97245 148.319 9.91412C148.863 9.83636 149.398 9.74887 149.923 9.65165C150.448 9.55444 150.943 9.44751 151.41 9.33086C151.877 9.19476 152.295 9.03922 152.664 8.86424H153.014V20.792C153.014 21.142 153.053 21.492 153.131 21.8419C153.208 22.1919 153.306 22.5127 153.422 22.8043C153.558 23.0765 153.704 23.3001 153.86 23.4751C154.035 23.6306 154.21 23.7084 154.385 23.7084V24H146.685V23.7084ZM166.018 14.7552C165.357 14.7552 164.851 14.6191 164.501 14.3469C164.152 14.0748 163.889 13.7442 163.714 13.3554C163.539 12.9471 163.413 12.5097 163.335 12.043C163.277 11.557 163.189 11.1195 163.072 10.7307C162.975 10.3224 162.81 9.98217 162.577 9.70998C162.363 9.43779 162.023 9.30169 161.556 9.30169C160.778 9.30169 160.185 9.77803 159.777 10.7307C159.388 11.6639 159.194 13.0443 159.194 14.8719C159.194 16.9328 159.583 18.5173 160.36 19.6255C161.157 20.7337 162.198 21.2878 163.481 21.2878C164.589 21.2878 165.532 21.0059 166.31 20.4421C167.087 19.8783 167.612 19.1006 167.884 18.109H168.176C168.079 20.0532 167.457 21.5697 166.31 22.6585C165.182 23.7473 163.646 24.2916 161.702 24.2916C160.574 24.2916 159.544 24.0972 158.61 23.7084C157.677 23.3195 156.87 22.7751 156.19 22.0752C155.529 21.3753 155.014 20.5393 154.644 19.5672C154.275 18.5951 154.09 17.5257 154.09 16.3592C154.09 15.2121 154.275 14.1622 154.644 13.2096C155.014 12.2375 155.529 11.4112 156.19 10.7307C156.851 10.0502 157.638 9.52528 158.552 9.15588C159.485 8.76703 160.506 8.57261 161.614 8.57261C162.489 8.57261 163.316 8.67954 164.093 8.89341C164.871 9.10727 165.542 9.39891 166.105 9.76831C166.689 10.1183 167.146 10.546 167.476 11.0515C167.807 11.5375 167.972 12.0625 167.972 12.6263C167.972 13.2679 167.768 13.7831 167.359 14.172C166.971 14.5608 166.523 14.7552 166.018 14.7552ZM173.831 15.5135C173.928 17.3799 174.385 18.8089 175.202 19.8005C176.038 20.792 177.117 21.2878 178.439 21.2878C178.711 21.2878 179.071 21.2684 179.518 21.2295C179.965 21.1712 180.422 21.0351 180.889 20.8212C181.355 20.6073 181.793 20.2963 182.201 19.888C182.609 19.4602 182.891 18.8673 183.047 18.109H183.338C183.26 19.1006 183.027 19.9852 182.638 20.7629C182.269 21.5211 181.783 22.1627 181.18 22.6877C180.577 23.2126 179.878 23.6112 179.08 23.8833C178.283 24.1555 177.418 24.2916 176.485 24.2916C175.357 24.2916 174.317 24.0972 173.364 23.7084C172.431 23.3195 171.624 22.7751 170.944 22.0752C170.263 21.3753 169.729 20.5393 169.34 19.5672C168.97 18.5951 168.786 17.5257 168.786 16.3592C168.786 15.1927 168.961 14.1331 169.311 13.1804C169.68 12.2277 170.186 11.4112 170.827 10.7307C171.488 10.0502 172.266 9.52528 173.16 9.15588C174.074 8.76703 175.075 8.57261 176.164 8.57261C177.156 8.57261 178.079 8.73787 178.935 9.06839C179.809 9.37946 180.568 9.82663 181.209 10.4099C181.851 10.9737 182.356 11.6445 182.726 12.4222C183.095 13.1804 183.28 14.0067 183.28 14.901V15.5135H173.831ZM178.468 14.8136C178.41 13.1026 178.186 11.7611 177.797 10.789C177.408 9.79747 176.903 9.30169 176.281 9.30169C175.911 9.30169 175.581 9.44751 175.289 9.73914C174.998 10.0308 174.745 10.4293 174.531 10.9348C174.317 11.4403 174.152 12.0333 174.035 12.7138C173.918 13.3748 173.841 14.0748 173.802 14.8136H178.468Z" fill="url(#paint0_radial_439_893)"/>
</g>
<defs>
<filter id="filter0_d_439_893" x="0.820696" y="0.0544022" width="185.357" height="28.3383" filterUnits="userSpaceOnUse" color-interpolation-filters="sRGB">
<feFlood flood-opacity="0" result="BackgroundImageFix"/>
<feColorMatrix in="SourceAlpha" type="matrix" values="0 0 0 0 0 0 0 0 0 0 0 0 0 0 0 0 0 0 127 0" result="hardAlpha"/>
<feOffset dy="1.26187"/>
<feGaussianBlur stdDeviation="1.41961"/>
<feComposite in2="hardAlpha" operator="out"/>
<feColorMatrix type="matrix" values="0 0 0 0 0 0 0 0 0 0 0 0 0 0 0 0 0 0 0.25 0"/>
<feBlend mode="normal" in2="BackgroundImageFix" result="effect1_dropShadow_439_893"/>
<feBlend mode="normal" in="SourceGraphic" in2="effect1_dropShadow_439_893" result="shape"/>
</filter>
<radialGradient id="paint0_radial_439_893" cx="0" cy="0" r="1" gradientUnits="userSpaceOnUse" gradientTransform="translate(93.5 16.5) rotate(-180) scale(98.313 32.18)">
<stop offset="0.868014" stop-color="#FD7034"/>
</radialGradient>
</defs>
</svg>
