<svg width="427" height="116" viewBox="0 0 427 116" fill="none" xmlns="http://www.w3.org/2000/svg">
<g filter="url(#filter0_d_441_898)">
<path d="M44.9374 65.9101C42.4499 65.9101 40.0838 65.455 37.839 64.545C35.6245 63.6046 33.8499 62.4822 32.5152 61.1778L34.7448 52.0772C35.8065 53.9277 37.3081 55.4748 39.2496 56.7185C41.191 57.9319 43.178 58.5386 45.2104 58.5386C46.8788 58.5386 48.1833 58.0836 49.1236 57.1735C50.0944 56.2635 50.5797 55.1563 50.5797 53.8519C50.5797 52.7901 50.3219 51.9104 49.8062 51.2127C49.3208 50.515 48.7293 49.9386 48.0316 49.4836C47.3642 49.0286 46.7727 48.6797 46.257 48.437L41.4337 46.0254C40.0383 45.3277 38.7035 44.5086 37.4295 43.5683C36.1554 42.5975 35.1088 41.3993 34.2898 39.9735C33.5011 38.5478 33.1067 36.7884 33.1067 34.6952C33.1067 32.3898 33.6224 30.3725 34.6538 28.6434C35.7155 26.9143 37.2019 25.5644 39.1131 24.5936C41.0242 23.6229 43.269 23.1376 45.8474 23.1376C48.2743 23.1376 50.428 23.5319 52.3088 24.3206C54.2199 25.079 55.767 25.8981 56.9501 26.7778L54.857 35.6508C53.6436 34.0734 52.1875 32.8145 50.4887 31.8741C48.8203 30.9033 47.1519 30.418 45.4834 30.418C43.997 30.418 42.8443 30.7972 42.0252 31.5556C41.2365 32.3139 40.8422 33.2543 40.8422 34.3767C40.8422 35.0744 40.9938 35.6963 41.2972 36.2423C41.6309 36.7884 42.1011 37.2737 42.7078 37.6984C43.3145 38.1231 44.0273 38.5478 44.8464 38.9725L49.7152 41.3841C50.5342 41.7785 51.4291 42.2942 52.3998 42.9312C53.3706 43.5379 54.3109 44.3115 55.221 45.2519C56.131 46.1922 56.8743 47.3298 57.4506 48.6645C58.027 49.969 58.3152 51.5312 58.3152 53.3513C58.3152 55.7175 57.7691 57.8561 56.6771 59.7672C55.585 61.648 54.0379 63.1496 52.0358 64.272C50.064 65.364 47.6979 65.9101 44.9374 65.9101ZM66.2568 65V43.9778H61.1605V37.6984H66.3933V28.5979H74.0378V37.6984H79.4526V43.9778H74.1743V65H66.2568ZM95.5818 65.9101C92.882 65.9101 90.4097 65.2578 88.1649 63.9534C85.9201 62.649 84.1303 60.8896 82.7956 58.6751C81.4912 56.4607 80.839 54.0187 80.839 51.3492C80.839 48.6494 81.4912 46.2074 82.7956 44.0233C84.1303 41.8088 85.9201 40.0494 88.1649 38.745C90.4097 37.4406 92.882 36.7884 95.5818 36.7884C98.312 36.7884 100.784 37.4406 102.999 38.745C105.244 40.0494 107.018 41.8088 108.323 44.0233C109.657 46.2074 110.325 48.6494 110.325 51.3492C110.325 54.0187 109.657 56.4607 108.323 58.6751C107.018 60.8896 105.244 62.649 102.999 63.9534C100.784 65.2578 98.312 65.9101 95.5818 65.9101ZM95.5818 58.8116C96.9469 58.8116 98.1755 58.478 99.2676 57.8106C100.39 57.1432 101.27 56.2483 101.907 55.1259C102.574 53.9732 102.908 52.7143 102.908 51.3492C102.908 49.9538 102.574 48.6949 101.907 47.5725C101.27 46.4501 100.39 45.5552 99.2676 44.8878C98.1755 44.2205 96.9469 43.8868 95.5818 43.8868C94.2168 43.8868 92.973 44.2205 91.8506 44.8878C90.7586 45.5552 89.8788 46.4501 89.2115 47.5725C88.5744 48.6949 88.2559 49.9538 88.2559 51.3492C88.2559 52.7143 88.5744 53.9732 89.2115 55.1259C89.8788 56.2483 90.7586 57.1432 91.8506 57.8106C92.973 58.478 94.2168 58.8116 95.5818 58.8116ZM114.966 65V37.6984H122.064V42.3852C123.005 40.8078 124.188 39.5944 125.614 38.745C127.07 37.8653 128.768 37.4254 130.71 37.4254L132.439 44.4328C131.863 44.2508 131.21 44.1598 130.482 44.1598C128.207 44.1598 126.372 44.903 124.977 46.3894C123.581 47.8455 122.883 49.9386 122.883 52.6688V65H114.966ZM149.146 65.9101C146.082 65.9101 143.382 65.273 141.046 63.9989C138.71 62.7249 136.89 60.9806 135.586 58.7661C134.281 56.5213 133.629 53.958 133.629 51.0762C133.629 48.3157 134.266 45.8737 135.54 43.7503C136.814 41.5965 138.528 39.8977 140.682 38.654C142.866 37.4102 145.278 36.7884 147.917 36.7884C150.617 36.7884 153.028 37.4102 155.152 38.654C157.275 39.8674 158.944 41.5358 160.157 43.6593C161.401 45.7827 162.023 48.1944 162.023 50.8942V53.6698H145.369C144.61 53.6698 143.882 53.6243 143.185 53.5333C142.487 53.4423 141.789 53.3362 141.092 53.2148C141.456 55.0349 142.351 56.5213 143.776 57.6741C145.232 58.7965 147.083 59.3577 149.328 59.3577C151.057 59.3577 152.604 59.0088 153.969 58.3111C155.364 57.6134 156.502 56.7489 157.382 55.7175L159.111 62.8159C157.746 63.8473 156.198 64.6208 154.469 65.1365C152.771 65.6522 150.996 65.9101 149.146 65.9101ZM140.91 48.437C142.426 48.1033 143.913 47.9365 145.369 47.9365H150.192C151.042 47.9365 151.845 47.9668 152.604 48.0275C153.362 48.0882 154.075 48.1944 154.742 48.346C154.287 46.7079 153.453 45.4187 152.24 44.4783C151.057 43.5379 149.585 43.0677 147.826 43.0677C146.158 43.0677 144.701 43.5531 143.458 44.5238C142.244 45.4642 141.395 46.7686 140.91 48.437ZM181.407 65V24.0476H189.87V57.6286H202.156V65H181.407ZM219.399 65.9101C216.699 65.9101 214.227 65.2578 211.982 63.9534C209.737 62.649 207.947 60.8896 206.613 58.6751C205.308 56.4607 204.656 54.0187 204.656 51.3492C204.656 48.6494 205.308 46.2074 206.613 44.0233C207.947 41.8088 209.737 40.0494 211.982 38.745C214.227 37.4406 216.699 36.7884 219.399 36.7884C222.129 36.7884 224.601 37.4406 226.816 38.745C229.061 40.0494 230.835 41.8088 232.14 44.0233C233.474 46.2074 234.142 48.6494 234.142 51.3492C234.142 54.0187 233.474 56.4607 232.14 58.6751C230.835 60.8896 229.061 62.649 226.816 63.9534C224.601 65.2578 222.129 65.9101 219.399 65.9101ZM219.399 58.8116C220.764 58.8116 221.992 58.478 223.085 57.8106C224.207 57.1432 225.087 56.2483 225.724 55.1259C226.391 53.9732 226.725 52.7143 226.725 51.3492C226.725 49.9538 226.391 48.6949 225.724 47.5725C225.087 46.4501 224.207 45.5552 223.085 44.8878C221.992 44.2205 220.764 43.8868 219.399 43.8868C218.034 43.8868 216.79 44.2205 215.668 44.8878C214.576 45.5552 213.696 46.4501 213.028 47.5725C212.391 48.6949 212.073 49.9538 212.073 51.3492C212.073 52.7143 212.391 53.9732 213.028 55.1259C213.696 56.2483 214.576 57.1432 215.668 57.8106C216.79 58.478 218.034 58.8116 219.399 58.8116ZM252.161 65.9101C249.461 65.9101 246.989 65.2578 244.744 63.9534C242.499 62.649 240.709 60.8896 239.374 58.6751C238.07 56.4607 237.418 54.0187 237.418 51.3492C237.418 48.6494 238.07 46.2074 239.374 44.0233C240.709 41.8088 242.499 40.0494 244.744 38.745C246.989 37.4406 249.461 36.7884 252.161 36.7884C254.041 36.7884 255.816 37.1069 257.485 37.7439C259.183 38.3506 260.685 39.2607 261.989 40.4741L259.942 48.528C259.183 47.2843 258.167 46.2074 256.893 45.2974C255.649 44.357 254.178 43.8868 252.479 43.8868C251.053 43.8868 249.779 44.2205 248.657 44.8878C247.535 45.5552 246.655 46.4501 246.018 47.5725C245.381 48.6949 245.062 49.9538 245.062 51.3492C245.062 52.7143 245.381 53.9732 246.018 55.1259C246.655 56.2483 247.535 57.1432 248.657 57.8106C249.779 58.478 251.053 58.8116 252.479 58.8116C254.178 58.8116 255.649 58.3566 256.893 57.4466C258.167 56.5062 259.183 55.4141 259.942 54.1704L261.989 62.2243C260.685 63.4377 259.183 64.363 257.485 65C255.816 65.6067 254.041 65.9101 252.161 65.9101ZM278.392 65.728C275.874 65.728 273.583 65.0758 271.521 63.7714C269.458 62.467 267.805 60.7379 266.561 58.5841C265.347 56.4 264.741 53.9884 264.741 51.3492C264.741 48.7101 265.347 46.2984 266.561 44.1143C267.805 41.9302 269.458 40.2011 271.521 38.927C273.583 37.6226 275.874 36.9704 278.392 36.9704C280.151 36.9704 281.759 37.2889 283.215 37.9259C284.671 38.5326 285.915 39.382 286.946 40.4741V37.6984H293.771V65H286.946V62.2243C285.915 63.3164 284.671 64.181 283.215 64.818C281.759 65.4247 280.151 65.728 278.392 65.728ZM279.347 58.7661C280.682 58.7661 281.895 58.4325 282.987 57.7651C284.079 57.0977 284.944 56.2028 285.581 55.0804C286.248 53.958 286.582 52.7143 286.582 51.3492C286.582 49.9841 286.248 48.7404 285.581 47.618C284.944 46.4956 284.079 45.6007 282.987 44.9333C281.895 44.266 280.682 43.9323 279.347 43.9323C278.012 43.9323 276.799 44.266 275.707 44.9333C274.615 45.6007 273.735 46.4956 273.068 47.618C272.431 48.7404 272.112 49.9841 272.112 51.3492C272.112 52.7143 272.431 53.958 273.068 55.0804C273.735 56.2028 274.615 57.0977 275.707 57.7651C276.799 58.4325 278.012 58.7661 279.347 58.7661ZM302.949 65V43.9778H297.853V37.6984H303.085V28.5979H310.73V37.6984H316.145V43.9778H310.866V65H302.949ZM320.331 65V37.6984H328.248V65H320.331ZM324.29 33.7397C323.106 33.7397 322.105 33.3302 321.286 32.5111C320.467 31.6921 320.058 30.691 320.058 29.5079C320.058 28.2945 320.467 27.2935 321.286 26.5048C322.105 25.6857 323.106 25.2762 324.29 25.2762C325.503 25.2762 326.504 25.6857 327.293 26.5048C328.112 27.2935 328.521 28.2945 328.521 29.5079C328.521 30.691 328.112 31.6921 327.293 32.5111C326.504 33.3302 325.503 33.7397 324.29 33.7397ZM347.695 65.9101C344.995 65.9101 342.523 65.2578 340.278 63.9534C338.033 62.649 336.243 60.8896 334.909 58.6751C333.604 56.4607 332.952 54.0187 332.952 51.3492C332.952 48.6494 333.604 46.2074 334.909 44.0233C336.243 41.8088 338.033 40.0494 340.278 38.745C342.523 37.4406 344.995 36.7884 347.695 36.7884C350.425 36.7884 352.897 37.4406 355.112 38.745C357.357 40.0494 359.131 41.8088 360.436 44.0233C361.77 46.2074 362.438 48.6494 362.438 51.3492C362.438 54.0187 361.77 56.4607 360.436 58.6751C359.131 60.8896 357.357 62.649 355.112 63.9534C352.897 65.2578 350.425 65.9101 347.695 65.9101ZM347.695 58.8116C349.06 58.8116 350.289 58.478 351.381 57.8106C352.503 57.1432 353.383 56.2483 354.02 55.1259C354.687 53.9732 355.021 52.7143 355.021 51.3492C355.021 49.9538 354.687 48.6949 354.02 47.5725C353.383 46.4501 352.503 45.5552 351.381 44.8878C350.289 44.2205 349.06 43.8868 347.695 43.8868C346.33 43.8868 345.086 44.2205 343.964 44.8878C342.872 45.5552 341.992 46.4501 341.325 47.5725C340.688 48.6949 340.369 49.9538 340.369 51.3492C340.369 52.7143 340.688 53.9732 341.325 55.1259C341.992 56.2483 342.872 57.1432 343.964 57.8106C345.086 58.478 346.33 58.8116 347.695 58.8116ZM367.079 65V37.6984H374.177V40.7016C375.148 39.4275 376.346 38.4568 377.772 37.7894C379.198 37.122 380.73 36.7884 382.368 36.7884C384.309 36.7884 386.114 37.2586 387.783 38.1989C389.482 39.109 390.847 40.4589 391.878 42.2487C392.94 44.0081 393.471 46.1467 393.471 48.6645V65H385.553V49.7111C385.553 48.1944 385.098 46.8444 384.188 45.6614C383.278 44.4783 381.974 43.8868 380.275 43.8868C378.91 43.8868 377.681 44.357 376.589 45.2974C375.527 46.2074 374.997 47.6483 374.997 49.6201V65H367.079Z" fill="black"/>
</g>
<g filter="url(#filter1_d_441_898)">
<path d="M6.62801 99.4062V105H4.75689V91.1968H14.5631V92.725H6.62801V97.8584H14.328V99.4062H6.62801ZM25.6919 99.6903C25.6919 101.545 25.2837 102.926 24.4673 103.834C23.651 104.742 22.4656 105.196 20.9112 105.196C19.3634 105.196 18.1943 104.726 17.4041 103.785C16.6139 102.838 16.2187 101.473 16.2187 99.6903C16.2187 97.8617 16.6139 96.4902 17.4041 95.5758C18.2009 94.6615 19.3895 94.2043 20.97 94.2043C22.5897 94.2043 23.7816 94.6517 24.5457 95.5464C25.3098 96.4346 25.6919 97.8159 25.6919 99.6903ZM23.8404 99.6903C23.8404 98.2274 23.6216 97.1661 23.184 96.5065C22.753 95.8403 22.0248 95.5072 20.9994 95.5072C19.9675 95.5072 19.2197 95.8469 18.756 96.5261C18.2988 97.1988 18.0703 98.2535 18.0703 99.6903C18.0703 101.088 18.2956 102.139 18.7462 102.845C19.2034 103.544 19.9185 103.893 20.8916 103.893C21.9497 103.893 22.704 103.553 23.1546 102.874C23.6118 102.195 23.8404 101.134 23.8404 99.6903ZM29.6595 90.4621V105H27.8961V90.4621H29.6595ZM34.1266 90.4621V105H32.3633V90.4621H34.1266ZM45.7942 99.6903C45.7942 101.545 45.386 102.926 44.5697 103.834C43.7533 104.742 42.5679 105.196 41.0135 105.196C39.4657 105.196 38.2967 104.726 37.5064 103.785C36.7162 102.838 36.321 101.473 36.321 99.6903C36.321 97.8617 36.7162 96.4902 37.5064 95.5758C38.3032 94.6615 39.4918 94.2043 41.0723 94.2043C42.692 94.2043 43.8839 94.6517 44.648 95.5464C45.4121 96.4346 45.7942 97.8159 45.7942 99.6903ZM43.9427 99.6903C43.9427 98.2274 43.7239 97.1661 43.2863 96.5065C42.8553 95.8403 42.1271 95.5072 41.1017 95.5072C40.0698 95.5072 39.322 95.8469 38.8583 96.5261C38.4012 97.1988 38.1726 98.2535 38.1726 99.6903C38.1726 101.088 38.3979 102.139 38.8485 102.845C39.3057 103.544 40.0208 103.893 40.994 103.893C42.052 103.893 42.8063 103.553 43.2569 102.874C43.7141 102.195 43.9427 101.134 43.9427 99.6903ZM53.5432 97.5057L51.6231 105H49.5854L46.6171 94.4002H48.3609L50.183 101.738C50.2353 101.947 50.2973 102.211 50.3692 102.531C50.441 102.851 50.5096 103.188 50.5749 103.54C50.6467 103.233 50.7186 102.926 50.7904 102.619C50.8688 102.313 50.9471 102.009 51.0255 101.708L52.9554 94.4002H54.8461L56.6977 101.679C56.776 101.986 56.8511 102.296 56.923 102.61C57.0014 102.923 57.0765 103.233 57.1483 103.54C57.2201 103.227 57.292 102.9 57.3638 102.561C57.4422 102.215 57.514 101.911 57.5793 101.65L59.4603 94.4002H61.1844L58.1475 105H56.1001L54.2485 97.5057C54.1832 97.2314 54.1212 96.9571 54.0624 96.6828C54.0102 96.402 53.9547 96.1244 53.8959 95.8501C53.8698 95.9938 53.8208 96.2387 53.7489 96.5849C53.6836 96.9245 53.615 97.2314 53.5432 97.5057ZM64.2507 90.4621V92.1471H62.4874V90.4621H64.2507ZM64.2507 94.4002V105H62.4874V94.4002H64.2507ZM68.7669 98.8576V105H67.0035V96.6632C67.0035 96.0428 66.997 95.5464 66.9839 95.1742C66.9774 94.7954 66.9643 94.5374 66.9447 94.4002H68.6101C68.6232 94.5243 68.633 94.6811 68.6395 94.8705C68.6526 95.0599 68.6624 95.2689 68.6689 95.4974C68.6754 95.726 68.682 95.9644 68.6885 96.2126H68.7179C69.1228 95.4811 69.5898 94.9652 70.1188 94.6647C70.6543 94.3578 71.3172 94.2043 72.1075 94.2043C73.27 94.2043 74.119 94.5015 74.6545 95.0958C75.1966 95.6901 75.4677 96.6371 75.4677 97.9368V105H73.6945V98.2796C73.6945 97.2673 73.5312 96.562 73.2047 96.1636C72.8781 95.7652 72.3132 95.566 71.5099 95.566C70.6609 95.566 69.9914 95.8566 69.5016 96.4379C69.0118 97.0192 68.7669 97.8257 68.7669 98.8576ZM82.1488 109.163C80.9929 109.163 80.072 108.935 79.3862 108.478C78.7005 108.027 78.2596 107.384 78.0637 106.548L79.8369 106.293C79.9544 106.783 80.2124 107.158 80.6108 107.42C81.0157 107.687 81.5447 107.821 82.1978 107.821C83.073 107.821 83.7293 107.563 84.1669 107.047C84.611 106.532 84.8331 105.761 84.8331 104.735V103.031H84.8135C84.4804 103.71 84.0232 104.223 83.442 104.569C82.8607 104.909 82.1815 105.078 81.4043 105.078C80.1046 105.078 79.1479 104.647 78.5339 103.785C77.9266 102.923 77.6229 101.568 77.6229 99.7197C77.6229 97.8453 77.9494 96.464 78.6025 95.5758C79.2621 94.6811 80.2614 94.2337 81.6002 94.2337C82.3513 94.2337 83.0011 94.4068 83.5497 94.7529C84.1049 95.0925 84.5326 95.5791 84.8331 96.2126H84.8527C84.8527 96.082 84.8592 95.8795 84.8722 95.6052C84.8853 95.3244 84.9016 95.0599 84.9212 94.8117C84.9408 94.5635 84.9571 94.4264 84.9702 94.4002H86.6454C86.6062 94.7529 86.5866 95.4844 86.5866 96.5946V104.696C86.5866 106.185 86.2176 107.302 85.4796 108.047C84.7416 108.791 83.6314 109.163 82.1488 109.163ZM84.8331 99.7001C84.8331 98.4135 84.5686 97.4012 84.0395 96.6632C83.5171 95.9187 82.8476 95.5464 82.0313 95.5464C81.13 95.5464 80.4736 95.873 80.0622 96.5261C79.6507 97.1792 79.445 98.2372 79.445 99.7001C79.445 101.15 79.6377 102.192 80.023 102.825C80.4083 103.459 81.068 103.775 82.0019 103.775C82.8379 103.775 83.5171 103.413 84.0395 102.688C84.5686 101.957 84.8331 100.961 84.8331 99.7001ZM97.588 105.196C96.5235 105.196 95.7234 104.915 95.1879 104.353C94.6524 103.792 94.3846 103.021 94.3846 102.041C94.3846 100.944 94.7438 100.102 95.4622 99.514C96.1871 98.9262 97.3529 98.6127 98.9595 98.5735L101.34 98.5343V97.9564C101.34 97.0943 101.157 96.4771 100.791 96.1048C100.426 95.7326 99.851 95.5464 99.0673 95.5464C98.2771 95.5464 97.7023 95.6803 97.3431 95.9481C96.9839 96.2159 96.7684 96.6436 96.6966 97.2314L94.8548 97.0649C95.1553 95.1578 96.5725 94.2043 99.1065 94.2043C100.439 94.2043 101.441 94.5113 102.114 95.1252C102.787 95.7326 103.123 96.6142 103.123 97.7702V102.335C103.123 102.858 103.192 103.253 103.329 103.521C103.466 103.782 103.727 103.913 104.112 103.913C104.295 103.913 104.488 103.89 104.69 103.844V104.941C104.468 104.993 104.243 105.033 104.015 105.059C103.786 105.085 103.557 105.098 103.329 105.098C102.676 105.098 102.199 104.928 101.898 104.589C101.605 104.242 101.438 103.704 101.399 102.972H101.34C100.889 103.782 100.364 104.357 99.7629 104.696C99.1685 105.029 98.4436 105.196 97.588 105.196ZM101.34 99.7687L99.4102 99.8079C98.5873 99.8144 97.9603 99.8993 97.5293 100.063C97.0982 100.219 96.7684 100.461 96.5398 100.788C96.3112 101.114 96.1969 101.542 96.1969 102.071C96.1969 102.646 96.3504 103.09 96.6574 103.403C96.9709 103.717 97.415 103.873 97.9897 103.873C98.6428 103.873 99.2175 103.726 99.7139 103.433C100.217 103.139 100.612 102.737 100.899 102.228C101.193 101.712 101.34 101.183 101.34 100.641V99.7687ZM107.855 99.4748V105H106.091V96.8689C106.091 96.4967 106.085 96.1048 106.072 95.6934C106.065 95.2819 106.052 94.8509 106.033 94.4002H107.698C107.711 94.7007 107.721 94.9717 107.727 95.2133C107.74 95.455 107.75 95.6672 107.757 95.8501C107.763 96.0265 107.767 96.1767 107.767 96.3008C107.773 96.4183 107.776 96.5065 107.776 96.5653H107.816C108.011 95.9252 108.227 95.4289 108.462 95.0762C108.691 94.7496 108.952 94.5243 109.246 94.4002C109.54 94.2696 109.902 94.2043 110.333 94.2043C110.575 94.2043 110.813 94.237 111.048 94.3023V95.9187C110.826 95.8534 110.513 95.8207 110.108 95.8207C109.376 95.8207 108.818 96.1375 108.433 96.771C108.047 97.398 107.855 98.2992 107.855 99.4748ZM114.085 100.072C114.085 101.287 114.337 102.224 114.84 102.884C115.342 103.544 116.077 103.873 117.044 103.873C117.808 103.873 118.419 103.72 118.876 103.413C119.339 103.106 119.653 102.717 119.816 102.247L121.364 102.688C120.731 104.36 119.29 105.196 117.044 105.196C115.476 105.196 114.281 104.729 113.458 103.795C112.642 102.861 112.234 101.473 112.234 99.6315C112.234 97.8812 112.642 96.5391 113.458 95.6052C114.281 94.6713 115.453 94.2043 116.975 94.2043C118.536 94.2043 119.705 94.6745 120.482 95.615C121.26 96.5555 121.648 97.9629 121.648 99.8373V100.072H114.085ZM119.826 98.7205C119.728 97.6037 119.444 96.7906 118.974 96.2812C118.503 95.7652 117.828 95.5072 116.946 95.5072C116.09 95.5072 115.411 95.7946 114.908 96.3693C114.412 96.9375 114.144 97.7212 114.105 98.7205H119.826ZM133.561 104.922C132.986 105.078 132.392 105.157 131.778 105.157C131.072 105.157 130.543 104.958 130.191 104.559C129.838 104.154 129.662 103.553 129.662 102.757V95.6836H128.437V94.4002H129.73L130.249 92.0295H131.425V94.4002H133.384V95.6836H131.425V102.375C131.425 102.884 131.507 103.243 131.67 103.452C131.84 103.655 132.13 103.756 132.542 103.756C132.764 103.756 133.103 103.71 133.561 103.619V104.922ZM136.823 96.2126C137.202 95.5203 137.656 95.0142 138.185 94.6941C138.72 94.3676 139.396 94.2043 140.212 94.2043C141.362 94.2043 142.208 94.5047 142.75 95.1056C143.298 95.6999 143.573 96.6436 143.573 97.9368V105H141.799V98.2796C141.799 97.3196 141.63 96.6273 141.29 96.2028C140.957 95.7783 140.399 95.566 139.615 95.566C138.785 95.566 138.119 95.8534 137.616 96.4281C137.12 97.0028 136.872 97.7768 136.872 98.7499V105H135.108V90.4621H136.872V94.2435C136.872 94.5047 136.865 94.7823 136.852 95.0762C136.839 95.3636 136.826 95.615 136.813 95.8305C136.806 96.0395 136.8 96.1669 136.793 96.2126H136.823ZM147.589 100.072C147.589 101.287 147.841 102.224 148.343 102.884C148.846 103.544 149.581 103.873 150.548 103.873C151.312 103.873 151.922 103.72 152.38 103.413C152.843 103.106 153.157 102.717 153.32 102.247L154.868 102.688C154.234 104.36 152.794 105.196 150.548 105.196C148.98 105.196 147.785 104.729 146.962 103.795C146.146 102.861 145.738 101.473 145.738 99.6315C145.738 97.8812 146.146 96.5391 146.962 95.6052C147.785 94.6713 148.957 94.2043 150.479 94.2043C152.04 94.2043 153.209 94.6745 153.986 95.615C154.763 96.5555 155.152 97.9629 155.152 99.8373V100.072H147.589ZM153.33 98.7205C153.232 97.6037 152.948 96.7906 152.478 96.2812C152.007 95.7652 151.331 95.5072 150.45 95.5072C149.594 95.5072 148.915 95.7946 148.412 96.3693C147.916 96.9375 147.648 97.7212 147.609 98.7205H153.33ZM169.817 105C169.804 104.928 169.788 104.794 169.768 104.598C169.755 104.396 169.742 104.174 169.729 103.932C169.723 103.691 169.719 103.478 169.719 103.295H169.68C169.354 103.975 168.919 104.461 168.377 104.755C167.842 105.049 167.175 105.196 166.379 105.196C165.04 105.196 164.054 104.745 163.42 103.844C162.793 102.943 162.48 101.578 162.48 99.7491C162.48 97.9008 162.803 96.5163 163.45 95.5954C164.103 94.668 165.079 94.2043 166.379 94.2043C167.182 94.2043 167.851 94.3513 168.387 94.6452C168.923 94.939 169.354 95.406 169.68 96.046H169.7L169.68 94.8607V90.4621H171.443V102.815C171.443 103.371 171.447 103.831 171.453 104.197C171.466 104.556 171.483 104.824 171.502 105H169.817ZM164.331 99.6903C164.331 101.173 164.527 102.234 164.919 102.874C165.311 103.514 165.948 103.834 166.829 103.834C167.829 103.834 168.554 103.488 169.004 102.796C169.455 102.104 169.68 101.029 169.68 99.5728C169.68 98.1686 169.455 97.14 169.004 96.4869C168.554 95.8338 167.835 95.5072 166.849 95.5072C165.961 95.5072 165.317 95.8371 164.919 96.4967C164.527 97.1498 164.331 98.2143 164.331 99.6903ZM175.509 100.072C175.509 101.287 175.76 102.224 176.263 102.884C176.766 103.544 177.501 103.873 178.468 103.873C179.232 103.873 179.842 103.72 180.299 103.413C180.763 103.106 181.077 102.717 181.24 102.247L182.788 102.688C182.154 104.36 180.714 105.196 178.468 105.196C176.9 105.196 175.705 104.729 174.882 103.795C174.066 102.861 173.657 101.473 173.657 99.6315C173.657 97.8812 174.066 96.5391 174.882 95.6052C175.705 94.6713 176.877 94.2043 178.399 94.2043C179.96 94.2043 181.129 94.6745 181.906 95.615C182.683 96.5555 183.072 97.9629 183.072 99.8373V100.072H175.509ZM181.25 98.7205C181.152 97.6037 180.868 96.7906 180.397 96.2812C179.927 95.7652 179.251 95.5072 178.37 95.5072C177.514 95.5072 176.835 95.7946 176.332 96.3693C175.836 96.9375 175.568 97.7212 175.529 98.7205H181.25ZM189.4 104.922C188.826 105.078 188.231 105.157 187.617 105.157C186.912 105.157 186.383 104.958 186.03 104.559C185.678 104.154 185.501 103.553 185.501 102.757V95.6836H184.277V94.4002H185.57L186.089 92.0295H187.265V94.4002H189.224V95.6836H187.265V102.375C187.265 102.884 187.346 103.243 187.51 103.452C187.679 103.655 187.97 103.756 188.382 103.756C188.604 103.756 188.943 103.71 189.4 103.619V104.922ZM193.613 105.196C192.548 105.196 191.748 104.915 191.213 104.353C190.677 103.792 190.409 103.021 190.409 102.041C190.409 100.944 190.769 100.102 191.487 99.514C192.212 98.9262 193.378 98.6127 194.984 98.5735L197.365 98.5343V97.9564C197.365 97.0943 197.182 96.4771 196.816 96.1048C196.451 95.7326 195.876 95.5464 195.092 95.5464C194.302 95.5464 193.727 95.6803 193.368 95.9481C193.009 96.2159 192.793 96.6436 192.721 97.2314L190.88 97.0649C191.18 95.1578 192.597 94.2043 195.131 94.2043C196.464 94.2043 197.466 94.5113 198.139 95.1252C198.811 95.7326 199.148 96.6142 199.148 97.7702V102.335C199.148 102.858 199.216 103.253 199.354 103.521C199.491 103.782 199.752 103.913 200.137 103.913C200.32 103.913 200.513 103.89 200.715 103.844V104.941C200.493 104.993 200.268 105.033 200.039 105.059C199.811 105.085 199.582 105.098 199.354 105.098C198.7 105.098 198.224 104.928 197.923 104.589C197.629 104.242 197.463 103.704 197.424 102.972H197.365C196.914 103.782 196.388 104.357 195.788 104.696C195.193 105.029 194.468 105.196 193.613 105.196ZM197.365 99.7687L195.435 99.8079C194.612 99.8144 193.985 99.8993 193.554 100.063C193.123 100.219 192.793 100.461 192.565 100.788C192.336 101.114 192.222 101.542 192.222 102.071C192.222 102.646 192.375 103.09 192.682 103.403C192.996 103.717 193.44 103.873 194.014 103.873C194.668 103.873 195.242 103.726 195.739 103.433C196.242 103.139 196.637 102.737 196.924 102.228C197.218 101.712 197.365 101.183 197.365 100.641V99.7687ZM203.831 90.4621V92.1471H202.067V90.4621H203.831ZM203.831 94.4002V105H202.067V94.4002H203.831ZM208.308 90.4621V105H206.544V90.4621H208.308ZM212.363 100.072C212.363 101.287 212.615 102.224 213.118 102.884C213.62 103.544 214.355 103.873 215.322 103.873C216.086 103.873 216.697 103.72 217.154 103.413C217.617 103.106 217.931 102.717 218.094 102.247L219.642 102.688C219.008 104.36 217.568 105.196 215.322 105.196C213.754 105.196 212.559 104.729 211.736 103.795C210.92 102.861 210.512 101.473 210.512 99.6315C210.512 97.8812 210.92 96.5391 211.736 95.6052C212.559 94.6713 213.731 94.2043 215.253 94.2043C216.814 94.2043 217.983 94.6745 218.76 95.615C219.537 96.5555 219.926 97.9629 219.926 99.8373V100.072H212.363ZM218.104 98.7205C218.006 97.6037 217.722 96.7906 217.252 96.2812C216.781 95.7652 216.105 95.5072 215.224 95.5072C214.368 95.5072 213.689 95.7946 213.186 96.3693C212.69 96.9375 212.422 97.7212 212.383 98.7205H218.104ZM229.007 105C228.994 104.928 228.978 104.794 228.958 104.598C228.945 104.396 228.932 104.174 228.919 103.932C228.913 103.691 228.909 103.478 228.909 103.295H228.87C228.544 103.975 228.109 104.461 227.567 104.755C227.032 105.049 226.366 105.196 225.569 105.196C224.23 105.196 223.244 104.745 222.61 103.844C221.983 102.943 221.67 101.578 221.67 99.7491C221.67 97.9008 221.993 96.5163 222.64 95.5954C223.293 94.668 224.269 94.2043 225.569 94.2043C226.372 94.2043 227.042 94.3513 227.577 94.6452C228.113 94.939 228.544 95.406 228.87 96.046H228.89L228.87 94.8607V90.4621H230.634V102.815C230.634 103.371 230.637 103.831 230.643 104.197C230.656 104.556 230.673 104.824 230.692 105H229.007ZM223.521 99.6903C223.521 101.173 223.717 102.234 224.109 102.874C224.501 103.514 225.138 103.834 226.019 103.834C227.019 103.834 227.744 103.488 228.194 102.796C228.645 102.104 228.87 101.029 228.87 99.5728C228.87 98.1686 228.645 97.14 228.194 96.4869C227.744 95.8338 227.025 95.5072 226.039 95.5072C225.151 95.5072 224.508 95.8371 224.109 96.4967C223.717 97.1498 223.521 98.2143 223.521 99.6903ZM240.695 90.4621V105H238.931V90.4621H240.695ZM252.362 99.6903C252.362 101.545 251.954 102.926 251.138 103.834C250.321 104.742 249.136 105.196 247.581 105.196C246.034 105.196 244.865 104.726 244.074 103.785C243.284 102.838 242.889 101.473 242.889 99.6903C242.889 97.8617 243.284 96.4902 244.074 95.5758C244.871 94.6615 246.06 94.2043 247.64 94.2043C249.26 94.2043 250.452 94.6517 251.216 95.5464C251.98 96.4346 252.362 97.8159 252.362 99.6903ZM250.511 99.6903C250.511 98.2274 250.292 97.1661 249.854 96.5065C249.423 95.8403 248.695 95.5072 247.67 95.5072C246.638 95.5072 245.89 95.8469 245.426 96.5261C244.969 97.1988 244.741 98.2535 244.741 99.6903C244.741 101.088 244.966 102.139 245.416 102.845C245.874 103.544 246.589 103.893 247.562 103.893C248.62 103.893 249.374 103.553 249.825 102.874C250.282 102.195 250.511 101.134 250.511 99.6903ZM258.632 105.196C257.149 105.196 256.016 104.729 255.232 103.795C254.455 102.855 254.067 101.486 254.067 99.6903C254.067 97.9074 254.459 96.5489 255.242 95.615C256.026 94.6745 257.149 94.2043 258.612 94.2043C259.696 94.2043 260.594 94.4851 261.306 95.0468C262.025 95.6085 262.475 96.3824 262.658 97.3686L260.846 97.5057C260.754 96.9179 260.523 96.451 260.15 96.1048C259.778 95.7587 259.249 95.5856 258.563 95.5856C257.629 95.5856 256.953 95.8958 256.535 96.5163C256.117 97.1367 255.908 98.1817 255.908 99.6511C255.908 101.062 256.13 102.107 256.575 102.786C257.019 103.465 257.688 103.805 258.583 103.805C259.21 103.805 259.732 103.635 260.15 103.295C260.575 102.956 260.836 102.433 260.934 101.728L262.717 101.846C262.626 102.525 262.397 103.116 262.031 103.619C261.672 104.122 261.202 104.51 260.621 104.784C260.046 105.059 259.383 105.196 258.632 105.196ZM267.302 105.196C266.237 105.196 265.437 104.915 264.902 104.353C264.366 103.792 264.098 103.021 264.098 102.041C264.098 100.944 264.457 100.102 265.176 99.514C265.901 98.9262 267.067 98.6127 268.673 98.5735L271.054 98.5343V97.9564C271.054 97.0943 270.871 96.4771 270.505 96.1048C270.139 95.7326 269.565 95.5464 268.781 95.5464C267.991 95.5464 267.416 95.6803 267.057 95.9481C266.698 96.2159 266.482 96.6436 266.41 97.2314L264.568 97.0649C264.869 95.1578 266.286 94.2043 268.82 94.2043C270.152 94.2043 271.155 94.5113 271.828 95.1252C272.5 95.7326 272.837 96.6142 272.837 97.7702V102.335C272.837 102.858 272.905 103.253 273.042 103.521C273.18 103.782 273.441 103.913 273.826 103.913C274.009 103.913 274.202 103.89 274.404 103.844V104.941C274.182 104.993 273.957 105.033 273.728 105.059C273.5 105.085 273.271 105.098 273.042 105.098C272.389 105.098 271.913 104.928 271.612 104.589C271.318 104.242 271.152 103.704 271.113 102.972H271.054C270.603 103.782 270.077 104.357 269.477 104.696C268.882 105.029 268.157 105.196 267.302 105.196ZM271.054 99.7687L269.124 99.8079C268.301 99.8144 267.674 99.8993 267.243 100.063C266.812 100.219 266.482 100.461 266.253 100.788C266.025 101.114 265.911 101.542 265.911 102.071C265.911 102.646 266.064 103.09 266.371 103.403C266.685 103.717 267.129 103.873 267.703 103.873C268.356 103.873 268.931 103.726 269.428 103.433C269.93 103.139 270.326 102.737 270.613 102.228C270.907 101.712 271.054 101.183 271.054 100.641V99.7687ZM279.841 104.922C279.266 105.078 278.672 105.157 278.058 105.157C277.353 105.157 276.824 104.958 276.471 104.559C276.119 104.154 275.942 103.553 275.942 102.757V95.6836H274.718V94.4002H276.011L276.53 92.0295H277.706V94.4002H279.665V95.6836H277.706V102.375C277.706 102.884 277.787 103.243 277.95 103.452C278.12 103.655 278.411 103.756 278.822 103.756C279.044 103.756 279.384 103.71 279.841 103.619V104.922ZM283.103 90.4621V92.1471H281.34V90.4621H283.103ZM283.103 94.4002V105H281.34V94.4002H283.103ZM294.781 99.6903C294.781 101.545 294.373 102.926 293.556 103.834C292.74 104.742 291.554 105.196 290 105.196C288.452 105.196 287.283 104.726 286.493 103.785C285.703 102.838 285.308 101.473 285.308 99.6903C285.308 97.8617 285.703 96.4902 286.493 95.5758C287.29 94.6615 288.478 94.2043 290.059 94.2043C291.679 94.2043 292.87 94.6517 293.635 95.5464C294.399 96.4346 294.781 97.8159 294.781 99.6903ZM292.929 99.6903C292.929 98.2274 292.71 97.1661 292.273 96.5065C291.842 95.8403 291.114 95.5072 290.088 95.5072C289.056 95.5072 288.309 95.8469 287.845 96.5261C287.388 97.1988 287.159 98.2535 287.159 99.6903C287.159 101.088 287.384 102.139 287.835 102.845C288.292 103.544 289.007 103.893 289.98 103.893C291.039 103.893 291.793 103.553 292.243 102.874C292.701 102.195 292.929 101.134 292.929 99.6903ZM298.788 98.8576V105H297.024V96.6632C297.024 96.0428 297.018 95.5464 297.005 95.1742C296.998 94.7954 296.985 94.5374 296.965 94.4002H298.631C298.644 94.5243 298.654 94.6811 298.66 94.8705C298.673 95.0599 298.683 95.2689 298.69 95.4974C298.696 95.726 298.703 95.9644 298.709 96.2126H298.739C299.143 95.4811 299.61 94.9652 300.139 94.6647C300.675 94.3578 301.338 94.2043 302.128 94.2043C303.291 94.2043 304.14 94.5015 304.675 95.0958C305.217 95.6901 305.488 96.6371 305.488 97.9368V105H303.715V98.2796C303.715 97.2673 303.552 96.562 303.225 96.1636C302.899 95.7652 302.334 95.566 301.531 95.566C300.681 95.566 300.012 95.8566 299.522 96.4379C299.032 97.0192 298.788 97.8257 298.788 98.8576ZM316.108 102.071C316.108 103.07 315.729 103.841 314.971 104.383C314.22 104.925 313.165 105.196 311.807 105.196C310.488 105.196 309.469 104.98 308.75 104.549C308.039 104.112 307.575 103.433 307.359 102.512L308.917 102.208C309.067 102.776 309.377 103.194 309.848 103.462C310.318 103.723 310.971 103.854 311.807 103.854C312.702 103.854 313.355 103.717 313.766 103.442C314.184 103.168 314.393 102.757 314.393 102.208C314.393 101.79 314.25 101.45 313.962 101.189C313.675 100.928 313.211 100.712 312.571 100.543C311.814 100.34 311.209 100.174 310.759 100.043C310.315 99.9124 309.972 99.8014 309.73 99.7099C309.488 99.612 309.296 99.5205 309.152 99.4356C308.721 99.1874 308.385 98.8838 308.143 98.5245C307.901 98.1653 307.781 97.7245 307.781 97.202C307.781 96.2354 308.124 95.5007 308.809 94.9978C309.502 94.4884 310.507 94.2337 311.827 94.2337C312.996 94.2337 313.923 94.4394 314.609 94.8509C315.301 95.2623 315.739 95.922 315.921 96.8298L314.334 97.0257C314.236 96.5555 313.972 96.1963 313.541 95.9481C313.116 95.6934 312.545 95.566 311.827 95.566C311.03 95.566 310.442 95.6868 310.063 95.9285C309.684 96.1701 309.495 96.5359 309.495 97.0257C309.495 97.3849 309.603 97.6821 309.818 97.9172C310.034 98.1458 310.445 98.3351 311.053 98.4854C311.869 98.6813 312.646 98.8968 313.384 99.1319C314.122 99.3605 314.651 99.5891 314.971 99.8177C315.343 100.085 315.624 100.402 315.814 100.768C316.01 101.127 316.108 101.561 316.108 102.071ZM332.732 99.6903C332.732 101.545 332.324 102.926 331.508 103.834C330.691 104.742 329.506 105.196 327.952 105.196C326.404 105.196 325.235 104.726 324.444 103.785C323.654 102.838 323.259 101.473 323.259 99.6903C323.259 97.8617 323.654 96.4902 324.444 95.5758C325.241 94.6615 326.43 94.2043 328.01 94.2043C329.63 94.2043 330.822 94.6517 331.586 95.5464C332.35 96.4346 332.732 97.8159 332.732 99.6903ZM330.881 99.6903C330.881 98.2274 330.662 97.1661 330.224 96.5065C329.793 95.8403 329.065 95.5072 328.04 95.5072C327.008 95.5072 326.26 95.8469 325.796 96.5261C325.339 97.1988 325.111 98.2535 325.111 99.6903C325.111 101.088 325.336 102.139 325.787 102.845C326.244 103.544 326.959 103.893 327.932 103.893C328.99 103.893 329.744 103.553 330.195 102.874C330.652 102.195 330.881 101.134 330.881 99.6903ZM337.121 95.6836V105H335.358V95.6836H333.869V94.4002H335.358V93.2051C335.358 92.2385 335.57 91.5429 335.994 91.1184C336.419 90.6939 337.069 90.4817 337.944 90.4817C338.434 90.4817 338.848 90.5208 339.188 90.5992V91.9413C338.875 91.8891 338.613 91.863 338.404 91.863C337.954 91.863 337.627 91.9773 337.425 92.2058C337.222 92.4344 337.121 92.8491 337.121 93.45V94.4002H339.188V95.6836H337.121ZM355.068 99.6903C355.068 101.545 354.66 102.926 353.844 103.834C353.027 104.742 351.842 105.196 350.287 105.196C348.74 105.196 347.571 104.726 346.78 103.785C345.99 102.838 345.595 101.473 345.595 99.6903C345.595 97.8617 345.99 96.4902 346.78 95.5758C347.577 94.6615 348.766 94.2043 350.346 94.2043C351.966 94.2043 353.158 94.6517 353.922 95.5464C354.686 96.4346 355.068 97.8159 355.068 99.6903ZM353.217 99.6903C353.217 98.2274 352.998 97.1661 352.56 96.5065C352.129 95.8403 351.401 95.5072 350.376 95.5072C349.344 95.5072 348.596 95.8469 348.132 96.5261C347.675 97.1988 347.446 98.2535 347.446 99.6903C347.446 101.088 347.672 102.139 348.122 102.845C348.58 103.544 349.295 103.893 350.268 103.893C351.326 103.893 352.08 103.553 352.531 102.874C352.988 102.195 353.217 101.134 353.217 99.6903ZM363.973 103.188C363.568 103.919 363.098 104.438 362.562 104.745C362.033 105.046 361.374 105.196 360.583 105.196C359.421 105.196 358.569 104.909 358.027 104.334C357.491 103.753 357.223 102.796 357.223 101.463V94.4002H358.996V101.121C358.996 102.179 359.16 102.897 359.486 103.276C359.819 103.648 360.384 103.834 361.181 103.834C362.03 103.834 362.7 103.544 363.189 102.962C363.679 102.381 363.924 101.575 363.924 100.543V94.4002H365.687V102.737C365.687 103.351 365.691 103.847 365.697 104.226C365.71 104.605 365.727 104.863 365.746 105H364.081C364.074 104.967 364.061 104.814 364.042 104.54C364.029 104.265 364.016 103.815 364.002 103.188H363.973ZM370.243 99.4748V105H368.479V96.8689C368.479 96.4967 368.473 96.1048 368.46 95.6934C368.453 95.2819 368.44 94.8509 368.421 94.4002H370.086C370.099 94.7007 370.109 94.9717 370.115 95.2133C370.129 95.455 370.138 95.6672 370.145 95.8501C370.151 96.0265 370.155 96.1767 370.155 96.3008C370.161 96.4183 370.164 96.5065 370.164 96.5653H370.204C370.4 95.9252 370.615 95.4289 370.85 95.0762C371.079 94.7496 371.34 94.5243 371.634 94.4002C371.928 94.2696 372.29 94.2043 372.721 94.2043C372.963 94.2043 373.201 94.237 373.436 94.3023V95.9187C373.214 95.8534 372.901 95.8207 372.496 95.8207C371.765 95.8207 371.206 96.1375 370.821 96.771C370.435 97.398 370.243 98.2992 370.243 99.4748ZM388.66 102.071C388.66 103.07 388.281 103.841 387.524 104.383C386.773 104.925 385.718 105.196 384.359 105.196C383.04 105.196 382.021 104.98 381.303 104.549C380.591 104.112 380.127 103.433 379.912 102.512L381.47 102.208C381.62 102.776 381.93 103.194 382.4 103.462C382.87 103.723 383.524 103.854 384.359 103.854C385.254 103.854 385.907 103.717 386.319 103.442C386.737 103.168 386.946 102.757 386.946 102.208C386.946 101.79 386.802 101.45 386.515 101.189C386.227 100.928 385.764 100.712 385.124 100.543C384.366 100.34 383.762 100.174 383.311 100.043C382.867 99.9124 382.524 99.8014 382.283 99.7099C382.041 99.612 381.848 99.5205 381.705 99.4356C381.274 99.1874 380.937 98.8838 380.696 98.5245C380.454 98.1653 380.333 97.7245 380.333 97.202C380.333 96.2354 380.676 95.5007 381.362 94.9978C382.054 94.4884 383.06 94.2337 384.379 94.2337C385.548 94.2337 386.476 94.4394 387.161 94.8509C387.854 95.2623 388.291 95.922 388.474 96.8298L386.887 97.0257C386.789 96.5555 386.524 96.1963 386.093 95.9481C385.669 95.6934 385.097 95.566 384.379 95.566C383.582 95.566 382.994 95.6868 382.616 95.9285C382.237 96.1701 382.048 96.5359 382.048 97.0257C382.048 97.3849 382.155 97.6821 382.371 97.9172C382.586 98.1458 382.998 98.3351 383.605 98.4854C384.422 98.6813 385.199 98.8968 385.937 99.1319C386.675 99.3605 387.204 99.5891 387.524 99.8177C387.896 100.085 388.177 100.402 388.366 100.768C388.562 101.127 388.66 101.561 388.66 102.071ZM392.491 96.2126C392.869 95.5203 393.323 95.0142 393.852 94.6941C394.388 94.3676 395.064 94.2043 395.88 94.2043C397.03 94.2043 397.875 94.5047 398.417 95.1056C398.966 95.6999 399.24 96.6436 399.24 97.9368V105H397.467V98.2796C397.467 97.3196 397.297 96.6273 396.958 96.2028C396.625 95.7783 396.066 95.566 395.283 95.566C394.453 95.566 393.787 95.8534 393.284 96.4281C392.788 97.0028 392.54 97.7768 392.54 98.7499V105H390.776V90.4621H392.54V94.2435C392.54 94.5047 392.533 94.7823 392.52 95.0762C392.507 95.3636 392.494 95.615 392.481 95.8305C392.474 96.0395 392.468 96.1669 392.461 96.2126H392.491ZM410.869 99.6903C410.869 101.545 410.46 102.926 409.644 103.834C408.828 104.742 407.642 105.196 406.088 105.196C404.54 105.196 403.371 104.726 402.581 103.785C401.791 102.838 401.396 101.473 401.396 99.6903C401.396 97.8617 401.791 96.4902 402.581 95.5758C403.378 94.6615 404.566 94.2043 406.147 94.2043C407.766 94.2043 408.958 94.6517 409.722 95.5464C410.487 96.4346 410.869 97.8159 410.869 99.6903ZM409.017 99.6903C409.017 98.2274 408.798 97.1661 408.361 96.5065C407.93 95.8403 407.202 95.5072 406.176 95.5072C405.144 95.5072 404.396 95.8469 403.933 96.5261C403.476 97.1988 403.247 98.2535 403.247 99.6903C403.247 101.088 403.472 102.139 403.923 102.845C404.38 103.544 405.095 103.893 406.068 103.893C407.126 103.893 407.881 103.553 408.331 102.874C408.789 102.195 409.017 101.134 409.017 99.6903ZM422.037 99.6511C422.037 101.499 421.71 102.887 421.057 103.815C420.41 104.735 419.437 105.196 418.138 105.196C416.505 105.196 415.408 104.582 414.846 103.354H414.797C414.823 103.4 414.836 103.955 414.836 105.02V109.163H413.073V96.5653C413.073 96.0232 413.066 95.5726 413.053 95.2133C413.047 94.8476 413.034 94.5766 413.014 94.4002H414.719C414.725 94.4264 414.735 94.5537 414.748 94.7823C414.768 95.0109 414.784 95.2591 414.797 95.5268C414.81 95.7881 414.817 95.9807 414.817 96.1048H414.856C415.169 95.4517 415.584 94.975 416.1 94.6745C416.616 94.3676 417.295 94.2141 418.138 94.2141C419.444 94.2141 420.42 94.6517 421.067 95.5268C421.713 96.402 422.037 97.7768 422.037 99.6511ZM420.185 99.6903C420.185 98.2143 419.986 97.1596 419.588 96.5261C419.189 95.8926 418.556 95.5758 417.687 95.5758C416.72 95.5758 416.002 95.9122 415.532 96.5849C415.068 97.251 414.836 98.3319 414.836 99.8275C414.836 101.219 415.058 102.244 415.502 102.904C415.947 103.563 416.668 103.893 417.667 103.893C418.543 103.893 419.179 103.573 419.578 102.933C419.983 102.286 420.185 101.206 420.185 99.6903Z" fill="black"/>
</g>
<defs>
<filter id="filter0_d_441_898" x="28.5151" y="21.1376" width="368.956" height="50.7725" filterUnits="userSpaceOnUse" color-interpolation-filters="sRGB">
<feFlood flood-opacity="0" result="BackgroundImageFix"/>
<feColorMatrix in="SourceAlpha" type="matrix" values="0 0 0 0 0 0 0 0 0 0 0 0 0 0 0 0 0 0 127 0" result="hardAlpha"/>
<feOffset dy="2"/>
<feGaussianBlur stdDeviation="2"/>
<feComposite in2="hardAlpha" operator="out"/>
<feColorMatrix type="matrix" values="0 0 0 0 0 0 0 0 0 0 0 0 0 0 0 0 0 0 0.25 0"/>
<feBlend mode="normal" in2="BackgroundImageFix" result="effect1_dropShadow_441_898"/>
<feBlend mode="normal" in="SourceGraphic" in2="effect1_dropShadow_441_898" result="shape"/>
</filter>
<filter id="filter1_d_441_898" x="0.756836" y="88.4621" width="425.28" height="26.7014" filterUnits="userSpaceOnUse" color-interpolation-filters="sRGB">
<feFlood flood-opacity="0" result="BackgroundImageFix"/>
<feColorMatrix in="SourceAlpha" type="matrix" values="0 0 0 0 0 0 0 0 0 0 0 0 0 0 0 0 0 0 127 0" result="hardAlpha"/>
<feOffset dy="2"/>
<feGaussianBlur stdDeviation="2"/>
<feComposite in2="hardAlpha" operator="out"/>
<feColorMatrix type="matrix" values="0 0 0 0 0 0 0 0 0 0 0 0 0 0 0 0 0 0 0.25 0"/>
<feBlend mode="normal" in2="BackgroundImageFix" result="effect1_dropShadow_441_898"/>
<feBlend mode="normal" in="SourceGraphic" in2="effect1_dropShadow_441_898" result="shape"/>
</filter>
</defs>
</svg>
